<svg id="Layer_1" data-name="Layer 1" xmlns="http://www.w3.org/2000/svg" xmlns:xlink="http://www.w3.org/1999/xlink" viewBox="0 0 287.6 183.9"><defs><style>.cls-1{fill:url(#radial-gradient);}.cls-2{fill:#d8b16c;opacity:0.82;}.cls-3{fill:#f9e4b4;}.cls-4{fill:#f4dba8;}.cls-24,.cls-25,.cls-5,.cls-6{opacity:0.57;}.cls-5{fill:url(#radial-gradient-2);}.cls-6{fill:url(#radial-gradient-3);}.cls-7{fill:#f9f1e6;}.cls-8{fill:url(#linear-gradient);}.cls-11,.cls-12,.cls-9{opacity:0.35;}.cls-9{fill:url(#radial-gradient-4);}.cls-10{fill:url(#linear-gradient-2);}.cls-11{fill:url(#radial-gradient-5);}.cls-12{fill:url(#radial-gradient-6);}.cls-13{fill:url(#linear-gradient-3);}.cls-14{fill:url(#radial-gradient-7);}.cls-15{fill:url(#radial-gradient-8);}.cls-16{fill:url(#radial-gradient-9);}.cls-17{fill:url(#radial-gradient-10);}.cls-18{fill:url(#linear-gradient-4);}.cls-19{fill:url(#linear-gradient-5);}.cls-20{fill:url(#linear-gradient-6);}.cls-21{fill:url(#linear-gradient-7);}.cls-22{fill:url(#linear-gradient-8);}.cls-23{fill:url(#linear-gradient-9);}.cls-24{fill:url(#radial-gradient-11);}.cls-25{fill:url(#radial-gradient-12);}.cls-26,.cls-27,.cls-28,.cls-29,.cls-30,.cls-31,.cls-32,.cls-33,.cls-34,.cls-35,.cls-36,.cls-37,.cls-38,.cls-39,.cls-40,.cls-41,.cls-42,.cls-46,.cls-47,.cls-48,.cls-49,.cls-50,.cls-61{opacity:0.39;}.cls-26{fill:url(#radial-gradient-13);}.cls-27{fill:url(#radial-gradient-14);}.cls-28{fill:url(#radial-gradient-15);}.cls-29{fill:url(#radial-gradient-16);}.cls-30{fill:url(#radial-gradient-17);}.cls-31{fill:url(#radial-gradient-18);}.cls-32{fill:url(#radial-gradient-19);}.cls-33{fill:url(#radial-gradient-20);}.cls-34{fill:url(#radial-gradient-21);}.cls-35{fill:url(#radial-gradient-22);}.cls-36{fill:url(#radial-gradient-23);}.cls-37{fill:url(#radial-gradient-24);}.cls-38{fill:url(#radial-gradient-25);}.cls-39{fill:url(#radial-gradient-26);}.cls-40{fill:url(#radial-gradient-27);}.cls-41{fill:url(#radial-gradient-28);}.cls-42{fill:url(#radial-gradient-29);}.cls-43{opacity:0.62;fill:url(#linear-gradient-10);}.cls-44{fill:#db2e2a;opacity:0.36;}.cls-45{fill:#f4b5b5;}.cls-45,.cls-60{opacity:0.15;}.cls-46{fill:url(#radial-gradient-30);}.cls-47{fill:url(#radial-gradient-31);}.cls-48{fill:url(#radial-gradient-32);}.cls-49{fill:url(#radial-gradient-33);}.cls-50{fill:url(#radial-gradient-34);}.cls-51{fill:url(#linear-gradient-11);}.cls-52{fill:url(#radial-gradient-35);}.cls-53{fill:url(#radial-gradient-36);}.cls-54{fill:url(#radial-gradient-37);}.cls-55,.cls-60{fill:#c39537;}.cls-55{opacity:0.28;}.cls-56{fill:url(#radial-gradient-38);}.cls-57{opacity:0.56;fill:url(#radial-gradient-39);}.cls-58{fill:url(#linear-gradient-12);}.cls-59{fill:#fff5ac;}.cls-61{fill:url(#radial-gradient-40);}.cls-62{fill:#edd096;opacity:0.63;}.cls-63{fill:url(#radial-gradient-41);}</style><radialGradient id="radial-gradient" cx="143.8" cy="91.95" r="120.69" gradientUnits="userSpaceOnUse"><stop offset="0" stop-color="#eed5a2"/><stop offset="0.82" stop-color="#e5be6f"/><stop offset="1" stop-color="#e5be6f"/></radialGradient><radialGradient id="radial-gradient-2" cx="-390.77" cy="918" r="1.63" gradientTransform="matrix(-1.15, 0, 0, 1.16, -309, -1036.37)" gradientUnits="userSpaceOnUse"><stop offset="0.67" stop-color="#f9e4b4"/><stop offset="1" stop-color="#fbf7f0"/></radialGradient><radialGradient id="radial-gradient-3" cx="-385.14" cy="912.62" r="2.36" gradientTransform="matrix(-1.15, 0, 0, 1.16, -310.57, -1026.1)" xlink:href="#radial-gradient-2"/><linearGradient id="linear-gradient" x1="140.19" y1="52.3" x2="140.19" y2="57.96" gradientUnits="userSpaceOnUse"><stop offset="0" stop-color="#fff"/><stop offset="0.51" stop-color="#f5ecdd"/><stop offset="1" stop-color="#e8d3ab"/></linearGradient><radialGradient id="radial-gradient-4" cx="132.96" cy="541.56" r="0.94" gradientTransform="matrix(1, 0, 0, -1, 0, 596.72)" xlink:href="#radial-gradient-2"/><linearGradient id="linear-gradient-2" x1="139.41" y1="52.4" x2="140.14" y2="57.67" gradientUnits="userSpaceOnUse"><stop offset="0.34" stop-color="#f8f2e7"/><stop offset="0.63" stop-color="#f3e9d6"/><stop offset="0.8" stop-color="#ecdbbb"/><stop offset="0.91" stop-color="#e8d3ab"/><stop offset="0.98" stop-color="#e8d3ab"/></linearGradient><radialGradient id="radial-gradient-5" cx="147.44" cy="541.54" r="0.99" gradientTransform="matrix(1, 0, 0, -1, 0, 596.72)" xlink:href="#radial-gradient-2"/><radialGradient id="radial-gradient-6" cx="139.98" cy="538.89" r="2.43" gradientTransform="matrix(1, 0, 0, -1, 0, 596.72)" xlink:href="#radial-gradient-2"/><linearGradient id="linear-gradient-3" x1="154.5" y1="98.96" x2="130" y2="56.52" gradientUnits="userSpaceOnUse"><stop offset="0.21" stop-color="#f5cc56"/><stop offset="0.29" stop-color="#f7d174"/><stop offset="1" stop-color="#c8972c"/></linearGradient><radialGradient id="radial-gradient-7" cx="136.1" cy="51.53" r="0.48" gradientUnits="userSpaceOnUse"><stop offset="0.86" stop-color="#fbf7f0"/><stop offset="0.92" stop-color="#f5eddf"/></radialGradient><radialGradient id="radial-gradient-8" cx="129.95" cy="53.95" r="1.03" xlink:href="#radial-gradient-7"/><radialGradient id="radial-gradient-9" cx="136.86" cy="55.64" r="0.25" xlink:href="#radial-gradient-7"/><radialGradient id="radial-gradient-10" cx="136.06" cy="56.73" r="0.37" xlink:href="#radial-gradient-7"/><linearGradient id="linear-gradient-4" x1="132.04" y1="538.6" x2="132.68" y2="538.6" gradientTransform="matrix(1, 0, 0, -1, 0, 596.72)" gradientUnits="userSpaceOnUse"><stop offset="1" stop-color="#cb9b2d"/><stop offset="1" stop-color="#c8972c"/></linearGradient><linearGradient id="linear-gradient-5" x1="129.06" y1="57.95" x2="129.66" y2="57.95" gradientTransform="matrix(1, 0, 0, 1, 0, 0)" xlink:href="#linear-gradient-4"/><linearGradient id="linear-gradient-6" x1="134.04" y1="57.44" x2="135.36" y2="57.44" gradientUnits="userSpaceOnUse"><stop offset="1" stop-color="#d1a232"/><stop offset="1" stop-color="#d9ab39"/></linearGradient><linearGradient id="linear-gradient-7" x1="128.16" y1="57.8" x2="128.67" y2="57.8" gradientUnits="userSpaceOnUse"><stop offset="0" stop-color="#cb9b2d"/><stop offset="0" stop-color="#c8972c"/></linearGradient><linearGradient id="linear-gradient-8" x1="129.44" y1="57.75" x2="130.8" y2="57.75" gradientTransform="matrix(1, 0, 0, 1, 0, 0)" xlink:href="#linear-gradient-4"/><linearGradient id="linear-gradient-9" x1="143.92" y1="41.94" x2="143.92" y2="50.93" gradientUnits="userSpaceOnUse"><stop offset="0.11" stop-color="#f4e07d"/><stop offset="0.55" stop-color="#f9d20a"/><stop offset="1" stop-color="#f6a31d"/></linearGradient><radialGradient id="radial-gradient-11" cx="-379.9" cy="919.04" r="2.66" gradientTransform="matrix(-1.15, 0, 0, 1.16, -299.52, -1025.37)" xlink:href="#radial-gradient-2"/><radialGradient id="radial-gradient-12" cx="-394.84" cy="912.41" r="0.9" gradientTransform="matrix(-1.15, 0, 0, 1.16, -318.23, -1036.47)" xlink:href="#radial-gradient-2"/><radialGradient id="radial-gradient-13" cx="-363.29" cy="983.93" r="0.51" gradientTransform="matrix(-1, 0, 0, 1, -224.53, -905.69)" xlink:href="#radial-gradient-2"/><radialGradient id="radial-gradient-14" cx="-361.13" cy="982.41" r="0.73" gradientTransform="matrix(-1, 0, 0, 1, -224.54, -902.64)" xlink:href="#radial-gradient-2"/><radialGradient id="radial-gradient-15" cx="-364.46" cy="981.93" r="0.28" gradientTransform="matrix(-1, 0, 0, 1, -227.2, -905.45)" xlink:href="#radial-gradient-2"/><radialGradient id="radial-gradient-16" cx="-360.06" cy="985.46" r="0.93" gradientTransform="matrix(-1, 0, 0, 1, -220.95, -903.66)" xlink:href="#radial-gradient-2"/><radialGradient id="radial-gradient-17" cx="-367.43" cy="977.15" r="0.5" gradientTransform="matrix(-1, 0, 0, 1, -233.68, -905.08)" xlink:href="#radial-gradient-2"/><radialGradient id="radial-gradient-18" cx="-365.32" cy="975.65" r="0.72" gradientTransform="matrix(-1, 0, 0, 1, -233.68, -902.09)" xlink:href="#radial-gradient-2"/><radialGradient id="radial-gradient-19" cx="-368.58" cy="975.18" r="0.28" gradientTransform="matrix(-1, 0, 0, 1, -236.29, -904.85)" xlink:href="#radial-gradient-2"/><radialGradient id="radial-gradient-20" cx="-364.27" cy="978.65" r="0.91" gradientTransform="matrix(-1, 0, 0, 1, -230.16, -903.1)" xlink:href="#radial-gradient-2"/><radialGradient id="radial-gradient-21" cx="-375.17" cy="977.01" r="0.54" gradientTransform="matrix(-1, 0, 0, 1, -238.95, -912.27)" xlink:href="#radial-gradient-2"/><radialGradient id="radial-gradient-22" cx="-372.88" cy="975.39" r="0.78" gradientTransform="matrix(-1, 0, 0, 1, -238.96, -909.04)" xlink:href="#radial-gradient-2"/><radialGradient id="radial-gradient-23" cx="-376.41" cy="974.88" r="0.3" gradientTransform="matrix(-1, 0, 0, 1, -241.78, -912.03)" xlink:href="#radial-gradient-2"/><radialGradient id="radial-gradient-24" cx="-371.74" cy="978.63" r="0.98" gradientTransform="matrix(-1, 0, 0, 1, -235.14, -910.12)" xlink:href="#radial-gradient-2"/><radialGradient id="radial-gradient-25" cx="-357.24" cy="988.81" r="0.88" gradientTransform="matrix(-1, 0, 0, 1, -215.92, -903.22)" xlink:href="#radial-gradient-2"/><radialGradient id="radial-gradient-26" cx="-353.51" cy="986.17" r="1.27" gradientTransform="matrix(-1, 0, 0, 1, -215.93, -897.96)" xlink:href="#radial-gradient-2"/><radialGradient id="radial-gradient-27" cx="-359.26" cy="985.35" r="0.49" gradientTransform="matrix(-1, 0, 0, 1, -220.52, -902.82)" xlink:href="#radial-gradient-2"/><radialGradient id="radial-gradient-28" cx="-351.66" cy="991.45" r="1.6" gradientTransform="matrix(-1, 0, 0, 1, -209.72, -899.73)" xlink:href="#radial-gradient-2"/><radialGradient id="radial-gradient-29" cx="-352.54" cy="985.47" r="0.67" gradientTransform="matrix(-1, 0, 0, 1, -215.94, -896.58)" xlink:href="#radial-gradient-2"/><linearGradient id="linear-gradient-10" x1="140.7" y1="94.47" x2="140.7" y2="102.87" gradientUnits="userSpaceOnUse"><stop offset="0.38" stop-color="#ee3624"/><stop offset="1" stop-color="#a82723"/></linearGradient><radialGradient id="radial-gradient-30" cx="-347.5" cy="991.77" r="0.51" gradientTransform="matrix(-1, 0, 0, 1, -206.66, -896.02)" xlink:href="#radial-gradient-2"/><radialGradient id="radial-gradient-31" cx="-345.35" cy="990.24" r="0.73" gradientTransform="matrix(-1, 0, 0, 1, -206.67, -892.97)" xlink:href="#radial-gradient-2"/><radialGradient id="radial-gradient-32" cx="-348.67" cy="989.76" r="0.28" gradientTransform="matrix(-1, 0, 0, 1, -209.33, -895.79)" xlink:href="#radial-gradient-2"/><radialGradient id="radial-gradient-33" cx="-344.28" cy="993.3" r="0.93" gradientTransform="matrix(-1, 0, 0, 1, -203.08, -893.99)" xlink:href="#radial-gradient-2"/><radialGradient id="radial-gradient-34" cx="-343.47" cy="993.18" r="0.49" gradientTransform="matrix(-1, 0, 0, 1, -202.65, -893.15)" xlink:href="#radial-gradient-2"/><linearGradient id="linear-gradient-11" x1="161.2" y1="52.95" x2="156.01" y2="58.14" gradientUnits="userSpaceOnUse"><stop offset="0" stop-color="#f4e07d"/><stop offset="0.43" stop-color="#f9d20a"/><stop offset="0.77" stop-color="#f7b01a"/><stop offset="1" stop-color="#f6a31d"/></linearGradient><radialGradient id="radial-gradient-35" cx="142.32" cy="52.09" r="0.25" xlink:href="#radial-gradient-7"/><radialGradient id="radial-gradient-36" cx="141.36" cy="52.87" r="0.37" xlink:href="#radial-gradient-7"/><radialGradient id="radial-gradient-37" cx="141.6" cy="51.12" r="0.2" xlink:href="#radial-gradient-7"/><radialGradient id="radial-gradient-38" cx="145.39" cy="51.62" r="0.34" xlink:href="#radial-gradient-7"/><radialGradient id="radial-gradient-39" cx="147.2" cy="51.12" r="0.97" gradientUnits="userSpaceOnUse"><stop offset="0.47" stop-color="#f9e4b4"/><stop offset="1" stop-color="#fbf7f0"/></radialGradient><linearGradient id="linear-gradient-12" x1="151.89" y1="60.46" x2="151.89" y2="41.94" gradientUnits="userSpaceOnUse"><stop offset="0" stop-color="#f4e07d"/><stop offset="0.22" stop-color="#f9d20a"/><stop offset="1" stop-color="#f6a31d"/></linearGradient><radialGradient id="radial-gradient-40" cx="130.57" cy="73.5" r="21.52" gradientTransform="matrix(1, 0, 0, 1, 0, 0)" xlink:href="#radial-gradient-2"/><radialGradient id="radial-gradient-41" cx="139.13" cy="51.85" r="1.03" xlink:href="#radial-gradient-7"/></defs><title>champange</title><rect class="cls-1" width="287.6" height="183.9"/><ellipse class="cls-2" cx="140.47" cy="161.8" rx="25.47" ry="4.16"/><path class="cls-3" d="M128.38,44.33a0.88,0.88,0,0,1,.8-0.67c3.53-.21,7.26-0.33,11.18-0.32,3.69,0,7.21.12,10.55,0.32a1,1,0,0,1,.87.73c1,4,1.77,7.06,2.21,8.79,1.88,7.38,2.56,9.87,2.53,13.63a38.4,38.4,0,0,1-.7,6.32,154.75,154.75,0,0,1-5.76,22.77c-0.93,2.89-2.19,6.67-3.82,11.08a1.34,1.34,0,0,1-1.13.87c-1.49.13-3.11,0.21-4.82,0.21-1.88,0-3.63-.08-5.25-0.21a1.34,1.34,0,0,1-1.13-.87c-1.94-5.21-3.42-9.7-4.51-13.2a142.87,142.87,0,0,1-4.92-20.24,37.72,37.72,0,0,1-.7-7.59c0.11-3.71,1-5.85,2.39-12.09C127,49.93,127.81,46.64,128.38,44.33Z"/><ellipse class="cls-3" cx="140.14" cy="158.92" rx="20.74" ry="2.17"/><path class="cls-3" d="M120.15,158.48l40.16-.07a36.91,36.91,0,0,0-4.51-1.2c-1.1-.2-1.65-0.28-2.21-0.36-0.81-.12-1.07-0.13-1.7-0.27-1.6-.34-5.68-1.17-7.89-4.2a7.36,7.36,0,0,1-.63-1,6.89,6.89,0,0,1-.71-2.86c-0.25-6.56-.31-13.46-0.15-20.65,0.13-5.72.41-11.23,0.8-16.54q0-.2,0-0.4a4.46,4.46,0,0,1,1.36-2.44l1-.92-11.25,0a5.23,5.23,0,0,1,2.13,1.51,4.71,4.71,0,0,1,1,2.36c0.61,4.21.74,19.78,0.74,19.78s0.09,10.79-.27,17.39a8,8,0,0,1-.62,2.57,7.11,7.11,0,0,1-.85,1.38c-2.28,2.89-6.46,3.66-8.71,4.08l-2.17.37-1.86.34A20.75,20.75,0,0,0,120.15,158.48Z"/><path class="cls-4" d="M160.89,158.92V160c0,1.51-9.28,2.73-20.74,2.73S119.4,161.54,119.4,160v-1.11c2.2,0.45,4.94.93,8.11,1.32a105,105,0,0,0,11.9.79,102.39,102.39,0,0,0,13.88-.83C156.35,159.8,158.93,159.32,160.89,158.92Z"/><ellipse class="cls-5" cx="141.64" cy="30.47" rx="1.91" ry="1.87" transform="translate(65.41 153.68) rotate(-70.4)"/><ellipse class="cls-6" cx="133.58" cy="34.49" rx="2.76" ry="2.71" transform="translate(56.27 148.76) rotate(-70.4)"/><path class="cls-7" d="M151.75,54.09v1.17H128.48V54.06l0.46-1.91,0.33-1.35h21.6c0.16,0.61.33,1.22,0.49,1.84S151.62,53.6,151.75,54.09Z"/><path class="cls-7" d="M131.56,51.05a1.49,1.49,0,0,1-.14.63,1.53,1.53,0,0,1-2.47.46l0.33-1.35,0.1-.39a1.05,1.05,0,0,1,.92-0.67,1.09,1.09,0,0,1,.54.08,1.12,1.12,0,0,1,.5.45,1.46,1.46,0,0,1,.16.37,1.51,1.51,0,0,1,0,.17A1.38,1.38,0,0,1,131.56,51.05Z"/><circle class="cls-7" cx="133.2" cy="51.53" r="1.79"/><circle class="cls-7" cx="136.62" cy="50.75" r="1.81"/><path class="cls-7" d="M151.36,52.63a1.56,1.56,0,0,1-1.15.52,1.55,1.55,0,0,1-1.45-1,1.48,1.48,0,0,1-.1-0.53,1.5,1.5,0,0,1,.23-0.81l0,0a1.53,1.53,0,0,1,1.28-.69,1.38,1.38,0,0,1,.49.09l0.17,0.64C151,51.41,151.2,52,151.36,52.63Z"/><path class="cls-8" d="M152.81,58c-4-.19-8.25-0.3-12.63-0.3s-8.58.11-12.61,0.3q0.22-1,.47-2.11,0.4-1.71.84-3.33a2.05,2.05,0,0,1,1.91,0,2,2,0,0,1,.93,1.51,1.49,1.49,0,0,1,1-.7,1.55,1.55,0,0,1,1.37.47,0.87,0.87,0,0,1,.71-0.34,0.85,0.85,0,0,1,.73.79,1.7,1.7,0,0,1,2.12.31,1.68,1.68,0,0,1,.25,1.43,3,3,0,0,1,1.23-1,3.3,3.3,0,0,1,2.69.11,1.65,1.65,0,0,1,.62-0.11,1.83,1.83,0,0,1,1.24.56,3.56,3.56,0,0,1,1.34-.06,3.6,3.6,0,0,1,1.68.73,2.2,2.2,0,0,1,3,.56,2.44,2.44,0,0,1,2.13,0A2.29,2.29,0,0,1,152.81,58Z"/><path class="cls-9" d="M132.3,55.85a1,1,0,0,1,0-1.36,0.9,0.9,0,0,1,1.27-.05l0,0a1,1,0,0,1,0,1.36,0.9,0.9,0,0,1-1.27.05Z"/><path class="cls-10" d="M127.55,58c4-.19,8.25-0.3,12.63-0.3s8.59,0.11,12.63.3q-0.3-1.26-.65-2.58t-0.79-2.75a1.75,1.75,0,0,0-2.69,1.44,1.62,1.62,0,0,0-1-.62,1.65,1.65,0,0,0-1.29.39,0.87,0.87,0,0,0-.73-0.34,0.84,0.84,0,0,0-.71.78,2,2,0,0,0-1.81.45,1.91,1.91,0,0,0-.56,1.29,3,3,0,0,0-1.23-1,3.3,3.3,0,0,0-2.69.11A1.65,1.65,0,0,0,138,55a1.83,1.83,0,0,0-1.24.56,3.56,3.56,0,0,0-1.34-.06,3.6,3.6,0,0,0-1.68.73,2.2,2.2,0,0,0-3,.56,2.46,2.46,0,0,0-2.13,0A2.32,2.32,0,0,0,127.55,58Z"/><path class="cls-11" d="M146.74,55.91a1,1,0,0,1,0-1.43,1,1,0,0,1,1.34-.06l0,0a1,1,0,0,1,0,1.43,1,1,0,0,1-1.34.06Z"/><path class="cls-12" d="M138.27,59.61a2.55,2.55,0,0,1,0-3.51A2.32,2.32,0,0,1,141.6,56l0.09,0.09a2.55,2.55,0,0,1,0,3.51,2.32,2.32,0,0,1-3.28.14Z"/><path class="cls-13" d="M154.3,67c0,0.15,0,.32,0,0.51a28.14,28.14,0,0,1-.6,5C151.53,83.12,149,92,149,92h0c-2.8,8.47-4.14,13.38-6.08,13.59-0.27,0-1.27,0-1.64.05h-1.66l-2.43,0c-2.56-.11-5.81-12.64-6.45-15a163.78,163.78,0,0,1-4.11-17.71,31.35,31.35,0,0,1-.61-6.58,31.1,31.1,0,0,1,1.25-7c0.11-.44.22-0.91,0.34-1.41,4.08-.18,8.34-0.29,12.76-0.29s8.48,0.1,12.47.28c0.13,0.5.25,1,.35,1.42A28.37,28.37,0,0,1,154.3,67Z"/><circle class="cls-14" cx="136.1" cy="51.53" r="0.48"/><circle class="cls-15" cx="129.95" cy="53.95" r="1.03"/><path class="cls-16" d="M137.1,55.72a0.25,0.25,0,0,1-.31.16h0a0.25,0.25,0,0,1-.16-0.31,0.25,0.25,0,0,1,.31-0.16h0A0.25,0.25,0,0,1,137.1,55.72Z"/><circle class="cls-17" cx="136.06" cy="56.73" r="0.37"/><path class="cls-18" d="M132.13,58.36a0.34,0.34,0,0,1,0-.47,0.31,0.31,0,0,1,.44,0h0a0.34,0.34,0,0,1,0,.47,0.31,0.31,0,0,1-.44,0h0Z"/><path class="cls-19" d="M129.66,58a0.3,0.3,0,0,1,0,.1,0.27,0.27,0,0,1-.16.18,0.71,0.71,0,0,1,0-.36l-0.39,0h0a0.31,0.31,0,0,1,.38-0.21l0.06,0A0.3,0.3,0,0,1,129.66,58Z"/><path class="cls-20" d="M135.36,57.71l-1.32,0A0.67,0.67,0,0,1,135.36,57.71Z"/><path class="cls-21" d="M128.67,57.91l-0.5,0a0.41,0.41,0,0,1,0-.08,0.26,0.26,0,0,1,.31-0.17A0.25,0.25,0,0,1,128.67,57.91Z"/><path class="cls-22" d="M129.65,57.87a0.3,0.3,0,0,1,0,.19,0.27,0.27,0,0,1-.16.18,0.71,0.71,0,0,1,0-.36,0.54,0.54,0,0,1,0-.18,0.75,0.75,0,0,1,.15-0.22,0.67,0.67,0,0,1,.94,0l0,0a0.73,0.73,0,0,1,.18.36Z"/><path class="cls-23" d="M140.45,50.93l6.63-.29a6.86,6.86,0,0,1,.3-3.67c-0.29-2.88-1.12-4.9-2.17-5a1.54,1.54,0,0,0-.8.2,5,5,0,0,0-2.32,2.48A17.55,17.55,0,0,0,140.45,50.93Z"/><ellipse class="cls-24" cx="138.59" cy="42.68" rx="3.12" ry="3.05" transform="translate(51.88 158.91) rotate(-70.4)"/><ellipse class="cls-25" cx="137.1" cy="23.88" rx="1.06" ry="1.04" transform="translate(68.61 145.02) rotate(-70.4)"/><ellipse class="cls-26" cx="138.76" cy="78.25" rx="0.51" ry="0.5" transform="translate(18.49 182.71) rotate(-70.4)"/><ellipse class="cls-27" cx="136.59" cy="79.77" rx="0.74" ry="0.72" transform="translate(15.62 181.68) rotate(-70.4)"/><ellipse class="cls-28" cx="137.26" cy="76.48" rx="0.29" ry="0.28" transform="translate(19.16 180.12) rotate(-70.4)"/><ellipse class="cls-29" cx="139.11" cy="81.8" rx="0.94" ry="0.91" transform="translate(15.38 185.4) rotate(-70.4)"/><ellipse class="cls-30" cx="133.76" cy="72.07" rx="0.5" ry="0.49" transform="translate(20.99 173.89) rotate(-70.4)"/><ellipse class="cls-31" cx="131.63" cy="73.56" rx="0.73" ry="0.71" transform="translate(18.17 172.88) rotate(-70.4)"/><ellipse class="cls-32" cx="132.29" cy="70.33" rx="0.28" ry="0.27" transform="translate(21.65 171.35) rotate(-70.4)"/><ellipse class="cls-33" cx="134.11" cy="75.56" rx="0.92" ry="0.9" transform="translate(17.94 176.54) rotate(-70.4)"/><ellipse class="cls-34" cx="136.22" cy="64.73" rx="0.55" ry="0.53" transform="translate(29.53 171.34) rotate(-70.4)"/><ellipse class="cls-35" cx="133.92" cy="66.35" rx="0.79" ry="0.77" transform="translate(26.48 170.24) rotate(-70.4)"/><ellipse class="cls-36" cx="134.63" cy="62.85" rx="0.3" ry="0.29" transform="matrix(0.34, -0.94, 0.94, 0.34, 30.25, 168.59)"/><ellipse class="cls-37" cx="136.6" cy="68.51" rx="1" ry="0.97" transform="translate(26.23 174.2) rotate(-70.4)"/><ellipse class="cls-38" cx="141.32" cy="85.59" rx="0.89" ry="0.86" transform="translate(13.28 190) rotate(-70.4)"/><ellipse class="cls-39" cx="137.58" cy="88.21" rx="1.29" ry="1.25" transform="translate(8.32 188.22) rotate(-70.4)"/><ellipse class="cls-40" cx="138.73" cy="82.52" rx="0.49" ry="0.48" transform="translate(14.44 185.52) rotate(-70.4)"/><ellipse class="cls-41" cx="141.94" cy="91.73" rx="1.63" ry="1.58" transform="translate(7.9 194.66) rotate(-70.4)"/><ellipse class="cls-42" cx="136.59" cy="88.89" rx="0.68" ry="0.66" transform="translate(7.02 187.74) rotate(-70.4)"/><path class="cls-43" d="M140.85,94.94a2,2,0,0,1-1.1.15,3.68,3.68,0,0,0-3.1.77c-1.42,1.4-.76,4,0.5,5.46,1.82,2.07,4.78,1.48,4.91,1.45a4.51,4.51,0,0,0,2.16-1.25c1.73-1.87,1.84-5.6-.05-6.72A3.83,3.83,0,0,0,140.85,94.94Z"/><path class="cls-44" d="M141.75,96.3a1.72,1.72,0,0,1-2.08.34l-0.07,0a1.28,1.28,0,0,1-.73-0.76,1.71,1.71,0,0,1,1.36-.2,0.93,0.93,0,0,0,.48-0.09c0.47-.24,1.26-0.58,1.46-0.34a1.16,1.16,0,0,1-.34,1Z"/><path class="cls-45" d="M139,101.56c-2.07-1.12-2.78-3.42-2-4.92a2.61,2.61,0,0,1,.59-0.74,0.32,0.32,0,0,1,.46.43,3.35,3.35,0,0,0-.5.94A3.91,3.91,0,0,0,139,101.56Z"/><path class="cls-45" d="M143.53,101.11c1.63-1.69,1.62-4.1.42-5.29a2.61,2.61,0,0,0-.79-0.53,0.32,0.32,0,0,0-.31.55,3.35,3.35,0,0,1,.76.74A3.91,3.91,0,0,1,143.53,101.11Z"/><ellipse class="cls-46" cx="140.84" cy="95.75" rx="0.51" ry="0.5" transform="translate(3.38 196.3) rotate(-70.4)"/><ellipse class="cls-47" cx="138.68" cy="97.27" rx="0.74" ry="0.72" transform="translate(0.52 195.27) rotate(-70.4)"/><ellipse class="cls-48" cx="139.34" cy="93.98" rx="0.29" ry="0.28" transform="translate(4.06 193.71) rotate(-70.4)"/><ellipse class="cls-49" cx="141.2" cy="99.3" rx="0.94" ry="0.91" transform="translate(0.28 198.99) rotate(-70.4)"/><ellipse class="cls-50" cx="140.81" cy="100.02" rx="0.49" ry="0.48" transform="translate(-0.66 199.11) rotate(-70.4)"/><path class="cls-51" d="M158.86,60A6.78,6.78,0,0,0,161.15,56a4.69,4.69,0,0,0-.81-3.86A3.82,3.82,0,0,0,158.4,51a6.84,6.84,0,0,1-.38,4,6.73,6.73,0,0,1-2.25,2.85A6.44,6.44,0,0,0,158.86,60Z"/><circle class="cls-7" cx="142.25" cy="51.1" r="1.67"/><circle class="cls-7" cx="139.5" cy="51.32" r="1.18"/><circle class="cls-7" cx="147.21" cy="51.47" r="1.97"/><circle class="cls-7" cx="144.64" cy="51.47" r="1.12"/><path class="cls-52" d="M142.56,52.17a0.25,0.25,0,0,1-.31.16h0a0.25,0.25,0,0,1-.16-0.31,0.25,0.25,0,0,1,.31-0.16h0A0.25,0.25,0,0,1,142.56,52.17Z"/><circle class="cls-53" cx="141.36" cy="52.87" r="0.37"/><path class="cls-54" d="M141.79,51.18a0.2,0.2,0,0,1-.25.13h0a0.2,0.2,0,0,1-.13-0.25,0.2,0.2,0,0,1,.25-0.13h0a0.2,0.2,0,0,1,.13.26h0Z"/><path class="cls-55" d="M149.35,57.82h3.36c0.17,0.55.4,1.32,0.62,2.25a33.8,33.8,0,0,1,.93,8.14c0,1.92-.51,4.23-1.47,8.76s-1.89,8.08-2.09,8.84c-0.7,2.62-1.62,5.82-2.81,9.44,0.39-1.73,1-4.27,1.57-7.35,3.12-15.66,2.64-20.26,2.09-23.11A32.38,32.38,0,0,0,149.35,57.82Z"/><circle class="cls-56" cx="145.39" cy="51.62" r="0.34"/><circle class="cls-57" cx="147.2" cy="51.12" r="0.97"/><path class="cls-58" d="M144.91,41.94c1,0.07,2.12.19,3.3,0.38a34.67,34.67,0,0,1,3.48.76,2.24,2.24,0,0,1,.79.64,2.55,2.55,0,0,1,.47,1.47,48,48,0,0,0,1.29,9.05,9.5,9.5,0,0,0,2.13,4.09A7.93,7.93,0,0,0,158.86,60a9.36,9.36,0,0,1-3.52.38,7.28,7.28,0,0,1-3.17-.85c-1.08-.66-1.69-1.68-3.42-7.7-0.93-3.24-1-3.77-1.58-5.3A30.45,30.45,0,0,0,144.91,41.94Z"/><path class="cls-59" d="M141,47.65c0.29-1.16,1.17-4.1,3.25-5.47a1.23,1.23,0,0,1,.85-0.29c1.92,0.19,2.78,6.42,2.72,6.44s-0.13-.54-0.62-1.79A11.89,11.89,0,0,0,146.5,45c-0.47-.85-0.91-1.64-1.59-1.77-0.93-.18-1.85.93-2.46,1.67A7.93,7.93,0,0,0,141,47.65Z"/><path class="cls-60" d="M129.17,57.86l-1.55.07c-0.16.54-.39,1.31-0.62,2.25a45.24,45.24,0,0,0-1,5.51c-0.13,1.36-.2,3.69,1.36,11.37,0.82,4,1.58,7,2.09,9,1.37,5.37,2.48,8.86,3,10.31a59,59,0,0,0,2.2,6.11c0.16-.05-1.84-5.82-3.77-14.46A143.23,143.23,0,0,1,128.2,70.8a33.06,33.06,0,0,1-.22-3.91A35.09,35.09,0,0,1,129.17,57.86Z"/><path class="cls-61" d="M131,43.57l2.1-.09,1.84,0c-0.8,3.05-2,7.62-3.3,13.23-0.93,3.93-1.4,5.9-1.57,6.86-0.94,5.19-.62,9.59,1.46,21.36,0.94,5.33,2.15,11.64,3.69,18.71-0.34-.81-0.82-2-1.35-3.34-1.47-3.83-2.35-6.87-3.06-9.39a167.23,167.23,0,0,1-4.54-20,24.56,24.56,0,0,1-.2-5.53,27.15,27.15,0,0,1,.5-3.43c0.09-.41.16-0.72,0.19-0.82C127.1,59.59,128.71,52.94,131,43.57Z"/><path class="cls-62" d="M134.81,107.82q1.21,0.11,2.52.17t2.54,0.06c0.23,21.54.27,37.14,0.27,39.4a14.06,14.06,0,0,1-.81,4.67,12.94,12.94,0,0,1-2,3.5c-1.28,1.56-2.32,2.1-2.19,2.81,0.19,1,2.65,2.09,12.79,2.32a59.67,59.67,0,0,1-15.81-.41q-1.59-.26-3.05-0.58a0.91,0.91,0,0,1-.13-1.78,13.88,13.88,0,0,0,7.5-5.46c2.23-3.05,1.39-4.81,1.76-14.82,0,0,.41-11.26-0.63-26.11a4.43,4.43,0,0,0-.76-2.26A4.5,4.5,0,0,0,134.81,107.82Z"/><circle class="cls-63" cx="139.13" cy="51.85" r="1.03"/></svg>