<svg id="Layer_1" data-name="Layer 1" xmlns="http://www.w3.org/2000/svg" xmlns:xlink="http://www.w3.org/1999/xlink" viewBox="0 0 287.6 183.9"><defs><style>.cls-1{fill:url(#radial-gradient);}.cls-2{fill:#ed816d;}.cls-13,.cls-3{fill:#f8d2cd;}.cls-4{fill:#fac4c0;}.cls-5{fill:#e49025;}.cls-6{fill:#f5a31e;}.cls-7{fill:#faf5ae;}.cls-8{fill:#f8b355;}.cls-9{fill:#f8c184;}.cls-10{fill:url(#linear-gradient);}.cls-11{fill:url(#linear-gradient-2);}.cls-12{fill:#fff5ac;}.cls-13{opacity:0.37;}.cls-14{fill:url(#linear-gradient-3);}.cls-15{fill:url(#linear-gradient-4);}.cls-16{fill:#991b1f;}.cls-16,.cls-17{opacity:0.57;}.cls-17{fill:#7e1416;}.cls-18{fill:#e99459;opacity:0.81;}.cls-19,.cls-22{fill:#fde1e0;}.cls-20{fill:#fff2ea;opacity:0.38;}.cls-21{fill:#f9c662;opacity:0.48;}.cls-22{opacity:0.26;}.cls-23{fill:url(#linear-gradient-5);}</style><radialGradient id="radial-gradient" cx="143.8" cy="91.95" r="120.69" gradientUnits="userSpaceOnUse"><stop offset="0" stop-color="#f6b9ad"/><stop offset="0.67" stop-color="#ef8975"/><stop offset="0.89" stop-color="#ed7e6a"/></radialGradient><linearGradient id="linear-gradient" x1="161.8" y1="53.59" x2="161.8" y2="64.01" gradientUnits="userSpaceOnUse"><stop offset="0" stop-color="#e48125"/><stop offset="0.51" stop-color="#f6a31d"/><stop offset="0.82" stop-color="#f6a71c"/></linearGradient><linearGradient id="linear-gradient-2" x1="177.65" y1="72.73" x2="179.67" y2="64.44" gradientUnits="userSpaceOnUse"><stop offset="0" stop-color="#e48125"/><stop offset="0.25" stop-color="#f6a31d"/><stop offset="0.45" stop-color="#f6a71c"/><stop offset="1" stop-color="#f4e07d"/></linearGradient><linearGradient id="linear-gradient-3" x1="133.06" y1="70.07" x2="133.06" y2="64.57" gradientUnits="userSpaceOnUse"><stop offset="0" stop-color="#e2475c"/><stop offset="0.35" stop-color="#d56a7a"/><stop offset="1" stop-color="#cb7d92"/></linearGradient><linearGradient id="linear-gradient-4" x1="142.32" y1="96.5" x2="142.32" y2="62.54" gradientUnits="userSpaceOnUse"><stop offset="0" stop-color="#eb995b"/><stop offset="0.3" stop-color="#d76046"/><stop offset="0.52" stop-color="#d14240"/><stop offset="0.73" stop-color="#d7444b"/><stop offset="0.89" stop-color="#e2475c"/><stop offset="1" stop-color="#cb7d92"/></linearGradient><linearGradient id="linear-gradient-5" x1="165.89" y1="57.57" x2="177.64" y2="73.86" gradientUnits="userSpaceOnUse"><stop offset="0" stop-color="#e48125"/><stop offset="0.34" stop-color="#f6a31d"/><stop offset="0.75" stop-color="#f6a71c"/><stop offset="1" stop-color="#f4e07d"/></linearGradient></defs><title>cosmopolitan</title><rect class="cls-1" width="287.6" height="183.9"/><ellipse class="cls-2" cx="140.41" cy="145.17" rx="24.16" ry="3.95"/><path class="cls-3" d="M140.16,140.6v4.17h-0.82c-9.18,0-16.79-.77-18.17-1.77a0.49,0.49,0,0,1-.22-0.27,0.19,0.19,0,0,1,0-.05c0-.45,1.26-0.87,3.41-1.22q0.89-.14,2-0.26h0l0.25,0a125,125,0,0,1,12.71-.58h0.82Z"/><path class="cls-3" d="M140.16,97.34v45.09l-11.38,0h-7.17a18.52,18.52,0,0,1,2.91-.91l0.32-.07,1.5-.28h0l0.1,0,0.15,0,1.77-.31a19,19,0,0,0,4.84-1.42h0c0.23-.11.47-0.23,0.69-0.37a7.53,7.53,0,0,0,2.17-1.84,6.13,6.13,0,0,0,.76-1.22,7,7,0,0,0,.55-2.28c0.32-5.85.24-15.42,0.24-15.42,0-9.19-.34-15.94-0.65-17.53a6.24,6.24,0,0,0-.82-2l0,0a5.46,5.46,0,0,0-.45-0.56l-0.61-.78h5.06Z"/><path class="cls-3" d="M140.16,56.7V97.34H135.1l-8-10.17L105.81,59a1.08,1.08,0,0,1,.83-1.74q14.86-.46,30.48-0.51h3Z"/><path class="cls-3" d="M159.37,142.68a0.19,0.19,0,0,1,0,.05,0.49,0.49,0,0,1-.22.27c-1.37,1-9,1.77-18.17,1.77h-0.82V140.6H141c3.86,0,7.43.14,10.39,0.37,0.92,0.07,1.78.15,2.57,0.24h0a33.35,33.35,0,0,1,3.34.52C158.63,142,159.37,142.34,159.37,142.68Z"/><path class="cls-3" d="M158.7,142.46h-4.18l-9.74,0h-4.63V97.34h5.06l-0.61.78a5.47,5.47,0,0,0-.45.56l0,0a6.25,6.25,0,0,0-.82,2c-0.32,1.59-.62,8.34-0.65,17.53,0,0-.08,9.57.24,15.42a7,7,0,0,0,.55,2.28,6.13,6.13,0,0,0,.76,1.22c1.94,2.45,5.44,3.19,7.47,3.57l0.25,0,1.92,0.33,0.1,0h0l1.5,0.28c0.4,0.08.89,0.19,1.46,0.37A17.72,17.72,0,0,1,158.7,142.46Z"/><path class="cls-4" d="M141.63,144.64h-1.48v1.61H141c10.16,0,18.39-1.14,18.39-2.54v-1l-0.89.19h0c-1.78.36-3.89,0.73-6.28,1A88.94,88.94,0,0,1,141.63,144.64Z"/><path class="cls-3" d="M140.16,56.7V97.34h5.06l8-10.17L174.45,59a1.13,1.13,0,0,0-.87-1.82q-14.82-.46-30.38-0.51h-3Z"/><path class="cls-5" d="M169.57,45.49a15,15,0,0,0-15.16,6.64l0.38,0.24,1.09,0.68,22.49,14.12,1.21,0.76,0.19,0.12a14.7,14.7,0,0,0,2-5.29A15,15,0,0,0,169.57,45.49Z"/><path class="cls-6" d="M181.61,62.66a14.53,14.53,0,0,1-2,5.28l-1.21-.76L155.89,53.06l-1.09-.68A14.64,14.64,0,0,1,181.61,62.66Z"/><path class="cls-7" d="M180.26,61.62l-0.06.13s0,0,0,0a1.15,1.15,0,0,1,0,.13s0,0-.07.08a0.41,0.41,0,0,1,0,.14,0.26,0.26,0,0,0-.1.15l-0.21,1.21a1,1,0,0,0,0,.34,0.46,0.46,0,0,1,.06.18,1.1,1.1,0,0,1,0,.14l0,0.16c0,0.1,0,.05-0.09.11a0.7,0.7,0,0,0-.17.29,1.78,1.78,0,0,0-.11.38,2,2,0,0,1-.2.63,1.56,1.56,0,0,1-.25.48,0.28,0.28,0,0,0-.1.14c0,0.05-.06.09-0.07,0.15a1.1,1.1,0,0,1,0,.13s0,0.06-.06.11a0.75,0.75,0,0,1,0,.16,1,1,0,0,1-.08.08,0.93,0.93,0,0,0-.09.21L155.89,53.06l0.08-.11,0.22-.25c0.06-.07.1-0.15,0.15-0.21l0.09-.09c0-.06.05-0.15,0.09-0.2a2.63,2.63,0,0,1,.32-0.25,1.81,1.81,0,0,1,.28-0.18,0.34,0.34,0,0,0,.14-0.24,1.34,1.34,0,0,1,.15-0.17c0.06-.08.08-0.18,0.13-0.26a2.66,2.66,0,0,1,.28-0.38,1.5,1.5,0,0,1,.21-0.27l0.11-.09a0.88,0.88,0,0,1,.17,0l0-.08h0.13a2.3,2.3,0,0,1,.11-0.34,2.24,2.24,0,0,1,.2-0.31l0.08,0a0.8,0.8,0,0,0,.05-0.1,0.61,0.61,0,0,1,.3-0.23c0.13,0,.27-0.05.4-0.09a1,1,0,0,1,.1-0.27l0.13-.21a1.66,1.66,0,0,1,.33-0.34,1.6,1.6,0,0,1,.62-0.28,0.89,0.89,0,0,0,.27,0l0.18-.09a0.35,0.35,0,0,0,.11,0,0.33,0.33,0,0,1,.18-0.07,0.86,0.86,0,0,0,.26,0,1,1,0,0,0,.27-0.19,1.57,1.57,0,0,1,.29-0.17,2.07,2.07,0,0,1,.33-0.13,1,1,0,0,1,.47,0,1.37,1.37,0,0,0,.46,0,2.13,2.13,0,0,0,.35-0.08,0.72,0.72,0,0,0,.19-0.07s0-.07,0-0.08a0.15,0.15,0,0,1,.09,0,2.29,2.29,0,0,1,.34,0,1.55,1.55,0,0,0,.34,0,2.45,2.45,0,0,1,.29,0,1.7,1.7,0,0,0,.51-0.2,1.42,1.42,0,0,1,.47.05,1.09,1.09,0,0,0,.25-0.1l0.32-.17a0.18,0.18,0,0,1,.17,0c0.13,0,.11,0,0.14.16a0.38,0.38,0,0,0,.4.22,1.42,1.42,0,0,0,.47,0l0.24,0c0.14,0,1-.27,1,0l1.18,0.2a1.61,1.61,0,0,1,.37.07,0.73,0.73,0,0,1,.18.18,0.86,0.86,0,0,0,.2.16,3.05,3.05,0,0,0,.59.29,1.11,1.11,0,0,0,.27.1l0.37,0.06a1.26,1.26,0,0,1,.58.19,1.07,1.07,0,0,1,.19.17,3.5,3.5,0,0,1,.31.26,0.53,0.53,0,0,0,.21.15L173.79,49a0.33,0.33,0,0,0,0,.06,0.3,0.3,0,0,0,.1,0,1,1,0,0,0,.11.06,2,2,0,0,0,.26.05,0.52,0.52,0,0,1,.12.07c0.06,0,.14,0,0.19,0a0.91,0.91,0,0,1,.1.11l0.15,0.12,0.06,0s0,0.07.07,0.09,0.22,0.08.2,0.24a0.34,0.34,0,0,1,.19.19,1.67,1.67,0,0,1,.2.25,0.73,0.73,0,0,0,.37.34,2.12,2.12,0,0,0,.5.24,0.8,0.8,0,0,1,.43.26,0.28,0.28,0,0,1,0,.19l0,0.1a0.1,0.1,0,0,1,.07.07,0.11,0.11,0,0,0,0,0,2.54,2.54,0,0,0,.22.33c0.07,0.11.16,0.21,0.23,0.32a0.78,0.78,0,0,0,.38.34,0.16,0.16,0,0,0,0,.08c0.06,0,.06.06,0.11,0.08s0.09,0,.13.07a0.57,0.57,0,0,1,0,.33,1.09,1.09,0,0,0,.19.47,2.15,2.15,0,0,0,.32.46,0.67,0.67,0,0,1,.16.1s0,0.08.07,0.1a0.47,0.47,0,0,0,.15.07,0.33,0.33,0,0,1,.22.34,1.43,1.43,0,0,1,.1.26,0.82,0.82,0,0,0,0,.12l0.06,0.08s0,0.09,0,.12,0.06,0.07.08,0.12a0.59,0.59,0,0,1,0,.27,0.64,0.64,0,0,0,.1.25,1.44,1.44,0,0,1,.2.24,1,1,0,0,1,0,.28c0,0.05,0,.11,0,0.16a0.46,0.46,0,0,0,0,.1c0,0.12.06,0.22,0.08,0.34a0.34,0.34,0,0,0,.06.2,0.84,0.84,0,0,1,.15.19,2.81,2.81,0,0,1,.12.4,1.62,1.62,0,0,1,.11.29,2.23,2.23,0,0,1-.06.33,1.27,1.27,0,0,0,0,.6,0.61,0.61,0,0,1,.07.22,1.85,1.85,0,0,1,0,.31l-0.11.62a1.29,1.29,0,0,0,0,.29,1.35,1.35,0,0,1,0,.15s0,0,0,.07a0.26,0.26,0,0,0,.07.07,1,1,0,0,1,.05.63A1.08,1.08,0,0,1,180.26,61.62Z"/><path class="cls-8" d="M164.83,48.68a0.58,0.58,0,0,1,.43-0.69,9.62,9.62,0,0,1,7.55,1.32,0.57,0.57,0,0,1,.17.78l-5.45,9a0.21,0.21,0,0,1-.38-0.06Z"/><path class="cls-8" d="M178.46,57.77a0.58,0.58,0,0,1,.69.43,9.57,9.57,0,0,1-1.31,7.53,0.58,0.58,0,0,1-.78.17l-9-5.44a0.2,0.2,0,0,1,.06-0.37Z"/><path class="cls-8" d="M173.48,50.41a0.58,0.58,0,0,1,.8-0.18,9.6,9.6,0,0,1,4.41,6.26,0.57,0.57,0,0,1-.43.67L168,59.67a0.2,0.2,0,0,1-.22-0.31Z"/><path class="cls-8" d="M157.48,53.65a0.58,0.58,0,0,1-.18-0.79,9.6,9.6,0,0,1,6.26-4.4,0.58,0.58,0,0,1,.67.43l2.53,10.22a0.2,0.2,0,0,1-.31.22Z"/><path class="cls-7" d="M164.67,57.24a2,2,0,0,0,1.41,1.32,0.1,0.1,0,0,0,.15-0.1,2,2,0,0,0-.74-1.78A0.53,0.53,0,0,0,164.67,57.24Z"/><path class="cls-7" d="M170.3,58.4a2,2,0,0,1-1.78.76,0.1,0.1,0,0,1-.1-0.14,2,2,0,0,1,1.3-1.43A0.53,0.53,0,0,1,170.3,58.4Z"/><path class="cls-9" d="M168.44,50.79a14.33,14.33,0,0,0-.26,4.54c0,0.17.08,0.18,0.13,0a13.73,13.73,0,0,0,.85-4.4,1.41,1.41,0,0,0-.27-0.89A1.18,1.18,0,0,0,168.44,50.79Z"/><path class="cls-9" d="M166.46,49.79a13.47,13.47,0,0,0,.64,3.88c0,0.14.09,0.13,0.1,0a13.41,13.41,0,0,0-.16-3.93,1.14,1.14,0,0,0-.37-0.67A1.21,1.21,0,0,0,166.46,49.79Z"/><path class="cls-9" d="M170.68,50a9.38,9.38,0,0,0-.9,3.15c0,0.12,0,.15.09,0.06a8.52,8.52,0,0,0,1.32-2.88,1.11,1.11,0,0,0-.06-0.71A0.69,0.69,0,0,0,170.68,50Z"/><path class="cls-9" d="M175.07,54.31A14.33,14.33,0,0,0,171.41,57c-0.12.12-.09,0.18,0.06,0.12A13.73,13.73,0,0,0,175.4,55a1.41,1.41,0,0,0,.52-0.77A1.18,1.18,0,0,0,175.07,54.31Z"/><path class="cls-9" d="M174,52.4a13.47,13.47,0,0,0-2.59,3c-0.08.12,0,.15,0.07,0.07a13.41,13.41,0,0,0,2.93-2.62,1.14,1.14,0,0,0,.29-0.71A1.21,1.21,0,0,0,174,52.4Z"/><path class="cls-9" d="M176.55,55.76a9.38,9.38,0,0,0-3,1.31c-0.11.06-.1,0.12,0,0.11a8.52,8.52,0,0,0,3.06-.81,1.11,1.11,0,0,0,.51-0.5A0.69,0.69,0,0,0,176.55,55.76Z"/><path class="cls-9" d="M162.06,52.23a14.33,14.33,0,0,1,2.27,3.93c0.06,0.15,0,.2-0.1.08a13.73,13.73,0,0,1-2.74-3.55,1.41,1.41,0,0,1-.16-0.92A1.18,1.18,0,0,1,162.06,52.23Z"/><path class="cls-9" d="M163.37,50.45a13.47,13.47,0,0,1,1.18,3.75c0,0.14,0,.16-0.1,0a13.41,13.41,0,0,1-1.63-3.58,1.14,1.14,0,0,1,0-.77A1.21,1.21,0,0,1,163.37,50.45Z"/><path class="cls-9" d="M159.67,52.49a9.38,9.38,0,0,1,2.22,2.41c0.07,0.1,0,.15-0.05.09a8.52,8.52,0,0,1-2.47-2,1.11,1.11,0,0,1-.27-0.66A0.69,0.69,0,0,1,159.67,52.49Z"/><path class="cls-9" d="M177,61.89a14.33,14.33,0,0,1-4.42-1.06c-0.16-.06-0.15-0.13,0-0.13a13.73,13.73,0,0,1,4.46.45,1.41,1.41,0,0,1,.78.51A1.18,1.18,0,0,1,177,61.89Z"/><path class="cls-9" d="M176.77,64.07a13.47,13.47,0,0,1-3.53-1.73c-0.12-.08-0.1-0.13,0-0.1A13.41,13.41,0,0,1,177,63.53a1.14,1.14,0,0,1,.54.54A1.21,1.21,0,0,1,176.77,64.07Z"/><path class="cls-9" d="M177.83,60a9.38,9.38,0,0,1-3.28,0c-0.12,0-.14-0.07,0-0.1a8.52,8.52,0,0,1,3.14-.43,1.11,1.11,0,0,1,.66.26A0.69,0.69,0,0,1,177.83,60Z"/><path class="cls-10" d="M157.92,63.93L165.37,64a8.86,8.86,0,0,1-.08-3.06,8.7,8.7,0,0,1,.39-1.58c-0.33-3.32-1.25-5.64-2.43-5.77a1.69,1.69,0,0,0-.89.23,5.71,5.71,0,0,0-2.6,2.85A20.64,20.64,0,0,0,157.92,63.93Z"/><path class="cls-11" d="M178.55,74.43a7.84,7.84,0,0,0,2.57-4.7,5.52,5.52,0,0,0-.91-4.44A4.25,4.25,0,0,0,178,64a8.07,8.07,0,0,1-.42,4.59,7.71,7.71,0,0,1-2.53,3.28,7.36,7.36,0,0,0,1.65,1.64A7.12,7.12,0,0,0,178.55,74.43Z"/><path class="cls-12" d="M158.5,60.16c0.33-1.33,1.31-4.72,3.65-6.29a1.36,1.36,0,0,1,.95-0.33c2.15,0.22,3.12,7.39,3,7.41s-0.15-.62-0.7-2.06a13.87,13.87,0,0,0-.75-1.76c-0.53-1-1-1.89-1.78-2-1-.21-2.07,1.08-2.76,1.92A9.21,9.21,0,0,0,158.5,60.16Z"/><path class="cls-13" d="M140.16,56.7V97.34h5.06l8-10.17L174.45,59a1.13,1.13,0,0,0-.87-1.82q-14.82-.46-30.38-0.51h-3Z"/><path class="cls-14" d="M149.3,64.57c-0.38.24-.94,0.58-1.64,1a37.48,37.48,0,0,1-15.07,4.26A51.83,51.83,0,0,1,117,69a0.18,0.18,0,0,1-.12-0.27,7.37,7.37,0,0,1,1.7-2c3.56-2.86,8.92-1.34,12.35-.73C135,66.78,141.12,67,149.3,64.57Z"/><path class="cls-15" d="M167.78,63.34c-7.61,10.85-14.26,19.49-18.6,25.07h0c-2.07,2.65-3.61,4.61-4.48,5.79a5.81,5.81,0,0,1-4.23,2.29,5.94,5.94,0,0,1-4.81-2.28l-2.06-2.75q-5.26-6.93-10.54-14.06-3.13-4.24-6.2-8.46a42.45,42.45,0,0,0,12.65.93c13.35-1.07,19.95-8.26,33.42-7.24A36.24,36.24,0,0,1,167.78,63.34Z"/><ellipse class="cls-16" cx="143.57" cy="89.58" rx="1.66" ry="2.28" transform="translate(-19.17 135.99) rotate(-47.88)"/><ellipse class="cls-17" cx="142.42" cy="88.82" rx="0.72" ry="0.91" transform="matrix(0.9, -0.43, 0.43, 0.9, -24.4, 70.32)"/><ellipse class="cls-16" cx="137.54" cy="91.52" rx="1.66" ry="2.28" transform="translate(-22.59 132.15) rotate(-47.88)"/><ellipse class="cls-17" cx="136.39" cy="90.75" rx="0.72" ry="0.91" transform="translate(-25.83 67.9) rotate(-25.62)"/><path class="cls-18" d="M149.18,88.41c-2.07,2.65-3.61,4.61-4.48,5.79a5.81,5.81,0,0,1-4.23,2.29,5.94,5.94,0,0,1-4.81-2.28l-2.06-2.75a7.88,7.88,0,0,0,5.49,1.16c4.17-.83,6.22-5.82,8.8-5.14A2.53,2.53,0,0,1,149.18,88.41Z"/><path class="cls-4" d="M157.32,141.72l-0.39.13c-0.74.23-1.59,0.43-2.41,0.6-1,.22-2,0.38-2.64.49a58.55,58.55,0,0,1-11.73.78c-2-.06-4.18-0.21-6.51-0.5q3.6-.14,6.51-0.35,2.59-.19,4.63-0.44a23.37,23.37,0,0,0,6.58-1.47l0.31-.16,0.25,0,1.92,0.33,0.1,0h0A33.35,33.35,0,0,1,157.32,141.72Z"/><path class="cls-4" d="M138.68,144.64h1.48v1.61h-0.82c-10.16,0-18.39-1.14-18.39-2.54v-1l0.89,0.19h0c1.78,0.36,3.89.73,6.28,1A88.94,88.94,0,0,0,138.68,144.64Z"/><path class="cls-19" d="M137.49,97.54a3.67,3.67,0,0,0,2.54,1.3,3.74,3.74,0,0,0,2.94-1.3,10.23,10.23,0,0,0-1.39,4.26c-0.61,6.07-.14,27.89-0.09,30.4,0,0,0,.11,0,0.22a16.41,16.41,0,0,0,.24,2.41,9.41,9.41,0,0,0,.74,2.39,7.42,7.42,0,0,0,1.72,2.27,0.62,0.62,0,0,1-.26,1.06,14.68,14.68,0,0,1-7.72-.05,0.57,0.57,0,0,1-.19-1,6.73,6.73,0,0,0,1.94-2.24,7.09,7.09,0,0,0,.74-2.78c0.43-3.92.25-14.5,0.25-14.5-0.08-4.53.16-15.7-.25-18.43a15.94,15.94,0,0,0-.41-1.88Z"/><path class="cls-20" d="M108.51,57.18Q115.05,66.48,122,76T135.78,94.3L119.16,56.91Z"/><ellipse class="cls-16" cx="141.38" cy="92.78" rx="2.28" ry="1.66" transform="translate(-22.26 135.41) rotate(-47.88)"/><ellipse class="cls-17" cx="142.14" cy="91.63" rx="0.91" ry="0.72" transform="translate(-25.64 70.48) rotate(-25.62)"/><path class="cls-21" d="M172.19,57.17Q165.7,66.45,158.66,76q-6.93,9.38-13.8,18.17l22-37.13Z"/><path class="cls-22" d="M166.85,57L144.43,94.8l11.77-38Z"/><path class="cls-23" d="M162.92,53.59c1.14,0.08,2.38.21,3.7,0.44a38,38,0,0,1,3.9.87,2.53,2.53,0,0,1,.89.74,3,3,0,0,1,.53,1.69,56.58,56.58,0,0,0,1.44,10.42,11,11,0,0,0,2.39,4.7,8.88,8.88,0,0,0,2.78,2,10.23,10.23,0,0,1-3.94.44,8,8,0,0,1-3.55-1c-1.21-.75-1.89-1.93-3.83-8.87-1-3.73-1.11-4.34-1.78-6.1A35.44,35.44,0,0,0,162.92,53.59Z"/></svg>