<svg id="Layer_1" data-name="Layer 1" xmlns="http://www.w3.org/2000/svg" xmlns:xlink="http://www.w3.org/1999/xlink" viewBox="0 0 287.6 183.9"><defs><style>.cls-1{fill:url(#radial-gradient);}.cls-2{fill:#e064a5;opacity:0.49;}.cls-3,.cls-8{fill:#fdeef4;}.cls-4{fill:#85a544;}.cls-5{fill:#8ead3e;}.cls-6{fill:#faf5ae;}.cls-7{fill:#abd037;}.cls-8{opacity:0.71;}.cls-9{fill:#b7d33f;}.cls-10{fill:#d4e05b;}.cls-11{fill:#c6db51;}.cls-12{fill:url(#linear-gradient);}.cls-13{fill:#e6dbd1;}.cls-14{fill:#cbb6ae;}.cls-14,.cls-42{opacity:0.61;}.cls-15,.cls-16{fill:#5b3b3c;}.cls-16{opacity:0.28;}.cls-17{fill:#eacad7;}.cls-18{fill:#efd8e2;}.cls-19,.cls-31{fill:#f5d2e4;}.cls-19,.cls-20,.cls-61,.cls-62{opacity:0.67;}.cls-20,.cls-32{fill:#cd427a;}.cls-21{fill:#5a914d;}.cls-22,.cls-27,.cls-29,.cls-45,.cls-48,.cls-53{opacity:0.45;}.cls-22{fill:url(#linear-gradient-2);}.cls-23,.cls-28,.cls-30,.cls-46,.cls-49,.cls-54,.cls-64,.cls-65,.cls-66,.cls-67{opacity:0.76;}.cls-23{fill:url(#linear-gradient-3);}.cls-24{fill:#486d38;}.cls-25,.cls-39,.cls-41,.cls-42,.cls-52,.cls-57,.cls-59,.cls-60,.cls-63{fill:#fff;}.cls-25{opacity:0.66;}.cls-26{fill:#578949;}.cls-27{fill:url(#linear-gradient-4);}.cls-28{fill:url(#linear-gradient-5);}.cls-29{fill:url(#linear-gradient-6);}.cls-30{fill:url(#linear-gradient-7);}.cls-33{fill:#dabac9;}.cls-34,.cls-35,.cls-36,.cls-37,.cls-38,.cls-47{opacity:0.39;}.cls-34{fill:url(#radial-gradient-2);}.cls-35{fill:url(#radial-gradient-3);}.cls-36{fill:url(#radial-gradient-4);}.cls-37{fill:url(#radial-gradient-5);}.cls-38{fill:url(#radial-gradient-6);}.cls-39{opacity:0.48;}.cls-40{opacity:0.85;fill:url(#linear-gradient-8);}.cls-43,.cls-44{opacity:0.95;}.cls-43{fill:url(#linear-gradient-9);}.cls-44{fill:url(#linear-gradient-10);}.cls-45{fill:url(#linear-gradient-11);}.cls-46{fill:url(#linear-gradient-12);}.cls-47{fill:url(#radial-gradient-7);}.cls-48{fill:url(#linear-gradient-13);}.cls-49{fill:url(#linear-gradient-14);}.cls-50{fill:none;}.cls-51{opacity:0.44;fill:url(#linear-gradient-15);}.cls-52{opacity:0.46;}.cls-53{fill:url(#linear-gradient-16);}.cls-54{fill:url(#linear-gradient-17);}.cls-55{opacity:0.56;fill:url(#linear-gradient-18);}.cls-56{opacity:0.9;fill:url(#linear-gradient-19);}.cls-57{opacity:0.16;}.cls-58{opacity:0.31;fill:url(#linear-gradient-20);}.cls-59{opacity:0.21;}.cls-60{opacity:0.32;}.cls-61{fill:url(#linear-gradient-21);}.cls-62{fill:url(#linear-gradient-22);}.cls-63{opacity:0.53;}.cls-64{fill:url(#radial-gradient-8);}.cls-65{fill:url(#radial-gradient-9);}.cls-66{fill:url(#radial-gradient-10);}.cls-67{fill:url(#radial-gradient-11);}</style><radialGradient id="radial-gradient" cx="143.8" cy="91.95" r="120.69" gradientUnits="userSpaceOnUse"><stop offset="0.01" stop-color="#d8c2b1"/><stop offset="0.81" stop-color="#dd92ac"/></radialGradient><linearGradient id="linear-gradient" x1="142.11" y1="148.4" x2="142.11" y2="55.59" gradientUnits="userSpaceOnUse"><stop offset="0" stop-color="#aa467f"/><stop offset="0.18" stop-color="#e064a5"/><stop offset="0.86" stop-color="#eeccd7"/></linearGradient><linearGradient id="linear-gradient-2" x1="301.07" y1="484" x2="306.83" y2="484" gradientTransform="matrix(0.7, -0.71, -0.71, -0.7, 278.48, 688.44)" gradientUnits="userSpaceOnUse"><stop offset="0.56" stop-color="#376230"/><stop offset="0.97" stop-color="#5a914d"/></linearGradient><linearGradient id="linear-gradient-3" x1="301.03" y1="479.59" x2="301.98" y2="488.69" gradientTransform="matrix(0.7, -0.71, -0.71, -0.7, 278.48, 688.44)" gradientUnits="userSpaceOnUse"><stop offset="0.08" stop-color="#639b41"/><stop offset="1" stop-color="#5a914d"/></linearGradient><linearGradient id="linear-gradient-4" x1="-7.54" y1="618.92" x2="1.44" y2="618.92" gradientTransform="matrix(0.85, 0.53, 0.53, -0.85, -191.68, 666.19)" gradientUnits="userSpaceOnUse"><stop offset="0.21" stop-color="#578949"/><stop offset="1" stop-color="#376230"/></linearGradient><linearGradient id="linear-gradient-5" x1="-6.96" y1="620.31" x2="1.97" y2="620.31" gradientTransform="matrix(0.85, 0.53, 0.53, -0.85, -191.68, 666.19)" gradientUnits="userSpaceOnUse"><stop offset="0.24" stop-color="#578949"/><stop offset="1" stop-color="#639b41"/></linearGradient><linearGradient id="linear-gradient-6" x1="4.07" y1="624.65" x2="9.33" y2="624.65" gradientTransform="matrix(0.85, 0.53, 0.53, -0.85, -191.68, 666.19)" xlink:href="#linear-gradient-2"/><linearGradient id="linear-gradient-7" x1="4.04" y1="620.62" x2="4.9" y2="628.94" gradientTransform="matrix(0.85, 0.53, 0.53, -0.85, -191.68, 666.19)" xlink:href="#linear-gradient-3"/><radialGradient id="radial-gradient-2" cx="-233.15" cy="985.64" r="1.62" gradientTransform="translate(384.64 -858.38)" gradientUnits="userSpaceOnUse"><stop offset="0.67" stop-color="#f9e4b4"/><stop offset="1" stop-color="#fbf7f0"/></radialGradient><radialGradient id="radial-gradient-3" cx="-307.67" cy="1015.78" r="1.29" gradientTransform="matrix(-1, 0, 0, 1, -157.58, -874.45)" xlink:href="#radial-gradient-2"/><radialGradient id="radial-gradient-4" cx="-318.06" cy="1007.26" r="1.86" gradientTransform="matrix(-0.9, 0, 0, 0.91, -138.48, -781.03)" xlink:href="#radial-gradient-2"/><radialGradient id="radial-gradient-5" cx="-231.73" cy="985.44" r="0.85" gradientTransform="translate(384.23 -859.19)" xlink:href="#radial-gradient-2"/><radialGradient id="radial-gradient-6" cx="-316.63" cy="1006.23" r="0.99" gradientTransform="matrix(-0.9, 0, 0, 0.91, -138.52, -779.2)" xlink:href="#radial-gradient-2"/><linearGradient id="linear-gradient-8" x1="151.25" y1="7.86" x2="159.68" y2="0.06" gradientTransform="translate(-10.26 57.87)" gradientUnits="userSpaceOnUse"><stop offset="0" stop-color="#dbdebc"/><stop offset="0.97" stop-color="#fff"/></linearGradient><linearGradient id="linear-gradient-9" x1="183.87" y1="-0.81" x2="192.4" y2="-8.69" gradientTransform="translate(-38.93 77.68)" xlink:href="#linear-gradient-8"/><linearGradient id="linear-gradient-10" x1="168.26" y1="41.48" x2="176.3" y2="34.05" gradientTransform="translate(-24.51 61.72)" xlink:href="#linear-gradient-8"/><linearGradient id="linear-gradient-11" x1="-87.21" y1="882.16" x2="-81.95" y2="882.16" gradientTransform="matrix(1, 0.06, 0.06, -1, 169.01, 963.2)" xlink:href="#linear-gradient-2"/><linearGradient id="linear-gradient-12" x1="-87.24" y1="878.13" x2="-86.38" y2="886.44" gradientTransform="matrix(1, 0.06, 0.06, -1, 169.01, 963.2)" xlink:href="#linear-gradient-3"/><radialGradient id="radial-gradient-7" cx="-327.82" cy="1011.88" r="1.13" gradientTransform="matrix(-1, 0, 0, 1, -174.64, -890.83)" xlink:href="#radial-gradient-2"/><linearGradient id="linear-gradient-13" x1="135.66" y1="101.99" x2="139.94" y2="101.99" gradientTransform="matrix(1, 0, 0, 1, 0, 0)" xlink:href="#linear-gradient-4"/><linearGradient id="linear-gradient-14" x1="135.38" y1="98.86" x2="141.13" y2="98.86" gradientTransform="matrix(1, 0, 0, 1, 0, 0)" xlink:href="#linear-gradient-5"/><linearGradient id="linear-gradient-15" x1="142.2" y1="148.4" x2="142.2" y2="55.59" xlink:href="#linear-gradient"/><linearGradient id="linear-gradient-16" x1="143.72" y1="43.86" x2="155.8" y2="43.86" gradientTransform="matrix(1, 0, 0, 1, 0, 0)" xlink:href="#linear-gradient-4"/><linearGradient id="linear-gradient-17" x1="144.5" y1="45.74" x2="156.51" y2="45.74" gradientTransform="matrix(1, 0, 0, 1, 0, 0)" xlink:href="#linear-gradient-5"/><linearGradient id="linear-gradient-18" x1="159.34" y1="51.61" x2="166.46" y2="51.61" gradientTransform="matrix(1, 0, 0, 1, 0, 0)" xlink:href="#linear-gradient-2"/><linearGradient id="linear-gradient-19" x1="159.32" y1="46.18" x2="160.48" y2="57.36" gradientTransform="matrix(1, 0, 0, 1, 0, 0)" xlink:href="#linear-gradient-3"/><linearGradient id="linear-gradient-20" x1="161.51" y1="57.45" x2="169.94" y2="49.66" gradientTransform="translate(-30.06 58.02)" xlink:href="#linear-gradient-8"/><linearGradient id="linear-gradient-21" x1="127" y1="62.58" x2="129.64" y2="60.14" gradientTransform="matrix(1, 0, 0, 1, 0, 0)" xlink:href="#linear-gradient-8"/><linearGradient id="linear-gradient-22" x1="130.81" y1="65.71" x2="138.19" y2="58.89" gradientTransform="matrix(1, 0, 0, 1, 0, 0)" xlink:href="#linear-gradient-8"/><radialGradient id="radial-gradient-8" cx="155.89" cy="65.11" r="1.34" gradientTransform="translate(164.91 -103.59) rotate(70.4)" gradientUnits="userSpaceOnUse"><stop offset="0" stop-color="#fbe5ef"/><stop offset="1" stop-color="#fff"/></radialGradient><radialGradient id="radial-gradient-9" cx="155.11" cy="79.72" r="1.94" gradientTransform="translate(178.16 -93.14) rotate(70.4)" xlink:href="#radial-gradient-8"/><radialGradient id="radial-gradient-10" cx="152.12" cy="72.24" r="2.19" gradientTransform="translate(169.13 -95.3) rotate(70.4)" xlink:href="#radial-gradient-8"/><radialGradient id="radial-gradient-11" cx="154.38" cy="60.09" r="1.03" gradientTransform="translate(159.19 -105.5) rotate(70.4)" xlink:href="#radial-gradient-8"/></defs><title>dragonfruit</title><rect class="cls-1" width="287.6" height="183.9"/><ellipse class="cls-2" cx="141.87" cy="161.75" rx="19.2" ry="3.94"/><path class="cls-3" d="M163.6,45.22L156,160a2.13,2.13,0,0,1-1.9,2,113,113,0,0,1-11.62.66,112.26,112.26,0,0,1-12.93-.67,2,2,0,0,1-1.78-1.87q-3.81-57.38-7.61-114.76a1.17,1.17,0,0,1,1-1.24q3.14-.31,6.49-0.53l3-.18,1,0h0.13l0.7,0c2.85-.13,5.81-0.2,8.85-0.21,7.7,0,14.83.38,21.3,1A1,1,0,0,1,163.6,45.22Z"/><ellipse class="cls-4" cx="163.87" cy="44.29" rx="15.78" ry="15.75"/><ellipse class="cls-5" cx="164.02" cy="44.2" rx="15.42" ry="15.39"/><path class="cls-6" d="M163.84,30.26h1.26a1.7,1.7,0,0,1,.39,0,0.68,0.68,0,0,1,.21.16,1.21,1.21,0,0,0,.24.13,3.48,3.48,0,0,0,.67.2,1.25,1.25,0,0,0,.3,0h0.4a1.37,1.37,0,0,1,.64.1,1.57,1.57,0,0,1,.23.15,3.54,3.54,0,0,1,.37.21,0.6,0.6,0,0,0,.25.13l0.1,0.05a0.33,0.33,0,0,0,0,.05,0.53,0.53,0,0,0,.1,0s0.08,0,.12,0,0.19,0,.28,0a1.1,1.1,0,0,1,.14.05c0.06,0,.14,0,0.2,0a0.68,0.68,0,0,1,.12.09l0.18,0.09h0.06a0.91,0.91,0,0,1,.08.08c0.09,0.06.24,0,.25,0.21a0.37,0.37,0,0,1,.24.17,2,2,0,0,1,.25.22,0.75,0.75,0,0,0,.45.29,2.34,2.34,0,0,0,.57.16,0.82,0.82,0,0,1,.49.2,0.35,0.35,0,0,1,.08.18,0.41,0.41,0,0,0,.06.1,0.1,0.1,0,0,1,.08.06v0.05a2.15,2.15,0,0,0,.28.3l0.3,0.29a0.81,0.81,0,0,0,.45.29l0,0.08a0.79,0.79,0,0,1,.14.06c0.09,0,.09,0,0.15,0a0.62,0.62,0,0,1,0,.35,1.08,1.08,0,0,0,.29.45,1.86,1.86,0,0,0,.42.42,1.49,1.49,0,0,1,.18.07s0.06,0.07.09,0.1a0.56,0.56,0,0,0,.16,0,0.5,0.5,0,0,0,.19.1,0.42,0.42,0,0,0,.1.22,1.36,1.36,0,0,1,.15.24,0.85,0.85,0,0,0,0,.12s0.05,0.05.07,0.08,0,0.09.05,0.12,0.08,0.07.11,0.12a0.63,0.63,0,0,1,0,.28,0.7,0.7,0,0,0,.15.24,1.5,1.5,0,0,1,.26.21,1,1,0,0,1,.09.27c0,0.06,0,.12,0,0.17a0.38,0.38,0,0,0,0,.1c0,0.11.11,0.22,0.15,0.34a0.35,0.35,0,0,0,.1.19,1,1,0,0,1,.19.18,3.32,3.32,0,0,1,.2.39,1.7,1.7,0,0,1,.16.28,1.87,1.87,0,0,1,0,.36,1.3,1.3,0,0,0,.14.62,0.65,0.65,0,0,1,.1.21,1.7,1.7,0,0,1,0,.32c0,0.22,0,.44,0,0.66a1.5,1.5,0,0,0,0,.32c0,0.05,0,.09,0,0.15a0.39,0.39,0,0,0,0,.08,0.25,0.25,0,0,0,.08.06,1,1,0,0,1,.17.65,1.3,1.3,0,0,1,0,.32l0,0.15,0,0.05s0,0.11,0,.15a1,1,0,0,0-.05.09,0.39,0.39,0,0,1,0,.15,0.26,0.26,0,0,0-.08.17c0,0.06,0,.11,0,0.17q0,0.4,0,.8v0.32a1.08,1.08,0,0,0,0,.36,0.49,0.49,0,0,1,.09.18s0,0.1,0,.15,0,0.12,0,.17,0,0.06-.08.13a0.76,0.76,0,0,0-.12.33,1.92,1.92,0,0,0,0,.41,2,2,0,0,1-.09.69,1.7,1.7,0,0,1-.18.55,0.31,0.31,0,0,0-.08.16,1,1,0,0,0-.05.17,1.2,1.2,0,0,1,0,.14,0.74,0.74,0,0,0,0,.13,0.81,0.81,0,0,1,0,.17,1.2,1.2,0,0,1-.07.1,1.37,1.37,0,0,0-.07.3,1.26,1.26,0,0,1-.4.61,5.92,5.92,0,0,1-.42.42,1.13,1.13,0,0,0-.42.29,2.55,2.55,0,0,0-.12.61c0,0.17-.1.33-0.12,0.5s0,0.12,0,.18a0.41,0.41,0,0,1,0,.11,1.11,1.11,0,0,1,0,.14,1.31,1.31,0,0,1-.07.13,2.48,2.48,0,0,1-.27.16c-0.09.07-.15,0.17-0.24,0.23a0.89,0.89,0,0,0-.13.06s0,0.05,0,.07l-0.12.08c-0.1.07-.19,0.17-0.3,0.24l-0.38.25a0.59,0.59,0,0,0-.18.09c0,0.06,0,.15-0.09.21s-0.15.15-.21,0.22a0.64,0.64,0,0,0-.1.13s0,0.09,0,.13a0.79,0.79,0,0,1-.23.19,0.82,0.82,0,0,1-.29.17,1.13,1.13,0,0,0-.32.11,3.11,3.11,0,0,1-.27.18,0.4,0.4,0,0,1-.17,0,0.83,0.83,0,0,0-.32.11,3.91,3.91,0,0,0-.54.38,1.12,1.12,0,0,0-.19.26,0.79,0.79,0,0,1-.12.13,0.48,0.48,0,0,0-.15.23,0.86,0.86,0,0,1-.25.25,1.27,1.27,0,0,1-.13.18c-0.06,0-.17,0-0.24.08a0.6,0.6,0,0,1-.4.13,0.5,0.5,0,0,0-.35.12,1.19,1.19,0,0,1-.64.27,0.74,0.74,0,0,0-.32,0l-0.35.19a2.31,2.31,0,0,1-.72,0,0.78,0.78,0,0,0-.34.15l-0.25.17a0.44,0.44,0,0,1-.2.12,1.76,1.76,0,0,0-.94,0,1.09,1.09,0,0,0-.08.11,0.7,0.7,0,0,1-.11.07,1,1,0,0,1-.16.13,1.54,1.54,0,0,1-.53.06h-0.86a0.77,0.77,0,0,0-.25.1l-0.2,0-0.15.05s-0.09,0-.13,0l-0.08,0a0.66,0.66,0,0,1-.24,0,1.27,1.27,0,0,1-.29-0.15l-0.15-.1a1.15,1.15,0,0,0-.19-0.06c-0.13-.06-0.23-0.19-0.36-0.25l-0.12,0s-0.08-.07-0.12-0.09a0.75,0.75,0,0,0-.25,0h-0.44a0.91,0.91,0,0,1-.53,0c-0.09-.11,0-0.32-0.14-0.41a1.1,1.1,0,0,0-.51,0,2.55,2.55,0,0,1-.24-0.09,3.2,3.2,0,0,0-.36-0.07,1.11,1.11,0,0,1-.49-0.18,0.74,0.74,0,0,1-.11-0.08,1.57,1.57,0,0,1-.08-0.14c0-.07-0.12-0.1-0.16-0.17s-0.06-.07-0.19-0.1,0,0-.08,0-0.11,0-.16,0a1,1,0,0,0-.06-0.24c-0.05-.15-0.06-0.13-0.2-0.15s-0.07-.07-0.11-0.2a0.39,0.39,0,0,0-.19-0.25s-0.11,0-.15,0a0.45,0.45,0,0,1-.06,0,1.41,1.41,0,0,0-.29,0,2,2,0,0,1-.29,0,0.51,0.51,0,0,1-.35-0.25,2.92,2.92,0,0,1-.25-0.3,1.57,1.57,0,0,1-.15-0.28,1,1,0,0,0-.4-0.48l-0.24-.12c-0.06,0-.13,0-0.19,0s-0.06-.06-0.11-0.08a1.52,1.52,0,0,1-.5-0.25,0.76,0.76,0,0,1-.15-0.54,0.41,0.41,0,0,0-.29-0.38,1.17,1.17,0,0,0-.35-0.11,1.78,1.78,0,0,1-.3,0,0.78,0.78,0,0,1-.25-0.52L152.7,52a0.63,0.63,0,0,0-.17-0.17,0.36,0.36,0,0,0-.07-0.12c-0.05,0-.13,0-0.18,0a0.68,0.68,0,0,1-.07-0.13,1.14,1.14,0,0,1-.1-0.1c0-.07-0.05-0.13-0.1-0.2a1,1,0,0,1-.15-0.35c-0.07-.22,0-0.46-0.09-0.68a1.8,1.8,0,0,0-.1-0.28l-0.14-.21a1.21,1.21,0,0,0-.21-0.28,0.73,0.73,0,0,1-.2-0.31c-0.09-.19-0.22-0.38-0.3-0.58s-0.06-.17-0.1-0.25a1.51,1.51,0,0,1-.06-0.28c0-.08-0.1-0.17-0.13-0.26a0.73,0.73,0,0,1,0-.15,0.67,0.67,0,0,0,0-.11c0-.09,0-0.19,0-0.28a1.36,1.36,0,0,1-.05-0.24,0.66,0.66,0,0,0,0-.24,1.27,1.27,0,0,0-.09-0.26,1.65,1.65,0,0,1-.26-0.43,2,2,0,0,1,0-.58,0.83,0.83,0,0,1,0-.11s0-.09,0-0.14,0-.1.05-0.16a1.37,1.37,0,0,0,0-.23,1.56,1.56,0,0,0,0-.36l0-.13s0-.08,0-0.11,0-.2,0-0.28a1.51,1.51,0,0,1-.21-0.3c0-.33,0-0.69,0-1a0.45,0.45,0,0,1,.06-0.24c0.07-.1.18-0.15,0.25-0.24a0.84,0.84,0,0,0,.09-0.54V41c0-.13,0-0.27,0-0.4a3.14,3.14,0,0,1,.13-0.67,3.76,3.76,0,0,1,.36-0.68,0.81,0.81,0,0,1,.19-0.26,1,1,0,0,0,.17-0.28c0.06-.11.13-0.2,0.19-0.29a2.52,2.52,0,0,0,.11-0.25s0.06-.07.08-0.11,0-.16.06-0.22a2.35,2.35,0,0,1,.29-0.32,1.82,1.82,0,0,1,.26-0.24,0.35,0.35,0,0,0,.11-0.27,1.24,1.24,0,0,1,.12-0.2,2,2,0,0,0,.08-0.3,3.86,3.86,0,0,1,.22-0.45,1.69,1.69,0,0,1,.17-0.31,0.84,0.84,0,0,1,.1-0.11,1.24,1.24,0,0,1,.18,0l0-.08,0.13,0a2.58,2.58,0,0,1,.05-0.38,2.18,2.18,0,0,1,.16-0.35s0.07,0,.08-0.06a1.05,1.05,0,0,0,0-.11,0.64,0.64,0,0,1,.27-0.3c0.13-.07.27-0.11,0.4-0.17a1,1,0,0,1,.06-0.29l0.1-.24a1.52,1.52,0,0,1,.28-0.42,1.57,1.57,0,0,1,.59-0.4,1.07,1.07,0,0,0,.28-0.09,1.14,1.14,0,0,1,.17-0.12,0.44,0.44,0,0,0,.11,0,0.38,0.38,0,0,1,.17-0.11,0.88,0.88,0,0,0,.26-0.09,1,1,0,0,0,.25-0.25,2.11,2.11,0,0,1,.27-0.23,2.23,2.23,0,0,1,.32-0.2,1,1,0,0,1,.49-0.06,1.48,1.48,0,0,0,.48,0,2.44,2.44,0,0,0,.35-0.15,0.62,0.62,0,0,0,.18-0.11s0-.07,0-0.09a0.16,0.16,0,0,1,.09,0,2,2,0,0,1,.35-0.09,1.82,1.82,0,0,0,.35-0.06,2.23,2.23,0,0,1,.3-0.06,2,2,0,0,0,.49-0.3,1.6,1.6,0,0,1,.5,0,0.87,0.87,0,0,0,.24-0.15l0.3-.22a0.19,0.19,0,0,1,.17-0.07c0.14,0,.13,0,0.17.14a0.41,0.41,0,0,0,.46.16,1.44,1.44,0,0,0,.49-0.05l0.24-.08C162.89,30.38,163.77,30,163.84,30.26Z"/><path class="cls-7" d="M152.78,48.93a0.61,0.61,0,0,0-.33.79,10.11,10.11,0,0,0,5.71,5.69,0.61,0.61,0,0,0,.77-0.33l4.46-10.15a0.22,0.22,0,0,0-.28-0.29Z"/><path class="cls-8" d="M163.6,45.27L156,160.05a2.13,2.13,0,0,1-1.9,2,113,113,0,0,1-11.62.66,112.26,112.26,0,0,1-12.93-.67,2,2,0,0,1-1.78-1.87q-3.81-57.38-7.61-114.76a1.17,1.17,0,0,1,1-1.24q3.14-.31,6.49-0.53l3-.18,1,0h0.13l0.7,0c2.85-.13,5.81-0.2,8.85-0.21,7.7,0,14.83.38,21.3,1A1,1,0,0,1,163.6,45.27Z"/><path class="cls-9" d="M159.52,32.7a0.61,0.61,0,0,1,.33-0.79,10.14,10.14,0,0,1,8.07,0,0.6,0.6,0,0,1,.32.78l-4,10.33a0.22,0.22,0,0,1-.4,0Z"/><path class="cls-9" d="M159.52,55.32a0.61,0.61,0,0,0,.33.79,10.14,10.14,0,0,0,8.07,0,0.6,0.6,0,0,0,.32-0.78l-4-10.33a0.22,0.22,0,0,0-.4,0Z"/><path class="cls-9" d="M175.3,39.68a0.61,0.61,0,0,1,.8.33,10.08,10.08,0,0,1,0,8.05,0.61,0.61,0,0,1-.78.32l-10.35-4a0.22,0.22,0,0,1,0-.4Z"/><path class="cls-9" d="M152.64,39.68a0.61,0.61,0,0,0-.8.33,10.08,10.08,0,0,0,0,8.05,0.61,0.61,0,0,0,.78.32l10.35-4a0.22,0.22,0,0,0,0-.4Z"/><path class="cls-9" d="M168.8,32.94a0.61,0.61,0,0,1,.79-0.33,10.11,10.11,0,0,1,5.7,5.7,0.6,0.6,0,0,1-.33.77L164.8,43.54a0.22,0.22,0,0,1-.29-0.28Z"/><path class="cls-9" d="M152.78,39.18a0.61,0.61,0,0,1-.33-0.79,10.11,10.11,0,0,1,5.71-5.69,0.61,0.61,0,0,1,.77.33l4.46,10.15a0.22,0.22,0,0,1-.28.29Z"/><path class="cls-9" d="M168.8,55.17a0.61,0.61,0,0,0,.79.33,10.11,10.11,0,0,0,5.7-5.7A0.6,0.6,0,0,0,175,49L164.8,44.57a0.22,0.22,0,0,0-.29.28Z"/><path class="cls-6" d="M160.89,41.62a2.14,2.14,0,0,0,1.71,1.11,0.11,0.11,0,0,0,.13-0.13,2.13,2.13,0,0,0-1.09-1.72A0.56,0.56,0,0,0,160.89,41.62Z"/><path class="cls-6" d="M161.62,47.15a2.14,2.14,0,0,0,1.11-1.7,0.11,0.11,0,0,0-.13-0.13,2.13,2.13,0,0,0-1.72,1.09A0.56,0.56,0,0,0,161.62,47.15Z"/><path class="cls-6" d="M166.94,41.8a2.14,2.14,0,0,1-1.71,1.11,0.11,0.11,0,0,1-.13-0.13,2.13,2.13,0,0,1,1.09-1.72A0.56,0.56,0,0,1,166.94,41.8Z"/><path class="cls-6" d="M166.21,47.15a2.14,2.14,0,0,1-1.11-1.7,0.11,0.11,0,0,1,.13-0.13,2.13,2.13,0,0,1,1.72,1.09A0.56,0.56,0,0,1,166.21,47.15Z"/><path class="cls-10" d="M163.64,34.25a15.09,15.09,0,0,0,.55,4.75c0,0.17.11,0.18,0.14,0a14.46,14.46,0,0,0,.09-4.72,1.48,1.48,0,0,0-.44-0.88A1.24,1.24,0,0,0,163.64,34.25Z"/><path class="cls-10" d="M161.41,33.56a14.19,14.19,0,0,0,1.36,3.91c0.07,0.14.12,0.12,0.11,0a14.12,14.12,0,0,0-.87-4.05,1.21,1.21,0,0,0-.5-0.63A1.28,1.28,0,0,0,161.41,33.56Z"/><path class="cls-10" d="M165.82,33a9.88,9.88,0,0,0-.37,3.43c0,0.13.06,0.15,0.1,0a9,9,0,0,0,.85-3.23,1.17,1.17,0,0,0-.19-0.73A0.72,0.72,0,0,0,165.82,33Z"/><path class="cls-10" d="M171.16,36.7a15.09,15.09,0,0,0-3.32,3.45c-0.11.14-.06,0.2,0.08,0.11a14.46,14.46,0,0,0,3.7-2.93,1.48,1.48,0,0,0,.4-0.89A1.24,1.24,0,0,0,171.16,36.7Z"/><path class="cls-10" d="M169.7,34.91a14.19,14.19,0,0,0-2.16,3.53c-0.06.14,0,.17,0.09,0.06a14.12,14.12,0,0,0,2.57-3.25,1.21,1.21,0,0,0,.17-0.79A1.28,1.28,0,0,0,169.7,34.91Z"/><path class="cls-10" d="M173,37.94a9.88,9.88,0,0,0-2.88,1.9c-0.1.09-.08,0.14,0,0.11a9,9,0,0,0,3-1.39,1.17,1.17,0,0,0,.44-0.61A0.72,0.72,0,0,0,173,37.94Z"/><path class="cls-11" d="M163.67,53.23a15.09,15.09,0,0,1,.55-4.75c0-.17.11-0.18,0.14,0a14.46,14.46,0,0,1,.09,4.72,1.48,1.48,0,0,1-.44.88A1.24,1.24,0,0,1,163.67,53.23Z"/><path class="cls-11" d="M161.43,53.91A14.19,14.19,0,0,1,162.79,50c0.07-.14.12-0.12,0.11,0a14.12,14.12,0,0,1-.87,4.05,1.21,1.21,0,0,1-.5.63A1.28,1.28,0,0,1,161.43,53.91Z"/><path class="cls-11" d="M165.84,54.51a9.88,9.88,0,0,1-.37-3.43c0-.13.06-0.15,0.1,0a9,9,0,0,1,.85,3.23,1.17,1.17,0,0,1-.19.73A0.72,0.72,0,0,1,165.84,54.51Z"/><path class="cls-10" d="M171.19,50.77a15.09,15.09,0,0,1-3.32-3.45c-0.11-.14-0.06-0.2.08-0.11a14.46,14.46,0,0,1,3.7,2.93,1.48,1.48,0,0,1,.4.89A1.24,1.24,0,0,1,171.19,50.77Z"/><path class="cls-10" d="M169.72,52.56A14.19,14.19,0,0,1,167.57,49c-0.06-.14,0-0.17.09-0.06a14.12,14.12,0,0,1,2.57,3.25,1.21,1.21,0,0,1,.17.79A1.28,1.28,0,0,1,169.72,52.56Z"/><path class="cls-10" d="M173,49.53a9.88,9.88,0,0,1-2.88-1.9c-0.1-.09-0.08-0.14,0-0.11a9,9,0,0,1,3,1.39,1.17,1.17,0,0,1,.44.61A0.72,0.72,0,0,1,173,49.53Z"/><path class="cls-10" d="M157.28,36.89a15.09,15.09,0,0,1,3.07,3.68c0.1,0.15,0,.2-0.09.11a14.46,14.46,0,0,1-3.48-3.19,1.48,1.48,0,0,1-.33-0.92A1.24,1.24,0,0,1,157.28,36.89Z"/><path class="cls-10" d="M158.32,34.79a14.19,14.19,0,0,1,1.9,3.68c0.05,0.14,0,.17-0.09.06a14.12,14.12,0,0,1-2.33-3.42,1.21,1.21,0,0,1-.11-0.8A1.28,1.28,0,0,1,158.32,34.79Z"/><path class="cls-10" d="M154.85,37.58a9.88,9.88,0,0,1,2.74,2.1c0.09,0.09.07,0.15,0,.11a9,9,0,0,1-2.92-1.61,1.17,1.17,0,0,1-.4-0.64A0.72,0.72,0,0,1,154.85,37.58Z"/><path class="cls-11" d="M153.88,44a15.09,15.09,0,0,1,4.79,0c0.18,0,.19.09,0,0.14a14.46,14.46,0,0,1-4.67.66,1.48,1.48,0,0,1-.92-0.33A1.24,1.24,0,0,1,153.88,44Z"/><path class="cls-11" d="M153.59,41.73a14.19,14.19,0,0,1,4,.87c0.14,0,.13.1,0,0.11a14.12,14.12,0,0,1-4.13-.37,1.21,1.21,0,0,1-.69-0.42A1.28,1.28,0,0,1,153.59,41.73Z"/><path class="cls-11" d="M153.53,46.18a9.88,9.88,0,0,1,3.36-.78c0.13,0,.16,0,0.06.1a9,9,0,0,1-3.1,1.23,1.17,1.17,0,0,1-.75-0.1A0.72,0.72,0,0,1,153.53,46.18Z"/><path class="cls-10" d="M174.55,44.22a15.09,15.09,0,0,1-4.78-.31c-0.17,0-.18-0.1,0-0.14a14.46,14.46,0,0,1,4.71-.33,1.48,1.48,0,0,1,.9.39A1.24,1.24,0,0,1,174.55,44.22Z"/><path class="cls-10" d="M174.67,46.53a14.19,14.19,0,0,1-4-1.16c-0.14-.06-0.13-0.11,0-0.11a14.12,14.12,0,0,1,4.09.67,1.21,1.21,0,0,1,.66.47A1.28,1.28,0,0,1,174.67,46.53Z"/><path class="cls-10" d="M175,42.09a9.88,9.88,0,0,1-3.41.54c-0.13,0-.16,0-0.05-0.1a9,9,0,0,1,3.18-1,1.17,1.17,0,0,1,.74.15A0.72,0.72,0,0,1,175,42.09Z"/><path class="cls-11" d="M156.45,51.48A15.09,15.09,0,0,1,160,48.23c0.14-.1.2-0.06,0.11,0.08a14.46,14.46,0,0,1-3,3.64,1.48,1.48,0,0,1-.9.38A1.24,1.24,0,0,1,156.45,51.48Z"/><path class="cls-11" d="M154.69,50a14.19,14.19,0,0,1,3.58-2.09c0.14-.06.17,0,0.06,0.09a14.12,14.12,0,0,1-3.3,2.51,1.21,1.21,0,0,1-.79.15A1.28,1.28,0,0,1,154.69,50Z"/><path class="cls-11" d="M157.65,53.3a9.88,9.88,0,0,1,2-2.85c0.09-.1.14-0.08,0.11,0a9,9,0,0,1-1.45,3,1.17,1.17,0,0,1-.62.43A0.72,0.72,0,0,1,157.65,53.3Z"/><path class="cls-12" d="M159.71,59.2q-2.59,40.51-5.19,81a6.35,6.35,0,0,1-2.48,4.68,16.36,16.36,0,0,1-19.82.29,7,7,0,0,1-2.85-5.29l-4.84-83.62c5.58-.44,11.61-0.71,18-0.69q5.52,0,10.63.27A15.66,15.66,0,0,0,159.71,59.2Z"/><ellipse class="cls-13" cx="141.58" cy="122.75" rx="6.85" ry="7.07"/><ellipse class="cls-13" cx="149.3" cy="109.56" rx="5.79" ry="5.97"/><path class="cls-14" d="M152.7,104.73a6.2,6.2,0,0,1,1.65,7.86,5.79,5.79,0,0,1-7.94,2.15,7.67,7.67,0,0,0,5.76-3.78A8,8,0,0,0,152.7,104.73Z"/><path class="cls-15" d="M147.88,105.35a0,0,0,0,1,0,0,0.3,0.3,0,0,1-.26,0,0.31,0.31,0,0,1-.14-0.23,0.09,0.09,0,0,1,.07-0.1,0.31,0.31,0,0,1,.3.11A0.32,0.32,0,0,1,147.88,105.35Z"/><path class="cls-15" d="M146.59,107.5h0a0.31,0.31,0,0,1-.13-0.47,0.08,0.08,0,0,1,.12,0,0.33,0.33,0,0,1,.14.29A0.31,0.31,0,0,1,146.59,107.5Z"/><path class="cls-15" d="M149,107.66a0,0,0,0,1,0,0,0.33,0.33,0,0,1,0-.27,0.3,0.3,0,0,1,.22-0.14,0.09,0.09,0,0,1,.09.07,0.33,0.33,0,0,1-.11.31A0.29,0.29,0,0,1,149,107.66Z"/><path class="cls-15" d="M151.32,108.86l0,0a0.33,0.33,0,0,1,0-.27,0.31,0.31,0,0,1,.17-0.2,0.08,0.08,0,0,1,.11,0,0.33,0.33,0,0,1,0,.32A0.3,0.3,0,0,1,151.32,108.86Z"/><path class="cls-16" d="M151.89,106.72a0,0,0,0,1,0,0,0.33,0.33,0,0,1,0-.27,0.3,0.3,0,0,1,.2-0.17,0.08,0.08,0,0,1,.1.06,0.33,0.33,0,0,1-.07.32A0.3,0.3,0,0,1,151.89,106.72Z"/><path class="cls-15" d="M150.28,106.62a0,0,0,0,1,0,0,0.3,0.3,0,0,1-.26,0,0.31,0.31,0,0,1-.14-0.23,0.09,0.09,0,0,1,.07-0.1,0.31,0.31,0,0,1,.3.11A0.32,0.32,0,0,1,150.28,106.62Z"/><path class="cls-16" d="M147.26,107.14l0,0a0.33,0.33,0,0,1,0,.27,0.31,0.31,0,0,1-.19.18,0.08,0.08,0,0,1-.11-0.05,0.33,0.33,0,0,1,0-.32A0.3,0.3,0,0,1,147.26,107.14Z"/><path class="cls-15" d="M149.08,109.51a0,0,0,0,1,0,0,0.3,0.3,0,0,1-.26,0,0.31,0.31,0,0,1-.14-0.23,0.09,0.09,0,0,1,.07-0.1,0.31,0.31,0,0,1,.3.11A0.32,0.32,0,0,1,149.08,109.51Z"/><path class="cls-16" d="M148.87,107a0,0,0,0,1,0,0,0.3,0.3,0,0,1-.26,0,0.31,0.31,0,0,1-.14-0.23,0.09,0.09,0,0,1,.07-0.1,0.31,0.31,0,0,1,.3.11A0.32,0.32,0,0,1,148.87,107Z"/><path class="cls-15" d="M147.25,109.5h0a0.31,0.31,0,0,1-.13-0.47,0.08,0.08,0,0,1,.12,0,0.33,0.33,0,0,1,.14.29A0.31,0.31,0,0,1,147.25,109.5Z"/><path class="cls-15" d="M146.85,110.38a0,0,0,0,1,0,0,0.3,0.3,0,0,1-.26,0,0.31,0.31,0,0,1-.14-0.23,0.09,0.09,0,0,1,.07-0.1,0.31,0.31,0,0,1,.3.11A0.32,0.32,0,0,1,146.85,110.38Z"/><path class="cls-16" d="M147.66,110.47a0,0,0,0,1,0,0,0.3,0.3,0,0,1-.26,0,0.31,0.31,0,0,1-.14-0.23,0.09,0.09,0,0,1,.07-0.1,0.31,0.31,0,0,1,.3.11A0.32,0.32,0,0,1,147.66,110.47Z"/><path class="cls-15" d="M145.57,112.8h0a0.31,0.31,0,0,1-.13-0.47,0.08,0.08,0,0,1,.12,0,0.33,0.33,0,0,1,.14.29A0.31,0.31,0,0,1,145.57,112.8Z"/><path class="cls-15" d="M148.74,112.78a0,0,0,0,1,0,0,0.33,0.33,0,0,1,0-.27,0.3,0.3,0,0,1,.22-0.14,0.09,0.09,0,0,1,.09.07,0.33,0.33,0,0,1-.11.31A0.29,0.29,0,0,1,148.74,112.78Z"/><path class="cls-15" d="M150.06,111.74a0,0,0,0,1,0,0,0.3,0.3,0,0,1-.26,0,0.31,0.31,0,0,1-.14-0.23,0.09,0.09,0,0,1,.07-0.1,0.31,0.31,0,0,1,.3.11A0.32,0.32,0,0,1,150.06,111.74Z"/><path class="cls-15" d="M147.05,112.26l0,0a0.33,0.33,0,0,1,0,.27,0.31,0.31,0,0,1-.19.18,0.08,0.08,0,0,1-.11-0.05,0.33,0.33,0,0,1,0-.32A0.3,0.3,0,0,1,147.05,112.26Z"/><path class="cls-15" d="M148.66,112.11a0,0,0,0,1,0,0,0.3,0.3,0,0,1-.26,0,0.31,0.31,0,0,1-.14-0.23,0.09,0.09,0,0,1,.07-0.1,0.31,0.31,0,0,1,.3.11A0.32,0.32,0,0,1,148.66,112.11Z"/><path class="cls-15" d="M144.53,107.62a0,0,0,0,1,0,0,0.32,0.32,0,0,1,.17-0.21,0.29,0.29,0,0,1,.26,0,0.09,0.09,0,0,1,0,.11,0.32,0.32,0,0,1-.25.19A0.29,0.29,0,0,1,144.53,107.62Z"/><path class="cls-15" d="M145.15,108.13l0,0a0.33,0.33,0,0,1,0,.27,0.31,0.31,0,0,1-.19.18,0.08,0.08,0,0,1-.11-0.05,0.33,0.33,0,0,1,0-.32A0.3,0.3,0,0,1,145.15,108.13Z"/><path class="cls-16" d="M144.48,110.11h0a0.31,0.31,0,0,1-.13-0.47,0.08,0.08,0,0,1,.12,0,0.33,0.33,0,0,1,.14.29A0.31,0.31,0,0,1,144.48,110.11Z"/><path class="cls-15" d="M144.9,111a0,0,0,0,1,0,0,0.3,0.3,0,0,1-.26,0,0.31,0.31,0,0,1-.14-0.23,0.09,0.09,0,0,1,.07-0.1,0.31,0.31,0,0,1,.3.11A0.32,0.32,0,0,1,144.9,111Z"/><path class="cls-16" d="M145.71,111.08a0,0,0,0,1,0,0,0.3,0.3,0,0,1-.26,0,0.31,0.31,0,0,1-.14-0.23,0.09,0.09,0,0,1,.07-0.1,0.31,0.31,0,0,1,.3.11A0.32,0.32,0,0,1,145.71,111.08Z"/><path class="cls-16" d="M150.52,106.84a0,0,0,0,1,0,0,0.31,0.31,0,0,1,.24.12,0.32,0.32,0,0,1,.05.26,0.08,0.08,0,0,1-.1.07A0.3,0.3,0,0,1,150.52,106.84Z"/><path class="cls-15" d="M152.44,105.28h0a0.33,0.33,0,0,1,.1.25,0.31,0.31,0,0,1-.13.23,0.08,0.08,0,0,1-.12,0,0.33,0.33,0,0,1,0-.32A0.3,0.3,0,0,1,152.44,105.28Z"/><path class="cls-15" d="M150.27,104.29a0,0,0,0,1,0,0,0.33,0.33,0,0,1-.11.25,0.29,0.29,0,0,1-.25.06,0.09,0.09,0,0,1-.06-0.1,0.32,0.32,0,0,1,.2-0.25A0.29,0.29,0,0,1,150.27,104.29Z"/><path class="cls-16" d="M148.68,104.8a0,0,0,0,1,0,0,0.31,0.31,0,0,1,.24.12,0.32,0.32,0,0,1,.05.26,0.08,0.08,0,0,1-.1.07A0.3,0.3,0,0,1,148.68,104.8Z"/><path class="cls-15" d="M151.69,105.38a0,0,0,0,1,0,0,0.33,0.33,0,0,1,.07-0.26A0.3,0.3,0,0,1,152,105a0.09,0.09,0,0,1,.08.09,0.33,0.33,0,0,1-.15.29A0.29,0.29,0,0,1,151.69,105.38Z"/><path class="cls-15" d="M150.13,104.95a0,0,0,0,1,0,0,0.31,0.31,0,0,1,.24.12,0.32,0.32,0,0,1,.05.26,0.08,0.08,0,0,1-.1.07A0.3,0.3,0,0,1,150.13,104.95Z"/><path class="cls-16" d="M153,110.24a0,0,0,0,1,0,0,0.31,0.31,0,0,1-.23.13,0.3,0.3,0,0,1-.24-0.11,0.09,0.09,0,0,1,0-.12,0.31,0.31,0,0,1,.31-0.08A0.3,0.3,0,0,1,153,110.24Z"/><path class="cls-16" d="M154,108.39a0,0,0,0,1,0,0,0.31,0.31,0,0,1-.25-0.09,0.32,0.32,0,0,1-.08-0.25,0.09,0.09,0,0,1,.09-0.08,0.31,0.31,0,0,1,.26.18A0.32,0.32,0,0,1,154,108.39Z"/><path class="cls-15" d="M153.28,106.83a0,0,0,0,1,0,0,0.33,0.33,0,0,1-.08.26,0.3,0.3,0,0,1-.24.09,0.09,0.09,0,0,1-.08-0.09,0.33,0.33,0,0,1,.17-0.27A0.29,0.29,0,0,1,153.28,106.83Z"/><path class="cls-15" d="M154.21,109.37a0,0,0,0,1,0,0,0.3,0.3,0,0,1,.26,0,0.31,0.31,0,0,1,.13.23,0.09,0.09,0,0,1-.07.09,0.31,0.31,0,0,1-.29-0.12A0.32,0.32,0,0,1,154.21,109.37Z"/><path class="cls-15" d="M153.31,108.32a0,0,0,0,1,0,0,0.33,0.33,0,0,1-.08.26,0.3,0.3,0,0,1-.24.09,0.09,0.09,0,0,1-.08-0.09,0.33,0.33,0,0,1,.17-0.27A0.29,0.29,0,0,1,153.31,108.32Z"/><path class="cls-15" d="M146.16,105.44a0,0,0,0,1,0,0,0.31,0.31,0,0,1,.26.06,0.32,0.32,0,0,1,.11.24,0.09,0.09,0,0,1-.08.09,0.31,0.31,0,0,1-.28-0.15A0.32,0.32,0,0,1,146.16,105.44Z"/><path class="cls-16" d="M146,106.24a0,0,0,0,1,0,0,0.31,0.31,0,0,1-.22.15,0.3,0.3,0,0,1-.24-0.09,0.09,0.09,0,0,1,0-.12,0.31,0.31,0,0,1,.3-0.1A0.3,0.3,0,0,1,146,106.24Z"/><path class="cls-16" d="M150.17,110.3a0,0,0,0,1,0,0,0.33,0.33,0,0,1,0-.27,0.3,0.3,0,0,1,.21-0.16,0.08,0.08,0,0,1,.1.06,0.33,0.33,0,0,1-.08.31A0.3,0.3,0,0,1,150.17,110.3Z"/><path class="cls-15" d="M151.8,112.07a0,0,0,0,1,0,0,0.32,0.32,0,0,1,.2-0.18,0.29,0.29,0,0,1,.25,0,0.09,0.09,0,0,1,0,.12,0.31,0.31,0,0,1-.28.15A0.3,0.3,0,0,1,151.8,112.07Z"/><path class="cls-15" d="M154,111.53h0a0.31,0.31,0,0,1-.13-0.47,0.08,0.08,0,0,1,.12,0,0.33,0.33,0,0,1,.15.29A0.31,0.31,0,0,1,154,111.53Z"/><path class="cls-15" d="M150.9,110.5a0,0,0,0,1,0,0,0.32,0.32,0,0,1-.16.22,0.29,0.29,0,0,1-.26,0,0.09,0.09,0,0,1,0-.11,0.32,0.32,0,0,1,.25-0.2A0.29,0.29,0,0,1,150.9,110.5Z"/><path class="cls-15" d="M152.18,111.53h0a0.31,0.31,0,0,1-.13-0.47,0.08,0.08,0,0,1,.12,0,0.33,0.33,0,0,1,.15.29A0.31,0.31,0,0,1,152.18,111.53Z"/><path class="cls-16" d="M146.5,114.29h0a0.31,0.31,0,0,1-.13-0.47,0.08,0.08,0,0,1,.12,0,0.33,0.33,0,0,1,.14.29A0.31,0.31,0,0,1,146.5,114.29Z"/><path class="cls-15" d="M148.87,114.45a0,0,0,0,1,0,0,0.33,0.33,0,0,1,0-.27,0.3,0.3,0,0,1,.22-0.14,0.09,0.09,0,0,1,.09.07,0.33,0.33,0,0,1-.11.31A0.29,0.29,0,0,1,148.87,114.45Z"/><path class="cls-16" d="M150.19,113.41a0,0,0,0,1,0,0,0.3,0.3,0,0,1-.26,0,0.31,0.31,0,0,1-.14-0.23,0.09,0.09,0,0,1,.07-0.1,0.31,0.31,0,0,1,.3.11A0.32,0.32,0,0,1,150.19,113.41Z"/><path class="cls-15" d="M147.18,113.93l0,0a0.33,0.33,0,0,1,0,.27,0.31,0.31,0,0,1-.19.18,0.08,0.08,0,0,1-.11-0.05,0.33,0.33,0,0,1,0-.32A0.3,0.3,0,0,1,147.18,113.93Z"/><path class="cls-16" d="M148.78,113.78a0,0,0,0,1,0,0,0.3,0.3,0,0,1-.26,0,0.31,0.31,0,0,1-.14-0.23,0.09,0.09,0,0,1,.07-0.1,0.31,0.31,0,0,1,.3.11A0.32,0.32,0,0,1,148.78,113.78Z"/><path class="cls-15" d="M150.22,114.64a0,0,0,0,1,0,0,0.31,0.31,0,0,1-.23-0.14,0.32,0.32,0,0,1,0-.26,0.08,0.08,0,0,1,.1-0.06A0.3,0.3,0,0,1,150.22,114.64Z"/><path class="cls-15" d="M152.51,114h0a0.33,0.33,0,0,1-.06-0.27,0.31,0.31,0,0,1,.16-0.21,0.08,0.08,0,0,1,.11,0,0.33,0.33,0,0,1,0,.32A0.3,0.3,0,0,1,152.51,114Z"/><path class="cls-16" d="M153.44,112.58a0,0,0,0,1,0,0,0.29,0.29,0,0,1-.46-0.11,0.09,0.09,0,0,1,0-.12,0.31,0.31,0,0,1,.31,0A0.31,0.31,0,0,1,153.44,112.58Z"/><path class="cls-15" d="M150.75,114.07h0a0.33,0.33,0,0,1,.11.25,0.31,0.31,0,0,1-.12.24,0.08,0.08,0,0,1-.12,0,0.33,0.33,0,0,1-.06-0.32A0.31,0.31,0,0,1,150.75,114.07Z"/><path class="cls-15" d="M152.23,113.4a0,0,0,0,1,0,0,0.29,0.29,0,0,1-.46-0.11,0.09,0.09,0,0,1,0-.12,0.31,0.31,0,0,1,.31,0A0.31,0.31,0,0,1,152.23,113.4Z"/><path class="cls-14" d="M145.61,117a7.34,7.34,0,0,1,2,9.31,6.85,6.85,0,0,1-9.39,2.54,9.07,9.07,0,0,0,6.81-4.47A9.51,9.51,0,0,0,145.61,117Z"/><path class="cls-15" d="M139.9,117.77a0,0,0,0,1,0,0,0.36,0.36,0,0,1-.31,0,0.37,0.37,0,0,1-.16-0.27,0.1,0.1,0,0,1,.08-0.12,0.37,0.37,0,0,1,.35.13A0.38,0.38,0,0,1,139.9,117.77Z"/><path class="cls-15" d="M138.37,120.32a0,0,0,0,1,0,0,0.37,0.37,0,0,1-.15-0.55,0.1,0.1,0,0,1,.14,0,0.39,0.39,0,0,1,.17.34A0.37,0.37,0,0,1,138.37,120.32Z"/><path class="cls-15" d="M141.18,120.5a0,0,0,0,1,0,0,0.39,0.39,0,0,1,0-.32,0.36,0.36,0,0,1,.26-0.17,0.1,0.1,0,0,1,.11.08,0.39,0.39,0,0,1-.13.36A0.35,0.35,0,0,1,141.18,120.5Z"/><path class="cls-15" d="M144,121.92a0,0,0,0,1,0,0,0.39,0.39,0,0,1-.06-0.32,0.37,0.37,0,0,1,.2-0.24,0.1,0.1,0,0,1,.13,0,0.4,0.4,0,0,1,0,.38A0.35,0.35,0,0,1,144,121.92Z"/><path class="cls-16" d="M144.65,119.39a0,0,0,0,1,0,0,0.39,0.39,0,0,1,0-.32,0.36,0.36,0,0,1,.24-0.2,0.1,0.1,0,0,1,.12.07,0.39,0.39,0,0,1-.09.37A0.35,0.35,0,0,1,144.65,119.39Z"/><path class="cls-15" d="M142.74,119.27a0,0,0,0,1,0,0,0.36,0.36,0,0,1-.31,0,0.37,0.37,0,0,1-.16-0.27,0.1,0.1,0,0,1,.08-0.12,0.37,0.37,0,0,1,.35.13A0.38,0.38,0,0,1,142.74,119.27Z"/><path class="cls-16" d="M139.17,119.88a0,0,0,0,1,0,0,0.39,0.39,0,0,1,0,.32,0.36,0.36,0,0,1-.22.22,0.1,0.1,0,0,1-.13-0.06A0.39,0.39,0,0,1,139,120,0.35,0.35,0,0,1,139.17,119.88Z"/><path class="cls-15" d="M141.33,122.69a0,0,0,0,1,0,0,0.36,0.36,0,0,1-.31,0,0.37,0.37,0,0,1-.16-0.27,0.1,0.1,0,0,1,.08-0.12,0.37,0.37,0,0,1,.35.13A0.38,0.38,0,0,1,141.33,122.69Z"/><path class="cls-16" d="M141.08,119.71a0,0,0,0,1,0,0,0.36,0.36,0,0,1-.31,0,0.37,0.37,0,0,1-.16-0.27,0.1,0.1,0,0,1,.08-0.12,0.37,0.37,0,0,1,.35.13A0.38,0.38,0,0,1,141.08,119.71Z"/><path class="cls-15" d="M139.16,122.68a0,0,0,0,1,0,0,0.37,0.37,0,0,1-.15-0.55,0.1,0.1,0,0,1,.14,0,0.39,0.39,0,0,1,.17.34A0.37,0.37,0,0,1,139.16,122.68Z"/><path class="cls-15" d="M138.68,123.73a0,0,0,0,1,0,0,0.36,0.36,0,0,1-.31,0,0.37,0.37,0,0,1-.16-0.27,0.1,0.1,0,0,1,.08-0.12,0.37,0.37,0,0,1,.35.13A0.38,0.38,0,0,1,138.68,123.73Z"/><path class="cls-16" d="M139.65,123.83a0,0,0,0,1,0,0,0.36,0.36,0,0,1-.31,0,0.37,0.37,0,0,1-.16-0.27,0.1,0.1,0,0,1,.08-0.12,0.37,0.37,0,0,1,.35.13A0.38,0.38,0,0,1,139.65,123.83Z"/><path class="cls-15" d="M137.17,126.58a0,0,0,0,1,0,0A0.37,0.37,0,0,1,137,126a0.1,0.1,0,0,1,.14,0,0.39,0.39,0,0,1,.17.34A0.37,0.37,0,0,1,137.17,126.58Z"/><path class="cls-15" d="M140.92,126.56a0,0,0,0,1,0,0,0.39,0.39,0,0,1,0-.32,0.36,0.36,0,0,1,.26-0.17,0.1,0.1,0,0,1,.11.08,0.39,0.39,0,0,1-.13.36A0.35,0.35,0,0,1,140.92,126.56Z"/><path class="cls-15" d="M142.49,125.33a0,0,0,0,1,0,0,0.36,0.36,0,0,1-.31,0,0.37,0.37,0,0,1-.16-0.27,0.1,0.1,0,0,1,.08-0.12,0.37,0.37,0,0,1,.35.13A0.38,0.38,0,0,1,142.49,125.33Z"/><path class="cls-15" d="M138.92,125.94a0,0,0,0,1,0,0,0.39,0.39,0,0,1,0,.32,0.36,0.36,0,0,1-.22.22,0.1,0.1,0,0,1-.13-0.06,0.39,0.39,0,0,1,.06-0.38A0.35,0.35,0,0,1,138.92,125.94Z"/><path class="cls-15" d="M140.83,125.77a0,0,0,0,1,0,0,0.36,0.36,0,0,1-.31,0,0.37,0.37,0,0,1-.16-0.27,0.1,0.1,0,0,1,.08-0.12,0.37,0.37,0,0,1,.35.13A0.38,0.38,0,0,1,140.83,125.77Z"/><path class="cls-15" d="M135.94,120.45a0,0,0,0,1,0,0,0.38,0.38,0,0,1,.2-0.25,0.35,0.35,0,0,1,.31,0,0.11,0.11,0,0,1,0,.13,0.37,0.37,0,0,1-.3.23A0.35,0.35,0,0,1,135.94,120.45Z"/><path class="cls-15" d="M136.67,121.06a0,0,0,0,1,0,0,0.39,0.39,0,0,1,0,.32,0.36,0.36,0,0,1-.22.22,0.1,0.1,0,0,1-.13-0.06,0.39,0.39,0,0,1,.06-0.38A0.35,0.35,0,0,1,136.67,121.06Z"/><path class="cls-16" d="M135.88,123.4a0,0,0,0,1,0,0,0.37,0.37,0,0,1-.15-0.55,0.1,0.1,0,0,1,.14,0,0.39,0.39,0,0,1,.17.34A0.37,0.37,0,0,1,135.88,123.4Z"/><path class="cls-15" d="M136.37,124.45a0,0,0,0,1,0,0,0.36,0.36,0,0,1-.31,0,0.37,0.37,0,0,1-.16-0.27,0.1,0.1,0,0,1,.08-0.12,0.37,0.37,0,0,1,.35.13A0.38,0.38,0,0,1,136.37,124.45Z"/><path class="cls-16" d="M137.34,124.55a0,0,0,0,1,0,0,0.36,0.36,0,0,1-.31,0,0.37,0.37,0,0,1-.16-0.27,0.1,0.1,0,0,1,.08-0.12,0.37,0.37,0,0,1,.35.13A0.38,0.38,0,0,1,137.34,124.55Z"/><path class="cls-16" d="M143,119.53a0,0,0,0,1,0,0,0.37,0.37,0,0,1,.28.14,0.38,0.38,0,0,1,.06.31,0.1,0.1,0,0,1-.12.08A0.36,0.36,0,0,1,143,119.53Z"/><path class="cls-15" d="M145.31,117.68a0,0,0,0,1,0,0,0.39,0.39,0,0,1,.11.3,0.37,0.37,0,0,1-.16.27,0.1,0.1,0,0,1-.14,0,0.4,0.4,0,0,1,0-.38A0.36,0.36,0,0,1,145.31,117.68Z"/><path class="cls-15" d="M142.73,116.52a0,0,0,0,1,0,0,0.39,0.39,0,0,1-.14.29,0.35,0.35,0,0,1-.3.07,0.1,0.1,0,0,1-.08-0.12,0.38,0.38,0,0,1,.24-0.3A0.35,0.35,0,0,1,142.73,116.52Z"/><path class="cls-16" d="M140.86,117.11a0,0,0,0,1,0,0,0.37,0.37,0,0,1,.28.14,0.38,0.38,0,0,1,.06.31,0.1,0.1,0,0,1-.12.08A0.36,0.36,0,0,1,140.86,117.11Z"/><path class="cls-15" d="M144.41,117.8a0,0,0,0,1,0,0,0.39,0.39,0,0,1,.08-0.31,0.35,0.35,0,0,1,.28-0.12,0.1,0.1,0,0,1,.1.1,0.39,0.39,0,0,1-.18.34A0.35,0.35,0,0,1,144.41,117.8Z"/><path class="cls-15" d="M142.56,117.29a0,0,0,0,1,0,0,0.37,0.37,0,0,1,.28.14,0.38,0.38,0,0,1,.06.31,0.1,0.1,0,0,1-.12.08A0.36,0.36,0,0,1,142.56,117.29Z"/><path class="cls-16" d="M146,123.56a0,0,0,0,1,0,0,0.37,0.37,0,0,1-.28.15,0.35,0.35,0,0,1-.28-0.13,0.11,0.11,0,0,1,0-.14,0.36,0.36,0,0,1,.36-0.09A0.36,0.36,0,0,1,146,123.56Z"/><path class="cls-16" d="M147.09,121.37a0,0,0,0,1,0,0,0.36,0.36,0,0,1-.3-0.1,0.38,0.38,0,0,1-.1-0.3,0.1,0.1,0,0,1,.11-0.09,0.37,0.37,0,0,1,.31.21A0.38,0.38,0,0,1,147.09,121.37Z"/><path class="cls-15" d="M146.29,119.52a0,0,0,0,1,0,0,0.39,0.39,0,0,1-.1.31,0.35,0.35,0,0,1-.29.1,0.1,0.1,0,0,1-.09-0.11,0.39,0.39,0,0,1,.2-0.32A0.35,0.35,0,0,1,146.29,119.52Z"/><path class="cls-15" d="M147.4,122.52a0,0,0,0,1,0,0,0.36,0.36,0,0,1,.31,0,0.37,0.37,0,0,1,.15.27,0.1,0.1,0,0,1-.09.11,0.37,0.37,0,0,1-.35-0.14A0.38,0.38,0,0,1,147.4,122.52Z"/><path class="cls-15" d="M146.33,121.29a0,0,0,0,1,0,0,0.39,0.39,0,0,1-.1.31,0.35,0.35,0,0,1-.29.1,0.1,0.1,0,0,1-.09-0.11,0.39,0.39,0,0,1,.2-0.32A0.35,0.35,0,0,1,146.33,121.29Z"/><path class="cls-15" d="M137.87,117.88a0,0,0,0,1,0,0,0.36,0.36,0,0,1,.3.07,0.37,0.37,0,0,1,.13.29,0.1,0.1,0,0,1-.1.1,0.37,0.37,0,0,1-.33-0.17A0.38,0.38,0,0,1,137.87,117.88Z"/><path class="cls-16" d="M137.67,118.82a0,0,0,0,1,0,0,0.37,0.37,0,0,1-.26.17,0.35,0.35,0,0,1-.29-0.11,0.11,0.11,0,0,1,0-.14,0.37,0.37,0,0,1,.35-0.12A0.36,0.36,0,0,1,137.67,118.82Z"/><path class="cls-16" d="M142.61,123.62a0,0,0,0,1,0,0,0.39,0.39,0,0,1,0-.32,0.36,0.36,0,0,1,.25-0.19,0.1,0.1,0,0,1,.12.08,0.39,0.39,0,0,1-.1.37A0.35,0.35,0,0,1,142.61,123.62Z"/><path class="cls-15" d="M144.55,125.72a0,0,0,0,1,0,0,0.38,0.38,0,0,1,.23-0.21,0.35,0.35,0,0,1,.3.06,0.11,0.11,0,0,1,0,.14,0.37,0.37,0,0,1-.33.18A0.35,0.35,0,0,1,144.55,125.72Z"/><path class="cls-15" d="M147.19,125.08a0,0,0,0,1,0,0,0.37,0.37,0,0,1-.15-0.55,0.1,0.1,0,0,1,.14,0,0.39,0.39,0,0,1,.17.34A0.37,0.37,0,0,1,147.19,125.08Z"/><path class="cls-15" d="M143.48,123.87a0,0,0,0,1,0,0,0.38,0.38,0,0,1-.19.26,0.35,0.35,0,0,1-.31,0A0.1,0.1,0,0,1,143,124a0.37,0.37,0,0,1,.29-0.24A0.35,0.35,0,0,1,143.48,123.87Z"/><path class="cls-15" d="M145,125.08a0,0,0,0,1,0,0,0.37,0.37,0,0,1-.15-0.55,0.1,0.1,0,0,1,.14,0,0.39,0.39,0,0,1,.17.34A0.37,0.37,0,0,1,145,125.08Z"/><path class="cls-16" d="M138.27,128.35a0,0,0,0,1,0,0,0.37,0.37,0,0,1-.15-0.55,0.1,0.1,0,0,1,.14,0,0.39,0.39,0,0,1,.17.34A0.37,0.37,0,0,1,138.27,128.35Z"/><path class="cls-15" d="M141.07,128.53a0,0,0,0,1,0,0,0.39,0.39,0,0,1,0-.32,0.36,0.36,0,0,1,.26-0.17,0.1,0.1,0,0,1,.11.08,0.39,0.39,0,0,1-.13.36A0.35,0.35,0,0,1,141.07,128.53Z"/><path class="cls-16" d="M142.64,127.3a0,0,0,0,1,0,0,0.36,0.36,0,0,1-.31,0,0.37,0.37,0,0,1-.16-0.27,0.1,0.1,0,0,1,.08-0.12,0.37,0.37,0,0,1,.35.13A0.38,0.38,0,0,1,142.64,127.3Z"/><path class="cls-15" d="M139.07,127.92a0,0,0,0,1,0,0,0.39,0.39,0,0,1,0,.32,0.36,0.36,0,0,1-.22.22,0.1,0.1,0,0,1-.13-0.06,0.39,0.39,0,0,1,.06-0.38A0.35,0.35,0,0,1,139.07,127.92Z"/><path class="cls-16" d="M141,127.75a0,0,0,0,1,0,0,0.36,0.36,0,0,1-.31,0,0.37,0.37,0,0,1-.16-0.27,0.1,0.1,0,0,1,.08-0.12,0.37,0.37,0,0,1,.35.13A0.38,0.38,0,0,1,141,127.75Z"/><path class="cls-15" d="M142.68,128.76a0,0,0,0,1,0,0,0.37,0.37,0,0,1-.27-0.16,0.38,0.38,0,0,1,0-.31,0.1,0.1,0,0,1,.12-0.07A0.36,0.36,0,0,1,142.68,128.76Z"/><path class="cls-15" d="M145.39,128a0,0,0,0,1,0,0,0.39,0.39,0,0,1-.07-0.31,0.37,0.37,0,0,1,.19-0.25,0.1,0.1,0,0,1,.13,0,0.4,0.4,0,0,1,0,.38A0.36,0.36,0,0,1,145.39,128Z"/><path class="cls-16" d="M146.48,126.32a0,0,0,0,1,0,0,0.35,0.35,0,0,1-.54-0.12,0.11,0.11,0,0,1,0-.14,0.36,0.36,0,0,1,.37,0A0.37,0.37,0,0,1,146.48,126.32Z"/><path class="cls-15" d="M143.3,128.09a0,0,0,0,1,0,0,0.39,0.39,0,0,1,.13.29,0.37,0.37,0,0,1-.14.28,0.1,0.1,0,0,1-.14,0,0.39,0.39,0,0,1-.07-0.38A0.36,0.36,0,0,1,143.3,128.09Z"/><path class="cls-15" d="M145,127.29a0,0,0,0,1,0,0,0.35,0.35,0,0,1-.54-0.12,0.11,0.11,0,0,1,0-.14,0.36,0.36,0,0,1,.37,0A0.37,0.37,0,0,1,145,127.29Z"/><path class="cls-17" d="M154.73,146.5l-0.63,11.25a2,2,0,0,1-2,1.86H131.85a1.6,1.6,0,0,1-1.6-1.5l-0.73-11.61A20.93,20.93,0,0,0,154.73,146.5Z"/><path class="cls-18" d="M154.73,146.5l-0.52,11.29a1.91,1.91,0,0,1-1.9,1.82h-2.94a0.81,0.81,0,0,0,.49-0.51c0-.34-1.11-0.5-4.49-0.54v-8.12A21.23,21.23,0,0,0,154.73,146.5Z"/><path class="cls-17" d="M150.48,149l0.63-.28c0.3-.14.57-0.28,0.83-0.42v11.33h-1.46V149Z"/><path class="cls-19" d="M138,143.4a0.18,0.18,0,0,0,0-.08l-5.53-100-0.7,0h-0.13l-1,0-3,.18,0.22,4.07,5.3,95.94a0.84,0.84,0,0,0,.88.79l2.22-.12,1,0a0.85,0.85,0,0,0,.79-0.8h0Z"/><path class="cls-20" d="M128.31,55l0.4,7.18a34.93,34.93,0,0,0,3.14-3.33c0.52-.63,1-1.25,1.43-1.85l-0.42-7.46c-0.61.86-1.29,1.76-2.05,2.69S129.12,54.14,128.31,55Z"/><path class="cls-20" d="M129.13,69.87l0.4,7.18a34.93,34.93,0,0,0,3.14-3.33c0.52-.63,1-1.25,1.43-1.85l-0.42-7.46c-0.61.86-1.29,1.76-2.05,2.69S129.94,69,129.13,69.87Z"/><path class="cls-20" d="M131.82,43.35l-0.12.16c-0.21.27-.43,0.54-0.66,0.82l-0.25.3a35.81,35.81,0,0,1-2.89,3l-0.22-4.07,3-.18,1,0h0.13Z"/><path class="cls-20" d="M130.85,100.94l0.4,7.18a34.93,34.93,0,0,0,3.14-3.33c0.52-.63,1-1.25,1.43-1.85l-0.42-7.46c-0.61.86-1.29,1.76-2.05,2.69S131.66,100.12,130.85,100.94Z"/><path class="cls-21" d="M150.28,128a0.88,0.88,0,0,0-.32.8,4.21,4.21,0,0,0-.83-1.4c-0.54-.61-1.4-1.23-1.63-1.07s-0.11.25,0.13,0.8a6.26,6.26,0,0,0-1.18-.83c-0.18-.09-1.52-0.81-1.8-0.52-0.08.08-.1,0.24,0.11,0.65-1.75-.95-3.19-1.31-3.57-0.88a1.75,1.75,0,0,0,.12,1.39,2.84,2.84,0,0,0,.71,1c-1-.42-1.24-0.23-1.31-0.18-0.39.34,0.21,1.52,0.65,2.14a4.92,4.92,0,0,0,.79.87,1.21,1.21,0,0,0-1,.12c-0.37.37,0.06,1.19,0.28,1.6a4.26,4.26,0,0,0,1,1.25,0.88,0.88,0,0,0-.93,0c-0.32.37,0.59,1.49,0.8,1.73a6.28,6.28,0,0,0,1.4,1.26c-0.81-.17-1,0-1,0.05-0.18.29,0.56,1,1.09,1.44a4.86,4.86,0,0,0,1.91.87,0.92,0.92,0,0,0-.68.57c0,0.4,1.13.78,2,.83a3.69,3.69,0,0,0,2.09-.54l0.3-.2,0.23,0.11a1.83,1.83,0,0,0,.48.13c1.83,0.23,3.63-2.61,3.23-3a0.66,0.66,0,0,0-.62,0,4.46,4.46,0,0,0,.92-1.91c0.13-.65.16-1.59-0.11-1.67a0.84,0.84,0,0,0-.57.49,5.12,5.12,0,0,0,.12-1.22c0-.74-0.22-2-0.63-2a0.64,0.64,0,0,0-.55.43,3.79,3.79,0,0,0-.44-2C151.17,128.73,150.63,127.94,150.28,128Z"/><path class="cls-22" d="M150.58,138.43a5.19,5.19,0,0,0,1.88-3.05c0.5-2.91-2.1-5.3-2.86-6a11.07,11.07,0,0,0-5.17-2.61c1,0.68,6.34,4.36,6.43,9.48A7.51,7.51,0,0,1,150.58,138.43Z"/><path class="cls-23" d="M149.12,139.27a5.8,5.8,0,0,0,.58-1.78c0.76-4.9-5.16-9.34-5.9-9.88,0,1.23-.25,9,4.27,11.26A5.66,5.66,0,0,0,149.12,139.27Z"/><path class="cls-24" d="M148.61,128.76a0,0,0,0,0-.08,0,4.59,4.59,0,0,1,.4,1.94,4.23,4.23,0,0,1-.11.87,0,0,0,0,1-.08,0,13.49,13.49,0,0,0-2.12-2.67,14.73,14.73,0,0,0-4.72-3.08,0,0,0,1,0,0,.07,20,20,0,0,1,3.27,2.27,19.26,19.26,0,0,1,2.44,2.5,0,0,0,0,1-.06.06,10.13,10.13,0,0,0-3.42-1.33,0,0,0,1,0,0,.08,12.49,12.49,0,0,1,1.42.55,8,8,0,0,1,3.07,2.09,5.82,5.82,0,0,1,1.23,2.58,0,0,0,0,1-.07,0,7.46,7.46,0,0,0-1.59-1.17,7.57,7.57,0,0,0-2.32-.81,0,0,0,1,0,0,.08,11.47,11.47,0,0,1,2.34,1.09,11.31,11.31,0,0,1,1.7,1.27v0a6.6,6.6,0,0,1,.22,1.21,5.92,5.92,0,0,1,0,.93,0,0,0,0,1-.07,0,4.53,4.53,0,0,0-.86-0.72,4.65,4.65,0,0,0-1.63-.65,0,0,0,1,0,0,.08,6.65,6.65,0,0,1,1.59.84,6.49,6.49,0,0,1,.93.82,0,0,0,0,1,0,0,4.77,4.77,0,0,1-.93,2.18l0,0,0.3-.2,0.23,0.11a5,5,0,0,0,.89-2.56,0,0,0,0,1,0,0,3.11,3.11,0,0,0,.69-0.57,3,3,0,0,0,.76-1.72,3.59,3.59,0,0,1-.73,1.32,3.67,3.67,0,0,1-.67.6,0,0,0,0,1-.07,0c0-.24,0-0.49,0-0.76a8.94,8.94,0,0,0-.18-1.07,0,0,0,0,1,0,0,4.34,4.34,0,0,0,.63-1.79,4.51,4.51,0,0,0-.08-1.54c0-.05-0.09,0-0.09,0a5.28,5.28,0,0,1-.53,2.73,0,0,0,0,1-.08,0,6.69,6.69,0,0,0-.35-1,6.83,6.83,0,0,0-.64-1.18,0,0,0,0,1,0,0,4.29,4.29,0,0,0,.06-2A4.64,4.64,0,0,0,148.61,128.76Z"/><path class="cls-20" d="M131.75,117.1l0.4,7.18a34.93,34.93,0,0,0,3.14-3.33c0.52-.63,1-1.25,1.43-1.85l-0.42-7.46c-0.61.86-1.29,1.76-2.05,2.69S132.55,116.28,131.75,117.1Z"/><path class="cls-20" d="M130,85.2l0.4,7.18A34.93,34.93,0,0,0,133.52,89c0.52-.63,1-1.25,1.43-1.85l-0.42-7.46c-0.61.86-1.29,1.76-2.05,2.69S130.79,84.37,130,85.2Z"/><path class="cls-20" d="M132.57,132l0.4,7.18a34.93,34.93,0,0,0,3.14-3.33c0.52-.63,1-1.25,1.43-1.85l-0.42-7.46c-0.61.86-1.29,1.76-2.05,2.69S133.38,131.19,132.57,132Z"/><path class="cls-25" d="M137.27,144.2l-1,.06-5.5-99.64-0.07-1.22,1,0V43.5Z"/><path class="cls-26" d="M139.36,143.33a1.4,1.4,0,0,1-.08.54c-0.46,1.28-2.94,1.5-3.07,1.1a0.47,0.47,0,0,1,.23-0.4,3.24,3.24,0,0,1-1.56,0,1.6,1.6,0,0,1-1.06-.64,0.62,0.62,0,0,1,.51-0.2,3.72,3.72,0,0,1-.84-0.34c-0.48-.26-1.21-0.8-1.12-1.1a0.47,0.47,0,0,1,.47-0.22,2.8,2.8,0,0,1-1.15-1,1.5,1.5,0,0,1-.38-1.13,0.64,0.64,0,0,1,.63.06,3.15,3.15,0,0,1-.64-1,2,2,0,0,1-.16-1.43c0.07,0,.2,0,0.48.35a4.76,4.76,0,0,1-.15-1.06c0-.15,0-1.27.27-1.36,0.08,0,.19,0,0.39.29,0-1.46.21-2.54,0.63-2.64a1.3,1.3,0,0,1,.87.55,2.07,2.07,0,0,1,.4.8,0.93,0.93,0,0,1,.32-0.92c0.35-.14.92,0.65,1.19,1.15a3.65,3.65,0,0,1,.3.81,0.9,0.9,0,0,1,.42-0.64,1.22,1.22,0,0,1,1,.73,3.13,3.13,0,0,1,.48,1.09,0.66,0.66,0,0,1,.34-0.59c0.35-.08.78,0.89,0.87,1.11a4.7,4.7,0,0,1,.36,1.35c0.16-.59.31-0.66,0.38-0.67a1.61,1.61,0,0,1,.58,1.2,3.66,3.66,0,0,1-.07,1.55,0.66,0.66,0,0,1,.6-0.25,1.79,1.79,0,0,1-.13,1.59A2.79,2.79,0,0,1,139.36,143.33Z"/><path class="cls-27" d="M138.05,143.67a3.82,3.82,0,0,1-2.64.2c-2.08-.66-2.77-3.17-3-3.91a8.18,8.18,0,0,1,0-4.27c0.1,0.89.73,5.64,4.06,7.43A5.55,5.55,0,0,0,138.05,143.67Z"/><path class="cls-28" d="M139.1,143a4.28,4.28,0,0,1-1.36-.22c-3.47-1.16-4.4-6.55-4.51-7.22,0.82,0.38,6,2.87,6,6.61A4.18,4.18,0,0,1,139.1,143Z"/><path class="cls-24" d="M141.49,142.52a0,0,0,0,1,0,0,4.06,4.06,0,0,1-2.06,1,3.73,3.73,0,0,1-2-.28h0a2.28,2.28,0,0,1-.61.27,2.23,2.23,0,0,1-1.38-.08,2.66,2.66,0,0,0,1.11,0,2.78,2.78,0,0,0,.62-0.23,0,0,0,0,0,0-.06c-0.15-.08-0.31-0.18-0.48-0.29a6.23,6.23,0,0,1-.64-0.48h0a3.24,3.24,0,0,1-1.39-.19,3.38,3.38,0,0,1-1-.57s0-.07,0-0.05a4.06,4.06,0,0,0,1.06.45,4,4,0,0,0,.91.13,0,0,0,0,0,0-.06,5,5,0,0,1-.56-0.58,5.23,5.23,0,0,1-.56-0.82h0a3.13,3.13,0,0,1-1.35-.64,3.47,3.47,0,0,1-.76-0.87s0-.07,0,0a3.41,3.41,0,0,0,1.14.92,3.09,3.09,0,0,0,.61.22,0,0,0,0,0,0,0,10,10,0,0,1-1-2.29,10.94,10.94,0,0,1-.43-4.14,0,0,0,1,1,.06,0,14.76,14.76,0,0,0,.39,2.91,14.16,14.16,0,0,0,.82,2.45,0,0,0,0,0,.06,0,7.56,7.56,0,0,1,.27-2.7,0,0,0,1,1,.06,0,9,9,0,0,0-.12,1.11,6,6,0,0,0,.34,2.72,4.28,4.28,0,0,0,1.28,1.68,0,0,0,0,0,0,0,5.43,5.43,0,0,1-.23-1.44,5.6,5.6,0,0,1,.25-1.8,0,0,0,1,1,.06,0,8.56,8.56,0,0,0-.07,1.9,8.33,8.33,0,0,0,.26,1.55v0a4.65,4.65,0,0,0,.72.55,4.47,4.47,0,0,0,.61.32,0,0,0,0,0,0,0,3.29,3.29,0,0,1-.18-0.81,3.47,3.47,0,0,1,.12-1.29,0,0,0,1,1,.06,0,4.89,4.89,0,0,0,0,1.32,4.68,4.68,0,0,0,.23.89l0,0a3.48,3.48,0,0,0,1.75.13,3.83,3.83,0,0,0,1.88-1,0,0,0,0,1,0,0v0.25Z"/><path class="cls-21" d="M150.07,141.83a0.8,0.8,0,0,0-.78-0.12,3.84,3.84,0,0,0,1.08-1c0.44-.6.82-1.49,0.63-1.67s-0.24,0-.68.27a5.72,5.72,0,0,0,.5-1.22c0-.18.42-1.52,0.1-1.71-0.08-.05-0.24,0-0.56.23,0.5-1.75.54-3.11,0.07-3.36a1.6,1.6,0,0,0-1.21.38,2.6,2.6,0,0,0-.74.83c0.19-.94,0-1.15-0.1-1.2-0.38-.28-1.31.49-1.78,1a4.5,4.5,0,0,0-.62.88,1.11,1.11,0,0,0-.31-0.9c-0.4-.26-1,0.29-1.38.57a3.9,3.9,0,0,0-.91,1.16,0.8,0.8,0,0,0-.22-0.82c-0.39-.21-1.21.82-1.39,1.06a5.74,5.74,0,0,0-.85,1.5c0-.75-0.16-0.89-0.25-0.92-0.3-.11-0.82.71-1.06,1.25a4.44,4.44,0,0,0-.4,1.88,0.84,0.84,0,0,0-.64-0.49c-0.35.1-.47,1.16-0.34,1.94a3.37,3.37,0,0,0,.9,1.76l0.23,0.23c0,0.06,0,.14-0.06.22a1.67,1.67,0,0,0,0,.45c0.16,1.68,3.05,2.72,3.34,2.28a0.6,0.6,0,0,0-.15-0.55,4.08,4.08,0,0,0,1.88.44c0.6,0,1.45-.18,1.47-0.43a0.77,0.77,0,0,0-.55-0.41,4.68,4.68,0,0,0,1.11-.14c0.66-.17,1.7-0.58,1.68-1a0.59,0.59,0,0,0-.5-0.41,3.46,3.46,0,0,0,1.67-.78A1.85,1.85,0,0,0,150.07,141.83Z"/><path class="cls-29" d="M140.84,144.17a4.74,4.74,0,0,0,3.1,1.07c2.69-.14,4.31-2.92,4.78-3.74a10.11,10.11,0,0,0,1.3-5.13c-0.4,1-2.63,6.52-7.18,7.62A6.86,6.86,0,0,1,140.84,144.17Z"/><path class="cls-30" d="M139.8,143a5.3,5.3,0,0,0,1.7.17c4.52-.3,7.31-6.46,7.64-7.23-1.11.2-8,1.56-9.19,6.05A5.17,5.17,0,0,0,139.8,143Z"/><path class="cls-24" d="M149.08,140.49a0,0,0,0,0,0-.07,4.19,4.19,0,0,1-1.65.74,3.87,3.87,0,0,1-.79.07,0,0,0,0,1,0-.07,12.33,12.33,0,0,0,2-2.42,13.46,13.46,0,0,0,1.81-4.83,0,0,0,1,0-.07,0,18.3,18.3,0,0,1-1.37,3.37,17.6,17.6,0,0,1-1.74,2.68,0,0,0,0,1-.06,0,9.26,9.26,0,0,0,.51-3.32,0,0,0,1,0-.07,0,11.41,11.41,0,0,1-.2,1.37,7.35,7.35,0,0,1-1.26,3.15,5.32,5.32,0,0,1-2.06,1.61,0,0,0,0,1,0-.06,6.82,6.82,0,0,0,.73-1.65,6.92,6.92,0,0,0,.26-2.23,0,0,0,1,0-.07,0,10.48,10.48,0,0,1-.51,2.3,10.34,10.34,0,0,1-.79,1.77v0a6,6,0,0,1-1,.44,5.41,5.41,0,0,1-.83.19,0,0,0,0,1,0-.06,4.14,4.14,0,0,0,.47-0.91,4.25,4.25,0,0,0,.25-1.58,0,0,0,1,0-.07,0,6.08,6.08,0,0,1-.43,1.58,5.93,5.93,0,0,1-.55,1l0,0a4.36,4.36,0,0,1-2.13-.4l0,0,0.23,0.23c0,0.06,0,.14-0.06.22a4.58,4.58,0,0,0,2.46.28h0a2.84,2.84,0,0,0,.65.51,2.76,2.76,0,0,0,1.68.34,3.28,3.28,0,0,1-1.33-.39,3.35,3.35,0,0,1-.67-0.47,0,0,0,0,1,0-.07c0.21,0,.43-0.11.67-0.19a8.17,8.17,0,0,0,.92-0.37h0a4,4,0,0,0,1.72.21,4.12,4.12,0,0,0,1.36-.38s0-.09,0-0.08a4.82,4.82,0,0,1-2.54.07,0,0,0,0,1,0-.07,6.12,6.12,0,0,0,.86-0.52,6.24,6.24,0,0,0,.92-0.8h0a3.92,3.92,0,0,0,1.81-.35A4.24,4.24,0,0,0,149.08,140.49Z"/><path class="cls-31" d="M132.52,43.31l-0.7,0h-0.13l-1,0-3,.18-0.17-3.11-0.41-7.31q-0.17-3.28-.36-6.56a0.83,0.83,0,0,1,.71-0.88c0.51-.07,1-0.12,1.62-0.16s1.12,0,1.64,0h0.08a0.82,0.82,0,0,1,.8.79l0.07,1.33Z"/><path class="cls-32" d="M131.59,26.32l0.07,1.33c-0.45.69-1,1.41-1.53,2.14a31.53,31.53,0,0,1-3,3.37l-0.36-6.56a0.83,0.83,0,0,1,.71-0.88c0.5-.07,1-0.12,1.61-0.16s1.18,0,1.72,0A0.83,0.83,0,0,1,131.59,26.32Z"/><path class="cls-32" d="M132.47,42.47c-0.21.29-.42,0.58-0.65,0.88h-0.13l-1,0-3,.18-0.17-3.11c0.81-.82,1.65-1.75,2.49-2.77l0.38-.47c0.32-.39.62-0.78,0.91-1.16L132.06,35Z"/><path class="cls-25" d="M131.69,43.35l-1,0-0.34-6.17L130,30h0l-0.24-4.44h1l0.18,3.25h0l0.41,7.29Z"/><path class="cls-33" d="M154.27,155.76c0,0.58-.06,1.16-0.08,1.74a2,2,0,0,1-1.82,2.08l-3,0a0.81,0.81,0,0,0,.49-0.51c0-.34-1.11-0.5-4.49-0.54l-2.83,0c-6.26,0-7.87.15-7.91,0.59a0.73,0.73,0,0,0,.43.48h-3.2a1.74,1.74,0,0,1-1.58-1.77l-0.12-2.1A57.57,57.57,0,0,0,142.49,157c1,0,1.94,0,2.88-.09A57.91,57.91,0,0,0,154.27,155.76Z"/><ellipse class="cls-34" cx="151.49" cy="127.26" rx="1.64" ry="1.6" transform="translate(-46.09 117.04) rotate(-37.07)"/><ellipse class="cls-35" cx="150.09" cy="141.32" rx="1.3" ry="1.27" transform="translate(-33.4 235.3) rotate(-70.4)"/><ellipse class="cls-36" cx="147.64" cy="135.45" rx="1.7" ry="1.67" transform="matrix(0.34, -0.94, 0.94, 0.34, -29.5, 229.08)"/><ellipse class="cls-37" cx="152.5" cy="126.25" rx="0.86" ry="0.84" transform="translate(-45.28 117.44) rotate(-37.07)"/><ellipse class="cls-38" cx="146.33" cy="136.34" rx="0.9" ry="0.88" transform="translate(-31.21 228.44) rotate(-70.4)"/><rect class="cls-39" x="140.26" y="54.71" width="12.85" height="12.33" rx="3.56" ry="3.56" transform="translate(34.54 -51.58) rotate(22.54)"/><rect class="cls-40" x="140.09" y="55.55" width="11.7" height="11.22" rx="3.31" ry="3.31" transform="translate(34.59 -51.27) rotate(22.54)"/><path class="cls-41" d="M142.14,55.05a1.39,1.39,0,0,1,1.87-.77l8.17,3.39a1.57,1.57,0,0,1,.84,1,1.45,1.45,0,0,1-.07.84l-3.21,7.73A1.42,1.42,0,0,1,149,68a1.44,1.44,0,0,1-1.16,0,1.51,1.51,0,0,0,1.09-.41A1.4,1.4,0,0,0,149.3,67l3.17-7.64a1.35,1.35,0,0,0-.53-1.35l-8-3.36a1.39,1.39,0,0,0-.74-0.2A1.49,1.49,0,0,0,142.14,55.05Z"/><rect class="cls-42" x="143.69" y="65.25" width="12.97" height="12.44" rx="3.56" ry="3.56" transform="translate(-15.72 83.29) rotate(-29.53)"/><rect class="cls-43" x="144.04" y="66.58" width="11.8" height="11.33" rx="3.31" ry="3.31" transform="translate(-16.13 83.28) rotate(-29.53)"/><path class="cls-41" d="M142.73,71.48a1.4,1.4,0,0,1,.54-2l7.76-4.4a1.58,1.58,0,0,1,1.34,0,1.47,1.47,0,0,1,.62.58L157.16,73a1.44,1.44,0,0,1,.17,1,1.46,1.46,0,0,1-.71.93,1.52,1.52,0,0,0,.34-1.12,1.42,1.42,0,0,0-.25-0.64l-4.11-7.27a1.36,1.36,0,0,0-1.41-.42l-7.62,4.26a1.4,1.4,0,0,0-.62.47A1.5,1.5,0,0,0,142.73,71.48Z"/><rect class="cls-39" x="143" y="92.64" width="12.35" height="11.85" rx="3.56" ry="3.56" transform="translate(49.18 -49.66) rotate(22.54)"/><rect class="cls-44" x="142.84" y="93.45" width="11.24" height="10.79" rx="3.31" ry="3.31" transform="translate(49.23 -49.36) rotate(22.54)"/><path class="cls-41" d="M144.81,93a1.33,1.33,0,0,1,1.79-.74l7.85,3.26a1.51,1.51,0,0,1,.81,1,1.4,1.4,0,0,1-.07.81l-3.08,7.43a1.37,1.37,0,0,1-.68.73,1.39,1.39,0,0,1-1.11,0,1.45,1.45,0,0,0,1-.4,1.35,1.35,0,0,0,.33-0.56l3-7.35a1.29,1.29,0,0,0-.51-1.3l-7.67-3.23a1.33,1.33,0,0,0-.71-0.19A1.43,1.43,0,0,0,144.81,93Z"/><path class="cls-21" d="M142.71,76.6a0.8,0.8,0,0,0-.74.26,3.84,3.84,0,0,0,.46-1.42c0.09-.74,0-1.7-0.24-1.77-0.09,0-.24.07-0.47,0.57a5.72,5.72,0,0,0-.14-1.31c0-.18-0.36-1.54-0.73-1.55-0.1,0-.23.08-0.38,0.47-0.4-1.77-1-3-1.54-3a1.6,1.6,0,0,0-.88.92,2.6,2.6,0,0,0-.25,1.08c-0.29-.92-0.59-1-0.66-1-0.47-.07-0.92,1.06-1.08,1.74a4.5,4.5,0,0,0-.12,1.07,1.11,1.11,0,0,0-.7-0.64c-0.48,0-.78.76-0.93,1.16a3.9,3.9,0,0,0-.25,1.45,0.8,0.8,0,0,0-.59-0.61c-0.45,0-.67,1.3-0.71,1.59a5.74,5.74,0,0,0,0,1.72c-0.37-.66-0.57-0.7-0.66-0.68-0.31.05-.38,1-0.33,1.61a4.44,4.44,0,0,0,.55,1.84,0.84,0.84,0,0,0-.8-0.13c-0.26.26,0.14,1.24,0.63,1.87A3.37,3.37,0,0,0,133.73,83L134,83.05c0,0.06,0,.14.06,0.22a1.67,1.67,0,0,0,.2.4c0.94,1.4,4,.93,4,0.41a0.6,0.6,0,0,0-.39-0.41,4.08,4.08,0,0,0,1.86-.52c0.52-.3,1.19-0.85,1.09-1.08a0.77,0.77,0,0,0-.68-0.09,4.68,4.68,0,0,0,.91-0.65c0.5-.46,1.21-1.33,1-1.65a0.59,0.59,0,0,0-.63-0.12,3.46,3.46,0,0,0,1.09-1.49A1.85,1.85,0,0,0,142.71,76.6Z"/><path class="cls-45" d="M135.73,83.07a4.74,4.74,0,0,0,3.23-.54c2.3-1.41,2.38-4.63,2.41-5.58a10.11,10.11,0,0,0-1.32-5.12c0.14,1.1.81,7-2.65,10.13A6.86,6.86,0,0,1,135.73,83.07Z"/><path class="cls-46" d="M134.27,82.57a5.3,5.3,0,0,0,1.57-.67c3.83-2.42,3.32-9.17,3.25-10-0.87.71-6.32,5.22-5.17,9.71A5.17,5.17,0,0,0,134.27,82.57Z"/><path class="cls-24" d="M141.2,75.9a0,0,0,0,0-.07,0A4.19,4.19,0,0,1,140,77.31a3.87,3.87,0,0,1-.66.45,0,0,0,0,1-.05,0,12.33,12.33,0,0,0,.56-3.06,13.46,13.46,0,0,0-.73-5.1,0,0,0,1,0-.07,0,18.3,18.3,0,0,1,.41,3.61,17.6,17.6,0,0,1-.25,3.18,0,0,0,0,1-.07,0A9.26,9.26,0,0,0,138,73.2a0,0,0,1,0-.06,0,11.41,11.41,0,0,1,.48,1.3,7.35,7.35,0,0,1,.41,3.37,5.32,5.32,0,0,1-1,2.4,0,0,0,0,1-.07,0,6.82,6.82,0,0,0-.15-1.8,6.92,6.92,0,0,0-.84-2.08,0,0,0,1,0-.06,0,10.48,10.48,0,0,1,.66,2.26,10.34,10.34,0,0,1,.15,1.94v0a6,6,0,0,1-.7.88,5.41,5.41,0,0,1-.64.56,0,0,0,0,1-.06,0,4.14,4.14,0,0,0,0-1,4.25,4.25,0,0,0-.53-1.51,0,0,0,1,0-.06,0,6.08,6.08,0,0,1,.38,1.59,5.93,5.93,0,0,1,0,1.13,0,0,0,0,1,0,0,4.36,4.36,0,0,1-2.06.67h0L134,83.05c0,0.06,0,.14.06,0.22a4.58,4.58,0,0,0,2.29-.93h0a2.84,2.84,0,0,0,.81.13,2.76,2.76,0,0,0,1.64-.51,3.28,3.28,0,0,1-1.35.29,3.35,3.35,0,0,1-.81-0.1,0,0,0,0,1,0-.07c0.16-.14.33-0.31,0.5-0.49a8.17,8.17,0,0,0,.63-0.77l0,0a4,4,0,0,0,1.61-.64,4.12,4.12,0,0,0,1-1s0-.09-0.05-0.06a4.82,4.82,0,0,1-2.19,1.28,0,0,0,0,1,0-.06,6.12,6.12,0,0,0,.5-0.86,6.24,6.24,0,0,0,.43-1.15l0,0a3.92,3.92,0,0,0,1.43-1.17A4.24,4.24,0,0,0,141.2,75.9Z"/><ellipse class="cls-47" cx="153.18" cy="121.04" rx="1.14" ry="1.11" transform="translate(-12.24 224.73) rotate(-70.4)"/><path class="cls-26" d="M142.66,101.7a2.93,2.93,0,0,1-1.11,1.3l-0.24.15c0,0.06,0,.12,0,0.2a1.9,1.9,0,0,1-.08.39c-0.49,1.4-3.08,1.65-3.22,1.22a0.53,0.53,0,0,1,.24-0.43,3.25,3.25,0,0,1-1.63,0,3.86,3.86,0,0,1-.73-0.31l0-.58,0.19,0-0.2-.06,0-.59-0.07-1.33v-0.17l-0.08-1.37h0l0-.35,0-.56,0-1-0.06-1-0.12-2.19-0.13-2.4,0.14,0.16a2.35,2.35,0,0,1,.42.87,1.06,1.06,0,0,1,.34-1c0.37-.16,1,0.7,1.23,1.25a4.08,4.08,0,0,1,.31.89,1,1,0,0,1,.45-0.7c0.38-.13.79,0.48,1,0.79a3.38,3.38,0,0,1,.49,1.19,0.71,0.71,0,0,1,.36-0.64c0.37-.09.81,1,0.91,1.21a5.49,5.49,0,0,1,.36,1.47c0.17-.64.33-0.73,0.41-0.73,0.27,0,.51.79,0.6,1.31a4.17,4.17,0,0,1-.08,1.69,0.69,0.69,0,0,1,.63-0.28C143.07,100.14,142.94,101.07,142.66,101.7Z"/><path class="cls-48" d="M135.75,101.59l0.07,1.33a3.39,3.39,0,0,0,1.37.85,3.86,3.86,0,0,0,2.75-.23,5.08,5.08,0,0,1-1-.32h0l-0.26-.11-0.32-.17a5.82,5.82,0,0,1-1.18-.87l-0.29-.29a8,8,0,0,1-1.22-1.72l0.08,1.37v0.17Z"/><path class="cls-49" d="M141.13,101.89a4.68,4.68,0,0,1-.09.9,4.35,4.35,0,0,1-1.42-.23h0l-0.23-.09a4.62,4.62,0,0,1-1.42-.94,3.73,3.73,0,0,1-.3-0.29,9,9,0,0,1-1.59-2.59c-0.11-.24-0.21-0.49-0.29-0.73s-0.18-.53-0.26-0.78l-0.12-2.19C136.91,95.73,141.17,98.26,141.13,101.89Z"/><path class="cls-24" d="M143.54,102v0.27a0,0,0,0,1,0,0,4.21,4.21,0,0,1-2.16,1.07h-0.06a3.71,3.71,0,0,1-2.06-.29h0a1.91,1.91,0,0,1-.28.16h0a1.78,1.78,0,0,1-.34.14,2.23,2.23,0,0,1-1.44-.08,2.7,2.7,0,0,0,1.16,0,2.18,2.18,0,0,0,.37-0.13A2.26,2.26,0,0,0,139,103a0,0,0,0,0,0-.06,5.14,5.14,0,0,1-.5-0.31,6.49,6.49,0,0,1-.67-0.52h0a3.38,3.38,0,0,1-1.44-.2,3.66,3.66,0,0,1-.57-0.28v-0.17a4.14,4.14,0,0,0,.69.26l0.45,0.09a4.46,4.46,0,0,0,.51,0,0,0,0,0,0,0-.07,5.42,5.42,0,0,1-.59-0.62,5.69,5.69,0,0,1-.58-0.89h0a3.75,3.75,0,0,1-.56-0.17h0l0-.35,0.25,0.08a0,0,0,0,0,0,0q-0.16-.27-0.32-0.58l0-1c0,0.14.11,0.28,0.16,0.41s0.06,0,.06,0c0-.19,0-0.41,0-0.64a8.57,8.57,0,0,1,.08-1.13,7.46,7.46,0,0,1,.24-1.17,0,0,0,1,1,.06,0,10.7,10.7,0,0,0-.13,1.21,9.12,9.12,0,0,0,0,1.81,4.9,4.9,0,0,0,.3,1.16,4.61,4.61,0,0,0,1.33,1.82s0.06,0,0,0-0.06-.23-0.09-0.36a6.52,6.52,0,0,1-.14-1.21,6.41,6.41,0,0,1,.27-2,0,0,0,1,1,.06,0,9.67,9.67,0,0,0-.09,2.08,8.33,8.33,0,0,0,.2,1.38c0,0.11,0,.21.07,0.31v0a4.65,4.65,0,0,0,.74.6,5.25,5.25,0,0,0,.63.34s0,0,0,0a2.69,2.69,0,0,1-.08-0.27,3.37,3.37,0,0,1-.11-0.61,4.06,4.06,0,0,1,.13-1.41s0.07,0,.06,0a5.73,5.73,0,0,0,0,1.44,4.78,4.78,0,0,0,.13.65l0.1,0.32a0,0,0,0,0,0,0,3.48,3.48,0,0,0,1.82.12h0a4,4,0,0,0,1.93-1A0,0,0,0,1,143.54,102Z"/><path class="cls-50" d="M136.17,101.59v-0.17m0.12,2.09v0.09l0,0.58"/><path class="cls-41" d="M136.69,54.66l-0.12-.08h0a1.54,1.54,0,0,0-1.07-.24,1.47,1.47,0,0,0-.66.29l-1.64,1,0-.58h0l1.44-.89a1.53,1.53,0,0,1,1.08-.21,1.5,1.5,0,0,1,1,.66Z"/><ellipse class="cls-13" cx="146.02" cy="85.84" rx="6.85" ry="7.07"/><path class="cls-14" d="M150,80.13a7.34,7.34,0,0,1,2,9.31A6.85,6.85,0,0,1,142.61,92a9.07,9.07,0,0,0,6.81-4.47A9.51,9.51,0,0,0,150,80.13Z"/><path class="cls-15" d="M144.34,80.87a0,0,0,0,1,0,0,0.36,0.36,0,0,1-.31,0,0.37,0.37,0,0,1-.16-0.27,0.1,0.1,0,0,1,.08-0.12,0.37,0.37,0,0,1,.35.13A0.38,0.38,0,0,1,144.34,80.87Z"/><path class="cls-15" d="M142.81,83.41a0,0,0,0,1,0,0,0.37,0.37,0,0,1-.15-0.55,0.1,0.1,0,0,1,.14,0,0.39,0.39,0,0,1,.17.34A0.37,0.37,0,0,1,142.81,83.41Z"/><path class="cls-15" d="M145.61,83.59a0,0,0,0,1,0,0,0.39,0.39,0,0,1,0-.32,0.36,0.36,0,0,1,.26-0.17,0.1,0.1,0,0,1,.11.08,0.39,0.39,0,0,1-.13.36A0.35,0.35,0,0,1,145.61,83.59Z"/><path class="cls-15" d="M148.41,85a0,0,0,0,1,0,0,0.39,0.39,0,0,1-.06-0.32,0.37,0.37,0,0,1,.2-0.24,0.1,0.1,0,0,1,.13,0,0.4,0.4,0,0,1,0,.38A0.35,0.35,0,0,1,148.41,85Z"/><path class="cls-16" d="M149.09,82.48a0,0,0,0,1,0,0,0.39,0.39,0,0,1,0-.32,0.36,0.36,0,0,1,.24-0.2,0.1,0.1,0,0,1,.12.07,0.39,0.39,0,0,1-.09.37A0.35,0.35,0,0,1,149.09,82.48Z"/><path class="cls-15" d="M147.17,82.36a0,0,0,0,1,0,0,0.36,0.36,0,0,1-.31,0,0.37,0.37,0,0,1-.16-0.27,0.1,0.1,0,0,1,.08-0.12,0.37,0.37,0,0,1,.35.13A0.38,0.38,0,0,1,147.17,82.36Z"/><path class="cls-16" d="M143.61,83a0,0,0,0,1,0,0,0.39,0.39,0,0,1,0,.32,0.36,0.36,0,0,1-.22.22,0.1,0.1,0,0,1-.13-0.06,0.39,0.39,0,0,1,.06-0.38A0.35,0.35,0,0,1,143.61,83Z"/><path class="cls-15" d="M145.76,85.78a0,0,0,0,1,0,0,0.36,0.36,0,0,1-.31,0,0.37,0.37,0,0,1-.16-0.27,0.1,0.1,0,0,1,.08-0.12,0.37,0.37,0,0,1,.35.13A0.38,0.38,0,0,1,145.76,85.78Z"/><path class="cls-16" d="M145.51,82.8a0,0,0,0,1,0,0,0.36,0.36,0,0,1-.31,0,0.37,0.37,0,0,1-.16-0.27,0.1,0.1,0,0,1,.08-0.12,0.37,0.37,0,0,1,.35.13A0.38,0.38,0,0,1,145.51,82.8Z"/><path class="cls-15" d="M143.6,85.77a0,0,0,0,1,0,0,0.37,0.37,0,0,1-.15-0.55,0.1,0.1,0,0,1,.14,0,0.39,0.39,0,0,1,.17.34A0.37,0.37,0,0,1,143.6,85.77Z"/><path class="cls-15" d="M143.12,86.82a0,0,0,0,1,0,0,0.36,0.36,0,0,1-.31,0,0.37,0.37,0,0,1-.16-0.27,0.1,0.1,0,0,1,.08-0.12,0.37,0.37,0,0,1,.35.13A0.38,0.38,0,0,1,143.12,86.82Z"/><path class="cls-16" d="M144.08,86.93a0,0,0,0,1,0,0,0.36,0.36,0,0,1-.31,0,0.37,0.37,0,0,1-.16-0.27,0.1,0.1,0,0,1,.08-0.12,0.37,0.37,0,0,1,.35.13A0.38,0.38,0,0,1,144.08,86.93Z"/><path class="cls-15" d="M141.6,89.68a0,0,0,0,1,0,0,0.37,0.37,0,0,1-.15-0.55,0.1,0.1,0,0,1,.14,0,0.39,0.39,0,0,1,.17.34A0.37,0.37,0,0,1,141.6,89.68Z"/><path class="cls-15" d="M145.36,89.65a0,0,0,0,1,0,0,0.39,0.39,0,0,1,0-.32,0.36,0.36,0,0,1,.26-0.17,0.1,0.1,0,0,1,.11.08,0.39,0.39,0,0,1-.13.36A0.35,0.35,0,0,1,145.36,89.65Z"/><path class="cls-15" d="M146.92,88.42a0,0,0,0,1,0,0,0.36,0.36,0,0,1-.31,0,0.37,0.37,0,0,1-.16-0.27A0.1,0.1,0,0,1,146.5,88a0.37,0.37,0,0,1,.35.13A0.38,0.38,0,0,1,146.92,88.42Z"/><path class="cls-15" d="M143.36,89a0,0,0,0,1,0,0,0.39,0.39,0,0,1,0,.32,0.36,0.36,0,0,1-.22.22,0.1,0.1,0,0,1-.13-0.06,0.39,0.39,0,0,1,.06-0.38A0.35,0.35,0,0,1,143.36,89Z"/><path class="cls-15" d="M145.26,88.86a0,0,0,0,1,0,0,0.36,0.36,0,0,1-.31,0,0.37,0.37,0,0,1-.16-0.27,0.1,0.1,0,0,1,.08-0.12,0.37,0.37,0,0,1,.35.13A0.38,0.38,0,0,1,145.26,88.86Z"/><path class="cls-15" d="M140.38,83.54a0,0,0,0,1,0,0,0.38,0.38,0,0,1,.2-0.25,0.35,0.35,0,0,1,.31,0,0.11,0.11,0,0,1,0,.13,0.37,0.37,0,0,1-.3.23A0.35,0.35,0,0,1,140.38,83.54Z"/><path class="cls-15" d="M141.1,84.15a0,0,0,0,1,0,0,0.39,0.39,0,0,1,0,.32,0.36,0.36,0,0,1-.22.22,0.1,0.1,0,0,1-.13-0.06,0.39,0.39,0,0,1,.06-0.38A0.35,0.35,0,0,1,141.1,84.15Z"/><path class="cls-16" d="M140.31,86.49a0,0,0,0,1,0,0,0.37,0.37,0,0,1-.15-0.55,0.1,0.1,0,0,1,.14,0,0.39,0.39,0,0,1,.17.34A0.37,0.37,0,0,1,140.31,86.49Z"/><path class="cls-15" d="M140.81,87.54a0,0,0,0,1,0,0,0.36,0.36,0,0,1-.31,0,0.37,0.37,0,0,1-.16-0.27,0.1,0.1,0,0,1,.08-0.12,0.37,0.37,0,0,1,.35.13A0.38,0.38,0,0,1,140.81,87.54Z"/><path class="cls-16" d="M141.78,87.64a0,0,0,0,1,0,0,0.36,0.36,0,0,1-.31,0,0.37,0.37,0,0,1-.16-0.27,0.1,0.1,0,0,1,.08-0.12,0.37,0.37,0,0,1,.35.13A0.38,0.38,0,0,1,141.78,87.64Z"/><path class="cls-16" d="M147.46,82.62a0,0,0,0,1,0,0,0.37,0.37,0,0,1,.28.14,0.38,0.38,0,0,1,.06.31,0.1,0.1,0,0,1-.12.08A0.36,0.36,0,0,1,147.46,82.62Z"/><path class="cls-15" d="M149.74,80.77a0,0,0,0,1,0,0,0.39,0.39,0,0,1,.11.3,0.37,0.37,0,0,1-.16.27,0.1,0.1,0,0,1-.14,0,0.4,0.4,0,0,1,0-.38A0.36,0.36,0,0,1,149.74,80.77Z"/><path class="cls-15" d="M147.17,79.61a0,0,0,0,1,0,0,0.39,0.39,0,0,1-.14.29,0.35,0.35,0,0,1-.3.07,0.1,0.1,0,0,1-.08-0.12,0.38,0.38,0,0,1,.24-0.3A0.35,0.35,0,0,1,147.17,79.61Z"/><path class="cls-15" d="M135.86,61.64a0.06,0.06,0,0,1,0,.06,0.51,0.51,0,0,1-.44,0,0.53,0.53,0,0,1-.23-0.38,0.15,0.15,0,0,1,.12-0.16,0.52,0.52,0,0,1,.5.18A0.53,0.53,0,0,1,135.86,61.64Z"/><path class="cls-16" d="M145.29,80.21a0,0,0,0,1,0,0,0.37,0.37,0,0,1,.28.14,0.38,0.38,0,0,1,.06.31,0.1,0.1,0,0,1-.12.08A0.36,0.36,0,0,1,145.29,80.21Z"/><path class="cls-15" d="M148.84,80.89a0,0,0,0,1,0,0,0.39,0.39,0,0,1,.08-0.31,0.35,0.35,0,0,1,.28-0.12,0.1,0.1,0,0,1,.1.1,0.39,0.39,0,0,1-.18.34A0.35,0.35,0,0,1,148.84,80.89Z"/><path class="cls-15" d="M147,80.38a0,0,0,0,1,0,0,0.37,0.37,0,0,1,.28.14,0.38,0.38,0,0,1,.06.31,0.1,0.1,0,0,1-.12.08A0.36,0.36,0,0,1,147,80.38Z"/><path class="cls-16" d="M150.42,86.65a0,0,0,0,1,0,0,0.37,0.37,0,0,1-.28.15,0.35,0.35,0,0,1-.28-0.13,0.11,0.11,0,0,1,0-.14,0.36,0.36,0,0,1,.36-0.09A0.36,0.36,0,0,1,150.42,86.65Z"/><path class="cls-16" d="M151.53,84.46a0,0,0,0,1,0,0,0.36,0.36,0,0,1-.3-0.1,0.38,0.38,0,0,1-.1-0.3A0.1,0.1,0,0,1,151.2,84a0.37,0.37,0,0,1,.31.21A0.38,0.38,0,0,1,151.53,84.46Z"/><path class="cls-15" d="M150.73,82.61a0,0,0,0,1,0,0,0.39,0.39,0,0,1-.1.31,0.35,0.35,0,0,1-.29.1,0.1,0.1,0,0,1-.09-0.11,0.39,0.39,0,0,1,.2-0.32A0.35,0.35,0,0,1,150.73,82.61Z"/><path class="cls-15" d="M151.83,85.61a0,0,0,0,1,0,0,0.36,0.36,0,0,1,.31,0,0.37,0.37,0,0,1,.15.27,0.1,0.1,0,0,1-.09.11,0.37,0.37,0,0,1-.35-0.14A0.38,0.38,0,0,1,151.83,85.61Z"/><path class="cls-15" d="M150.76,84.38a0,0,0,0,1,0,0,0.39,0.39,0,0,1-.1.31,0.35,0.35,0,0,1-.29.1,0.1,0.1,0,0,1-.09-0.11,0.39,0.39,0,0,1,.2-0.32A0.35,0.35,0,0,1,150.76,84.38Z"/><path class="cls-15" d="M142.3,81a0,0,0,0,1,0,0,0.36,0.36,0,0,1,.3.07,0.37,0.37,0,0,1,.13.29,0.1,0.1,0,0,1-.1.1,0.37,0.37,0,0,1-.33-0.17A0.38,0.38,0,0,1,142.3,81Z"/><path class="cls-16" d="M142.11,81.91a0,0,0,0,1,0,0,0.37,0.37,0,0,1-.26.17,0.35,0.35,0,0,1-.29-0.11,0.11,0.11,0,0,1,0-.14,0.37,0.37,0,0,1,.35-0.12A0.36,0.36,0,0,1,142.11,81.91Z"/><path class="cls-16" d="M147,86.71a0,0,0,0,1,0,0,0.39,0.39,0,0,1,0-.32,0.36,0.36,0,0,1,.25-0.19,0.1,0.1,0,0,1,.12.08,0.39,0.39,0,0,1-.1.37A0.35,0.35,0,0,1,147,86.71Z"/><path class="cls-15" d="M149,88.81a0,0,0,0,1,0,0,0.38,0.38,0,0,1,.23-0.21,0.35,0.35,0,0,1,.3.06,0.11,0.11,0,0,1,0,.14,0.37,0.37,0,0,1-.33.18A0.35,0.35,0,0,1,149,88.81Z"/><path class="cls-15" d="M151.62,88.17a0,0,0,0,1,0,0,0.37,0.37,0,0,1-.15-0.55,0.1,0.1,0,0,1,.14,0,0.39,0.39,0,0,1,.17.34A0.37,0.37,0,0,1,151.62,88.17Z"/><path class="cls-15" d="M147.92,87a0,0,0,0,1,0,0,0.38,0.38,0,0,1-.19.26,0.35,0.35,0,0,1-.31,0,0.1,0.1,0,0,1-.05-0.13,0.37,0.37,0,0,1,.29-0.24A0.35,0.35,0,0,1,147.92,87Z"/><path class="cls-15" d="M149.43,88.17a0,0,0,0,1,0,0,0.37,0.37,0,0,1-.15-0.55,0.1,0.1,0,0,1,.14,0,0.39,0.39,0,0,1,.17.34A0.37,0.37,0,0,1,149.43,88.17Z"/><path class="cls-16" d="M142.7,91.44a0,0,0,0,1,0,0,0.37,0.37,0,0,1-.15-0.55,0.1,0.1,0,0,1,.14,0,0.39,0.39,0,0,1,.17.34A0.37,0.37,0,0,1,142.7,91.44Z"/><path class="cls-15" d="M145.51,91.62a0,0,0,0,1,0,0,0.39,0.39,0,0,1,0-.32,0.36,0.36,0,0,1,.26-0.17,0.1,0.1,0,0,1,.11.08,0.39,0.39,0,0,1-.13.36A0.35,0.35,0,0,1,145.51,91.62Z"/><path class="cls-16" d="M147.07,90.4a0,0,0,0,1,0,0,0.36,0.36,0,0,1-.31,0,0.37,0.37,0,0,1-.16-0.27,0.1,0.1,0,0,1,.08-0.12,0.37,0.37,0,0,1,.35.13A0.38,0.38,0,0,1,147.07,90.4Z"/><path class="cls-15" d="M143.51,91a0,0,0,0,1,0,0,0.39,0.39,0,0,1,0,.32,0.36,0.36,0,0,1-.22.22,0.1,0.1,0,0,1-.13-0.06,0.39,0.39,0,0,1,.06-0.38A0.35,0.35,0,0,1,143.51,91Z"/><path class="cls-16" d="M145.41,90.84a0,0,0,0,1,0,0,0.36,0.36,0,0,1-.31,0,0.37,0.37,0,0,1-.16-0.27,0.1,0.1,0,0,1,.08-0.12,0.37,0.37,0,0,1,.35.13A0.38,0.38,0,0,1,145.41,90.84Z"/><path class="cls-15" d="M147.11,91.86a0,0,0,0,1,0,0,0.37,0.37,0,0,1-.27-0.16,0.38,0.38,0,0,1,0-.31,0.1,0.1,0,0,1,.12-0.07A0.36,0.36,0,0,1,147.11,91.86Z"/><path class="cls-15" d="M149.82,91.09a0,0,0,0,1,0,0,0.39,0.39,0,0,1-.07-0.31,0.37,0.37,0,0,1,.19-0.25,0.1,0.1,0,0,1,.13,0,0.4,0.4,0,0,1,0,.38A0.36,0.36,0,0,1,149.82,91.09Z"/><path class="cls-16" d="M150.92,89.41a0,0,0,0,1,0,0,0.35,0.35,0,0,1-.54-0.12,0.11,0.11,0,0,1,0-.14,0.36,0.36,0,0,1,.37,0A0.37,0.37,0,0,1,150.92,89.41Z"/><path class="cls-15" d="M147.73,91.18a0,0,0,0,1,0,0,0.39,0.39,0,0,1,.13.29,0.37,0.37,0,0,1-.14.28,0.1,0.1,0,0,1-.14,0,0.39,0.39,0,0,1-.07-0.38A0.36,0.36,0,0,1,147.73,91.18Z"/><path class="cls-15" d="M149.48,90.38a0,0,0,0,1,0,0,0.35,0.35,0,0,1-.54-0.12,0.11,0.11,0,0,1,0-.14,0.36,0.36,0,0,1,.37,0A0.37,0.37,0,0,1,149.48,90.38Z"/><path class="cls-15" d="M144.41,60.66a0.06,0.06,0,0,1-.05,0,0.56,0.56,0,0,1,0-.46,0.51,0.51,0,0,1,.37-0.24,0.14,0.14,0,0,1,.16.12,0.56,0.56,0,0,1-.18.51A0.49,0.49,0,0,1,144.41,60.66Z"/><path class="cls-15" d="M143.36,70.9a0.06,0.06,0,0,1,0,.06,0.46,0.46,0,0,1-.42,0,0.53,0.53,0,0,1-.22-0.38,0.15,0.15,0,0,1,.11-0.16,0.47,0.47,0,0,1,.47.18A0.56,0.56,0,0,1,143.36,70.9Z"/><path class="cls-15" d="M139.66,66.78a0.06,0.06,0,0,1-.07,0,0.52,0.52,0,0,1-.21-0.78,0.14,0.14,0,0,1,.19,0,0.55,0.55,0,0,1,.24.48A0.53,0.53,0,0,1,139.66,66.78Z"/><path class="cls-15" d="M136.28,109.14a0,0,0,0,1,0,0,0.42,0.42,0,0,1,0-.34,0.38,0.38,0,0,1,.28-0.18,0.11,0.11,0,0,1,.12.09,0.42,0.42,0,0,1-.13.39A0.37,0.37,0,0,1,136.28,109.14Z"/><path class="cls-15" d="M142.42,107.28a0,0,0,0,1,0,0,0.39,0.39,0,0,1-.33,0,0.4,0.4,0,0,1-.18-0.29,0.11,0.11,0,0,1,.09-0.12,0.39,0.39,0,0,1,.38.14A0.4,0.4,0,0,1,142.42,107.28Z"/><path class="cls-15" d="M138.29,114.28a0,0,0,0,1,0,0,0.39,0.39,0,0,1-.33,0,0.4,0.4,0,0,1-.18-0.29,0.11,0.11,0,0,1,.09-0.12,0.39,0.39,0,0,1,.38.14A0.4,0.4,0,0,1,138.29,114.28Z"/><path class="cls-15" d="M133.26,113.48a0,0,0,0,1-.05,0,0.4,0.4,0,0,1-.16-0.59,0.11,0.11,0,0,1,.15,0,0.42,0.42,0,0,1,.18.37A0.4,0.4,0,0,1,133.26,113.48Z"/><path class="cls-15" d="M153.67,81.72a0,0,0,0,1,0,0,0.42,0.42,0,0,1,0-.34,0.38,0.38,0,0,1,.28-0.18,0.11,0.11,0,0,1,.12.09,0.42,0.42,0,0,1-.13.39A0.37,0.37,0,0,1,153.67,81.72Z"/><path class="cls-15" d="M148.73,70.08a0,0,0,0,1,0,0,0.39,0.39,0,0,1-.33,0,0.4,0.4,0,0,1-.18-0.29,0.11,0.11,0,0,1,.09-0.12,0.39,0.39,0,0,1,.38.14A0.4,0.4,0,0,1,148.73,70.08Z"/><path class="cls-15" d="M154.54,89.63a0,0,0,0,1,0,0,0.39,0.39,0,0,1-.33,0,0.4,0.4,0,0,1-.18-0.29,0.11,0.11,0,0,1,.09-0.12,0.39,0.39,0,0,1,.38.14A0.4,0.4,0,0,1,154.54,89.63Z"/><path class="cls-15" d="M151.74,98.82a0,0,0,0,1-.05,0,0.4,0.4,0,0,1-.16-0.59,0.11,0.11,0,0,1,.15,0,0.42,0.42,0,0,1,.18.37A0.4,0.4,0,0,1,151.74,98.82Z"/><path class="cls-51" d="M159.89,56.28l-2.37,36.95-3,47a6.37,6.37,0,0,1-2.48,4.68,17.14,17.14,0,0,1-7.39,3.25,15.69,15.69,0,0,1-3,.23,16.55,16.55,0,0,1-9.44-3.2,7,7,0,0,1-2.86-5.29l-4.84-83.62c5.58-.44,11.61-0.71,18-0.69,4.26,0,8.35.13,12.24,0.35q2.53,0.14,5,.33h0.15Z"/><path class="cls-52" d="M160,56.4l-2.63,36.93L154.56,140a7.69,7.69,0,0,1-1.15,3.42,9.24,9.24,0,0,1-3.83,3.15,16.05,16.05,0,0,1-5.1,1.72l-0.77.11a13.78,13.78,0,0,0,6-6.2A13.46,13.46,0,0,0,151,137c0.26-5.13,1.74-37.12,3.64-81.11q1.26,0.05,2.62.17C158.2,56.18,159.12,56.29,160,56.4Z"/><path class="cls-26" d="M157.05,43.79a1.87,1.87,0,0,0,.3-0.67c0.38-1.79-2.29-3.81-2.72-3.45a0.63,0.63,0,0,0,0,.61,4.4,4.4,0,0,0-1.82-1.07c-0.63-.18-1.57-0.29-1.67,0a0.84,0.84,0,0,0,.44.6,5,5,0,0,0-1.2-.22c-0.74,0-2,0-2.06.45a0.64,0.64,0,0,0,.38.58,3.77,3.77,0,0,0-2,.26c-0.46.2-1.29,0.66-1.24,1a0.87,0.87,0,0,0,.76.38,4.23,4.23,0,0,0-1.46.7c-0.65.48-1.34,1.28-1.2,1.52s0.23,0.13.8-.06a6.35,6.35,0,0,0-.92,1.1c-0.11.17-.93,1.43-0.66,1.74,0.07,0.08.23,0.12,0.65-.06-1.08,1.64-1.57,3-1.17,3.44a1.76,1.76,0,0,0,1.38,0,2.77,2.77,0,0,0,1-.62c-0.5.92-.33,1.2-0.28,1.27,0.3,0.42,1.52-.07,2.18-0.46a4.88,4.88,0,0,0,.93-0.71,1.21,1.21,0,0,0,0,1c0.34,0.4,1.19,0,1.61-.14a4.19,4.19,0,0,0,1.33-.9,0.88,0.88,0,0,0,0,.92c0.34,0.35,1.52-.45,1.79-0.64a6.27,6.27,0,0,0,1.37-1.27c-0.24.79-.12,1,0,1,0.28,0.21,1.08-.47,1.52-0.94a4.87,4.87,0,0,0,1-1.81,0.9,0.9,0,0,0,.5.72c0.4,0,.87-1,1-1.89A3.75,3.75,0,0,0,157.05,43.79Z"/><path class="cls-53" d="M155.8,42.47a5.19,5.19,0,0,0-2.87-2.12c-2.84-.74-5.43,1.61-6.19,2.3a10.89,10.89,0,0,0-3,4.87c0.76-.94,4.86-5.88,9.94-5.52A7.53,7.53,0,0,1,155.8,42.47Z"/><path class="cls-54" d="M156.51,44a5.82,5.82,0,0,0-1.71-.73c-4.8-1.18-9.7,4.28-10.3,5,1.21,0.15,8.87,1,11.52-3.24A5.57,5.57,0,0,0,156.51,44Z"/><path class="cls-24" d="M158.9,46.24a0,0,0,0,0,0,0,5.49,5.49,0,0,0-1.66-2.57,5.06,5.06,0,0,0-2.52-1.14l0,0a3.09,3.09,0,0,0-.5-0.74,3,3,0,0,0-1.64-.9,3.62,3.62,0,0,1,1.25.84,3.77,3.77,0,0,1,.54.71,0,0,0,0,1,0,.07c-0.23,0-.48,0-0.75,0a8.4,8.4,0,0,0-1.08.09h0a4.4,4.4,0,0,0-1.72-.78,4.57,4.57,0,0,0-1.53-.06s-0.05.08,0,.08a5.49,5.49,0,0,1,1.53.25,5.37,5.37,0,0,1,1.14.51,0,0,0,0,1,0,.08,6.66,6.66,0,0,0-1.06.25,7,7,0,0,0-1.22.53h0a4.24,4.24,0,0,0-2-.24,4.66,4.66,0,0,0-1.49.44s0,0.1,0,.08a4.6,4.6,0,0,1,2-.23,4.19,4.19,0,0,1,.85.18,0,0,0,0,1,0,.08,13.39,13.39,0,0,0-2.82,1.86,14.58,14.58,0,0,0-3.44,4.39,0,0,0,1,0,.07,0,19.68,19.68,0,0,1,2.52-3,18.91,18.91,0,0,1,2.68-2.19,0,0,0,0,1,.05.06,10.07,10.07,0,0,0-1.61,3.26,0,0,0,1,0,.07,0,12,12,0,0,1,.66-1.35,8,8,0,0,1,2.33-2.84,5.74,5.74,0,0,1,2.66-1,0,0,0,0,1,0,.07,7.24,7.24,0,0,0-1.29,1.47,7.46,7.46,0,0,0-1,2.22,0,0,0,1,0,.07,0,11.4,11.4,0,0,1,1.27-2.21,11.1,11.1,0,0,1,1.4-1.57h0a6.28,6.28,0,0,1,1.22-.11,6,6,0,0,1,.92.08,0,0,0,0,1,0,.08,4.39,4.39,0,0,0-.79.79,4.63,4.63,0,0,0-.78,1.55,0,0,0,1,0,.07,0,6.51,6.51,0,0,1,1-1.49,6.24,6.24,0,0,1,.89-0.85h0a4.72,4.72,0,0,1,2.09,1.11,5.18,5.18,0,0,1,1.46,2.44,0,0,0,0,0,.07,0Z"/><path class="cls-21" d="M168.22,53.18a1.09,1.09,0,0,1-1-.42,5.17,5.17,0,0,1,.51,1.94c0.07,1-.13,2.28-0.47,2.35-0.12,0-.31-0.12-0.59-0.8a7.64,7.64,0,0,1-.29,1.75c-0.07.24-.6,2-1.11,2-0.13,0-.3-0.12-0.47-0.66-0.68,2.34-1.6,3.92-2.31,3.87s-1.06-1.18-1.11-1.31a3.49,3.49,0,0,1-.25-1.47c-0.46,1.21-.87,1.28-1,1.29-0.63,0-1.15-1.49-1.32-2.42a6,6,0,0,1-.08-1.44,1.48,1.48,0,0,1-1,.79c-0.64,0-1-1.08-1.17-1.63a5.23,5.23,0,0,1-.22-2,1.07,1.07,0,0,1-.84.77c-0.6,0-.79-1.8-0.83-2.19a7.69,7.69,0,0,1,.1-2.31c-0.55.85-.82,0.89-0.94,0.86-0.42-.09-0.43-1.39-0.32-2.19a5.93,5.93,0,0,1,.88-2.42,1.13,1.13,0,0,1-1.08.1c-0.33-.37.29-1.65,1-2.45a4.51,4.51,0,0,1,2.28-1.35l0.43-.09c0-.08.06-0.18,0.09-0.29a2.23,2.23,0,0,1,.3-0.52c1.38-1.8,5.43-.9,5.44-0.2a0.81,0.81,0,0,1-.56.51,5.53,5.53,0,0,1,2.47.86c0.68,0.45,1.53,1.24,1.38,1.54a1,1,0,0,1-.92.07,6.36,6.36,0,0,1,1.17,1c0.63,0.66,1.53,1.88,1.23,2.3a0.79,0.79,0,0,1-.86.11,4.68,4.68,0,0,1,1.35,2.09C168.36,51.79,168.59,52.94,168.22,53.18Z"/><path class="cls-55" d="M159.34,43.9a6.42,6.42,0,0,1,4.3,1c3,2.09,2.84,6.41,2.8,7.68a13.49,13.49,0,0,1-2.17,6.76c0.28-1.47,1.64-9.3-2.77-13.81A9.32,9.32,0,0,0,159.34,43.9Z"/><path class="cls-56" d="M157.34,44.45a7.2,7.2,0,0,1,2.06,1c5,3.58,3.75,12.58,3.58,13.69-1.12-1-8.09-7.55-6.19-13.47A6.9,6.9,0,0,1,157.34,44.45Z"/><path class="cls-24" d="M166.13,54a0.05,0.05,0,0,1-.09,0,5.67,5.67,0,0,0-1.36-2,5.25,5.25,0,0,0-.86-0.66,0.05,0.05,0,0,0-.08.06,16.55,16.55,0,0,1,.51,4.15,18,18,0,0,1-1.38,6.78,0,0,0,1,1-.09,0,24.45,24.45,0,0,0,.83-4.81,23.58,23.58,0,0,0-.08-4.29,0.05,0.05,0,0,0-.1,0,12.34,12.34,0,0,1-1.78,4.13,0,0,0,0,1-.08,0,15.21,15.21,0,0,0,.74-1.7,9.82,9.82,0,0,0,.81-4.48,7.17,7.17,0,0,0-1.21-3.3,0.05,0.05,0,0,0-.09,0,9.11,9.11,0,0,1-.34,2.4A9.22,9.22,0,0,1,160.19,53a0,0,0,1,1-.08,0,14,14,0,0,0,1.06-3,13.82,13.82,0,0,0,.36-2.58s0,0,0,0a8.17,8.17,0,0,0-.87-1.24,7.34,7.34,0,0,0-.81-0.81,0,0,0,0,0-.08,0,5.54,5.54,0,0,1-.11,1.38,5.67,5.67,0,0,1-.84,2,0,0,0,1,1-.08,0,8.11,8.11,0,0,0,.63-2.1,7.94,7.94,0,0,0,.08-1.52,0.05,0.05,0,0,0,0,0,5.91,5.91,0,0,0-2.72-1.08h-0.06l0.43-.09c0-.08.06-0.18,0.09-0.29a6.22,6.22,0,0,1,3,1.44h0a3.83,3.83,0,0,1,1.1-.11,3.75,3.75,0,0,1,2.17.82,4.45,4.45,0,0,0-1.79-.51,4.52,4.52,0,0,0-1.1.06,0.05,0.05,0,0,0,0,.09c0.21,0.21.42,0.44,0.63,0.69a11.06,11.06,0,0,1,.78,1.08l0,0a5.39,5.39,0,0,1,2.12,1,5.59,5.59,0,0,1,1.28,1.4c0,0.06,0,.12-0.08.07a6.55,6.55,0,0,0-2.85-1.9,0.05,0.05,0,0,0-.06.08,8.27,8.27,0,0,1,.61,1.2,8.41,8.41,0,0,1,.48,1.58,0,0,0,0,0,0,0,5.32,5.32,0,0,1,1.83,1.69A5.72,5.72,0,0,1,166.13,54Z"/><rect class="cls-57" x="130.72" y="104.44" width="12.85" height="12.33" rx="3.56" ry="3.56" transform="translate(52.88 -44.12) rotate(22.54)"/><rect class="cls-58" x="130.55" y="105.28" width="11.7" height="11.22" rx="3.31" ry="3.31" transform="translate(52.93 -43.82) rotate(22.54)"/><path class="cls-59" d="M132.6,104.79a1.39,1.39,0,0,1,1.87-.77l8.17,3.39a1.57,1.57,0,0,1,.84,1,1.45,1.45,0,0,1-.07.84L140.2,117a1.42,1.42,0,0,1-.71.76,1.44,1.44,0,0,1-1.16,0,1.51,1.51,0,0,0,1.09-.41,1.4,1.4,0,0,0,.35-0.58l3.17-7.64a1.35,1.35,0,0,0-.53-1.35l-8-3.36a1.39,1.39,0,0,0-.74-0.2A1.49,1.49,0,0,0,132.6,104.79Z"/><path class="cls-60" d="M128.78,63.62l0,0.93L129,67l-3.78-6.15a2,2,0,0,1,.64-2.72l2.56-1.57,0.08,1.38,0,0.58Z"/><path class="cls-61" d="M128.78,63.62l0,0.93-2.08-3.39a1.83,1.83,0,0,1,.61-2.53l1.12-.69,0,0.58Z"/><path class="cls-62" d="M140.83,64.88l-0.11.07h0l-6.76,4.16L133.2,55.64l0-.58,1.17-.72a1.84,1.84,0,0,1,2.24.24h0a2.06,2.06,0,0,1,.29.36l4.49,7.29,0.07,0.12A1.84,1.84,0,0,1,140.83,64.88Z"/><path class="cls-63" d="M128.78,63.62l0,0.93-2.08-3.39-0.17-.28a1.67,1.67,0,0,1-.09-1.4,1.5,1.5,0,0,1,.58-0.68l0.28-.17,1.12-.69,0,0.58-1.11.68a1.48,1.48,0,0,0-.41.69,1.37,1.37,0,0,0,0,.81Z"/><ellipse class="cls-64" cx="155.89" cy="65.11" rx="1.36" ry="1.32" transform="translate(42.25 190.11) rotate(-70.4)"/><ellipse class="cls-65" cx="155.11" cy="79.72" rx="1.97" ry="1.92" transform="translate(27.96 199.09) rotate(-70.4)"/><ellipse class="cls-66" cx="152.12" cy="72.24" rx="2.22" ry="2.16" transform="translate(33.03 191.31) rotate(-70.4)"/><ellipse class="cls-67" cx="154.38" cy="60.09" rx="1.05" ry="1.02" transform="translate(45.97 185.36) rotate(-70.4)"/></svg>