<svg id="Layer_1" data-name="Layer 1" xmlns="http://www.w3.org/2000/svg" xmlns:xlink="http://www.w3.org/1999/xlink" viewBox="0 0 287.6 183.9"><defs><style>.cls-1{fill:url(#radial-gradient);}.cls-2{fill:#e87a6a;}.cls-3{fill:#f8d9d7;}.cls-4{fill:#f4cac9;}.cls-5{fill:#f6d5d5;}.cls-6{fill:url(#linear-gradient);}.cls-7{opacity:0.83;fill:url(#linear-gradient-2);}.cls-8{fill:#3f8e6a;}.cls-11,.cls-31,.cls-32,.cls-9{fill:#fff;}.cls-9{opacity:0.46;}.cls-10,.cls-13,.cls-21,.cls-26{opacity:0.73;}.cls-10{fill:url(#linear-gradient-3);}.cls-11{opacity:0.75;}.cls-12{fill:#668d3e;}.cls-13{fill:url(#linear-gradient-4);}.cls-14{fill:#e06e6e;}.cls-15{fill:#89181f;}.cls-16{fill:#531116;opacity:0.57;}.cls-17{fill:#a92123;}.cls-18{fill:#fdf0f0;}.cls-19{fill:url(#linear-gradient-5);}.cls-20{fill:#db2e2a;}.cls-21{fill:url(#linear-gradient-6);}.cls-22,.cls-29{fill:#f4b5b5;}.cls-22{opacity:0.15;}.cls-23{fill:url(#linear-gradient-7);}.cls-24{fill:none;}.cls-25{fill:url(#linear-gradient-8);}.cls-26{fill:url(#linear-gradient-9);}.cls-27{fill:url(#linear-gradient-10);}.cls-28{opacity:0.67;fill:url(#linear-gradient-11);}.cls-29{opacity:0.18;}.cls-30{opacity:0.5;fill:url(#linear-gradient-12);}.cls-31{opacity:0.44;}.cls-32{opacity:0.24;}.cls-33,.cls-34,.cls-35,.cls-36,.cls-37,.cls-38,.cls-39,.cls-40,.cls-41,.cls-42,.cls-43,.cls-44,.cls-45,.cls-46,.cls-47,.cls-48,.cls-49,.cls-50,.cls-51,.cls-52,.cls-53{opacity:0.39;}.cls-33{fill:url(#radial-gradient-2);}.cls-34{fill:url(#radial-gradient-3);}.cls-35{fill:url(#radial-gradient-4);}.cls-36{fill:url(#radial-gradient-5);}.cls-37{fill:url(#radial-gradient-6);}.cls-38{fill:url(#radial-gradient-7);}.cls-39{fill:url(#radial-gradient-8);}.cls-40{fill:url(#radial-gradient-9);}.cls-41{fill:url(#radial-gradient-10);}.cls-42{fill:url(#radial-gradient-11);}.cls-43{fill:url(#radial-gradient-12);}.cls-44{fill:url(#radial-gradient-13);}.cls-45{fill:url(#radial-gradient-14);}.cls-46{fill:url(#radial-gradient-15);}.cls-47{fill:url(#radial-gradient-16);}.cls-48{fill:url(#radial-gradient-17);}.cls-49{fill:url(#radial-gradient-18);}.cls-50{fill:url(#radial-gradient-19);}.cls-51{fill:url(#radial-gradient-20);}.cls-52{fill:url(#radial-gradient-21);}.cls-53{fill:url(#radial-gradient-22);}</style><radialGradient id="radial-gradient" cx="143.8" cy="91.95" r="120.69" gradientUnits="userSpaceOnUse"><stop offset="0.05" stop-color="#f6b9ad"/><stop offset="0.67" stop-color="#ef8975"/><stop offset="0.89" stop-color="#ed7e6a"/></radialGradient><linearGradient id="linear-gradient" x1="140.3" y1="146.93" x2="140.3" y2="73.1" gradientUnits="userSpaceOnUse"><stop offset="0" stop-color="#a11e22"/><stop offset="0.04" stop-color="#b63330"/><stop offset="0.12" stop-color="#c03c39"/><stop offset="0.25" stop-color="#d34d4a"/><stop offset="0.37" stop-color="#f26561"/><stop offset="0.71" stop-color="#f3b7a8"/><stop offset="0.95" stop-color="#f4dacd"/></linearGradient><linearGradient id="linear-gradient-2" x1="140.38" y1="157.8" x2="140.38" y2="155.31" gradientUnits="userSpaceOnUse"><stop offset="0" stop-color="#f4cac9"/><stop offset="0.64" stop-color="#fbebe9"/></linearGradient><linearGradient id="linear-gradient-3" x1="21.06" y1="79.08" x2="35.6" y2="79.08" gradientTransform="translate(130.95 -7.69) rotate(9.35)" gradientUnits="userSpaceOnUse"><stop offset="0" stop-color="#ffe6c6"/><stop offset="0.97" stop-color="#fff"/></linearGradient><linearGradient id="linear-gradient-4" x1="674.36" y1="194.75" x2="687.83" y2="194.75" gradientTransform="translate(-561.78 247.51) rotate(-26.72)" xlink:href="#linear-gradient-3"/><linearGradient id="linear-gradient-5" x1="281.82" y1="66.4" x2="281.82" y2="75.87" gradientTransform="translate(-155.58 31.68) rotate(-8.31)" gradientUnits="userSpaceOnUse"><stop offset="0.38" stop-color="#ee3624"/><stop offset="1" stop-color="#a82723"/></linearGradient><linearGradient id="linear-gradient-6" x1="8.41" y1="84.43" x2="21.32" y2="84.43" xlink:href="#linear-gradient-3"/><linearGradient id="linear-gradient-7" x1="140.21" y1="58.71" x2="140.21" y2="73.2" gradientUnits="userSpaceOnUse"><stop offset="0.08" stop-color="#fef1f0"/><stop offset="0.62" stop-color="#fef1f0"/><stop offset="0.9" stop-color="#f9ebe3"/><stop offset="0.95" stop-color="#f7e4da"/><stop offset="1" stop-color="#f4dacd"/></linearGradient><linearGradient id="linear-gradient-8" x1="277.81" y1="93.48" x2="277.81" y2="103.39" xlink:href="#linear-gradient-5"/><linearGradient id="linear-gradient-9" x1="24.13" y1="98.81" x2="37.6" y2="98.81" xlink:href="#linear-gradient-3"/><linearGradient id="linear-gradient-10" x1="-293.24" y1="218.37" x2="-293.24" y2="228.28" gradientTransform="matrix(0.92, 0.4, -0.4, 0.92, 500.69, 15.93)" xlink:href="#linear-gradient-5"/><linearGradient id="linear-gradient-11" x1="1044.38" y1="1823.72" x2="1044.38" y2="1833.63" gradientTransform="matrix(-0.65, -0.76, 0.76, -0.65, -560.03, 2112.69)" xlink:href="#linear-gradient-5"/><linearGradient id="linear-gradient-12" x1="140.35" y1="146.93" x2="140.35" y2="73.1" xlink:href="#linear-gradient"/><radialGradient id="radial-gradient-2" cx="133.29" cy="122.45" r="1.1" gradientTransform="translate(203.92 -44.2) rotate(70.4)" gradientUnits="userSpaceOnUse"><stop offset="0.7" stop-color="#f7c5ba"/><stop offset="1" stop-color="#fff"/></radialGradient><radialGradient id="radial-gradient-3" cx="132.64" cy="134.48" r="1.6" gradientTransform="translate(214.82 -35.6) rotate(70.4)" xlink:href="#radial-gradient-2"/><radialGradient id="radial-gradient-4" cx="130.19" cy="128.32" r="1.8" gradientTransform="translate(207.39 -37.38) rotate(70.4)" xlink:href="#radial-gradient-2"/><radialGradient id="radial-gradient-5" cx="132.05" cy="118.32" r="0.85" gradientTransform="translate(199.2 -45.77) rotate(70.4)" xlink:href="#radial-gradient-2"/><radialGradient id="radial-gradient-6" cx="153.42" cy="84.19" r="1.1" gradientTransform="translate(181.26 -88.59) rotate(70.4)" xlink:href="#radial-gradient-2"/><radialGradient id="radial-gradient-7" cx="149.8" cy="89.07" r="1.8" gradientTransform="translate(183.44 -81.93) rotate(70.4)" xlink:href="#radial-gradient-2"/><radialGradient id="radial-gradient-8" cx="151.66" cy="79.07" r="0.85" gradientTransform="translate(175.25 -90.33) rotate(70.4)" xlink:href="#radial-gradient-2"/><radialGradient id="radial-gradient-9" cx="136.8" cy="140.05" r="0.78" gradientTransform="translate(222.83 -35.81) rotate(70.4)" xlink:href="#radial-gradient-2"/><radialGradient id="radial-gradient-10" cx="135.93" cy="137.14" r="0.6" gradientTransform="translate(219.51 -36.92) rotate(70.4)" xlink:href="#radial-gradient-2"/><radialGradient id="radial-gradient-11" cx="-387.67" cy="919.8" r="1.69" gradientTransform="matrix(-1.15, 0, 0, 1.16, -304.64, -1034.39)" xlink:href="#radial-gradient-2"/><radialGradient id="radial-gradient-12" cx="-381.82" cy="914.22" r="2.45" gradientTransform="matrix(-1.15, 0, 0, 1.16, -306.27, -1023.74)" xlink:href="#radial-gradient-2"/><radialGradient id="radial-gradient-13" cx="-376.39" cy="920.89" r="2.77" gradientTransform="matrix(-1.15, 0, 0, 1.16, -294.81, -1022.98)" xlink:href="#radial-gradient-2"/><radialGradient id="radial-gradient-14" cx="-391.89" cy="914.01" r="0.94" gradientTransform="matrix(-1.15, 0, 0, 1.16, -314.23, -1034.51)" xlink:href="#radial-gradient-2"/><radialGradient id="radial-gradient-15" cx="127.37" cy="63.15" r="1.47" gradientTransform="matrix(1, 0, 0, 1, 0, 0)" xlink:href="#radial-gradient-2"/><radialGradient id="radial-gradient-16" cx="135.06" cy="64.1" r="0.96" gradientTransform="matrix(1, 0, 0, 1, 0, 0)" xlink:href="#radial-gradient-2"/><radialGradient id="radial-gradient-17" cx="129.9" cy="65.02" r="0.48" gradientTransform="matrix(1, 0, 0, 1, 0, 0)" xlink:href="#radial-gradient-2"/><radialGradient id="radial-gradient-18" cx="131.38" cy="63.86" r="0.48" gradientTransform="matrix(1, 0, 0, 1, 0, 0)" xlink:href="#radial-gradient-2"/><radialGradient id="radial-gradient-19" cx="153.46" cy="60.17" r="1.47" gradientTransform="matrix(1, 0, 0, 1, 0, 0)" xlink:href="#radial-gradient-2"/><radialGradient id="radial-gradient-20" cx="153.7" cy="68.09" r="0.96" gradientTransform="matrix(1, 0, 0, 1, 0, 0)" xlink:href="#radial-gradient-2"/><radialGradient id="radial-gradient-21" cx="148.53" cy="69" r="0.48" gradientTransform="matrix(1, 0, 0, 1, 0, 0)" xlink:href="#radial-gradient-2"/><radialGradient id="radial-gradient-22" cx="150.02" cy="67.84" r="0.48" gradientTransform="matrix(1, 0, 0, 1, 0, 0)" xlink:href="#radial-gradient-2"/></defs><title>fizz</title><rect class="cls-1" width="287.6" height="183.9"/><ellipse class="cls-2" cx="140.1" cy="159.85" rx="18.41" ry="3.78"/><path class="cls-3" d="M160.93,48.12l-7.3,110.05a2,2,0,0,1-1.83,1.91,108.37,108.37,0,0,1-11.14.63,107.63,107.63,0,0,1-12.4-.64,1.92,1.92,0,0,1-1.71-1.79q-3.65-55-7.29-110a1.12,1.12,0,0,1,1-1.19q3-.3,6.22-0.51l2.92-.18,0.92,0h0.13l0.67,0c2.74-.12,5.57-0.19,8.48-0.2,7.38,0,14.22.37,20.42,1A1,1,0,0,1,160.93,48.12Z"/><path class="cls-4" d="M152.43,145.23L151.83,156a1.9,1.9,0,0,1-1.88,1.78H130.49A1.52,1.52,0,0,1,129,156.7a1.35,1.35,0,0,1-.06-0.34l-0.7-11.13A20.07,20.07,0,0,0,152.43,145.23Z"/><path class="cls-5" d="M152.43,145.2L151.83,156a1.83,1.83,0,0,1-1.83,1.75h-2.82a0.77,0.77,0,0,0,.47-0.49c0-.33-1.06-0.48-4.31-0.52V149A19.61,19.61,0,0,0,152.43,145.2Z"/><path class="cls-4" d="M148.35,147.61l0.61-.27c0.28-.13.55-0.27,0.8-0.41V157.8h-1.4V147.61Z"/><path class="cls-6" d="M156.38,73.1Q155.71,83.56,155,94l-2.75,42.84-0.14,2.23a6.12,6.12,0,0,1-2.2,4.35l-0.18.14a16.41,16.41,0,0,1-7.09,3.12,15,15,0,0,1-2.87.22,15.89,15.89,0,0,1-9-3.07,6.69,6.69,0,0,1-2.74-5.07l-0.47-8L124.23,73.1h32.15Z"/><path class="cls-7" d="M151.73,156.53a1.88,1.88,0,0,1-1.78,1.27H130.49A1.52,1.52,0,0,1,129,156.7c1.12-.79,5.85-1.39,11.51-1.39C145.75,155.31,150.19,155.82,151.73,156.53Z"/><path class="cls-8" d="M148.53,60.17a3.79,3.79,0,0,1,.16-1.28,4.65,4.65,0,0,1,2.86-2.63c2.6-1.21,6.17-2.44,6.25-2s-2.12,1.76-4.43,2.57c-1.57.55-3,.72-4.12,2.2A6,6,0,0,0,148.53,60.17Z"/><path class="cls-9" d="M144.59,82.24l-5.24-6.83a2.13,2.13,0,0,1,.38-3l6.39-4.95a2.11,2.11,0,0,1,3,.38l5.24,6.83a2.13,2.13,0,0,1-.38,3l-6.39,4.95A2.11,2.11,0,0,1,144.59,82.24Z"/><path class="cls-10" d="M144,81.45l-4.72-6.15a2,2,0,0,1,.36-2.77l5.75-4.45a2,2,0,0,1,2.76.36l4.72,6.15a2,2,0,0,1-.36,2.77l-5.75,4.45A2,2,0,0,1,144,81.45Z"/><path class="cls-11" d="M145.8,67.75a1.38,1.38,0,0,1,2,.26l5.38,7a1.58,1.58,0,0,1,.22,1.31,1.46,1.46,0,0,1-.48.69l-6.61,5.11a1.42,1.42,0,0,1-1,.31,1.44,1.44,0,0,1-1-.57,1.5,1.5,0,0,0,1.14.18,1.4,1.4,0,0,0,.59-0.33l6.54-5.06a1.35,1.35,0,0,0,.21-1.44l-5.23-6.89A1.38,1.38,0,0,0,147,67.8,1.48,1.48,0,0,0,145.8,67.75Z"/><path class="cls-8" d="M148.43,58.7a19.67,19.67,0,0,1,4.74-5.49c1.87-1.45,4.66-3,4.87-2.52a0.33,0.33,0,0,1,0,.24c-0.56,1.33-2.47,2.18-4.1,3.26-0.41.27-1.1,0.83-2.48,2S149.1,58.1,148.43,58.7Z"/><path class="cls-8" d="M143.24,79l0,0.13c0,0.11-.07.21-0.11,0.32-0.16-.25-0.34-0.51-0.53-0.77a11.34,11.34,0,0,0-3.19-3c-2.35-1.45-4.45-1.34-4.42-1.73s2.51-1.24,4.66-.18a7.23,7.23,0,0,1,3.24,4.06A11.94,11.94,0,0,1,143.24,79Z"/><path class="cls-8" d="M148.53,60.17c0.2-3,.51-10.13-1.18-13.64-0.17-.34-0.61-1.26-0.8-1.17s0.3,2.85.77,5.47C147.73,53.07,148.21,56.23,148.53,60.17Z"/><path class="cls-12" d="M152,76.69a1.33,1.33,0,0,1-.73,0,8.74,8.74,0,0,0-5.78.42,6.24,6.24,0,0,0-2,1.54l-0.31.39a11.73,11.73,0,0,0-.64,1.27c0.06-.49.13-1,0.2-1.49a14.72,14.72,0,0,1,.83-1.45l0.25-.37a6.51,6.51,0,0,1,2.17-2c1.85-1,3.9-.28,5.76.42a0.83,0.83,0,0,1,.66.68A0.68,0.68,0,0,1,152,76.69Z"/><path class="cls-12" d="M144.44,71.6a15,15,0,0,0-3-10.29,12.92,12.92,0,0,1-.92-1.26c-0.7-.7-1.31-0.86-1.28-1a1.9,1.9,0,0,1,1.93,0s2.28,1.08,2.84,5.82v0s-0.2-2-.26-5.07a5.83,5.83,0,0,1,.34-2.71c0.63-1.39,2-2.13,2.21-1.85s-0.68,1.07-1.14,2.95a14.32,14.32,0,0,0-.19,4.28c0.06,1.31.16,2,.22,2.64A18.2,18.2,0,0,1,144.44,71.6Z"/><path class="cls-12" d="M150.11,63.94c1.37-.51,1.67-0.15,3.24-0.68,0.87-.29,2-0.81,2-1.06s-0.76-.16-1.68-0.1A12.69,12.69,0,0,0,149,63a6.29,6.29,0,0,0-1.89,1.34c-0.26.27-1.54,1.73-1.31,2.21,0.14,0.31,1.63-1.14,1.91-1.34A10.35,10.35,0,0,1,150.11,63.94Z"/><path class="cls-8" d="M152.44,50.9a2.72,2.72,0,0,0,.87-0.76c0.84-1.12.77-2.75,0.64-4.26-0.29-3.34-1-7.72-1.33-7.62s-0.34,3.08.12,5.91c0.31,1.93.82,3.49,0.25,5.42A6.48,6.48,0,0,1,152.44,50.9Z"/><path class="cls-8" d="M153.43,50.09a24.76,24.76,0,0,0,1.9-7.58c0.22-2.67.06-6.34-.36-6.36a0.25,0.25,0,0,0-.16.15c-0.72,1.21-.49,3.64-0.55,5.87,0,0.56-.11,1.55-0.32,3.54S153.56,49.09,153.43,50.09Z"/><path class="cls-8" d="M163,47c0,0.4-2.25,1-4.4,1.67-1.37.44-3.15,1.06-5.23,2l-1.23.54,0.24-.42c0.45-.32,1-0.66,1.5-1h0c2.43-1.56,5.57-3.2,7.88-3.06C162.08,46.73,163,46.78,163,47Z"/><path class="cls-12" d="M157.05,45.76l-3.91,3.47A36.2,36.2,0,0,0,160,45.17c0.22-.17,1-0.79.8-1.22s-1,0-1.24.07A8.55,8.55,0,0,0,157.05,45.76Z"/><path class="cls-9" d="M137,121.52l-7.65-2.25a2,2,0,0,1-1.33-2.44l2.09-7.19a2,2,0,0,1,2.43-1.33l7.65,2.25a2,2,0,0,1,1.33,2.44l-2.09,7.19A2,2,0,0,1,137,121.52Z"/><path class="cls-13" d="M136.15,121.26l-6.89-2A1.83,1.83,0,0,1,128,117l1.88-6.47a1.82,1.82,0,0,1,2.26-1.24l6.89,2a1.83,1.83,0,0,1,1.24,2.27L138.42,120A1.82,1.82,0,0,1,136.15,121.26Z"/><path class="cls-11" d="M130,110a1.28,1.28,0,0,1,1.64-.89l7.85,2.31a1.46,1.46,0,0,1,.88.86,1.35,1.35,0,0,1,0,.78l-2.16,7.44a1.31,1.31,0,0,1-.57.77,1.33,1.33,0,0,1-1.06.12,1.39,1.39,0,0,0,1-.49,1.3,1.3,0,0,0,.26-0.57L140,113a1.25,1.25,0,0,0-.63-1.19l-7.67-2.31a1.28,1.28,0,0,0-.7-0.11A1.37,1.37,0,0,0,130,110Z"/><path class="cls-8" d="M145.45,58.68a23.72,23.72,0,0,0-2.81-4.78c0.11-.15,2.1,1.25,3.45,3.94a7.89,7.89,0,0,1,1.06,4.39,7.29,7.29,0,0,1-.87,2.88,13,13,0,0,0,0-3.11A12.63,12.63,0,0,0,145.45,58.68Z"/><path class="cls-8" d="M144.18,74.86a3.78,3.78,0,0,0,.23-1.27,4.94,4.94,0,0,0-1.92-3.47c-2.1-2-5.12-4.42-5.31-4.08s1.49,2.4,3.43,3.95c1.32,1.06,2.58,1.69,3.25,3.49A6.33,6.33,0,0,1,144.18,74.86Z"/><path class="cls-8" d="M144.71,73.51a20.86,20.86,0,0,0-2.86-6.82c-1.34-2-3.53-4.39-3.86-4.05a0.33,0.33,0,0,0,0,.24c0.14,1.45,1.69,2.91,2.91,4.49,0.3,0.39.79,1.16,1.76,2.7S144.25,72.71,144.71,73.51Z"/><path class="cls-12" d="M150.55,51.41l-0.79,5.77a55.51,55.51,0,0,1-.12-9.19c0-.31.15-1.39,0.54-1.41s0.47,1.06.51,1.36A12.65,12.65,0,0,1,150.55,51.41Z"/><path class="cls-8" d="M137.52,112a2.12,2.12,0,0,1-.56-0.53,2.71,2.71,0,0,1-.16-2.33c0.43-1.71,1.23-3.91,1.45-3.82a6.23,6.23,0,0,1-.48,3.09,4.51,4.51,0,0,0-.54,2.81A3.37,3.37,0,0,0,137.52,112Z"/><path class="cls-8" d="M136.77,111.58a11.23,11.23,0,0,1-.81-4.26c0-1.43.39-3.34,0.68-3.3a0.19,0.19,0,0,1,.1.1c0.42,0.74.09,2,0,3.17,0,0.29,0,.83,0,1.91S136.74,111,136.77,111.58Z"/><path class="cls-8" d="M144.57,121.21l0,0.07,0.11,0.17h-0.58a7.47,7.47,0,0,0-2.72.53c-1.62.66-2.39,1.74-2.57,1.59s0.38-1.68,1.73-2.38a4.65,4.65,0,0,1,3.23-.2A7.14,7.14,0,0,1,144.57,121.21Z"/><path class="cls-8" d="M137.52,112c-1.39-1.16-4.71-3.78-7.07-4.16a1.57,1.57,0,0,0-.88,0c0,0.21,1.5.84,3,1.52A55.53,55.53,0,0,1,137.52,112Z"/><path class="cls-12" d="M146.89,116.06a0.89,0.89,0,0,1-.3.35,5.77,5.77,0,0,0-2.05,3,3.68,3.68,0,0,0,0,1.51c0,0.1,0,.2.07,0.29a6.5,6.5,0,0,0,.37.76l-0.64-.62a8.19,8.19,0,0,1-.38-0.92l-0.08-.25a3.78,3.78,0,0,1-.14-1.79c0.26-1.25,1.39-2,2.45-2.72a0.54,0.54,0,0,1,.59-0.09A0.39,0.39,0,0,1,146.89,116.06Z"/><path class="cls-12" d="M141.47,118a8.93,8.93,0,0,0-6.18-2.07,8.24,8.24,0,0,1-1,0c-0.61.11-.93,0.35-1,0.28a1.26,1.26,0,0,1,.76-1s1.42-.75,3.93.62h0s-1-.58-2.56-1.63a3.25,3.25,0,0,1-1.19-1.11c-0.43-.8-0.26-1.73,0-1.74s0.26,0.71,1,1.59a8,8,0,0,0,2,1.58c0.66,0.43,1,.6,1.37.81A10.17,10.17,0,0,1,141.47,118Z"/><path class="cls-12" d="M140,112.57c0.29-.86.58-0.88,0.93-1.84a2.54,2.54,0,0,0,.26-1.36,1.83,1.83,0,0,0-.7.8,8.24,8.24,0,0,0-1.37,2.6,3.75,3.75,0,0,0-.09,1.41c0,0.23.24,1.37,0.56,1.42s0.08-1.21.09-1.41A6.33,6.33,0,0,1,140,112.57Z"/><path class="cls-8" d="M134.55,106.87a1.59,1.59,0,0,0,0-.7,3.48,3.48,0,0,0-1.82-1.8c-1.73-1-4.14-2.18-4.22-2a8.82,8.82,0,0,0,2.91,2,6.49,6.49,0,0,1,2.72,1.76A3.58,3.58,0,0,1,134.55,106.87Z"/><path class="cls-8" d="M134.54,106.1a13.7,13.7,0,0,0-2.93-3.58c-1.21-1-3.05-2.24-3.23-2a0.14,0.14,0,0,0,0,.13c0.3,0.78,1.57,1.51,2.64,2.31,0.26,0.2.71,0.6,1.6,1.39S134.11,105.69,134.54,106.1Z"/><path class="cls-8" d="M136.78,100.29c0.2,0.13-.4,1.46-0.91,2.76-0.32.84-.71,1.93-1.09,3.28-0.07.26-.15,0.53-0.22,0.8l-0.11-.27c0-.34.05-0.71,0.1-1.1h0c0.19-1.75.62-3.88,1.59-5A1.24,1.24,0,0,1,136.78,100.29Z"/><path class="cls-12" d="M133.85,102.79l0.16,3.15a21.93,21.93,0,0,0,.7-4.82,0.91,0.91,0,0,0-.28-0.82,0.83,0.83,0,0,0-.45.64A5.1,5.1,0,0,0,133.85,102.79Z"/><path class="cls-8" d="M135.59,113.05a14.9,14.9,0,0,0-3.41-.27,5.35,5.35,0,0,1,3.26-.34,4.66,4.66,0,0,1,2.55,1,4,4,0,0,1,1.06,1.43,7.31,7.31,0,0,0-1.5-1.1A7.45,7.45,0,0,0,135.59,113.05Z"/><path class="cls-8" d="M142.95,119.32a2.1,2.1,0,0,0-.53-0.56,3.07,3.07,0,0,0-2.43-.25c-1.81.34-4.14,1-4,1.22a7.09,7.09,0,0,0,3.25-.33,5.11,5.11,0,0,1,3-.4A3.72,3.72,0,0,1,142.95,119.32Z"/><path class="cls-8" d="M142.5,118.58a12.72,12.72,0,0,0-4.42-1c-1.5,0-3.51.23-3.47,0.51a0.19,0.19,0,0,0,.1.1c0.76,0.44,2.07.17,3.31,0.12,0.31,0,.87,0,2,0.06S141.93,118.53,142.5,118.58Z"/><path class="cls-12" d="M134.06,108l2.49,2.4a31.42,31.42,0,0,1-4.51-3.14,1,1,0,0,1-.48-0.76,1.17,1.17,0,0,1,.86.22A7.11,7.11,0,0,1,134.06,108Z"/><path class="cls-8" d="M142.65,118.91a2.12,2.12,0,0,1-.56-0.53,2.71,2.71,0,0,1-.16-2.33c0.43-1.71,1.23-3.91,1.45-3.82a6.23,6.23,0,0,1-.48,3.09,4.51,4.51,0,0,0-.54,2.81A3.37,3.37,0,0,0,142.65,118.91Z"/><path class="cls-8" d="M141.89,118.45a11.23,11.23,0,0,1-.81-4.26c0-1.43.39-3.34,0.68-3.3a0.19,0.19,0,0,1,.1.1c0.42,0.74.09,2,0,3.17,0,0.29,0,.83,0,1.91S141.87,117.91,141.89,118.45Z"/><path class="cls-12" d="M134.55,105.77h0l0.23,0.56a43.35,43.35,0,0,0,4.3,7.94,61.73,61.73,0,0,0,4.78,5.92l0.43,0.47,0.05,0.06,0.13,0.15,0.05,0.06c1.84,2,3.51,3.6,4.83,4.79A51.43,51.43,0,0,1,145,122l-0.64-.62-0.4-.4-0.39-.4a47.94,47.94,0,0,1-4.77-5.73,46,46,0,0,1-4.19-7.7l-0.11-.27a35.68,35.68,0,0,1-1.87-5.69,3.36,3.36,0,0,1-.13-1.19C132.64,100,133.17,102.35,134.55,105.77Z"/><path class="cls-8" d="M133.16,102.44a4.56,4.56,0,0,1-1-3.56,2.43,2.43,0,0,1,1.58-1.76c0.14,0.11-.58.9-0.84,2.28A6.45,6.45,0,0,0,133.16,102.44Z"/><path class="cls-12" d="M133.28,102.7a5,5,0,0,0-2.06-3.25,3.33,3.33,0,0,0-2.61-.57c0,0.16,1.15.41,2.44,1.34A8.27,8.27,0,0,1,133.28,102.7Z"/><path class="cls-12" d="M132.83,101.25a5,5,0,0,1-1.91-3.31,2.45,2.45,0,0,1,.94-2.19c0.17,0.07-.27,1.06-0.11,2.51A7.3,7.3,0,0,0,132.83,101.25Z"/><path class="cls-8" d="M144.42,74a3.79,3.79,0,0,1,.16-1.28,4.65,4.65,0,0,1,2.86-2.63c2.6-1.21,6.17-2.44,6.25-2s-2.12,1.76-4.43,2.57c-1.57.55-3,.72-4.12,2.2A6,6,0,0,0,144.42,74Z"/><path class="cls-8" d="M144.32,72.58a19.67,19.67,0,0,1,4.74-5.49c1.87-1.45,4.66-3,4.87-2.52a0.33,0.33,0,0,1,0,.24c-0.56,1.33-2.47,2.18-4.1,3.26-0.41.27-1.1,0.83-2.48,2S145,72,144.32,72.58Z"/><path class="cls-12" d="M153.87,49.76h0c-0.17.29-.34,0.59-0.51,0.89a78.39,78.39,0,0,0-6.26,13.89A111.73,111.73,0,0,0,143.88,77l-0.21,1s0,0.09,0,.13,0,0.22-.07.33a0.94,0.94,0,0,1,0,.12c-0.87,4.49-1.38,8.35-1.71,11.33a91.91,91.91,0,0,1,.76-9.66c0.06-.49.13-1,0.2-1.49l0.14-.94c0-.31.1-0.62,0.15-0.93a86.72,86.72,0,0,1,3-12.22,83.26,83.26,0,0,1,6-13.5l0.24-.42a63.71,63.71,0,0,1,5.6-8.37s1.25-1.57,1.41-1.41S157,44.41,153.87,49.76Z"/><path class="cls-14" d="M152.29,136.87a16.15,16.15,0,0,1-2.34,6.58l-0.18.14a16.41,16.41,0,0,1-7.09,3.12,15,15,0,0,1-2.87.22,15.89,15.89,0,0,1-9-3.07,6.69,6.69,0,0,1-2.74-5.07l-0.28-4.68a8.78,8.78,0,0,1,4.43-1.94c6.14-.72,9.79,6.43,16.42,5.83A9.71,9.71,0,0,0,152.29,136.87Z"/><path class="cls-8" d="M156.87,44.47c0.23-.73,1.27-3.91,3.71-4.95,1.82-.78,3.74-0.07,3.73.26s-1.69.17-3.71,1.25A11.12,11.12,0,0,0,156.87,44.47Z"/><ellipse class="cls-15" cx="142.03" cy="138.43" rx="2.25" ry="2.64" transform="translate(-55.91 150.93) rotate(-47.88)"/><ellipse class="cls-16" cx="140.88" cy="137.4" rx="0.87" ry="1.1" transform="translate(-45.56 74.43) rotate(-25.62)"/><ellipse class="cls-15" cx="135.29" cy="140.61" rx="2.2" ry="2.46" transform="translate(-59.75 146.65) rotate(-47.88)"/><ellipse class="cls-16" cx="134.25" cy="139.74" rx="0.87" ry="1.1" transform="translate(-47.23 71.79) rotate(-25.62)"/><path class="cls-12" d="M156.64,44.91a9,9,0,0,0,2.28-6.08c-0.14-2.32-1.44-4.17-1.68-4s0.54,1.94.53,4.61A14.93,14.93,0,0,1,156.64,44.91Z"/><path class="cls-17" d="M152.29,136.87l-0.14,2.23a6.12,6.12,0,0,1-2.2,4.35l-0.18.14a16.41,16.41,0,0,1-7.09,3.12,15,15,0,0,1-2.87.22,15.89,15.89,0,0,1-9-3.07,6.69,6.69,0,0,1-2.74-5.07c4,2.71,7,2.9,9,2.56,4.41-.74,7.17-4.66,10.31-5.71a4.51,4.51,0,0,1,2.5-.15A5.41,5.41,0,0,1,152.29,136.87Z"/><path class="cls-18" d="M123.31,59.59a14.25,14.25,0,0,0,5.34,4.06c9,3.87,18.52-3.86,18.91-4.19a44.7,44.7,0,0,1-6.61-.29c-6.26-.75-8.92-2.38-13.12-1.53A12.54,12.54,0,0,0,123.31,59.59Z"/><path class="cls-19" d="M133.11,57.14a2.29,2.29,0,0,1-1.21.35,4.14,4.14,0,0,0-3.33,1.36c-1.35,1.79-.19,4.62,1.45,6,2.37,2,5.57.87,5.71,0.82a5.08,5.08,0,0,0,2.2-1.75c1.63-2.37,1.14-6.54-1.15-7.48C135.45,55.89,133.93,56.63,133.11,57.14Z"/><path class="cls-20" d="M134.34,58.5a1.93,1.93,0,0,1-2.26.71l-0.08,0a1.44,1.44,0,0,1-.94-0.73c0-.27.79-0.39,1.48-0.45a1,1,0,0,0,.52-0.18c0.49-.34,1.31-0.85,1.57-0.62a1.31,1.31,0,0,1-.21,1.18Z"/><path class="cls-9" d="M130.59,84.52l-4.66-6.06a1.89,1.89,0,0,1,.34-2.64L132,71.42a1.87,1.87,0,0,1,2.63.34l4.66,6.06a1.89,1.89,0,0,1-.34,2.64l-5.68,4.39A1.87,1.87,0,0,1,130.59,84.52Z"/><path class="cls-21" d="M130.05,83.81l-4.19-5.46a1.76,1.76,0,0,1,.32-2.46l5.11-4a1.74,1.74,0,0,1,2.45.32l4.19,5.46a1.76,1.76,0,0,1-.32,2.46l-5.11,4A1.74,1.74,0,0,1,130.05,83.81Z"/><path class="cls-11" d="M131.67,71.64a1.22,1.22,0,0,1,1.77.23l4.78,6.23a1.4,1.4,0,0,1,.2,1.16,1.29,1.29,0,0,1-.43.62l-5.87,4.54a1.26,1.26,0,0,1-.88.27,1.28,1.28,0,0,1-.89-0.5,1.33,1.33,0,0,0,1,.16,1.24,1.24,0,0,0,.52-0.3l5.81-4.49a1.2,1.2,0,0,0,.19-1.28l-4.65-6.12a1.23,1.23,0,0,0-.48-0.48A1.32,1.32,0,0,0,131.67,71.64Z"/><path class="cls-22" d="M132.17,64.81c-2.49-.91-3.66-3.36-3-5.16a2.94,2.94,0,0,1,.54-0.93,0.36,0.36,0,0,1,.59.41,3.77,3.77,0,0,0-.4,1.13A4.4,4.4,0,0,0,132.17,64.81Z"/><path class="cls-22" d="M137.11,63.58c1.55-2.15,1.14-4.84-.4-6a2.94,2.94,0,0,0-1-.46,0.36,0.36,0,0,0-.26.67,3.77,3.77,0,0,1,1,.71A4.4,4.4,0,0,1,137.11,63.58Z"/><path class="cls-23" d="M157.11,60.76l-0.18,2.93-0.56,9.41-32.17.1q-0.09-1.53-.18-3.06-0.33-5.29-.71-10.51a0.13,0.13,0,0,1,0,0l0,0a15.91,15.91,0,0,0,8.08,4.2A14,14,0,0,0,133,64c4.22,0.14,6.24-1.57,12.78-3.82a19.66,19.66,0,0,1,6.72-1.42,16.65,16.65,0,0,1,3.51.36A3.92,3.92,0,0,1,157.11,60.76Z"/><path class="cls-18" d="M131.49,64.31l-2.09,0-5.76.07c-0.11-1.59-.21-3.18-0.32-4.77l0,0a5.68,5.68,0,0,1,7.8,3.13,5.15,5.15,0,0,1,.28,1.07A3.49,3.49,0,0,1,131.49,64.31Z"/><path class="cls-18" d="M138.46,64.22l-7,.09-2.09,0a4.63,4.63,0,0,1,1.75-1.58,6,6,0,0,1,2.82-.68A5.41,5.41,0,0,1,138.46,64.22Z"/><path class="cls-18" d="M157.11,60.41l-0.18,2.93a4,4,0,1,1-4.54-5.58,3.7,3.7,0,0,1,.91-0.11A4,4,0,0,1,156,58.72,3.92,3.92,0,0,1,157.11,60.41Z"/><path class="cls-18" d="M151.31,60.37a1.66,1.66,0,0,1-.89,1.35,4.66,4.66,0,0,1-2.51.66c-1.88,0-3.39-.9-3.39-2,0-.85.9-1.58,2.18-1.86a5.24,5.24,0,0,1,1.22-.14h0a5,5,0,0,1,1.44.2C150.51,58.89,151.31,59.57,151.31,60.37Z"/><path class="cls-12" d="M158.1,42.8c0.06-.77.36-4.14,2.5-6,1.6-1.36,3.63-1.34,3.69-1s-1.61.74-3.33,2.45A13.07,13.07,0,0,0,158.1,42.8Z"/><polyline class="cls-24" points="147.91 64.1 138.46 64.22 131.49 64.31 129.4 64.34 123.64 64.41 122.31 64.42"/><ellipse class="cls-15" cx="138.88" cy="142.22" rx="2.56" ry="2.27" transform="translate(-59.76 149.84) rotate(-47.88)"/><ellipse class="cls-16" cx="139.49" cy="140.8" rx="1.1" ry="0.87" transform="translate(-47.17 74.16) rotate(-25.62)"/><ellipse class="cls-15" cx="145.65" cy="140.66" rx="2.52" ry="2.26" transform="translate(-56.37 154.35) rotate(-47.88)"/><ellipse class="cls-16" cx="146.23" cy="139.28" rx="1.1" ry="0.87" transform="translate(-45.85 76.93) rotate(-25.62)"/><path class="cls-25" d="M133.07,84.54a2.4,2.4,0,0,1-1.26.37,4.34,4.34,0,0,0-3.48,1.42c-1.41,1.87-.2,4.84,1.52,6.29,2.48,2.1,5.83.91,6,.86a5.32,5.32,0,0,0,2.3-1.83c1.7-2.48,1.19-6.85-1.2-7.83C135.52,83.24,133.93,84,133.07,84.54Z"/><path class="cls-20" d="M134.36,86a2,2,0,0,1-2.37.75l-0.09,0a1.51,1.51,0,0,1-1-.76c0-.29.82-0.41,1.55-0.47a1.09,1.09,0,0,0,.54-0.19c0.51-.36,1.37-0.89,1.64-0.65a1.37,1.37,0,0,1-.22,1.23Z"/><path class="cls-22" d="M132.08,92.57c-2.61-1-3.83-3.52-3.17-5.41a3.07,3.07,0,0,1,.56-1,0.37,0.37,0,0,1,.61.43,4,4,0,0,0-.42,1.18A4.61,4.61,0,0,0,132.08,92.57Z"/><path class="cls-22" d="M137.25,91.28c1.62-2.26,1.19-5.06-.42-6.25a3.07,3.07,0,0,0-1-.49,0.37,0.37,0,0,0-.27.7,4,4,0,0,1,1,.74A4.61,4.61,0,0,1,137.25,91.28Z"/><path class="cls-9" d="M144,101.59l-4.86-6.33a2,2,0,0,1,.36-2.75l5.92-4.58a2,2,0,0,1,2.74.36L153,94.6a2,2,0,0,1-.36,2.75l-5.92,4.58A2,2,0,0,1,144,101.59Z"/><path class="cls-26" d="M143.43,100.85l-4.37-5.69a1.83,1.83,0,0,1,.33-2.56l5.33-4.12a1.82,1.82,0,0,1,2.56.33l4.37,5.69a1.83,1.83,0,0,1-.33,2.56L146,101.18A1.82,1.82,0,0,1,143.43,100.85Z"/><path class="cls-11" d="M145.11,88.16a1.28,1.28,0,0,1,1.85.24l5,6.49a1.46,1.46,0,0,1,.21,1.21,1.35,1.35,0,0,1-.45.64l-6.13,4.74a1.31,1.31,0,0,1-.92.29,1.33,1.33,0,0,1-.93-0.53,1.39,1.39,0,0,0,1.06.17,1.3,1.3,0,0,0,.54-0.31l6.06-4.69a1.25,1.25,0,0,0,.2-1.33l-4.85-6.38a1.28,1.28,0,0,0-.5-0.5A1.37,1.37,0,0,0,145.11,88.16Z"/><path class="cls-8" d="M147.59,96.69c0.09-.76.53-4.08,2.73-5.55C152,90,154,90.38,154,90.71s-1.63.48-3.42,1.92A11.12,11.12,0,0,0,147.59,96.69Z"/><path class="cls-12" d="M147.57,96.55c-0.09-.77-0.41-4.13,1.36-6.31,1.32-1.63,3.32-2,3.44-1.69s-1.45,1-2.82,3A13.07,13.07,0,0,0,147.57,96.55Z"/><path class="cls-27" d="M144.77,100.43a2.4,2.4,0,0,1-1.27-.35,4.34,4.34,0,0,0-3.71-.62c-2.19.85-2.71,4-2,6.15,1,3.09,4.48,3.84,4.64,3.87a5.32,5.32,0,0,0,2.92-.35c2.75-1.21,4.61-5.2,3.09-7.29C147.54,100.61,145.78,100.42,144.77,100.43Z"/><path class="cls-20" d="M145.12,102.32a2,2,0,0,1-2.4-.61l-0.06-.07a1.51,1.51,0,0,1-.44-1.17c0.19-.22.92,0.08,1.56,0.41a1.09,1.09,0,0,0,.56.12c0.62,0,1.63,0,1.74.31a1.37,1.37,0,0,1-.83.93Z"/><path class="cls-22" d="M139.71,106.74c-1.71-2.18-1.41-5,.15-6.26a3.07,3.07,0,0,1,1-.53,0.37,0.37,0,0,1,.3.68,4,4,0,0,0-1,.78A4.61,4.61,0,0,0,139.71,106.74Z"/><path class="cls-22" d="M144.79,108.36c2.56-1.07,3.68-3.68,2.93-5.54a3.07,3.07,0,0,0-.6-0.94,0.37,0.37,0,0,0-.59.45,4,4,0,0,1,.47,1.16A4.61,4.61,0,0,1,144.79,108.36Z"/><path class="cls-8" d="M129.09,129.48c0.75-.17,4-1,5.22-3.3,0.92-1.75.37-3.72,0-3.74s-0.31,1.67-1.54,3.6A11.12,11.12,0,0,1,129.09,129.48Z"/><path class="cls-12" d="M129.23,129.49c0.77,0,4.15,0,6.13-2,1.48-1.49,1.62-3.51,1.32-3.6s-0.87,1.55-2.71,3.13A13.07,13.07,0,0,1,129.23,129.49Z"/><path class="cls-12" d="M139.15,134.76c-0.68-.36-3.71-1.87-6.38-1-2,.64-3.05,2.38-2.82,2.6s1.48-1,3.84-1.54A13.07,13.07,0,0,1,139.15,134.76Z"/><path class="cls-28" d="M142.41,131.36a2.4,2.4,0,0,1,1,.87,4.34,4.34,0,0,0,3.06,2.18c2.34,0.19,4.19-2.42,4.5-4.65,0.45-3.22-2.35-5.42-2.48-5.51a5.32,5.32,0,0,0-2.78-1c-3-.11-6.42,2.66-6,5.21C140,130,141.5,130.92,142.41,131.36Z"/><path class="cls-20" d="M142.93,129.51a2,2,0,0,1,1.9,1.6l0,0.09a1.51,1.51,0,0,1-.12,1.24c-0.27.12-.79-0.47-1.22-1.06A1.09,1.09,0,0,0,143,131c-0.58-.24-1.49-0.68-1.43-1a1.37,1.37,0,0,1,1.16-.47h0.15Z"/><path class="cls-29" d="M149.72,127.9c0.59,2.71-.92,5.12-2.87,5.57a3.07,3.07,0,0,1-1.12,0,0.37,0.37,0,0,1,0-.75,4,4,0,0,0,1.22-.27A4.61,4.61,0,0,0,149.72,127.9Z"/><path class="cls-29" d="M145.86,124.22c-2.77-.16-4.91,1.7-5.06,3.7a3.07,3.07,0,0,0,.13,1.11,0.37,0.37,0,0,0,.73-0.15,4,4,0,0,1,.08-1.25A4.61,4.61,0,0,1,145.86,124.22Z"/><path class="cls-30" d="M156.42,73.1Q155.76,83.56,155.08,94l-2.75,42.84-0.14,2.23a6.13,6.13,0,0,1-2.38,4.49,16.41,16.41,0,0,1-7.09,3.12,15,15,0,0,1-2.87.22,15.89,15.89,0,0,1-9-3.07,6.69,6.69,0,0,1-2.74-5.07l-3.8-65.69h32.15Z"/><path class="cls-31" d="M122.63,46.83c2.85,51.28,5.06,88.81,5.43,92.06a7.48,7.48,0,0,0,1.1,3.27,8.86,8.86,0,0,0,3.67,3,15.39,15.39,0,0,0,4.89,1.65l0.74,0.1a13.21,13.21,0,0,1-5.78-5.95,12.73,12.73,0,0,1-1.1-3.82c-0.07-.56-0.09-1-0.09-1.1-0.08-1.88-1.93-38.38-4.53-89.57Z"/><path class="cls-32" d="M157.7,46.64l-2.78,47.3-2.65,44.74a7.74,7.74,0,0,1-1,3.27,8.39,8.39,0,0,1-3.41,3,13.63,13.63,0,0,1-4.54,1.65l-0.69.1a12.76,12.76,0,0,0,5.37-5.95,13.49,13.49,0,0,0,1-3.82c0.07-.56.08-1,0.09-1.1,0.07-1.88,1.79-38.38,4.21-89.57Z"/><ellipse class="cls-33" cx="133.29" cy="122.45" rx="1.12" ry="1.09" transform="translate(-26.79 206.92) rotate(-70.4)"/><ellipse class="cls-34" cx="132.64" cy="134.48" rx="1.62" ry="1.58" transform="translate(-38.55 214.31) rotate(-70.4)"/><ellipse class="cls-35" cx="130.19" cy="128.32" rx="1.83" ry="1.78" transform="translate(-34.38 207.91) rotate(-70.4)"/><ellipse class="cls-36" cx="132.05" cy="118.32" rx="0.86" ry="0.84" transform="translate(-23.72 203.01) rotate(-70.4)"/><ellipse class="cls-37" cx="153.42" cy="84.19" rx="1.12" ry="1.09" transform="translate(22.64 200.47) rotate(-70.4)"/><ellipse class="cls-38" cx="149.8" cy="89.07" rx="1.83" ry="1.78" transform="translate(15.63 200.3) rotate(-70.4)"/><ellipse class="cls-39" cx="151.66" cy="79.07" rx="0.86" ry="0.84" transform="translate(26.29 195.4) rotate(-70.4)"/><ellipse class="cls-40" cx="136.8" cy="140.05" rx="0.79" ry="0.77" transform="translate(-41.03 221.93) rotate(-70.4)"/><ellipse class="cls-41" cx="135.93" cy="137.14" rx="0.61" ry="0.59" transform="translate(-38.87 219.17) rotate(-70.4)"/><ellipse class="cls-42" cx="142.42" cy="34.55" rx="1.98" ry="1.94" transform="translate(62.09 157.12) rotate(-70.4)"/><ellipse class="cls-43" cx="134.05" cy="38.72" rx="2.87" ry="2.81" transform="matrix(0.34, -0.94, 0.94, 0.34, 52.6, 152.01)"/><ellipse class="cls-44" cx="139.25" cy="47.22" rx="3.23" ry="3.17" transform="translate(48.04 162.55) rotate(-70.4)"/><ellipse class="cls-45" cx="137.71" cy="27.7" rx="1.1" ry="1.08" transform="translate(65.41 148.13) rotate(-70.4)"/><path class="cls-46" d="M126.34,64.23a1.54,1.54,0,0,1,0-2.12,1.41,1.41,0,0,1,2-.08l0.06,0.05a1.54,1.54,0,0,1,0,2.12,1.41,1.41,0,0,1-2,.08Z"/><circle class="cls-47" cx="135.06" cy="64.1" r="0.96"/><circle class="cls-48" cx="129.9" cy="65.02" r="0.48"/><circle class="cls-49" cx="131.38" cy="63.86" r="0.48"/><path class="cls-50" d="M152.42,61.24a1.54,1.54,0,0,1,0-2.12,1.41,1.41,0,0,1,2-.08l0.06,0.05a1.54,1.54,0,0,1,0,2.12,1.41,1.41,0,0,1-2,.08Z"/><circle class="cls-51" cx="153.7" cy="68.09" r="0.96"/><circle class="cls-52" cx="148.53" cy="69" r="0.48"/><circle class="cls-53" cx="150.02" cy="67.84" r="0.48"/></svg>