<?xml version="1.0" encoding="utf-8"?>
<!-- Generator: Adobe Illustrator 19.2.1, SVG Export Plug-In . SVG Version: 6.00 Build 0)  -->
<svg version="1.1" id="Layer_1" xmlns="http://www.w3.org/2000/svg" xmlns:xlink="http://www.w3.org/1999/xlink" x="0px" y="0px"
	 viewBox="0 0 287.6 183.9" style="enable-background:new 0 0 287.6 183.9;" xml:space="preserve">
<style type="text/css">
	.st0{fill:url(#SVGID_1_);}
	.st1{fill:#E27469;}
	.st2{fill:#F8D9D7;}
	.st3{fill:#F4CAC9;}
	.st4{fill:#F6D5D5;}
	.st5{fill:url(#SVGID_2_);}
	.st6{opacity:0.83;fill:url(#SVGID_3_);enable-background:new    ;}
	.st7{fill:#3F8E6A;}
	.st8{opacity:0.46;fill:#FFFFFF;enable-background:new    ;}
	.st9{opacity:0.73;fill:url(#SVGID_4_);enable-background:new    ;}
	.st10{opacity:0.75;fill:#FFFFFF;enable-background:new    ;}
	.st11{fill:#668D3E;}
	.st12{opacity:0.73;fill:url(#SVGID_5_);enable-background:new    ;}
	.st13{fill:#E06E6E;}
	.st14{fill:#89181F;}
	.st15{opacity:0.57;fill:#531116;enable-background:new    ;}
	.st16{fill:#A92123;}
	.st17{fill:#FDF0F0;}
	.st18{fill:url(#SVGID_6_);}
	.st19{fill:#DB2E2A;}
	.st20{opacity:0.73;fill:url(#SVGID_7_);enable-background:new    ;}
	.st21{opacity:0.15;fill:#F4B5B5;enable-background:new    ;}
	.st22{fill:url(#SVGID_8_);}
	.st23{fill:none;}
	.st24{fill:url(#SVGID_9_);}
	.st25{opacity:0.73;fill:url(#SVGID_10_);enable-background:new    ;}
	.st26{fill:url(#SVGID_11_);}
	.st27{opacity:0.67;fill:url(#SVGID_12_);enable-background:new    ;}
	.st28{opacity:0.18;fill:#F4B5B5;enable-background:new    ;}
	.st29{opacity:0.5;fill:url(#SVGID_13_);enable-background:new    ;}
	.st30{opacity:0.44;fill:#FFFFFF;enable-background:new    ;}
	.st31{opacity:0.24;fill:#FFFFFF;enable-background:new    ;}
	.st32{opacity:0.39;fill:url(#SVGID_14_);enable-background:new    ;}
	.st33{opacity:0.39;fill:url(#SVGID_15_);enable-background:new    ;}
	.st34{opacity:0.39;fill:url(#SVGID_16_);enable-background:new    ;}
	.st35{opacity:0.39;fill:url(#SVGID_17_);enable-background:new    ;}
	.st36{opacity:0.39;fill:url(#SVGID_18_);enable-background:new    ;}
	.st37{opacity:0.39;fill:url(#SVGID_19_);enable-background:new    ;}
	.st38{opacity:0.39;fill:url(#SVGID_20_);enable-background:new    ;}
	.st39{opacity:0.39;fill:url(#SVGID_21_);enable-background:new    ;}
	.st40{opacity:0.39;fill:url(#SVGID_22_);enable-background:new    ;}
	.st41{opacity:0.39;fill:url(#SVGID_23_);enable-background:new    ;}
	.st42{opacity:0.39;fill:url(#SVGID_24_);enable-background:new    ;}
	.st43{opacity:0.39;fill:url(#SVGID_25_);enable-background:new    ;}
	.st44{opacity:0.39;fill:url(#SVGID_26_);enable-background:new    ;}
	.st45{opacity:0.39;fill:url(#SVGID_27_);enable-background:new    ;}
	.st46{opacity:0.39;fill:url(#SVGID_28_);enable-background:new    ;}
	.st47{opacity:0.39;fill:url(#SVGID_29_);enable-background:new    ;}
	.st48{opacity:0.39;fill:url(#SVGID_30_);enable-background:new    ;}
	.st49{opacity:0.39;fill:url(#SVGID_31_);enable-background:new    ;}
	.st50{opacity:0.39;fill:url(#SVGID_32_);enable-background:new    ;}
	.st51{opacity:0.39;fill:url(#SVGID_33_);enable-background:new    ;}
	.st52{opacity:0.39;fill:url(#SVGID_34_);enable-background:new    ;}
</style>
<title>fizz</title>
<radialGradient id="SVGID_1_" cx="143.8" cy="93.33" r="120.6923" gradientTransform="matrix(1 0 0 -1 0 185.28)" gradientUnits="userSpaceOnUse">
	<stop  offset="5.000000e-02" style="stop-color:#F6B9AD"/>
	<stop  offset="0.67" style="stop-color:#EF8975"/>
	<stop  offset="0.89" style="stop-color:#ED7E6A"/>
</radialGradient>
<rect y="0" class="st0" width="287.6" height="183.9"/>
<ellipse class="st1" cx="140.1" cy="159.8" rx="18.4" ry="3.8"/>
<path class="st2" d="M160.9,48.1l-7.3,110.1c0,1-0.8,1.8-1.8,1.9c-3.7,0.4-7.4,0.6-11.1,0.6c-4.1,0-8.3-0.2-12.4-0.6
	c-0.9-0.1-1.7-0.9-1.7-1.8c-2.4-36.7-4.9-73.3-7.3-110c0-0.6,0.4-1.1,1-1.2c2-0.2,4.1-0.4,6.2-0.5l2.9-0.2h0.9h0.1h0.7
	c2.7-0.1,5.6-0.2,8.5-0.2c7.4,0,14.2,0.4,20.4,1C160.5,47.2,160.9,47.6,160.9,48.1z"/>
<path class="st3" d="M152.4,145.2l-0.6,10.8c-0.1,1-0.9,1.8-1.9,1.8h-19.5c-0.7,0-1.3-0.4-1.5-1.1c0-0.1-0.1-0.2-0.1-0.3l-0.7-11.1
	C135.4,150.6,145.3,150.6,152.4,145.2z"/>
<path class="st4" d="M152.4,145.2l-0.6,10.8c0,1-0.8,1.8-1.8,1.8h-2.8c0.2-0.1,0.4-0.3,0.5-0.5c0-0.3-1.1-0.5-4.3-0.5V149
	C146.6,148.5,149.8,147.2,152.4,145.2z"/>
<path class="st3" d="M148.4,147.6l0.6-0.3c0.3-0.1,0.6-0.3,0.8-0.4v10.9h-1.4L148.4,147.6L148.4,147.6z"/>
<linearGradient id="SVGID_2_" gradientUnits="userSpaceOnUse" x1="140.305" y1="38.3771" x2="140.305" y2="112.18" gradientTransform="matrix(1 0 0 -1 0 185.28)">
	<stop  offset="0" style="stop-color:#A11E22"/>
	<stop  offset="4.000000e-02" style="stop-color:#B63330"/>
	<stop  offset="0.12" style="stop-color:#C03C39"/>
	<stop  offset="0.25" style="stop-color:#D34D4A"/>
	<stop  offset="0.37" style="stop-color:#F26561"/>
	<stop  offset="0.71" style="stop-color:#F3B7A8"/>
	<stop  offset="0.95" style="stop-color:#F4DACD"/>
</linearGradient>
<path class="st5" d="M156.4,73.1c-0.4,7-0.9,13.9-1.4,20.9l-2.8,42.8l-0.1,2.2c-0.1,1.7-0.9,3.3-2.2,4.4l-0.2,0.1
	c-2.1,1.6-4.5,2.7-7.1,3.1c-0.9,0.2-1.9,0.2-2.9,0.2c-3.2-0.1-6.4-1.2-9-3.1c-1.6-1.2-2.6-3.1-2.7-5.1l-0.5-8l-3.3-57.7H156.4z"/>
<linearGradient id="SVGID_3_" gradientUnits="userSpaceOnUse" x1="140.365" y1="27.4797" x2="140.365" y2="29.97" gradientTransform="matrix(1 0 0 -1 0 185.28)">
	<stop  offset="0" style="stop-color:#F4CAC9"/>
	<stop  offset="0.64" style="stop-color:#FBEBE9"/>
</linearGradient>
<path class="st6" d="M151.7,156.5c-0.3,0.8-1,1.3-1.8,1.3h-19.5c-0.7,0-1.3-0.4-1.5-1.1c1.1-0.8,5.9-1.4,11.5-1.4
	C145.8,155.3,150.2,155.8,151.7,156.5z"/>
<path class="st7" d="M148.5,60.2c0-0.4,0-0.9,0.2-1.3c0.5-1.3,1.6-2.2,2.9-2.6c2.6-1.2,6.2-2.4,6.2-2s-2.1,1.8-4.4,2.6
	c-1.6,0.5-3,0.7-4.1,2.2C149,59.4,148.7,59.8,148.5,60.2z"/>
<path class="st8" d="M144.6,82.2l-5.2-6.8c-0.7-0.9-0.6-2.3,0.4-3c0,0,0,0,0,0l6.4-4.9c0.9-0.7,2.2-0.6,3,0.3c0,0,0,0,0,0l5.2,6.8
	c0.7,0.9,0.6,2.3-0.4,3c0,0,0,0,0,0l-6.4,4.9C146.7,83.3,145.4,83.2,144.6,82.2C144.6,82.3,144.6,82.3,144.6,82.2z"/>
<linearGradient id="SVGID_4_" gradientUnits="userSpaceOnUse" x1="50.6985" y1="153.764" x2="65.2259" y2="153.764" gradientTransform="matrix(0.9867 0.1625 0.1625 -0.9867 63.8763 217.2452)">
	<stop  offset="0" style="stop-color:#FFE6C6"/>
	<stop  offset="0.97" style="stop-color:#FFFFFF"/>
</linearGradient>
<path class="st9" d="M144,81.4l-4.7-6.2c-0.7-0.9-0.5-2.1,0.4-2.8l5.8-4.4c0.9-0.6,2.1-0.5,2.8,0.4l4.7,6.2c0.7,0.9,0.5,2.1-0.4,2.8
	l-5.8,4.4C145.9,82.5,144.7,82.3,144,81.4z"/>
<path class="st10" d="M145.8,67.7c0.6-0.5,1.5-0.4,1.9,0.2c0,0,0,0,0.1,0.1l5.4,7c0.3,0.4,0.3,0.9,0.2,1.3c-0.1,0.3-0.3,0.5-0.5,0.7
	l-6.6,5.1c-0.3,0.2-0.6,0.3-1,0.3c-0.4,0-0.8-0.2-1-0.6c0.3,0.2,0.8,0.3,1.1,0.2c0.2-0.1,0.4-0.2,0.6-0.3l6.5-5.1
	c0.3-0.4,0.4-1,0.2-1.4l-5.2-6.9c-0.1-0.2-0.3-0.4-0.6-0.5C146.6,67.6,146.2,67.6,145.8,67.7z"/>
<path class="st7" d="M148.4,58.7c1.2-2.1,2.8-4,4.7-5.5c1.9-1.5,4.7-3,4.9-2.5c0,0.1,0,0.2,0,0.2c-0.6,1.3-2.5,2.2-4.1,3.3
	c-0.4,0.3-1.1,0.8-2.5,2S149.1,58.1,148.4,58.7z"/>
<path class="st7" d="M143.2,79v0.1c0,0.1-0.1,0.2-0.1,0.3c-0.2-0.2-0.3-0.5-0.5-0.8c-0.9-1.2-1.9-2.2-3.2-3
	c-2.4-1.4-4.4-1.3-4.4-1.7s2.5-1.2,4.7-0.2c1.5,0.9,2.7,2.4,3.2,4.1C143,78.2,143.1,78.6,143.2,79z"/>
<path class="st7" d="M148.5,60.2c0.2-3,0.5-10.1-1.2-13.6c-0.2-0.3-0.6-1.3-0.8-1.2s0.3,2.8,0.8,5.5
	C147.7,53.1,148.2,56.2,148.5,60.2z"/>
<path class="st11" d="M152,76.7c-0.2,0.1-0.5,0.1-0.7,0c-1.9-0.5-4-0.4-5.8,0.4c-0.8,0.4-1.4,0.9-2,1.5l-0.3,0.4
	c-0.2,0.4-0.5,0.8-0.6,1.3c0.1-0.5,0.1-1,0.2-1.5c0.2-0.5,0.5-1,0.8-1.4l0.2-0.4c0.6-0.8,1.3-1.5,2.2-2c1.9-1,3.9-0.3,5.8,0.4
	c0.3,0.1,0.6,0.3,0.7,0.7C152.4,76.4,152.2,76.6,152,76.7z"/>
<path class="st11" d="M144.4,71.6c0.3-3.7-0.8-7.3-3-10.3c-0.3-0.4-0.6-0.8-0.9-1.3c-0.7-0.7-1.3-0.9-1.3-1c0.6-0.4,1.3-0.4,1.9,0
	c0,0,2.3,1.1,2.8,5.8l0,0c0,0-0.2-2-0.3-5.1c-0.1-0.9,0-1.8,0.3-2.7c0.6-1.4,2-2.1,2.2-1.8s-0.7,1.1-1.1,3c-0.3,1.4-0.3,2.9-0.2,4.3
	c0.1,1.3,0.2,2,0.2,2.6C145.3,67.3,145.1,69.5,144.4,71.6z"/>
<path class="st11" d="M150.1,63.9c1.4-0.5,1.7-0.2,3.2-0.7c0.9-0.3,2-0.8,2-1.1s-0.8-0.2-1.7-0.1c-1.6,0-3.2,0.3-4.7,0.9
	c-0.7,0.3-1.3,0.8-1.9,1.3c-0.3,0.3-1.5,1.7-1.3,2.2c0.1,0.3,1.6-1.1,1.9-1.3C148.5,64.7,149.3,64.3,150.1,63.9z"/>
<path class="st7" d="M152.4,50.9c0.3-0.2,0.6-0.4,0.9-0.8c0.8-1.1,0.8-2.8,0.6-4.3c-0.3-3.3-1-7.7-1.3-7.6s-0.3,3.1,0.1,5.9
	c0.3,1.9,0.8,3.5,0.2,5.4C152.9,50,152.7,50.5,152.4,50.9z"/>
<path class="st7" d="M153.4,50.1c1-2.4,1.7-5,1.9-7.6c0.2-2.7,0.1-6.3-0.4-6.4c-0.1,0-0.1,0.1-0.2,0.2c-0.7,1.2-0.5,3.6-0.6,5.9
	c0,0.6-0.1,1.5-0.3,3.5S153.6,49.1,153.4,50.1z"/>
<path class="st7" d="M163,47c0,0.4-2.2,1-4.4,1.7c-1.4,0.4-3.1,1.1-5.2,2l-1.2,0.5l0.2-0.4c0.4-0.3,1-0.7,1.5-1l0,0
	c2.4-1.6,5.6-3.2,7.9-3.1C162.1,46.7,163,46.8,163,47z"/>
<path class="st11" d="M157.1,45.8l-3.9,3.5c2.4-1.1,4.7-2.5,6.9-4.1c0.2-0.2,1-0.8,0.8-1.2s-1,0-1.2,0.1
	C158.6,44.4,157.8,45,157.1,45.8z"/>
<path class="st8" d="M137,121.5l-7.6-2.2c-1-0.3-1.6-1.4-1.3-2.4l2.1-7.2c0.3-1,1.4-1.6,2.4-1.3l7.6,2.2c1,0.3,1.6,1.4,1.3,2.4
	l-2.1,7.2C139.1,121.2,138,121.8,137,121.5z"/>
<linearGradient id="SVGID_5_" gradientUnits="userSpaceOnUse" x1="552.7129" y1="-111.7236" x2="566.1942" y2="-111.7236" gradientTransform="matrix(0.8932 -0.4496 -0.4496 -0.8932 -415.7709 267.0156)">
	<stop  offset="0" style="stop-color:#FFE6C6"/>
	<stop  offset="0.97" style="stop-color:#FFFFFF"/>
</linearGradient>
<path class="st12" d="M136.1,121.3l-6.9-2c-1-0.3-1.5-1.3-1.3-2.3l1.9-6.5c0.3-1,1.3-1.5,2.3-1.2c0,0,0,0,0,0l6.9,2
	c1,0.3,1.5,1.3,1.2,2.3l-1.9,6.4C138.2,121,137.1,121.5,136.1,121.3C136.2,121.3,136.2,121.3,136.1,121.3z"/>
<path class="st10" d="M130,110c0.2-0.7,0.9-1.1,1.6-0.9c0,0,0.1,0,0.1,0l7.9,2.3c0.4,0.1,0.7,0.5,0.9,0.9c0.1,0.3,0.1,0.5,0,0.8
	l-2.2,7.4c-0.1,0.3-0.3,0.6-0.6,0.8c-0.3,0.2-0.7,0.2-1.1,0.1c0.4,0,0.7-0.2,1-0.5c0.1-0.2,0.2-0.4,0.3-0.6l2.2-7.3
	c0-0.5-0.2-0.9-0.6-1.2l-7.7-2.3c-0.2-0.1-0.5-0.1-0.7-0.1C130.6,109.4,130.2,109.7,130,110z"/>
<path class="st7" d="M145.4,58.7c-0.7-1.7-1.7-3.3-2.8-4.8c0.1-0.2,2.1,1.2,3.4,3.9c0.8,1.3,1.1,2.9,1.1,4.4c-0.1,1-0.4,2-0.9,2.9
	c0.1-1,0.1-2.1,0-3.1C146.2,60.9,145.9,59.7,145.4,58.7z"/>
<path class="st7" d="M144.2,74.9c0.1-0.4,0.2-0.8,0.2-1.3c-0.1-1.4-0.8-2.6-1.9-3.5c-2.1-2-5.1-4.4-5.3-4.1s1.5,2.4,3.4,3.9
	c1.3,1.1,2.6,1.7,3.2,3.5C144,73.9,144.1,74.4,144.2,74.9z"/>
<path class="st7" d="M144.7,73.5c-0.5-2.4-1.5-4.7-2.9-6.8c-1.3-2-3.5-4.4-3.9-4c0,0.1,0,0.2,0,0.2c0.1,1.4,1.7,2.9,2.9,4.5
	c0.3,0.4,0.8,1.2,1.8,2.7S144.2,72.7,144.7,73.5z"/>
<path class="st11" d="M150.6,51.4l-0.8,5.8c-0.3-3.1-0.3-6.1-0.1-9.2c0-0.3,0.1-1.4,0.5-1.4s0.5,1.1,0.5,1.4
	C150.8,49.1,150.8,50.3,150.6,51.4z"/>
<path class="st7" d="M137.5,112c-0.2-0.1-0.4-0.3-0.6-0.5c-0.4-0.7-0.5-1.6-0.2-2.3c0.4-1.7,1.2-3.9,1.4-3.8
	c0.1,1.1-0.1,2.1-0.5,3.1c-0.5,0.9-0.7,1.8-0.5,2.8C137.3,111.5,137.4,111.8,137.5,112z"/>
<path class="st7" d="M136.8,111.6c-0.5-1.4-0.8-2.8-0.8-4.3c0-1.4,0.4-3.3,0.7-3.3c0,0,0.1,0.1,0.1,0.1c0.4,0.7,0.1,2,0,3.2
	c0,0.3,0,0.8,0,1.9S136.7,111,136.8,111.6z"/>
<path class="st7" d="M144.6,121.2L144.6,121.2l0.1,0.2h-0.6c-0.9,0-1.9,0.2-2.7,0.5c-1.6,0.7-2.4,1.7-2.6,1.6s0.4-1.7,1.7-2.4
	c1-0.5,2.2-0.5,3.2-0.2C144,121,144.3,121.1,144.6,121.2z"/>
<path class="st7" d="M137.5,112c-1.4-1.2-4.7-3.8-7.1-4.2c-0.3-0.1-0.6-0.1-0.9,0c0,0.2,1.5,0.8,3,1.5
	C134.3,110.2,135.9,111,137.5,112z"/>
<path class="st11" d="M146.9,116.1c-0.1,0.1-0.2,0.3-0.3,0.3c-1,0.8-1.7,1.8-2.1,3c-0.1,0.5-0.1,1,0,1.5c0,0.1,0,0.2,0.1,0.3
	c0.1,0.3,0.2,0.5,0.4,0.8l-0.6-0.6c-0.1-0.3-0.3-0.6-0.4-0.9l-0.1-0.2c-0.2-0.6-0.2-1.2-0.1-1.8c0.3-1.2,1.4-2,2.4-2.7
	c0.2-0.1,0.4-0.2,0.6-0.1C146.9,115.7,147,115.9,146.9,116.1z"/>
<path class="st11" d="M141.5,118c-1.7-1.4-3.9-2.2-6.2-2.1c-0.3,0-0.7,0-1,0c-0.6,0.1-0.9,0.3-1,0.3c0.1-0.4,0.3-0.8,0.8-1
	c0,0,1.4-0.8,3.9,0.6l0,0c0,0-1-0.6-2.6-1.6c-0.5-0.3-0.9-0.6-1.2-1.1c-0.4-0.8-0.3-1.7,0-1.7s0.3,0.7,1,1.6c0.6,0.6,1.3,1.2,2,1.6
	c0.7,0.4,1,0.6,1.4,0.8C139.7,116,140.7,116.9,141.5,118z"/>
<path class="st11" d="M140,112.6c0.3-0.9,0.6-0.9,0.9-1.8c0.2-0.4,0.3-0.9,0.3-1.4c-0.3,0.2-0.6,0.5-0.7,0.8
	c-0.6,0.8-1.1,1.7-1.4,2.6c-0.1,0.5-0.1,0.9-0.1,1.4c0,0.2,0.2,1.4,0.6,1.4s0.1-1.2,0.1-1.4C139.7,113.6,139.8,113.1,140,112.6z"/>
<path class="st7" d="M134.6,106.9c0.1-0.2,0.1-0.5,0-0.7c-0.4-0.8-1-1.5-1.8-1.8c-1.7-1-4.1-2.2-4.2-2c0.8,0.9,1.8,1.5,2.9,2
	c1,0.3,2,1,2.7,1.8C134.3,106.4,134.4,106.6,134.6,106.9z"/>
<path class="st7" d="M134.5,106.1c-0.8-1.4-1.8-2.6-2.9-3.6c-1.2-1-3.1-2.2-3.2-2c0,0,0,0.1,0,0.1c0.3,0.8,1.6,1.5,2.6,2.3
	c0.3,0.2,0.7,0.6,1.6,1.4S134.1,105.7,134.5,106.1z"/>
<path class="st7" d="M136.8,100.3c0.2,0.1-0.4,1.5-0.9,2.8c-0.3,0.8-0.7,1.9-1.1,3.3c-0.1,0.3-0.1,0.5-0.2,0.8l-0.1-0.3
	c0-0.3,0.1-0.7,0.1-1.1l0,0c0.2-1.8,0.6-3.9,1.6-5C136.3,100.5,136.5,100.4,136.8,100.3z"/>
<path class="st11" d="M133.9,102.8l0.2,3.2c0.4-1.6,0.6-3.2,0.7-4.8c0.1-0.3-0.1-0.6-0.3-0.8c-0.2,0.1-0.4,0.4-0.4,0.6
	C133.8,101.5,133.8,102.2,133.9,102.8z"/>
<path class="st7" d="M135.6,113c-1.1-0.2-2.3-0.3-3.4-0.3c1-0.5,2.2-0.6,3.3-0.3c0.9,0.1,1.8,0.4,2.6,1c0.5,0.4,0.8,0.9,1.1,1.4
	c-0.5-0.4-1-0.8-1.5-1.1C136.9,113.4,136.3,113.2,135.6,113z"/>
<path class="st7" d="M142.9,119.3c-0.1-0.2-0.3-0.4-0.5-0.6c-0.7-0.4-1.6-0.5-2.4-0.2c-1.8,0.3-4.1,1-4,1.2c1.1,0.1,2.2,0,3.2-0.3
	c0.9-0.4,2-0.6,3-0.4C142.5,119.1,142.7,119.2,142.9,119.3z"/>
<path class="st7" d="M142.5,118.6c-1.4-0.6-2.9-0.9-4.4-1c-1.5,0-3.5,0.2-3.5,0.5c0,0,0.1,0.1,0.1,0.1c0.8,0.4,2.1,0.2,3.3,0.1
	c0.3,0,0.9,0,2,0.1S141.9,118.5,142.5,118.6z"/>
<path class="st11" d="M134.1,108l2.5,2.4c-1.6-0.9-3.1-2-4.5-3.1c-0.3-0.2-0.4-0.4-0.5-0.8c0.3,0,0.6,0,0.9,0.2
	C133,107.1,133.6,107.5,134.1,108z"/>
<path class="st7" d="M142.6,118.9c-0.2-0.1-0.4-0.3-0.6-0.5c-0.4-0.7-0.5-1.6-0.2-2.3c0.4-1.7,1.2-3.9,1.4-3.8
	c0.1,1.1-0.1,2.1-0.5,3.1c-0.5,0.9-0.7,1.8-0.5,2.8C142.4,118.4,142.5,118.7,142.6,118.9z"/>
<path class="st7" d="M141.9,118.4c-0.5-1.4-0.8-2.8-0.8-4.3c0-1.4,0.4-3.3,0.7-3.3c0,0,0.1,0.1,0.1,0.1c0.4,0.7,0.1,2,0,3.2
	c0,0.3,0,0.8,0,1.9S141.9,117.9,141.9,118.4z"/>
<path class="st11" d="M134.6,105.8L134.6,105.8l0.2,0.6c1.2,2.8,2.6,5.5,4.3,7.9c1.5,2.1,3.1,4,4.8,5.9l0.4,0.5l0.1,0.1l0.1,0.2
	l0.1,0.1c1.8,2,3.5,3.6,4.8,4.8c-1.5-1.2-3-2.4-4.4-3.7l-0.6-0.6L144,121l-0.4-0.4c-1.7-1.8-3.3-3.7-4.8-5.7c-1.6-2.4-3-5-4.2-7.7
	l-0.1-0.3c-0.8-1.8-1.4-3.7-1.9-5.7c-0.1-0.4-0.2-0.8-0.1-1.2C132.6,100,133.2,102.3,134.6,105.8z"/>
<path class="st7" d="M133.2,102.4c-0.8-1-1.2-2.3-1-3.6c0.2-0.8,0.8-1.5,1.6-1.8c0.1,0.1-0.6,0.9-0.8,2.3
	C132.7,100.4,132.8,101.5,133.2,102.4z"/>
<path class="st11" d="M133.3,102.7c-0.2-1.3-1-2.5-2.1-3.2c-0.8-0.5-1.7-0.8-2.6-0.6c0,0.2,1.1,0.4,2.4,1.3
	C132,100.9,132.7,101.7,133.3,102.7z"/>
<path class="st11" d="M132.8,101.2c-1-0.8-1.7-2-1.9-3.3c-0.1-0.8,0.3-1.7,0.9-2.2c0.2,0.1-0.3,1.1-0.1,2.5
	C131.9,99.3,132.3,100.3,132.8,101.2z"/>
<path class="st7" d="M144.4,74c0-0.4,0-0.9,0.2-1.3c0.5-1.3,1.6-2.2,2.9-2.6c2.6-1.2,6.2-2.4,6.2-2s-2.1,1.8-4.4,2.6
	c-1.6,0.6-3,0.7-4.1,2.2C144.9,73.2,144.6,73.6,144.4,74z"/>
<path class="st7" d="M144.3,72.6c1.2-2.1,2.8-4,4.7-5.5c1.9-1.4,4.7-3,4.9-2.5c0,0.1,0,0.2,0,0.2c-0.6,1.3-2.5,2.2-4.1,3.3
	c-0.4,0.3-1.1,0.8-2.5,2S145,72,144.3,72.6z"/>
<path class="st11" d="M153.9,49.8L153.9,49.8c-0.2,0.3-0.3,0.6-0.5,0.9c-2.5,4.4-4.6,9.1-6.3,13.9c-1.3,4.1-2.4,8.2-3.2,12.5l-0.2,1
	c0,0,0,0.1,0,0.1s0,0.2-0.1,0.3c0,0,0,0.1,0,0.1c-0.9,4.5-1.4,8.3-1.7,11.3c0.1-3.2,0.3-6.5,0.8-9.7c0.1-0.5,0.1-1,0.2-1.5l0.1-0.9
	c0-0.3,0.1-0.6,0.1-0.9c0.7-4.1,1.7-8.2,3-12.2c1.6-4.7,3.6-9.2,6-13.5l0.2-0.4c1.6-2.9,3.5-5.7,5.6-8.4c0,0,1.2-1.6,1.4-1.4
	S157,44.4,153.9,49.8z"/>
<path class="st13" d="M152.3,136.9c-0.3,2.3-1.1,4.6-2.3,6.6l-0.2,0.1c-2.1,1.6-4.5,2.7-7.1,3.1c-0.9,0.2-1.9,0.2-2.9,0.2
	c-3.2-0.1-6.4-1.2-9-3.1c-1.6-1.2-2.6-3.1-2.7-5.1l-0.3-4.7c1.3-1,2.8-1.7,4.4-1.9c6.1-0.7,9.8,6.4,16.4,5.8
	C149.9,137.9,151.2,137.5,152.3,136.9z"/>
<path class="st7" d="M156.9,44.5c0.2-0.7,1.3-3.9,3.7-5c1.8-0.8,3.7-0.1,3.7,0.3s-1.7,0.2-3.7,1.2C159.1,41.9,157.8,43.1,156.9,44.5
	z"/>
<ellipse transform="matrix(0.6707 -0.7417 0.7417 0.6707 -55.9029 150.932)" class="st14" cx="142" cy="138.4" rx="2.2" ry="2.6"/>
<ellipse transform="matrix(0.9017 -0.4324 0.4324 0.9017 -45.5626 74.4263)" class="st15" cx="140.9" cy="137.4" rx="0.9" ry="1.1"/>
<ellipse transform="matrix(0.6707 -0.7417 0.7417 0.6707 -59.7417 146.6485)" class="st14" cx="135.3" cy="140.6" rx="2.2" ry="2.5"/>
<ellipse transform="matrix(0.9017 -0.4324 0.4324 0.9017 -47.2255 71.7865)" class="st15" cx="134.2" cy="139.7" rx="0.9" ry="1.1"/>
<path class="st11" d="M156.6,44.9c1.5-1.7,2.3-3.8,2.3-6.1c-0.1-2.3-1.4-4.2-1.7-4s0.5,1.9,0.5,4.6
	C157.7,41.3,157.4,43.2,156.6,44.9z"/>
<path class="st16" d="M152.3,136.9l-0.1,2.2c-0.1,1.7-0.9,3.3-2.2,4.4l-0.2,0.1c-2.1,1.6-4.5,2.7-7.1,3.1c-0.9,0.2-1.9,0.2-2.9,0.2
	c-3.2-0.1-6.4-1.2-9-3.1c-1.6-1.2-2.6-3.1-2.7-5.1c4,2.7,7,2.9,9,2.6c4.4-0.7,7.2-4.7,10.3-5.7c0.8-0.3,1.7-0.3,2.5-0.1
	C150.8,135.7,151.6,136.2,152.3,136.9z"/>
<path class="st17" d="M123.3,59.6c1.4,1.8,3.3,3.2,5.3,4.1c9,3.9,18.5-3.9,18.9-4.2c-2.2,0.1-4.4,0-6.6-0.3
	c-6.3-0.8-8.9-2.4-13.1-1.5C126.2,58,124.7,58.6,123.3,59.6z"/>
<linearGradient id="SVGID_6_" gradientUnits="userSpaceOnUse" x1="249.2803" y1="81.1424" x2="249.2803" y2="71.6797" gradientTransform="matrix(0.9895 -0.1445 -0.1445 -0.9895 -102.0711 172.9723)">
	<stop  offset="0.38" style="stop-color:#EE3624"/>
	<stop  offset="1" style="stop-color:#A82723"/>
</linearGradient>
<path class="st18" d="M133.1,57.1c-0.4,0.2-0.8,0.3-1.2,0.3c-1.3-0.1-2.5,0.4-3.3,1.4c-1.3,1.8-0.2,4.6,1.4,6c2.4,2,5.6,0.9,5.7,0.8
	c0.9-0.4,1.6-1,2.2-1.8c1.6-2.4,1.1-6.5-1.1-7.5C135.4,55.9,133.9,56.6,133.1,57.1z"/>
<path class="st19" d="M134.3,58.5c-0.5,0.7-1.4,1-2.3,0.7H132c-0.4-0.1-0.7-0.4-0.9-0.7c0-0.3,0.8-0.4,1.5-0.5
	c0.2,0,0.4-0.1,0.5-0.2c0.5-0.3,1.3-0.8,1.6-0.6C134.8,57.6,134.7,58.1,134.3,58.5L134.3,58.5z"/>
<path class="st8" d="M130.6,84.5l-4.7-6.1c-0.6-0.8-0.5-2,0.3-2.6l5.7-4.4c0.8-0.6,2-0.5,2.6,0.3c0,0,0,0,0,0l4.7,6.1
	c0.6,0.8,0.5,2-0.3,2.6l-5.7,4.4C132.5,85.5,131.3,85.4,130.6,84.5C130.6,84.6,130.6,84.5,130.6,84.5z"/>
<linearGradient id="SVGID_7_" gradientUnits="userSpaceOnUse" x1="38.0405" y1="148.436" x2="50.9478" y2="148.436" gradientTransform="matrix(0.9867 0.1625 0.1625 -0.9867 63.8763 217.2452)">
	<stop  offset="0" style="stop-color:#FFE6C6"/>
	<stop  offset="0.97" style="stop-color:#FFFFFF"/>
</linearGradient>
<path class="st20" d="M130.1,83.8l-4.2-5.5c-0.6-0.8-0.4-1.9,0.3-2.5l5.1-4c0.8-0.6,1.9-0.5,2.4,0.3c0,0,0,0,0,0l4.2,5.5
	c0.6,0.8,0.4,1.9-0.3,2.5l-5.1,4C131.7,84.7,130.6,84.6,130.1,83.8C130.1,83.8,130.1,83.8,130.1,83.8z"/>
<path class="st10" d="M131.7,71.6c0.5-0.4,1.3-0.4,1.7,0.2c0,0,0,0,0.1,0.1l4.8,6.2c0.2,0.3,0.3,0.8,0.2,1.2
	c-0.1,0.2-0.2,0.5-0.4,0.6l-5.9,4.5c-0.2,0.2-0.6,0.3-0.9,0.3c-0.4,0-0.7-0.2-0.9-0.5c0.3,0.2,0.7,0.2,1,0.2
	c0.2-0.1,0.4-0.2,0.5-0.3l5.8-4.5c0.3-0.4,0.4-0.9,0.2-1.3l-4.6-6.1c-0.1-0.2-0.3-0.4-0.5-0.5C132.4,71.5,132,71.5,131.7,71.6z"/>
<path class="st21" d="M132.2,64.8c-2.5-0.9-3.7-3.4-3-5.2c0.1-0.3,0.3-0.7,0.5-0.9c0.1-0.2,0.4-0.2,0.5-0.1c0.1,0.1,0.2,0.3,0.1,0.5
	c-0.2,0.4-0.3,0.7-0.4,1.1C129.6,62.1,130.5,63.9,132.2,64.8z"/>
<path class="st21" d="M137.1,63.6c1.6-2.2,1.1-4.8-0.4-6c-0.3-0.2-0.6-0.4-1-0.5c-0.2-0.1-0.4,0-0.5,0.2c-0.1,0.2,0,0.4,0.2,0.4
	c0.4,0.2,0.7,0.4,1,0.7C137.7,59.9,138,61.9,137.1,63.6z"/>
<linearGradient id="SVGID_8_" gradientUnits="userSpaceOnUse" x1="140.21" y1="126.57" x2="140.21" y2="112.08" gradientTransform="matrix(1 0 0 -1 0 185.28)">
	<stop  offset="8.000000e-02" style="stop-color:#FEF1F0"/>
	<stop  offset="0.62" style="stop-color:#FEF1F0"/>
	<stop  offset="0.9" style="stop-color:#F9EBE3"/>
	<stop  offset="0.95" style="stop-color:#F7E4DA"/>
	<stop  offset="1" style="stop-color:#F4DACD"/>
</linearGradient>
<path class="st22" d="M157.1,60.8l-0.2,2.9l-0.6,9.4l-32.2,0.1c-0.1-1-0.1-2-0.2-3.1c-0.2-3.5-0.5-7-0.7-10.5l0,0l0,0
	c2.2,2.2,5,3.6,8.1,4.2c0.5,0.1,1.1,0.1,1.6,0.2c4.2,0.1,6.2-1.6,12.8-3.8c2.1-0.9,4.4-1.3,6.7-1.4c1.2,0,2.4,0.1,3.5,0.4
	C156.5,59.6,156.9,60.1,157.1,60.8z"/>
<path class="st17" d="M131.5,64.3h-2.1l-5.8,0.1c-0.1-1.6-0.2-3.2-0.3-4.8l0,0c2.8-1.4,6.2-0.2,7.6,2.6c0.1,0.2,0.1,0.3,0.2,0.5
	c0.1,0.3,0.2,0.7,0.3,1.1C131.4,64,131.5,64.1,131.5,64.3z"/>
<path class="st17" d="M138.5,64.2l-7,0.1h-2.1c0.4-0.7,1-1.2,1.8-1.6c0.9-0.5,1.8-0.7,2.8-0.7C135.7,62,137.4,62.8,138.5,64.2z"/>
<path class="st17" d="M157.1,60.4l-0.2,2.9c-0.9,2-3.3,2.9-5.3,1.9c-2-0.9-2.9-3.3-1.9-5.3c0.5-1.1,1.5-1.9,2.7-2.2
	c0.3-0.1,0.6-0.1,0.9-0.1c1,0,2,0.4,2.7,1.1C156.5,59.2,156.9,59.8,157.1,60.4z"/>
<path class="st17" d="M151.3,60.4c0,0.6-0.4,1.1-0.9,1.3c-0.8,0.5-1.6,0.7-2.5,0.7c-1.9,0-3.4-0.9-3.4-2c0-0.8,0.9-1.6,2.2-1.9
	c0.4-0.1,0.8-0.1,1.2-0.1l0,0c0.5,0,1,0.1,1.4,0.2C150.5,58.9,151.3,59.6,151.3,60.4z"/>
<path class="st11" d="M158.1,42.8c0.1-0.8,0.4-4.1,2.5-6c1.6-1.4,3.6-1.3,3.7-1s-1.6,0.7-3.3,2.5C159.7,39.6,158.7,41.1,158.1,42.8z
	"/>
<polyline class="st23" points="147.9,64.1 138.5,64.2 131.5,64.3 129.4,64.3 123.6,64.4 122.3,64.4 "/>
<ellipse transform="matrix(0.6707 -0.7417 0.7417 0.6707 -59.7508 149.842)" class="st14" cx="138.9" cy="142.2" rx="2.6" ry="2.3"/>
<ellipse transform="matrix(0.9017 -0.4324 0.4324 0.9017 -47.1683 74.1578)" class="st15" cx="139.5" cy="140.8" rx="1.1" ry="0.9"/>
<ellipse transform="matrix(0.6707 -0.7417 0.7417 0.6707 -56.3647 154.3531)" class="st14" cx="145.6" cy="140.7" rx="2.5" ry="2.3"/>
<ellipse transform="matrix(0.9017 -0.4324 0.4324 0.9017 -45.8506 76.9233)" class="st15" cx="146.2" cy="139.3" rx="1.1" ry="0.9"/>
<linearGradient id="SVGID_9_" gradientUnits="userSpaceOnUse" x1="245.294" y1="54.0624" x2="245.294" y2="44.1499" gradientTransform="matrix(0.9895 -0.1445 -0.1445 -0.9895 -102.0711 172.9723)">
	<stop  offset="0.38" style="stop-color:#EE3624"/>
	<stop  offset="1" style="stop-color:#A82723"/>
</linearGradient>
<path class="st24" d="M133.1,84.5c-0.4,0.2-0.8,0.4-1.3,0.4c-1.3-0.1-2.6,0.4-3.5,1.4c-1.4,1.9-0.2,4.8,1.5,6.3
	c2.5,2.1,5.8,0.9,6,0.9c0.9-0.4,1.7-1,2.3-1.8c1.7-2.5,1.2-6.8-1.2-7.8C135.5,83.2,133.9,84,133.1,84.5z"/>
<path class="st19" d="M134.4,86c-0.5,0.8-1.5,1.1-2.4,0.8h-0.1c-0.4-0.1-0.8-0.4-1-0.8c0-0.3,0.8-0.4,1.6-0.5c0.2,0,0.4-0.1,0.5-0.2
	c0.5-0.4,1.4-0.9,1.6-0.7C134.8,85.1,134.7,85.6,134.4,86L134.4,86z"/>
<path class="st21" d="M132.1,92.6c-2.6-1-3.8-3.5-3.2-5.4c0.1-0.4,0.3-0.7,0.6-1c0.1-0.2,0.4-0.2,0.5-0.1c0.2,0.1,0.2,0.4,0.1,0.5
	c-0.2,0.4-0.3,0.8-0.4,1.2C129.4,89.7,130.3,91.7,132.1,92.6z"/>
<path class="st21" d="M137.2,91.3c1.6-2.3,1.2-5.1-0.4-6.2c-0.3-0.2-0.6-0.4-1-0.5c-0.2-0.1-0.4,0-0.5,0.2s0,0.4,0.2,0.5l0,0
	c0.4,0.2,0.7,0.4,1,0.7C137.9,87.4,138.2,89.5,137.2,91.3z"/>
<path class="st8" d="M144,101.6l-4.9-6.3c-0.6-0.9-0.5-2.1,0.4-2.8l5.9-4.6c0.9-0.6,2.1-0.5,2.7,0.4l4.8,6.3
	c0.6,0.9,0.5,2.1-0.4,2.8l-5.9,4.6C145.9,102.6,144.7,102.4,144,101.6z"/>
<linearGradient id="SVGID_10_" gradientUnits="userSpaceOnUse" x1="53.7717" y1="134.0241" x2="67.2443" y2="134.0241" gradientTransform="matrix(0.9867 0.1625 0.1625 -0.9867 63.8763 217.2452)">
	<stop  offset="0" style="stop-color:#FFE6C6"/>
	<stop  offset="0.97" style="stop-color:#FFFFFF"/>
</linearGradient>
<path class="st25" d="M143.4,100.8l-4.4-5.7c-0.6-0.8-0.5-1.9,0.3-2.6l5.3-4.1c0.8-0.6,1.9-0.5,2.6,0.3c0,0,0,0,0,0l4.4,5.7
	c0.6,0.8,0.5,1.9-0.3,2.6l-5.3,4.1C145.2,101.8,144.1,101.7,143.4,100.8C143.4,100.9,143.4,100.9,143.4,100.8z"/>
<path class="st10" d="M145.1,88.2c0.5-0.4,1.4-0.4,1.8,0.2c0,0,0,0,0,0.1l5,6.5c0.2,0.4,0.3,0.8,0.2,1.2c-0.1,0.3-0.2,0.5-0.4,0.6
	l-6.1,4.7c-0.3,0.2-0.6,0.3-0.9,0.3c-0.4,0-0.7-0.2-0.9-0.5c0.3,0.2,0.7,0.3,1.1,0.2c0.2-0.1,0.4-0.2,0.5-0.3l6.1-4.7
	c0.3-0.4,0.4-0.9,0.2-1.3l-4.9-6.4c-0.1-0.2-0.3-0.4-0.5-0.5C145.9,88,145.5,88,145.1,88.2z"/>
<path class="st7" d="M147.6,96.7c0.1-0.8,0.5-4.1,2.7-5.6c1.7-1.1,3.7-0.8,3.7-0.4s-1.6,0.5-3.4,1.9
	C149.3,93.7,148.3,95.1,147.6,96.7z"/>
<path class="st11" d="M147.6,96.5c-0.1-0.8-0.4-4.1,1.4-6.3c1.3-1.6,3.3-2,3.4-1.7s-1.4,1-2.8,3C148.6,93.1,147.9,94.8,147.6,96.5z"
	/>
<linearGradient id="SVGID_11_" gradientUnits="userSpaceOnUse" x1="-234.1585" y1="94.2073" x2="-234.1585" y2="84.2973" gradientTransform="matrix(0.92 0.4 0.4 -0.92 322.498 280.3876)">
	<stop  offset="0.38" style="stop-color:#EE3624"/>
	<stop  offset="1" style="stop-color:#A82723"/>
</linearGradient>
<path class="st26" d="M144.8,100.4c-0.4,0-0.9-0.1-1.3-0.3c-1.1-0.8-2.4-1-3.7-0.6c-2.2,0.8-2.7,4-2,6.2c1,3.1,4.5,3.8,4.6,3.9
	c1,0.2,2,0,2.9-0.3c2.8-1.2,4.6-5.2,3.1-7.3C147.5,100.6,145.8,100.4,144.8,100.4z"/>
<path class="st19" d="M145.1,102.3c-0.8,0.4-1.8,0.1-2.4-0.6l-0.1-0.1c-0.3-0.3-0.5-0.7-0.4-1.2c0.2-0.2,0.9,0.1,1.6,0.4
	c0.2,0.1,0.4,0.1,0.6,0.1c0.6,0,1.6,0,1.7,0.3c-0.1,0.4-0.4,0.8-0.8,0.9L145.1,102.3z"/>
<path class="st21" d="M139.7,106.7c-1.7-2.2-1.4-5,0.1-6.3c0.3-0.2,0.6-0.4,1-0.5c0.2-0.1,0.4,0,0.5,0.2c0.1,0.2,0,0.4-0.2,0.5
	c-0.4,0.2-0.7,0.5-1,0.8C138.9,102.9,138.7,105,139.7,106.7z"/>
<path class="st21" d="M144.8,108.4c2.6-1.1,3.7-3.7,2.9-5.5c-0.1-0.3-0.3-0.7-0.6-0.9c-0.1-0.2-0.4-0.2-0.5-0.1
	c-0.2,0.1-0.2,0.4-0.1,0.5c0.2,0.4,0.4,0.8,0.5,1.2C147.4,105.4,146.5,107.4,144.8,108.4z"/>
<path class="st7" d="M129.1,129.5c0.8-0.2,4-1,5.2-3.3c0.9-1.8,0.4-3.7,0-3.7s-0.3,1.7-1.5,3.6C131.8,127.5,130.6,128.6,129.1,129.5
	z"/>
<path class="st11" d="M129.2,129.5c0.8,0,4.1,0,6.1-2c1.5-1.5,1.6-3.5,1.3-3.6s-0.9,1.6-2.7,3.1C132.6,128.2,131,129,129.2,129.5z"
	/>
<path class="st11" d="M139.1,134.8c-0.7-0.4-3.7-1.9-6.4-1c-2,0.6-3.1,2.4-2.8,2.6s1.5-1,3.8-1.5
	C135.6,134.4,137.4,134.4,139.1,134.8z"/>
<linearGradient id="SVGID_12_" gradientUnits="userSpaceOnUse" x1="437.7976" y1="-1509.9424" x2="437.7976" y2="-1519.8524" gradientTransform="matrix(-0.65 -0.76 -0.76 0.65 -718.8172 1444.2479)">
	<stop  offset="0.38" style="stop-color:#EE3624"/>
	<stop  offset="1" style="stop-color:#A82723"/>
</linearGradient>
<path class="st27" d="M142.4,131.4c0.4,0.2,0.8,0.5,1,0.9c0.6,1.2,1.8,2,3.1,2.2c2.3,0.2,4.2-2.4,4.5-4.6c0.4-3.2-2.4-5.4-2.5-5.5
	c-0.8-0.6-1.8-0.9-2.8-1c-3-0.1-6.4,2.7-6,5.2C140,130,141.5,130.9,142.4,131.4z"/>
<path class="st19" d="M142.9,129.5c0.9,0,1.7,0.7,1.9,1.6v0.1c0.1,0.4,0.1,0.9-0.1,1.2c-0.3,0.1-0.8-0.5-1.2-1.1
	c-0.1-0.2-0.3-0.3-0.5-0.4c-0.6-0.2-1.5-0.7-1.4-1c0.3-0.3,0.7-0.5,1.2-0.5L142.9,129.5L142.9,129.5z"/>
<path class="st28" d="M149.7,127.9c0.6,2.7-0.9,5.1-2.9,5.6c-0.4,0.1-0.7,0.1-1.1,0c-0.2,0-0.4-0.2-0.4-0.4s0.2-0.4,0.4-0.4l0,0
	c0.4,0,0.8-0.1,1.2-0.3C148.7,131.7,149.9,129.9,149.7,127.9z"/>
<path class="st28" d="M145.9,124.2c-2.8-0.2-4.9,1.7-5.1,3.7c0,0.4,0,0.8,0.1,1.1c0,0.2,0.2,0.3,0.4,0.3c0.2,0,0.3-0.2,0.3-0.4
	c0-0.4,0-0.8,0.1-1.2C142.2,125.7,143.9,124.4,145.9,124.2z"/>
<linearGradient id="SVGID_13_" gradientUnits="userSpaceOnUse" x1="140.385" y1="38.3771" x2="140.385" y2="112.21" gradientTransform="matrix(1 0 0 -1 0 185.28)">
	<stop  offset="0" style="stop-color:#A11E22"/>
	<stop  offset="4.000000e-02" style="stop-color:#B63330"/>
	<stop  offset="0.12" style="stop-color:#C03C39"/>
	<stop  offset="0.25" style="stop-color:#D34D4A"/>
	<stop  offset="0.37" style="stop-color:#F26561"/>
	<stop  offset="0.71" style="stop-color:#F3B7A8"/>
	<stop  offset="0.95" style="stop-color:#F4DACD"/>
</linearGradient>
<path class="st29" d="M156.4,73.1c-0.4,7-0.9,13.9-1.3,20.9l-2.8,42.8l-0.1,2.2c-0.1,1.8-1,3.4-2.4,4.5c-2.1,1.6-4.5,2.7-7.1,3.1
	c-0.9,0.2-1.9,0.2-2.9,0.2c-3.2-0.1-6.4-1.2-9-3.1c-1.6-1.2-2.6-3.1-2.7-5.1l-3.8-65.7L156.4,73.1L156.4,73.1z"/>
<path class="st30" d="M122.6,46.8c2.8,51.3,5.1,88.8,5.4,92.1c0.1,1.2,0.5,2.3,1.1,3.3c0.9,1.3,2.2,2.4,3.7,3
	c1.5,0.8,3.2,1.4,4.9,1.6l0.7,0.1c-2.5-1.3-4.5-3.4-5.8-5.9c-0.6-1.2-0.9-2.5-1.1-3.8c-0.1-0.6-0.1-1-0.1-1.1
	c-0.1-1.9-1.9-38.4-4.5-89.6L122.6,46.8z"/>
<path class="st31" d="M157.7,46.6l-2.8,47.3l-2.6,44.7c-0.1,1.2-0.4,2.3-1,3.3c-0.8,1.3-2,2.3-3.4,3c-1.4,0.8-2.9,1.4-4.5,1.6
	l-0.7,0.1c2.4-1.4,4.3-3.4,5.4-5.9c0.5-1.2,0.9-2.5,1-3.8c0.1-0.6,0.1-1,0.1-1.1c0.1-1.9,1.8-38.4,4.2-89.6L157.7,46.6z"/>
<radialGradient id="SVGID_14_" cx="133.29" cy="62.83" r="1.1" gradientTransform="matrix(1 0 0 -1 -2.366461e-02 185.2686)" gradientUnits="userSpaceOnUse">
	<stop  offset="0.7" style="stop-color:#F7C5BA"/>
	<stop  offset="1" style="stop-color:#FFFFFF"/>
</radialGradient>
<path class="st32" d="M132.3,122.1c0.2-0.6,0.8-0.9,1.4-0.7c0.6,0.2,0.9,0.8,0.7,1.4c-0.2,0.6-0.8,0.9-1.4,0.7
	C132.3,123.3,132,122.6,132.3,122.1z"/>
<radialGradient id="SVGID_15_" cx="132.64" cy="50.8" r="1.6" gradientTransform="matrix(1 0 0 -1 -2.554146e-02 185.2751)" gradientUnits="userSpaceOnUse">
	<stop  offset="0.7" style="stop-color:#F7C5BA"/>
	<stop  offset="1" style="stop-color:#FFFFFF"/>
</radialGradient>
<path class="st33" d="M131.1,133.9c0.3-0.8,1.2-1.3,2-1c0.8,0.3,1.2,1.2,0.9,2.1c-0.3,0.8-1.2,1.3-2,1
	C131.3,135.7,130.8,134.8,131.1,133.9z"/>
<radialGradient id="SVGID_16_" cx="130.19" cy="56.96" r="1.8" gradientTransform="matrix(1 0 0 -1 -2.481570e-02 185.2775)" gradientUnits="userSpaceOnUse">
	<stop  offset="0.7" style="stop-color:#F7C5BA"/>
	<stop  offset="1" style="stop-color:#FFFFFF"/>
</radialGradient>
<path class="st34" d="M128.5,127.7c0.3-1,1.4-1.5,2.3-1.1c0.9,0.3,1.4,1.4,1.1,2.3c-0.3,1-1.4,1.5-2.3,1.1
	C128.6,129.7,128.2,128.7,128.5,127.7z"/>
<radialGradient id="SVGID_17_" cx="132.05" cy="66.96" r="0.85" gradientTransform="matrix(1 0 0 -1 -1.602467e-02 185.2785)" gradientUnits="userSpaceOnUse">
	<stop  offset="0.7" style="stop-color:#F7C5BA"/>
	<stop  offset="1" style="stop-color:#FFFFFF"/>
</radialGradient>
<path class="st35" d="M131.2,118c0.2-0.4,0.6-0.7,1.1-0.5c0.4,0.2,0.7,0.6,0.5,1.1c-0.2,0.4-0.6,0.7-1.1,0.5S131.1,118.5,131.2,118z
	"/>
<radialGradient id="SVGID_18_" cx="153.42" cy="101.09" r="1.1" gradientTransform="matrix(1 0 0 -1 -1.292533e-02 185.275)" gradientUnits="userSpaceOnUse">
	<stop  offset="0.7" style="stop-color:#F7C5BA"/>
	<stop  offset="1" style="stop-color:#FFFFFF"/>
</radialGradient>
<path class="st36" d="M152.4,83.8c0.2-0.6,0.8-0.9,1.4-0.7c0.6,0.2,0.9,0.8,0.7,1.4c-0.2,0.6-0.8,0.9-1.4,0.7
	C152.5,85,152.2,84.4,152.4,83.8z"/>
<radialGradient id="SVGID_19_" cx="149.8" cy="96.21" r="1.8" gradientTransform="matrix(1 0 0 -1 -1.753843e-02 185.2854)" gradientUnits="userSpaceOnUse">
	<stop  offset="0.7" style="stop-color:#F7C5BA"/>
	<stop  offset="1" style="stop-color:#FFFFFF"/>
</radialGradient>
<path class="st37" d="M148.1,88.5c0.3-1,1.4-1.5,2.3-1.1c0.9,0.3,1.4,1.4,1.1,2.3s-1.4,1.5-2.3,1.1
	C148.2,90.5,147.8,89.4,148.1,88.5z"/>
<radialGradient id="SVGID_20_" cx="151.66" cy="106.21" r="0.85" gradientTransform="matrix(1 0 0 -1 -1.817094e-02 185.2831)" gradientUnits="userSpaceOnUse">
	<stop  offset="0.7" style="stop-color:#F7C5BA"/>
	<stop  offset="1" style="stop-color:#FFFFFF"/>
</radialGradient>
<path class="st38" d="M150.9,78.8c0.2-0.4,0.6-0.7,1.1-0.5c0.4,0.2,0.7,0.6,0.5,1.1c-0.2,0.4-0.6,0.7-1.1,0.5S150.7,79.2,150.9,78.8
	z"/>
<radialGradient id="SVGID_21_" cx="136.8" cy="45.23" r="0.78" gradientTransform="matrix(1 0 0 -1 -1.641079e-02 185.2788)" gradientUnits="userSpaceOnUse">
	<stop  offset="0.7" style="stop-color:#F7C5BA"/>
	<stop  offset="1" style="stop-color:#FFFFFF"/>
</radialGradient>
<path class="st39" d="M136.1,139.8c0.1-0.4,0.6-0.6,1-0.5s0.6,0.6,0.5,1c-0.1,0.4-0.6,0.6-1,0.5S135.9,140.2,136.1,139.8z"/>
<radialGradient id="SVGID_22_" cx="135.93" cy="48.14" r="0.6" gradientTransform="matrix(1 0 0 -1 -1.579332e-02 185.2741)" gradientUnits="userSpaceOnUse">
	<stop  offset="0.7" style="stop-color:#F7C5BA"/>
	<stop  offset="1" style="stop-color:#FFFFFF"/>
</radialGradient>
<path class="st40" d="M135.4,136.9c0.1-0.3,0.5-0.5,0.8-0.4c0.3,0.1,0.5,0.5,0.4,0.8c-0.1,0.3-0.5,0.5-0.8,0.4
	C135.4,137.6,135.3,137.2,135.4,136.9z"/>
<radialGradient id="SVGID_23_" cx="-576.2464" cy="-812.9471" r="1.69" gradientTransform="matrix(-0.3858 1.0834 -1.0928 -0.3891 -970.5364 342.9969)" gradientUnits="userSpaceOnUse">
	<stop  offset="0.7" style="stop-color:#F7C5BA"/>
	<stop  offset="1" style="stop-color:#FFFFFF"/>
</radialGradient>
<path class="st41" d="M140.6,33.9c0.4-1,1.5-1.6,2.5-1.2c1,0.4,1.5,1.5,1.2,2.5c-0.4,1-1.5,1.6-2.5,1.2S140.2,34.9,140.6,33.9z"/>
<radialGradient id="SVGID_24_" cx="-571.7859" cy="-807.9085" r="2.45" gradientTransform="matrix(-0.391 1.081 -1.0904 -0.3944 -972.2021 339.1146)" gradientUnits="userSpaceOnUse">
	<stop  offset="0.7" style="stop-color:#F7C5BA"/>
	<stop  offset="1" style="stop-color:#FFFFFF"/>
</radialGradient>
<path class="st42" d="M131.9,38.2c0.5-1.5,2.2-2.3,3.6-1.7c1.5,0.5,2.2,2.2,1.7,3.7c-0.5,1.5-2.2,2.3-3.6,1.7
	C132.1,41.3,131.4,39.7,131.9,38.2z"/>
<radialGradient id="SVGID_25_" cx="-564.9664" cy="-814.0371" r="2.77" gradientTransform="matrix(-0.3858 1.0834 -1.0928 -0.3891 -970.54 342.994)" gradientUnits="userSpaceOnUse">
	<stop  offset="0.7" style="stop-color:#F7C5BA"/>
	<stop  offset="1" style="stop-color:#FFFFFF"/>
</radialGradient>
<path class="st43" d="M136.2,46.1c0.6-1.7,2.4-2.6,4.1-2c1.6,0.6,2.5,2.4,1.9,4.1c-0.6,1.7-2.4,2.6-4.1,2
	C136.5,49.7,135.7,47.8,136.2,46.1z"/>
<radialGradient id="SVGID_26_" cx="-580.4664" cy="-807.1571" r="0.94" gradientTransform="matrix(-0.3858 1.0834 -1.0928 -0.3891 -970.5464 343.001)" gradientUnits="userSpaceOnUse">
	<stop  offset="0.7" style="stop-color:#F7C5BA"/>
	<stop  offset="1" style="stop-color:#FFFFFF"/>
</radialGradient>
<path class="st44" d="M136.7,27.3c0.2-0.6,0.8-0.9,1.4-0.7c0.6,0.2,0.9,0.8,0.6,1.4s-0.8,0.9-1.4,0.7
	C136.8,28.5,136.5,27.9,136.7,27.3z"/>
<radialGradient id="SVGID_27_" cx="127.37" cy="122.13" r="1.47" gradientTransform="matrix(1 0 0 -1 0 185.28)" gradientUnits="userSpaceOnUse">
	<stop  offset="0.7" style="stop-color:#F7C5BA"/>
	<stop  offset="1" style="stop-color:#FFFFFF"/>
</radialGradient>
<path class="st45" d="M126.3,64.2c-0.6-0.6-0.6-1.5,0-2.1c0.5-0.6,1.4-0.6,2-0.1c0,0,0,0,0,0l0.1,0c0.6,0.6,0.6,1.5,0,2.1
	C127.9,64.8,127,64.8,126.3,64.2C126.4,64.3,126.4,64.3,126.3,64.2L126.3,64.2z"/>
<radialGradient id="SVGID_28_" cx="135.06" cy="121.18" r="0.96" gradientTransform="matrix(1 0 0 -1 0 185.28)" gradientUnits="userSpaceOnUse">
	<stop  offset="0.7" style="stop-color:#F7C5BA"/>
	<stop  offset="1" style="stop-color:#FFFFFF"/>
</radialGradient>
<circle class="st46" cx="135.1" cy="64.1" r="1"/>
<radialGradient id="SVGID_29_" cx="129.9" cy="120.26" r="0.48" gradientTransform="matrix(1 0 0 -1 0 185.28)" gradientUnits="userSpaceOnUse">
	<stop  offset="0.7" style="stop-color:#F7C5BA"/>
	<stop  offset="1" style="stop-color:#FFFFFF"/>
</radialGradient>
<circle class="st47" cx="129.9" cy="65" r="0.5"/>
<radialGradient id="SVGID_30_" cx="131.38" cy="121.42" r="0.48" gradientTransform="matrix(1 0 0 -1 0 185.28)" gradientUnits="userSpaceOnUse">
	<stop  offset="0.7" style="stop-color:#F7C5BA"/>
	<stop  offset="1" style="stop-color:#FFFFFF"/>
</radialGradient>
<circle class="st48" cx="131.4" cy="63.9" r="0.5"/>
<radialGradient id="SVGID_31_" cx="153.46" cy="125.11" r="1.47" gradientTransform="matrix(1 0 0 -1 0 185.28)" gradientUnits="userSpaceOnUse">
	<stop  offset="0.7" style="stop-color:#F7C5BA"/>
	<stop  offset="1" style="stop-color:#FFFFFF"/>
</radialGradient>
<path class="st49" d="M152.4,61.2c-0.6-0.6-0.6-1.5,0-2.1c0.5-0.6,1.4-0.6,2-0.1c0,0,0,0,0,0l0.1,0c0.6,0.6,0.6,1.5,0,2.1
	C154,61.8,153.1,61.8,152.4,61.2C152.5,61.3,152.5,61.3,152.4,61.2L152.4,61.2z"/>
<radialGradient id="SVGID_32_" cx="153.7" cy="117.19" r="0.96" gradientTransform="matrix(1 0 0 -1 0 185.28)" gradientUnits="userSpaceOnUse">
	<stop  offset="0.7" style="stop-color:#F7C5BA"/>
	<stop  offset="1" style="stop-color:#FFFFFF"/>
</radialGradient>
<circle class="st50" cx="153.7" cy="68.1" r="1"/>
<radialGradient id="SVGID_33_" cx="148.53" cy="116.28" r="0.48" gradientTransform="matrix(1 0 0 -1 0 185.28)" gradientUnits="userSpaceOnUse">
	<stop  offset="0.7" style="stop-color:#F7C5BA"/>
	<stop  offset="1" style="stop-color:#FFFFFF"/>
</radialGradient>
<circle class="st51" cx="148.5" cy="69" r="0.5"/>
<radialGradient id="SVGID_34_" cx="150.02" cy="117.44" r="0.48" gradientTransform="matrix(1 0 0 -1 0 185.28)" gradientUnits="userSpaceOnUse">
	<stop  offset="0.7" style="stop-color:#F7C5BA"/>
	<stop  offset="1" style="stop-color:#FFFFFF"/>
</radialGradient>
<circle class="st52" cx="150" cy="67.8" r="0.5"/>
</svg>
