<?xml version="1.0" encoding="utf-8"?>
<!-- Generator: Adobe Illustrator 19.2.1, SVG Export Plug-In . SVG Version: 6.00 Build 0)  -->
<svg version="1.1" id="Layer_1" xmlns="http://www.w3.org/2000/svg" xmlns:xlink="http://www.w3.org/1999/xlink" x="0px" y="0px"
	 viewBox="0 0 287.6 183.9" style="enable-background:new 0 0 287.6 183.9;" xml:space="preserve">
<style type="text/css">
	.st0{fill:url(#SVGID_1_);}
	.st1{fill:#F7925D;}
	.st2{fill:#F7D7C6;}
	.st3{fill:#F3CCBB;}
	.st4{fill:url(#SVGID_2_);}
	.st5{fill:url(#SVGID_3_);}
	.st6{fill:#EC5252;}
	.st7{fill:#EF7273;}
	.st8{fill:#DD4A4A;}
	.st9{fill:#F1C7B9;}
	.st10{fill:url(#SVGID_4_);}
	.st11{opacity:0.67;fill:url(#SVGID_5_);enable-background:new    ;}
	.st12{fill:#FDE8E0;}
	.st13{opacity:0.8;fill:url(#SVGID_6_);enable-background:new    ;}
	.st14{opacity:0.8;fill:#EC5252;enable-background:new    ;}
	.st15{opacity:0.8;fill:#EF7273;enable-background:new    ;}
	.st16{opacity:0.8;fill:#DD4A4A;enable-background:new    ;}
	.st17{fill:#F3E4DE;}
	.st18{opacity:0.81;fill:#E99459;enable-background:new    ;}
	.st19{opacity:0.38;fill:#FFF2EA;enable-background:new    ;}
	.st20{opacity:0.18;fill:#FFFEFE;enable-background:new    ;}
</style>
<title>french-martini</title>
<radialGradient id="SVGID_1_" cx="143.8" cy="93.33" r="120.6923" gradientTransform="matrix(1 0 0 -1 0 185.28)" gradientUnits="userSpaceOnUse">
	<stop  offset="0" style="stop-color:#FDC693"/>
	<stop  offset="0.4176" style="stop-color:#F9A36E"/>
	<stop  offset="0.79" style="stop-color:#F7925C"/>
	<stop  offset="0.9608" style="stop-color:#F7925C"/>
</radialGradient>
<rect y="0" class="st0" width="287.6" height="183.9"/>
<ellipse class="st1" cx="144.2" cy="141.1" rx="24.2" ry="4"/>
<path class="st2" d="M143.9,136.5v4.2h-0.8c-9.2,0-16.8-0.8-18.2-1.8c-0.1-0.1-0.2-0.2-0.2-0.3c0,0,0,0,0-0.1c0-0.4,1.3-0.9,3.4-1.2
	c0.6-0.1,1.3-0.2,2-0.3l0,0h0.2c4.2-0.4,8.5-0.6,12.8-0.6L143.9,136.5L143.9,136.5z"/>
<path class="st2" d="M143.9,93.1v45.2h-11.4h-7.2c0.9-0.4,1.9-0.7,2.9-0.9l0.3-0.1l1.5-0.3l0,0h0.1h0.1l1.8-0.3
	c1.7-0.3,3.3-0.7,4.9-1.4l0,0c0.2-0.1,0.5-0.2,0.7-0.4c0.8-0.5,1.6-1.1,2.2-1.8c0.3-0.4,0.6-0.8,0.8-1.2c0.3-0.7,0.5-1.5,0.6-2.3
	c0.3-5.9,0.2-15.5,0.2-15.5c0-9.2-0.3-16-0.7-17.6c-0.2-0.7-0.4-1.4-0.8-2.1l0,0c-0.1-0.2-0.3-0.4-0.4-0.6l-0.6-0.8L143.9,93.1
	L143.9,93.1z"/>
<path class="st2" d="M143.9,52.3v40.8h-5.1l-8-10.2l-21.4-28.3c-0.4-0.5-0.3-1.2,0.2-1.5c0.2-0.1,0.4-0.2,0.6-0.2
	c9.9-0.3,20.1-0.5,30.6-0.5L143.9,52.3L143.9,52.3z"/>
<path class="st2" d="M163.2,138.6C163.2,138.6,163.2,138.6,163.2,138.6c0,0.2-0.1,0.3-0.2,0.3c-1.4,1-9,1.8-18.2,1.8h-0.8v-4.2h0.8
	c3.9,0,7.5,0.1,10.4,0.4c0.9,0.1,1.8,0.1,2.6,0.2l0,0c1.1,0.1,2.2,0.3,3.4,0.5C162.5,137.9,163.2,138.2,163.2,138.6z"/>
<path class="st2" d="M162.6,138.3h-4.2h-9.8h-4.6V93.1h5.1l-0.6,0.8c-0.2,0.2-0.3,0.4-0.4,0.6l0,0c-0.4,0.6-0.7,1.3-0.8,2.1
	c-0.3,1.6-0.6,8.4-0.7,17.6c0,0-0.1,9.6,0.2,15.5c0.1,0.8,0.2,1.6,0.6,2.3c0.2,0.4,0.5,0.8,0.8,1.2c1.9,2.5,5.5,3.2,7.5,3.6h0.2
	l1.9,0.3h0.1l0,0l1.5,0.3c0.4,0.1,0.9,0.2,1.5,0.4C161.3,137.8,162,138.1,162.6,138.3z"/>
<path class="st3" d="M145.4,140.5h-1.5v1.6h0.8c10.2,0,18.4-1.1,18.4-2.6v-1l-0.9,0.2l0,0c-1.8,0.4-3.9,0.7-6.3,1
	C152.5,140.3,149,140.5,145.4,140.5z"/>
<path class="st2" d="M143.9,52.3v40.8h5.1l8-10.2l21.3-28.2c0.4-0.5,0.3-1.2-0.2-1.6c-0.2-0.1-0.4-0.2-0.7-0.2
	c-9.9-0.3-20.1-0.5-30.5-0.5L143.9,52.3L143.9,52.3z"/>
<linearGradient id="SVGID_2_" gradientUnits="userSpaceOnUse" x1="144.24" y1="93.0478" x2="144.24" y2="120.86" gradientTransform="matrix(1 0 0 -1 0 185.28)">
	<stop  offset="0" style="stop-color:#F78E2E"/>
	<stop  offset="0.24" style="stop-color:#E0683A"/>
	<stop  offset="0.73" style="stop-color:#D3493F"/>
	<stop  offset="0.82" style="stop-color:#D75649"/>
	<stop  offset="0.89" style="stop-color:#DD6B5C"/>
	<stop  offset="1" style="stop-color:#FBCECF"/>
</linearGradient>
<path class="st4" d="M167.9,64.4c-2.2,3-4.5,6.1-6.8,9.1c-2.7,3.6-5.4,7.1-8.1,10.6l0,0c-2.1,2.7-3.6,4.6-4.5,5.8
	c-1,1.3-2.6,2.2-4.2,2.3c-1.9,0.1-3.7-0.8-4.8-2.2l-2.1-2.8c-3.5-4.7-7-9.4-10.6-14.1c-2.1-2.8-4.2-5.7-6.2-8.5l24.3-0.1L167.9,64.4
	z"/>
<linearGradient id="SVGID_3_" gradientUnits="userSpaceOnUse" x1="-1297.8203" y1="48.2216" x2="-1304.0304" y2="53.9616" gradientTransform="matrix(-0.3994 0.9168 0.9168 0.3994 -431.5029 1234.4581)">
	<stop  offset="5.000000e-02" style="stop-color:#BE1F26"/>
	<stop  offset="0.29" style="stop-color:#D72129"/>
	<stop  offset="0.6" style="stop-color:#EE212C"/>
	<stop  offset="1" style="stop-color:#E64B4B"/>
</linearGradient>
<path class="st5" d="M137.6,63.6c0.3-0.1,0.5-0.3,0.7-0.5c0.3-0.3,0.4-0.8,0.4-1.2c0.3-0.3,0.5-0.7,0.4-1.2
	c-0.1-0.3-0.2-0.6-0.5-0.7c-0.3-1-0.9-1.6-1.4-1.6c-0.2,0-0.3,0.1-0.4,0.2c-0.2-0.3-0.6-0.5-1-0.6c-0.2,0-0.3,0.1-0.5,0.2
	c-0.2-0.2-0.5-0.3-0.9-0.2c-0.1,0-0.3,0.1-0.4,0.3c-0.3-0.2-0.7-0.3-1-0.1c-0.1,0.1-0.1,0.1-0.2,0.2c-0.2-0.2-0.5-0.2-0.7,0
	c-0.1,0.1-0.1,0.2-0.1,0.2c-0.2-0.1-0.4-0.1-0.6,0c-0.1,0.1-0.2,0.2-0.3,0.3c-0.2,0.1-0.4,0.3-0.6,0.5c-0.2,0.3-0.2,0.7-0.1,1
	c-0.3,0.1-0.6,0.4-0.7,0.8c-0.1,0.2-0.1,0.5,0,0.7c-0.1,0.3,0.1,0.7,0.4,0.9c-0.2,0.3-0.1,0.6,0.1,0.8c0.1,0.1,0.2,0.1,0.3,0.1
	c-0.1,0.1-0.1,0.1-0.1,0.2c0.1,0.4,0.4,0.6,0.8,0.7c0,0.1,0,0.3,0,0.4c0.1,0.3,0.5,0.5,0.8,0.4c0,0.1,0,0.1,0.1,0.2
	c0.3,0.4,0.7,0.6,1.2,0.7c0,0.2,0.1,0.3,0.2,0.5c0.7,0.4,1.6,0.4,2.2-0.1c0.2,0,0.3,0,0.5,0c0.4-0.1,0.7-0.3,0.8-0.7
	C137.5,65.3,137.8,64.5,137.6,63.6z"/>
<path class="st6" d="M138.1,59.7c-0.2-0.4-0.4-0.6-0.8-0.8c-0.1,0-0.1,0-0.2,0.1c0,0.1,0,0.2,0,0.3
	C137.4,59.5,137.7,59.7,138.1,59.7z"/>
<path class="st7" d="M137.6,60.7c-0.2-0.4-0.4-0.6-0.8-0.8c-0.1,0-0.1,0-0.2,0.1c0,0.1,0,0.2,0,0.3
	C136.9,60.5,137.2,60.7,137.6,60.7z"/>
<path class="st7" d="M137,61.6c-0.2-0.3-0.5-0.6-0.9-0.7c0,0-0.1,0-0.1,0.1c0,0.1,0,0.2,0,0.3C136.3,61.5,136.6,61.6,137,61.6z"/>
<path class="st6" d="M136.5,62.5c-0.2-0.3-0.5-0.5-0.9-0.6c-0.1,0-0.1,0-0.2,0.1c0,0.1,0,0.2,0,0.2
	C135.8,62.5,136.1,62.5,136.5,62.5z"/>
<path class="st6" d="M136.1,63.5c-0.3-0.3-0.6-0.4-1-0.4c-0.1,0-0.1,0.1-0.1,0.1c0,0.1,0,0.2,0.1,0.2
	C135.4,63.6,135.8,63.7,136.1,63.5z"/>
<path class="st6" d="M135.8,64.6c-0.2-0.3-0.6-0.4-0.9-0.5c-0.1,0-0.1,0.1-0.1,0.1c0,0.1,0,0.2,0.1,0.2
	C135.1,64.6,135.4,64.7,135.8,64.6z"/>
<path class="st6" d="M135.1,66.6c-0.4,0.1-0.8,0.1-1.1,0c-0.1,0-0.1-0.1-0.1-0.2c0-0.1,0.1-0.2,0.2-0.2
	C134.4,66.2,134.8,66.3,135.1,66.6z"/>
<path class="st6" d="M135.4,65.5c-0.4,0.1-0.8,0.1-1.1,0c-0.1,0-0.1-0.1-0.1-0.2c0-0.1,0.1-0.2,0.2-0.2
	C134.8,65.1,135.1,65.3,135.4,65.5z"/>
<path class="st6" d="M135.7,58.6c0.3,0.1,0.7,0.2,0.9,0.5c0,0.1,0,0.1,0,0.2c-0.1,0.1-0.1,0.1-0.2,0.1C136,59.2,135.8,59,135.7,58.6
	z"/>
<path class="st7" d="M135.1,59.7c0.4,0,0.7,0.1,1,0.3c0,0.1,0,0.1,0,0.2c-0.1,0.1-0.1,0.1-0.2,0.1C135.5,60.3,135.2,60,135.1,59.7z"
	/>
<path class="st6" d="M134.5,61c0.3-0.1,0.7,0,1,0.2c0,0.1,0,0.1,0,0.2c0,0.1-0.1,0.1-0.2,0.1C135,61.4,134.7,61.3,134.5,61z"/>
<path class="st6" d="M134.1,62.1c0.3,0,0.6,0,0.9,0.2c0,0.1,0,0.1,0,0.2c0,0.1-0.1,0.1-0.2,0.1C134.5,62.5,134.2,62.3,134.1,62.1z"
	/>
<path class="st6" d="M133.6,63.2c0.3-0.1,0.6-0.1,0.9,0c0,0,0.1,0.1,0.1,0.2c0,0.1-0.1,0.1-0.2,0.2
	C134.2,63.6,133.9,63.5,133.6,63.2z"/>
<path class="st6" d="M133.1,64.4c0.3-0.1,0.6-0.1,0.9,0c0,0,0.1,0.1,0.1,0.2c0,0.1-0.1,0.1-0.2,0.2
	C133.6,64.8,133.3,64.7,133.1,64.4z"/>
<path class="st6" d="M132.7,65.5c0.2,0.3,0.6,0.4,0.9,0.4c0.1,0,0.1-0.1,0.1-0.1c0-0.1,0-0.2-0.1-0.2
	C133.3,65.4,133,65.4,132.7,65.5z"/>
<path class="st6" d="M135.2,59.2c-0.1-0.3-0.3-0.5-0.6-0.6c-0.1,0-0.1,0-0.2,0.1c0,0.1,0,0.2,0,0.2
	C134.7,59.1,134.9,59.2,135.2,59.2z"/>
<path class="st6" d="M134.7,60.3c-0.1-0.3-0.3-0.5-0.6-0.6c-0.1,0-0.1,0-0.2,0.1c0,0.1,0,0.2,0,0.2
	C134.2,60.2,134.4,60.4,134.7,60.3z"/>
<path class="st6" d="M134.2,61.5c-0.1-0.3-0.4-0.5-0.6-0.5c-0.1,0-0.1,0-0.1,0.1c0,0.1,0,0.2,0,0.2
	C133.6,61.5,133.9,61.5,134.2,61.5z"/>
<path class="st6" d="M133.7,62.6c-0.2-0.2-0.4-0.4-0.7-0.4c-0.1,0-0.1,0.1-0.1,0.1c0,0.1,0,0.2,0.1,0.2
	C133.2,62.7,133.5,62.7,133.7,62.6z"/>
<path class="st8" d="M133.2,63.7c-0.2-0.2-0.4-0.3-0.7-0.3c0,0-0.1,0.1-0.1,0.1c0,0.1,0,0.2,0.1,0.2C132.7,63.8,133,63.8,133.2,63.7
	z"/>
<path class="st8" d="M132.7,64.8c-0.2-0.2-0.5-0.2-0.8-0.2c0,0-0.1,0.1-0.1,0.1c0,0.1,0.1,0.2,0.1,0.2
	C132.2,65.1,132.5,65,132.7,64.8z"/>
<path class="st6" d="M133.2,58.9c0.3-0.1,0.6-0.1,0.8,0c0,0,0.1,0.1,0.1,0.2c0,0.1-0.1,0.1-0.1,0.2
	C133.7,59.2,133.4,59.1,133.2,58.9z"/>
<path class="st6" d="M132.6,60.2c0.3-0.1,0.6-0.1,0.8,0c0,0,0.1,0.1,0.1,0.2c0,0.1-0.1,0.1-0.1,0.2
	C133.1,60.5,132.8,60.4,132.6,60.2z"/>
<path class="st6" d="M132.2,61.3c0.3-0.1,0.6-0.1,0.8,0.1c0,0.1,0,0.1,0,0.2c0,0.1-0.1,0.1-0.2,0.2
	C132.6,61.7,132.3,61.6,132.2,61.3z"/>
<path class="st8" d="M131.7,62.4c0.3,0,0.5,0.1,0.7,0.2c0,0.1,0,0.1,0,0.2c0,0.1-0.1,0.1-0.2,0.1C132,62.8,131.8,62.7,131.7,62.4z"
	/>
<path class="st8" d="M131.1,63.7c0.3,0,0.5,0.1,0.7,0.3c0,0,0,0.1,0,0.2c-0.1,0.1-0.1,0.1-0.2,0.1C131.4,64.2,131.2,64,131.1,63.7z"
	/>
<path class="st6" d="M138.1,60.3c0.3,0.1,0.7,0.2,0.9,0.5c0,0.1,0,0.1,0,0.2c-0.1,0.1-0.1,0.1-0.2,0.1
	C138.4,60.9,138.2,60.6,138.1,60.3z"/>
<path class="st6" d="M137.5,61.3c0.4,0,0.7,0.1,1,0.3c0,0.1,0,0.1,0,0.2c-0.1,0.1-0.1,0.1-0.2,0.1C138,61.8,137.7,61.6,137.5,61.3z"
	/>
<path class="st6" d="M136.4,63.1c0.3-0.1,0.7,0,1,0.2c0,0.1,0,0.1,0,0.2c0,0.1-0.1,0.1-0.2,0.1C136.9,63.6,136.6,63.4,136.4,63.1z"
	/>
<path class="st6" d="M136.2,64.1c0.3,0,0.6,0,0.9,0.2c0,0.1,0,0.1,0,0.2c0,0.1-0.1,0.1-0.2,0.1C136.6,64.5,136.3,64.3,136.2,64.1z"
	/>
<path class="st6" d="M135.9,65.1c0.3-0.1,0.6-0.1,0.9,0c0,0,0.1,0.1,0.1,0.2c0,0.1-0.1,0.1-0.2,0.2
	C136.4,65.5,136.1,65.4,135.9,65.1z"/>
<path class="st6" d="M135.5,66.1c0.3-0.1,0.6-0.1,0.9,0c0,0,0.1,0.1,0.1,0.2c0,0.1-0.1,0.1-0.2,0.2C136,66.5,135.7,66.4,135.5,66.1z
	"/>
<path class="st6" d="M136.9,62.2c0.4,0,0.7,0.1,1,0.3c0,0.1,0,0.1,0,0.2c-0.1,0.1-0.1,0.1-0.2,0.1C137.4,62.8,137.1,62.5,136.9,62.2
	z"/>
<path class="st6" d="M133.1,59.3c-0.2-0.2-0.4-0.4-0.7-0.4c-0.1,0-0.1,0.1-0.1,0.1c0,0.1,0,0.1,0,0.2
	C132.5,59.4,132.8,59.4,133.1,59.3z"/>
<path class="st6" d="M132.6,60.6c-0.1-0.2-0.4-0.4-0.6-0.4c-0.1,0-0.1,0.1-0.1,0.1c0,0.1,0,0.1,0,0.2
	C132.1,60.7,132.4,60.7,132.6,60.6z"/>
<path class="st8" d="M132,62c-0.2-0.2-0.4-0.4-0.7-0.4c-0.1,0-0.1,0.1-0.1,0.1c0,0.1,0,0.1,0,0.2C131.5,62.1,131.7,62.2,132,62z"/>
<path class="st8" d="M131.4,63.2c-0.2-0.2-0.4-0.3-0.6-0.3c0,0-0.1,0.1-0.1,0.1c0,0.1,0,0.1,0,0.2C130.9,63.3,131.1,63.3,131.4,63.2
	z"/>
<path class="st6" d="M131.4,59.5c0.1,0,0.5-0.2,0.6,0c0,0,0,0.1,0,0.2c0,0.1-0.1,0.1-0.1,0.2C131.7,59.9,131.4,59.5,131.4,59.5z"/>
<path class="st8" d="M131,60.8c0.1,0,0.6-0.2,0.6,0c0,0,0,0.1,0,0.2c0,0.1-0.1,0.1-0.1,0.2C131.2,61.2,131,60.8,131,60.8z"/>
<path class="st8" d="M130.4,61.9c0.1,0,0.5,0,0.5,0.2c0,0,0,0.1,0,0.2c0,0.1-0.1,0.1-0.1,0.1C130.6,62.4,130.4,62,130.4,61.9z"/>
<path class="st9" d="M161.2,137.6l-0.4,0.1c-0.7,0.2-1.6,0.4-2.4,0.6c-1,0.2-2,0.4-2.6,0.5c-3.9,0.7-7.8,0.9-11.8,0.8
	c-2-0.1-4.2-0.2-6.5-0.5c2.4-0.1,4.6-0.2,6.5-0.4c1.7-0.1,3.3-0.3,4.6-0.4c2.3-0.2,4.5-0.7,6.6-1.5l0.3-0.2h0.2l1.9,0.3h0.1l0,0
	C158.9,137.2,160,137.4,161.2,137.6z"/>
<path class="st3" d="M142.5,140.5h1.5v1.6h-0.8c-10.2,0-18.4-1.1-18.4-2.6v-1l0.9,0.2l0,0c1.8,0.4,3.9,0.7,6.3,1
	C135.4,140.3,138.9,140.5,142.5,140.5z"/>
<linearGradient id="SVGID_4_" gradientUnits="userSpaceOnUse" x1="-587.0536" y1="482.7655" x2="-593.2637" y2="488.5055" gradientTransform="matrix(0.5694 0.822 0.822 -0.5694 83.4331 824.1487)">
	<stop  offset="5.000000e-02" style="stop-color:#BE1F26"/>
	<stop  offset="0.29" style="stop-color:#D72129"/>
	<stop  offset="0.6" style="stop-color:#EE212C"/>
	<stop  offset="1" style="stop-color:#E64B4B"/>
</linearGradient>
<path class="st10" d="M149.1,60.9c0-0.3,0-0.6-0.1-0.9c-0.1-0.4-0.4-0.8-0.8-1c-0.1-0.4-0.4-0.8-0.8-0.9c-0.3-0.1-0.6-0.1-0.8,0.1
	c-1-0.3-1.8-0.1-2.1,0.4c-0.1,0.1-0.1,0.3-0.1,0.5c-0.4,0-0.8,0.2-1,0.6c-0.1,0.2-0.1,0.3-0.1,0.5c-0.3,0.1-0.6,0.3-0.6,0.6
	c0,0.1,0,0.3,0,0.4c-0.3,0.1-0.6,0.4-0.6,0.8c0,0.1,0,0.2,0.1,0.3c-0.2,0.1-0.4,0.4-0.4,0.6c0,0.1,0.1,0.2,0.2,0.2
	c-0.2,0.1-0.3,0.3-0.3,0.5c0,0.1,0,0.3,0.1,0.4c0,0.3,0,0.5,0.1,0.8c0.2,0.3,0.5,0.5,0.8,0.6c-0.1,0.4,0,0.7,0.3,1
	c0.2,0.2,0.4,0.3,0.6,0.3c0.3,0.2,0.6,0.3,0.9,0.1c0.1,0.3,0.4,0.5,0.7,0.3c0.1,0,0.2-0.1,0.3-0.2c0,0.1,0.1,0.2,0.1,0.2
	c0.4,0.1,0.8,0,1-0.3c0.1,0.1,0.2,0.2,0.3,0.2c0.3,0,0.7-0.1,0.8-0.4h0.2c0.5,0,0.9-0.3,1.2-0.7c0.2,0.1,0.3,0.1,0.5,0.1
	c0.7-0.4,1.2-1.1,1.1-1.9c0.1-0.1,0.2-0.2,0.3-0.4c0.1-0.4,0-0.8-0.3-1C150.5,61.9,149.9,61.2,149.1,60.9z"/>
<path class="st6" d="M146.1,58.5c-0.4-0.1-0.8,0-1.1,0.2c0,0.1,0,0.1,0,0.2c0,0.1,0.1,0.1,0.2,0.2C145.6,59,145.9,58.8,146.1,58.5z"
	/>
<path class="st7" d="M146.7,59.4c-0.4-0.1-0.8,0-1.1,0.2c0,0.1,0,0.1,0,0.2c0,0.1,0.1,0.1,0.2,0.2C146.2,59.9,146.5,59.7,146.7,59.4
	z"/>
<path class="st7" d="M147.2,60.4c-0.4,0-0.8,0.1-1.1,0.4c0,0.1,0,0.1,0,0.2c0.1,0.1,0.2,0.1,0.2,0.1C146.7,61,147,60.7,147.2,60.4z"
	/>
<path class="st6" d="M147.6,61.3c-0.4,0-0.7,0.2-1,0.4c0,0.1,0,0.1,0,0.2c0.1,0.1,0.1,0.1,0.2,0.1C147.2,61.8,147.5,61.6,147.6,61.3
	z"/>
<path class="st6" d="M148.3,62.1c-0.3,0.1-0.6,0.3-0.9,0.6c0,0.1,0,0.1,0,0.2c0.1,0,0.2,0,0.2,0C148,62.7,148.2,62.5,148.3,62.1z"/>
<path class="st6" d="M149,63c-0.4,0.1-0.7,0.3-0.9,0.6c0,0.1,0,0.1,0,0.2c0.1,0.1,0.2,0.1,0.2,0C148.7,63.6,148.9,63.3,149,63z"/>
<path class="st6" d="M150.4,64.7c-0.1,0.4-0.3,0.8-0.6,1c-0.1,0-0.1,0-0.2,0c-0.1-0.1-0.1-0.2-0.1-0.3C149.7,65,150,64.8,150.4,64.7
	z"/>
<path class="st6" d="M149.6,63.8c-0.1,0.4-0.3,0.8-0.6,1c-0.1,0-0.1,0-0.2,0c-0.1-0.1-0.1-0.2-0.1-0.3
	C149,64.2,149.3,63.9,149.6,63.8z"/>
<path class="st6" d="M143.9,60c0.2-0.3,0.5-0.4,0.9-0.5c0.1,0,0.1,0,0.1,0.1c0,0.1,0,0.2-0.1,0.2C144.6,60,144.2,60.1,143.9,60z"/>
<path class="st7" d="M144.5,61c0.2-0.3,0.5-0.5,0.8-0.6c0.1,0,0.1,0,0.2,0.1c0,0.1,0,0.2,0,0.2C145.2,60.9,144.9,61,144.5,61z"/>
<path class="st6" d="M145.3,62.2c0.1-0.3,0.4-0.6,0.7-0.8c0.1,0,0.1,0,0.2,0c0,0.1,0,0.2,0,0.2C146,62,145.7,62.2,145.3,62.2z"/>
<path class="st6" d="M146,63.2c0.1-0.3,0.4-0.5,0.6-0.7c0.1,0,0.1,0,0.1,0c0,0.1,0,0.2,0,0.2C146.6,63,146.3,63.1,146,63.2z"/>
<path class="st6" d="M146.8,64.1c0.1-0.3,0.3-0.6,0.5-0.8c0.1,0,0.1,0,0.2,0c0,0.1,0,0.2,0,0.2C147.3,63.8,147,64,146.8,64.1z"/>
<path class="st6" d="M147.5,65.2c0.1-0.3,0.3-0.6,0.5-0.8c0.1,0,0.1,0,0.2,0c0,0.1,0,0.2,0,0.2C148,64.9,147.8,65.1,147.5,65.2z"/>
<path class="st6" d="M148.2,66.1c0.3-0.1,0.6-0.3,0.9-0.5c0-0.1,0-0.1,0-0.2c-0.1-0.1-0.1-0.1-0.2-0.1
	C148.5,65.5,148.3,65.8,148.2,66.1z"/>
<path class="st6" d="M144.1,60.6c-0.3-0.1-0.6,0-0.8,0.2c0,0.1,0,0.1,0,0.2c0,0.1,0.1,0.1,0.2,0.1C143.8,61.1,144,60.9,144.1,60.6z"
	/>
<path class="st6" d="M144.8,61.7c-0.3-0.1-0.6,0-0.8,0.2c0,0.1,0,0.1,0,0.2c0,0.1,0.1,0.1,0.2,0.1C144.5,62.1,144.7,61.9,144.8,61.7
	z"/>
<path class="st6" d="M145.6,62.7c-0.3,0-0.6,0.1-0.8,0.2c0,0.1,0,0.1,0,0.2c0,0.1,0.1,0.1,0.2,0.1C145.2,63.2,145.5,63,145.6,62.7z"
	/>
<path class="st6" d="M146.2,63.7c-0.3,0-0.5,0.2-0.7,0.4c0,0,0,0.1,0,0.2c0.1,0.1,0.1,0.1,0.2,0.1C146,64.2,146.2,64,146.2,63.7z"/>
<path class="st8" d="M146.9,64.7c-0.3,0-0.5,0.2-0.7,0.4c0,0,0,0.1,0,0.1c0.1,0,0.1,0,0.2,0C146.7,65.2,146.9,65,146.9,64.7z"/>
<path class="st8" d="M147.6,65.7c-0.3,0.1-0.5,0.3-0.6,0.6c0,0.1,0,0.1,0.1,0.1c0.1,0,0.1,0,0.2,0C147.6,66.3,147.7,66,147.6,65.7z"
	/>
<path class="st6" d="M142.8,62.2c0-0.3,0.2-0.5,0.5-0.7c0.1,0,0.1,0,0.2,0c0.1,0.1,0.1,0.1,0.1,0.2C143.4,62,143.1,62.2,142.8,62.2z
	"/>
<path class="st6" d="M143.6,63.3c0-0.3,0.2-0.5,0.4-0.7c0.1,0,0.1,0,0.2,0c0.1,0.1,0.1,0.1,0.1,0.2
	C144.1,63.1,143.9,63.3,143.6,63.3z"/>
<path class="st6" d="M144.4,64.3c0.1-0.3,0.3-0.5,0.5-0.7c0.1,0,0.1,0,0.1,0.1c0,0.1,0,0.2,0,0.2C144.9,64.2,144.6,64.3,144.4,64.3z
	"/>
<path class="st8" d="M145,65.3c0.1-0.2,0.3-0.4,0.6-0.5c0.1,0,0.1,0,0.1,0.1c0,0.1,0,0.1,0,0.2C145.5,65.3,145.3,65.4,145,65.3z"/>
<path class="st8" d="M145.9,66.5c0.1-0.2,0.4-0.4,0.6-0.5c0,0,0.1,0.1,0.1,0.1c0,0.1,0,0.1,0,0.2C146.4,66.6,146.1,66.6,145.9,66.5z
	"/>
<path class="st6" d="M146.6,58.8c0.2-0.3,0.5-0.4,0.9-0.5c0.1,0,0.1,0,0.1,0.1c0,0.1,0,0.2-0.1,0.2
	C147.2,58.8,146.9,58.9,146.6,58.8z"/>
<path class="st6" d="M147.1,59.8c0.2-0.3,0.5-0.5,0.8-0.6c0.1,0,0.1,0,0.2,0.1c0,0.1,0,0.2,0,0.2C147.8,59.7,147.5,59.8,147.1,59.8z
	"/>
<path class="st6" d="M148.1,61.7c0.1-0.3,0.4-0.6,0.7-0.8c0.1,0,0.1,0,0.2,0c0,0.1,0,0.2,0,0.2C148.8,61.5,148.5,61.7,148.1,61.7z"
	/>
<path class="st6" d="M148.8,62.4c0.1-0.3,0.4-0.5,0.6-0.7c0.1,0,0.1,0,0.1,0c0,0.1,0,0.2,0,0.2C149.4,62.2,149.1,62.4,148.8,62.4z"
	/>
<path class="st6" d="M149.6,63.2c0.1-0.3,0.3-0.6,0.5-0.8c0.1,0,0.1,0,0.2,0c0,0.1,0,0.2,0,0.2C150.1,62.9,149.9,63.1,149.6,63.2z"
	/>
<path class="st6" d="M147.6,60.8c0.2-0.3,0.5-0.5,0.8-0.6c0.1,0,0.1,0,0.2,0.1c0,0.1,0,0.2,0,0.2C148.3,60.7,148,60.8,147.6,60.8z"
	/>
<path class="st6" d="M143.1,62.5c-0.3,0-0.5,0.2-0.7,0.4c0,0.1,0,0.1,0,0.2c0,0.1,0.1,0.1,0.2,0.1C142.9,63,143.1,62.8,143.1,62.5z"
	/>
<path class="st6" d="M144,63.6c-0.3,0-0.5,0.1-0.7,0.3c0,0.1,0,0.1,0,0.2c0,0.1,0.1,0.1,0.2,0.1C143.8,64.1,143.9,63.9,144,63.6z"/>
<path class="st8" d="M144.9,64.9c-0.3,0-0.5,0.1-0.7,0.3c0,0,0,0.1,0,0.2c0.1,0,0.1,0.1,0.2,0.1C144.6,65.4,144.8,65.2,144.9,64.9z"
	/>
<path class="st8" d="M145.5,66c-0.2,0-0.5,0.1-0.6,0.3c0,0,0,0.1,0,0.1c0.1,0,0.1,0.1,0.2,0.1C145.3,66.5,145.5,66.2,145.5,66z"/>
<path class="st6" d="M142.3,64.1c0-0.1,0.1-0.6,0.3-0.6c0.1,0,0.1,0,0.1,0c0,0.1,0.1,0.1,0.1,0.2C142.9,64,142.4,64.1,142.3,64.1z"
	/>
<path class="st8" d="M143.2,65.1c0-0.1,0.1-0.6,0.3-0.5c0.1,0,0.1,0,0.1,0.1c0,0.1,0.1,0.1,0.1,0.2
	C143.8,65.1,143.3,65.1,143.2,65.1z"/>
<path class="st8" d="M143.9,66.2c0-0.1,0.2-0.5,0.4-0.4c0,0,0.1,0,0.1,0.1c0,0.1,0,0.1,0,0.2C144.4,66.3,144,66.2,143.9,66.2z"/>
<linearGradient id="SVGID_5_" gradientUnits="userSpaceOnUse" x1="144.175" y1="92.919" x2="144.175" y2="121" gradientTransform="matrix(1 0 0 -1 0 185.28)">
	<stop  offset="0" style="stop-color:#F78E2E"/>
	<stop  offset="0.24" style="stop-color:#E0683A"/>
	<stop  offset="0.73" style="stop-color:#D3493F"/>
	<stop  offset="0.82" style="stop-color:#D75649"/>
	<stop  offset="0.89" style="stop-color:#DD6B5C"/>
	<stop  offset="1" style="stop-color:#FBCECF"/>
</linearGradient>
<path class="st11" d="M167.9,64.4l-6.8,9L153,84.1l0,0c-2.1,2.7-3.6,4.7-4.5,5.9c-1,1.4-2.6,2.2-4.2,2.3c-1.9,0-3.7-0.8-4.8-2.3
	l-2.1-2.8c-3.5-4.8-7-9.5-10.6-14.3c-2.1-2.9-4.2-5.7-6.4-8.5c8.1-0.1,16.2-0.2,24.5-0.2C152.6,64.3,160.3,64.3,167.9,64.4z"/>
<path class="st12" d="M141.3,93.3c0.6,0.8,1.6,1.2,2.6,1.3c1.1,0,2.3-0.4,3-1.3c-0.8,1.3-1.3,2.8-1.4,4.3c-0.6,6.1-0.1,28-0.1,30.5
	c0,0,0,0.1,0,0.2c0,0.8,0.1,1.6,0.2,2.4c0.1,0.8,0.4,1.6,0.7,2.4c0.4,0.9,1,1.6,1.7,2.3c0.3,0.2,0.3,0.6,0,0.9
	c-0.1,0.1-0.2,0.2-0.3,0.2c-2.5,0.7-5.2,0.7-7.7-0.1c-0.3-0.1-0.5-0.4-0.4-0.7c0-0.1,0.1-0.2,0.2-0.3c0.8-0.6,1.5-1.4,1.9-2.2
	c0.4-0.9,0.7-1.8,0.7-2.8c0.4-3.9,0.2-14.5,0.2-14.5c-0.1-4.5,0.2-15.8-0.2-18.5c-0.1-0.6-0.2-1.3-0.4-1.9L141.3,93.3z"/>
<linearGradient id="SVGID_6_" gradientUnits="userSpaceOnUse" x1="-1280.278" y1="66.7484" x2="-1285.948" y2="71.9984" gradientTransform="matrix(-0.3994 0.9168 0.9168 0.3994 -431.5029 1234.4581)">
	<stop  offset="5.000000e-02" style="stop-color:#BE1F26"/>
	<stop  offset="0.29" style="stop-color:#D72129"/>
	<stop  offset="0.6" style="stop-color:#EE212C"/>
	<stop  offset="1" style="stop-color:#E64B4B"/>
</linearGradient>
<path class="st13" d="M147,87c0.2-0.1,0.5-0.3,0.6-0.5c0.2-0.3,0.4-0.7,0.4-1.1c0.3-0.3,0.4-0.7,0.3-1.1c-0.1-0.3-0.2-0.5-0.5-0.6
	c-0.1-0.7-0.6-1.3-1.3-1.4c-0.1,0-0.3,0.1-0.4,0.2c-0.2-0.3-0.6-0.5-0.9-0.5c-0.2,0-0.3,0.1-0.4,0.2c-0.2-0.2-0.5-0.3-0.8-0.2
	c-0.1,0-0.2,0.1-0.3,0.2c-0.2-0.2-0.6-0.2-0.9-0.1c-0.1,0.1-0.1,0.1-0.2,0.2c-0.2-0.1-0.5-0.1-0.6,0c-0.1,0.1-0.1,0.1-0.1,0.2
	c-0.2-0.1-0.4-0.1-0.6,0c-0.1,0.1-0.2,0.1-0.3,0.2c-0.2,0.1-0.4,0.3-0.5,0.5c-0.1,0.3-0.2,0.6-0.1,0.9c-0.3,0.1-0.5,0.4-0.6,0.7
	c-0.1,0.2-0.1,0.4,0,0.6c-0.1,0.3,0.1,0.6,0.4,0.8c-0.2,0.2-0.1,0.6,0.1,0.7c0.1,0.1,0.2,0.1,0.3,0.1c-0.1,0.1-0.1,0.1-0.1,0.2
	c0.1,0.3,0.4,0.6,0.7,0.6c0,0.1,0,0.3,0,0.4c0.1,0.3,0.4,0.4,0.7,0.4c0,0.1,0,0.2,0.1,0.3c0.2,0.4,0.6,0.6,1.1,0.6
	c0,0.2,0.1,0.3,0.2,0.4c0.6,0.4,1.4,0.4,2-0.1c0.1,0,0.3,0,0.4,0c0.3-0.1,0.6-0.4,0.6-0.7C146.9,88.6,147.1,87.8,147,87z"/>
<path class="st14" d="M147.5,83.5c-0.1-0.3-0.4-0.6-0.7-0.8c-0.1,0-0.1,0-0.2,0.1c0,0.1,0,0.2,0,0.2
	C146.8,83.3,147.1,83.5,147.5,83.5z"/>
<path class="st15" d="M147,84.4c-0.1-0.3-0.4-0.6-0.7-0.8c-0.1,0-0.1,0-0.2,0.1c0,0.1,0,0.2,0,0.2C146.3,84.2,146.7,84.4,147,84.4z"
	/>
<path class="st15" d="M146.5,85.2c-0.2-0.3-0.5-0.5-0.8-0.6c-0.1,0-0.1,0-0.2,0.1c0,0.1,0,0.2,0,0.2
	C145.8,85.2,146.1,85.3,146.5,85.2z"/>
<path class="st14" d="M146,86c-0.2-0.3-0.5-0.5-0.8-0.6c-0.1,0-0.1,0-0.1,0.1c0,0.1,0,0.2,0,0.2C145.3,86,145.7,86.1,146,86z"/>
<path class="st14" d="M145.6,87c-0.2-0.2-0.6-0.4-0.9-0.4c-0.1,0-0.1,0.1-0.1,0.1c0,0.1,0,0.2,0.1,0.2C145,87.1,145.4,87.1,145.6,87
	z"/>
<path class="st14" d="M145.3,87.9c-0.2-0.2-0.5-0.4-0.9-0.4c-0.1,0-0.1,0.1-0.1,0.1c0,0.1,0,0.2,0.1,0.2C144.7,88,145,88,145.3,87.9
	z"/>
<path class="st14" d="M144.7,89.8c-0.3,0.1-0.7,0.1-1,0c0,0-0.1-0.1-0.1-0.2c0-0.1,0.1-0.1,0.2-0.2
	C144.1,89.4,144.4,89.6,144.7,89.8z"/>
<path class="st14" d="M145,88.8c-0.3,0.1-0.7,0.1-1,0c0,0-0.1-0.1-0.1-0.2c0-0.1,0.1-0.1,0.2-0.2C144.4,88.5,144.8,88.6,145,88.8z"
	/>
<path class="st14" d="M145.2,82.5c0.3,0.1,0.6,0.2,0.8,0.5c0,0.1,0,0.1,0,0.2c-0.1,0.1-0.1,0.1-0.2,0.1
	C145.5,83.1,145.3,82.8,145.2,82.5z"/>
<path class="st15" d="M144.7,83.5c0.3,0,0.6,0.1,0.9,0.3c0,0.1,0,0.1,0,0.2c0,0.1-0.1,0.1-0.2,0.1C145.1,84,144.8,83.8,144.7,83.5z"
	/>
<path class="st14" d="M144.1,84.7c0.3-0.1,0.6,0,0.9,0.2c0,0.1,0,0.1,0,0.2c0,0.1-0.1,0.1-0.2,0.1C144.6,85.1,144.3,84.9,144.1,84.7
	z"/>
<path class="st14" d="M143.8,85.7c0.3,0,0.6,0,0.8,0.2c0,0,0,0.1,0,0.2c0,0.1-0.1,0.1-0.2,0.1C144.1,86.1,143.9,85.9,143.8,85.7z"/>
<path class="st14" d="M143.4,86.7c0.3-0.1,0.6-0.1,0.9,0c0,0,0.1,0.1,0.1,0.1c0,0.1-0.1,0.1-0.1,0.1C143.9,87,143.6,86.9,143.4,86.7
	z"/>
<path class="st14" d="M142.9,87.8c0.3-0.1,0.6-0.1,0.9,0c0,0,0.1,0.1,0.1,0.1c0,0.1-0.1,0.1-0.1,0.1C143.4,88.1,143.1,88,142.9,87.8
	z"/>
<path class="st14" d="M142.5,88.8c0.2,0.2,0.5,0.4,0.8,0.4c0.1,0,0.1,0,0.1-0.1c0-0.1,0-0.2-0.1-0.2
	C143.1,88.7,142.8,88.7,142.5,88.8z"/>
<path class="st14" d="M144.8,83c-0.1-0.2-0.3-0.4-0.5-0.5c-0.1,0-0.1,0-0.1,0.1c0,0.1,0,0.1,0,0.2C144.3,82.9,144.6,83,144.8,83z"/>
<path class="st14" d="M144.3,84.1c-0.1-0.3-0.3-0.5-0.5-0.6c-0.1,0-0.1,0-0.1,0.1c0,0.1,0,0.1,0,0.2C143.8,84,144.1,84.1,144.3,84.1
	z"/>
<path class="st14" d="M143.9,85.1c-0.1-0.2-0.3-0.4-0.6-0.5c-0.1,0-0.1,0-0.1,0.1c0,0.1,0,0.1,0,0.2
	C143.4,85.1,143.6,85.2,143.9,85.1z"/>
<path class="st14" d="M143.4,86.1c-0.1-0.2-0.4-0.3-0.6-0.3c0,0-0.1,0.1-0.1,0.1c0,0.1,0,0.1,0,0.2
	C142.9,86.2,143.2,86.2,143.4,86.1z"/>
<path class="st16" d="M143,87.1c-0.2-0.2-0.4-0.3-0.6-0.3c0,0-0.1,0.1-0.1,0.1c0,0.1,0,0.1,0.1,0.2C142.5,87.2,142.8,87.3,143,87.1z
	"/>
<path class="st16" d="M142.5,88.2c-0.2-0.1-0.5-0.2-0.7-0.2c0,0-0.1,0.1-0.1,0.1c0,0.1,0.1,0.1,0.1,0.2
	C142.1,88.4,142.3,88.3,142.5,88.2z"/>
<path class="st14" d="M143,82.7c0.2-0.1,0.5-0.1,0.8,0c0,0,0.1,0.1,0.1,0.2c0,0.1-0.1,0.1-0.1,0.2C143.4,83,143.2,82.9,143,82.7z"/>
<path class="st14" d="M142.5,83.9c0.2-0.1,0.5-0.1,0.8,0c0,0,0.1,0.1,0.1,0.2c0,0.1-0.1,0.1-0.1,0.2
	C142.9,84.2,142.6,84.1,142.5,83.9z"/>
<path class="st14" d="M142,85c0.3-0.1,0.5-0.1,0.8,0.1c0,0,0,0.1,0,0.2c0,0.1-0.1,0.1-0.2,0.1C142.4,85.4,142.1,85.2,142,85z"/>
<path class="st16" d="M141.6,86c0.2,0,0.5,0.1,0.7,0.2c0,0,0,0.1,0,0.1c0,0.1-0.1,0.1-0.2,0.1C141.9,86.4,141.7,86.2,141.6,86z"/>
<path class="st16" d="M141.1,87.2c0.3,0,0.5,0.1,0.7,0.3c0,0,0,0.1,0,0.1c0,0.1-0.1,0.1-0.2,0.1C141.3,87.6,141.1,87.4,141.1,87.2z"
	/>
<path class="st14" d="M147.4,84c0.3,0,0.6,0.2,0.8,0.4c0,0.1,0,0.1,0,0.2c-0.1,0.1-0.1,0.1-0.2,0.1C147.7,84.5,147.5,84.3,147.4,84z
	"/>
<path class="st14" d="M146.9,84.9c0.3,0,0.6,0.1,0.9,0.3c0,0.1,0,0.1,0,0.2c0,0.1-0.1,0.1-0.2,0.1C147.3,85.4,147,85.2,146.9,84.9z"
	/>
<path class="st14" d="M145.9,86.6c0.3-0.1,0.6,0,0.9,0.2c0,0.1,0,0.1,0,0.2c0,0.1-0.1,0.1-0.2,0.1C146.3,87,146,86.9,145.9,86.6z"/>
<path class="st14" d="M145.7,87.5c0.3,0,0.6,0,0.8,0.2c0,0,0,0.1,0,0.2c0,0.1-0.1,0.1-0.2,0.1C146.1,87.9,145.8,87.7,145.7,87.5z"/>
<path class="st14" d="M145.4,88.5c0.3-0.1,0.6-0.1,0.9,0c0,0,0.1,0.1,0.1,0.1c0,0.1-0.1,0.1-0.1,0.1
	C145.9,88.8,145.6,88.7,145.4,88.5z"/>
<path class="st14" d="M145.1,89.4c0.3-0.1,0.6-0.1,0.9,0c0,0,0.1,0.1,0.1,0.1c0,0.1-0.1,0.1-0.1,0.1
	C145.5,89.7,145.3,89.6,145.1,89.4z"/>
<path class="st14" d="M146.4,85.8c0.3,0,0.6,0.1,0.9,0.3c0,0.1,0,0.1,0,0.2c0,0.1-0.1,0.1-0.2,0.1C146.8,86.3,146.5,86.1,146.4,85.8
	z"/>
<path class="st14" d="M142.9,83.1c-0.1-0.2-0.4-0.3-0.6-0.3c0,0-0.1,0-0.1,0.1c0,0.1,0,0.1,0,0.2C142.4,83.2,142.6,83.2,142.9,83.1z
	"/>
<path class="st14" d="M142.4,84.3c-0.1-0.2-0.3-0.3-0.6-0.4c0,0-0.1,0-0.1,0.1c0,0.1,0,0.1,0,0.2C141.9,84.4,142.2,84.4,142.4,84.3z
	"/>
<path class="st16" d="M141.9,85.6c-0.1-0.2-0.4-0.3-0.6-0.4c0,0-0.1,0.1-0.1,0.1c0,0.1,0,0.1,0,0.2
	C141.4,85.7,141.6,85.7,141.9,85.6z"/>
<path class="st16" d="M141.3,86.6c-0.1-0.2-0.3-0.3-0.6-0.3c0,0-0.1,0-0.1,0.1c0,0.1,0,0.1,0,0.2C140.8,86.7,141.1,86.8,141.3,86.6z
	"/>
<path class="st14" d="M141.3,83.3c0.1,0,0.5-0.2,0.6,0c0,0,0,0.1,0,0.1c0,0.1-0.1,0.1-0.1,0.2C141.6,83.7,141.3,83.3,141.3,83.3z"/>
<path class="st16" d="M140.9,84.5c0.1,0,0.5-0.2,0.6,0c0,0,0,0.1,0,0.1c0,0.1-0.1,0.1-0.1,0.2C141.1,84.9,140.9,84.5,140.9,84.5z"/>
<path class="st16" d="M140.4,85.5c0.1,0,0.5,0,0.5,0.2c0,0,0,0.1,0,0.1c0,0.1-0.1,0.1-0.1,0.1C140.6,86,140.4,85.6,140.4,85.5z"/>
<path class="st17" d="M120.6,64.6L118,61h52.9l-3,3.4L120.6,64.6z"/>
<ellipse class="st17" cx="153.8" cy="63.7" rx="1.7" ry="1.5"/>
<ellipse class="st17" cx="156.6" cy="63.9" rx="1.8" ry="0.9"/>
<ellipse class="st17" cx="149" cy="64.1" rx="1.7" ry="1.5"/>
<ellipse class="st17" cx="151.8" cy="63.9" rx="1.8" ry="0.9"/>
<ellipse class="st17" cx="130.4" cy="62.3" rx="2.4" ry="2.1"/>
<ellipse class="st17" cx="134.3" cy="62.1" rx="2.5" ry="1.3"/>
<ellipse class="st17" cx="123.5" cy="62.3" rx="2.4" ry="2.1"/>
<ellipse class="st17" cx="127.5" cy="62.1" rx="2.5" ry="1.3"/>
<ellipse class="st17" cx="146.6" cy="62.5" rx="2.8" ry="2.1"/>
<ellipse class="st17" cx="138.8" cy="62.5" rx="2.8" ry="2.1"/>
<ellipse class="st17" cx="143.3" cy="62.1" rx="2.9" ry="1.3"/>
<ellipse class="st17" cx="157.9" cy="62.5" rx="2.8" ry="2.1"/>
<ellipse class="st17" cx="162.2" cy="61.8" rx="2.9" ry="1.3"/>
<ellipse class="st17" cx="127.7" cy="64.4" rx="1.7" ry="1.5"/>
<ellipse class="st17" cx="130.5" cy="64.2" rx="1.8" ry="0.9"/>
<ellipse class="st17" cx="166.6" cy="61.9" rx="2.8" ry="2.1"/>
<path class="st18" d="M153,84.1c-2.1,2.7-3.6,4.6-4.5,5.8c-1,1.3-2.6,2.2-4.2,2.3c-1.9,0-3.7-0.8-4.8-2.2l-2.1-2.8
	c1.6,1.1,3.6,1.5,5.5,1.2c4.2-0.8,6.2-5.8,8.8-5.2C152.2,83.4,152.7,83.7,153,84.1z"/>
<path class="st19" d="M112.3,52.8c4.4,6.2,8.9,12.5,13.6,18.9c4.7,6.4,9.3,12.5,13.8,18.4L123,52.5L112.3,52.8z"/>
<path class="st20" d="M171,52.7l-22.5,37.9l11.8-38.2L171,52.7z"/>
</svg>
