<svg id="Layer_1" data-name="Layer 1" xmlns="http://www.w3.org/2000/svg" viewBox="0 0 192.17 192.17"><defs><style>.cls-1{fill:#f9c95f;opacity:0.82;}.cls-2{fill:#fff;}</style></defs><title>home-icon</title><circle class="cls-1" cx="96.09" cy="96.09" r="96.09"/><path class="cls-2" d="M35.21,118.41c-1.36,1.06-2.62,1.92-4.24,1.92-2.75,0-4.37-2.26-4.37-7.12S28.18,106,30.77,106a5.57,5.57,0,0,1,3.9,1.62l3.25-3.81a11,11,0,0,0-7.54-2.71c-6.35,0-10.86,4.43-10.86,12.11,0,8,4.33,12.25,11.06,12.25a10.89,10.89,0,0,0,7.61-3.21Z" transform="translate(-5.49 -7.98)"/><path class="cls-2" d="M48.94,101.11c-6.91,0-10.75,4.66-10.75,12.14,0,7.65,3.84,12.22,10.75,12.22s10.76-4.73,10.76-12.22C59.7,105.6,55.86,101.11,48.94,101.11Zm0,19.52c-2.58,0-3.67-2-3.67-7.38s1.09-7.31,3.67-7.31,3.68,2,3.68,7.31S51.59,120.63,48.94,120.63Z" transform="translate(-5.49 -7.98)"/><path class="cls-2" d="M76.71,118.41c-1.36,1.06-2.62,1.92-4.24,1.92-2.75,0-4.37-2.26-4.37-7.12S69.69,106,72.27,106a5.57,5.57,0,0,1,3.9,1.62l3.25-3.81a10.66,10.66,0,0,0-3.92-2.2c-2.12,1.62-4.74,3-7.25,3a9.36,9.36,0,0,1-3.66-.85C62.36,105.82,61,109,61,113.22c0,8,4.33,12.25,11.06,12.25a10.89,10.89,0,0,0,7.61-3.21Z" transform="translate(-5.49 -7.98)"/><path class="cls-2" d="M83.11,104.3a4.34,4.34,0,0,1-1.39-.21,1.87,1.87,0,0,1-.61-0.37v21.08h6.82V102.16A7.7,7.7,0,0,1,83.11,104.3ZM95,112l5.88-9.23a2.44,2.44,0,0,1-.9-1,9.64,9.64,0,0,1-2.28,1.77,5,5,0,0,1-2.46.77,2.6,2.6,0,0,1-1.84-.67l-5.31,8.89,6.29,12.28h7.74Z" transform="translate(-5.49 -7.98)"/><path class="cls-2" d="M119.54,101.77c-1.34,1.31-3.18,2.57-5.14,2.57a5.56,5.56,0,0,1-3.56-1.34,5.14,5.14,0,0,1-1-1.23c-1.34,1.31-3.18,2.57-5.14,2.57a5.09,5.09,0,0,1-3-.89v3.42h5.59v17.94h6.82V106.87h5.23l0.59-4.36A4.21,4.21,0,0,1,119.54,101.77Z" transform="translate(-5.49 -7.98)"/><path class="cls-2" d="M132.56,104.12a3.91,3.91,0,0,1-.51,0c-1.26,0-3.61-1.07-4.19-2.12a9.08,9.08,0,0,1-1.07.79,7.3,7.3,0,0,1-3.72,1.39H123l-6,20.59h7.12l0.86-4.47h5.46l0.9,4.47h7.21ZM126,115.57l1.75-9,1.79,9H126Z" transform="translate(-5.49 -7.98)"/><path class="cls-2" d="M139.16,101.77v23H146v-23h-6.82Z" transform="translate(-5.49 -7.98)"/><path class="cls-2" d="M155.64,119.57V101.77h-6.82v23h14.82l0.7-5.23h-8.7Z" transform="translate(-5.49 -7.98)"/><path class="cls-2" d="M176.79,110.21c-3.28-1.06-4.14-1.43-4.14-2.62,0-1,.82-1.65,2.48-1.65a7.6,7.6,0,0,1,4.93,1.85l3-3.54a11.57,11.57,0,0,0-8.51-3.14c-5.1,0-8.93,2.68-8.93,7,0,3.35,1.62,5.69,7.18,7.45,3,0.93,3.74,1.53,3.74,2.88,0,1.2-.89,2.09-2.87,2.09a8.52,8.52,0,0,1-5.66-2.25L164.67,122a12.9,12.9,0,0,0,9.27,3.47c6.05,0,9.7-3.11,9.7-7.54C183.64,113.78,181.52,111.73,176.79,110.21Z" transform="translate(-5.49 -7.98)"/><path class="cls-2" d="M77.39,94.91a0.44,0.44,0,0,0-.24.1,15.64,15.64,0,0,1-8.43,3.2c-2.37,0-3.29-1.32-3.29-3.17,0-2.52,1.66-5.94,2.77-7.65,3.14-4.83,7-7.78,8.12-7.78,0.15,0,.28,0,0.28.18A4.16,4.16,0,0,1,76,81.08c-0.37.68-2.15,3.38-2.15,3.69,0,0.52,2.77,2.25,3.6,2.25,1,0,3.32-5.41,3.32-6.89-0.15-1.63-2.77-3.72-5-3.72-3,0-7.75,2.67-12.14,9.78a21.25,21.25,0,0,0-3.39,10,4.35,4.35,0,0,0,.19,1.26,6.09,6.09,0,0,0,2.81,3.32,8.54,8.54,0,0,0,5.08,1s4.68-.2,10.11-5.63a0.14,0.14,0,0,0,0-.12A1.25,1.25,0,0,0,77.39,94.91Z" transform="translate(-5.49 -7.98)"/><path class="cls-2" d="M90.58,94.26c-0.8,0-2,2.06-3,3l-0.12.1a5.87,5.87,0,0,1-3.39,1.56C83.35,98.87,83,98.63,83,98a16.26,16.26,0,0,1,1.54-4.92,14.71,14.71,0,0,0,4.79-3.81c2.09-2.27,3.33-5,3.33-6a3,3,0,0,0-2.43-2.49c-3.47,0-10.92,12.85-10.92,16.91,0,0.83,1.32,3.14,2.39,3.47a4.35,4.35,0,0,0,1.39.22,7.7,7.7,0,0,0,4.82-2.14,20.35,20.35,0,0,0,3.14-3.48A1.4,1.4,0,0,0,91.35,95,0.77,0.77,0,0,0,90.58,94.26Zm-0.25-9.93a0.52,0.52,0,0,1,.12,0,0.22,0.22,0,0,1,.1.21c0,0.89-2.15,4-4.37,5.71C87.6,87.69,89.59,84.33,90.33,84.33Z" transform="translate(-5.49 -7.98)"/><path class="cls-2" d="M101.61,95a1.14,1.14,0,0,0-.79.46c-0.25.29-.74,0.9-1.32,1.54l0,0c-0.93,1-2.06,2.1-2.83,2.1a0.35,0.35,0,0,1-.43-0.34c0-1,1.75-3.9,3-5.63a8.79,8.79,0,0,0,1.1-1.87c0-.9-1.66-1.48-2.42-1.48-0.28,0-.52.09-1.29,1-0.37-.71-1-1.72-1.72-1.72-2.89,0-7.32,5-7.41,8.08a0.25,0.25,0,0,0,0,.07,4.5,4.5,0,0,0,.48,2,3.35,3.35,0,0,0,2.59,2.08A3.71,3.71,0,0,0,92.94,100a2.33,2.33,0,0,0,2.34,1.45c1.7,0,3.52-1.32,4.94-2.73,0.53-.52,1-1,1.4-1.52l0.39-.49,0.14-.18a1,1,0,0,0,.21-0.62A0.8,0.8,0,0,0,101.61,95Zm-8.05.71c-0.37.74-1.88,3-2.67,3-0.1,0-.15,0-0.15-0.22A9.57,9.57,0,0,1,92.3,95c0.83-1.38,2.18-3.11,2.77-3.11a0.69,0.69,0,0,1,.28.65A28.83,28.83,0,0,0,93.56,95.74Z" transform="translate(-5.49 -7.98)"/><path class="cls-2" d="M111.27,95c-0.51,0-1.19,1-1.91,1.84a4.54,4.54,0,0,1-.92.84c-0.22-1.38-1.14-2.21-1.14-4.05a16.36,16.36,0,0,1,.49-2.49c0-.56-0.74-0.74-1.08-1.18a1.75,1.75,0,0,0-1.14-.79c-0.83,0-2.24,2.45-2.92,3.59S100.4,95.85,99.5,97l0,0a3.87,3.87,0,0,0-.58.87,0.87,0.87,0,0,0,1,.76,0.82,0.82,0,0,0,.37-0.06,0.1,0.1,0,0,1,0,0,4.49,4.49,0,0,0,4.47,2.75c2,0,3.92-1.34,5.27-2.7a14.25,14.25,0,0,0,1.37-1.58,8.49,8.49,0,0,0,.59-0.89A1,1,0,0,0,112,95.8,0.79,0.79,0,0,0,111.27,95Zm-7.87,4c-0.68,0-1.45-.55-1.79-1.84l0.39-.49c0.94-1.18,2-2.56,2.38-3V94a13.87,13.87,0,0,0,.31,2.64,3.08,3.08,0,0,1,.09.71A1.52,1.52,0,0,1,103.4,99Z" transform="translate(-5.49 -7.98)"/><path class="cls-2" d="M121,95a1.37,1.37,0,0,0-.81.54,13.68,13.68,0,0,1-2,2.13c-0.21-1.38-1.14-2.21-1.14-4.05a16.36,16.36,0,0,1,.49-2.49c0-.56-0.73-0.74-1.07-1.18a1.75,1.75,0,0,0-1.14-.79c-0.83,0-2.25,2.45-2.92,3.59s-2.09,2.88-3,4.08a6.12,6.12,0,0,0-.77,1.12,0.88,0.88,0,0,0,1,.76,0.79,0.79,0,0,0,.37-0.06l0,0.1a4.48,4.48,0,0,0,4.44,2.7c2,0,3.8-1.26,5.14-2.57a12.66,12.66,0,0,0,2.09-2.59,0.94,0.94,0,0,0,.12-0.49A0.79,0.79,0,0,0,121,95Zm-7.87,4c-0.68,0-1.45-.55-1.78-1.84,1-1.26,2.34-3,2.77-3.5V94a13.84,13.84,0,0,0,.3,2.64,2.75,2.75,0,0,1,.1.71A1.52,1.52,0,0,1,113.11,99Z" transform="translate(-5.49 -7.98)"/><path class="cls-2" d="M129.8,94.91c-0.57,0-1.31,1-2.24,2A9.8,9.8,0,0,1,126.43,98a5.4,5.4,0,0,1-2.55,1.38c-0.56,0-.83-0.21-0.83-0.58a7.09,7.09,0,0,1,1.2-2.74c1.54-2.52,3.07-4.39,3.07-4.86a2.64,2.64,0,0,0-2.27-2,1.16,1.16,0,0,0-.46.1c-0.65.33-3.1,3.67-4.41,6.23a6.41,6.41,0,0,0-.82,2.38,2.8,2.8,0,0,0,.19,1,3.91,3.91,0,0,0,1.84,2.17,4.75,4.75,0,0,0,1.7.28,7.29,7.29,0,0,0,3.72-1.38,9.17,9.17,0,0,0,1.07-.8,13.68,13.68,0,0,0,2.48-2.74,1.32,1.32,0,0,0,.18-0.64A0.8,0.8,0,0,0,129.8,94.91Zm-1-10.88a3.33,3.33,0,0,0-2.24,2.49,2.43,2.43,0,0,0,2.09,1.93,2.07,2.07,0,0,0,1.57-1.2,3.31,3.31,0,0,0,.62-1.63A2,2,0,0,0,128.82,84Z" transform="translate(-5.49 -7.98)"/><path class="cls-2" d="M138.6,95a0.92,0.92,0,0,0-.68.4c-2,2.56-3.72,3.81-5.41,3.81a1.38,1.38,0,0,1-1.6-1.63c0-2.92,3.22-5.93,3.69-5.93,0.07,0,.18,0,0.18.09a6.17,6.17,0,0,0-.55,1.42A2.27,2.27,0,0,0,136,94.64c0.77,0,1.63-1.84,1.73-2.8,0-1.17-1.91-2.56-2.74-2.67-0.15,0-.27,0-0.43,0-2.62,0-6.6,3.73-6.95,7.79a5.12,5.12,0,0,0,0,.58,3.86,3.86,0,0,0,.27,1.56,0.6,0.6,0,0,0,.05.1c0.59,1.05,2.94,2.12,4.19,2.12a7.7,7.7,0,0,0,5-2.37,15.77,15.77,0,0,0,2.18-2.56A0.9,0.9,0,0,0,138.6,95Z" transform="translate(-5.49 -7.98)"/></svg>