<svg id="Layer_1" data-name="Layer 1" xmlns="http://www.w3.org/2000/svg" xmlns:xlink="http://www.w3.org/1999/xlink" viewBox="0 0 287.6 183.9"><defs><style>.cls-1{fill:url(#radial-gradient);}.cls-2{fill:#c8972c;opacity:0.27;}.cls-3,.cls-47,.cls-9{fill:#f9efc7;}.cls-19,.cls-4{fill:#ecc11c;}.cls-20,.cls-5{fill:#f9d027;}.cls-21,.cls-6{fill:#faf5ae;}.cls-22,.cls-7{fill:#f2d143;}.cls-8{fill:#f2de8b;}.cls-9{opacity:0.57;}.cls-10{fill:url(#linear-gradient);}.cls-11,.cls-13,.cls-17{fill:#fff;}.cls-11{opacity:0.5;}.cls-12,.cls-14,.cls-15,.cls-25,.cls-26{opacity:0.31;}.cls-12{fill:url(#linear-gradient-2);}.cls-13{opacity:0.45;}.cls-14{fill:url(#linear-gradient-3);}.cls-15{fill:url(#linear-gradient-4);}.cls-16,.cls-18{opacity:0.66;}.cls-16{fill:url(#linear-gradient-5);}.cls-17{opacity:0.61;}.cls-18{fill:url(#linear-gradient-6);}.cls-19,.cls-20,.cls-21,.cls-22,.cls-23{opacity:0.64;}.cls-23,.cls-24{fill:#f2db79;}.cls-25{fill:url(#linear-gradient-7);}.cls-26{fill:url(#linear-gradient-8);}.cls-27{fill:#d69a29;}.cls-28{fill:#f3ce13;}.cls-29,.cls-30{fill:#f6f7d3;}.cls-29{opacity:0.58;}.cls-30{opacity:0.71;}.cls-31{fill:url(#linear-gradient-9);}.cls-32,.cls-33,.cls-34,.cls-39,.cls-40,.cls-41,.cls-42{opacity:0.6;}.cls-32{fill:url(#radial-gradient-2);}.cls-33{fill:url(#radial-gradient-3);}.cls-34{fill:url(#radial-gradient-4);}.cls-35,.cls-36,.cls-37,.cls-38{opacity:0.76;}.cls-35{fill:url(#radial-gradient-5);}.cls-36{fill:url(#radial-gradient-6);}.cls-37{fill:url(#radial-gradient-7);}.cls-38{fill:url(#radial-gradient-8);}.cls-39{fill:url(#radial-gradient-9);}.cls-40{fill:url(#radial-gradient-10);}.cls-41{fill:url(#radial-gradient-11);}.cls-42{fill:url(#radial-gradient-12);}.cls-43{opacity:0.47;fill:url(#linear-gradient-10);}.cls-44{fill:#f2e4a9;}.cls-45{fill:url(#linear-gradient-11);}.cls-46{fill:#fff2ea;opacity:0.38;}.cls-47{opacity:0.37;}</style><radialGradient id="radial-gradient" cx="143.8" cy="91.95" r="120.69" gradientUnits="userSpaceOnUse"><stop offset="0.35" stop-color="#eed5a2"/><stop offset="0.82" stop-color="#f9c95d"/></radialGradient><linearGradient id="linear-gradient" x1="142.55" y1="65.2" x2="142.55" y2="140.73" gradientUnits="userSpaceOnUse"><stop offset="0" stop-color="#f6bc4e"/><stop offset="0.37" stop-color="#eead73"/><stop offset="0.93" stop-color="#c04223"/><stop offset="1" stop-color="#8d1d1c"/></linearGradient><linearGradient id="linear-gradient-2" x1="-99.44" y1="379.77" x2="-90.78" y2="371.77" gradientTransform="translate(484.08 310.3) rotate(106.54)" gradientUnits="userSpaceOnUse"><stop offset="0" stop-color="#dbdebc"/><stop offset="0.97" stop-color="#fff"/></linearGradient><linearGradient id="linear-gradient-3" x1="57.02" y1="-72.48" x2="65.7" y2="-80.5" gradientTransform="translate(49.04 162.12) rotate(29.89)" xlink:href="#linear-gradient-2"/><linearGradient id="linear-gradient-4" x1="-139.96" y1="179.97" x2="-131.08" y2="171.77" gradientTransform="translate(336.71 198.63) rotate(76.39)" xlink:href="#linear-gradient-2"/><linearGradient id="linear-gradient-5" x1="-91.83" y1="-16.23" x2="-83.17" y2="-24.24" gradientTransform="matrix(0.66, 0.75, -0.75, 0.66, 172.52, 148.43)" xlink:href="#linear-gradient-2"/><linearGradient id="linear-gradient-6" x1="84.1" y1="-153.75" x2="93.19" y2="-162.15" gradientTransform="translate(18.72 199.67) rotate(15.17)" xlink:href="#linear-gradient-2"/><linearGradient id="linear-gradient-7" x1="-106.19" y1="419.43" x2="-97.35" y2="411.26" gradientTransform="translate(474.36 366.39) rotate(115.59)" xlink:href="#linear-gradient-2"/><linearGradient id="linear-gradient-8" x1="-163.88" y1="156.34" x2="-153.74" y2="146.98" gradientTransform="translate(336.71 198.63) rotate(76.39)" xlink:href="#linear-gradient-2"/><linearGradient id="linear-gradient-9" x1="140.55" y1="127.93" x2="149.7" y2="143.76" gradientUnits="userSpaceOnUse"><stop offset="0.78" stop-color="#97251e"/><stop offset="1" stop-color="#8d1d1c"/></linearGradient><radialGradient id="radial-gradient-2" cx="-11.12" cy="174.13" r="1" gradientTransform="translate(320.56 77.27) rotate(70.4)" gradientUnits="userSpaceOnUse"><stop offset="0" stop-color="#fbe5ef"/><stop offset="1" stop-color="#fff"/></radialGradient><radialGradient id="radial-gradient-3" cx="-9.5" cy="185.59" r="1.45" gradientTransform="translate(327.7 83.05) rotate(70.4)" xlink:href="#radial-gradient-2"/><radialGradient id="radial-gradient-4" cx="-7.52" cy="179.12" r="1.64" gradientTransform="matrix(0.34, 0.94, -0.94, 0.34, 325.35, 78.22)" xlink:href="#radial-gradient-2"/><radialGradient id="radial-gradient-5" cx="-56.47" cy="137.25" r="0.89" gradientTransform="translate(274.27 80.4) rotate(70.4)" xlink:href="#radial-gradient-2"/><radialGradient id="radial-gradient-6" cx="-54.3" cy="146.18" r="1.29" gradientTransform="translate(280.36 84.42) rotate(70.4)" xlink:href="#radial-gradient-2"/><radialGradient id="radial-gradient-7" cx="-53.06" cy="140.68" r="1.45" gradientTransform="translate(278.11 80.55) rotate(70.4)" xlink:href="#radial-gradient-2"/><radialGradient id="radial-gradient-8" cx="-55.52" cy="133.19" r="0.68" gradientTransform="translate(272.62 77.53) rotate(70.4)" xlink:href="#radial-gradient-2"/><radialGradient id="radial-gradient-9" cx="-8.96" cy="168.38" r="0.77" gradientTransform="translate(318.7 72.77) rotate(70.4)" xlink:href="#radial-gradient-2"/><radialGradient id="radial-gradient-10" cx="228.53" cy="107.67" r="1" gradientTransform="translate(155.19 -117.77) rotate(70.4)" xlink:href="#radial-gradient-2"/><radialGradient id="radial-gradient-11" cx="232.38" cy="111.55" r="1.64" gradientTransform="translate(162.29 -119.98) rotate(70.4)" xlink:href="#radial-gradient-2"/><radialGradient id="radial-gradient-12" cx="228.12" cy="102.69" r="0.77" gradientTransform="translate(148.92 -120.41) rotate(70.4)" xlink:href="#radial-gradient-2"/><linearGradient id="linear-gradient-10" x1="142.75" y1="65.3" x2="142.75" y2="140.84" xlink:href="#linear-gradient"/><linearGradient id="linear-gradient-11" x1="142.42" y1="147.95" x2="142.42" y2="145.34" gradientUnits="userSpaceOnUse"><stop offset="0" stop-color="#f4e7af"/><stop offset="0.78" stop-color="#fbf4d8"/></linearGradient></defs><title>iced-tea</title><rect class="cls-1" width="287.6" height="183.9"/><ellipse class="cls-2" cx="142.55" cy="148.59" rx="22.58" ry="4.51"/><path class="cls-3" d="M116.82,59.09l8.47,88.2a1.27,1.27,0,0,0,1.12,1.13,143.35,143.35,0,0,0,31.86,0,1.52,1.52,0,0,0,1.35-1.35l9-87.78a2,2,0,0,0-1.85-2.13c-7.14-.41-14.65-0.66-22.49-0.69-9.07,0-17.7.23-25.84,0.7A1.74,1.74,0,0,0,116.82,59.09Z"/><ellipse class="cls-4" cx="119.64" cy="57.2" rx="14.46" ry="14.44"/><ellipse class="cls-5" cx="119.78" cy="57.12" rx="14.13" ry="14.11"/><path class="cls-6" d="M119.61,44.35h1.16a1.56,1.56,0,0,1,.36,0,0.62,0.62,0,0,1,.2.14,1.1,1.1,0,0,0,.22.12,3.19,3.19,0,0,0,.61.18,1.14,1.14,0,0,0,.27,0h0.36a1.25,1.25,0,0,1,.59.09,1.43,1.43,0,0,1,.21.13,3.25,3.25,0,0,1,.34.2,0.55,0.55,0,0,0,.22.12l0.09,0a0.31,0.31,0,0,0,0,0,0.49,0.49,0,0,0,.09,0l0.11,0c0.08,0,.17,0,0.25,0a1,1,0,0,1,.13,0c0.06,0,.13,0,0.19,0a0.62,0.62,0,0,1,.11.09l0.17,0.09h0.06a0.84,0.84,0,0,1,.08.07c0.08,0.06.22,0,.22,0.19a0.34,0.34,0,0,1,.22.15,1.79,1.79,0,0,1,.23.2,0.69,0.69,0,0,0,.41.27,2.14,2.14,0,0,0,.52.15,0.75,0.75,0,0,1,.45.18,0.32,0.32,0,0,1,.08.17l0.06,0.09a0.09,0.09,0,0,1,.07.05v0a2,2,0,0,0,.26.28l0.27,0.27a0.74,0.74,0,0,0,.41.26l0,0.07a0.72,0.72,0,0,1,.12.06c0.09,0,.08,0,0.14,0a0.57,0.57,0,0,1,0,.32,1,1,0,0,0,.26.41,1.7,1.7,0,0,0,.38.38,1.37,1.37,0,0,1,.17.07s0.05,0.07.08,0.09a0.52,0.52,0,0,0,.15,0,0.46,0.46,0,0,0,.17.09,0.39,0.39,0,0,0,.09.2,1.24,1.24,0,0,1,.14.22,0.78,0.78,0,0,0,0,.11l0.06,0.07s0,0.08,0,.11,0.07,0.06.1,0.11a0.58,0.58,0,0,1,0,.25,0.64,0.64,0,0,0,.14.22,1.37,1.37,0,0,1,.23.2,1,1,0,0,1,.09.25c0,0.05,0,.11,0,0.16a0.34,0.34,0,0,0,0,.09c0,0.11.1,0.2,0.14,0.31a0.32,0.32,0,0,0,.09.18,0.9,0.9,0,0,1,.17.16,3,3,0,0,1,.18.36,1.56,1.56,0,0,1,.15.26,1.72,1.72,0,0,1,0,.33,1.2,1.2,0,0,0,.13.57,0.6,0.6,0,0,1,.1.2,1.56,1.56,0,0,1,0,.29c0,0.2,0,.4,0,0.6a1.37,1.37,0,0,0,0,.29s0,0.09,0,.13a0.36,0.36,0,0,0,0,.07,0.23,0.23,0,0,0,.07.05,1,1,0,0,1,.16.59,1.19,1.19,0,0,1,0,.29l0,0.14,0,0s0,0.1,0,.13a0.9,0.9,0,0,0,0,.08,0.35,0.35,0,0,1,0,.14,0.24,0.24,0,0,0-.07.16c0,0.05,0,.1,0,0.16q0,0.37,0,.74v0.29a1,1,0,0,0,0,.33,0.45,0.45,0,0,1,.08.16s0,0.09,0,.13,0,0.11,0,.16,0,0.06-.07.12a0.7,0.7,0,0,0-.11.3,1.76,1.76,0,0,0,0,.38,1.86,1.86,0,0,1-.09.63,1.56,1.56,0,0,1-.16.5,0.28,0.28,0,0,0-.07.15,0.94,0.94,0,0,0,0,.16,1.1,1.1,0,0,1,0,.13,0.67,0.67,0,0,0,0,.11,0.74,0.74,0,0,1,0,.15,1.1,1.1,0,0,1-.07.09,1.26,1.26,0,0,0-.07.27,1.16,1.16,0,0,1-.36.56,5.42,5.42,0,0,1-.38.39,1,1,0,0,0-.39.26,2.34,2.34,0,0,0-.11.56c0,0.15-.09.3-0.11,0.46s0,0.11,0,.17a0.38,0.38,0,0,1,0,.1,1,1,0,0,1,0,.13l-0.07.12a2.27,2.27,0,0,1-.25.14c-0.08.06-.13,0.16-0.22,0.21a0.81,0.81,0,0,0-.12.05s0,0,0,.06l-0.11.07c-0.09.06-.17,0.16-0.27,0.22l-0.35.23a0.54,0.54,0,0,0-.16.08c0,0.05,0,.14-0.09.19s-0.14.13-.19,0.2a0.59,0.59,0,0,0-.09.12s0,0.08,0,.12a0.73,0.73,0,0,1-.21.18,0.75,0.75,0,0,1-.27.16,1,1,0,0,0-.3.1,2.85,2.85,0,0,1-.25.16,0.37,0.37,0,0,1-.15,0,0.76,0.76,0,0,0-.29.1,3.59,3.59,0,0,0-.5.35,1,1,0,0,0-.17.24,0.73,0.73,0,0,1-.11.12,0.44,0.44,0,0,0-.13.21,0.79,0.79,0,0,1-.23.23,1.17,1.17,0,0,1-.12.17c-0.06,0-.15,0-0.22.07a0.55,0.55,0,0,1-.37.12,0.46,0.46,0,0,0-.32.11,1.09,1.09,0,0,1-.59.25,0.68,0.68,0,0,0-.29,0l-0.32.17a2.12,2.12,0,0,1-.66,0,0.72,0.72,0,0,0-.31.13l-0.23.16a0.4,0.4,0,0,1-.18.11,1.61,1.61,0,0,0-.86,0,1,1,0,0,0-.07.1l-0.1.06a0.89,0.89,0,0,1-.15.12,1.41,1.41,0,0,1-.48.05h-0.79a0.71,0.71,0,0,0-.23.09l-0.18,0-0.13,0s-0.08,0-.12,0l-0.08,0a0.6,0.6,0,0,1-.22,0,1.16,1.16,0,0,1-.27-0.14l-0.14-.09a1.06,1.06,0,0,0-.17-0.05c-0.12-.05-0.21-0.17-0.33-0.23l-0.11,0s-0.07-.06-0.11-0.08a0.69,0.69,0,0,0-.23,0h-0.41a0.84,0.84,0,0,1-.49,0c-0.09-.1,0-0.29-0.13-0.38a1,1,0,0,0-.47,0,2.33,2.33,0,0,1-.22-0.08,2.93,2.93,0,0,0-.33-0.07,1,1,0,0,1-.45-0.17,0.68,0.68,0,0,1-.1-0.07,1.44,1.44,0,0,1-.07-0.13c0-.06-0.11-0.09-0.15-0.15s-0.05-.06-0.17-0.09,0,0-.07,0H114a0.9,0.9,0,0,0-.05-0.22c0-.14-0.05-0.12-0.18-0.13s-0.07-.07-0.1-0.18a0.35,0.35,0,0,0-.17-0.23s-0.1,0-.14,0l-0.05,0a1.29,1.29,0,0,0-.26,0,1.82,1.82,0,0,1-.27,0,0.47,0.47,0,0,1-.32-0.23,2.68,2.68,0,0,1-.23-0.28,1.44,1.44,0,0,1-.14-0.26,0.91,0.91,0,0,0-.36-0.44l-0.22-.11-0.18,0s-0.06-.05-0.1-0.07a1.39,1.39,0,0,1-.46-0.23,0.7,0.7,0,0,1-.13-0.49,0.38,0.38,0,0,0-.27-0.35A1.07,1.07,0,0,0,110,65a1.63,1.63,0,0,1-.28,0,0.72,0.72,0,0,1-.23-0.47l-0.1-.25a0.58,0.58,0,0,0-.16-0.15,0.33,0.33,0,0,0-.06-0.11s-0.12,0-.17,0a0.62,0.62,0,0,1-.06-0.12,1,1,0,0,1-.09-0.1c0-.06,0-0.12-0.09-0.18a0.92,0.92,0,0,1-.14-0.32c-0.06-.2,0-0.42-0.08-0.62a1.65,1.65,0,0,0-.09-0.26l-0.12-.19a1.11,1.11,0,0,0-.19-0.26,0.67,0.67,0,0,1-.18-0.28c-0.08-.17-0.2-0.35-0.27-0.54l-0.09-.23a1.38,1.38,0,0,1-.06-0.26c0-.07-0.09-0.16-0.12-0.23a0.67,0.67,0,0,1,0-.14,0.61,0.61,0,0,0,0-.1c0-.09,0-0.17,0-0.26a1.25,1.25,0,0,1,0-.22,0.6,0.6,0,0,0,0-.22,1.16,1.16,0,0,0-.08-0.24,1.51,1.51,0,0,1-.24-0.4,1.85,1.85,0,0,1,0-.53,0.76,0.76,0,0,1,0-.1s0-.08,0-0.12,0-.09.05-0.14a1.26,1.26,0,0,0,0-.21,1.43,1.43,0,0,0,0-.33l0-.12s0-.08,0-0.1,0-.18,0-0.26a1.39,1.39,0,0,1-.19-0.27c0-.31,0-0.63,0-0.94a0.41,0.41,0,0,1,.05-0.22c0.06-.09.17-0.13,0.23-0.22a0.77,0.77,0,0,0,.08-0.49V54.2c0-.12,0-0.25,0-0.37a2.88,2.88,0,0,1,.12-0.62,3.45,3.45,0,0,1,.33-0.63,0.74,0.74,0,0,1,.17-0.24,0.9,0.9,0,0,0,.16-0.25c0.05-.1.12-0.18,0.17-0.27a2.31,2.31,0,0,0,.1-0.22s0.05-.07.07-0.1,0-.15.05-0.21a2.15,2.15,0,0,1,.26-0.29,1.67,1.67,0,0,1,.24-0.22,0.32,0.32,0,0,0,.1-0.25,1.14,1.14,0,0,1,.11-0.19,1.84,1.84,0,0,0,.08-0.27,3.54,3.54,0,0,1,.2-0.41,1.55,1.55,0,0,1,.16-0.28,0.77,0.77,0,0,1,.09-0.1,1.13,1.13,0,0,1,.16,0l0-.07h0.12a2.37,2.37,0,0,1,0-.34,2,2,0,0,1,.15-0.32s0.06,0,.07-0.05a1,1,0,0,0,0-.1,0.59,0.59,0,0,1,.25-0.27c0.12-.07.25-0.1,0.36-0.16a0.9,0.9,0,0,1,.06-0.27l0.09-.22a1.39,1.39,0,0,1,.26-0.38,1.44,1.44,0,0,1,.54-0.37A1,1,0,0,0,112,46.6a1,1,0,0,1,.16-0.11,0.4,0.4,0,0,0,.1,0,0.35,0.35,0,0,1,.16-0.1,0.81,0.81,0,0,0,.24-0.09,0.92,0.92,0,0,0,.23-0.23,1.93,1.93,0,0,1,.25-0.21,2,2,0,0,1,.29-0.18,1,1,0,0,1,.45-0.05,1.36,1.36,0,0,0,.44,0,2.24,2.24,0,0,0,.32-0.14,0.57,0.57,0,0,0,.17-0.1s0-.07,0-0.08a0.15,0.15,0,0,1,.08,0,1.84,1.84,0,0,1,.32-0.08,1.67,1.67,0,0,0,.32-0.05,2,2,0,0,1,.27-0.05,1.87,1.87,0,0,0,.45-0.27,1.47,1.47,0,0,1,.45,0,0.79,0.79,0,0,0,.22-0.14l0.28-.21a0.18,0.18,0,0,1,.16-0.07c0.13,0,.11,0,0.16.13a0.37,0.37,0,0,0,.42.14,1.32,1.32,0,0,0,.45,0l0.22-.08C118.75,44.45,119.55,44.06,119.61,44.35Z"/><path class="cls-7" d="M115.65,46.58a0.56,0.56,0,0,1,.3-0.73,9.29,9.29,0,0,1,7.4,0,0.55,0.55,0,0,1,.29.71L119.94,56a0.2,0.2,0,0,1-.37,0Z"/><path class="cls-7" d="M115.65,67.31a0.56,0.56,0,0,0,.3.73,9.29,9.29,0,0,0,7.4,0,0.55,0.55,0,0,0,.29-0.71l-3.7-9.47a0.2,0.2,0,0,0-.37,0Z"/><path class="cls-7" d="M130.12,53a0.56,0.56,0,0,1,.73.3,9.24,9.24,0,0,1,0,7.38,0.56,0.56,0,0,1-.71.29l-9.48-3.69a0.2,0.2,0,0,1,0-.37Z"/><path class="cls-7" d="M109.35,53a0.56,0.56,0,0,0-.73.3,9.24,9.24,0,0,0,0,7.38,0.56,0.56,0,0,0,.71.29l9.48-3.69a0.2,0.2,0,0,0,0-.37Z"/><path class="cls-7" d="M124.16,46.8a0.56,0.56,0,0,1,.73-0.3,9.27,9.27,0,0,1,5.22,5.23,0.55,0.55,0,0,1-.3.71l-9.32,4.08a0.2,0.2,0,0,1-.26-0.26Z"/><path class="cls-7" d="M109.48,61.46a0.56,0.56,0,0,0-.3.73,9.27,9.27,0,0,0,5.24,5.21,0.56,0.56,0,0,0,.71-0.3l4.09-9.31a0.2,0.2,0,0,0-.26-0.26Z"/><path class="cls-7" d="M109.48,52.52a0.56,0.56,0,0,1-.3-0.73,9.27,9.27,0,0,1,5.24-5.21,0.56,0.56,0,0,1,.71.3l4.09,9.31a0.2,0.2,0,0,1-.26.26Z"/><path class="cls-7" d="M124.16,67.18a0.56,0.56,0,0,0,.73.3,9.27,9.27,0,0,0,5.22-5.23,0.55,0.55,0,0,0-.3-0.71l-9.32-4.08a0.2,0.2,0,0,0-.26.26Z"/><path class="cls-6" d="M116.91,54.76a2,2,0,0,0,1.56,1,0.1,0.1,0,0,0,.12-0.12,2,2,0,0,0-1-1.57A0.52,0.52,0,0,0,116.91,54.76Z"/><path class="cls-6" d="M117.58,59.82a2,2,0,0,0,1-1.56,0.1,0.1,0,0,0-.12-0.12,2,2,0,0,0-1.58,1A0.52,0.52,0,0,0,117.58,59.82Z"/><path class="cls-6" d="M122.45,54.93a2,2,0,0,1-1.56,1,0.1,0.1,0,0,1-.12-0.12,2,2,0,0,1,1-1.57A0.52,0.52,0,0,1,122.45,54.93Z"/><path class="cls-6" d="M121.78,59.82a2,2,0,0,1-1-1.56,0.1,0.1,0,0,1,.12-0.12,2,2,0,0,1,1.58,1A0.52,0.52,0,0,1,121.78,59.82Z"/><path class="cls-8" d="M119.43,48a13.83,13.83,0,0,0,.5,4.36c0,0.16.1,0.16,0.13,0a13.26,13.26,0,0,0,.08-4.33,1.36,1.36,0,0,0-.4-0.8A1.14,1.14,0,0,0,119.43,48Z"/><path class="cls-8" d="M117.38,47.37A13,13,0,0,0,118.63,51c0.06,0.12.11,0.11,0.1,0a12.94,12.94,0,0,0-.8-3.71,1.1,1.1,0,0,0-.46-0.58A1.17,1.17,0,0,0,117.38,47.37Z"/><path class="cls-8" d="M121.43,46.83a9.06,9.06,0,0,0-.34,3.15c0,0.12.05,0.14,0.1,0a8.23,8.23,0,0,0,.78-3,1.07,1.07,0,0,0-.17-0.67A0.66,0.66,0,0,0,121.43,46.83Z"/><path class="cls-8" d="M126.33,50.25a13.83,13.83,0,0,0-3,3.16c-0.1.13-.06,0.18,0.08,0.1a13.26,13.26,0,0,0,3.39-2.69,1.36,1.36,0,0,0,.36-0.82A1.14,1.14,0,0,0,126.33,50.25Z"/><path class="cls-8" d="M125,48.61a13,13,0,0,0-2,3.24c-0.06.13,0,.15,0.08,0.06a12.94,12.94,0,0,0,2.36-3,1.1,1.1,0,0,0,.16-0.72A1.17,1.17,0,0,0,125,48.61Z"/><path class="cls-8" d="M128,51.39a9.06,9.06,0,0,0-2.64,1.74c-0.09.08-.08,0.13,0,0.1a8.23,8.23,0,0,0,2.78-1.28,1.07,1.07,0,0,0,.41-0.56A0.66,0.66,0,0,0,128,51.39Z"/><path class="cls-8" d="M119.46,65.4A13.83,13.83,0,0,1,120,61c0-.16.1-0.16,0.13,0a13.26,13.26,0,0,1,.08,4.33,1.36,1.36,0,0,1-.4.8A1.14,1.14,0,0,1,119.46,65.4Z"/><path class="cls-8" d="M117.41,66a13,13,0,0,1,1.24-3.58c0.06-.12.11-0.11,0.1,0a12.94,12.94,0,0,1-.8,3.71,1.1,1.1,0,0,1-.46.58A1.17,1.17,0,0,1,117.41,66Z"/><path class="cls-8" d="M121.45,66.57a9.06,9.06,0,0,1-.34-3.15c0-.12.05-0.14,0.1,0a8.23,8.23,0,0,1,.78,3,1.07,1.07,0,0,1-.17.67A0.66,0.66,0,0,1,121.45,66.57Z"/><path class="cls-8" d="M126.35,63.14a13.83,13.83,0,0,1-3-3.16c-0.1-.13-0.06-0.18.08-0.1a13.26,13.26,0,0,1,3.39,2.69,1.36,1.36,0,0,1,.36.82A1.14,1.14,0,0,1,126.35,63.14Z"/><path class="cls-8" d="M125,64.79a13,13,0,0,1-2-3.24c-0.06-.13,0-0.15.08-0.06a12.94,12.94,0,0,1,2.36,3,1.1,1.1,0,0,1,.16.72A1.17,1.17,0,0,1,125,64.79Z"/><path class="cls-8" d="M128,62a9.06,9.06,0,0,1-2.64-1.74c-0.09-.08-0.08-0.13,0-0.1a8.23,8.23,0,0,1,2.78,1.28,1.07,1.07,0,0,1,.41.56A0.66,0.66,0,0,1,128,62Z"/><path class="cls-8" d="M113.6,50.42a13.83,13.83,0,0,1,2.81,3.37c0.09,0.14,0,.19-0.08.1A13.26,13.26,0,0,1,113.14,51a1.36,1.36,0,0,1-.31-0.84A1.14,1.14,0,0,1,113.6,50.42Z"/><path class="cls-8" d="M114.56,48.5a13,13,0,0,1,1.74,3.37c0,0.13,0,.16-0.09.05a12.94,12.94,0,0,1-2.14-3.14,1.1,1.1,0,0,1-.1-0.73A1.17,1.17,0,0,1,114.56,48.5Z"/><path class="cls-8" d="M111.38,51.06A9.06,9.06,0,0,1,113.89,53c0.08,0.08.07,0.13,0,.1a8.23,8.23,0,0,1-2.68-1.47,1.07,1.07,0,0,1-.36-0.58A0.66,0.66,0,0,1,111.38,51.06Z"/><path class="cls-8" d="M110.48,57a13.83,13.83,0,0,1,4.39,0c0.16,0,.17.08,0,0.13a13.26,13.26,0,0,1-4.28.61,1.36,1.36,0,0,1-.85-0.3A1.14,1.14,0,0,1,110.48,57Z"/><path class="cls-8" d="M110.22,54.86a13,13,0,0,1,3.71.8c0.13,0,.12.09,0,0.1a12.94,12.94,0,0,1-3.78-.34A1.1,1.1,0,0,1,109.5,55,1.17,1.17,0,0,1,110.22,54.86Z"/><path class="cls-8" d="M110.17,58.94a9.06,9.06,0,0,1,3.08-.72c0.12,0,.15,0,0.05.09a8.23,8.23,0,0,1-2.84,1.13,1.07,1.07,0,0,1-.68-0.09A0.66,0.66,0,0,1,110.17,58.94Z"/><path class="cls-8" d="M129.43,57.14a13.83,13.83,0,0,1-4.38-.28c-0.16,0-.17-0.09,0-0.13a13.26,13.26,0,0,1,4.32-.3,1.36,1.36,0,0,1,.82.36A1.14,1.14,0,0,1,129.43,57.14Z"/><path class="cls-8" d="M129.54,59.26a13,13,0,0,1-3.64-1.06c-0.13-.05-0.12-0.1,0-0.1a12.94,12.94,0,0,1,3.75.61,1.1,1.1,0,0,1,.6.43A1.17,1.17,0,0,1,129.54,59.26Z"/><path class="cls-8" d="M129.88,55.19a9.06,9.06,0,0,1-3.12.5c-0.12,0-.14,0,0-0.09a8.23,8.23,0,0,1,2.91-.93,1.07,1.07,0,0,1,.67.14A0.66,0.66,0,0,1,129.88,55.19Z"/><path class="cls-8" d="M112.84,63.8a13.83,13.83,0,0,1,3.22-3c0.13-.09.18-0.06,0.1,0.08a13.26,13.26,0,0,1-2.75,3.34,1.36,1.36,0,0,1-.83.35A1.14,1.14,0,0,1,112.84,63.8Z"/><path class="cls-8" d="M111.23,62.42a13,13,0,0,1,3.28-1.91c0.13-.05.15,0,0.06,0.08a12.94,12.94,0,0,1-3,2.3,1.1,1.1,0,0,1-.73.14A1.17,1.17,0,0,1,111.23,62.42Z"/><path class="cls-8" d="M113.94,65.47a9.06,9.06,0,0,1,1.79-2.61c0.08-.09.13-0.07,0.1,0a8.23,8.23,0,0,1-1.33,2.75,1.07,1.07,0,0,1-.56.39A0.66,0.66,0,0,1,113.94,65.47Z"/><path class="cls-9" d="M116.83,59.1l8.47,88.2a1.27,1.27,0,0,0,1.12,1.13,143.31,143.31,0,0,0,31.85,0,1.52,1.52,0,0,0,1.35-1.35l9-87.78a2,2,0,0,0-1.85-2.13c-7.14-.41-14.65-0.66-22.48-0.69-9.07,0-17.69.23-25.84,0.7A1.74,1.74,0,0,0,116.83,59.1Z"/><path class="cls-10" d="M164.94,66.2q-3.36,31.32-6.72,62.63l0,0.39-1,9.68A1.28,1.28,0,0,1,156,140c-3.55.38-7.46,0.65-11.68,0.71l-2.27,0H140.7c-4.44-.06-8.55-0.34-12.25-0.73a1.07,1.07,0,0,1-1-.94l-0.34-3.33-7-69.72c6.74-.51,14-0.81,21.8-0.8C150.18,65.22,157.87,65.6,164.94,66.2Z"/><path class="cls-11" d="M144.94,116l2.35-7.85a2,2,0,0,1,2.51-1.36l7.38,2.18a2,2,0,0,1,1.35,2.5l-2.35,7.85a2,2,0,0,1-2.51,1.36l-7.38-2.18A2,2,0,0,1,144.94,116Z"/><path class="cls-12" d="M145.21,115.1l2.11-7.06a1.88,1.88,0,0,1,2.33-1.27l6.63,2a1.87,1.87,0,0,1,1.26,2.33l-2.11,7.06a1.88,1.88,0,0,1-2.33,1.27l-6.63-2A1.87,1.87,0,0,1,145.21,115.1Z"/><path class="cls-13" d="M156.79,108.87a1.31,1.31,0,0,1,.91,1.68l-2.41,8.05a1.5,1.5,0,0,1-.88.9,1.38,1.38,0,0,1-.8,0L146,117.28a1.35,1.35,0,0,1-.79-0.59,1.37,1.37,0,0,1-.12-1.09,1.43,1.43,0,0,0,.5,1,1.33,1.33,0,0,0,.58.27l7.54,2.22a1.29,1.29,0,0,0,1.23-.64l2.4-7.87a1.32,1.32,0,0,0,.12-0.72A1.41,1.41,0,0,0,156.79,108.87Z"/><path class="cls-14" d="M141.9,132.64l-6.4-3.69a1.89,1.89,0,0,1-.69-2.57l3.44-6a1.87,1.87,0,0,1,2.56-.69l6.4,3.69a1.89,1.89,0,0,1,.69,2.57l-3.44,6A1.87,1.87,0,0,1,141.9,132.64Z"/><path class="cls-11" d="M130.56,114.81l-2-8.16a2.07,2.07,0,0,1,1.52-2.5l7.66-1.87a2.05,2.05,0,0,1,2.49,1.52l2,8.16a2.07,2.07,0,0,1-1.52,2.5L133,116.33A2.05,2.05,0,0,1,130.56,114.81Z"/><path class="cls-15" d="M130.33,113.86l-1.77-7.35a1.93,1.93,0,0,1,1.42-2.32l6.89-1.68a1.91,1.91,0,0,1,2.32,1.41l1.77,7.35a1.93,1.93,0,0,1-1.42,2.32l-6.89,1.68A1.91,1.91,0,0,1,130.33,113.86Z"/><path class="cls-13" d="M137.39,102.38a1.34,1.34,0,0,1,1.68,1l2,8.38a1.54,1.54,0,0,1-.32,1.25,1.42,1.42,0,0,1-.71.43l-7.92,1.93a1.38,1.38,0,0,1-1-.12,1.4,1.4,0,0,1-.67-0.91,1.46,1.46,0,0,0,.95.62,1.36,1.36,0,0,0,.66-0.06l7.83-1.91a1.32,1.32,0,0,0,.76-1.2l-1.93-8.21a1.35,1.35,0,0,0-.27-0.7A1.45,1.45,0,0,0,137.39,102.38Z"/><path class="cls-11" d="M129.89,76.56l-5.41-6.15a2,2,0,0,1,.18-2.85l5.75-5.1a2,2,0,0,1,2.84.18l5.41,6.15a2,2,0,0,1-.18,2.85l-5.75,5.1A2,2,0,0,1,129.89,76.56Z"/><path class="cls-16" d="M129.25,75.85l-4.87-5.53a1.88,1.88,0,0,1,.16-2.65l5.18-4.59a1.87,1.87,0,0,1,2.64.17l4.87,5.53a1.88,1.88,0,0,1-.16,2.65L131.89,76A1.87,1.87,0,0,1,129.25,75.85Z"/><path class="cls-17" d="M130.12,62.73a1.31,1.31,0,0,1,1.91.12l5.55,6.31a1.5,1.5,0,0,1,.29,1.23,1.38,1.38,0,0,1-.41.69l-6,5.27a1.35,1.35,0,0,1-.92.36,1.37,1.37,0,0,1-1-.48,1.43,1.43,0,0,0,1.1.1,1.33,1.33,0,0,0,.54-0.35l5.88-5.21a1.29,1.29,0,0,0,.11-1.38l-5.4-6.21a1.32,1.32,0,0,0-.55-0.48A1.41,1.41,0,0,0,130.12,62.73Z"/><path class="cls-11" d="M149.81,76.61l-8.29-2.26a2.12,2.12,0,0,1-1.49-2.6l2.1-7.79a2.1,2.1,0,0,1,2.59-1.48L153,64.74a2.12,2.12,0,0,1,1.49,2.6l-2.1,7.79A2.1,2.1,0,0,1,149.81,76.61Z"/><path class="cls-18" d="M148.84,76.35l-7.46-2A2,2,0,0,1,140,71.89l1.89-7a2,2,0,0,1,2.41-1.38l7.46,2A2,2,0,0,1,153.14,68l-1.89,7A2,2,0,0,1,148.84,76.35Z"/><path class="cls-17" d="M142,64.36a1.38,1.38,0,0,1,1.74-1l8.51,2.33a1.57,1.57,0,0,1,1,.91,1.45,1.45,0,0,1,0,.84l-2.17,8.06a1.42,1.42,0,0,1-.6.84,1.43,1.43,0,0,1-1.14.15,1.5,1.5,0,0,0,1-.55,1.4,1.4,0,0,0,.27-0.62l2.14-8a1.35,1.35,0,0,0-.7-1.27l-8.32-2.32a1.38,1.38,0,0,0-.76-0.1A1.48,1.48,0,0,0,142,64.36Z"/><path class="cls-4" d="M134.71,132.17a11.47,11.47,0,0,0,12.43-2.12l-0.24-.24-0.69-.7-7.52-7.64-2.36-2.39L132,114.63l-0.75-.76-0.12-.13a10.84,10.84,0,0,0-2.51,3.61A11.36,11.36,0,0,0,134.71,132.17Z"/><path class="cls-5" d="M134.68,132a11.22,11.22,0,0,0,12.22-2.14l-0.69-.7-7.52-7.64-2.36-2.39L132,114.63l-0.75-.76a10.69,10.69,0,0,0-2.53,3.6A11.11,11.11,0,0,0,134.68,132Z"/><path class="cls-6" d="M129.4,118.67a0.73,0.73,0,0,0-.07.47,0.14,0.14,0,0,1,0,.06s0,0,0,0a1.08,1.08,0,0,0,0,.11,1,1,0,0,1-.08.21l-0.18.43a1.05,1.05,0,0,0-.06.22,0.43,0.43,0,0,0,0,.17,0.94,0.94,0,0,1-.08.45,1.26,1.26,0,0,0-.1.23,1.28,1.28,0,0,0,0,.23c0,0.1,0,.21,0,0.31a0.68,0.68,0,0,0,.08.17,0.25,0.25,0,0,1,0,.16,2.06,2.06,0,0,0,0,.26,0.41,0.41,0,0,1,0,.08,1.18,1.18,0,0,0-.05.11,0.61,0.61,0,0,0,0,.21,1.19,1.19,0,0,0,.11.22,0.5,0.5,0,0,1,0,.2,0.44,0.44,0,0,0-.05.19,0.79,0.79,0,0,0,0,.11s0,0.06,0,.09a0.59,0.59,0,0,1,0,.07,0.54,0.54,0,0,1,0,.09,1.07,1.07,0,0,0,0,.2,0.3,0.3,0,0,1,0,.17,0.39,0.39,0,0,1,.1.12,0.56,0.56,0,0,1,.1.07s0,0.07,0,.09a0.74,0.74,0,0,0,.1.1,1.28,1.28,0,0,1,.16.39,0.74,0.74,0,0,1,.06.38,0.45,0.45,0,0,0-.06.24c0,0.06,0,0,.09.07a0.73,0.73,0,0,0,.07.08v0.06a0.57,0.57,0,0,1,.22.32l0.12,0.28a1.45,1.45,0,0,1,.11.28l0,0a0.08,0.08,0,0,0,0,.06,0.21,0.21,0,0,1,0,.08,0.26,0.26,0,0,0,0,.15,0.61,0.61,0,0,0,.28.27,1.71,1.71,0,0,1,.34.27,0.54,0.54,0,0,1,.22.32,1.32,1.32,0,0,0,.11.21,0.27,0.27,0,0,0,.11.18c0,0.11.07,0.14,0.11,0.2s0,0.05,0,.08l0,0,0.1,0.11a0.47,0.47,0,0,0,.06.1,0.83,0.83,0,0,0,.13.05,0.52,0.52,0,0,0,.08.08c0.06,0,.13,0,0.19.08a0.75,0.75,0,0,0,.07.06l0.07,0a0.14,0.14,0,0,1,0,0l0.05,0.06a0.42,0.42,0,0,1,.13.15,2.84,2.84,0,0,0,.19.25,1.12,1.12,0,0,0,.11.16,1,1,0,0,0,.4.24l0.27,0.11a0.9,0.9,0,0,1,.18.12,2.4,2.4,0,0,1,.39.32,1,1,0,0,1,.12.16,0.52,0.52,0,0,0,.1.16,1.31,1.31,0,0,0,.26.11l0.84,0.36c0,0.22.67,0.2,0.78,0.21l0.18,0a1,1,0,0,1,.34.1,0.3,0.3,0,0,1,.26.23c0,0.09,0,.1.08,0.14a0.14,0.14,0,0,0,.13,0l0.26-.06a0.56,0.56,0,0,1,.2,0,1.16,1.16,0,0,0,.34.12,1.4,1.4,0,0,1,.41-0.05,1.37,1.37,0,0,0,.22,0,1.63,1.63,0,0,1,.24.06l0.26,0a0.12,0.12,0,0,0,.06,0s0,0,0-.05a0.58,0.58,0,0,1,.15,0h0.28a1.1,1.1,0,0,1,.33.12,0.74,0.74,0,0,0,.35.1l0.27,0a1.51,1.51,0,0,0,.25-0.07,0.71,0.71,0,0,1,.23-0.09,0.55,0.55,0,0,1,.2,0,0.32,0.32,0,0,0,.15,0,0.29,0.29,0,0,1,.08,0,0.59,0.59,0,0,0,.15,0,0.83,0.83,0,0,1,.21,0,1.12,1.12,0,0,0,.51-0.09,1,1,0,0,0,.31-0.19l0.13-.13a0.65,0.65,0,0,0,.13-0.18c0.1,0,.21,0,0.31,0a0.43,0.43,0,0,0,.26-0.11l0.05-.06,0.07,0a1.37,1.37,0,0,0,.2-0.18,1.87,1.87,0,0,0,.14-0.23l0.09,0,0,0a0.64,0.64,0,0,0,.12,0l0.1,0a1.26,1.26,0,0,0,.2-0.15,2.82,2.82,0,0,0,.27-0.23,1.79,1.79,0,0,1,.14-0.17,0.73,0.73,0,0,0,.13-0.1,0.24,0.24,0,0,1,.15-0.14,1.21,1.21,0,0,0,.24-0.08,1.75,1.75,0,0,0,.28-0.12s0.06-.1.1-0.13l0.08,0a1.32,1.32,0,0,1,.14-0.13l0.21-.14,0.1-.08-7.52-7.64-2.36-2.39L132,114.63l-0.08.08a1,1,0,0,1-.13.18l-0.08,0a0.58,0.58,0,0,0-.05.11,0.54,0.54,0,0,1-.06.07,0.81,0.81,0,0,0,0,.09,0.58,0.58,0,0,1-.08.1,0.23,0.23,0,0,1-.1.09,1.21,1.21,0,0,0-.28.31,1.47,1.47,0,0,0-.25.42,1.15,1.15,0,0,1-.15.26,0.53,0.53,0,0,1-.17.18c-0.06,0-.05,0-0.09.07l0,0.11a0.88,0.88,0,0,0,0,.09,0.34,0.34,0,0,0,0,.14,0.77,0.77,0,0,1-.1.24l-0.31.73a1.18,1.18,0,0,1,0,.11,0.19,0.19,0,0,1-.1.09,0.26,0.26,0,0,0-.06.09,0.31,0.31,0,0,1-.06,0l-0.06.09,0,0-0.07.09A0.81,0.81,0,0,0,129.4,118.67Z"/><path class="cls-7" d="M138.79,130.71a0.43,0.43,0,0,1-.44.43,7.54,7.54,0,0,1-5.39-2.33,0.43,0.43,0,0,1,0-.6l5.59-5.59a0.16,0.16,0,0,1,.27.11Z"/><path class="cls-7" d="M130.19,121.61a0.45,0.45,0,0,1-.44-0.44A7,7,0,0,1,132,115.9a0.44,0.44,0,0,1,.61,0l5.79,5.61a0.15,0.15,0,0,1-.11.26Z"/><path class="cls-7" d="M132.64,127.88a0.45,0.45,0,0,1-.62,0,7.45,7.45,0,0,1-1.77-2.72,7.19,7.19,0,0,1-.45-2.65,0.43,0.43,0,0,1,.43-0.41h8.05a0.16,0.16,0,0,1,.11.27Z"/><path class="cls-19" d="M125.4,87.57a13.18,13.18,0,0,0,3.83,14l0.24-.3,0.73-.87,7.88-9.45,2.47-3,4.6-5.52,0.79-.95,0.14-.16a12.45,12.45,0,0,0-4.41-2.46A13,13,0,0,0,125.4,87.57Z"/><path class="cls-20" d="M125.64,87.51a12.88,12.88,0,0,0,3.83,13.73l0.73-.87,7.88-9.45,2.47-3,4.6-5.52,0.79-.95a12.27,12.27,0,0,0-4.4-2.48A12.76,12.76,0,0,0,125.64,87.51Z"/><path class="cls-21" d="M140.23,80a0.84,0.84,0,0,0-.55,0,0.16,0.16,0,0,1-.07,0l-0.05,0h-0.13a1.16,1.16,0,0,1-.25-0.07l-0.51-.16a1.21,1.21,0,0,0-.26,0,0.5,0.5,0,0,0-.19,0,1.07,1.07,0,0,1-.52,0,1.45,1.45,0,0,0-.27-0.09,1.47,1.47,0,0,0-.26.06c-0.12,0-.24,0-0.35.06a0.78,0.78,0,0,0-.19.11,0.29,0.29,0,0,1-.18,0,2.37,2.37,0,0,0-.3,0h-0.09a1.35,1.35,0,0,0-.13,0,0.7,0.7,0,0,0-.24,0,1.37,1.37,0,0,0-.23.15,0.57,0.57,0,0,1-.22.06,0.51,0.51,0,0,0-.22,0,0.9,0.9,0,0,0-.12.06h-0.1l-0.08,0a0.62,0.62,0,0,1-.1,0,1.23,1.23,0,0,0-.22.06,0.34,0.34,0,0,1-.19,0,0.45,0.45,0,0,1-.12.13,0.65,0.65,0,0,1-.07.12l-0.1,0a0.85,0.85,0,0,0-.11.13,1.47,1.47,0,0,1-.43.23,0.85,0.85,0,0,1-.42.12,0.52,0.52,0,0,0-.28,0c-0.06,0,0,0-.07.11a0.84,0.84,0,0,0-.08.09h-0.07a0.66,0.66,0,0,1-.34.29l-0.3.16a1.67,1.67,0,0,1-.31.15l0,0a0.09,0.09,0,0,0-.07,0l-0.09,0a0.3,0.3,0,0,0-.17,0,0.7,0.7,0,0,0-.28.35,2,2,0,0,1-.27.42,0.62,0.62,0,0,1-.34.28A1.52,1.52,0,0,0,130,83a0.31,0.31,0,0,0-.19.14c-0.13,0-.15.09-0.22,0.14l-0.09,0s0,0,0,0l-0.12.12a0.54,0.54,0,0,0-.1.08,1,1,0,0,0,0,.16,0.6,0.6,0,0,0-.08.1c0,0.07,0,.15-0.08.22a0.86,0.86,0,0,0-.07.08,0.54,0.54,0,0,1,0,.08,0.16,0.16,0,0,1-.05,0l-0.07.07a0.48,0.48,0,0,1-.16.16,3.26,3.26,0,0,0-.26.24,1.29,1.29,0,0,0-.17.15,1.16,1.16,0,0,0-.23.49c0,0.11-.07.21-0.1,0.32a1,1,0,0,1-.12.22,2.76,2.76,0,0,1-.32.48,1.17,1.17,0,0,1-.17.16,0.6,0.6,0,0,0-.18.13,1.51,1.51,0,0,0-.1.31l-0.32,1c-0.26,0-.15.78-0.15,0.91s0,0.14,0,.21a1.16,1.16,0,0,1-.08.4,0.34,0.34,0,0,1-.24.32c-0.1,0-.11,0-0.15.11a0.16,0.16,0,0,0,0,.15,2.43,2.43,0,0,1,.1.3,0.64,0.64,0,0,1,.05.23,1.34,1.34,0,0,0-.1.4,1.61,1.61,0,0,1,.1.46,1.58,1.58,0,0,0,0,.26,1.87,1.87,0,0,1,0,.29,1.52,1.52,0,0,0,0,.3,0.14,0.14,0,0,0,0,.07s0.05,0,.07,0a0.67,0.67,0,0,1,0,.17,2.24,2.24,0,0,1,0,.32,1.27,1.27,0,0,1-.1.39,0.85,0.85,0,0,0-.07.41,1.54,1.54,0,0,0,.07.31,1.73,1.73,0,0,0,.11.28,0.82,0.82,0,0,1,.13.26,0.63,0.63,0,0,1,0,.23,0.37,0.37,0,0,0,0,.16,0.33,0.33,0,0,1,0,.09,0.68,0.68,0,0,0,0,.16,1,1,0,0,1,0,.25,1.29,1.29,0,0,0,.16.57,1.12,1.12,0,0,0,.25.33l0.16,0.14a0.75,0.75,0,0,0,.22.12c0,0.12,0,.24,0,0.36a0.49,0.49,0,0,0,.16.29l0.08,0.05a0.81,0.81,0,0,1,0,.08,1.57,1.57,0,0,0,.23.21,2.15,2.15,0,0,0,.28.14l0,0.11,0.06,0a0.74,0.74,0,0,0,0,.15,0.79,0.79,0,0,0,.06.11,1.45,1.45,0,0,0,.2.21,3.24,3.24,0,0,0,.29.29,2.05,2.05,0,0,1,.21.14A0.84,0.84,0,0,0,129,99a0.28,0.28,0,0,1,.18.15,1.39,1.39,0,0,0,.12.26,2,2,0,0,0,.17.31s0.12,0.06.16,0.1l0.06,0.09a1.52,1.52,0,0,1,.16.15c0.06,0.07.11,0.15,0.18,0.22l0.11,0.11,7.88-9.45,2.47-3,4.6-5.52-0.1-.08a1.13,1.13,0,0,1-.22-0.13,0.46,0.46,0,0,0-.06-0.08,0.66,0.66,0,0,0-.13,0,0.62,0.62,0,0,1-.08-0.07l-0.11,0a0.67,0.67,0,0,1-.12-0.08,0.27,0.27,0,0,1-.11-0.1,1.39,1.39,0,0,0-.38-0.28,1.69,1.69,0,0,0-.51-0.24,1.32,1.32,0,0,1-.31-0.14,0.61,0.61,0,0,1-.22-0.18c0-.07,0-0.06-0.08-0.1l-0.13,0-0.11,0a0.4,0.4,0,0,0-.16,0,0.88,0.88,0,0,1-.28-0.08l-0.88-.28-0.13,0a0.22,0.22,0,0,1-.11-0.1,0.29,0.29,0,0,0-.11-0.06,0.36,0.36,0,0,1-.06-0.06l-0.11-.05,0,0-0.11-.06A0.93,0.93,0,0,0,140.23,80Z"/><path class="cls-22" d="M127.54,92.06a0.49,0.49,0,0,1-.54-0.46,8.66,8.66,0,0,1,2-6.43,0.49,0.49,0,0,1,.68-0.06l7,5.76a0.18,0.18,0,0,1-.1.32Z"/><path class="cls-22" d="M137,81.2a0.52,0.52,0,0,1,.45-0.55,8.06,8.06,0,0,1,6.27,2,0.51,0.51,0,0,1,0,.7L138,90.59a0.17,0.17,0,0,1-.31-0.1Z"/><path class="cls-22" d="M130.07,84.72A0.51,0.51,0,0,1,130,84a8.56,8.56,0,0,1,2.91-2.33,8.26,8.26,0,0,1,3-.81,0.49,0.49,0,0,1,.52.45l0.9,9.2a0.18,0.18,0,0,1-.29.16Z"/><path class="cls-22" d="M130.88,99a0.49,0.49,0,0,1-.7.07,8.29,8.29,0,0,1-2.24-2.93,8.52,8.52,0,0,1-.75-3,0.51,0.51,0,0,1,.45-0.54l9-1.06a0.18,0.18,0,0,1,.15.29Z"/><path class="cls-7" d="M145.1,128.41a0.43,0.43,0,0,1,0,.61,7.22,7.22,0,0,1-2.73,1.69,7.42,7.42,0,0,1-2.68.39,0.45,0.45,0,0,1-.43-0.44l-0.14-7.92a0.16,0.16,0,0,1,.27-0.11Z"/><path class="cls-21" d="M134.83,93.16a1.79,1.79,0,0,0,1.3-1.09,0.09,0.09,0,0,0-.07-0.14,1.74,1.74,0,0,0-1.61.45,0.61,0.61,0,0,0-.07.53A0.57,0.57,0,0,0,134.83,93.16Z"/><path class="cls-21" d="M136.5,88.38a1.79,1.79,0,0,1,.44,1.63,0.09,0.09,0,0,1-.14.07,1.73,1.73,0,0,1-1.06-1.29,0.61,0.61,0,0,1,.25-0.47A0.57,0.57,0,0,1,136.5,88.38Z"/><path class="cls-23" d="M129.78,89.15a12.06,12.06,0,0,0,3.84.73c0.14,0,.17,0,0-0.11A11.54,11.54,0,0,0,130,88.54a1.2,1.2,0,0,0-.79.13A1,1,0,0,0,129.78,89.15Z"/><path class="cls-23" d="M128.68,90.77a11.42,11.42,0,0,0,3.39-.12c0.12,0,.12-0.07,0-0.09a11.31,11.31,0,0,0-3.37-.3,1,1,0,0,0-.62.24A1,1,0,0,0,128.68,90.77Z"/><path class="cls-23" d="M129.34,87.11a7.89,7.89,0,0,0,2.58,1.14c0.1,0,.13,0,0.06-0.07a7.19,7.19,0,0,0-2.3-1.47,0.94,0.94,0,0,0-.61,0A0.59,0.59,0,0,0,129.34,87.11Z"/><path class="cls-23" d="M133.6,83.76a12.44,12.44,0,0,0,1.84,3.5c0.08,0.12.14,0.1,0.11,0a12,12,0,0,0-1.35-3.67,1.2,1.2,0,0,0-.6-0.54A1.06,1.06,0,0,0,133.6,83.76Z"/><path class="cls-23" d="M131.83,84.49A11.53,11.53,0,0,0,134,87.08c0.09,0.08.13,0.06,0.07-.06a11.55,11.55,0,0,0-1.88-2.85,1,1,0,0,0-.57-0.33A1.07,1.07,0,0,0,131.83,84.49Z"/><path class="cls-23" d="M135,82.64a8.28,8.28,0,0,0,.75,2.76c0,0.1.09,0.1,0.09,0a7.58,7.58,0,0,0-.32-2.76,1,1,0,0,0-.36-0.5A0.62,0.62,0,0,0,135,82.64Z"/><path class="cls-23" d="M130.23,94.88a12.43,12.43,0,0,1,3.64-1.54c0.14,0,.17,0,0.06.1a12,12,0,0,1-3.36,2,1.2,1.2,0,0,1-.8,0A1.05,1.05,0,0,1,130.23,94.88Z"/><path class="cls-23" d="M128.87,93.53a11.51,11.51,0,0,1,3.35-.61c0.12,0,.13,0,0,0.09A11.54,11.54,0,0,1,129,94a1,1,0,0,1-.65-0.11A1.07,1.07,0,0,1,128.87,93.53Z"/><path class="cls-23" d="M130.16,97a8.27,8.27,0,0,1,2.33-1.67c0.1-.05.13,0,0.07,0.06a7.57,7.57,0,0,1-2,1.93,1,1,0,0,1-.6.16A0.62,0.62,0,0,1,130.16,97Z"/><path class="cls-23" d="M140.31,82.91a12.92,12.92,0,0,1-1.45,3.73c-0.07.13-.13,0.12-0.11,0a12.37,12.37,0,0,1,.93-3.84,1.26,1.26,0,0,1,.53-0.62A1,1,0,0,1,140.31,82.91Z"/><path class="cls-23" d="M142.14,83.38a12.1,12.1,0,0,1-1.91,2.88c-0.08.1-.12,0.07-0.08,0a12.07,12.07,0,0,1,1.55-3.1,1,1,0,0,1,.53-0.41A1.09,1.09,0,0,1,142.14,83.38Z"/><path class="cls-23" d="M138.78,82a8.44,8.44,0,0,1-.44,2.85c0,0.1-.08.11-0.09,0a7.63,7.63,0,0,1,0-2.78,1,1,0,0,1,.3-0.55A0.6,0.6,0,0,1,138.78,82Z"/><path class="cls-7" d="M136.34,119.08l2.36,2.39a0.15,0.15,0,0,1-.12,0Z"/><path class="cls-6" d="M140.37,124.48a1.56,1.56,0,0,0-.83-1.22,0.08,0.08,0,0,0-.13,0,1.51,1.51,0,0,0,.25,1.44,0.53,0.53,0,0,0,.46.1A0.49,0.49,0,0,0,140.37,124.48Z"/><path class="cls-6" d="M136.37,122.62a1.56,1.56,0,0,1,1.45-.24,0.08,0.08,0,0,1,.05.12,1.51,1.51,0,0,1-1.21.81,0.53,0.53,0,0,1-.39-0.26A0.49,0.49,0,0,1,136.37,122.62Z"/><path class="cls-24" d="M136.46,128.51a10.5,10.5,0,0,0,1-3.27c0-.12,0-0.15-0.09,0a10,10,0,0,0-1.38,3.06,1,1,0,0,0,0,.7A0.87,0.87,0,0,0,136.46,128.51Z"/><path class="cls-24" d="M137.76,129.6a9.94,9.94,0,0,0,.19-2.95c0-.11,0-0.11-0.08,0a9.85,9.85,0,0,0-.55,2.9,0.86,0.86,0,0,0,.16.56A0.89,0.89,0,0,0,137.76,129.6Z"/><path class="cls-24" d="M134.65,128.72a6.87,6.87,0,0,0,1.21-2.14c0-.09,0-0.12-0.06-0.06a6.26,6.26,0,0,0-1.47,1.86,0.82,0.82,0,0,0-.08.53A0.52,0.52,0,0,0,134.65,128.72Z"/><path class="cls-24" d="M132.12,124.74a10.83,10.83,0,0,0,3.19-1.3c0.11-.06.1-0.11,0-0.1a10.47,10.47,0,0,0-3.3.85,1,1,0,0,0-.52.47A0.92,0.92,0,0,0,132.12,124.74Z"/><path class="cls-24" d="M132.6,126.33a10,10,0,0,0,2.43-1.69c0.08-.07.06-0.11,0-0.07a10.06,10.06,0,0,0-2.63,1.38,0.84,0.84,0,0,0-.33.47A0.93,0.93,0,0,0,132.6,126.33Z"/><path class="cls-24" d="M131.26,123.42a7.21,7.21,0,0,0,2.46-.41c0.09,0,.09-0.07,0-0.08a6.6,6.6,0,0,0-2.42,0,0.83,0.83,0,0,0-.47.27A0.54,0.54,0,0,0,131.26,123.42Z"/><path class="cls-24" d="M141.46,128.61a10.82,10.82,0,0,1-1-3.28c0-.12,0-0.15.09,0a10.46,10.46,0,0,1,1.44,3.08,1,1,0,0,1,0,.7A0.92,0.92,0,0,1,141.46,128.61Z"/><path class="cls-11" d="M137,98.15l3.62-7.53a2.06,2.06,0,0,1,2.75-1L150.5,93a2,2,0,0,1,1,2.74l-3.62,7.53a2.06,2.06,0,0,1-2.75,1L138,100.88A2,2,0,0,1,137,98.15Z"/><path class="cls-25" d="M137.46,97.27l3.26-6.78a1.92,1.92,0,0,1,2.56-.9l6.38,3a1.91,1.91,0,0,1,.9,2.55L147.29,102a1.92,1.92,0,0,1-2.56.9l-6.38-3A1.91,1.91,0,0,1,137.46,97.27Z"/><path class="cls-13" d="M150.13,92.85a1.34,1.34,0,0,1,.65,1.84l-3.72,7.73a1.53,1.53,0,0,1-1,.77,1.41,1.41,0,0,1-.81-0.11l-7.33-3.49a1.38,1.38,0,0,1-.7-0.72,1.4,1.4,0,0,1,.05-1.12,1.46,1.46,0,0,0,.34,1.07,1.36,1.36,0,0,0,.55.36l7.25,3.45a1.31,1.31,0,0,0,1.34-.45l3.68-7.55a1.34,1.34,0,0,0,.23-0.71A1.44,1.44,0,0,0,150.13,92.85Z"/><path class="cls-24" d="M140.17,129.68a10,10,0,0,1-.24-3c0-.11,0-0.11.08,0a10,10,0,0,1,.6,2.91,0.84,0.84,0,0,1-.15.55A0.93,0.93,0,0,1,140.17,129.68Z"/><path class="cls-24" d="M143.27,128.86A7.2,7.2,0,0,1,142,126.7c0-.09,0-0.12.06-0.06a6.59,6.59,0,0,1,1.5,1.89,0.83,0.83,0,0,1,.09.53A0.54,0.54,0,0,1,143.27,128.86Z"/><path class="cls-24" d="M132,118.86a11.25,11.25,0,0,1,3.11,1.57c0.11,0.07.09,0.12,0,.09a10.77,10.77,0,0,1-3.24-1.14,1.09,1.09,0,0,1-.49-0.51A0.91,0.91,0,0,1,132,118.86Z"/><path class="cls-11" d="M148.13,87.4l-2.24-9.32a2.37,2.37,0,0,1,1.74-2.85l8.74-2.13a2.35,2.35,0,0,1,2.84,1.73l2.24,9.32A2.37,2.37,0,0,1,159.71,87L151,89.14A2.35,2.35,0,0,1,148.13,87.4Z"/><path class="cls-26" d="M147.87,86.32l-2-8.39a2.2,2.2,0,0,1,1.62-2.65l7.87-1.92A2.18,2.18,0,0,1,158,75l2,8.39A2.2,2.2,0,0,1,158.38,86l-7.87,1.92A2.18,2.18,0,0,1,147.87,86.32Z"/><path class="cls-13" d="M155.93,73.21a1.53,1.53,0,0,1,1.91,1.17l2.3,9.57a1.75,1.75,0,0,1-.37,1.43,1.62,1.62,0,0,1-.81.49l-9,2.21a1.58,1.58,0,0,1-1.15-.13,1.6,1.6,0,0,1-.76-1,1.67,1.67,0,0,0,1.08.7,1.56,1.56,0,0,0,.75-0.07l8.94-2.18a1.5,1.5,0,0,0,.87-1.37l-2.2-9.38a1.54,1.54,0,0,0-.31-0.8A1.65,1.65,0,0,0,155.93,73.21Z"/><path class="cls-11" d="M142.77,133.08L135.71,129a2,2,0,0,1-.74-2.74l3.8-6.65a2,2,0,0,1,2.73-.74l7.06,4.08a2,2,0,0,1,.74,2.74l-3.8,6.65A2,2,0,0,1,142.77,133.08Z"/><path class="cls-24" d="M132.52,117.31a10.53,10.53,0,0,1,2.34,1.9c0.08,0.08.05,0.11,0,.06a10.51,10.51,0,0,1-2.55-1.61,0.88,0.88,0,0,1-.31-0.5A1,1,0,0,1,132.52,117.31Z"/><path class="cls-13" d="M138.58,120a1.31,1.31,0,0,1,1.84-.5l7.25,4.19a1.49,1.49,0,0,1,.67,1.06,1.38,1.38,0,0,1-.17.78l-3.93,6.87a1.34,1.34,0,0,1-.76.63,1.36,1.36,0,0,1-1.09-.13,1.42,1.42,0,0,0,1.07-.26,1.33,1.33,0,0,0,.39-0.5l3.89-6.8a1.28,1.28,0,0,0-.34-1.34l-7.08-4.13a1.31,1.31,0,0,0-.67-0.28A1.4,1.4,0,0,0,138.58,120Z"/><path class="cls-24" d="M131,120.1a7.35,7.35,0,0,1,2.43.63c0.09,0,.09.08,0,0.08a6.64,6.64,0,0,1-2.41-.25,0.87,0.87,0,0,1-.45-0.31A0.52,0.52,0,0,1,131,120.1Z"/><path class="cls-6" d="M144.39,137a0.78,0.78,0,0,0,.73.73l1,0.12,2.19,0.27a0.79,0.79,0,0,0,.92-0.59l11.45-80.2,0.48-3.4-3-.39-0.95-.11H157l-0.69-.08-11.93,83.6a0.13,0.13,0,0,0,0,.07h0Z"/><path class="cls-27" d="M159.76,63.4l-0.86,6a32.21,32.21,0,0,1-2.9-3c-0.47-.57-0.9-1.12-1.29-1.66l0.89-6.23c0.55,0.77,1.16,1.58,1.86,2.42S159,62.64,159.76,63.4Z"/><path class="cls-27" d="M158,75.86l-0.86,6a32.21,32.21,0,0,1-2.9-3c-0.47-.57-0.9-1.12-1.29-1.66l0.89-6.23c0.55,0.77,1.16,1.58,1.86,2.42S157.23,75.1,158,75.86Z"/><path class="cls-28" d="M153.94,103.28L153.11,109a31,31,0,0,1-2.8-2.92c-0.46-.54-0.87-1.08-1.25-1.6l0.86-6c0.53,0.74,1.13,1.52,1.8,2.32S153.22,102.56,153.94,103.28Z"/><path class="cls-27" d="M152.34,115.34l-0.86,6a32.21,32.21,0,0,1-2.9-3c-0.47-.57-0.9-1.12-1.29-1.66l0.89-6.23c0.55,0.77,1.16,1.58,1.86,2.42S151.59,114.58,152.34,115.34Z"/><path class="cls-27" d="M156.15,88.67l-0.86,6a32.21,32.21,0,0,1-2.9-3c-0.47-.57-0.9-1.12-1.29-1.66L152,83.73c0.55,0.77,1.16,1.58,1.86,2.42S155.4,87.92,156.15,88.67Z"/><path class="cls-27" d="M150.56,127.8l-0.86,6a32.21,32.21,0,0,1-2.9-3c-0.47-.57-0.9-1.12-1.29-1.66l0.89-6.23c0.55,0.77,1.16,1.58,1.86,2.42S149.82,127,150.56,127.8Z"/><path class="cls-29" d="M145.12,137.68l1,0.12L158,54.51l0.14-1-0.95-.11,0,0.13Z"/><path class="cls-6" d="M156.34,53.28L157,53.37h0.13l0.95,0.11,3,0.39,0.37-2.6,0.87-6.11q0.39-2.74.78-5.49a0.74,0.74,0,0,0-.65-0.79c-0.5-.1-1-0.18-1.59-0.26s-1.11-.12-1.62-0.15h-0.08a0.77,0.77,0,0,0-.84.6l-0.16,1.11Z"/><path class="cls-27" d="M158.37,39.08l-0.16,1.11c0.4,0.61.86,1.26,1.37,1.92a28.74,28.74,0,0,0,2.78,3.06l0.78-5.49a0.74,0.74,0,0,0-.65-0.79c-0.49-.1-1-0.19-1.59-0.26s-1.17-.12-1.7-0.15A0.77,0.77,0,0,0,158.37,39.08Z"/><path class="cls-30" d="M157.16,53.38l0.95,0.11,0.74-5.16,0.86-6.06h0l0.53-3.71-0.21,0-0.75-.05L158.9,41.2h0L158,47.29Z"/><path class="cls-31" d="M158.6,125.23l-0.43,4-1,9.68A1.28,1.28,0,0,1,156,140c-3.55.38-7.46,0.65-11.68,0.71l-2.27,0H140.7c-4.44-.06-8.55-0.34-12.25-0.73a1.07,1.07,0,0,1-1-.94l-0.34-3.33a13.44,13.44,0,0,1,3.2-1.62c5.83-2,8.49,1.73,13.18.74,6.79-1.43,8.91-10.9,14-10A4.29,4.29,0,0,1,158.6,125.23Z"/><path class="cls-4" d="M158.93,101.46a12.41,12.41,0,0,0-4-13l-0.22.29-0.66.84-7.14,9.14-2.24,2.87-4.17,5.33-0.71.91-0.12.15a11.72,11.72,0,0,0,4.23,2.19A12.29,12.29,0,0,0,158.93,101.46Z"/><path class="cls-5" d="M158.7,101.52a12.14,12.14,0,0,0-4-12.81l-0.66.84-7.14,9.14-2.24,2.87-4.17,5.33-0.71.91A11.56,11.56,0,0,0,144,110,12,12,0,0,0,158.7,101.52Z"/><path class="cls-6" d="M145.19,109.06a0.79,0.79,0,0,0,.52,0,0.15,0.15,0,0,1,.06,0l0.05,0h0.12a1.1,1.1,0,0,1,.24.06l0.49,0.14a1.14,1.14,0,0,0,.25,0,0.47,0.47,0,0,0,.18,0,1,1,0,0,1,.49,0,1.37,1.37,0,0,0,.26.08,1.38,1.38,0,0,0,.24-0.07l0.33-.07a0.73,0.73,0,0,0,.17-0.11,0.27,0.27,0,0,1,.17,0,2.23,2.23,0,0,0,.28,0h0.09a1.28,1.28,0,0,0,.12,0,0.66,0.66,0,0,0,.22,0,1.29,1.29,0,0,0,.22-0.15,0.54,0.54,0,0,1,.21-0.06,0.48,0.48,0,0,0,.21,0,0.85,0.85,0,0,0,.11-0.06h0.1l0.07,0a0.59,0.59,0,0,1,.1,0,1.16,1.16,0,0,0,.21-0.06,0.32,0.32,0,0,1,.18,0,0.42,0.42,0,0,1,.11-0.12,0.61,0.61,0,0,1,.07-0.12l0.09,0a0.8,0.8,0,0,0,.1-0.12,1.38,1.38,0,0,1,.4-0.23,0.8,0.8,0,0,1,.39-0.12,0.49,0.49,0,0,0,.27,0c0.06,0,0,0,.06-0.1a0.79,0.79,0,0,0,.08-0.09h0.06a0.62,0.62,0,0,1,.31-0.28l0.28-.16a1.57,1.57,0,0,1,.29-0.15l0,0a0.08,0.08,0,0,0,.06,0l0.08,0a0.29,0.29,0,0,0,.16,0,0.66,0.66,0,0,0,.25-0.33,1.85,1.85,0,0,1,.24-0.4,0.59,0.59,0,0,1,.31-0.28,1.43,1.43,0,0,0,.21-0.14,0.29,0.29,0,0,0,.18-0.14c0.12,0,.14-0.09.2-0.14l0.08,0s0,0,0,0l0.11-.12a0.5,0.5,0,0,0,.1-0.08,0.9,0.9,0,0,0,0-.15,0.56,0.56,0,0,0,.07-0.1c0-.07,0-0.14.06-0.21a0.81,0.81,0,0,0,.06-0.08,0.51,0.51,0,0,1,0-.08,0.15,0.15,0,0,1,0,0l0.06-.07a0.46,0.46,0,0,1,.14-0.16,3.07,3.07,0,0,0,.24-0.24,1.21,1.21,0,0,0,.16-0.14,1.09,1.09,0,0,0,.21-0.46c0-.1.06-0.2,0.09-0.3a1,1,0,0,1,.1-0.21,2.6,2.6,0,0,1,.29-0.46,1.1,1.1,0,0,1,.15-0.15,0.57,0.57,0,0,0,.16-0.13,1.42,1.42,0,0,0,.08-0.3l0.27-1c0.24,0,.12-0.74.12-0.86s0-.13,0-0.2a1.09,1.09,0,0,1,.06-0.38,0.32,0.32,0,0,1,.21-0.31c0.09,0,.11,0,0.14-0.11a0.15,0.15,0,0,0,0-.14,2.29,2.29,0,0,1-.1-0.28,0.6,0.6,0,0,1-.06-0.22,1.26,1.26,0,0,0,.08-0.38,1.52,1.52,0,0,1-.11-0.43,1.49,1.49,0,0,0,0-.24,1.77,1.77,0,0,1,0-.27,1.43,1.43,0,0,0,0-.28,0.13,0.13,0,0,0,0-.07s0,0-.06,0a0.63,0.63,0,0,1,0-.16,2.11,2.11,0,0,1,0-.3A1.19,1.19,0,0,1,158,96a0.8,0.8,0,0,0,.06-0.38,1.45,1.45,0,0,0-.07-0.29,1.63,1.63,0,0,0-.11-0.26,0.77,0.77,0,0,1-.13-0.24,0.59,0.59,0,0,1,0-.22,0.35,0.35,0,0,0,0-.15,0.31,0.31,0,0,1,0-.09,0.64,0.64,0,0,0-.05-0.15,0.9,0.9,0,0,1,0-.23,1.21,1.21,0,0,0-.17-0.53,1.05,1.05,0,0,0-.25-0.3L157,93.06a0.7,0.7,0,0,0-.21-0.11c0-.11,0-0.22,0-0.34a0.47,0.47,0,0,0-.16-0.26l-0.08,0a0.76,0.76,0,0,1,0-.07,1.48,1.48,0,0,0-.23-0.19,2,2,0,0,0-.27-0.12l0-.1-0.06,0a0.69,0.69,0,0,0,0-.14,0.74,0.74,0,0,0-.06-0.1,1.36,1.36,0,0,0-.19-0.19,3.06,3.06,0,0,0-.28-0.26,1.93,1.93,0,0,1-.2-0.13,0.79,0.79,0,0,0-.13-0.13,0.26,0.26,0,0,1-.18-0.14,1.31,1.31,0,0,0-.12-0.24,1.89,1.89,0,0,0-.17-0.29s-0.11-.05-0.16-0.09L154.47,90a1.43,1.43,0,0,1-.16-0.13c-0.06-.07-0.11-0.14-0.18-0.2l-0.1-.1-7.14,9.14-2.24,2.87-4.17,5.33,0.1,0.07a1.07,1.07,0,0,1,.21.11,0.43,0.43,0,0,0,.06.08,0.62,0.62,0,0,0,.12,0,0.59,0.59,0,0,1,.08.06l0.1,0a0.63,0.63,0,0,1,.11.07,0.25,0.25,0,0,1,.11.09,1.31,1.31,0,0,0,.37.25,1.59,1.59,0,0,0,.49.21,1.25,1.25,0,0,1,.3.13,0.58,0.58,0,0,1,.22.16c0,0.06,0,.06.08,0.09l0.13,0,0.11,0a0.37,0.37,0,0,0,.15,0,0.83,0.83,0,0,1,.27.07l0.83,0.23,0.13,0a0.21,0.21,0,0,1,.11.09,0.28,0.28,0,0,0,.11,0,0.34,0.34,0,0,1,.05.06l0.1,0,0,0L145,109A0.88,0.88,0,0,0,145.19,109.06Z"/><path class="cls-7" d="M156.78,97.29a0.46,0.46,0,0,1,.52.41,8.16,8.16,0,0,1-1.74,6.11,0.46,0.46,0,0,1-.64.08l-6.78-5.21a0.17,0.17,0,0,1,.08-0.3Z"/><path class="cls-7" d="M148.23,107.8a0.49,0.49,0,0,1-.41.53,7.59,7.59,0,0,1-6-1.69,0.48,0.48,0,0,1-.07-0.66l5.2-7a0.16,0.16,0,0,1,.3.08Z"/><path class="cls-7" d="M154.61,104.28a0.48,0.48,0,0,1,.08.67,8.06,8.06,0,0,1-2.67,2.28,7.79,7.79,0,0,1-2.78.85,0.46,0.46,0,0,1-.5-0.41L147.62,99a0.17,0.17,0,0,1,.27-0.16Z"/><path class="cls-7" d="M153.43,90.84a0.47,0.47,0,0,1,.66-0.09,7.81,7.81,0,0,1,2.2,2.69,8,8,0,0,1,.79,2.82,0.48,0.48,0,0,1-.41.52l-8.48,1.27a0.17,0.17,0,0,1-.15-0.27Z"/><path class="cls-7" d="M144.65,101.55l2.24-2.87a0.17,0.17,0,0,1,0,.14Z"/><path class="cls-6" d="M149.88,96.47a1.69,1.69,0,0,0-1.19,1.06,0.08,0.08,0,0,0,.07.13,1.64,1.64,0,0,0,1.51-.47,0.57,0.57,0,0,0,0-.5A0.53,0.53,0,0,0,149.88,96.47Z"/><path class="cls-6" d="M148.45,101A1.68,1.68,0,0,1,148,99.5a0.08,0.08,0,0,1,.13-0.07,1.63,1.63,0,0,1,1,1.19,0.57,0.57,0,0,1-.22.45A0.53,0.53,0,0,1,148.45,101Z"/><path class="cls-24" d="M154.75,100.1a11.36,11.36,0,0,0-3.64-.57c-0.14,0-.15,0,0,0.1a10.87,10.87,0,0,0,3.48,1.05,1.13,1.13,0,0,0,.74-0.15A0.94,0.94,0,0,0,154.75,100.1Z"/><path class="cls-24" d="M155.74,98.55a10.75,10.75,0,0,0-3.19.21c-0.11,0-.11.07,0,0.09a10.66,10.66,0,0,0,3.19.18,0.93,0.93,0,0,0,.58-0.25A1,1,0,0,0,155.74,98.55Z"/><path class="cls-24" d="M155.23,102a7.43,7.43,0,0,0-2.46-1c-0.1,0-.13,0-0.06.07a6.77,6.77,0,0,0,2.21,1.32,0.89,0.89,0,0,0,.58,0A0.56,0.56,0,0,0,155.23,102Z"/><path class="cls-24" d="M151.32,105.29a11.72,11.72,0,0,0-1.84-3.24c-0.08-.11-0.13-0.09-0.1,0a11.33,11.33,0,0,0,1.38,3.42,1.13,1.13,0,0,0,.58.49A1,1,0,0,0,151.32,105.29Z"/><path class="cls-24" d="M153,104.55a10.86,10.86,0,0,0-2.15-2.37c-0.09-.08-0.12,0-0.07.05a10.88,10.88,0,0,0,1.85,2.63,0.91,0.91,0,0,0,.55.29A1,1,0,0,0,153,104.55Z"/><path class="cls-24" d="M150,106.39a7.8,7.8,0,0,0-.79-2.58c0-.09-0.09-0.09-0.09,0a7.14,7.14,0,0,0,.38,2.59,0.9,0.9,0,0,0,.36.46A0.58,0.58,0,0,0,150,106.39Z"/><path class="cls-24" d="M154.16,94.72a11.71,11.71,0,0,1-3.38,1.56c-0.13,0-.16,0-0.06-0.09a11.31,11.31,0,0,1,3.11-2,1.13,1.13,0,0,1,.75-0.06A1,1,0,0,1,154.16,94.72Z"/><path class="cls-24" d="M155.48,96a10.85,10.85,0,0,1-3.13.67c-0.12,0-.13,0,0-0.08a10.87,10.87,0,0,1,3-1.05,0.91,0.91,0,0,1,.62.08A1,1,0,0,1,155.48,96Z"/><path class="cls-24" d="M154.16,92.74A7.79,7.79,0,0,1,152,94.38c-0.09.05-.12,0-0.07-0.05a7.13,7.13,0,0,1,1.82-1.88,0.9,0.9,0,0,1,.56-0.17A0.58,0.58,0,0,1,154.16,92.74Z"/><path class="cls-24" d="M145,106.29a12.17,12.17,0,0,1,1.25-3.56c0.06-.12.12-0.12,0.11,0a11.66,11.66,0,0,1-.77,3.64,1.18,1.18,0,0,1-.48.6A1,1,0,0,1,145,106.29Z"/><path class="cls-24" d="M143.29,105.9a11.39,11.39,0,0,1,1.71-2.77c0.07-.09.11-0.07,0.07,0a11.37,11.37,0,0,1-1.37,3,1,1,0,0,1-.49.4A1,1,0,0,1,143.29,105.9Z"/><path class="cls-24" d="M146.49,107.1a8,8,0,0,1,.33-2.7c0-.1.07-0.11,0.09,0A7.19,7.19,0,0,1,147,107a0.94,0.94,0,0,1-.27.53A0.56,0.56,0,0,1,146.49,107.1Z"/><path class="cls-7" d="M141.13,85.12l-2.47,3a0.18,0.18,0,0,1,0-.14Z"/><ellipse class="cls-32" cx="152.79" cy="125.22" rx="1.02" ry="0.99" transform="translate(-43.1 150.76) rotate(-46.76)"/><ellipse class="cls-33" cx="149.68" cy="136.37" rx="1.47" ry="1.43" transform="translate(-52.2 152) rotate(-46.76)"/><ellipse class="cls-34" cx="154.09" cy="131.24" rx="1.66" ry="1.62" transform="translate(-47.08 153.6) rotate(-46.76)"/><ellipse class="cls-35" cx="126.03" cy="73.26" rx="0.9" ry="0.88" transform="translate(-13.67 114.89) rotate(-46.76)"/><ellipse class="cls-36" cx="124.43" cy="82.31" rx="1.3" ry="1.27" transform="translate(-20.77 116.58) rotate(-46.76)"/><ellipse class="cls-37" cx="127.78" cy="77.77" rx="1.47" ry="1.43" transform="translate(-16.41 117.59) rotate(-46.76)"/><ellipse class="cls-38" cx="128.53" cy="69.92" rx="0.69" ry="0.67" transform="translate(-10.45 115.66) rotate(-46.76)"/><ellipse class="cls-39" cx="157.07" cy="120.82" rx="0.78" ry="0.76" transform="translate(-38.55 152.49) rotate(-46.76)"/><ellipse class="cls-40" cx="130.44" cy="133.64" rx="1.02" ry="0.99" transform="translate(-12.6 253.68) rotate(-85.7)"/><ellipse class="cls-41" cx="135.18" cy="136.36" rx="1.66" ry="1.62" transform="translate(-10.93 260.93) rotate(-85.7)"/><ellipse class="cls-42" cx="128.73" cy="128.94" rx="0.78" ry="0.76" transform="matrix(0.07, -1, 1, 0.07, -9.5, 247.63)"/><path class="cls-27" d="M161.49,51.3l-0.86,6a32.21,32.21,0,0,1-2.9-3c-0.47-.57-0.9-1.12-1.29-1.66l0.89-6.23c0.55,0.77,1.16,1.58,1.86,2.42S160.74,50.55,161.49,51.3Z"/><path class="cls-43" d="M165.14,66.3q-3.36,31.32-6.72,62.63l0,0.39-1,9.68a1.28,1.28,0,0,1-1.17,1.11c-3.55.38-7.46,0.65-11.68,0.71l-2.27,0H140.9c-4.44-.06-8.55-0.34-12.25-0.73a1.07,1.07,0,0,1-1-.94l-0.34-3.33-7-69.72c6.74-.51,14-0.81,21.8-0.8C150.38,65.33,158.07,65.7,165.14,66.3Z"/><path class="cls-44" d="M156.91,141.49c-0.16,1.69-.33,3.38-0.49,5.06a0.9,0.9,0,0,1-.83.81c-4.23.38-8.87,0.6-13.84,0.58-4.46,0-8.64-.23-12.5-0.58a1,1,0,0,1-.7-0.4,0.91,0.91,0,0,1-.17-0.44l-0.56-5c4.18,0.4,8.74.66,13.64,0.69A153.75,153.75,0,0,0,156.91,141.49Z"/><path class="cls-45" d="M156.29,146.95a0.9,0.9,0,0,1-.7.42c-4.23.38-8.87,0.6-13.84,0.58-4.46,0-8.64-.23-12.5-0.58a1,1,0,0,1-.7-0.4c1.09-.93,6.89-1.63,13.89-1.63S155.1,146,156.29,146.95Z"/><path class="cls-46" d="M124.91,56.91L132.58,149l2,0.13,1.34,0.06-6.35-92.43-2.51.08Z"/><path class="cls-47" d="M166,57.14l-9.81,91.53-1.75.15-1.67.13,9.74-92L164.08,57Z"/></svg>