<?xml version="1.0" encoding="utf-8"?>
<!-- Generator: Adobe Illustrator 19.2.1, SVG Export Plug-In . SVG Version: 6.00 Build 0)  -->
<svg version="1.1" id="Layer_1" xmlns="http://www.w3.org/2000/svg" xmlns:xlink="http://www.w3.org/1999/xlink" x="0px" y="0px"
	 viewBox="0 0 287.6 183.9" style="enable-background:new 0 0 287.6 183.9;" xml:space="preserve">
<style type="text/css">
	.st0{fill:url(#SVGID_1_);}
	.st1{fill:#ACB26D;}
	.st2{fill:#F0EDBF;}
	.st3{fill:#FBF7DF;}
	.st4{fill:#EAE4B1;}
	.st5{fill:#FFFEF9;}
	.st6{fill:#708E3B;}
	.st7{fill:#7FA73F;}
	.st8{fill:#FAF5AE;}
	.st9{fill:#B7D33F;}
	.st10{fill:#D2DD64;}
	.st11{fill:#D7D65F;}
	.st12{fill:url(#SVGID_2_);}
	.st13{fill:url(#SVGID_3_);}
	.st14{fill:url(#SVGID_4_);}
	.st15{opacity:0.67;fill:#7D8C3F;enable-background:new    ;}
	.st16{fill:#E2E26D;}
	.st17{fill:#FFF5AC;}
	.st18{opacity:0.75;fill:url(#SVGID_5_);enable-background:new    ;}
	.st19{fill:#A9BB3C;}
	.st20{opacity:0.38;fill:#FFF2EA;enable-background:new    ;}
	.st21{fill:#7D8C3F;}
	.st22{fill:#FCFAEE;}
	.st23{fill:url(#SVGID_6_);}
</style>
<title>margarita</title>
<radialGradient id="SVGID_1_" cx="143.8" cy="93.33" r="120.6923" gradientTransform="matrix(1 0 0 -1 0 185.28)" gradientUnits="userSpaceOnUse">
	<stop  offset="0" style="stop-color:#D5DBAF"/>
	<stop  offset="0.5588" style="stop-color:#B8C37D"/>
	<stop  offset="0.82" style="stop-color:#AEBB6C"/>
</radialGradient>
<rect y="0" class="st0" width="287.6" height="183.9"/>
<ellipse class="st1" cx="141.7" cy="143.2" rx="22.4" ry="3.6"/>
<path class="st2" d="M141.5,139v3.9h-0.8c-8.5,0-15.5-0.7-16.8-1.6c-0.1-0.1-0.2-0.1-0.2-0.2c0,0,0,0,0-0.1c0-0.4,1.2-0.8,3.2-1.1
	c0.5-0.1,1.2-0.2,1.8-0.2l0,0h0.2c3.9-0.4,7.8-0.6,11.8-0.5L141.5,139L141.5,139z"/>
<path class="st2" d="M141.5,99v41.7h-10.5h-6.6c0.9-0.4,1.8-0.6,2.7-0.8l0.3-0.1l1.4-0.3l0,0h0.1h0.1l1.6-0.3
	c1.5-0.2,3.1-0.7,4.5-1.3l0,0c0.2-0.1,0.4-0.2,0.6-0.3c0.8-0.4,1.4-1,2-1.7c0.3-0.3,0.5-0.7,0.7-1.1c0.3-0.7,0.5-1.4,0.5-2.1
	c0.3-5.4,0.2-14.3,0.2-14.3c0-8.5-0.3-14.8-0.6-16.2c-0.1-0.7-0.4-1.3-0.8-1.9l0,0c-0.1-0.1-0.1-0.2-0.2-0.3c-0.5-0.6-1.1-1-1.9-1.2
	L141.5,99z"/>
<path class="st2" d="M159.2,140.9C159.3,141,159.3,141,159.2,140.9c0,0.2-0.1,0.2-0.2,0.3c-1.3,0.9-8.3,1.6-16.8,1.6h-0.8V139h0.8
	c3.6,0,6.9,0.1,9.6,0.3c0.9,0.1,1.6,0.1,2.4,0.2l0,0c1,0.1,2.1,0.3,3.1,0.5C158.6,140.3,159.2,140.6,159.2,140.9z"/>
<path class="st2" d="M158.6,140.7h-3.9h-9h-4.3V99l5.8-0.2c-0.7,0.2-1.4,0.6-1.9,1.2c-0.1,0.1-0.1,0.2-0.2,0.3l0,0
	c-0.4,0.6-0.6,1.2-0.8,1.9c-0.3,1.5-0.6,7.7-0.6,16.2c0,0-0.1,8.8,0.2,14.3c0,0.7,0.2,1.4,0.5,2.1c0.2,0.4,0.4,0.8,0.7,1.1
	c1.8,2.3,5,3,6.9,3.3h0.2l1.8,0.3h0.1l0,0l1.4,0.3c0.4,0.1,0.8,0.2,1.4,0.3C157.6,140.3,158.1,140.5,158.6,140.7z"/>
<path class="st3" d="M138.8,137c0.6,0,1.2,0,1.8,0s1.3,0,2,0c0.8,1.3,1.9,2.4,3.1,3.3c2.2,1.5,4.8,2.2,7.4,2c-9,1.1-18.1,0.8-27-0.8
	c1.9-0.2,3.4-0.5,4.6-0.8c4.5-1,6-2,6.9-2.6C138,137.7,138.4,137.4,138.8,137z"/>
<path class="st2" d="M171.6,71c-1.7,2.5-4,4.5-6.6,6.1c-2.6,1.5-4.4,4.1-5.1,7c-1.1,5.7-4.6,10.6-9.7,13.4c-2.7,1.5-5.6,2.3-8.7,2.3
	c-9.3-0.1-17.2-6.8-18.8-15.9c-0.5-2.8-2.1-5.2-4.5-6.7c-2.2-1.4-4.2-3.1-5.8-5.2c-2.7-3.4-4.3-7.6-4.8-11.9
	c-0.1-0.8,0.5-1.5,1.3-1.6c0.1,0,0.1,0,0.2,0h66c0,0.1,0,0.2,0,0.3C175.3,63,174,67.4,171.6,71z"/>
<path class="st3" d="M138.9,99.6c1.7,0.3,3.4,0.3,5.1,0c-0.4,0.7-0.6,1.4-0.9,2.1c-0.2,0.7-0.3,1.3-0.4,2c-0.2,1.6-0.2,14.7,0,32.7
	c-0.6,0-1.2,0-1.8,0s-1.2,0-1.7,0c0.3-0.4,0.5-0.8,0.7-1.2c0.1-0.3,0.2-0.5,0.2-0.8c0.6-3.4,0.3-14.8,0.3-14.8
	c-0.1-3.3,0-15.3-0.5-17.2c-0.1-0.4-0.3-0.8-0.3-0.8C139.3,100.8,139.1,100.1,138.9,99.6z"/>
<path class="st4" d="M142.8,142.8h-1.4v1.5h0.8c9.4,0,17-1.1,17-2.4v-1l-0.8,0.2l0,0c-1.6,0.3-3.6,0.7-5.8,1
	C149.3,142.5,146.1,142.7,142.8,142.8z"/>
<path class="st4" d="M140.1,142.8h1.4v1.5h-0.8c-9.4,0-17-1.1-17-2.4v-1l0.8,0.2l0,0c1.7,0.3,3.6,0.7,5.8,1
	C133.6,142.5,136.8,142.7,140.1,142.8z"/>
<path class="st5" d="M138.8,137h1.8c-0.8,1.1-1.8,2-2.9,2.8c-1.7,1.2-3.6,2-5.6,2.4l-5.9-0.9c1.6-0.1,3.2-0.4,4.7-0.8
	c2.2-0.4,4.4-1.2,6.3-2.4C137.8,137.8,138.3,137.4,138.8,137z"/>
<path class="st6" d="M171.2,47.9c-5.5-1-11.1,1.5-14.2,6.2l0.4,0.2l1,0.6l21.1,13.2l1.1,0.8l0.2,0.1c0.9-1.5,1.6-3.2,1.9-5
	C183.9,56.5,178.8,49.2,171.2,47.9C171.2,47.9,171.2,47.9,171.2,47.9z"/>
<path class="st7" d="M182.4,64c-0.3,1.8-0.9,3.4-1.9,4.9l-1.1-0.7L158.3,55l-1-0.6c4.1-6.4,12.6-8.3,18.9-4.2
	C180.9,53.1,183.3,58.6,182.4,64z"/>
<path class="st8" d="M181.2,63l-0.1,0.1l0,0c0,0,0,0.1,0,0.1c0,0,0,0-0.1,0.1c0,0,0,0.1,0,0.1c0,0-0.1,0.1-0.1,0.1l-0.2,1.1
	c0,0.1,0,0.2,0,0.3c0,0.1,0,0.1,0.1,0.2c0,0,0,0.1,0,0.1v0.2c0,0.1,0,0.1-0.1,0.1c-0.1,0.1-0.1,0.2-0.2,0.3
	c-0.1,0.1-0.1,0.2-0.1,0.4c0,0.2-0.1,0.4-0.2,0.6c-0.1,0.2-0.1,0.3-0.2,0.4c0,0-0.1,0.1-0.1,0.1c0,0.1-0.1,0.1-0.1,0.1
	c0,0,0,0.1,0,0.1c0,0,0,0.1-0.1,0.1c0,0,0,0.1,0,0.2c0,0-0.1,0-0.1,0.1c0,0.1-0.1,0.1-0.1,0.2L158.3,55l0.1-0.1l0.2-0.2
	c0.1-0.1,0.1-0.1,0.1-0.2l0.1-0.1c0,0,0.1-0.1,0.1-0.2c0.1-0.1,0.2-0.2,0.3-0.2c0.1-0.1,0.2-0.1,0.3-0.2c0.1-0.1,0.1-0.1,0.1-0.2
	c0-0.1,0.1-0.1,0.1-0.2c0.1-0.1,0.1-0.2,0.1-0.2c0.1-0.1,0.2-0.2,0.3-0.4c0.1-0.1,0.1-0.2,0.2-0.2l0.1-0.1c0.1,0,0.1,0,0.2,0v-0.1
	h0.1c0-0.1,0.1-0.2,0.1-0.3c0.1-0.1,0.1-0.2,0.2-0.3h0.1c0,0,0-0.1,0-0.1c0.1-0.1,0.2-0.2,0.3-0.2c0.1,0,0.2,0,0.4-0.1
	c0-0.1,0.1-0.2,0.1-0.2l0.1-0.2c0.1-0.1,0.2-0.2,0.3-0.3c0.2-0.1,0.4-0.2,0.6-0.3c0.1,0,0.2,0,0.3,0l0.2-0.1c0,0,0.1,0,0.1,0
	c0,0,0.1-0.1,0.2-0.1c0.1,0,0.2,0,0.2,0c0.1,0,0.2-0.1,0.2-0.2c0.1-0.1,0.2-0.1,0.3-0.2c0.1-0.1,0.2-0.1,0.3-0.1c0.1,0,0.3,0,0.4,0
	c0.1,0,0.3,0,0.4,0c0.1,0,0.2,0,0.3-0.1c0.1,0,0.1,0,0.2-0.1c0,0,0-0.1,0-0.1c0,0,0.1,0,0.1,0c0.1,0,0.2,0,0.3,0c0.1,0,0.2,0,0.3,0
	c0.1,0,0.2,0,0.3,0c0.2,0,0.3-0.1,0.5-0.2c0.1,0,0.3,0,0.4,0c0.1,0,0.2,0,0.2-0.1l0.3-0.2c0.1,0,0.1,0,0.2,0c0.1,0,0.1,0,0.1,0.2
	c0.1,0.1,0.2,0.2,0.4,0.2c0.1,0,0.3,0,0.4,0h0.2c0.1,0,1-0.3,1,0l1.2,0.2c0.1,0,0.2,0,0.3,0.1c0.1,0,0.1,0.1,0.2,0.2
	c0.1,0.1,0.1,0.1,0.2,0.2c0.2,0.1,0.4,0.2,0.6,0.3c0.1,0,0.2,0.1,0.2,0.1l0.4,0.1c0.2,0,0.4,0.1,0.6,0.2c0.1,0,0.1,0.1,0.2,0.2
	c0.1,0.1,0.2,0.2,0.3,0.2c0.1,0.1,0.1,0.1,0.2,0.1l0.1,0.1c0,0,0,0,0,0c0,0,0.1,0,0.1,0c0,0,0.1,0,0.1,0.1c0.1,0,0.2,0,0.2,0
	c0,0,0.1,0,0.1,0.1c0.1,0,0.1,0,0.2,0c0,0,0.1,0.1,0.1,0.1l0.1,0.1h0.1c0,0,0,0.1,0.1,0.1s0.2,0.1,0.2,0.2c0.1,0,0.1,0.1,0.2,0.2
	c0.1,0.1,0.1,0.1,0.2,0.2c0.1,0.1,0.2,0.3,0.4,0.3c0.1,0.1,0.3,0.2,0.5,0.2c0.2,0,0.3,0.1,0.4,0.2c0,0.1,0,0.1,0,0.2v0.1
	c0,0,0.1,0,0.1,0.1l0,0c0.1,0.1,0.1,0.2,0.2,0.3c0.1,0.1,0.1,0.2,0.2,0.3c0.1,0.1,0.2,0.3,0.4,0.3c0,0,0,0,0,0.1
	c0.1,0,0.1,0.1,0.1,0.1s0.1,0,0.1,0.1c0,0.1,0,0.2,0,0.3c0,0.2,0.1,0.3,0.2,0.4c0.1,0.2,0.2,0.3,0.3,0.4c0.1,0,0.1,0.1,0.1,0.1
	c0,0,0,0.1,0.1,0.1c0,0,0.1,0,0.1,0.1c0.1,0,0.2,0.2,0.2,0.3c0,0.1,0.1,0.2,0.1,0.2c0,0,0,0.1,0,0.1l0.1,0.1c0,0,0,0.1,0,0.1
	s0.1,0.1,0.1,0.1c0,0.1,0,0.2,0,0.2c0,0.1,0.1,0.2,0.1,0.2c0.1,0.1,0.1,0.1,0.2,0.2c0,0.1,0,0.2,0,0.3c0,0,0,0.1,0,0.2
	c0,0,0,0.1,0,0.1c0,0.1,0.1,0.2,0.1,0.3c0,0.1,0,0.1,0.1,0.2c0.1,0.1,0.2,0.2,0.3,0.3c0,0.1,0.1,0.2,0.1,0.4c0,0.1,0.1,0.2,0.1,0.3
	c0,0.1,0,0.2-0.1,0.3c0,0.2,0,0.4,0,0.6c0,0.1,0.1,0.1,0.1,0.2c0,0.1,0,0.2,0,0.3l-0.1,0.6c0,0.1,0,0.2,0,0.3c0,0,0,0.1,0,0.1
	c0,0,0,0,0,0.1c0,0,0,0.1,0.1,0.1c0.1,0.2,0.1,0.4,0.1,0.6C181.2,62.8,181.2,62.9,181.2,63z"/>
<path class="st9" d="M166.7,50.9c-0.1-0.3,0.1-0.6,0.4-0.6c0,0,0,0,0,0c2.4-0.6,5-0.1,7.1,1.2c0.2,0.2,0.3,0.5,0.2,0.7l-5.1,8.4
	c-0.1,0.1-0.2,0.1-0.3,0.1c0,0-0.1-0.1-0.1-0.1L166.7,50.9z"/>
<path class="st9" d="M179.5,59.4c0.3-0.1,0.6,0.1,0.6,0.4c0,0,0,0,0,0c0.6,2.4,0.1,5-1.2,7.1c-0.2,0.2-0.5,0.3-0.7,0.2l-8.5-5.1
	c-0.1-0.1-0.1-0.2-0.1-0.3c0,0,0.1-0.1,0.1-0.1L179.5,59.4z"/>
<path class="st9" d="M174.8,52.5c0.2-0.2,0.5-0.3,0.7-0.2c2.1,1.3,3.6,3.4,4.1,5.9c0.1,0.3-0.1,0.6-0.4,0.6l-9.6,2.4
	c-0.1,0-0.2,0-0.2-0.1c0-0.1,0-0.1,0-0.2L174.8,52.5z"/>
<path class="st9" d="M159.8,55.6c-0.2-0.2-0.3-0.5-0.2-0.7c1.3-2.1,3.4-3.6,5.9-4.1c0.3-0.1,0.6,0.1,0.6,0.4l2.4,9.6
	c0,0.1,0,0.2-0.1,0.2c-0.1,0-0.1,0-0.2,0L159.8,55.6z"/>
<path class="st8" d="M166.6,58.9c0.2,0.6,0.7,1.1,1.3,1.2c0.1,0,0.1,0,0.1-0.1c0,0,0,0,0,0c0.1-0.6-0.2-1.3-0.7-1.7
	c-0.2-0.2-0.5-0.1-0.7,0.1C166.6,58.6,166.5,58.8,166.6,58.9z"/>
<path class="st8" d="M171.8,60c-0.4,0.5-1,0.8-1.7,0.7c-0.1,0-0.1,0-0.1-0.1c0,0,0,0,0,0c0.2-0.6,0.6-1.1,1.2-1.3
	c0.3-0.1,0.5,0.1,0.6,0.4C171.9,59.8,171.9,59.9,171.8,60z"/>
<path class="st10" d="M170.1,52.9c-0.3,1.4-0.4,2.8-0.2,4.2c0,0.2,0.1,0.2,0.1,0c0.5-1.3,0.8-2.7,0.8-4.1c0-0.3-0.1-0.6-0.2-0.8
	C170.3,52.4,170.1,52.6,170.1,52.9z"/>
<path class="st10" d="M168.2,52c0,1.2,0.2,2.5,0.6,3.6c0,0.1,0.1,0.1,0.1,0c0.1-1.2,0.1-2.5-0.1-3.7c0-0.2-0.2-0.5-0.3-0.6
	C168.3,51.5,168.2,51.8,168.2,52z"/>
<path class="st10" d="M172.2,52.1c-0.5,0.9-0.7,2-0.8,3c0,0.1,0,0.1,0.1,0.1c0.6-0.8,1-1.7,1.2-2.7c0.1-0.2,0-0.5-0.1-0.7
	C172.4,51.8,172.3,51.9,172.2,52.1z"/>
<path class="st10" d="M176.3,56.2c-1.3,0.7-2.4,1.5-3.4,2.5c-0.1,0.1-0.1,0.2,0.1,0.1c1.3-0.5,2.6-1.1,3.7-2
	c0.2-0.2,0.4-0.4,0.5-0.7C176.8,56,176.6,56.1,176.3,56.2z"/>
<path class="st10" d="M175.3,54.4c-0.9,0.8-1.8,1.7-2.4,2.8c-0.1,0.1,0,0.1,0.1,0.1c1-0.7,2-1.5,2.8-2.5c0.2-0.2,0.3-0.4,0.3-0.7
	C175.7,54.1,175.5,54.2,175.3,54.4z"/>
<path class="st10" d="M177.7,57.5c-1,0.2-2,0.7-2.8,1.2c-0.1,0.1-0.1,0.1,0,0.1c1-0.1,2-0.3,2.9-0.8c0.2-0.1,0.4-0.3,0.5-0.5
	C178.1,57.5,177.9,57.5,177.7,57.5z"/>
<path class="st10" d="M164.1,54.2c0.9,1.1,1.6,2.4,2.1,3.7c0.1,0.2,0,0.2-0.1,0.1c-1-1-1.9-2.1-2.6-3.3c-0.1-0.3-0.2-0.6-0.1-0.9
	C163.7,53.9,164,54,164.1,54.2z"/>
<path class="st10" d="M165.4,52.6c0.5,1.1,0.9,2.3,1.1,3.5c0,0.1,0,0.2-0.1,0c-0.7-1-1.2-2.2-1.5-3.3c-0.1-0.2-0.1-0.5,0-0.7
	C165.1,52.1,165.3,52.3,165.4,52.6z"/>
<path class="st10" d="M161.9,54.5c0.8,0.6,1.6,1.4,2.1,2.3c0.1,0.1,0,0.1-0.1,0.1c-0.9-0.5-1.7-1.1-2.3-1.8
	c-0.2-0.2-0.2-0.4-0.2-0.6C161.5,54.3,161.7,54.4,161.9,54.5z"/>
<path class="st10" d="M178.1,63.3c-1.4-0.1-2.8-0.4-4.1-1c-0.1-0.1-0.1-0.1,0-0.1c1.4-0.1,2.8,0.1,4.2,0.4c0.3,0.1,0.5,0.2,0.7,0.5
	C178.7,63.2,178.4,63.3,178.1,63.3z"/>
<path class="st11" d="M119,66.9c1.3,1.1,12.8,10.1,26.5,6.3c4.9-1.4,9.4-4.1,12.9-7.9c-6.7,3.8-11.8,4.2-15.2,3.8
	c-4.8-0.5-7.1-2.6-13.1-3.2C126.4,65.6,122.6,65.9,119,66.9z"/>
<path class="st10" d="M177.9,65.3c-1.2-0.4-2.3-0.9-3.3-1.6c-0.1-0.1-0.1-0.1,0-0.1c1.2,0.2,2.4,0.6,3.5,1.2
	c0.2,0.1,0.4,0.3,0.5,0.5C178.4,65.4,178.1,65.4,177.9,65.3z"/>
<path class="st10" d="M178.9,61.5c-1,0.2-2.1,0.2-3.1,0c-0.1,0-0.1-0.1,0-0.1c0.9-0.3,1.9-0.5,2.9-0.4c0.2,0,0.4,0.1,0.6,0.2
	C179.3,61.4,179.1,61.5,178.9,61.5z"/>
<linearGradient id="SVGID_2_" gradientUnits="userSpaceOnUse" x1="163.89" y1="129.77" x2="163.89" y2="120.01" gradientTransform="matrix(1 0 0 -1 0 185.28)">
	<stop  offset="0" style="stop-color:#F4E07D"/>
	<stop  offset="0.71" style="stop-color:#7FA73F"/>
</linearGradient>
<path class="st12" d="M160.2,65.2l7,0.1c-0.2-0.9-0.2-1.9-0.1-2.9c0.1-0.5,0.2-1,0.4-1.5c-0.3-3.1-1.2-5.3-2.3-5.4
	c-0.3,0-0.6,0.1-0.8,0.2c-1.1,0.6-1.9,1.5-2.4,2.7C161,60.5,160.4,62.8,160.2,65.2z"/>
<linearGradient id="SVGID_3_" gradientUnits="userSpaceOnUse" x1="178.9215" y1="111.2366" x2="179.7515" y2="118.9266" gradientTransform="matrix(1 0 0 -1 0 185.28)">
	<stop  offset="0.21" style="stop-color:#7FA73F"/>
	<stop  offset="0.95" style="stop-color:#F4E07D"/>
</linearGradient>
<path class="st13" d="M179.6,75c1.3-1.1,2.1-2.7,2.4-4.4c0.3-1.4,0-3-0.9-4.2c-0.5-0.6-1.2-1-2-1.2c0.3,1.4,0.2,2.9-0.4,4.3
	c-0.5,1.2-1.3,2.3-2.4,3.1c0.4,0.6,1,1.1,1.6,1.5C178.4,74.5,179,74.8,179.6,75z"/>
<linearGradient id="SVGID_4_" gradientUnits="userSpaceOnUse" x1="142.605" y1="121.7" x2="142.605" y2="87.68" gradientTransform="matrix(1 0 0 -1 0 185.28)">
	<stop  offset="0.16" style="stop-color:#E3E772"/>
	<stop  offset="1" style="stop-color:#B1BE36"/>
</linearGradient>
<path class="st14" d="M171.2,64.8c-0.8,2.6-2.1,5-4,7c-2,2.1-3.3,2.4-5.4,4.6c-2.3,2.5-3.7,4.8-3.9,6.3c-1.4,8.5-8.2,15-16.2,14.9
	c-3.2,0-6.3-1.1-8.8-3c-3.8-2.8-6.3-7-7.1-11.7c-0.4-2.4-1.9-4.4-4.4-6.6c-0.2-0.2-0.4-0.3-0.6-0.5l0,0c-0.6-0.5-1.2-1-1.9-1.5
	c-1.1-0.9-2.2-1.9-3.2-3c-0.2-0.3-0.5-0.6-0.7-0.8l0,0c-0.4-0.5-0.7-0.9-0.9-1.3l0.1-0.1c0.8-0.8,1.6-1.4,2.6-1.8
	c1.3-0.6,2.7-0.8,4.1-0.6c2.9,0.3,5.8,1.8,8.8,2.7c0.6,0.2,10.1,3.1,19.2,0.4c7.2-2.1,9.5-6.4,16.5-6.2
	C167.3,63.7,169.3,64.1,171.2,64.8z"/>
<path class="st15" d="M141,93.7l-2,1c-0.4,0.2-0.9,0-1.1-0.4l-18.4-36h4.4l17.5,34.2C141.6,93,141.4,93.5,141,93.7
	C141,93.7,141,93.7,141,93.7z"/>
<path class="st16" d="M155.3,89.4l-0.1,0.2c-0.6,1-1.3,2-2.1,2.8c-0.2,0.2-0.4,0.5-0.7,0.7l-0.3,0.3l-0.5,0.4
	c-2.2,1.9-4.9,3.1-7.7,3.6l-0.7,0.1l-0.7,0.1h-1H141c-3-0.2-5.8-1.2-8.2-3c-0.6-0.4-1.1-0.9-1.1-0.9c-1.1-1-2-2-2.8-3.2
	c1.8-1.3,3.8-2.1,6-2.4c4.5-0.6,6.9,1.7,12.3,2.1C149.9,90.4,152.7,90.1,155.3,89.4z"/>
<path class="st17" d="M160.8,61.7c0.3-1.2,1.2-4.4,3.4-5.9c0.2-0.2,0.6-0.3,0.9-0.3c2,0.2,2.9,6.9,2.9,7s-0.1-0.6-0.6-1.9
	c-0.2-0.6-0.4-1.1-0.7-1.7c-0.5-0.9-1-1.8-1.7-1.9c-1-0.2-1.9,1-2.6,1.8C161.6,59.6,161.1,60.6,160.8,61.7z"/>
<linearGradient id="SVGID_5_" gradientUnits="userSpaceOnUse" x1="142.61" y1="121.7" x2="142.61" y2="87.69" gradientTransform="matrix(1 0 0 -1 0 185.28)">
	<stop  offset="0.16" style="stop-color:#E3E772"/>
	<stop  offset="1" style="stop-color:#B1BE36"/>
</linearGradient>
<path class="st18" d="M171.2,64.8c-0.8,2.6-2.1,5-4,7c-2,2.1-3.3,2.4-5.4,4.6c-2.3,2.5-3.7,4.8-3.9,6.3c-0.4,2.4-1.3,4.8-2.6,6.9
	c-0.6,1-1.3,2-2.1,2.8c-0.2,0.2-0.4,0.5-0.7,0.7l-0.3,0.3l-0.5,0.4c-2.2,1.9-4.9,3.1-7.7,3.6l-0.7,0.1l-0.7,0.1h-1H141
	c-3-0.2-5.8-1.2-8.2-3c-0.4-0.3-0.8-0.6-1.1-0.9c-2.4-2.1-4.1-4.8-5.2-7.8c-0.3-1-0.6-2-0.8-3c-0.4-2.4-1.9-4.4-4.4-6.6
	c-0.2-0.2-0.4-0.3-0.6-0.5l0,0c-0.6-0.5-1.2-1-1.9-1.5c-1.1-0.9-2.2-1.9-3.2-3l-0.7-0.9l0,0c-0.4-0.5-0.7-0.9-0.9-1.3l0.1-0.1
	c0.8-0.8,1.6-1.4,2.6-1.8c1.3-0.6,2.7-0.8,4.1-0.6c2.9,0.3,5.8,1.8,8.8,2.7c0.6,0.2,10.1,3.1,19.2,0.4c7.2-2.1,9.5-6.4,16.5-6.2
	C167.3,63.7,169.3,64.1,171.2,64.8z"/>
<path class="st19" d="M155.4,89.3c-0.8,1.4-1.8,2.6-2.9,3.7l-0.3,0.3l-0.5,0.4c-1.8,1.6-4.1,2.8-6.4,3.4c-0.4,0.1-0.9,0.2-1.3,0.2
	l-0.7,0.1l-0.7,0.1h-1H141c-3-0.2-5.8-1.2-8.2-3c-0.4-0.3-0.8-0.6-1.1-0.9c5.8,1,9.3-0.2,11.4-1.5c3.2-1.9,4.8-4.9,7.9-4.9
	C152.6,87.4,154.2,88.1,155.4,89.3z"/>
<path class="st20" d="M171.1,67c-0.6,1.5-1.5,2.9-2.6,4.1c-2.1,2.4-3.9,2.8-6.3,5.2s-4,4.6-4.4,6.6c-1.2,6.7-5.7,12.1-11.6,14l0,0
	c1.5-1.5,2.9-3.2,3.9-5.1c0.7-1.3,1.3-2.7,1.7-4.1c1.5-5.2-0.4-6.7,1.1-10.4c1-2.6,2-1.9,3.6-5.5c1.1-2.2,1.7-4.6,1.9-7
	c0.1-2.1-0.2-4.3-0.9-6.3l12,0.1c1.3,1.8,1.9,3.9,1.9,6.1C171.5,65.5,171.4,66.2,171.1,67z"/>
<path class="st20" d="M133.3,95l-0.5-0.3c-3.8-2.8-6.3-7-7.1-11.7c-0.4-2.4-1.9-4.4-4.4-6.6c-0.2-0.2-0.4-0.3-0.6-0.5l0,0
	c-0.6-0.6-1.2-1.1-1.9-1.5c-1.1-0.8-2.1-1.8-3-2.8c-0.3-0.3-0.6-0.7-0.8-1l0,0c-0.3-0.5-0.6-0.9-0.9-1.3c-0.5-0.8-0.9-1.6-1.3-2.5
	c-0.2-0.7-0.4-1.4-0.6-2.1c-0.5-1.8-1-3.9-1.4-6.3h8.4c0,2.1,0.3,4.2,0.8,6.3c0.2,0.7,0.5,1.5,0.8,2.2c0.5,1.1,1,2.2,1.6,3.3
	c2.3,4.2,3.1,4.1,4.5,6.8c2.1,4.1,1,5.7,2.8,11C130.7,90.5,131.9,92.8,133.3,95z"/>
<path class="st21" d="M123.9,58.4h-4.4l-5-9.8c-0.2-0.4,0-0.9,0.4-1.1c0,0,0,0,0,0l2-1c0.4-0.2,0.9-0.1,1.1,0.4c0,0,0,0,0,0
	L123.9,58.4z"/>
<path class="st22" d="M108.2,58.6c0.1,0,0.3,0,0.4,0c0.2-0.1,0.4-0.2,0.6-0.3c0.2-0.1,0.3-0.1,0.5-0.1c0.1,0,0.2,0,0.2,0
	c0.1,0.1,0.1,0.1,0.2,0.1c0.2,0,0.3,0,0.5,0c0.2,0,0.3,0,0.5-0.1c0.2-0.1,0.3-0.1,0.5-0.2c0.1,0,0.1,0,0.2,0c0.1,0,0.2,0,0.3,0
	c0.1,0,0.1,0,0.2,0.1c0.1,0,0.2,0,0.3,0l0.1,0.1c0.1,0,0.2,0,0.3,0c0.1,0,0.2,0,0.3,0c0.3,0.1,0.4,0,0.8,0c0.1,0,0.3,0,0.4,0
	c0.1,0,0.1,0,0.2,0c0.1,0,0.1,0,0.2,0c0.1,0,0.1,0,0.2,0c0,0,0.1,0,0.1,0c0,0,0.1,0,0.1,0h0.1h0.1v-0.1c0,0,0.1,0,0.1,0
	c0.2-0.2,0.5-0.3,0.8-0.2c0,0,0.1,0,0.1,0.1c0.1,0.1,0,0.1,0.1,0.2c0,0,0.1,0.1,0.2,0.1c0.1,0,0.2,0,0.2-0.1c0.2,0,0.4,0,0.5,0.1
	h0.3c0,0,0.1,0,0.1,0h0.1c0.1,0,0.1,0,0.2,0v-0.1c0.1,0,0.2-0.1,0.3-0.1c0.1-0.1,0.3-0.2,0.4-0.1c0.1,0.1,0.1,0.2,0.2,0.3
	c0.3,0.1,0.6,0.1,0.8,0.1h0.4c0.1,0,0.3,0,0.4-0.1c0.1,0,0.2,0,0.4,0c0.1,0,0.3,0,0.4-0.1c0.2,0,0.5,0,0.7,0c0.3,0,0.5,0,0.8,0h0.1
	c0.1,0,0.2-0.1,0.2-0.1c0.1,0,0.3,0.1,0.4,0.2c0.3,0.1,0.6-0.2,0.7-0.1c0,0.1,0,0.1,0,0.2c0.3,0,0.5,0,0.8,0h0.6
	c0.1,0,0.2,0,0.2-0.1c0.1-0.1,0.1-0.1,0.2-0.2c0.1,0,0.1,0,0.2,0.1c0.1,0,0.2,0,0.2,0c0.1,0,0.2,0.1,0.3,0.1c0.1,0,0.2,0,0.2,0.1
	c0.2,0,0.3,0,0.5,0c0.2,0,0.4-0.1,0.5-0.1c0.1,0,0.2,0,0.3,0c0.1,0,0.1,0,0.2,0.1c0,0,0.1,0,0.1,0c0.1,0,0.2-0.1,0.3-0.2
	c0.1,0,0.2-0.1,0.3-0.1c0.1-0.1,0.2-0.1,0.3-0.2c0.1,0,0.2,0,0.3,0c0,0,0,0.1,0.1,0.2c0.2,0,0.4,0,0.6,0h0.5c0.1,0,0.2,0,0.4,0
	c0.1,0,0.2-0.1,0.3-0.1c0.1,0,0.1,0,0.2,0c0,0,0.1,0,0.1-0.1c0,0,0-0.1,0-0.1c0.1,0,0.2,0,0.3,0.1c0.1,0,0.2,0,0.4-0.1
	c0,0.3,0.3,0.2,0.5,0.2h0.2c0,0,0.1,0.1,0.1,0.1c0.1,0,0.2,0,0.3-0.1c0.2,0,0.4,0,0.6,0c0.1,0,0.2,0,0.2,0.1c0.1,0,0.3,0,0.4,0
	l0.1,0.1c0.1,0,0.2,0,0.3,0c0.1,0,0.2,0,0.3-0.1c0.3,0,0.6,0,0.9,0c0.1,0,0.2,0,0.3,0.1c0,0,0.1,0,0.1,0c0,0,0,0.1,0,0.1
	c0.1,0.1,0,0.1,0.1,0.2c0.1,0,0.2,0,0.3-0.1c0.2,0,0.4-0.1,0.6-0.2c0.2-0.1,0.4-0.2,0.6-0.1c0.1,0,0.1,0.1,0.2,0.1
	c0.1,0,0.2,0,0.3,0c0.2,0,0.4,0,0.5-0.1c0-0.1,0-0.2,0.1-0.2c0.1,0,0.3,0,0.3,0.1c0.2,0.1,0.3,0.1,0.5,0.2c0.2,0.1,0.4,0.2,0.6,0.3
	c0.3,0,0.5-0.1,0.7-0.3c0,0,0.1-0.1,0.1-0.1c0.1-0.1,0.1-0.1,0.2-0.1c0.1,0,0.2,0,0.3,0.1c0.1,0,0.3,0,0.4,0c0.1,0,0.2,0.1,0.4,0.1
	h0.7c0.2-0.1,0.4-0.1,0.6-0.1c0,0.2,0.2,0.3,0.4,0.3c0.1,0,0.1,0,0.2,0c0.1,0,0.1,0,0.2,0.1c0.3,0,0.6,0,0.9,0h1.2
	c0.1,0,0.3,0.1,0.4,0.2c0.1,0,0.1,0,0.2,0.1c0,0.1,0.1,0.1,0.1,0.1c0.1,0,0.3,0,0.4,0c0.1,0,0.2-0.1,0.3-0.2c0.2,0,0.3-0.2,0.4-0.3
	c0-0.1,0.2-0.2,0.3-0.1c0,0,0,0,0,0c0,0,0.1,0.1,0.1,0.1c0.1,0,0.2,0,0.2,0h0.9c0.3,0,0.3,0.2,0.5,0.2c0.2,0,0.3-0.1,0.5-0.2
	c0.2-0.1,0.4-0.1,0.6-0.2c0.2,0,0.3,0,0.4,0.1c0.1,0,0.3,0,0.4,0c0,0,0,0,0.1,0.1c0.1,0,0.2,0,0.3,0c0.1,0,0.1-0.1,0.2-0.1
	c0.1,0,0.2,0,0.3,0.1c0.2,0,0.4,0,0.6-0.2c0.1,0,0.2,0,0.2-0.1c0.1,0,0.1,0,0.1-0.1c0,0,0-0.1,0.1-0.1c0.1,0,0.3,0.1,0.4,0.2
	c0.4,0.1,0.8,0.1,1.1,0.1c0.2,0,0.4,0.1,0.6,0.1c0.2,0,0.1-0.1,0.3,0c0.1,0.1,0.2,0.1,0.3,0.1c0.1,0,0.2-0.1,0.3-0.2
	c0.2-0.1,0.5-0.1,0.8-0.1c0.1,0,0.3,0,0.4,0c0.1,0,0.1,0.2,0.1,0.2c0.2,0.1,0.4,0,0.6-0.1c0.1-0.1,0.2-0.1,0.3-0.1
	c0.1,0,0.2,0,0.2,0.1c0.1,0,0.3,0,0.4,0s0.1,0.1,0.2,0.2s0.4-0.2,0.6-0.3c0.2,0.3,0.5,0.4,0.8,0.3c0.1,0,0.3-0.1,0.4-0.1h0.1
	c0,0,0.1,0,0.1,0c0,0,0,0,0,0h0.2h0.4c0.1,0,0.3-0.1,0.4-0.2c0.3,0,0.6,0,0.9,0c0.1,0,0.2,0.1,0.4,0.1c0.1,0,0.2-0.1,0.3-0.2
	c0,0,0-0.1,0.1-0.2c0.1-0.1,0.2-0.1,0.3,0c0,0,0.1,0.1,0.1,0.1c0.1,0,0.1,0,0.2,0h0.5c0.2,0,0.3,0,0.3,0.2c0,0.1,0,0.3-0.1,0.4
	c-0.1,0-0.2,0.1-0.3,0.2c0.3,0,0.5,0,0.8,0c-0.2,0.1-0.4,0.3-0.5,0.5c0,0.1-0.1,0.1-0.1,0.1c0,0-0.1,0-0.1,0.1s-0.1,0.2-0.2,0.3
	c-0.3,0.1-0.6,0.1-0.9,0c-0.2-0.1,0-0.2-0.1-0.4c-0.1-0.1-0.2-0.2-0.2-0.3h-0.1v-0.1c-0.2,0-0.3,0-0.5,0c-0.2,0-0.2,0.1-0.2,0.3
	c0,0.1-0.1,0.3-0.2,0.4c-0.1,0.2-0.1,0.4-0.3,0.2c-0.1-0.1-0.1-0.3-0.2-0.4c-0.1-0.1-0.2-0.2-0.2-0.2c-0.1,0-0.3-0.1-0.4-0.1
	l-0.2-0.1l-0.2-0.1c-0.1,0-0.1,0.1-0.1,0.1c0,0-0.1,0-0.1,0.1c0,0,0,0.1,0,0.2c-0.1,0.1-0.1,0.2-0.2,0.2c0,0.1,0,0.2,0,0.3
	c0,0.1-0.2,0.2-0.3,0.2c0,0,0,0,0,0c-0.1-0.1-0.2-0.3-0.2-0.4c-0.2-0.2-0.5-0.3-0.8-0.3c-0.3-0.1-0.5-0.2-0.8-0.3
	c-0.4,0-0.8,0-1.1,0h-0.7c-0.2,0-0.5-0.1-0.5,0.2c-0.2,0-0.3,0.1-0.5,0.1h-1.4c-0.2,0-0.3,0-0.5,0c0,0-0.1-0.2-0.1-0.2
	c0-0.1-0.1-0.1-0.2-0.1c-0.2,0.1-0.3,0.2-0.5,0.2c-0.4,0.1-0.9,0.2-1.3,0.1c-0.2,0-0.3,0-0.5,0c-0.1-0.1-0.1-0.1-0.2-0.2
	c-0.1-0.1-0.3,0.2-0.4,0.2c0,0,0,0.1-0.1,0.1c0,0,0,0,0,0c-0.1,0-0.1,0-0.1-0.1c-0.1,0-0.2,0-0.3,0h-0.5c-0.2,0-0.4-0.1-0.6-0.1
	c-0.2-0.1-0.5-0.1-0.7,0.1c-0.1,0.1-0.4,0.6-0.6,0.4c0-0.1,0-0.2-0.1-0.3c-0.2,0-0.3,0-0.5,0c-0.1,0-0.2,0-0.2,0.1
	c-0.1,0.1-0.3,0.2-0.4,0.2c0-0.4-1-0.1-1.2-0.1c-0.1,0-0.2,0-0.4,0c-0.1,0-0.2-0.1-0.2-0.1c-0.1,0-0.2,0-0.3,0c-0.1,0,0-0.2-0.1-0.2
	c-0.2,0-0.4,0-0.5,0H146c-0.2,0-0.3,0.1-0.5,0.2l-0.2,0.1c-0.1,0.1-0.2,0.1-0.3,0.1c-0.2,0-0.6,0.1-0.7,0c-0.2-0.1-0.4-0.1-0.6-0.1
	c-0.2,0.1-0.3,0.3-0.2,0.5c0,0.2-0.2,0.3-0.4,0.4c0-0.1-0.1-0.1-0.1-0.2c0-0.1,0-0.2-0.1-0.2l-0.1-0.2c-0.1,0-0.2,0-0.3,0
	c0,0.2-0.1,0.4-0.3,0.4c0,0-0.1,0-0.1,0c-0.1-0.1-0.2-0.1-0.3-0.2c-0.1-0.1-0.2-0.1-0.3-0.1v-0.1c-0.2-0.1-0.4,0-0.4,0.1
	c-0.1,0.2-0.1,0.2-0.2,0c0-0.1-0.1-0.2-0.2-0.2l-0.2-0.1c-0.1-0.1-0.3-0.2-0.4-0.2c-0.1,0-0.2,0.1-0.4,0.2c-0.1,0.1-0.3,0.1-0.4,0.2
	c-0.2,0-0.2-0.2-0.4-0.2s-0.2,0-0.3,0s-0.1-0.2-0.2-0.2c-0.3,0-0.6,0-0.9,0.1h-1c-0.4,0-0.6-0.1-1-0.1c-0.3,0-0.7,0-1,0v-0.2
	c-0.2,0-0.3,0-0.5,0c-0.2,0-0.3,0-0.5,0c-0.2,0.2-0.5,0.3-0.8,0.3c0-0.3-0.1-0.2-0.3-0.1c-0.2,0-0.4,0-0.6,0c-0.2,0-0.3,0-0.5,0
	c-0.4,0.1-0.6,0.5-1,0.4v-0.1c-0.3,0-0.6,0-0.9,0c-0.4-0.2-0.8-0.2-1.2,0c-0.1,0.1-0.2,0.1-0.3,0.1h-0.8c-0.5,0-0.9,0-1.4,0
	c0-0.2,0-0.4-0.1-0.5c-0.1,0-0.3,0-0.4,0h-0.3c-0.2,0-0.4,0-0.5,0.2c0,0.1-0.1,0.1-0.2,0.1h-0.3c-0.2,0-0.3,0-0.5,0
	c-0.2,0-0.3,0.1-0.5,0.1c-0.1,0-0.3,0-0.4,0c-0.2-0.1-0.4-0.1-0.6-0.1c-0.2,0.1-0.3,0.1-0.5,0.1c-0.1-0.1-0.2-0.1-0.3-0.2
	c-0.1-0.1-0.3-0.2-0.5-0.1c-0.2,0.1-0.5,0.6-0.5,0.1c-0.3-0.1-0.7-0.1-1,0.1c-0.2,0.1-0.4,0.2-0.6,0.3c0-0.3-0.9-0.1-1.1-0.1
	c-0.2,0-0.4,0-0.6,0c-0.1,0-0.3,0-0.4,0c0-0.1,0-0.2,0-0.3c-0.1,0.1-0.2,0.2-0.4,0.3c-0.1,0.1-0.3,0.2-0.4,0.2c0,0,0.4-0.3,0.3-0.4
	c-0.1,0-0.2,0.1-0.3,0.2c-0.1,0.1-0.2,0.1-0.3,0.2c-0.3,0-0.6,0-0.9,0c-0.1,0-0.2,0-0.3,0.1c-0.3,0,0-0.2-0.2-0.3
	c-0.1,0-0.2,0.1-0.3,0.2c-0.1,0.1-0.3,0.1-0.4,0.1h-0.5c-0.1,0-0.2,0-0.2-0.1c0-0.1,0-0.1,0-0.2c-0.1-0.1-0.3,0.1-0.4,0.1
	c-0.1,0-0.1,0.1-0.2,0.1c-0.1,0-0.1,0-0.2-0.1c-0.1,0-0.1-0.1-0.2-0.1c-0.1,0-0.2,0-0.3,0c-0.2,0-0.3,0-0.5,0
	c-0.1,0-0.2-0.1-0.3-0.2c-0.1,0-0.1,0-0.2,0.1c-0.1,0.1-0.3,0.1-0.4,0.1h-0.5c-0.2,0-0.3-0.1-0.4-0.1c-0.1,0-0.3,0-0.4-0.1
	C108,59,108.2,58.8,108.2,58.6z"/>
<linearGradient id="SVGID_6_" gradientUnits="userSpaceOnUse" x1="167.4618" y1="128.7962" x2="177.4418" y2="109.9462" gradientTransform="matrix(1 0 0 -1 0 185.28)">
	<stop  offset="0.21" style="stop-color:#7FA73F"/>
	<stop  offset="1" style="stop-color:#F4E07D"/>
</linearGradient>
<path class="st23" d="M164.9,55.5c1.1,0.1,2.2,0.2,3.5,0.4c1.2,0.2,2.5,0.5,3.7,0.8c0.3,0.2,0.6,0.4,0.8,0.7c0.3,0.5,0.5,1,0.5,1.6
	c0.1,3.3,0.6,6.6,1.4,9.8c0.4,1.6,1.2,3.1,2.3,4.4c0.7,0.8,1.6,1.4,2.6,1.8c-1.2,0.4-2.4,0.5-3.7,0.4c-1.2,0-2.3-0.4-3.3-0.9
	c-1.1-0.7-1.8-1.8-3.6-8.3c-1-3.5-1-4.1-1.7-5.7C166.7,58.8,165.9,57.1,164.9,55.5z"/>
</svg>
