<svg id="Layer_1" data-name="Layer 1" xmlns="http://www.w3.org/2000/svg" xmlns:xlink="http://www.w3.org/1999/xlink" viewBox="0 0 287.6 183.9"><defs><style>.cls-1{fill:url(#radial-gradient);}.cls-2{fill:#acb26d;}.cls-3,.cls-9{fill:#f0edbf;}.cls-21,.cls-4{fill:#77993d;}.cls-15,.cls-22,.cls-5{fill:#7fa73f;}.cls-23,.cls-6{fill:#faf5ae;}.cls-24,.cls-7{fill:#abd037;}.cls-25,.cls-8{fill:#c6db51;}.cls-53,.cls-9{opacity:0.62;}.cls-10{fill:url(#linear-gradient);}.cls-11{fill:#e0d9ad;}.cls-12{fill:#eae5b9;}.cls-13{fill:#e2ddb3;}.cls-14,.cls-31{fill:#e9f0be;}.cls-14,.cls-15{opacity:0.67;}.cls-16{fill:#5a914d;}.cls-17,.cls-27,.cls-29,.cls-34,.cls-47,.cls-50{opacity:0.45;}.cls-17{fill:url(#linear-gradient-2);}.cls-18,.cls-28,.cls-30,.cls-35,.cls-48,.cls-51,.cls-62,.cls-63,.cls-64,.cls-65{opacity:0.76;}.cls-18{fill:url(#linear-gradient-3);}.cls-19{fill:#486d38;}.cls-20,.cls-32{fill:#f6f7d3;}.cls-20{opacity:0.58;}.cls-21,.cls-22,.cls-23,.cls-24,.cls-25{opacity:0.68;}.cls-26{fill:#578949;}.cls-27{fill:url(#linear-gradient-4);}.cls-28{fill:url(#linear-gradient-5);}.cls-29{fill:url(#linear-gradient-6);}.cls-30{fill:url(#linear-gradient-7);}.cls-32{opacity:0.71;}.cls-33{fill:#dbd3ab;}.cls-34{fill:url(#linear-gradient-8);}.cls-35{fill:url(#linear-gradient-9);}.cls-36,.cls-37,.cls-38,.cls-39,.cls-40,.cls-49{opacity:0.39;}.cls-36{fill:url(#radial-gradient-2);}.cls-37{fill:url(#radial-gradient-3);}.cls-38{fill:url(#radial-gradient-4);}.cls-39{fill:url(#radial-gradient-5);}.cls-40{fill:url(#radial-gradient-6);}.cls-41,.cls-43,.cls-44,.cls-54,.cls-57,.cls-59{fill:#fff;}.cls-41{opacity:0.48;}.cls-42,.cls-60,.cls-61{opacity:0.85;}.cls-42{fill:url(#linear-gradient-10);}.cls-44{opacity:0.61;}.cls-45,.cls-46{opacity:0.95;}.cls-45{fill:url(#linear-gradient-11);}.cls-46{fill:url(#linear-gradient-12);}.cls-47{fill:url(#linear-gradient-13);}.cls-48{fill:url(#linear-gradient-14);}.cls-49{fill:url(#radial-gradient-7);}.cls-50{fill:url(#linear-gradient-15);}.cls-51{fill:url(#linear-gradient-16);}.cls-52{fill:none;}.cls-53{fill:url(#linear-gradient-17);}.cls-54{opacity:0.53;}.cls-55{opacity:0.56;fill:url(#linear-gradient-18);}.cls-56{opacity:0.9;fill:url(#linear-gradient-19);}.cls-57{opacity:0.16;}.cls-58{opacity:0.31;fill:url(#linear-gradient-20);}.cls-59{opacity:0.21;}.cls-60{fill:url(#linear-gradient-21);}.cls-61{fill:url(#linear-gradient-22);}.cls-62{fill:url(#radial-gradient-8);}.cls-63{fill:url(#radial-gradient-9);}.cls-64{fill:url(#radial-gradient-10);}.cls-65{fill:url(#radial-gradient-11);}</style><radialGradient id="radial-gradient" cx="143.8" cy="91.95" r="120.69" gradientUnits="userSpaceOnUse"><stop offset="0.06" stop-color="#d0d6a5"/><stop offset="0.88" stop-color="#aebb6c"/></radialGradient><linearGradient id="linear-gradient" x1="142.1" y1="148.77" x2="142.1" y2="55.63" gradientUnits="userSpaceOnUse"><stop offset="0.04" stop-color="#c5bd8e"/><stop offset="0.13" stop-color="#caca99"/><stop offset="0.23" stop-color="#ced5a2"/><stop offset="0.57" stop-color="#e7e9d2"/><stop offset="1" stop-color="#f4f5eb"/></linearGradient><linearGradient id="linear-gradient-2" x1="300.84" y1="483.77" x2="306.62" y2="483.77" gradientTransform="matrix(0.7, -0.71, -0.71, -0.7, 278.48, 688.44)" gradientUnits="userSpaceOnUse"><stop offset="0.56" stop-color="#376230"/><stop offset="0.97" stop-color="#5a914d"/></linearGradient><linearGradient id="linear-gradient-3" x1="300.81" y1="479.35" x2="301.75" y2="488.48" gradientTransform="matrix(0.7, -0.71, -0.71, -0.7, 278.48, 688.44)" gradientUnits="userSpaceOnUse"><stop offset="0.08" stop-color="#639b41"/><stop offset="1" stop-color="#5a914d"/></linearGradient><linearGradient id="linear-gradient-4" x1="-7.4" y1="618.6" x2="1.61" y2="618.6" gradientTransform="matrix(0.85, 0.53, 0.53, -0.85, -191.68, 666.19)" gradientUnits="userSpaceOnUse"><stop offset="0.21" stop-color="#578949"/><stop offset="1" stop-color="#376230"/></linearGradient><linearGradient id="linear-gradient-5" x1="-6.82" y1="620" x2="2.13" y2="620" gradientTransform="matrix(0.85, 0.53, 0.53, -0.85, -191.68, 666.19)" gradientUnits="userSpaceOnUse"><stop offset="0.24" stop-color="#578949"/><stop offset="1" stop-color="#639b41"/></linearGradient><linearGradient id="linear-gradient-6" x1="4.24" y1="624.36" x2="9.53" y2="624.36" gradientTransform="matrix(0.85, 0.53, 0.53, -0.85, -191.68, 666.19)" xlink:href="#linear-gradient-2"/><linearGradient id="linear-gradient-7" x1="4.21" y1="620.32" x2="5.08" y2="628.66" gradientTransform="matrix(0.85, 0.53, 0.53, -0.85, -191.68, 666.19)" xlink:href="#linear-gradient-3"/><linearGradient id="linear-gradient-8" x1="143.29" y1="43.19" x2="155.41" y2="43.19" gradientTransform="matrix(1, 0, 0, 1, 0, 0)" xlink:href="#linear-gradient-4"/><linearGradient id="linear-gradient-9" x1="144.07" y1="45.08" x2="156.12" y2="45.08" gradientTransform="matrix(1, 0, 0, 1, 0, 0)" xlink:href="#linear-gradient-5"/><radialGradient id="radial-gradient-2" cx="-233.31" cy="985.89" r="1.62" gradientTransform="translate(384.82 -858.34)" gradientUnits="userSpaceOnUse"><stop offset="0.67" stop-color="#f9e4b4"/><stop offset="1" stop-color="#fbf7f0"/></radialGradient><radialGradient id="radial-gradient-3" cx="-307.35" cy="1015.91" r="1.29" gradientTransform="matrix(-1, 0, 0, 1, -157.25, -874.24)" xlink:href="#radial-gradient-2"/><radialGradient id="radial-gradient-4" cx="-317.72" cy="1007.38" r="1.87" gradientTransform="matrix(-0.9, 0, 0, 0.91, -138.17, -780.82)" xlink:href="#radial-gradient-2"/><radialGradient id="radial-gradient-5" cx="-231.89" cy="985.69" r="0.85" gradientTransform="translate(384.41 -859.15)" xlink:href="#radial-gradient-2"/><radialGradient id="radial-gradient-6" cx="-316.29" cy="1006.35" r="0.99" gradientTransform="matrix(-0.9, 0, 0, 0.91, -138.2, -778.99)" xlink:href="#radial-gradient-2"/><linearGradient id="linear-gradient-10" x1="151.25" y1="7.93" x2="159.72" y2="0.1" gradientTransform="translate(-10.28 57.88)" gradientUnits="userSpaceOnUse"><stop offset="0" stop-color="#dbdebc"/><stop offset="0.97" stop-color="#fff"/></linearGradient><linearGradient id="linear-gradient-11" x1="183.82" y1="-0.7" x2="192.38" y2="-8.61" gradientTransform="translate(-38.88 77.68)" xlink:href="#linear-gradient-10"/><linearGradient id="linear-gradient-12" x1="168.32" y1="41.68" x2="176.39" y2="34.21" gradientTransform="translate(-24.59 61.74)" xlink:href="#linear-gradient-10"/><linearGradient id="linear-gradient-13" x1="-19.29" y1="669.91" x2="-14" y2="669.91" gradientTransform="matrix(0.85, 0.53, 0.53, -0.85, -191.68, 666.19)" xlink:href="#linear-gradient-2"/><linearGradient id="linear-gradient-14" x1="-19.32" y1="665.87" x2="-18.45" y2="674.21" gradientTransform="matrix(0.85, 0.53, 0.53, -0.85, -191.68, 666.19)" xlink:href="#linear-gradient-3"/><radialGradient id="radial-gradient-7" cx="-327.57" cy="1011.99" r="1.13" gradientTransform="matrix(-1, 0, 0, 1, -174.36, -890.68)" xlink:href="#radial-gradient-2"/><linearGradient id="linear-gradient-15" x1="135.63" y1="102.2" x2="139.92" y2="102.2" gradientTransform="matrix(1, 0, 0, 1, 0, 0)" xlink:href="#linear-gradient-4"/><linearGradient id="linear-gradient-16" x1="135.34" y1="99.06" x2="141.12" y2="99.06" gradientTransform="matrix(1, 0, 0, 1, 0, 0)" xlink:href="#linear-gradient-5"/><linearGradient id="linear-gradient-17" x1="142.17" y1="148.82" x2="142.17" y2="55.68" xlink:href="#linear-gradient"/><linearGradient id="linear-gradient-18" x1="158.97" y1="50.97" x2="166.11" y2="50.97" gradientTransform="matrix(1, 0, 0, 1, 0, 0)" xlink:href="#linear-gradient-2"/><linearGradient id="linear-gradient-19" x1="158.94" y1="45.52" x2="160.11" y2="56.74" gradientTransform="matrix(1, 0, 0, 1, 0, 0)" xlink:href="#linear-gradient-3"/><linearGradient id="linear-gradient-20" x1="161.55" y1="57.7" x2="170.02" y2="49.88" gradientTransform="translate(-30.15 58.02)" xlink:href="#linear-gradient-10"/><linearGradient id="linear-gradient-21" x1="126.94" y1="62.64" x2="129.59" y2="60.19" gradientTransform="matrix(1, 0, 0, 1, 0, 0)" xlink:href="#linear-gradient-10"/><linearGradient id="linear-gradient-22" x1="130.75" y1="65.79" x2="138.17" y2="58.94" gradientTransform="matrix(1, 0, 0, 1, 0, 0)" xlink:href="#linear-gradient-10"/><radialGradient id="radial-gradient-8" cx="155.92" cy="65.18" r="1.35" gradientTransform="translate(165.01 -103.57) rotate(70.4)" gradientUnits="userSpaceOnUse"><stop offset="0" stop-color="#eaf4de"/><stop offset="1" stop-color="#fff"/></radialGradient><radialGradient id="radial-gradient-9" cx="155.14" cy="79.85" r="1.95" gradientTransform="translate(178.31 -93.09) rotate(70.4)" gradientUnits="userSpaceOnUse"><stop offset="0" stop-color="#e6f1d7"/><stop offset="1" stop-color="#fff"/></radialGradient><radialGradient id="radial-gradient-10" cx="152.14" cy="72.34" r="2.2" gradientTransform="translate(169.24 -95.26) rotate(70.4)" xlink:href="#radial-gradient-9"/><radialGradient id="radial-gradient-11" cx="154.41" cy="60.15" r="1.04" gradientTransform="translate(159.26 -105.49) rotate(70.4)" xlink:href="#radial-gradient-8"/></defs><title>mojito-01</title><rect class="cls-1" width="287.6" height="183.9"/><ellipse class="cls-2" cx="141.85" cy="162.17" rx="19.27" ry="3.95"/><path class="cls-3" d="M163.66,45.22L156,160.42a2.14,2.14,0,0,1-1.91,2,113.44,113.44,0,0,1-11.66.66,112.66,112.66,0,0,1-13-.67,2,2,0,0,1-1.79-1.87Q123.86,102.94,120,45.35a1.17,1.17,0,0,1,1.05-1.25q3.15-.31,6.52-0.53l3.06-.18,1,0h0.13l0.7,0c2.86-.13,5.83-0.2,8.88-0.21,7.72,0,14.88.38,21.38,1A1,1,0,0,1,163.66,45.22Z"/><ellipse class="cls-4" cx="163.51" cy="43.62" rx="15.83" ry="15.81"/><ellipse class="cls-5" cx="163.67" cy="43.53" rx="15.48" ry="15.45"/><path class="cls-6" d="M163.48,29.54h1.27a1.71,1.71,0,0,1,.39,0,0.68,0.68,0,0,1,.21.16,1.21,1.21,0,0,0,.24.13,3.49,3.49,0,0,0,.67.2,1.25,1.25,0,0,0,.3,0H167a1.37,1.37,0,0,1,.65.1,1.57,1.57,0,0,1,.23.15,3.56,3.56,0,0,1,.37.22,0.61,0.61,0,0,0,.25.13l0.1,0.05a0.33,0.33,0,0,0,0,.05,0.53,0.53,0,0,0,.1,0s0.08,0,.12,0,0.19,0,.28,0a1.1,1.1,0,0,1,.14.05c0.06,0,.14,0,0.2,0a0.68,0.68,0,0,1,.13.09l0.18,0.09h0.06a0.92,0.92,0,0,1,.09.08c0.09,0.06.24,0,.25,0.21a0.37,0.37,0,0,1,.24.17,2,2,0,0,1,.25.22,0.75,0.75,0,0,0,.45.29,2.34,2.34,0,0,0,.57.16,0.82,0.82,0,0,1,.5.2,0.35,0.35,0,0,1,.09.19,0.41,0.41,0,0,0,.06.1,0.1,0.1,0,0,1,.08.06v0.05a2.16,2.16,0,0,0,.29.31l0.3,0.29a0.81,0.81,0,0,0,.45.29l0,0.08a0.79,0.79,0,0,1,.14.06c0.09,0,.09,0,0.15,0a0.63,0.63,0,0,1,0,.35,1.08,1.08,0,0,0,.29.45,1.86,1.86,0,0,0,.42.42,1.5,1.5,0,0,1,.18.07s0.06,0.07.09,0.1a0.57,0.57,0,0,0,.16,0,0.5,0.5,0,0,0,.19.1,0.42,0.42,0,0,0,.1.22,1.36,1.36,0,0,1,.15.24,0.85,0.85,0,0,0,0,.12s0.05,0.05.07,0.08,0,0.09.05,0.12,0.08,0.07.11,0.12a0.64,0.64,0,0,1,0,.28,0.7,0.7,0,0,0,.15.24A1.5,1.5,0,0,1,176,37a1,1,0,0,1,.1.28c0,0.06,0,.12,0,0.17a0.38,0.38,0,0,0,0,.1c0,0.12.11,0.22,0.15,0.34a0.35,0.35,0,0,0,.1.19,1,1,0,0,1,.19.18,3.33,3.33,0,0,1,.2.39,1.71,1.71,0,0,1,.17.28,1.88,1.88,0,0,1,0,.36,1.31,1.31,0,0,0,.14.62,0.65,0.65,0,0,1,.11.21,1.71,1.71,0,0,1,0,.32c0,0.22,0,.44,0,0.66a1.5,1.5,0,0,0,0,.32c0,0.05,0,.09,0,0.15a0.39,0.39,0,0,0,0,.08,0.25,0.25,0,0,0,.08.06,1,1,0,0,1,.17.65,1.31,1.31,0,0,1,0,.32l0,0.15,0,0.05s0,0.11,0,.15a1,1,0,0,0-.05.09,0.39,0.39,0,0,1,0,.15,0.26,0.26,0,0,0-.08.17c0,0.06,0,.11,0,0.17q0,0.4,0,.81v0.32a1.08,1.08,0,0,0,0,.36,0.49,0.49,0,0,1,.09.18s0,0.1,0,.15,0,0.12,0,.17,0,0.07-.08.13a0.77,0.77,0,0,0-.12.33,1.92,1.92,0,0,0,0,.41,2,2,0,0,1-.09.69,1.7,1.7,0,0,1-.18.55,0.31,0.31,0,0,0-.08.16,1,1,0,0,0-.05.17,1.2,1.2,0,0,1,0,.14,0.74,0.74,0,0,0,0,.13,0.81,0.81,0,0,1,0,.17,1.2,1.2,0,0,1-.07.1,1.38,1.38,0,0,0-.07.3,1.27,1.27,0,0,1-.4.61,5.94,5.94,0,0,1-.42.43,1.14,1.14,0,0,0-.42.29,2.56,2.56,0,0,0-.12.61c0,0.17-.1.33-0.12,0.5s0,0.12,0,.18a0.41,0.41,0,0,1,0,.11,1.11,1.11,0,0,1,0,.14,1.32,1.32,0,0,1-.07.13,2.49,2.49,0,0,1-.27.16c-0.09.07-.15,0.17-0.24,0.24a0.89,0.89,0,0,0-.13.06s0,0.05,0,.07l-0.12.08c-0.1.07-.19,0.17-0.3,0.25l-0.38.25a0.59,0.59,0,0,0-.18.09c0,0.06,0,.15-0.09.21s-0.15.15-.21,0.22a0.64,0.64,0,0,0-.1.13s0,0.09,0,.13a0.79,0.79,0,0,1-.23.19,0.82,0.82,0,0,1-.29.17,1.14,1.14,0,0,0-.33.11,3.13,3.13,0,0,1-.27.18,0.4,0.4,0,0,1-.17,0,0.83,0.83,0,0,0-.32.11,3.93,3.93,0,0,0-.54.38,1.12,1.12,0,0,0-.19.27,0.79,0.79,0,0,1-.12.13,0.48,0.48,0,0,0-.15.23,0.86,0.86,0,0,1-.25.25,1.28,1.28,0,0,1-.13.18c-0.06,0-.17,0-0.24.08a0.6,0.6,0,0,1-.4.13,0.5,0.5,0,0,0-.35.12,1.2,1.2,0,0,1-.64.27,0.74,0.74,0,0,0-.32,0l-0.35.19a2.32,2.32,0,0,1-.72,0,0.79,0.79,0,0,0-.34.15l-0.25.17a0.44,0.44,0,0,1-.2.12,1.76,1.76,0,0,0-.95,0,1.09,1.09,0,0,0-.08.11,0.71,0.71,0,0,1-.11.07,1,1,0,0,1-.16.13,1.55,1.55,0,0,1-.53.06h-0.86a0.77,0.77,0,0,0-.25.1l-0.2,0-0.15.05s-0.09,0-.13,0l-0.08,0a0.66,0.66,0,0,1-.24,0,1.27,1.27,0,0,1-.29-0.15l-0.15-.1a1.16,1.16,0,0,0-.19-0.06c-0.13-.06-0.23-0.19-0.36-0.25l-0.12,0s-0.08-.07-0.12-0.09a0.75,0.75,0,0,0-.25,0h-0.45a0.92,0.92,0,0,1-.54,0c-0.09-.11,0-0.32-0.14-0.41a1.11,1.11,0,0,0-.51,0,2.56,2.56,0,0,1-.25-0.09,3.21,3.21,0,0,0-.36-0.07,1.11,1.11,0,0,1-.5-0.19,0.75,0.75,0,0,1-.11-0.08,1.58,1.58,0,0,1-.08-0.14c0-.07-0.12-0.1-0.16-0.17s-0.06-.07-0.19-0.1,0,0-.08,0-0.11,0-.16,0a1,1,0,0,0-.06-0.24c-0.05-.15-0.06-0.13-0.2-0.15s-0.07-.07-0.11-0.2a0.39,0.39,0,0,0-.19-0.25s-0.11,0-.15,0a0.45,0.45,0,0,1-.06,0,1.42,1.42,0,0,0-.29,0,2,2,0,0,1-.3,0,0.52,0.52,0,0,1-.35-0.25,2.94,2.94,0,0,1-.25-0.31,1.57,1.57,0,0,1-.15-0.28,1,1,0,0,0-.4-0.48l-0.24-.12c-0.06,0-.13,0-0.19,0s-0.06-.06-0.11-0.08a1.52,1.52,0,0,1-.5-0.25,0.77,0.77,0,0,1-.15-0.54,0.41,0.41,0,0,0-.3-0.38,1.17,1.17,0,0,0-.35-0.11,1.79,1.79,0,0,1-.3,0,0.79,0.79,0,0,1-.25-0.52l-0.1-.27a0.64,0.64,0,0,0-.17-0.17,0.37,0.37,0,0,0-.07-0.12c-0.05,0-.13,0-0.18,0a0.68,0.68,0,0,1-.07-0.13,1.14,1.14,0,0,1-.1-0.11c0-.07-0.05-0.13-0.1-0.2a1,1,0,0,1-.15-0.35c-0.07-.22,0-0.46-0.09-0.68a1.81,1.81,0,0,0-.1-0.28l-0.14-.21a1.21,1.21,0,0,0-.21-0.28,0.73,0.73,0,0,1-.2-0.31c-0.09-.19-0.22-0.38-0.3-0.59s-0.06-.17-0.1-0.25a1.51,1.51,0,0,1-.06-0.28c0-.08-0.1-0.17-0.13-0.26a0.73,0.73,0,0,1,0-.15,0.67,0.67,0,0,0,0-.11c0-.09,0-0.19,0-0.28a1.36,1.36,0,0,1-.05-0.24,0.66,0.66,0,0,0,0-.25,1.27,1.27,0,0,0-.09-0.26,1.65,1.65,0,0,1-.26-0.43,2,2,0,0,1,0-.58,0.83,0.83,0,0,1,0-.11s0-.09,0-0.14,0-.1.05-0.16a1.38,1.38,0,0,0,0-.23,1.57,1.57,0,0,0,0-.37l0-.13s0-.08,0-0.11,0-.2,0-0.28a1.52,1.52,0,0,1-.21-0.3c0-.34,0-0.69,0-1a0.45,0.45,0,0,1,.06-0.24c0.07-.1.18-0.15,0.25-0.25a0.85,0.85,0,0,0,.09-0.54V40.33c0-.13,0-0.27,0-0.4a3.15,3.15,0,0,1,.14-0.68,3.78,3.78,0,0,1,.36-0.69,0.81,0.81,0,0,1,.19-0.26,1,1,0,0,0,.17-0.28c0.06-.11.13-0.2,0.19-0.3a2.53,2.53,0,0,0,.11-0.25s0.06-.07.08-0.11,0-.16.06-0.23a2.36,2.36,0,0,1,.29-0.32,1.82,1.82,0,0,1,.26-0.24,0.35,0.35,0,0,0,.11-0.27,1.25,1.25,0,0,1,.12-0.21,2,2,0,0,0,.08-0.3,3.88,3.88,0,0,1,.22-0.45,1.69,1.69,0,0,1,.17-0.31,0.84,0.84,0,0,1,.1-0.11,1.24,1.24,0,0,1,.18,0l0-.08,0.13,0a2.59,2.59,0,0,1,.05-0.38A2.19,2.19,0,0,1,153,34.1s0.07,0,.08-0.06a1.06,1.06,0,0,0,0-.11,0.64,0.64,0,0,1,.27-0.3c0.13-.07.27-0.11,0.4-0.17a1,1,0,0,1,.06-0.3l0.1-.24a1.53,1.53,0,0,1,.29-0.42,1.57,1.57,0,0,1,.6-0.4,1.07,1.07,0,0,0,.28-0.09,1.14,1.14,0,0,1,.17-0.12,0.44,0.44,0,0,0,.11,0,0.39,0.39,0,0,1,.17-0.11,0.88,0.88,0,0,0,.26-0.09,1,1,0,0,0,.25-0.25,2.12,2.12,0,0,1,.27-0.23,2.23,2.23,0,0,1,.32-0.2,1,1,0,0,1,.5-0.06,1.49,1.49,0,0,0,.48,0,2.45,2.45,0,0,0,.35-0.15,0.63,0.63,0,0,0,.18-0.11s0-.08,0-0.09a0.16,0.16,0,0,1,.09,0,2,2,0,0,1,.35-0.09,1.82,1.82,0,0,0,.35-0.06,2.24,2.24,0,0,1,.3-0.06,2.05,2.05,0,0,0,.49-0.3,1.61,1.61,0,0,1,.5,0,0.87,0.87,0,0,0,.25-0.15l0.3-.22a0.19,0.19,0,0,1,.17-0.07c0.14,0,.13,0,0.17.14a0.41,0.41,0,0,0,.46.16,1.45,1.45,0,0,0,.49-0.05l0.24-.08C162.53,29.66,163.41,29.23,163.48,29.54Z"/><path class="cls-7" d="M159.14,32a0.61,0.61,0,0,1,.33-0.8,10.17,10.17,0,0,1,8.1,0,0.61,0.61,0,0,1,.32.78l-4.05,10.37a0.22,0.22,0,0,1-.4,0Z"/><path class="cls-7" d="M159.14,54.69a0.61,0.61,0,0,0,.33.8,10.17,10.17,0,0,0,8.1,0,0.61,0.61,0,0,0,.32-0.78l-4.05-10.37a0.22,0.22,0,0,0-.4,0Z"/><path class="cls-7" d="M175,39a0.61,0.61,0,0,1,.8.33,10.12,10.12,0,0,1,0,8.08,0.61,0.61,0,0,1-.78.32l-10.38-4a0.22,0.22,0,0,1,0-.4Z"/><path class="cls-7" d="M152.24,39a0.61,0.61,0,0,0-.8.33,10.12,10.12,0,0,0,0,8.08,0.61,0.61,0,0,0,.78.32l10.38-4a0.22,0.22,0,0,0,0-.4Z"/><path class="cls-7" d="M168.46,32.23a0.61,0.61,0,0,1,.8-0.33A10.15,10.15,0,0,1,175,37.62a0.61,0.61,0,0,1-.33.77l-10.21,4.47a0.22,0.22,0,0,1-.29-0.28Z"/><path class="cls-7" d="M152.38,48.28a0.61,0.61,0,0,0-.33.79,10.15,10.15,0,0,0,5.73,5.71,0.61,0.61,0,0,0,.78-0.33L163,44.27a0.22,0.22,0,0,0-.28-0.29Z"/><path class="cls-7" d="M152.38,38.49a0.61,0.61,0,0,1-.33-0.79A10.15,10.15,0,0,1,157.79,32a0.61,0.61,0,0,1,.78.33L163,42.5a0.22,0.22,0,0,1-.28.29Z"/><path class="cls-7" d="M168.46,54.54a0.61,0.61,0,0,0,.8.33A10.15,10.15,0,0,0,175,49.15a0.61,0.61,0,0,0-.33-0.77l-10.21-4.47a0.22,0.22,0,0,0-.29.28Z"/><path class="cls-6" d="M160.52,40.94a2.15,2.15,0,0,0,1.71,1.12,0.11,0.11,0,0,0,.13-0.13,2.13,2.13,0,0,0-1.1-1.72A0.56,0.56,0,0,0,160.52,40.94Z"/><path class="cls-6" d="M161.25,46.49a2.14,2.14,0,0,0,1.12-1.71,0.11,0.11,0,0,0-.13-0.13,2.14,2.14,0,0,0-1.73,1.09A0.56,0.56,0,0,0,161.25,46.49Z"/><path class="cls-6" d="M166.59,41.13a2.15,2.15,0,0,1-1.71,1.12,0.11,0.11,0,0,1-.13-0.13,2.13,2.13,0,0,1,1.1-1.72A0.56,0.56,0,0,1,166.59,41.13Z"/><path class="cls-6" d="M165.86,46.49a2.14,2.14,0,0,1-1.12-1.71,0.11,0.11,0,0,1,.13-0.13,2.14,2.14,0,0,1,1.73,1.09A0.56,0.56,0,0,1,165.86,46.49Z"/><path class="cls-8" d="M163.28,33.54a15.15,15.15,0,0,0,.55,4.77c0,0.17.11,0.18,0.14,0a14.51,14.51,0,0,0,.09-4.74,1.49,1.49,0,0,0-.44-0.88A1.25,1.25,0,0,0,163.28,33.54Z"/><path class="cls-8" d="M161,32.86a14.24,14.24,0,0,0,1.36,3.93c0.07,0.14.12,0.12,0.11,0a14.17,14.17,0,0,0-.88-4.06,1.21,1.21,0,0,0-.5-0.63A1.28,1.28,0,0,0,161,32.86Z"/><path class="cls-8" d="M165.47,32.26a9.92,9.92,0,0,0-.37,3.44c0,0.13.06,0.15,0.1,0a9,9,0,0,0,.85-3.24,1.18,1.18,0,0,0-.19-0.73A0.73,0.73,0,0,0,165.47,32.26Z"/><path class="cls-8" d="M170.83,36a15.15,15.15,0,0,0-3.33,3.46c-0.11.14-.06,0.2,0.08,0.11a14.51,14.51,0,0,0,3.72-2.94,1.49,1.49,0,0,0,.4-0.9A1.25,1.25,0,0,0,170.83,36Z"/><path class="cls-8" d="M169.36,34.21a14.24,14.24,0,0,0-2.17,3.55c-0.06.14,0,.17,0.09,0.06a14.17,14.17,0,0,0,2.58-3.26,1.21,1.21,0,0,0,.17-0.79A1.28,1.28,0,0,0,169.36,34.21Z"/><path class="cls-8" d="M172.63,37.25a9.92,9.92,0,0,0-2.89,1.9c-0.1.09-.08,0.14,0,0.11a9,9,0,0,0,3-1.4,1.18,1.18,0,0,0,.44-0.61A0.73,0.73,0,0,0,172.63,37.25Z"/><path class="cls-8" d="M163.31,52.59a15.15,15.15,0,0,1,.55-4.77c0-.17.11-0.18,0.14,0a14.51,14.51,0,0,1,.09,4.74,1.49,1.49,0,0,1-.44.88A1.25,1.25,0,0,1,163.31,52.59Z"/><path class="cls-8" d="M161.07,53.28a14.24,14.24,0,0,1,1.36-3.93c0.07-.14.12-0.12,0.11,0a14.17,14.17,0,0,1-.88,4.06,1.21,1.21,0,0,1-.5.63A1.28,1.28,0,0,1,161.07,53.28Z"/><path class="cls-8" d="M165.49,53.88a9.92,9.92,0,0,1-.37-3.44c0-.13.06-0.15,0.1,0a9,9,0,0,1,.85,3.24,1.18,1.18,0,0,1-.19.73A0.73,0.73,0,0,1,165.49,53.88Z"/><path class="cls-8" d="M170.86,50.13a15.15,15.15,0,0,1-3.33-3.46c-0.11-.14-0.06-0.2.08-0.11a14.51,14.51,0,0,1,3.72,2.94,1.49,1.49,0,0,1,.4.9A1.25,1.25,0,0,1,170.86,50.13Z"/><path class="cls-8" d="M169.39,51.93a14.24,14.24,0,0,1-2.17-3.55c-0.06-.14,0-0.17.09-0.06a14.17,14.17,0,0,1,2.58,3.26,1.21,1.21,0,0,1,.17.79A1.28,1.28,0,0,1,169.39,51.93Z"/><path class="cls-8" d="M172.66,48.89a9.92,9.92,0,0,1-2.89-1.9c-0.1-.09-0.08-0.14,0-0.11a9,9,0,0,1,3,1.4,1.18,1.18,0,0,1,.44.61A0.73,0.73,0,0,1,172.66,48.89Z"/><path class="cls-8" d="M156.9,36.19A15.15,15.15,0,0,1,160,39.88c0.1,0.15,0,.2-0.09.11a14.51,14.51,0,0,1-3.49-3.2,1.49,1.49,0,0,1-.33-0.92A1.25,1.25,0,0,1,156.9,36.19Z"/><path class="cls-8" d="M157.95,34.09a14.24,14.24,0,0,1,1.9,3.69c0.05,0.14,0,.17-0.09.06a14.17,14.17,0,0,1-2.34-3.44,1.21,1.21,0,0,1-.11-0.8A1.28,1.28,0,0,1,157.95,34.09Z"/><path class="cls-8" d="M154.46,36.89A9.92,9.92,0,0,1,157.21,39c0.09,0.09.07,0.15,0,.11a9,9,0,0,1-2.93-1.61,1.18,1.18,0,0,1-.4-0.64A0.73,0.73,0,0,1,154.46,36.89Z"/><path class="cls-8" d="M153.48,43.36a15.15,15.15,0,0,1,4.8,0c0.18,0,.19.09,0,0.14a14.51,14.51,0,0,1-4.69.67,1.49,1.49,0,0,1-.93-0.33A1.25,1.25,0,0,1,153.48,43.36Z"/><path class="cls-8" d="M153.19,41.06a14.24,14.24,0,0,1,4.06.87c0.14,0,.13.1,0,0.11a14.17,14.17,0,0,1-4.14-.38,1.21,1.21,0,0,1-.69-0.42A1.28,1.28,0,0,1,153.19,41.06Z"/><path class="cls-8" d="M153.14,45.52a9.92,9.92,0,0,1,3.37-.79c0.13,0,.16,0,0.06.1a9,9,0,0,1-3.11,1.24,1.18,1.18,0,0,1-.75-0.1A0.73,0.73,0,0,1,153.14,45.52Z"/><path class="cls-8" d="M174.23,43.55a15.15,15.15,0,0,1-4.79-.31c-0.17,0-.18-0.1,0-0.14a14.51,14.51,0,0,1,4.73-.33,1.49,1.49,0,0,1,.9.39A1.25,1.25,0,0,1,174.23,43.55Z"/><path class="cls-8" d="M174.35,45.87a14.24,14.24,0,0,1-4-1.16c-0.14-.06-0.13-0.11,0-0.11a14.17,14.17,0,0,1,4.1.67,1.21,1.21,0,0,1,.66.47A1.28,1.28,0,0,1,174.35,45.87Z"/><path class="cls-8" d="M174.73,41.42a9.92,9.92,0,0,1-3.42.54c-0.13,0-.16,0-0.05-0.1a9,9,0,0,1,3.19-1,1.18,1.18,0,0,1,.74.15A0.73,0.73,0,0,1,174.73,41.42Z"/><path class="cls-8" d="M156.07,50.84a15.15,15.15,0,0,1,3.52-3.27c0.14-.1.2-0.06,0.11,0.08a14.51,14.51,0,0,1-3,3.66,1.49,1.49,0,0,1-.91.38A1.25,1.25,0,0,1,156.07,50.84Z"/><path class="cls-8" d="M154.3,49.34a14.24,14.24,0,0,1,3.59-2.1c0.14-.06.17,0,0.06,0.09a14.17,14.17,0,0,1-3.31,2.52,1.21,1.21,0,0,1-.79.15A1.28,1.28,0,0,1,154.3,49.34Z"/><path class="cls-8" d="M157.27,52.67a9.92,9.92,0,0,1,2-2.86c0.09-.1.14-0.08,0.11,0a9,9,0,0,1-1.46,3,1.18,1.18,0,0,1-.62.43A0.73,0.73,0,0,1,157.27,52.67Z"/><path class="cls-9" d="M163.66,45.22L156,160.42a2.14,2.14,0,0,1-1.91,2,113.44,113.44,0,0,1-11.66.66,112.66,112.66,0,0,1-13-.67,2,2,0,0,1-1.79-1.87Q123.86,102.94,120,45.35a1.17,1.17,0,0,1,1.05-1.25q3.15-.31,6.52-0.53l3.06-.18,1,0h0.13l0.7,0c2.86-.13,5.83-0.2,8.88-0.21,7.72,0,14.88.38,21.38,1A1,1,0,0,1,163.66,45.22Z"/><path class="cls-10" d="M159.76,59.25q-2.6,40.65-5.21,81.32a6.37,6.37,0,0,1-2.49,4.7,16.42,16.42,0,0,1-19.89.29,7,7,0,0,1-2.86-5.31l-4.86-83.92c5.6-.44,11.65-0.71,18.1-0.7q5.54,0,10.67.27A15.71,15.71,0,0,0,159.76,59.25Z"/><path class="cls-11" d="M154.77,146.86l-0.63,11.29a2,2,0,0,1-2,1.86H131.8a1.6,1.6,0,0,1-1.6-1.5l-0.73-11.65A21,21,0,0,0,154.77,146.86Z"/><path class="cls-12" d="M154.76,146.86l-0.52,11.33a1.92,1.92,0,0,1-1.91,1.83h-2.95a0.81,0.81,0,0,0,.49-0.51c0-.35-1.11-0.5-4.51-0.55v-8.15A21.3,21.3,0,0,0,154.76,146.86Z"/><path class="cls-13" d="M150.49,149.35l0.63-.28c0.3-.14.58-0.28,0.83-0.42V160h-1.46V149.35Z"/><path class="cls-14" d="M138,143.75a0.18,0.18,0,0,0,0-.08L132.48,43.31l-0.7,0h-0.13l-1,0-3.06.18,0.22,4.09,5.32,96.29a0.84,0.84,0,0,0,.88.79l2.22-.12,1-.05a0.85,0.85,0,0,0,.79-0.8h0Z"/><path class="cls-15" d="M128.25,55l0.4,7.2a35.06,35.06,0,0,0,3.15-3.34c0.52-.63,1-1.25,1.43-1.85l-0.42-7.48c-0.61.86-1.3,1.77-2.06,2.7S129.06,54.17,128.25,55Z"/><path class="cls-15" d="M129.07,70l0.4,7.2a35.06,35.06,0,0,0,3.15-3.34c0.52-.63,1-1.25,1.43-1.85l-0.42-7.48c-0.61.86-1.3,1.77-2.06,2.7S129.88,69.14,129.07,70Z"/><path class="cls-15" d="M131.77,43.34l-0.12.16c-0.21.27-.43,0.55-0.66,0.82l-0.25.3a35.94,35.94,0,0,1-2.9,3l-0.22-4.09,3.06-.18,1,0h0.13Z"/><path class="cls-15" d="M130.8,101.15l0.4,7.2a35.06,35.06,0,0,0,3.15-3.34c0.52-.63,1-1.25,1.43-1.85l-0.42-7.48c-0.61.86-1.3,1.77-2.06,2.7S131.61,100.32,130.8,101.15Z"/><path class="cls-16" d="M150.3,128.31a0.88,0.88,0,0,0-.32.8,4.22,4.22,0,0,0-.84-1.41c-0.54-.61-1.41-1.23-1.64-1.08s-0.11.25,0.13,0.8a6.28,6.28,0,0,0-1.19-.83c-0.18-.1-1.53-0.82-1.81-0.52-0.08.08-.1,0.24,0.11,0.65-1.75-.95-3.2-1.32-3.58-0.88a1.76,1.76,0,0,0,.12,1.39,2.85,2.85,0,0,0,.71,1c-1-.42-1.24-0.23-1.31-0.18-0.39.34,0.21,1.52,0.65,2.15a4.94,4.94,0,0,0,.8.87,1.22,1.22,0,0,0-1,.12c-0.37.37,0.06,1.19,0.28,1.61a4.28,4.28,0,0,0,1,1.26,0.88,0.88,0,0,0-.93,0c-0.32.37,0.59,1.49,0.8,1.74a6.31,6.31,0,0,0,1.4,1.27c-0.81-.17-1,0-1,0.05-0.18.29,0.57,1,1.09,1.44a4.88,4.88,0,0,0,1.92.87,0.92,0.92,0,0,0-.68.57c0,0.4,1.13.78,2,.83a3.7,3.7,0,0,0,2.1-.54l0.3-.2,0.23,0.11a1.83,1.83,0,0,0,.48.13c1.84,0.24,3.64-2.62,3.25-3a0.66,0.66,0,0,0-.62,0,4.48,4.48,0,0,0,.92-1.92c0.13-.65.16-1.6-0.11-1.68a0.84,0.84,0,0,0-.57.49,5.14,5.14,0,0,0,.12-1.22c0-.74-0.22-2-0.63-2a0.65,0.65,0,0,0-.55.43,3.8,3.8,0,0,0-.44-2C151.19,129,150.64,128.24,150.3,128.31Z"/><path class="cls-17" d="M150.6,138.77a5.2,5.2,0,0,0,1.89-3.06c0.5-2.92-2.1-5.32-2.87-6a11.11,11.11,0,0,0-5.19-2.62c1,0.68,6.36,4.38,6.45,9.52A7.54,7.54,0,0,1,150.6,138.77Z"/><path class="cls-18" d="M149.13,139.61a5.82,5.82,0,0,0,.59-1.78c0.76-4.92-5.18-9.38-5.92-9.92,0,1.23-.25,9,4.29,11.3A5.68,5.68,0,0,0,149.13,139.61Z"/><path class="cls-19" d="M148.62,129.06a0,0,0,0,0-.08,0,4.6,4.6,0,0,1,.4,1.95,4.25,4.25,0,0,1-.11.87,0,0,0,0,1-.08,0,13.54,13.54,0,0,0-2.13-2.68,14.78,14.78,0,0,0-4.74-3.09,0,0,0,1,0,0,.07,20.1,20.1,0,0,1,3.28,2.28,19.32,19.32,0,0,1,2.45,2.51,0,0,0,0,1-.06.06,10.16,10.16,0,0,0-3.43-1.34,0,0,0,1,0,0,.08,12.53,12.53,0,0,1,1.42.55,8.08,8.08,0,0,1,3.08,2.1,5.84,5.84,0,0,1,1.23,2.59,0,0,0,0,1-.07,0,7.48,7.48,0,0,0-1.6-1.18,7.6,7.6,0,0,0-2.33-.81,0,0,0,1,0,0,.08,11.51,11.51,0,0,1,2.34,1.09,11.35,11.35,0,0,1,1.71,1.27v0a6.62,6.62,0,0,1,.22,1.21,5.94,5.94,0,0,1,0,.93,0,0,0,0,1-.07,0,4.55,4.55,0,0,0-.87-0.73,4.67,4.67,0,0,0-1.64-.65,0,0,0,1,0,0,.08,6.67,6.67,0,0,1,1.59.84,6.52,6.52,0,0,1,.93.82,0,0,0,0,1,0,0,4.78,4.78,0,0,1-.94,2.19l0,0,0.3-.2,0.23,0.11a5,5,0,0,0,.89-2.57,0,0,0,0,1,0,0,3.12,3.12,0,0,0,.7-0.57,3,3,0,0,0,.77-1.72,3.6,3.6,0,0,1-.73,1.33,3.68,3.68,0,0,1-.67.6,0,0,0,0,1-.07,0c0-.24,0-0.49,0-0.76a9,9,0,0,0-.18-1.07,0,0,0,0,1,0,0,4.36,4.36,0,0,0,.63-1.8,4.53,4.53,0,0,0-.08-1.54c0-.05-0.09,0-0.09,0a5.3,5.3,0,0,1-.53,2.74,0,0,0,0,1-.08,0,6.72,6.72,0,0,0-.35-1,6.85,6.85,0,0,0-.64-1.18,0,0,0,0,1,0,0,4.3,4.3,0,0,0,.06-2A4.65,4.65,0,0,0,148.62,129.06Z"/><path class="cls-15" d="M131.7,117.36l0.4,7.2a35.06,35.06,0,0,0,3.15-3.34c0.52-.63,1-1.25,1.43-1.85l-0.42-7.48c-0.61.86-1.3,1.77-2.06,2.7S132.51,116.54,131.7,117.36Z"/><path class="cls-15" d="M129.93,85.35l0.4,7.2a35.06,35.06,0,0,0,3.15-3.34c0.52-.63,1-1.25,1.43-1.85l-0.42-7.48c-0.61.86-1.3,1.77-2.06,2.7S130.74,84.52,129.93,85.35Z"/><path class="cls-15" d="M132.52,132.33l0.4,7.2a35.06,35.06,0,0,0,3.15-3.34c0.52-.63,1-1.25,1.43-1.85l-0.42-7.48c-0.61.86-1.3,1.77-2.06,2.7S133.33,131.5,132.52,132.33Z"/><path class="cls-20" d="M137.24,144.56l-1,.06-5.52-100-0.07-1.23,1,0V43.5Z"/><path class="cls-21" d="M151.34,119.65a11.89,11.89,0,0,0-1.66-13.27l-0.26.23-0.63.54-16.32,14.12-0.63.54-0.14.12A11.88,11.88,0,0,0,151.34,119.65Z"/><path class="cls-22" d="M151.1,119.66a11.62,11.62,0,0,0-1.69-13.05l-0.63.54-16.32,14.12-0.63.54A11.61,11.61,0,0,0,151.1,119.66Z"/><path class="cls-23" d="M135.86,124a10.73,10.73,0,0,1-3.39-2.72l16.32-14.12A10.79,10.79,0,0,1,135.86,124Z"/><path class="cls-24" d="M150,115.31a0.46,0.46,0,0,1,.42.49,7.64,7.64,0,0,1-2.78,5.41,0.46,0.46,0,0,1-.63-0.05l-5.55-6.26a0.16,0.16,0,0,1,.13-0.27Z"/><path class="cls-24" d="M139.93,123.5a0.46,0.46,0,0,1-.49.42,7.6,7.6,0,0,1-5.4-2.77,0.46,0.46,0,0,1,.06-0.63l6.26-5.56a0.16,0.16,0,0,1,.27.13Z"/><path class="cls-24" d="M146.69,121.46a0.46,0.46,0,0,1,0,.65,7.62,7.62,0,0,1-5.78,1.87,0.46,0.46,0,0,1-.41-0.48l0.5-8.36a0.16,0.16,0,0,1,.29-0.1Z"/><path class="cls-24" d="M148,108.56a0.46,0.46,0,0,1,.65,0,7.62,7.62,0,0,1,1.86,5.79,0.46,0.46,0,0,1-.48.41l-8.35-.49a0.16,0.16,0,0,1-.1-0.29Z"/><path class="cls-23" d="M143.58,113.16a1.61,1.61,0,0,0-1.33.76,0.08,0.08,0,0,0,0,.13,1.6,1.6,0,0,0,1.53-.14A0.42,0.42,0,0,0,143.58,113.16Z"/><path class="cls-23" d="M141.38,117.16a1.61,1.61,0,0,1-.16-1.53,0.08,0.08,0,0,1,.13,0,1.6,1.6,0,0,1,.78,1.32A0.42,0.42,0,0,1,141.38,117.16Z"/><path class="cls-25" d="M147.58,117.54a11.38,11.38,0,0,0-3.38-1.26c-0.13,0-.16,0-0.05.09a10.9,10.9,0,0,0,3.14,1.68,1.12,1.12,0,0,0,.74,0A0.94,0.94,0,0,0,147.58,117.54Z"/><path class="cls-25" d="M148.81,116.28a10.7,10.7,0,0,0-3.09-.43c-0.11,0-.12,0,0,0.08a10.65,10.65,0,0,0,3,.8,0.91,0.91,0,0,0,.6-0.12A1,1,0,0,0,148.81,116.28Z"/><path class="cls-25" d="M147.69,119.44a7.45,7.45,0,0,0-2.18-1.42c-0.09,0-.12,0-0.07.05a6.77,6.77,0,0,0,1.87,1.68,0.88,0.88,0,0,0,.55.12A0.55,0.55,0,0,0,147.69,119.44Z"/><path class="cls-25" d="M143.35,121.75a11.38,11.38,0,0,0-1.17-3.41c-0.06-.12-0.11-0.11-0.1,0a10.9,10.9,0,0,0,.69,3.49,1.12,1.12,0,0,0,.46.57A0.94,0.94,0,0,0,143.35,121.75Z"/><path class="cls-25" d="M145.06,121.38a10.7,10.7,0,0,0-1.63-2.66c-0.07-.09-0.11-0.07-0.07,0a10.65,10.65,0,0,0,1.3,2.84,0.91,0.91,0,0,0,.47.38A1,1,0,0,0,145.06,121.38Z"/><path class="cls-25" d="M141.91,122.53a7.45,7.45,0,0,0-.28-2.59c0-.1-0.07-0.1-0.08,0a6.77,6.77,0,0,0-.1,2.51,0.88,0.88,0,0,0,.26.51A0.55,0.55,0,0,0,141.91,122.53Z"/><path class="cls-25" d="M148,112.36a11.38,11.38,0,0,1-3.52.8c-0.13,0-.15,0,0-0.1a10.9,10.9,0,0,1,3.34-1.24,1.12,1.12,0,0,1,.73.09A0.94,0.94,0,0,1,148,112.36Z"/><path class="cls-25" d="M149,113.78a10.7,10.7,0,0,1-3.12,0c-0.11,0-.12-0.05,0-0.08a10.65,10.65,0,0,1,3.1-.39,0.91,0.91,0,0,1,.57.2A1,1,0,0,1,149,113.78Z"/><path class="cls-26" d="M139.34,143.68a1.4,1.4,0,0,1-.08.54c-0.47,1.29-2.95,1.5-3.08,1.1a0.47,0.47,0,0,1,.23-0.4,3.25,3.25,0,0,1-1.56,0,1.61,1.61,0,0,1-1.07-.64,0.62,0.62,0,0,1,.52-0.2,3.73,3.73,0,0,1-.84-0.34c-0.48-.27-1.21-0.81-1.12-1.11a0.48,0.48,0,0,1,.47-0.22,2.81,2.81,0,0,1-1.15-1,1.5,1.5,0,0,1-.38-1.13,0.64,0.64,0,0,1,.63.06,3.17,3.17,0,0,1-.64-1,2,2,0,0,1-.16-1.44c0.07,0,.2,0,0.48.35a4.78,4.78,0,0,1-.15-1.06c0-.15,0-1.28.27-1.36,0.08,0,.19,0,0.39.29,0-1.47.21-2.55,0.63-2.65a1.31,1.31,0,0,1,.87.55,2.08,2.08,0,0,1,.41.8,0.94,0.94,0,0,1,.32-0.92c0.36-.14.93,0.65,1.19,1.16a3.67,3.67,0,0,1,.31.82,0.9,0.9,0,0,1,.43-0.64,1.22,1.22,0,0,1,1,.73,3.14,3.14,0,0,1,.48,1.1,0.66,0.66,0,0,1,.34-0.59c0.35-.08.78,0.89,0.88,1.12a4.72,4.72,0,0,1,.36,1.35c0.16-.59.31-0.66,0.39-0.67a1.61,1.61,0,0,1,.58,1.2,3.67,3.67,0,0,1-.07,1.55,0.67,0.67,0,0,1,.6-0.25,1.79,1.79,0,0,1-.13,1.59A2.8,2.8,0,0,1,139.34,143.68Z"/><path class="cls-27" d="M138,144a3.83,3.83,0,0,1-2.65.2c-2.08-.66-2.78-3.18-3-3.92a8.2,8.2,0,0,1,0-4.29c0.1,0.9.74,5.66,4.08,7.46A5.57,5.57,0,0,0,138,144Z"/><path class="cls-28" d="M139.07,143.35a4.3,4.3,0,0,1-1.37-.22c-3.49-1.16-4.42-6.57-4.52-7.24,0.83,0.39,6,2.88,6,6.64A4.19,4.19,0,0,1,139.07,143.35Z"/><path class="cls-19" d="M141.47,142.87a0,0,0,0,1,0,0,4.07,4.07,0,0,1-2.07,1,3.74,3.74,0,0,1-2-.28h0a2.29,2.29,0,0,1-.61.27,2.24,2.24,0,0,1-1.39-.08,2.67,2.67,0,0,0,1.12,0,2.79,2.79,0,0,0,.62-0.23,0,0,0,0,0,0-.06c-0.15-.08-0.32-0.18-0.48-0.29a6.25,6.25,0,0,1-.64-0.48h0a3.26,3.26,0,0,1-1.39-.19,3.4,3.4,0,0,1-1-.57s0-.07,0-0.05a4.07,4.07,0,0,0,1.06.45,4,4,0,0,0,.92.13,0,0,0,0,0,0-.06,5,5,0,0,1-.57-0.58,5.25,5.25,0,0,1-.56-0.82h0a3.15,3.15,0,0,1-1.35-.64,3.48,3.48,0,0,1-.76-0.87s0-.07,0,0a3.42,3.42,0,0,0,1.14.92,3.1,3.1,0,0,0,.61.22,0,0,0,0,0,0,0,10.05,10.05,0,0,1-1-2.3,11,11,0,0,1-.43-4.15,0,0,0,1,1,.06,0,14.82,14.82,0,0,0,.39,2.92,14.21,14.21,0,0,0,.82,2.46,0,0,0,0,0,.06,0,7.58,7.58,0,0,1,.27-2.71,0,0,0,1,1,.06,0,9,9,0,0,0-.12,1.12,6,6,0,0,0,.34,2.73,4.29,4.29,0,0,0,1.29,1.69,0,0,0,0,0,0,0,5.45,5.45,0,0,1-.23-1.44,5.62,5.62,0,0,1,.25-1.81,0,0,0,1,1,.06,0,8.59,8.59,0,0,0-.07,1.91,8.36,8.36,0,0,0,.26,1.55v0a4.67,4.67,0,0,0,.72.56,4.49,4.49,0,0,0,.61.32,0,0,0,0,0,0,0,3.31,3.31,0,0,1-.18-0.81,3.48,3.48,0,0,1,.12-1.3,0,0,0,1,1,.06,0,4.91,4.91,0,0,0,0,1.33,4.69,4.69,0,0,0,.23.89l0,0a3.49,3.49,0,0,0,1.75.13,3.85,3.85,0,0,0,1.88-1,0,0,0,0,1,0,0v0.25Z"/><path class="cls-16" d="M150.09,142.18a0.8,0.8,0,0,0-.78-0.12,3.86,3.86,0,0,0,1.09-1c0.44-.61.82-1.5,0.64-1.67s-0.24,0-.69.27a5.74,5.74,0,0,0,.51-1.23c0-.18.42-1.52,0.1-1.72-0.08-.05-0.24,0-0.56.23,0.5-1.75.54-3.12,0.07-3.37a1.6,1.6,0,0,0-1.22.39,2.6,2.6,0,0,0-.74.83c0.19-.95,0-1.15-0.1-1.2-0.38-.28-1.31.49-1.79,1a4.52,4.52,0,0,0-.62.88,1.11,1.11,0,0,0-.31-0.9c-0.4-.26-1.05.29-1.38,0.57a3.91,3.91,0,0,0-.92,1.16,0.8,0.8,0,0,0-.23-0.82c-0.4-.21-1.21.82-1.39,1.06a5.76,5.76,0,0,0-.85,1.5c0-.76-0.16-0.89-0.25-0.92-0.3-.11-0.82.71-1.07,1.26a4.46,4.46,0,0,0-.4,1.88,0.84,0.84,0,0,0-.64-0.49c-0.35.1-.47,1.16-0.34,1.95a3.38,3.38,0,0,0,.9,1.76l0.24,0.23c0,0.06,0,.14-0.06.22a1.68,1.68,0,0,0,0,.45c0.16,1.69,3.06,2.73,3.35,2.29a0.61,0.61,0,0,0-.15-0.55,4.09,4.09,0,0,0,1.89.44c0.6,0,1.46-.18,1.48-0.43a0.77,0.77,0,0,0-.55-0.41,4.7,4.7,0,0,0,1.12-.14c0.66-.17,1.71-0.59,1.69-1a0.59,0.59,0,0,0-.5-0.41,3.47,3.47,0,0,0,1.68-.79A1.86,1.86,0,0,0,150.09,142.18Z"/><path class="cls-29" d="M140.83,144.53a4.76,4.76,0,0,0,3.11,1.07c2.7-.14,4.32-2.93,4.8-3.75a10.15,10.15,0,0,0,1.3-5.15c-0.4,1-2.64,6.55-7.2,7.65A6.89,6.89,0,0,1,140.83,144.53Z"/><path class="cls-30" d="M139.78,143.38a5.32,5.32,0,0,0,1.71.17c4.54-.3,7.33-6.48,7.67-7.25-1.11.2-8.08,1.57-9.22,6.07A5.19,5.19,0,0,0,139.78,143.38Z"/><path class="cls-19" d="M149.09,140.84a0,0,0,0,0,0-.07,4.21,4.21,0,0,1-1.65.75,3.88,3.88,0,0,1-.8.08,0,0,0,0,1,0-.07,12.37,12.37,0,0,0,2-2.43,13.51,13.51,0,0,0,1.81-4.84,0,0,0,1,0-.07,0,18.37,18.37,0,0,1-1.38,3.38,17.66,17.66,0,0,1-1.75,2.68,0,0,0,0,1-.06,0,9.29,9.29,0,0,0,.51-3.33,0,0,0,1,0-.07,0,11.45,11.45,0,0,1-.21,1.38,7.38,7.38,0,0,1-1.26,3.16,5.34,5.34,0,0,1-2.07,1.62,0,0,0,0,1,0-.06,6.84,6.84,0,0,0,.73-1.66,6.94,6.94,0,0,0,.26-2.24,0,0,0,1,0-.07,0,10.52,10.52,0,0,1-.51,2.31,10.37,10.37,0,0,1-.8,1.78v0a6.05,6.05,0,0,1-1,.44,5.43,5.43,0,0,1-.83.19,0,0,0,0,1,0-.06,4.15,4.15,0,0,0,.47-0.92,4.27,4.27,0,0,0,.26-1.59,0,0,0,1,0-.07,0,6.1,6.1,0,0,1-.43,1.59,6,6,0,0,1-.55,1l0,0a4.37,4.37,0,0,1-2.14-.4l0,0,0.24,0.23c0,0.06,0,.14-0.06.22a4.6,4.6,0,0,0,2.47.28h0a2.85,2.85,0,0,0,.65.51,2.77,2.77,0,0,0,1.69.34,3.29,3.29,0,0,1-1.33-.39,3.36,3.36,0,0,1-.67-0.48,0,0,0,0,1,0-.07c0.21,0,.44-0.11.67-0.19a8.2,8.2,0,0,0,.92-0.37h0a4,4,0,0,0,1.73.21,4.14,4.14,0,0,0,1.36-.38s0-.09,0-0.08a4.84,4.84,0,0,1-2.55.07,0,0,0,0,1,0-.07,6.14,6.14,0,0,0,.86-0.52,6.26,6.26,0,0,0,.93-0.81h0a3.93,3.93,0,0,0,1.82-.35A4.25,4.25,0,0,0,149.09,140.84Z"/><path class="cls-25" d="M148.36,110.5a7.45,7.45,0,0,1-2.35,1.12c-0.09,0-.12,0-0.06-0.06a6.77,6.77,0,0,1,2.08-1.41,0.88,0.88,0,0,1,.56,0A0.55,0.55,0,0,1,148.36,110.5Z"/><path class="cls-25" d="M137.15,121.44a11.38,11.38,0,0,1,1.85-3.1c0.08-.1.13-0.09,0.1,0a10.9,10.9,0,0,1-1.4,3.27,1.12,1.12,0,0,1-.57.47A0.94,0.94,0,0,1,137.15,121.44Z"/><path class="cls-25" d="M135.55,120.73a10.7,10.7,0,0,1,2.14-2.27c0.09-.07.12,0,0.06,0.05a10.65,10.65,0,0,1-1.85,2.52,0.91,0.91,0,0,1-.54.28A1,1,0,0,1,135.55,120.73Z"/><path class="cls-25" d="M138.4,122.5a7.45,7.45,0,0,1,.81-2.47c0-.09.09-0.09,0.09,0a6.77,6.77,0,0,1-.41,2.48,0.88,0.88,0,0,1-.35.44A0.55,0.55,0,0,1,138.4,122.5Z"/><path class="cls-31" d="M132.48,43.31l-0.7,0h-0.13l-1,0-3.06.18-0.17-3.12L127,33.12q-0.18-3.29-.36-6.59a0.84,0.84,0,0,1,.71-0.88c0.51-.07,1-0.12,1.62-0.16s1.13,0,1.64,0h0.08a0.83,0.83,0,0,1,.8.79l0.07,1.34Z"/><path class="cls-5" d="M131.54,26.26l0.07,1.33c-0.45.69-1,1.41-1.53,2.15a31.64,31.64,0,0,1-3,3.38l-0.36-6.59a0.83,0.83,0,0,1,.71-0.88c0.5-.07,1-0.13,1.62-0.16s1.18,0,1.72,0A0.83,0.83,0,0,1,131.54,26.26Z"/><path class="cls-5" d="M132.43,42.46c-0.21.29-.42,0.58-0.65,0.88h-0.13l-1,0-3.06.18-0.17-3.12c0.81-.82,1.66-1.76,2.5-2.78l0.38-.47c0.32-.39.62-0.78,0.91-1.16L132,35Z"/><path class="cls-32" d="M131.64,43.35l-1,0-0.35-6.19-0.4-7.27h0l-0.25-4.45h1l0.18,3.26h0L131.24,36Z"/><path class="cls-33" d="M154.3,156.16c0,0.58-.06,1.16-0.08,1.75A2,2,0,0,1,152.4,160l-3,0a0.81,0.81,0,0,0,.49-0.51c0-.35-1.11-0.5-4.51-0.55l-2.84,0c-6.29,0-7.9.15-7.94,0.59a0.73,0.73,0,0,0,.43.48H131.8a1.75,1.75,0,0,1-1.58-1.78l-0.12-2.11a57.78,57.78,0,0,0,12.38,1.3c1,0,2,0,2.89-.09A58.12,58.12,0,0,0,154.3,156.16Z"/><path class="cls-26" d="M156.67,43.12a1.87,1.87,0,0,0,.3-0.67c0.38-1.8-2.3-3.82-2.73-3.47a0.63,0.63,0,0,0,0,.61,4.42,4.42,0,0,0-1.82-1.07c-0.63-.18-1.57-0.29-1.68,0a0.84,0.84,0,0,0,.44.6,5.05,5.05,0,0,0-1.2-.22c-0.74,0-2,0-2.07.45a0.64,0.64,0,0,0,.38.58,3.78,3.78,0,0,0-2,.26c-0.47.2-1.29,0.67-1.25,1a0.87,0.87,0,0,0,.77.39,4.24,4.24,0,0,0-1.46.7c-0.65.48-1.34,1.28-1.2,1.52,0.05,0.09.23,0.13,0.8-.06a6.37,6.37,0,0,0-.92,1.1c-0.11.17-.94,1.43-0.67,1.74,0.07,0.08.24,0.12,0.65-.06-1.09,1.64-1.57,3-1.17,3.46a1.77,1.77,0,0,0,1.39,0,2.78,2.78,0,0,0,1-.62c-0.5.92-.33,1.21-0.28,1.28,0.3,0.42,1.52-.07,2.19-0.46a4.9,4.9,0,0,0,.93-0.71,1.21,1.21,0,0,0,0,1c0.34,0.4,1.19,0,1.62-.14a4.2,4.2,0,0,0,1.33-.9,0.89,0.89,0,0,0,0,.92c0.35,0.35,1.53-.46,1.8-0.64a6.3,6.3,0,0,0,1.37-1.28c-0.24.79-.12,1,0,1,0.28,0.21,1.09-.47,1.52-0.95a4.89,4.89,0,0,0,1-1.82,0.9,0.9,0,0,0,.51.72c0.4,0,.87-1,1-1.9A3.76,3.76,0,0,0,156.67,43.12Z"/><path class="cls-34" d="M155.41,41.79a5.2,5.2,0,0,0-2.88-2.13c-2.85-.74-5.45,1.61-6.21,2.31a10.93,10.93,0,0,0-3,4.89c0.76-.94,4.87-5.9,10-5.54A7.55,7.55,0,0,1,155.41,41.79Z"/><path class="cls-35" d="M156.12,43.32a5.84,5.84,0,0,0-1.72-.73c-4.81-1.18-9.73,4.29-10.33,5,1.22,0.15,8.9,1,11.56-3.25A5.59,5.59,0,0,0,156.12,43.32Z"/><path class="cls-19" d="M158.52,45.58a0,0,0,0,0,0,0A5.51,5.51,0,0,0,156.86,43a5.08,5.08,0,0,0-2.53-1.15l0,0a3.1,3.1,0,0,0-.51-0.74,3,3,0,0,0-1.64-.9,3.63,3.63,0,0,1,1.25.84,3.78,3.78,0,0,1,.54.71,0,0,0,0,1,0,.07c-0.23,0-.49,0-0.76,0a8.43,8.43,0,0,0-1.08.09h0a4.42,4.42,0,0,0-1.73-.78,4.59,4.59,0,0,0-1.54-.06s-0.05.08,0,.09a5.51,5.51,0,0,1,1.53.25,5.39,5.39,0,0,1,1.14.51,0,0,0,0,1,0,.08,6.68,6.68,0,0,0-1.06.25,7,7,0,0,0-1.23.53h0a4.26,4.26,0,0,0-2-.24,4.67,4.67,0,0,0-1.49.44s0,0.1,0,.08a4.61,4.61,0,0,1,2-.23,4.2,4.2,0,0,1,.86.19,0,0,0,0,1,0,.08,13.44,13.44,0,0,0-2.83,1.87,14.63,14.63,0,0,0-3.46,4.41,0,0,0,1,0,.07,0,19.75,19.75,0,0,1,2.53-3,19,19,0,0,1,2.69-2.2,0,0,0,0,1,.05.06,10.11,10.11,0,0,0-1.62,3.27,0,0,0,1,0,.08,0,12,12,0,0,1,.66-1.35A8,8,0,0,1,149,43.23a5.76,5.76,0,0,1,2.67-1,0,0,0,0,1,0,.08,7.26,7.26,0,0,0-1.3,1.47,7.49,7.49,0,0,0-1,2.23,0,0,0,1,0,.07,0,11.44,11.44,0,0,1,1.28-2.22,11.14,11.14,0,0,1,1.41-1.57h0a6.3,6.3,0,0,1,1.22-.11,6.07,6.07,0,0,1,.92.08,0,0,0,0,1,0,.08,4.41,4.41,0,0,0-.79.79,4.64,4.64,0,0,0-.79,1.56,0,0,0,1,0,.07,0,6.54,6.54,0,0,1,1-1.5,6.26,6.26,0,0,1,.9-0.85h0a4.74,4.74,0,0,1,2.09,1.11,5.2,5.2,0,0,1,1.46,2.45,0,0,0,0,0,.07,0Z"/><ellipse class="cls-36" cx="151.51" cy="127.56" rx="1.65" ry="1.6" transform="translate(-46.27 117.11) rotate(-37.07)"/><ellipse class="cls-37" cx="150.11" cy="141.67" rx="1.31" ry="1.27" transform="translate(-33.72 235.54) rotate(-70.4)"/><ellipse class="cls-38" cx="147.65" cy="135.78" rx="1.7" ry="1.68" transform="translate(-29.8 229.31) rotate(-70.4)"/><ellipse class="cls-39" cx="152.52" cy="126.54" rx="0.86" ry="0.84" transform="translate(-45.45 117.51) rotate(-37.07)"/><ellipse class="cls-40" cx="146.33" cy="136.67" rx="0.9" ry="0.89" transform="translate(-31.52 228.66) rotate(-70.4)"/><rect class="cls-41" x="140.24" y="54.74" width="12.89" height="12.37" rx="3.56" ry="3.56" transform="translate(34.56 -51.58) rotate(22.54)"/><rect class="cls-42" x="140.07" y="55.59" width="11.74" height="11.26" rx="3.31" ry="3.31" transform="translate(34.62 -51.27) rotate(22.54)"/><path class="cls-43" d="M142.13,55.09a1.39,1.39,0,0,1,1.87-.77l8.2,3.4a1.58,1.58,0,0,1,.85,1,1.46,1.46,0,0,1-.07.85l-3.22,7.76a1.43,1.43,0,0,1-.71.77,1.45,1.45,0,0,1-1.16,0,1.51,1.51,0,0,0,1.09-.41,1.41,1.41,0,0,0,.35-0.58l3.18-7.67a1.35,1.35,0,0,0-.53-1.36l-8-3.37a1.39,1.39,0,0,0-.74-0.2A1.5,1.5,0,0,0,142.13,55.09Z"/><rect class="cls-44" x="143.69" y="65.32" width="13.01" height="12.48" rx="3.56" ry="3.56" transform="translate(-15.76 83.31) rotate(-29.53)"/><rect class="cls-45" x="144.04" y="66.66" width="11.85" height="11.37" rx="3.31" ry="3.31" transform="translate(-16.18 83.3) rotate(-29.53)"/><path class="cls-43" d="M142.72,71.57a1.4,1.4,0,0,1,.55-2l7.79-4.41a1.59,1.59,0,0,1,1.34,0,1.47,1.47,0,0,1,.63.58l4.18,7.37a1.44,1.44,0,0,1,.17,1,1.46,1.46,0,0,1-.71.93A1.53,1.53,0,0,0,157,74a1.42,1.42,0,0,0-.25-0.64L152.62,66a1.36,1.36,0,0,0-1.41-.42l-7.65,4.28a1.4,1.4,0,0,0-.62.47A1.51,1.51,0,0,0,142.72,71.57Z"/><path class="cls-4" d="M130,77a13.23,13.23,0,0,0,2.69,14.64l0.28-.27,0.66-.64L150.89,74l0.66-.64,0.15-.14A13.22,13.22,0,0,0,130,77Z"/><path class="cls-5" d="M130.28,76.93A12.93,12.93,0,0,0,133,91.32l0.66-.64L150.89,74l0.66-.64A12.92,12.92,0,0,0,130.28,76.93Z"/><path class="cls-6" d="M146.95,71.15A11.94,11.94,0,0,1,150.89,74L133.66,90.68A12,12,0,0,1,146.95,71.15Z"/><path class="cls-7" d="M131.75,81.7a0.51,0.51,0,0,1-.5-0.52A8.5,8.5,0,0,1,134,75a0.51,0.51,0,0,1,.7,0l6.56,6.59a0.18,0.18,0,0,1-.13.31Z"/><path class="cls-7" d="M142.45,72a0.51,0.51,0,0,1,.52-0.5,8.46,8.46,0,0,1,6.18,2.73,0.51,0.51,0,0,1,0,.7l-6.6,6.58a0.18,0.18,0,0,1-.31-0.13Z"/><path class="cls-7" d="M135.07,74.66a0.51,0.51,0,0,1,0-.72,8.48,8.48,0,0,1,6.31-2.44,0.51,0.51,0,0,1,.48.51l0,9.32a0.18,0.18,0,0,1-.31.12Z"/><path class="cls-7" d="M134.44,89.06a0.51,0.51,0,0,1-.72,0,8.48,8.48,0,0,1-2.43-6.31,0.51,0.51,0,0,1,.51-0.48h9.3a0.18,0.18,0,0,1,.12.31Z"/><path class="cls-6" d="M139.06,83.67a1.8,1.8,0,0,0,1.43-.93,0.09,0.09,0,0,0-.06-0.15,1.78,1.78,0,0,0-1.69.26A0.47,0.47,0,0,0,139.06,83.67Z"/><path class="cls-6" d="M141.25,79.09a1.8,1.8,0,0,1,.28,1.69,0.09,0.09,0,0,1-.15.06,1.78,1.78,0,0,1-.95-1.42A0.47,0.47,0,0,1,141.25,79.09Z"/><path class="cls-8" d="M134.33,79.06a12.66,12.66,0,0,0,3.84,1.19c0.15,0,.17,0,0.05-0.1a12.13,12.13,0,0,0-3.59-1.67,1.24,1.24,0,0,0-.82,0A1,1,0,0,0,134.33,79.06Z"/><path class="cls-8" d="M133,80.54a11.9,11.9,0,0,0,3.46.28c0.13,0,.13-0.05,0-0.09a11.85,11.85,0,0,0-3.4-.7,1,1,0,0,0-.65.17A1.07,1.07,0,0,0,133,80.54Z"/><path class="cls-8" d="M134.09,77a8.29,8.29,0,0,0,2.51,1.44c0.1,0,.14,0,0.07-0.06a7.53,7.53,0,0,0-2.19-1.74,1,1,0,0,0-.62-0.1A0.61,0.61,0,0,0,134.09,77Z"/><path class="cls-8" d="M138.76,74.12a12.66,12.66,0,0,0,1.52,3.72c0.07,0.13.13,0.12,0.11,0a12.13,12.13,0,0,0-1-3.83,1.24,1.24,0,0,0-.55-0.61A1,1,0,0,0,138.76,74.12Z"/><path class="cls-8" d="M136.89,74.64a11.9,11.9,0,0,0,2,2.85c0.08,0.09.12,0.07,0.08,0a11.85,11.85,0,0,0-1.62-3.07,1,1,0,0,0-.55-0.4A1.07,1.07,0,0,0,136.89,74.64Z"/><path class="cls-8" d="M140.32,73.16A8.29,8.29,0,0,0,140.8,76c0,0.1.08,0.11,0.09,0a7.53,7.53,0,0,0,0-2.8,1,1,0,0,0-.32-0.55A0.61,0.61,0,0,0,140.32,73.16Z"/><path class="cls-8" d="M134.21,84.84a12.66,12.66,0,0,1,3.86-1.11c0.15,0,.17,0,0.05.1a12.13,12.13,0,0,1-3.63,1.59,1.24,1.24,0,0,1-.82-0.06A1,1,0,0,1,134.21,84.84Z"/><path class="cls-8" d="M133,83.33a11.9,11.9,0,0,1,3.47-.21c0.13,0,.13.05,0,0.09a11.85,11.85,0,0,1-3.42.63,1,1,0,0,1-.65-0.18A1.07,1.07,0,0,1,133,83.33Z"/><path class="cls-8" d="M133.92,86.94a8.29,8.29,0,0,1,2.54-1.39c0.1,0,.14,0,0.07.07a7.53,7.53,0,0,1-2.22,1.7,1,1,0,0,1-.62.09A0.61,0.61,0,0,1,133.92,86.94Z"/><path class="cls-8" d="M145.68,74.06a12.66,12.66,0,0,1-1.85,3.56c-0.08.12-.14,0.1-0.11,0a12.13,12.13,0,0,1,1.34-3.73,1.24,1.24,0,0,1,.61-0.56A1,1,0,0,1,145.68,74.06Z"/><path class="cls-8" d="M147.5,74.75a11.9,11.9,0,0,1-2.23,2.66c-0.09.09-.13,0.06-0.07-0.05a11.85,11.85,0,0,1,1.9-2.91,1,1,0,0,1,.58-0.35A1.07,1.07,0,0,1,147.5,74.75Z"/><path class="cls-8" d="M144.22,73a8.29,8.29,0,0,1-.74,2.8c0,0.1-.09.1-0.1,0a7.53,7.53,0,0,1,.3-2.78,1,1,0,0,1,.37-0.51A0.61,0.61,0,0,1,144.22,73Z"/><rect class="cls-41" x="142.99" y="92.81" width="12.4" height="11.89" rx="3.56" ry="3.56" transform="translate(49.26 -49.65) rotate(22.54)"/><rect class="cls-46" x="142.83" y="93.62" width="11.28" height="10.83" rx="3.31" ry="3.31" transform="translate(49.31 -49.35) rotate(22.54)"/><path class="cls-43" d="M144.8,93.15a1.34,1.34,0,0,1,1.8-.74l7.88,3.27a1.51,1.51,0,0,1,.82,1,1.4,1.4,0,0,1-.07.81l-3.1,7.46a1.37,1.37,0,0,1-.68.74,1.39,1.39,0,0,1-1.12,0,1.45,1.45,0,0,0,1-.4,1.35,1.35,0,0,0,.33-0.56l3.06-7.37a1.3,1.3,0,0,0-.51-1.31l-7.69-3.24a1.34,1.34,0,0,0-.71-0.19A1.44,1.44,0,0,0,144.8,93.15Z"/><path class="cls-16" d="M154.38,91.09A0.8,0.8,0,0,0,153.6,91a3.86,3.86,0,0,0,1.09-1c0.44-.61.82-1.5,0.64-1.67s-0.24,0-.69.27a5.74,5.74,0,0,0,.51-1.23c0-.18.42-1.52,0.1-1.72-0.08-.05-0.24,0-0.56.23,0.5-1.75.54-3.12,0.07-3.37a1.6,1.6,0,0,0-1.22.39,2.6,2.6,0,0,0-.74.83c0.19-.95,0-1.15-0.1-1.2-0.38-.28-1.31.49-1.79,1a4.52,4.52,0,0,0-.62.88,1.11,1.11,0,0,0-.31-0.9c-0.4-.26-1.05.29-1.38,0.57a3.91,3.91,0,0,0-.92,1.16,0.8,0.8,0,0,0-.23-0.82c-0.4-.21-1.21.82-1.39,1.06a5.76,5.76,0,0,0-.85,1.5c0-.76-0.16-0.89-0.25-0.92-0.3-.11-0.82.71-1.07,1.26a4.46,4.46,0,0,0-.4,1.88,0.84,0.84,0,0,0-.64-0.49c-0.35.1-.47,1.16-0.34,1.95a3.38,3.38,0,0,0,.9,1.76l0.24,0.23c0,0.06,0,.14-0.06.22a1.68,1.68,0,0,0,0,.45c0.16,1.69,3.06,2.73,3.35,2.29a0.61,0.61,0,0,0-.15-0.55,4.09,4.09,0,0,0,1.89.44c0.6,0,1.46-.18,1.48-0.43a0.77,0.77,0,0,0-.55-0.41,4.7,4.7,0,0,0,1.12-.14c0.66-.17,1.71-0.59,1.69-1a0.59,0.59,0,0,0-.5-0.41,3.47,3.47,0,0,0,1.68-.79A1.86,1.86,0,0,0,154.38,91.09Z"/><path class="cls-47" d="M145.12,93.43a4.76,4.76,0,0,0,3.11,1.07c2.7-.14,4.32-2.93,4.8-3.75a10.15,10.15,0,0,0,1.3-5.15c-0.4,1-2.64,6.55-7.2,7.65A6.89,6.89,0,0,1,145.12,93.43Z"/><path class="cls-48" d="M144.07,92.29a5.32,5.32,0,0,0,1.71.17c4.54-.3,7.33-6.48,7.67-7.25-1.11.2-8.08,1.57-9.22,6.07A5.19,5.19,0,0,0,144.07,92.29Z"/><path class="cls-19" d="M153.38,89.75a0,0,0,0,0,0-.07,4.21,4.21,0,0,1-1.65.75,3.88,3.88,0,0,1-.8.08,0,0,0,0,1,0-.07,12.37,12.37,0,0,0,2-2.43,13.51,13.51,0,0,0,1.81-4.84,0,0,0,1,0-.07,0,18.37,18.37,0,0,1-1.38,3.38,17.66,17.66,0,0,1-1.75,2.68,0,0,0,0,1-.06,0,9.29,9.29,0,0,0,.51-3.33,0,0,0,1,0-.07,0,11.45,11.45,0,0,1-.21,1.38,7.38,7.38,0,0,1-1.26,3.16A5.34,5.34,0,0,1,148.28,92a0,0,0,0,1,0-.06,6.84,6.84,0,0,0,.73-1.66,6.94,6.94,0,0,0,.26-2.24,0,0,0,1,0-.07,0,10.52,10.52,0,0,1-.51,2.31,10.37,10.37,0,0,1-.8,1.78v0a6.05,6.05,0,0,1-1,.44,5.42,5.42,0,0,1-.83.19,0,0,0,0,1,0-.06,4.15,4.15,0,0,0,.47-0.92,4.27,4.27,0,0,0,.26-1.59,0,0,0,1,0-.07,0,6.1,6.1,0,0,1-.43,1.59,6,6,0,0,1-.55,1l0,0a4.37,4.37,0,0,1-2.14-.4l0,0,0.24,0.23c0,0.06,0,.14-0.06.22a4.6,4.6,0,0,0,2.47.28h0a2.85,2.85,0,0,0,.65.51,2.77,2.77,0,0,0,1.69.34,3.29,3.29,0,0,1-1.33-.39,3.36,3.36,0,0,1-.67-0.48,0,0,0,0,1,0-.07c0.21,0,.44-0.11.67-0.19a8.2,8.2,0,0,0,.92-0.37h0a4,4,0,0,0,1.73.21,4.14,4.14,0,0,0,1.36-.38s0-.09,0-0.08a4.84,4.84,0,0,1-2.55.07,0,0,0,0,1,0-.07,6.14,6.14,0,0,0,.86-0.52,6.26,6.26,0,0,0,.93-0.81h0a3.93,3.93,0,0,0,1.82-.35A4.25,4.25,0,0,0,153.38,89.75Z"/><ellipse class="cls-49" cx="153.2" cy="121.32" rx="1.15" ry="1.11" transform="translate(-12.49 224.93) rotate(-70.4)"/><path class="cls-26" d="M142.65,101.91a2.94,2.94,0,0,1-1.11,1.3l-0.25.15c0,0.06,0,.12,0,0.2a1.9,1.9,0,0,1-.08.4c-0.5,1.4-3.09,1.66-3.23,1.22a0.53,0.53,0,0,1,.24-0.43,3.27,3.27,0,0,1-1.63,0,3.87,3.87,0,0,1-.74-0.31l0-.58,0.2,0-0.2-.06,0-.6-0.07-1.33v-0.17l-0.08-1.37h0l0-.35,0-.56-0.05-1-0.06-1-0.12-2.2-0.13-2.41,0.14,0.16a2.36,2.36,0,0,1,.42.88,1.06,1.06,0,0,1,.35-1c0.37-.16,1,0.7,1.24,1.25a4.1,4.1,0,0,1,.31.89,1,1,0,0,1,.45-0.7c0.38-.13.79,0.48,1,0.79a3.39,3.39,0,0,1,.5,1.19,0.71,0.71,0,0,1,.36-0.65c0.37-.09.81,1,0.91,1.21a5.51,5.51,0,0,1,.36,1.47c0.17-.65.33-0.73,0.41-0.74,0.27,0,.51.79,0.6,1.31a4.19,4.19,0,0,1-.08,1.69,0.69,0.69,0,0,1,.63-0.28C143.06,100.34,142.93,101.27,142.65,101.91Z"/><path class="cls-50" d="M135.72,101.8l0.07,1.33a3.41,3.41,0,0,0,1.37.85,3.87,3.87,0,0,0,2.76-.23,5.1,5.1,0,0,1-1-.32h0l-0.26-.11-0.32-.17a5.84,5.84,0,0,1-1.19-.88l-0.29-.3a8,8,0,0,1-1.22-1.73l0.08,1.37v0.17Z"/><path class="cls-51" d="M141.12,102.1a4.69,4.69,0,0,1-.09.9,4.37,4.37,0,0,1-1.43-.23h0l-0.23-.09a4.63,4.63,0,0,1-1.42-.95,3.75,3.75,0,0,1-.3-0.3,9,9,0,0,1-1.59-2.6c-0.11-.25-0.21-0.49-0.3-0.74s-0.18-.53-0.26-0.78l-0.12-2.2C136.88,95.91,141.15,98.45,141.12,102.1Z"/><path class="cls-19" d="M143.53,102.19v0.27a0,0,0,0,1,0,0,4.22,4.22,0,0,1-2.17,1.07h-0.06a3.72,3.72,0,0,1-2.07-.3h0a1.91,1.91,0,0,1-.28.16h0a1.79,1.79,0,0,1-.35.14,2.24,2.24,0,0,1-1.45-.08,2.71,2.71,0,0,0,1.16,0,2.19,2.19,0,0,0,.37-0.13,2.26,2.26,0,0,0,.28-0.13,0,0,0,0,0,0-.06,5.16,5.16,0,0,1-.5-0.31,6.52,6.52,0,0,1-.67-0.52h0a3.4,3.4,0,0,1-1.45-.2,3.67,3.67,0,0,1-.57-0.28v-0.17a4.15,4.15,0,0,0,.69.26l0.45,0.09a4.48,4.48,0,0,0,.51,0,0,0,0,0,0,0-.07,5.44,5.44,0,0,1-.59-0.62,5.71,5.71,0,0,1-.58-0.9h0a3.76,3.76,0,0,1-.56-0.17h0l0-.35,0.25,0.08a0,0,0,0,0,0-.05q-0.16-.27-0.32-0.59l-0.05-1c0.05,0.14.11,0.28,0.16,0.41s0.06,0,.06,0c0-.2,0-0.41,0-0.64A8.6,8.6,0,0,1,135.8,97a7.49,7.49,0,0,1,.25-1.18,0,0,0,1,1,.06,0A10.74,10.74,0,0,0,136,97a9.16,9.16,0,0,0,0,1.82,4.92,4.92,0,0,0,.3,1.16,4.63,4.63,0,0,0,1.34,1.83s0.06,0,.05,0-0.06-.23-0.09-0.36a6.54,6.54,0,0,1-.14-1.21,6.43,6.43,0,0,1,.27-2,0,0,0,1,1,.06,0,9.71,9.71,0,0,0-.09,2.08,8.36,8.36,0,0,0,.2,1.39c0,0.11,0,.21.07,0.31v0a4.66,4.66,0,0,0,.75.6,5.27,5.27,0,0,0,.64.35s0.05,0,0-.05a2.7,2.7,0,0,1-.08-0.27,3.39,3.39,0,0,1-.11-0.61,4.08,4.08,0,0,1,.13-1.42s0.07,0,.06,0a5.75,5.75,0,0,0,0,1.45,4.79,4.79,0,0,0,.13.65l0.1,0.32a0,0,0,0,0,0,0,3.5,3.5,0,0,0,1.83.12h0a4,4,0,0,0,1.93-1A0,0,0,0,1,143.53,102.19Z"/><path class="cls-52" d="M136.14,101.8v-0.17m0.12,2.1v0.09l0,0.58"/><path class="cls-43" d="M136.66,54.7l-0.12-.08h0a1.54,1.54,0,0,0-1.07-.24,1.48,1.48,0,0,0-.66.29l-1.65,1,0-.59h0l1.45-.89a1.53,1.53,0,0,1,1.09-.21,1.51,1.51,0,0,1,1,.66Z"/><path class="cls-53" d="M159.92,56.38l-2.37,37.08-3,47.17a6.39,6.39,0,0,1-2.49,4.7,17.2,17.2,0,0,1-7.42,3.27,15.75,15.75,0,0,1-3,.23,16.61,16.61,0,0,1-9.47-3.21,7,7,0,0,1-2.87-5.31l-4.85-83.92c5.6-.44,11.65-0.71,18.1-0.7,4.27,0,8.38.13,12.28,0.35q2.54,0.14,5,.33h0.15Z"/><path class="cls-54" d="M159.71,56.42l-2.22,37.09-2.81,46.82a7.72,7.72,0,0,1-1.15,3.43,9.27,9.27,0,0,1-3.84,3.17,16.11,16.11,0,0,1-5.12,1.72l-0.77.11a13.83,13.83,0,0,0,6-6.23,13.3,13.3,0,0,0,1.25-5.15q1.83-40.65,3.66-81.29Q157.28,56.23,159.71,56.42Z"/><path class="cls-16" d="M167.88,52.54a1.09,1.09,0,0,1-1-.42,5.19,5.19,0,0,1,.51,1.95c0.07,1-.13,2.29-0.47,2.36-0.12,0-.31-0.12-0.59-0.8a7.67,7.67,0,0,1-.3,1.76c-0.07.24-.6,2-1.11,2-0.13,0-.3-0.12-0.47-0.66-0.68,2.35-1.61,3.93-2.32,3.88s-1.06-1.19-1.11-1.31a3.5,3.5,0,0,1-.25-1.48c-0.46,1.21-.87,1.28-1,1.29-0.64.05-1.15-1.5-1.32-2.43a6.06,6.06,0,0,1-.08-1.45,1.49,1.49,0,0,1-1,.8c-0.65,0-1-1.09-1.17-1.64a5.25,5.25,0,0,1-.22-2,1.07,1.07,0,0,1-.84.77c-0.6,0-.8-1.81-0.84-2.2a7.71,7.71,0,0,1,.1-2.32c-0.55.85-.82,0.9-0.95,0.86-0.42-.09-0.43-1.4-0.32-2.2a6,6,0,0,1,.89-2.42A1.13,1.13,0,0,1,153,47c-0.33-.37.29-1.66,1-2.46a4.53,4.53,0,0,1,2.29-1.35l0.43-.09c0-.08.06-0.18,0.09-0.3a2.23,2.23,0,0,1,.3-0.52c1.38-1.81,5.45-.9,5.46-0.2a0.81,0.81,0,0,1-.56.51,5.55,5.55,0,0,1,2.47.86c0.68,0.45,1.54,1.25,1.38,1.55a1,1,0,0,1-.93.07,6.38,6.38,0,0,1,1.18,1c0.64,0.66,1.53,1.89,1.24,2.31a0.8,0.8,0,0,1-.86.11,4.7,4.7,0,0,1,1.35,2.1C168,51.15,168.25,52.31,167.88,52.54Z"/><path class="cls-55" d="M159,43.23a6.44,6.44,0,0,1,4.32,1c3,2.09,2.85,6.43,2.81,7.71a13.54,13.54,0,0,1-2.18,6.78c0.28-1.47,1.65-9.33-2.78-13.86A9.35,9.35,0,0,0,159,43.23Z"/><path class="cls-56" d="M157,43.78a7.23,7.23,0,0,1,2.07,1c5,3.59,3.76,12.63,3.6,13.74-1.12-1-8.11-7.57-6.21-13.51A6.92,6.92,0,0,1,157,43.78Z"/><path class="cls-19" d="M165.78,53.35a0.05,0.05,0,0,1-.09,0,5.7,5.7,0,0,0-1.36-2,5.27,5.27,0,0,0-.86-0.66,0.05,0.05,0,0,0-.08.06,16.61,16.61,0,0,1,.51,4.17,18,18,0,0,1-1.38,6.8,0,0,0,1,1-.09,0,24.54,24.54,0,0,0,.84-4.83,23.66,23.66,0,0,0-.08-4.3,0.05,0.05,0,0,0-.1,0,12.38,12.38,0,0,1-1.79,4.15,0,0,0,0,1-.08-0.05A15.26,15.26,0,0,0,162,55a9.86,9.86,0,0,0,.81-4.5,7.2,7.2,0,0,0-1.21-3.32,0.05,0.05,0,0,0-.09,0,9.14,9.14,0,0,1-.35,2.41,9.25,9.25,0,0,1-1.3,2.73,0,0,0,1,1-.08-0.05,14,14,0,0,0,1.06-3,13.87,13.87,0,0,0,.36-2.59s0,0,0,0a8.2,8.2,0,0,0-.88-1.24,7.36,7.36,0,0,0-.81-0.81,0,0,0,0,0-.08,0,5.56,5.56,0,0,1-.11,1.38,5.69,5.69,0,0,1-.84,2,0,0,0,1,1-.08-0.05,8.14,8.14,0,0,0,.64-2.11,8,8,0,0,0,.08-1.53,0.05,0.05,0,0,0,0,0,5.93,5.93,0,0,0-2.73-1.08h-0.06l0.43-.09c0-.08.06-0.18,0.09-0.3a6.24,6.24,0,0,1,3,1.45h0a3.85,3.85,0,0,1,1.1-.11,3.76,3.76,0,0,1,2.17.82,4.46,4.46,0,0,0-1.8-.51,4.54,4.54,0,0,0-1.1.06,0.05,0.05,0,0,0,0,.09c0.21,0.21.42,0.44,0.63,0.7a11.1,11.1,0,0,1,.79,1.09l0,0a5.41,5.41,0,0,1,2.12,1,5.61,5.61,0,0,1,1.29,1.4c0,0.06,0,.12-0.08.07A6.57,6.57,0,0,0,162.11,47a0.05,0.05,0,0,0-.06.08,8.3,8.3,0,0,1,.61,1.2,8.44,8.44,0,0,1,.48,1.58,0,0,0,0,0,0,0,5.34,5.34,0,0,1,1.83,1.7A5.74,5.74,0,0,1,165.78,53.35Z"/><rect class="cls-57" x="130.66" y="104.66" width="12.89" height="12.37" rx="3.56" ry="3.56" transform="translate(52.97 -44.09) rotate(22.54)"/><rect class="cls-58" x="130.49" y="105.5" width="11.74" height="11.26" rx="3.31" ry="3.31" transform="translate(53.02 -43.79) rotate(22.54)"/><path class="cls-59" d="M132.55,105a1.39,1.39,0,0,1,1.87-.77l8.2,3.4a1.58,1.58,0,0,1,.85,1,1.46,1.46,0,0,1-.07.85l-3.22,7.76a1.43,1.43,0,0,1-.71.77,1.45,1.45,0,0,1-1.16,0,1.51,1.51,0,0,0,1.09-.41,1.41,1.41,0,0,0,.35-0.58l3.18-7.67a1.35,1.35,0,0,0-.53-1.36l-8-3.37a1.39,1.39,0,0,0-.74-0.2A1.5,1.5,0,0,0,132.55,105Z"/><path class="cls-41" d="M128.72,63.69l0.05,0.93,0.14,2.46-3.8-6.17a2,2,0,0,1,.65-2.73l2.57-1.58L128.41,58l0,0.59Z"/><path class="cls-60" d="M128.72,63.69l0.05,0.93-2.09-3.4a1.84,1.84,0,0,1,.61-2.54l1.12-.69,0,0.59Z"/><path class="cls-61" d="M140.81,65L140.7,65h0L133.9,69.2l-0.75-13.52,0-.59,1.17-.72a1.84,1.84,0,0,1,2.25.24h0a2.07,2.07,0,0,1,.29.36l4.5,7.32,0.07,0.12A1.85,1.85,0,0,1,140.81,65Z"/><path class="cls-43" d="M128.72,63.69l0.05,0.93-2.09-3.4-0.17-.28a1.67,1.67,0,0,1-.09-1.4,1.5,1.5,0,0,1,.59-0.68l0.28-.17,1.12-.69,0,0.59-1.11.69a1.48,1.48,0,0,0-.41.69,1.38,1.38,0,0,0,0,.81Z"/><ellipse class="cls-62" cx="155.92" cy="65.18" rx="1.36" ry="1.33" transform="translate(42.2 190.19) rotate(-70.4)"/><ellipse class="cls-63" cx="155.14" cy="79.85" rx="1.98" ry="1.92" transform="translate(27.86 199.2) rotate(-70.4)"/><ellipse class="cls-64" cx="152.14" cy="72.34" rx="2.23" ry="2.17" transform="translate(32.95 191.39) rotate(-70.4)"/><ellipse class="cls-65" cx="154.41" cy="60.15" rx="1.05" ry="1.02" transform="translate(45.94 185.42) rotate(-70.4)"/></svg>