<?xml version="1.0" encoding="utf-8"?>
<!-- Generator: Adobe Illustrator 19.2.1, SVG Export Plug-In . SVG Version: 6.00 Build 0)  -->
<svg version="1.1" id="Layer_1" xmlns="http://www.w3.org/2000/svg" xmlns:xlink="http://www.w3.org/1999/xlink" x="0px" y="0px"
	 viewBox="0 0 287.6 183.9" style="enable-background:new 0 0 287.6 183.9;" xml:space="preserve">
<style type="text/css">
	.st0{fill:url(#SVGID_1_);}
	.st1{fill:#BC7C66;}
	.st2{fill:#FEE2CA;}
	.st3{opacity:0.85;fill:url(#SVGID_2_);enable-background:new    ;}
	.st4{fill:#F4D4BD;}
	.st5{fill:url(#SVGID_3_);}
	.st6{opacity:0.95;fill:url(#SVGID_4_);enable-background:new    ;}
	.st7{fill:#E49025;}
	.st8{fill:#F5A31E;}
	.st9{fill:#F8DFC0;}
	.st10{fill:#F8B355;}
	.st11{fill:#FAF5AE;}
	.st12{fill:#F8C184;}
	.st13{opacity:0.46;fill:#FFFFFF;enable-background:new    ;}
	.st14{opacity:0.73;fill:url(#SVGID_5_);enable-background:new    ;}
	.st15{opacity:0.75;fill:#FFFFFF;enable-background:new    ;}
	.st16{opacity:0.5;fill:#FFFFFF;enable-background:new    ;}
	.st17{fill:url(#SVGID_6_);}
	.st18{opacity:0.94;fill:#DB2E2A;enable-background:new    ;}
	.st19{opacity:0.19;fill:#F4B5B5;enable-background:new    ;}
	.st20{fill:url(#SVGID_7_);}
	.st21{opacity:0.73;fill:url(#SVGID_8_);enable-background:new    ;}
	.st22{opacity:0.66;fill:url(#SVGID_9_);enable-background:new    ;}
	.st23{opacity:0.61;fill:#FFFFFF;enable-background:new    ;}
	.st24{opacity:0.64;fill:url(#SVGID_10_);enable-background:new    ;}
	.st25{fill:#AE6131;}
	.st26{opacity:0.55;fill:url(#SVGID_11_);enable-background:new    ;}
	.st27{opacity:0.38;fill:#FFF2EA;enable-background:new    ;}
	.st28{opacity:0.33;fill:#FFF2EA;enable-background:new    ;}
</style>
<title>old-fashioned</title>
<radialGradient id="SVGID_1_" cx="143.8" cy="93.33" r="120.6923" gradientTransform="matrix(1 0 0 -1 0 185.28)" gradientUnits="userSpaceOnUse">
	<stop  offset="8.348612e-02" style="stop-color:#E1BCA1"/>
	<stop  offset="0.2928" style="stop-color:#DCAF8F"/>
	<stop  offset="0.4943" style="stop-color:#CF9771"/>
	<stop  offset="0.7239" style="stop-color:#C98C63"/>
</radialGradient>
<rect y="0" class="st0" width="287.6" height="183.9"/>
<ellipse class="st1" cx="143.8" cy="127.2" rx="28.8" ry="5.9"/>
<path class="st2" d="M169.9,64.8c0.9,0,1.7,0.8,1.7,1.7c0,0.1,0,0.1,0,0.2c-2,19.5-4,39-5.9,58.5c-0.1,0.9-0.8,1.6-1.7,1.8
	c-6.9,0.8-13.8,1.2-20.7,1.1c-6.7,0-13.3-0.4-19.9-1.1c-0.8-0.1-1.4-0.7-1.4-1.5l-5.5-58.8c-0.1-0.9,0.6-1.7,1.5-1.8h0.1L169.9,64.8
	L169.9,64.8z"/>
<linearGradient id="SVGID_2_" gradientUnits="userSpaceOnUse" x1="121.4" y1="905.531" x2="158.37" y2="905.531" gradientTransform="matrix(1 0 0 1 0 -820)">
	<stop  offset="0.95" style="stop-color:#F29E20"/>
	<stop  offset="1" style="stop-color:#FAA31C"/>
</linearGradient>
<path class="st3" d="M121.4,85.7c4.1-3.6,7.6-4.5,10-4.6c6.2-0.4,9.3,4.2,16.7,4.8c3.5,0.3,7-0.3,10.2-1.7c-1,0.9-2,1.7-3.1,2.4
	c-1.5,1-3,1.9-4.6,2.6c-5.5,2.4-14.8-1.3-19.1-3c-2.3-1-4.9-1.4-7.4-1.2C123.2,85.2,122.3,85.4,121.4,85.7z"/>
<path class="st4" d="M163,118c-0.2,2.2-0.4,4.4-0.6,6.6c0,0.2-0.1,0.3-0.2,0.5c-0.2,0.3-0.5,0.5-0.9,0.6c-5.6,0.5-11.7,0.8-18.3,0.8
	c-5.9,0-11.4-0.3-16.5-0.8c-0.4,0-0.7-0.2-0.9-0.5c-0.1-0.2-0.2-0.4-0.2-0.6l-0.8-6.5c5.5,0.5,11.6,0.9,18,0.9
	C149.9,118.9,156.8,118.5,163,118z"/>
<linearGradient id="SVGID_3_" gradientUnits="userSpaceOnUse" x1="143.9" y1="946.35" x2="143.9" y2="942.96" gradientTransform="matrix(1 0 0 1 0 -820)">
	<stop  offset="0.13" style="stop-color:#F4D4BD"/>
	<stop  offset="0.75" style="stop-color:#F7E2D4"/>
</linearGradient>
<path class="st5" d="M162.2,125c-0.2,0.3-0.5,0.5-0.9,0.6c-5.6,0.5-11.7,0.8-18.3,0.8c-5.9,0-11.4-0.3-16.5-0.8
	c-0.4,0-0.7-0.2-0.9-0.5c1.4-1.2,9.1-2.1,18.4-2.1S160.6,123.8,162.2,125z"/>
<linearGradient id="SVGID_4_" gradientUnits="userSpaceOnUse" x1="143.75" y1="936.71" x2="143.75" y2="903.1258" gradientTransform="matrix(1 0 0 1 0 -820)">
	<stop  offset="0" style="stop-color:#AA6132"/>
	<stop  offset="0.48" style="stop-color:#DF5926"/>
	<stop  offset="0.7" style="stop-color:#E56F25"/>
	<stop  offset="1" style="stop-color:#FAA31C"/>
</linearGradient>
<path class="st6" d="M124.4,114.4c0.1,0.7,0.6,1.3,1.4,1.4c6.2,0.7,12.4,1,18.6,1c5.8,0,11.6-0.3,17.3-0.9c0.8-0.1,1.4-0.7,1.5-1.5
	l2.9-28.5c-0.7-1.1-1.7-1.9-2.9-2.4c-4.9-1.8-8,5.5-15.2,6.5s-16.8-4.7-21.3-5c-1.5-0.1-3.1,0.1-4.6,0.6c-0.3,0.1-0.5,0.2-0.7,0.3
	L124.4,114.4z"/>
<path class="st7" d="M131.8,74.1c-6.3,3.6-9.9,10.7-9,17.9l0.5-0.1l1.5-0.2l31.9-4.2l1.7-0.2h0.3c-0.3-2.3-1.1-4.5-2.2-6.5
	C151.5,72.1,140.4,69.1,131.8,74.1z"/>
<path class="st8" d="M156.2,80.8c1.1,2,1.9,4.2,2.2,6.5l-1.7,0.2l-31.9,4.2l-1.5,0.2c-1.2-9.7,5.6-18.6,15.3-19.8
	C145.7,71.2,152.7,74.6,156.2,80.8z"/>
<path class="st9" d="M154.2,80.9L154.2,80.9c0,0.1,0,0.1,0,0.2s0,0.1,0.1,0.2v0.1c0,0,0.1,0.1,0.1,0.2s0,0.1,0,0.2l0.8,1.2
	c0.1,0.1,0.1,0.2,0.2,0.3c0.1,0,0.1,0.1,0.2,0.1l0.1,0.1l0.1,0.2c0.1,0.1,0,0.1,0,0.2s0,0.3,0.1,0.4c0,0.2,0.1,0.3,0.2,0.4
	c0.1,0.2,0.2,0.5,0.3,0.7s0.1,0.4,0.1,0.6c0,0.1,0,0.1,0,0.2s0,0.1,0,0.2c0,0,0.1,0.1,0.1,0.2s0,0.1,0,0.2s0.1,0.1,0.1,0.2v0.1
	c0,0.1,0,0.2,0.1,0.3l-31.9,4.2c0-0.1,0-0.1,0-0.2s0-0.3,0-0.4s0-0.2,0-0.3s0-0.1,0-0.2s-0.1-0.2-0.1-0.3c0-0.2,0.1-0.3,0.1-0.5
	c0-0.1,0.1-0.3,0.1-0.4s0-0.2-0.1-0.3c0-0.1,0-0.2,0-0.3c0-0.1-0.1-0.2-0.1-0.3c0-0.2,0-0.4,0-0.6c0-0.1,0-0.3,0-0.4v-0.2
	c0.1,0,0.1-0.1,0.2-0.1V87l0.1-0.1c-0.1-0.1-0.1-0.3-0.2-0.4c0-0.1,0-0.3,0-0.4V86v-0.1c0-0.2,0-0.3,0.1-0.4s0.2-0.3,0.3-0.4
	c-0.1-0.1-0.1-0.2-0.1-0.3c0-0.1,0-0.2,0-0.3c0-0.2,0-0.4,0-0.6c0.1-0.3,0.2-0.5,0.4-0.7c0.1-0.1,0.2-0.2,0.2-0.2
	c0-0.1,0.1-0.1,0.1-0.2l0.1-0.1c0-0.1,0.1-0.2,0.1-0.2c0.1-0.1,0.1-0.2,0.2-0.2c0.1-0.1,0.1-0.3,0.1-0.4s0.1-0.3,0.1-0.4
	c0.1-0.1,0.1-0.3,0.2-0.4s0.3-0.3,0.5-0.3c0.2-0.1,0.3-0.2,0.5-0.3c0.1-0.1,0.2-0.2,0.3-0.3c0-0.1,0.1-0.1,0.1-0.2v-0.1
	c0,0,0.1,0,0.1-0.1c0.1-0.1,0.2-0.2,0.3-0.3c0.1-0.1,0.2-0.2,0.3-0.3c0.1-0.1,0.1-0.1,0.2-0.2c0.1-0.2,0.2-0.4,0.3-0.6
	c0.1-0.1,0.3-0.2,0.5-0.3c0.1-0.1,0.1-0.2,0.2-0.3c0.1-0.1,0.1-0.3,0.2-0.4c0-0.1,0.1-0.1,0.1-0.2c0.1-0.1,0.1,0,0.2,0
	c0.2,0.1,0.4,0,0.5-0.1c0.2-0.1,0.3-0.2,0.5-0.3c0.1-0.1,0.1-0.2,0.2-0.2c0.1-0.1,0.8-1.1,1-0.8l1.3-0.7c0.1-0.1,0.3-0.2,0.4-0.2
	c0.1,0,0.2,0,0.3,0s0.2,0,0.3,0c0.3,0,0.5-0.1,0.8-0.2c0.1,0,0.2-0.1,0.3-0.1l0.4-0.2c0.2-0.1,0.4-0.2,0.7-0.3c0.1,0,0.2,0,0.3,0
	c0.2,0,0.3,0,0.5,0c0.1,0,0.2,0,0.3,0h0.1h0.1c0,0,0.1,0,0.1-0.1h0.1c0.1,0,0.2-0.1,0.3-0.2c0.1,0,0.1,0,0.2,0
	c0.1,0,0.1-0.1,0.2-0.1c0.1,0,0.1,0,0.2,0h0.2h0.1h0.1c0.1,0,0.3-0.1,0.4,0.1c0.1,0,0.2,0,0.3,0s0.2,0,0.4,0.1s0.4,0.1,0.6,0
	c0.2,0,0.4-0.1,0.7-0.2c0.2-0.1,0.4-0.1,0.6-0.1c0.1,0,0.1,0.1,0.2,0.1l0.1,0.1h0.1c0,0,0,0,0,0.1c0.1,0.1,0.3,0.1,0.5,0.1
	c0.1,0,0.3,0.1,0.5,0.1c0.2,0.1,0.4,0.1,0.6,0c0,0,0,0.1,0.1,0.1s0.1,0,0.2,0s0.1-0.1,0.2,0c0.1,0.1,0.2,0.2,0.2,0.3
	c0.2,0.1,0.3,0.2,0.5,0.3c0.2,0.1,0.4,0.1,0.6,0.2c0.1,0,0.2,0,0.2,0h0.1c0.1,0,0.1,0,0.2-0.1c0.2-0.1,0.4,0,0.5,0.2
	c0.1,0,0.2,0.1,0.3,0.2l0.1,0.1h0.1l0.1,0.1l0.2,0.1c0.1,0.1,0.1,0.2,0.2,0.3c0.1,0.1,0.2,0.1,0.3,0.2c0.1,0,0.2,0,0.4,0.1
	c0.1,0.1,0.2,0.1,0.2,0.2c0,0,0.1,0.1,0.1,0.2l0.1,0.1c0.1,0.1,0.2,0.2,0.3,0.2c0.1,0.1,0.1,0.1,0.2,0.1c0.1,0,0.2,0,0.3,0.1
	s0.3,0.2,0.4,0.3c0.1,0,0.2,0.1,0.3,0.2s0.1,0.2,0.2,0.4c0.1,0.2,0.3,0.4,0.5,0.5c0.1,0,0.2,0.1,0.2,0.2c0.1,0.1,0.2,0.2,0.2,0.3
	l0.4,0.8c0.1,0.1,0.1,0.2,0.2,0.3l0.1,0.1v0.1h0.1c0.2,0.1,0.4,0.3,0.5,0.6C154.1,80.6,154.1,80.7,154.2,80.9z"/>
<path class="st10" d="M129.8,80.7c-0.3-0.2-0.4-0.7-0.1-1l0,0c1.9-2.6,4.8-4.2,8-4.6c0.4,0,0.7,0.2,0.8,0.6l1.9,12.6
	c0,0.1-0.1,0.3-0.2,0.3c-0.1,0-0.1,0-0.2,0L129.8,80.7z"/>
<path class="st10" d="M149.5,78.7c0.2-0.3,0.7-0.4,1-0.1l0,0c2.6,1.9,4.2,4.8,4.6,8c0,0.4-0.2,0.7-0.6,0.8l-12.6,1.9
	c-0.1,0-0.3-0.1-0.3-0.2s0-0.1,0-0.2L149.5,78.7z"/>
<path class="st10" d="M139.2,75.6c0-0.4,0.2-0.7,0.6-0.8c3.2-0.5,6.4,0.4,8.9,2.4c0.3,0.2,0.4,0.7,0.1,1l0,0l-7.6,10.2
	c-0.1,0.1-0.2,0.1-0.3,0.1s-0.1-0.1-0.1-0.2L139.2,75.6z"/>
<path class="st10" d="M126.8,91c-0.4,0-0.7-0.2-0.8-0.6c-0.5-3.2,0.4-6.4,2.5-8.9c0.2-0.3,0.7-0.4,1-0.1l0,0l10.2,7.6
	c0.1,0.1,0.1,0.2,0.1,0.3c0,0.1-0.1,0.1-0.2,0.1L126.8,91z"/>
<path class="st11" d="M136.3,88.8c0.7,0.4,1.6,0.5,2.3,0.1c0.1,0,0.1-0.1,0.1-0.1v-0.1c-0.5-0.7-1.2-1.1-2.1-1.1
	c-0.4,0-0.6,0.4-0.6,0.7S136.1,88.7,136.3,88.8z"/>
<path class="st9" d="M142.4,85.5c0,0.8-0.4,1.6-1.1,2.1c0,0.1-0.1,0.1-0.2,0c0,0,0,0,0-0.1c-0.4-0.7-0.3-1.6,0.1-2.3
	c0.2-0.3,0.6-0.3,0.9-0.1C142.3,85.2,142.4,85.4,142.4,85.5z"/>
<path class="st12" d="M134.8,79.9c0.8,1.6,1.9,3.1,3.3,4.4c0.1,0.2,0.2,0.1,0.1-0.1c-0.6-1.7-1.5-3.3-2.6-4.8
	c-0.2-0.3-0.6-0.5-0.9-0.6C134.6,79.2,134.6,79.6,134.8,79.9z"/>
<path class="st12" d="M132.2,80.5c1,1.2,2.2,2.3,3.6,3.1c0.1,0.1,0.2,0.1,0.1-0.1c-0.9-1.3-2-2.5-3.2-3.5c-0.2-0.2-0.5-0.3-0.9-0.3
	C131.8,80,132,80.3,132.2,80.5z"/>
<path class="st12" d="M136.2,77.4c0.3,1.3,0.9,2.5,1.6,3.6c0.1,0.1,0.1,0.1,0.1,0c-0.1-1.3-0.4-2.5-1-3.7c-0.1-0.3-0.3-0.5-0.6-0.6
	C136.2,76.9,136.2,77.1,136.2,77.4z"/>
<path class="st12" d="M143.7,78.1c-0.7,1.7-1.2,3.5-1.4,5.3c0,0.2,0,0.2,0.1,0.1c0.9-1.5,1.6-3.2,2-5c0.1-0.4,0.1-0.8-0.1-1.1
	C144.1,77.5,143.8,77.7,143.7,78.1z"/>
<path class="st12" d="M141.2,77.1c-0.3,1.6-0.3,3.2-0.1,4.8c0,0.2,0.1,0.2,0.1,0c0.5-1.5,0.7-3.1,0.7-4.7c0-0.3-0.1-0.6-0.3-0.9
	C141.4,76.5,141.3,76.8,141.2,77.1z"/>
<path class="st12" d="M146.2,78.3c-0.8,1.1-1.4,2.3-1.8,3.5c0,0.1,0,0.2,0.1,0.1c0.9-0.9,1.7-2,2.2-3.1c0.1-0.3,0.2-0.6,0.1-0.9
	C146.6,77.9,146.3,78.1,146.2,78.3z"/>
<path class="st12" d="M130,86.2c1.8,0.4,3.5,1,5.1,1.9c0.2,0.1,0.2,0.2,0,0.2c-1.8-0.1-3.6-0.5-5.3-1.2c-0.4-0.1-0.7-0.4-0.9-0.7
	C129.3,86.1,129.6,86.1,130,86.2z"/>
<path class="st12" d="M129.8,83.5c1.5,0.7,2.8,1.5,4,2.6c0.1,0.1,0.1,0.2-0.1,0.1c-1.5-0.5-3-1.2-4.3-2.1c-0.3-0.2-0.5-0.4-0.6-0.7
	C129.2,83.3,129.5,83.3,129.8,83.5z"/>
<path class="st12" d="M127.9,88.2c1.3-0.1,2.7,0.1,3.9,0.5c0.1,0,0.2,0.1,0,0.1c-1.3,0.3-2.6,0.3-3.8,0.1c-0.3,0-0.6-0.2-0.8-0.4
	C127.5,88.4,127.7,88.2,127.9,88.2z"/>
<path class="st12" d="M151.4,83.6c-1.5,1-3.2,1.9-4.9,2.4c-0.2,0.1-0.2,0-0.1-0.1c1.3-1.2,2.9-2.3,4.5-3c0.3-0.2,0.7-0.2,1.1-0.1
	C151.9,83.1,151.7,83.4,151.4,83.6z"/>
<path class="st12" d="M152.8,85.8c-1.5,0.6-3,1-4.6,1.2c-0.2,0-0.2,0,0-0.1c1.4-0.8,2.9-1.3,4.5-1.7c0.3-0.1,0.6,0,0.9,0.1
	C153.4,85.6,153.1,85.8,152.8,85.8z"/>
<path class="st12" d="M150.6,81.2c-0.9,1-1.9,1.8-3.1,2.5c-0.1,0.1-0.2,0-0.1-0.1c0.7-1.1,1.5-2,2.6-2.8c0.2-0.2,0.5-0.3,0.8-0.3
	C150.9,80.8,150.8,81,150.6,81.2z"/>
<path class="st13" d="M144.7,98.7l-5.2-6.7c-0.7-0.9-0.5-2.2,0.4-2.9l6.3-4.9c0.9-0.7,2.2-0.5,2.9,0.4l0,0l5.2,6.8
	c0.7,0.9,0.5,2.2-0.4,2.9l-6.3,4.9C146.7,99.8,145.4,99.7,144.7,98.7L144.7,98.7z"/>
<linearGradient id="SVGID_5_" gradientUnits="userSpaceOnUse" x1="142.4932" y1="725.1251" x2="156.8994" y2="725.1251" gradientTransform="matrix(0.9867 0.1625 -0.1625 0.9867 116.2844 -648.2942)">
	<stop  offset="0" style="stop-color:#FFE6C6"/>
	<stop  offset="0.97" style="stop-color:#FFFFFF"/>
</linearGradient>
<path class="st14" d="M144.1,98l-4.7-6.1c-0.6-0.9-0.5-2.1,0.4-2.8l5.7-4.4c0.9-0.6,2.1-0.5,2.7,0.3l4.7,6.1
	c0.6,0.9,0.5,2.1-0.4,2.8l-5.7,4.4C146,99,144.8,98.8,144.1,98z"/>
<path class="st15" d="M145.9,84.4c0.6-0.5,1.4-0.4,1.9,0.2c0,0,0,0.1,0.1,0.1l5.3,7c0.3,0.4,0.3,0.9,0.2,1.3
	c-0.1,0.3-0.3,0.5-0.5,0.7l-6.6,5.1c-0.3,0.2-0.6,0.3-1,0.3s-0.8-0.2-1-0.6c0.3,0.2,0.8,0.3,1.1,0.2c0.2-0.1,0.4-0.2,0.6-0.3l6.5-5
	c0.3-0.4,0.4-1,0.2-1.4l-5.2-6.9c-0.1-0.2-0.3-0.4-0.5-0.5C146.7,84.3,146.3,84.2,145.9,84.4z"/>
<path class="st16" d="M131.1,96.8l-6.4-5.6c-0.9-0.8-1-2.1-0.2-3l0,0l5.2-6.1c0.7-0.9,2.1-1,2.9-0.3c0,0,0,0,0.1,0l6.4,5.6
	c0.9,0.8,1,2.1,0.2,3l0,0l-5.2,6.1C133.4,97.5,132.1,97.6,131.1,96.8C131.2,96.8,131.2,96.8,131.1,96.8z"/>
<linearGradient id="SVGID_6_" gradientUnits="userSpaceOnUse" x1="-2005.0155" y1="751.64" x2="-2005.0155" y2="761.86" gradientTransform="matrix(-0.97 -0.25 -0.25 0.97 -1596.98 -1150.7601)">
	<stop  offset="0.38" style="stop-color:#EE3624"/>
	<stop  offset="1" style="stop-color:#A82723"/>
</linearGradient>
<path class="st17" d="M159.5,81c0.4,0.3,0.8,0.5,1.2,0.5c1.4,0.1,2.6,0.7,3.4,1.8c1.2,2.1-0.3,5-2.2,6.3c-2.8,1.9-6.1,0.3-6.2,0.2
	c-0.9-0.5-1.7-1.2-2.2-2.1c-1.5-2.7-0.5-7.2,2.1-7.9C157.2,79.4,158.7,80.4,159.5,81z"/>
<path class="st18" d="M158.1,82.4c0.5,0.8,1.4,1.2,2.3,1h0.1c0.4-0.1,0.8-0.3,1.1-0.7c0-0.3-0.8-0.5-1.5-0.7c-0.2,0-0.4-0.1-0.5-0.2
	c-0.5-0.4-1.3-1.1-1.6-0.8C157.8,81.4,157.9,81.9,158.1,82.4L158.1,82.4z"/>
<path class="st19" d="M154.6,87.5c-1.4-2.5-0.7-5.3,1.1-6.4c0.3-0.2,0.7-0.3,1.1-0.4c0.2,0,0.4,0.1,0.4,0.4c0,0.2-0.1,0.3-0.2,0.4
	c-0.4,0.2-0.8,0.4-1.1,0.7C154.3,83.5,153.8,85.6,154.6,87.5z"/>
<linearGradient id="SVGID_7_" gradientUnits="userSpaceOnUse" x1="-1907.3087" y1="902.54" x2="-1907.3087" y2="890.72" gradientTransform="matrix(-1 0 0 1 -1743.6899 -820)">
	<stop  offset="6.000000e-02" style="stop-color:#C76960"/>
	<stop  offset="0.79" style="stop-color:#EE3624"/>
	<stop  offset="0.94" style="stop-color:#A82723"/>
	<stop  offset="1" style="stop-color:#6F2012"/>
</linearGradient>
<path class="st20" d="M159.9,82.5c-0.1,0.1-0.3,0.1-0.4,0c-0.1-0.1-0.2-0.2-0.2-0.3c0.4-0.8,0.9-2.1,1.6-3.5
	c1.5-2.8,3.4-5.4,5.5-7.7c0.3-0.3,0.8-0.3,1.1,0c0.1,0.1,0.1,0.2,0.2,0.3l0.2,0.4c0.1,0.3,0,0.7-0.3,0.9c-2.5,1.6-4.5,3.7-6,6.2
	C160.9,80,160.3,81.2,159.9,82.5z"/>
<path class="st13" d="M144.7,98.7l-5.2-6.7c-0.7-0.9-0.5-2.2,0.4-2.9l6.3-4.9c0.9-0.7,2.2-0.5,2.9,0.4l0,0l5.2,6.8
	c0.7,0.9,0.5,2.2-0.4,2.9l-6.3,4.9C146.7,99.8,145.4,99.7,144.7,98.7L144.7,98.7z"/>
<linearGradient id="SVGID_8_" gradientUnits="userSpaceOnUse" x1="142.4932" y1="725.1251" x2="156.8994" y2="725.1251" gradientTransform="matrix(0.9867 0.1625 -0.1625 0.9867 116.2844 -648.2942)">
	<stop  offset="0" style="stop-color:#FFE6C6"/>
	<stop  offset="0.97" style="stop-color:#FFFFFF"/>
</linearGradient>
<path class="st21" d="M144.1,98l-4.7-6.1c-0.6-0.9-0.5-2.1,0.4-2.8l5.7-4.4c0.9-0.6,2.1-0.5,2.7,0.3l4.7,6.1
	c0.6,0.9,0.5,2.1-0.4,2.8l-5.7,4.4C146,99,144.8,98.8,144.1,98z"/>
<path class="st15" d="M145.9,84.4c0.6-0.5,1.4-0.4,1.9,0.2c0,0,0,0.1,0.1,0.1l5.3,7c0.3,0.4,0.3,0.9,0.2,1.3
	c-0.1,0.3-0.3,0.5-0.5,0.7l-6.6,5.1c-0.3,0.2-0.6,0.3-1,0.3s-0.8-0.2-1-0.6c0.3,0.2,0.8,0.3,1.1,0.2c0.2-0.1,0.4-0.2,0.6-0.3l6.5-5
	c0.3-0.4,0.4-1,0.2-1.4l-5.2-6.9c-0.1-0.2-0.3-0.4-0.5-0.5C146.7,84.3,146.3,84.2,145.9,84.4z"/>
<path class="st19" d="M159.2,89.4c2.8-0.4,4.6-2.7,4.4-4.7c0-0.4-0.2-0.8-0.4-1.1c-0.1-0.2-0.4-0.2-0.5-0.1s-0.2,0.2-0.2,0.4
	c0.1,0.4,0.2,0.8,0.2,1.3C162.6,87.1,161.2,88.9,159.2,89.4z"/>
<linearGradient id="SVGID_9_" gradientUnits="userSpaceOnUse" x1="56.0352" y1="-75.3123" x2="65.0652" y2="-83.6623" gradientTransform="matrix(0.76 0.66 -0.66 0.76 30.62 109.86)">
	<stop  offset="0" style="stop-color:#DBDEBC"/>
	<stop  offset="0.97" style="stop-color:#FFFFFF"/>
</linearGradient>
<path class="st22" d="M130.4,96.1l-5.8-5c-0.8-0.7-0.9-1.9-0.2-2.8l4.7-5.5c0.7-0.8,1.9-0.9,2.8-0.2l5.8,5c0.8,0.7,0.9,1.9,0.2,2.8
	l-4.7,5.5C132.4,96.7,131.2,96.8,130.4,96.1z"/>
<path class="st23" d="M129.5,82.4c0.5-0.6,1.3-0.7,1.9-0.2c0,0,0,0,0.1,0.1l6.6,5.8c0.3,0.3,0.5,0.8,0.5,1.2c0,0.3-0.1,0.6-0.3,0.8
	l-5.4,6.3c-0.2,0.3-0.5,0.5-0.9,0.5s-0.8-0.1-1.1-0.3c0.4,0.2,0.8,0.2,1.1,0c0.2-0.1,0.4-0.3,0.5-0.4l5.4-6.2c0.3-0.5,0.2-1-0.1-1.4
	l-6.4-5.7c-0.2-0.2-0.4-0.3-0.6-0.4C130.3,82.2,129.8,82.2,129.5,82.4z"/>
<linearGradient id="SVGID_10_" gradientUnits="userSpaceOnUse" x1="143.75" y1="936.71" x2="143.75" y2="903.1258" gradientTransform="matrix(1 0 0 1 0 -820)">
	<stop  offset="0" style="stop-color:#AA6132"/>
	<stop  offset="0.48" style="stop-color:#DF5926"/>
	<stop  offset="0.7" style="stop-color:#E56F25"/>
	<stop  offset="1" style="stop-color:#FAA31C"/>
</linearGradient>
<path class="st24" d="M124.4,114.4c0.1,0.7,0.6,1.3,1.4,1.4c6.2,0.7,12.4,1,18.6,1c5.8,0,11.6-0.3,17.3-0.9c0.8-0.1,1.4-0.7,1.5-1.5
	l2.9-28.5c-0.7-1.1-1.7-1.9-2.9-2.4c-4.9-1.8-8,5.5-15.2,6.5s-16.8-4.7-21.3-5c-1.5-0.1-3.1,0.1-4.6,0.6c-0.3,0.1-0.5,0.2-0.7,0.3
	L124.4,114.4z"/>
<path class="st25" d="M123.8,109c0.8-0.4,1.7-0.7,2.6-0.9c3.9-0.6,6.6,2.1,10.5,3.9c3.3,1.4,6.8,2.1,10.3,2.2
	c7.3-0.1,12.4-3.8,15.4-1.2c0.2,0.2,0.4,0.4,0.6,0.6l-0.1,0.5c-0.1,0.8-0.7,1.5-1.6,1.6c-5.9,0.7-11.8,1-17.8,1
	c-6.1,0-12.2-0.4-18.3-1.1c-0.6-0.1-1.1-0.6-1.1-1.2L123.8,109z"/>
<linearGradient id="SVGID_11_" gradientUnits="userSpaceOnUse" x1="136" y1="929.3284" x2="163.95" y2="929.3284" gradientTransform="matrix(1 0 0 1 0 -820)">
	<stop  offset="1.000000e-02" style="stop-color:#D76135"/>
	<stop  offset="9.000000e-02" style="stop-color:#D76236"/>
</linearGradient>
<path class="st26" d="M164,105.8l-0.8,7.8c-0.6-0.3-1.2-0.5-1.8-0.6c-2.2-0.5-4.5-0.3-6.6,0.5c-4.3,1.3-8.8,1.5-13.2,0.6
	c-2-0.5-3.9-1.3-5.6-2.5c5.7,1.5,9.5,0.7,11.9-0.3c6-2.4,8.9-8.1,13.2-7.2C162.3,104.3,163.2,104.9,164,105.8z"/>
<path class="st27" d="M119.2,64.8l5.1,49.5c0.1,0.7,0.7,1.3,1.4,1.4l3.8,0.4l-5.2-51.3H119.2L119.2,64.8z"/>
<path class="st27" d="M168.3,64.8l-5.1,49.5c-0.1,0.7-0.7,1.3-1.4,1.4l-3.8,0.4l5.2-51.3H168.3L168.3,64.8z"/>
<polygon class="st28" points="126.7,64.8 131.8,116.3 134,116.4 128.9,64.8 "/>
</svg>
