<?xml version="1.0" encoding="utf-8"?>
<!-- Generator: Adobe Illustrator 19.2.1, SVG Export Plug-In . SVG Version: 6.00 Build 0)  -->
<svg version="1.1" id="Layer_1" xmlns="http://www.w3.org/2000/svg" xmlns:xlink="http://www.w3.org/1999/xlink" x="0px" y="0px"
	 viewBox="0 0 287.6 183.9" style="enable-background:new 0 0 287.6 183.9;" xml:space="preserve">
<style type="text/css">
	.st0{fill:url(#SVGID_1_);}
	.st1{fill:url(#SVGID_2_);}
	.st2{fill:#FFF5AC;}
	.st3{opacity:0.66;fill:#BF674F;}
	.st4{fill:#FDDFD7;}
	.st5{opacity:0.89;fill:#C54B37;enable-background:new    ;}
	.st6{fill:url(#SVGID_3_);}
	.st7{fill:#EC5252;}
	.st8{fill:#EF7273;}
	.st9{fill:#DD4A4A;}
	.st10{opacity:0.87;fill:url(#SVGID_4_);enable-background:new    ;}
	.st11{opacity:0.87;fill:#AB2632;enable-background:new    ;}
	.st12{fill:#E49025;}
	.st13{fill:#F5A31E;}
	.st14{fill:#FAF5AE;}
	.st15{fill:#F8B355;}
	.st16{fill:#FCCD9D;}
	.st17{opacity:0.57;fill:#660F16;enable-background:new    ;}
	.st18{opacity:0.57;fill:#911A25;enable-background:new    ;}
	.st19{fill:url(#SVGID_5_);}
	.st20{fill:#DB2E2A;}
	.st21{opacity:0.15;fill:#F4B5B5;enable-background:new    ;}
	.st22{fill:#771919;}
	.st23{fill:url(#SVGID_6_);}
	.st24{opacity:0.74;fill:#FFE3BB;enable-background:new    ;}
	.st25{fill:#FFE3BB;}
	.st26{opacity:0.65;fill:#DB2E2A;enable-background:new    ;}
	.st27{opacity:0.66;fill:#FFFFFF;enable-background:new    ;}
	.st28{fill:#660F16;}
	.st29{opacity:0.57;fill:#A11D24;enable-background:new    ;}
	.st30{fill:url(#SVGID_7_);}
	.st31{fill:url(#SVGID_8_);}
	.st32{fill:url(#SVGID_9_);}
	.st33{fill:#5B3B3C;}
	.st34{fill:url(#SVGID_10_);}
	.st35{fill:url(#SVGID_11_);}
	.st36{opacity:0.58;fill:url(#SVGID_12_);enable-background:new    ;}
	.st37{fill:url(#SVGID_13_);}
	.st38{opacity:0.24;fill:#FFFFFF;enable-background:new    ;}
	.st39{fill:url(#SVGID_14_);}
	.st40{opacity:0.11;fill:#FFFFFF;enable-background:new    ;}
</style>
<title>sangria</title>
<radialGradient id="SVGID_1_" cx="143.8" cy="93.33" r="120.6923" gradientTransform="matrix(1 0 0 -1 0 185.28)" gradientUnits="userSpaceOnUse">
	<stop  offset="0.1309" style="stop-color:#DCA791"/>
	<stop  offset="0.636" style="stop-color:#CE8369"/>
	<stop  offset="0.8" style="stop-color:#CC7D62"/>
</radialGradient>
<rect y="0" class="st0" width="287.6" height="183.9"/>
<linearGradient id="SVGID_2_" gradientUnits="userSpaceOnUse" x1="153.645" y1="132.6605" x2="153.645" y2="119.57" gradientTransform="matrix(1 0 0 -1 0 185.28)">
	<stop  offset="0" style="stop-color:#E48125"/>
	<stop  offset="0.51" style="stop-color:#F6A31D"/>
	<stop  offset="0.82" style="stop-color:#F6A71C"/>
</linearGradient>
<path class="st1" d="M148.8,65.6l9.4,0.1c-0.3-1.3-0.3-2.6-0.1-3.8c0.1-0.7,0.3-1.4,0.5-2c-0.4-4.2-1.6-7.1-3.1-7.2
	c-0.4,0-0.8,0.1-1.1,0.3c-1.5,0.8-2.6,2-3.3,3.6C149.8,59.4,149,62.5,148.8,65.6z"/>
<path class="st2" d="M149.5,60.9c0.4-1.7,1.6-5.9,4.6-7.9c0.3-0.3,0.8-0.4,1.2-0.4c2.7,0.3,3.9,9.3,3.8,9.3s-0.2-0.8-0.9-2.6
	c-0.3-0.8-0.6-1.5-0.9-2.2c-0.7-1.2-1.3-2.4-2.2-2.6c-1.3-0.3-2.6,1.3-3.5,2.4C150.6,58.1,149.9,59.4,149.5,60.9z"/>
<ellipse class="st3" cx="141.2" cy="150" rx="33.8" ry="7.1"/>
<path class="st4" d="M142,58v93.3h21c4.7,0,8.4-3.8,8.4-8.4V87.4c0-2-0.6-4-1.6-5.8l-1.8-2.8c-0.9-1.5-1.4-3.2-1.4-5l0.1-13.4
	c0-1.1-0.9-1.9-1.9-1.9c0,0,0,0,0,0C157.4,58.2,149.9,58,142,58z"/>
<path class="st4" d="M142,58v93.3h-21c-4.6,0-8.4-3.8-8.4-8.4c0,0,0,0,0,0V87.4c0-2,0.6-4,1.6-5.8c0.6-1,1.1-1.9,1.7-2.8
	c0.9-1.5,1.4-3.2,1.3-4.9l-0.1-13.4c0-1.1,0.9-2,1.9-2l4.2-0.2l4.8,86.3c0,0.4,0.4,0.8,0.8,0.7l2.1-0.1h0.9c0.4,0,0.7-0.3,0.7-0.8
	l0,0c0,0,0,0,0-0.1l-4.8-86.2C132.5,58.1,137.2,58,142,58z"/>
<path class="st5" d="M115.8,94.4c4.8,1.2,9.9,1.4,14.7,0.4c4.8-1.1,9.4-3.1,13.5-5.9c2.6-1.6,4.4-3.1,7.9-4.4c1.5-0.6,3-1,4.6-1.3
	c-7,3.2-12.5,3.4-16.3,3c-7-0.8-11.7-4.2-18.5-2.3c-2.1,0.6-4.1,1.6-5.9,2.9L115.8,94.4L115.8,94.4z"/>
<linearGradient id="SVGID_3_" gradientUnits="userSpaceOnUse" x1="-1263.6182" y1="51.1749" x2="-1270.8281" y2="57.8449" gradientTransform="matrix(-0.3994 0.9168 0.9168 0.3994 -431.5029 1234.4581)">
	<stop  offset="5.000000e-02" style="stop-color:#BE1F26"/>
	<stop  offset="0.29" style="stop-color:#D72129"/>
	<stop  offset="0.6" style="stop-color:#EE212C"/>
	<stop  offset="1" style="stop-color:#E64B4B"/>
</linearGradient>
<path class="st6" d="M127.7,96.1c0.3-0.1,0.6-0.4,0.8-0.6c0.3-0.4,0.5-0.9,0.5-1.4c0.4-0.3,0.5-0.9,0.4-1.3
	c-0.1-0.3-0.3-0.6-0.6-0.8c-0.4-1.2-1.1-1.9-1.7-1.8c-0.2,0-0.4,0.1-0.5,0.2c-0.3-0.4-0.7-0.6-1.2-0.7c-0.2,0-0.4,0.1-0.6,0.2
	c-0.3-0.3-0.6-0.4-1-0.3c-0.2,0.1-0.3,0.2-0.4,0.3c-0.3-0.3-0.8-0.3-1.1-0.1c-0.1,0.1-0.2,0.2-0.2,0.2c-0.2-0.2-0.6-0.2-0.8,0
	c-0.1,0.1-0.1,0.2-0.1,0.3c-0.2-0.1-0.5-0.1-0.7,0c-0.1,0.1-0.3,0.2-0.4,0.3c-0.3,0.1-0.5,0.3-0.7,0.6c-0.2,0.3-0.2,0.8-0.1,1.1
	c-0.4,0.2-0.7,0.5-0.8,0.9c-0.1,0.3-0.1,0.6,0.1,0.8c-0.1,0.4,0.1,0.8,0.4,1c-0.2,0.3-0.2,0.7,0.1,0.9c0.1,0.1,0.2,0.1,0.3,0.1
	c-0.1,0.1-0.1,0.2-0.1,0.3c0.1,0.4,0.4,0.7,0.9,0.8c-0.1,0.2-0.1,0.3,0,0.5c0.2,0.4,0.5,0.6,0.9,0.5c0,0.1,0.1,0.2,0.1,0.2
	c0.3,0.5,0.8,0.7,1.4,0.8c0,0.2,0.1,0.4,0.2,0.5c0.5,0.5,1.5,0.5,2.6-0.1c0.2,0.1,0.4,0.1,0.6,0c0.4-0.1,0.7-0.5,0.8-0.9
	C127.6,98,127.8,97,127.7,96.1z"/>
<path class="st7" d="M128.3,91.6c-0.2-0.4-0.5-0.7-0.9-0.9c-0.1,0-0.2,0-0.2,0.1c0,0.1,0,0.2,0,0.3
	C127.4,91.3,127.9,91.5,128.3,91.6z"/>
<path class="st8" d="M127.7,92.7c-0.2-0.4-0.5-0.7-0.9-0.9c-0.1,0-0.2,0-0.2,0.1c0,0.1,0,0.2,0,0.3
	C126.8,92.5,127.2,92.7,127.7,92.7z"/>
<path class="st8" d="M127,93.8c-0.2-0.4-0.6-0.6-1-0.8c-0.1,0-0.2,0-0.2,0.1c0,0.1,0,0.2,0,0.3C126.1,93.7,126.6,93.8,127,93.8z"/>
<path class="st7" d="M126.4,94.8c-0.2-0.3-0.6-0.6-1-0.7c-0.1,0-0.1,0-0.2,0.1c0,0.1,0,0.2,0.1,0.3C125.6,94.7,126,94.8,126.4,94.8z
	"/>
<path class="st7" d="M126,96c-0.3-0.3-0.7-0.5-1.1-0.5c-0.1,0-0.1,0.1-0.2,0.1c0,0.1,0,0.2,0.1,0.3C125.2,96.1,125.6,96.1,126,96z"
	/>
<path class="st7" d="M125.6,97.2c-0.3-0.3-0.7-0.5-1.1-0.5c-0.1,0-0.1,0.1-0.2,0.1c0,0.1,0,0.2,0.1,0.3
	C124.7,97.2,125.2,97.3,125.6,97.2z"/>
<path class="st7" d="M124.8,99.5c-0.4,0.2-0.9,0.2-1.3,0c-0.1-0.1-0.1-0.1-0.1-0.2c0-0.1,0.1-0.2,0.2-0.2
	C124,99.1,124.4,99.2,124.8,99.5z"/>
<path class="st7" d="M125.2,98.3c-0.4,0.2-0.9,0.2-1.3,0c-0.1-0.1-0.1-0.1-0.1-0.2c0-0.1,0.1-0.2,0.2-0.2
	C124.4,97.8,124.8,98,125.2,98.3z"/>
<path class="st7" d="M125.4,90.3c0.4,0.1,0.7,0.3,1,0.6c0,0.1,0,0.1,0,0.2c-0.1,0.1-0.2,0.1-0.3,0.1C125.8,91,125.6,90.7,125.4,90.3
	z"/>
<path class="st8" d="M124.8,91.6c0.4,0,0.8,0.1,1.1,0.4c0,0.1,0,0.1,0,0.2c-0.1,0.1-0.2,0.1-0.2,0.1
	C125.2,92.2,124.9,91.9,124.8,91.6z"/>
<path class="st7" d="M124.1,93.1c0.4-0.1,0.8,0,1.2,0.2c0,0.1,0.1,0.1,0.1,0.2c0,0.1-0.1,0.1-0.2,0.2
	C124.6,93.6,124.3,93.4,124.1,93.1z"/>
<path class="st7" d="M123.6,94.3c0.4-0.1,0.7,0,1.1,0.2c0,0.1,0,0.1,0,0.2c0,0.1-0.1,0.1-0.2,0.1C124.1,94.8,123.8,94.6,123.6,94.3z
	"/>
<path class="st7" d="M123.1,95.6c0.4-0.1,0.7-0.1,1.1,0c0,0,0.1,0.1,0.1,0.2c0,0.1-0.1,0.2-0.2,0.2C123.7,96,123.4,95.9,123.1,95.6z
	"/>
<path class="st7" d="M122.5,97c0.4-0.1,0.7-0.1,1.1,0c0,0,0.1,0.1,0.1,0.2c0,0.1-0.1,0.2-0.2,0.2C123.1,97.4,122.7,97.2,122.5,97z"
	/>
<path class="st7" d="M122,98.3c0.3,0.3,0.6,0.5,1.1,0.5c0.1,0,0.1-0.1,0.2-0.1c0-0.1,0-0.2-0.1-0.3C122.8,98.2,122.4,98.1,122,98.3z
	"/>
<path class="st7" d="M124.9,90.9c-0.1-0.3-0.4-0.6-0.7-0.7c-0.1,0-0.1,0-0.2,0.1c0,0.1,0,0.2,0,0.2
	C124.3,90.8,124.6,90.9,124.9,90.9z"/>
<path class="st7" d="M124.3,92.3c-0.1-0.3-0.3-0.6-0.6-0.7c-0.1,0-0.1,0-0.2,0.1c0,0.1,0,0.2,0,0.3C123.7,92.1,124,92.3,124.3,92.3z
	"/>
<path class="st7" d="M123.8,93.6c-0.2-0.3-0.4-0.5-0.8-0.6c-0.1,0-0.1,0.1-0.2,0.1c0,0.1,0,0.2,0,0.3
	C123.1,93.6,123.4,93.7,123.8,93.6z"/>
<path class="st7" d="M123.2,94.8c-0.2-0.2-0.5-0.4-0.8-0.4c-0.1,0-0.1,0.1-0.1,0.1c0,0.1,0,0.2,0.1,0.2
	C122.6,95,122.9,95,123.2,94.8z"/>
<path class="st9" d="M122.6,96.2c-0.2-0.2-0.5-0.4-0.8-0.4c-0.1,0-0.1,0.1-0.1,0.1c0,0.1,0,0.2,0.1,0.2
	C122,96.3,122.3,96.3,122.6,96.2z"/>
<path class="st9" d="M122,97.5c-0.3-0.2-0.6-0.3-0.9-0.2c0,0-0.1,0.1-0.1,0.2c0,0.1,0.1,0.2,0.1,0.2C121.5,97.7,121.8,97.7,122,97.5
	z"/>
<path class="st7" d="M122.6,90.6c0.3-0.2,0.7-0.2,1,0c0,0.1,0.1,0.1,0.1,0.2c0,0.1-0.1,0.2-0.2,0.2C123.1,91,122.8,90.8,122.6,90.6z
	"/>
<path class="st7" d="M121.9,92.1c0.3-0.2,0.7-0.2,1,0c0,0.1,0.1,0.1,0.1,0.2c0,0.1-0.1,0.2-0.2,0.2
	C122.5,92.5,122.1,92.4,121.9,92.1z"/>
<path class="st7" d="M121.4,93.4c0.3-0.1,0.7-0.1,1,0.1c0,0.1,0,0.1,0,0.2c0,0.1-0.1,0.2-0.2,0.2C121.9,93.9,121.6,93.7,121.4,93.4z
	"/>
<path class="st9" d="M120.9,94.7c0.3,0,0.6,0.1,0.8,0.3c0,0.1,0,0.1,0,0.2c-0.1,0.1-0.1,0.1-0.2,0.1C121.2,95.2,121,95,120.9,94.7z"
	/>
<path class="st9" d="M120.2,96.2c0.3,0,0.6,0.1,0.8,0.3c0,0.1,0,0.1,0,0.2c-0.1,0.1-0.1,0.1-0.2,0.1
	C120.5,96.8,120.2,96.5,120.2,96.2z"/>
<path class="st7" d="M128.2,92.2c0.4,0.1,0.7,0.3,1,0.6c0,0.1,0,0.1,0,0.2c-0.1,0.1-0.2,0.1-0.3,0.1
	C128.6,92.9,128.3,92.6,128.2,92.2z"/>
<path class="st7" d="M127.6,93.4c0.4,0,0.8,0.1,1.1,0.4c0,0.1,0,0.1,0,0.2c-0.1,0.1-0.2,0.1-0.2,0.1C128.1,94,127.8,93.7,127.6,93.4
	z"/>
<path class="st7" d="M126.3,95.5c0.4-0.1,0.8,0,1.2,0.2c0,0.1,0.1,0.1,0.1,0.2c0,0.1-0.1,0.1-0.2,0.2
	C126.9,96,126.5,95.8,126.3,95.5z"/>
<path class="st7" d="M126,96.6c0.4-0.1,0.7,0,1.1,0.2c0,0.1,0,0.1,0,0.2c0,0.1-0.1,0.1-0.2,0.1C126.5,97.1,126.2,96.9,126,96.6z"/>
<path class="st7" d="M125.7,97.8c0.4-0.1,0.7-0.1,1.1,0c0,0,0.1,0.1,0.1,0.2c0,0.1-0.1,0.2-0.2,0.2C126.3,98.2,126,98.1,125.7,97.8z
	"/>
<path class="st7" d="M125.2,99c0.4-0.1,0.7-0.1,1.1,0c0,0,0.1,0.1,0.1,0.2c0,0.1-0.1,0.2-0.2,0.2C125.8,99.4,125.5,99.2,125.2,99z"
	/>
<path class="st7" d="M126.9,94.4c0.4,0,0.8,0.1,1.1,0.4c0,0.1,0,0.1,0,0.2c-0.1,0.1-0.2,0.1-0.2,0.1C127.4,95,127.1,94.8,126.9,94.4
	z"/>
<path class="st7" d="M122.5,91.1c-0.2-0.3-0.5-0.4-0.8-0.4c-0.1,0-0.1,0.1-0.2,0.1c0,0.1,0,0.2,0,0.2
	C121.8,91.2,122.2,91.2,122.5,91.1z"/>
<path class="st7" d="M121.9,92.6c-0.2-0.3-0.4-0.4-0.8-0.5c-0.1,0-0.1,0.1-0.1,0.1c0,0.1,0,0.2,0,0.2
	C121.3,92.7,121.6,92.7,121.9,92.6z"/>
<path class="st9" d="M121.2,94.3c-0.2-0.3-0.5-0.4-0.8-0.5c-0.1,0-0.1,0.1-0.1,0.1c0,0.1,0,0.2,0.1,0.2
	C120.6,94.3,120.9,94.4,121.2,94.3z"/>
<path class="st9" d="M120.4,95.5c-0.2-0.2-0.4-0.4-0.7-0.4c-0.1,0-0.1,0.1-0.1,0.1c0,0.1,0,0.2,0.1,0.2
	C119.9,95.6,120.2,95.7,120.4,95.5z"/>
<path class="st7" d="M120.4,91.3c0.1,0,0.6-0.3,0.7-0.1c0,0.1,0,0.1,0,0.2c0,0.1-0.1,0.2-0.1,0.2C120.8,91.7,120.5,91.3,120.4,91.3z
	"/>
<path class="st9" d="M120,92.8c0.1,0,0.6-0.2,0.7,0c0,0.1,0,0.1,0,0.2c0,0.1-0.1,0.1-0.2,0.2C120.3,93.3,120,92.9,120,92.8z"/>
<path class="st9" d="M119.3,94.1c0.1,0,0.6-0.1,0.6,0.2c0,0.1,0,0.1,0,0.2c0,0.1-0.1,0.1-0.2,0.1C119.5,94.7,119.4,94.2,119.3,94.1z
	"/>
<linearGradient id="SVGID_4_" gradientUnits="userSpaceOnUse" x1="141.925" y1="37.32" x2="141.925" y2="102.144" gradientTransform="matrix(1 0 0 -1 0 185.28)">
	<stop  offset="0" style="stop-color:#5C0D0B"/>
	<stop  offset="0.45" style="stop-color:#90191C"/>
	<stop  offset="0.81" style="stop-color:#B43325"/>
	<stop  offset="0.98" style="stop-color:#C23E33"/>
</linearGradient>
<path class="st10" d="M168.1,85.9V143c0,2.7-2.2,4.9-4.9,4.9l0,0h-42.7c-2.2,0-4.2-1.5-4.7-3.7c-0.1-0.4-0.1-0.7-0.1-1.1
	c0-16.2,0-32.5,0-48.7c4.9,1.2,10,1.3,14.9,0.3c12.8-2.7,17.8-12.1,28.5-11.6C162.3,83.4,165.4,84.3,168.1,85.9z"/>
<path class="st11" d="M157.5,134.1c-3.2,5.3-7.4,10-12.2,13.9h-24.8c-2.2,0-4.2-1.5-4.7-3.7c-0.1-0.4-0.1-0.7-0.1-1.1
	c0-3.1,0-6.1,0-9.2c2.5-1.8,5.5-2.9,8.6-3.2c6.3-0.5,9.8,3.1,16.1,4.6C144.1,136.4,149.8,136.9,157.5,134.1z"/>
<ellipse transform="matrix(0.9265 -0.3764 0.3764 0.9265 -21.8431 62.7608)" class="st12" cx="149.7" cy="87.3" rx="12" ry="12"/>
<ellipse transform="matrix(0.9265 -0.3764 0.3764 0.9265 -21.7994 62.7806)" class="st13" cx="149.8" cy="87.2" rx="11.7" ry="11.7"/>
<path class="st14" d="M145.6,77.4l0.6-0.2l0.3-0.1c0.1,0,0.2-0.1,0.3-0.1c0.1,0,0.1,0,0.2,0h0.2c0.2,0,0.4,0,0.5-0.1
	c0.1,0,0.2,0,0.3,0l0.3-0.1c0.1-0.1,0.3-0.1,0.5-0.1h0.2c0.1,0,0.2,0,0.3,0c0.1,0,0.1,0,0.2,0h0.1l0,0c0,0,0,0,0.1,0h0.1
	c0.1,0,0.1-0.1,0.2-0.1c0,0,0.1,0,0.1,0c0,0,0.1-0.1,0.1-0.1c0,0,0.1,0,0.1,0h0.2h0.1c0.1,0,0.2,0,0.2,0.1c0.1,0,0.1,0,0.2,0
	c0.1,0,0.2,0,0.2,0.1c0.1,0.1,0.3,0.1,0.4,0.1c0.2,0,0.3,0,0.4-0.1c0.1,0,0.3,0,0.4,0c0,0,0.1,0.1,0.1,0.1l0.1,0.1c0,0,0,0,0.1,0
	l0,0c0.1,0.1,0.2,0.1,0.3,0.1l0.3,0.1c0.1,0.1,0.3,0.1,0.4,0.1v0.1c0,0,0.1,0,0.1,0c0.1,0,0.1,0,0.1,0c0.1,0.1,0.1,0.1,0.1,0.2
	c0.1,0.1,0.2,0.2,0.3,0.2c0.1,0.1,0.3,0.1,0.4,0.2c0,0,0.1,0,0.1,0h0.1c0,0,0.1,0,0.1,0c0.1,0,0.1,0,0.2,0c0,0.1,0.1,0.1,0.1,0.1
	c0.1,0,0.1,0.1,0.2,0.1c0,0,0,0.1,0.1,0.1h0.1c0,0,0,0.1,0.1,0.1l0.1,0.1c0,0.1,0.1,0.1,0.1,0.2c0,0.1,0.1,0.1,0.2,0.1
	c0.1,0,0.2,0,0.2,0.1c0.1,0,0.1,0.1,0.1,0.2c0,0,0,0.1,0,0.1c0,0,0,0,0.1,0.1c0.1,0.1,0.1,0.1,0.2,0.2c0,0,0.1,0.1,0.1,0.1
	c0.1,0,0.1,0,0.2,0.1c0.1,0.1,0.2,0.1,0.2,0.2c0.1,0,0.1,0.1,0.2,0.2c0,0.1,0.1,0.2,0.1,0.2c0.1,0.2,0.2,0.3,0.3,0.4
	c0.1,0,0.1,0.1,0.1,0.1c0,0.1,0.1,0.1,0.1,0.2l0.2,0.5c0,0.1,0.1,0.2,0.1,0.2l0.1,0.1c0,0,0,0,0,0.1c0,0,0,0,0.1,0
	c0.1,0.1,0.3,0.2,0.3,0.4c0,0.1,0.1,0.2,0.1,0.2v0.1l0,0c0,0,0,0.1,0,0.1c0,0,0,0.1,0,0.1c0,0,0,0.1,0,0.1c0,0,0,0.1,0,0.1v0.1
	l0.2,0.6l0.1,0.2c0,0.1,0.1,0.2,0.1,0.2c0,0,0.1,0.1,0.1,0.1c0,0,0,0.1,0,0.1v0.1c0,0.1,0,0,0,0.1c0,0.1,0,0.2,0,0.3
	c0,0.1,0,0.2,0.1,0.3c0.1,0.2,0.1,0.3,0.1,0.5c0,0.1,0,0.3,0,0.4c0,0,0,0.1,0,0.1c0,0,0,0.1,0,0.1c0,0,0,0.1,0,0.1c0,0,0,0.1,0,0.1
	c0,0,0,0.1,0,0.1c0,0,0,0.1,0,0.1c0,0.1,0,0.2,0,0.2c0,0.2,0,0.4-0.1,0.6c0,0.1-0.1,0.3-0.2,0.4c-0.1,0.1-0.2,0.2-0.2,0.3
	c0.1,0.3,0.3,0.6,0.6,0.9c0,0.1,0,0.3,0.1,0.4s0,0.1,0,0.1c0,0,0,0.1,0,0.1c0,0,0,0.1,0,0.1c0,0,0,0.1,0,0.1c0,0.1-0.1,0.1-0.1,0.2
	c0,0.1-0.1,0.2-0.1,0.2c0,0,0,0.1-0.1,0.1c0,0,0,0,0,0.1c0,0,0,0.1-0.1,0.1c-0.1,0.1-0.1,0.2-0.1,0.3l-0.2,0.3c0,0-0.1,0.1-0.1,0.1
	c0,0.1,0,0.1,0,0.2s-0.1,0.1-0.1,0.2c0,0,0,0.1,0,0.1c0,0,0,0.1,0,0.1c0,0.1-0.1,0.1-0.1,0.2c0,0.1-0.1,0.1-0.2,0.2
	c-0.1,0-0.1,0.1-0.2,0.2c0,0.1-0.1,0.1-0.1,0.2c0,0-0.1,0.1-0.1,0.1c-0.1,0-0.1,0.1-0.2,0.2c-0.1,0.1-0.2,0.3-0.3,0.4
	c0,0.1-0.1,0.2-0.1,0.2c0,0,0,0.1,0,0.1c0,0.1,0,0.1,0,0.2c0,0.1,0,0.2-0.1,0.2c0,0.1,0,0.1,0,0.2c0,0-0.1,0.1-0.1,0.1
	c-0.1,0.1-0.1,0.2-0.2,0.2c-0.1,0-0.2,0.1-0.2,0.2c-0.1,0.2-0.2,0.3-0.4,0.4c-0.1,0-0.2,0.1-0.2,0.1l-0.2,0.2
	c-0.2,0.1-0.3,0.2-0.5,0.2c-0.1,0-0.2,0.1-0.2,0.2l-0.1,0.2c0,0.1-0.1,0.1-0.1,0.1c-0.2,0-0.5,0.1-0.6,0.3c0,0,0,0.1,0,0.1
	c0,0,0,0.1-0.1,0.1c0,0,0,0.1-0.1,0.1c-0.1,0.1-0.2,0.1-0.4,0.2l-0.4,0.2l-0.2,0.1c-0.1,0-0.1,0.1-0.1,0.1l-0.1,0.1l-0.1,0.1h-0.1
	v0.1c0,0-0.1,0.1-0.2,0.1c-0.1,0-0.2,0-0.2,0h-0.1c0,0-0.1,0-0.1,0c-0.1,0-0.2-0.1-0.3-0.1H152h-0.1c-0.1,0-0.1,0-0.2,0.1l-0.3,0.1
	c-0.1,0.1-0.3,0.1-0.4,0.1c-0.1,0-0.1-0.2-0.2-0.2c-0.1,0-0.3,0.1-0.4,0.1c-0.1,0-0.1,0-0.2,0l-0.3,0.1c-0.1,0-0.3,0-0.4,0h-0.1
	c0,0-0.1-0.1-0.1-0.1c-0.1,0-0.1,0-0.2-0.1s-0.1,0-0.2,0s0,0-0.1,0h-0.1c0-0.1-0.1-0.1-0.1-0.2c-0.1-0.1-0.1-0.1-0.2,0
	s-0.1,0-0.1-0.1c0-0.1-0.1-0.1-0.2-0.1c0,0-0.1,0-0.1,0H148c-0.1,0-0.1,0-0.2,0.1c-0.1,0-0.1,0.1-0.2,0.1c-0.1,0-0.2,0-0.3-0.1
	c-0.1,0-0.2-0.1-0.3-0.1c-0.1,0-0.1-0.1-0.2-0.2c-0.1-0.1-0.3-0.2-0.4-0.2h-0.2H146h-0.1c-0.1,0-0.3,0-0.4,0
	c-0.1-0.1-0.2-0.2-0.3-0.3c-0.1-0.1-0.2-0.2-0.3-0.2c-0.1,0-0.2,0-0.3,0c-0.1,0-0.1,0.1-0.2,0.1c-0.1-0.1-0.3-0.2-0.3-0.3l-0.1-0.2
	c-0.1,0-0.1-0.1-0.2-0.1c0,0,0,0-0.1-0.1c0,0-0.1,0.1-0.1,0c0,0-0.1,0-0.1-0.1h-0.1c0,0-0.1-0.1-0.1-0.1c-0.1-0.1-0.1-0.1-0.2-0.2
	c-0.1-0.1-0.1-0.3-0.3-0.5c0-0.1-0.1-0.1-0.1-0.2l-0.1-0.1c-0.1-0.1-0.1-0.1-0.2-0.1c-0.1,0-0.2-0.1-0.2-0.2
	c-0.1-0.1-0.3-0.2-0.4-0.3l-0.1-0.2c0-0.1-0.1-0.1-0.1-0.2c0-0.1-0.1-0.1-0.2-0.1c0,0,0-0.1,0-0.1c0,0,0,0-0.1-0.1
	c0-0.1-0.1-0.1-0.1-0.2c0,0-0.1-0.1-0.1-0.2c0-0.1-0.1-0.1-0.1-0.2c0-0.1-0.1-0.1-0.1-0.2c-0.1-0.1-0.2-0.1-0.3-0.2
	c-0.1-0.1-0.1-0.3-0.2-0.4c0,0,0-0.1,0-0.1c0,0,0-0.1,0-0.1s0-0.1,0-0.1c0-0.1,0-0.1-0.1-0.2c0-0.1-0.1-0.2-0.1-0.2l-0.1-0.1
	l-0.1-0.1c0-0.1,0-0.2-0.1-0.2c-0.1,0-0.2-0.1-0.2-0.2c-0.1-0.2-0.2-0.5-0.3-0.7c0-0.1,0-0.1,0-0.2c0-0.1,0.1-0.2,0.1-0.2
	c0-0.1,0-0.3-0.1-0.4l-0.2-0.4c0-0.1-0.1-0.2-0.1-0.3c-0.1-0.2-0.1-0.3-0.1-0.5c0-0.2,0-0.4,0.1-0.6c0-0.1,0-0.2,0.1-0.2
	c0-0.1,0-0.2,0-0.2c0-0.1,0-0.2,0-0.3c0-0.1,0-0.1,0-0.2c0,0,0-0.1,0-0.1s0-0.1,0-0.2c0-0.1,0.1-0.2,0.1-0.3c0-0.1,0.1-0.2,0.1-0.2
	c0-0.1,0-0.1,0-0.2c0-0.1,0-0.1,0-0.2c0-0.1,0-0.2,0-0.2c0-0.1,0-0.3,0-0.4c0-0.1,0-0.2,0-0.3c0,0,0-0.1,0-0.1c0,0,0.1,0,0.1-0.1
	v-0.1h0.1c0-0.1-0.1-0.2-0.1-0.3c0-0.1,0-0.2,0-0.3c0,0,0,0,0-0.1c0,0,0-0.1,0-0.1c0-0.1,0-0.2,0.1-0.3c0.1-0.1,0.2-0.2,0.2-0.2
	c0-0.1,0-0.1,0-0.2c0-0.1,0-0.1,0-0.2c0-0.1,0-0.3,0.1-0.4c0.1-0.2,0.2-0.3,0.3-0.4c0.1,0,0.1-0.1,0.2-0.2c0,0,0.1-0.1,0.1-0.1
	c0,0,0,0,0.1-0.1c0-0.1,0-0.1,0.1-0.1c0.1,0,0.1-0.1,0.2-0.1c0-0.1,0.1-0.2,0.1-0.2c0-0.1,0.1-0.2,0.1-0.2c0.1-0.1,0.1-0.2,0.2-0.2
	c0.1-0.1,0.2-0.1,0.3-0.2c0.1,0,0.2-0.1,0.3-0.2c0.1-0.1,0.1-0.1,0.2-0.2c0,0,0.1-0.1,0.1-0.1c0,0,0-0.1,0-0.1c0,0,0,0,0.1,0
	c0.1-0.1,0.1-0.1,0.2-0.2c0.1,0,0.2-0.1,0.2-0.1c0.1,0,0.1-0.1,0.2-0.1c0.1-0.1,0.2-0.2,0.3-0.3c0.1-0.1,0.2-0.1,0.3-0.2
	c0.1,0,0.1-0.1,0.1-0.2l0.1-0.2c0,0,0.1-0.1,0.1-0.1c0.1,0,0.1,0,0.2,0c0.1,0.1,0.3,0.1,0.4,0c0.1,0,0.2-0.1,0.3-0.2l0.1-0.1
	C145,77.8,145.5,77.2,145.6,77.4z"/>
<path class="st15" d="M143.3,80.4c-0.2-0.2-0.2-0.5,0-0.7c1.5-1.5,3.6-2.4,5.7-2.3c0.3,0,0.5,0.2,0.4,0.5l0.1,8.4
	c0,0.1-0.1,0.2-0.1,0.2c-0.1,0-0.1,0-0.1-0.1L143.3,80.4z"/>
<path class="st15" d="M149.8,96.3c0,0.3,0.2,0.5,0.4,0.5c0,0,0,0,0,0c2.1,0,4.2-0.8,5.7-2.3c0.2-0.2,0.2-0.5,0-0.6l-5.8-6.1
	c-0.1-0.1-0.2-0.1-0.2,0c0,0-0.1,0.1-0.1,0.1L149.8,96.3z"/>
<path class="st15" d="M156.4,80.8c0.2-0.2,0.5-0.2,0.6,0c1.5,1.5,2.4,3.5,2.3,5.7c0,0.3-0.2,0.5-0.5,0.4l-8.4,0.1
	c-0.1,0-0.2-0.1-0.2-0.1c0-0.1,0-0.1,0.1-0.1L156.4,80.8z"/>
<path class="st15" d="M140.4,87.2c-0.3,0-0.5,0.2-0.5,0.4c0,0,0,0,0,0c-0.1,2.1,0.8,4.2,2.3,5.7c0.2,0.2,0.5,0.2,0.6,0l6.1-5.8
	c0.1-0.1,0.1-0.2,0-0.2c0,0-0.1-0.1-0.1-0.1L140.4,87.2z"/>
<path class="st15" d="M149.9,77.9c0-0.3,0.2-0.5,0.5-0.5l0,0c2.1,0,4.2,0.8,5.6,2.4c0.2,0.2,0.2,0.5,0,0.6l-5.9,6.1
	c-0.1,0.1-0.2,0.1-0.2,0c0,0-0.1-0.1-0.1-0.1L149.9,77.9z"/>
<path class="st15" d="M143.2,93.7c-0.2,0.2-0.2,0.5,0,0.7c1.5,1.5,3.5,2.4,5.7,2.4c0.2,0,0.4-0.2,0.4-0.4l0.2-8.4
	c0-0.1-0.1-0.2-0.1-0.2c-0.1,0-0.1,0-0.1,0.1L143.2,93.7z"/>
<path class="st15" d="M140.4,86.8c-0.3,0-0.5-0.2-0.5-0.5v0c0-2.1,0.9-4.2,2.4-5.7c0.2-0.2,0.5-0.2,0.6,0l6,5.9
	c0.1,0.1,0.1,0.2,0,0.2c0,0-0.1,0.1-0.1,0.1L140.4,86.8z"/>
<path class="st15" d="M156.3,93.5c0.2,0.2,0.5,0.2,0.6,0c1.5-1.5,2.4-3.5,2.4-5.7c0-0.2-0.2-0.4-0.4-0.4l-8.4-0.2
	c-0.1,0-0.2,0.1-0.2,0.1c0,0.1,0,0.1,0.1,0.1L156.3,93.5z"/>
<path class="st14" d="M146.8,86.2c0.4,0.3,1,0.5,1.5,0.3c0,0,0.1,0,0.1-0.1c0,0,0,0,0,0c-0.2-0.5-0.7-0.8-1.3-0.9
	c-0.2,0-0.4,0.2-0.4,0.4C146.7,86.1,146.7,86.2,146.8,86.2z"/>
<path class="st14" d="M148.9,89.9c0.3-0.4,0.5-1,0.3-1.5c0,0,0-0.1-0.1-0.1c0,0,0,0,0,0c-0.5,0.2-0.8,0.7-0.9,1.3
	c0,0.2,0.2,0.4,0.4,0.4C148.7,90.1,148.8,90,148.9,89.9z"/>
<path class="st14" d="M151.1,84.6c-0.1,0.5-0.4,1-0.9,1.3c0,0-0.1,0-0.1,0c0,0,0,0,0,0c-0.2-0.5-0.1-1.1,0.3-1.5
	c0.2-0.2,0.4-0.2,0.6,0C151.1,84.4,151.1,84.5,151.1,84.6z"/>
<path class="st14" d="M152.1,88.6c-0.5-0.1-1-0.4-1.3-0.9c0,0,0-0.1,0-0.1c0,0,0,0,0,0c0.5-0.2,1.1-0.1,1.5,0.3
	c0.2,0.2,0.2,0.4,0,0.6C152.4,88.6,152.3,88.6,152.1,88.6z"/>
<path class="st16" d="M146.6,80.3c0.4,1.1,1,2.2,1.8,3.2c0.1,0.1,0.1,0.1,0.1,0c-0.2-1.2-0.7-2.3-1.3-3.3c-0.1-0.2-0.3-0.4-0.6-0.5
	C146.6,79.8,146.6,80.1,146.6,80.3z"/>
<path class="st16" d="M144.9,80.4c0.6,0.9,1.3,1.7,2.1,2.4c0.1,0.1,0.1,0.1,0.1-0.1c-0.5-0.9-1.1-1.8-1.8-2.6
	c-0.1-0.2-0.3-0.3-0.5-0.3C144.7,80,144.8,80.2,144.9,80.4z"/>
<path class="st16" d="M147.8,78.7c0.1,0.9,0.3,1.7,0.7,2.5c0,0.1,0.1,0.1,0.1,0c0-0.9-0.1-1.7-0.3-2.5c-0.1-0.2-0.2-0.3-0.3-0.5
	C147.8,78.4,147.8,78.6,147.8,78.7z"/>
<path class="st16" d="M152.6,79.8c-0.6,1-1.1,2.2-1.4,3.4c0,0.1,0,0.2,0.1,0.1c0.8-0.9,1.4-2,1.8-3.1c0.1-0.2,0.1-0.5,0-0.7
	C152.9,79.5,152.8,79.7,152.6,79.8z"/>
<path class="st16" d="M151.1,79c-0.3,1-0.5,2.1-0.5,3.1c0,0.1,0,0.1,0.1,0c0.4-1,0.7-2,0.9-3c0-0.2,0-0.4-0.1-0.6
	C151.3,78.6,151.2,78.8,151.1,79z"/>
<path class="st16" d="M154.3,80.2c-0.6,0.6-1.1,1.4-1.5,2.2c0,0.1,0,0.1,0.1,0.1c0.7-0.5,1.3-1.1,1.7-1.8c0.1-0.2,0.2-0.4,0.1-0.6
	C154.5,80,154.4,80.1,154.3,80.2z"/>
<path class="st16" d="M152.1,93.6c-0.5-1.1-0.9-2.3-1-3.5c0-0.1,0-0.2,0.1,0c0.7,1,1.1,2.1,1.4,3.3c0.1,0.2,0,0.5-0.1,0.7
	C152.3,94.1,152.2,93.9,152.1,93.6z"/>
<path class="st16" d="M150.7,94.8c-0.2-1-0.3-2.1-0.2-3.2c0-0.1,0-0.1,0.1,0c0.3,1,0.5,2,0.5,3.1c0,0.2,0,0.4-0.2,0.6
	C150.9,95.2,150.8,95,150.7,94.8z"/>
<path class="st16" d="M154,93.9c-0.5-0.7-1-1.5-1.2-2.3c0-0.1,0-0.1,0.1-0.1c0.6,0.6,1.1,1.2,1.5,2c0.1,0.2,0.1,0.4,0.1,0.6
	C154.3,94.1,154.1,94,154,93.9z"/>
<path class="st16" d="M156.7,89.7c-1.2-0.3-2.3-0.8-3.3-1.5c-0.1-0.1-0.1-0.1,0-0.1c1.2,0.1,2.4,0.5,3.4,1c0.2,0.1,0.4,0.3,0.5,0.5
	C157.2,89.8,156.9,89.8,156.7,89.7z"/>
<path class="st16" d="M156.2,91.4c-0.9-0.5-1.8-1.1-2.5-1.9c-0.1-0.1-0.1-0.1,0-0.1c1,0.4,1.9,0.9,2.8,1.5c0.2,0.1,0.3,0.3,0.4,0.5
	C156.6,91.6,156.4,91.5,156.2,91.4z"/>
<path class="st16" d="M157.6,88.4c-0.9,0-1.8-0.2-2.6-0.5c-0.1,0-0.1-0.1,0-0.1c0.8-0.1,1.7-0.1,2.5,0.1c0.2,0,0.4,0.1,0.5,0.3
	C157.9,88.3,157.8,88.4,157.6,88.4z"/>
<path class="st16" d="M142.9,84c1.2,0.4,2.2,1,3.2,1.7c0.1,0.1,0.1,0.1,0,0.1c-1.2-0.2-2.3-0.7-3.4-1.2c-0.2-0.1-0.4-0.3-0.5-0.6
	C142.5,83.9,142.7,83.9,142.9,84z"/>
<path class="st16" d="M143.1,82.2c0.9,0.5,1.7,1.2,2.4,2c0.1,0.1,0.1,0.1-0.1,0.1c-1-0.5-1.8-1-2.6-1.8c-0.2-0.1-0.3-0.3-0.3-0.5
	C142.7,82,142.9,82,143.1,82.2z"/>
<path class="st16" d="M141.4,85.1c0.9,0.1,1.7,0.3,2.5,0.7c0.1,0,0.1,0.1,0,0.1c-0.9,0.1-1.7,0-2.5-0.3c-0.2-0.1-0.3-0.2-0.5-0.3
	C141.1,85.2,141.2,85.1,141.4,85.1z"/>
<path class="st16" d="M142.6,90c1-0.6,2.2-1.1,3.4-1.4c0.1,0,0.2,0,0.1,0.1c-0.9,0.8-2,1.4-3.1,1.8c-0.2,0.1-0.5,0.1-0.7,0
	C142.2,90.3,142.4,90.1,142.6,90z"/>
<path class="st16" d="M141.7,88.4c1-0.3,2-0.5,3.1-0.5c0.1,0,0.1,0,0,0.1c-0.9,0.5-2,0.8-3,0.9c-0.2,0-0.4,0-0.6-0.1
	C141.3,88.6,141.5,88.5,141.7,88.4z"/>
<path class="st16" d="M142.9,91.6c0.6-0.6,1.4-1.1,2.1-1.5c0.1,0,0.1,0,0.1,0.1c-0.5,0.7-1.1,1.3-1.8,1.8c-0.2,0.1-0.4,0.2-0.6,0.1
	C142.8,91.9,142.8,91.7,142.9,91.6z"/>
<path class="st16" d="M157.2,84.2c-1.1,0.6-2.2,1-3.4,1.2c-0.1,0-0.2,0-0.1-0.1c1-0.7,2.1-1.2,3.2-1.6c0.2-0.1,0.5-0.1,0.7,0
	C157.6,83.9,157.4,84.1,157.2,84.2z"/>
<path class="st16" d="M157.9,85.8c-1,0.3-2.1,0.4-3.1,0.3c-0.1,0-0.1,0,0-0.1c1-0.4,2-0.6,3.1-0.7c0.2,0,0.4,0,0.6,0.1
	C158.3,85.6,158.1,85.7,157.9,85.8z"/>
<path class="st16" d="M156.9,82.5c-0.7,0.6-1.4,1-2.2,1.4c-0.1,0-0.1,0-0.1-0.1c0.6-0.7,1.2-1.2,2-1.6c0.2-0.1,0.4-0.1,0.6-0.1
	C157.2,82.3,157.1,82.4,156.9,82.5z"/>
<path class="st16" d="M146.5,94.5c0.3-1.2,0.9-2.3,1.5-3.3c0.1-0.1,0.1-0.1,0.1,0c-0.2,1.2-0.5,2.4-1.1,3.4
	c-0.1,0.2-0.3,0.4-0.5,0.5C146.5,94.9,146.5,94.7,146.5,94.5z"/>
<path class="st16" d="M144.8,93.9c0.5-0.9,1.2-1.8,1.9-2.5c0.1-0.1,0.1-0.1,0.1,0c-0.4,1-0.9,1.9-1.6,2.7c-0.1,0.2-0.3,0.3-0.5,0.3
	C144.7,94.3,144.7,94.1,144.8,93.9z"/>
<path class="st16" d="M147.9,95.4c0-0.9,0.2-1.7,0.6-2.6c0-0.1,0.1-0.1,0.1,0c0.1,0.8,0.1,1.7-0.2,2.5c0,0.2-0.2,0.4-0.3,0.5
	C147.9,95.7,147.9,95.6,147.9,95.4z"/>
<ellipse transform="matrix(0.9667 -0.2558 0.2558 0.9667 -30.869 41.6886)" class="st17" cx="144.8" cy="139.5" rx="2.9" ry="3.3"/>
<ellipse transform="matrix(0.2095 -0.9778 0.9778 0.2095 -20.2968 248.5793)" class="st18" cx="143.6" cy="136.8" rx="1.3" ry="1"/>
<linearGradient id="SVGID_5_" gradientUnits="userSpaceOnUse" x1="231.6398" y1="3.788" x2="231.6398" y2="-7.252" gradientTransform="matrix(0.9895 -0.1445 -0.1445 -0.9895 -102.0711 172.9723)">
	<stop  offset="0.38" style="stop-color:#EE3624"/>
	<stop  offset="1" style="stop-color:#A82723"/>
</linearGradient>
<path class="st19" d="M126.9,136.3c-0.4,0.3-0.9,0.4-1.4,0.4c-1.5-0.1-2.9,0.5-3.9,1.6c-1.6,2.1-0.2,5.4,1.7,7c2.8,2.3,6.5,1,6.7,1
	c1-0.4,1.9-1.1,2.6-2c1.9-2.8,1.3-7.6-1.3-8.7C129.6,134.9,127.8,135.7,126.9,136.3z"/>
<path class="st12" d="M164.9,137.4c0-6.3-5.1-11.4-11.4-11.4c-4.6,0-8.8,2.8-10.5,7.1l21.1,8.5C164.6,140.3,164.9,138.9,164.9,137.4
	z"/>
<path class="st13" d="M163.9,141.5l-20.6-8.3c2.2-5.7,8.6-8.6,14.3-6.5c5.7,2.2,8.6,8.6,6.5,14.3C164.1,141.2,164,141.4,163.9,141.5
	z"/>
<path class="st14" d="M163,141c0,0,0,0.1,0,0.1l-18.7-7.5c0,0,0.1-0.1,0.1-0.1l0.1-0.2c0-0.1,0.1-0.1,0.1-0.2c0,0,0-0.1,0.1-0.1
	c0,0,0-0.1,0-0.2c0.1-0.1,0.1-0.2,0.2-0.2c0.1-0.1,0.1-0.1,0.2-0.2c0.1-0.1,0.1-0.1,0.1-0.2c0-0.1,0-0.1,0.1-0.1
	c0-0.1,0-0.1,0.1-0.2c0-0.1,0.1-0.2,0.2-0.3c0-0.1,0.1-0.2,0.1-0.2l0.1-0.1c0,0,0.1,0,0.1,0v-0.1h0.1c0-0.1,0-0.2,0-0.3
	c0-0.1,0.1-0.2,0.1-0.2c0,0,0,0,0.1,0c0,0,0-0.1,0-0.1c0-0.1,0.1-0.2,0.2-0.2c0.1-0.1,0.2-0.1,0.3-0.1c0-0.1,0-0.1,0-0.2
	c0-0.1,0.1-0.1,0.1-0.2c0.1-0.1,0.1-0.2,0.2-0.3c0.1-0.1,0.3-0.2,0.4-0.3c0.1,0,0.1,0,0.2-0.1l0.1-0.1c0,0,0.1,0,0.1,0
	c0,0,0.1-0.1,0.1-0.1c0.1,0,0.1,0,0.2-0.1c0.1,0,0.1-0.1,0.2-0.2c0.1-0.1,0.1-0.1,0.2-0.2c0.1-0.1,0.2-0.1,0.2-0.1
	c0.1,0,0.2,0,0.4,0c0.1,0,0.2,0,0.4,0l0.2-0.1c0,0,0.1,0,0.1-0.1v-0.1c0,0,0,0,0.1,0c0.1-0.1,0.2-0.2,0.3-0.3c0.1,0,0.2,0,0.2,0
	c0.1,0,0.1,0,0.2,0c0.1-0.1,0.2-0.1,0.4-0.2c0.1,0,0.2,0,0.4,0c0.1,0,0.1-0.1,0.2-0.1l0.2-0.2c0,0,0.1-0.1,0.1-0.1
	c0.1,0,0.1,0,0.1,0.1c0.1,0.1,0.2,0.1,0.3,0.1c0.1,0,0.2,0,0.4,0l0.2-0.1c0.1,0,0.7-0.3,0.8-0.1h0.9c0.1,0,0.2,0,0.3,0
	c0.1,0,0.1,0.1,0.2,0.1l0.2,0.1c0.2,0.1,0.3,0.1,0.5,0.1c0.1,0,0.1,0,0.2,0h0.3c0.2,0,0.3,0,0.5,0.1l0.2,0.1
	c0.1,0.1,0.2,0.1,0.3,0.2c0.1,0,0.1,0.1,0.2,0.1h0.1l0,0h0.1c0,0,0.1,0,0.1,0c0.1,0,0.1,0,0.2,0h0.1c0,0,0.1,0,0.1,0
	c0,0,0.1,0,0.1,0.1l0.1,0.1l0,0c0,0,0,0,0.1,0.1c0.1,0,0.2,0,0.2,0.1c0.1,0,0.1,0.1,0.2,0.1c0.1,0,0.1,0.1,0.2,0.2
	c0.1,0.1,0.2,0.2,0.3,0.2c0.1,0.1,0.3,0.1,0.4,0.1c0.1,0,0.3,0.1,0.4,0.1c0,0,0.1,0.1,0.1,0.1v0.1c0,0,0,0,0.1,0l0,0
	c0.1,0.1,0.1,0.2,0.2,0.2l0.2,0.2c0.1,0.1,0.2,0.2,0.3,0.2v0.1c0,0,0.1,0,0.1,0c0,0,0.1,0,0.1,0c0,0.1,0,0.2,0,0.2
	c0,0.1,0.1,0.2,0.2,0.3c0.1,0.1,0.2,0.2,0.3,0.3c0,0,0.1,0,0.1,0c0,0,0,0.1,0.1,0.1c0,0,0.1,0,0.1,0c0,0,0.1,0.1,0.1,0.1
	c0,0.1,0,0.1,0.1,0.1c0,0.1,0.1,0.1,0.1,0.2c0,0,0,0.1,0,0.1v0.1c0,0,0,0.1,0,0.1l0.1,0.1c0,0.1,0,0.1,0,0.2c0,0.1,0.1,0.1,0.1,0.2
	c0.1,0,0.1,0.1,0.2,0.1c0,0.1,0.1,0.1,0.1,0.2c0,0,0,0.1,0,0.1c0,0,0,0,0,0.1c0,0.1,0.1,0.2,0.1,0.2c0,0.1,0,0.1,0.1,0.1
	c0.1,0,0.1,0.1,0.1,0.1c0.1,0.1,0.1,0.2,0.1,0.3c0,0.1,0.1,0.1,0.1,0.2c0,0.1,0,0.2,0,0.3c0,0.2,0,0.3,0.1,0.4c0,0,0.1,0.1,0.1,0.1
	c0,0.1,0,0.2,0,0.2c0,0.1,0,0.3,0,0.5c0,0.1,0,0.2,0,0.2c0,0,0,0.1,0,0.1c0,0,0,0,0,0.1c0,0,0,0,0.1,0c0.1,0.1,0.1,0.3,0.1,0.5
	c0,0.1,0,0.2,0,0.2c0,0,0,0.1,0,0.1l0,0c0,0,0,0.1,0,0.1c0,0,0,0,0,0.1c0,0,0,0.1,0,0.1c0,0,0,0.1-0.1,0.1c0,0,0,0.1,0,0.1
	s0,0.4,0,0.6s0,0.1,0,0.2c0,0.1,0,0.2,0,0.3c0,0,0.1,0.1,0.1,0.1c0,0,0,0.1,0,0.1c0,0,0,0.1,0,0.1c0,0.1,0,0-0.1,0.1
	c0,0.1-0.1,0.2-0.1,0.2c0,0.1,0,0.2,0,0.3c0,0.2,0,0.3-0.1,0.5c0,0.1-0.1,0.3-0.1,0.4c0,0,0,0.1-0.1,0.1c0,0,0,0.1,0,0.1
	c0,0,0,0.1,0,0.1c0,0,0,0.1,0,0.1c0,0,0,0.1,0,0.1L163,141z"/>
<path class="st15" d="M150.4,129.1c-0.1-0.2,0-0.5,0.2-0.6c1.9-0.8,4-0.8,5.8,0c0.2,0.1,0.3,0.3,0.2,0.6l-2.9,7.4
	c0,0.1-0.1,0.1-0.2,0.1c0,0-0.1,0-0.1-0.1L150.4,129.1z"/>
<path class="st15" d="M161.7,134.1c0.2-0.1,0.5,0,0.6,0.2c0.8,1.8,0.8,4,0,5.8c-0.1,0.2-0.3,0.3-0.6,0.2l-7.5-2.9
	c-0.1,0-0.1-0.1-0.1-0.2c0,0,0-0.1,0.1-0.1L161.7,134.1z"/>
<path class="st15" d="M157,129.3c0.1-0.2,0.3-0.3,0.6-0.2c1.9,0.7,3.4,2.2,4.1,4.1c0.1,0.2,0,0.5-0.2,0.6l-7.3,3.2
	c-0.1,0-0.2,0-0.2-0.1c0,0,0-0.1,0-0.1L157,129.3z"/>
<path class="st15" d="M145.5,133.8c-0.2-0.1-0.3-0.3-0.2-0.6c0.7-1.9,2.2-3.4,4.1-4.1c0.2-0.1,0.5,0,0.6,0.2l3.2,7.3
	c0,0.1,0,0.2-0.1,0.2c0,0-0.1,0-0.1,0L145.5,133.8z"/>
<path class="st14" d="M151.4,135.6c0.2,0.5,0.7,0.8,1.2,0.8c0,0,0.1,0,0.1-0.1c0,0,0,0,0,0c0-0.5-0.3-1-0.8-1.2
	c-0.2-0.1-0.4,0-0.5,0.2C151.3,135.3,151.3,135.5,151.4,135.6z"/>
<path class="st14" d="M155.7,135.7c-0.2,0.5-0.7,0.8-1.2,0.8c0,0-0.1,0-0.1-0.1c0,0,0,0,0,0c0-0.5,0.3-1,0.8-1.2
	c0.2-0.1,0.4,0,0.5,0.2C155.8,135.5,155.8,135.6,155.7,135.7z"/>
<path class="st16" d="M153.3,130.2c0,1.2,0.1,2.3,0.4,3.4c0,0.1,0.1,0.1,0.1,0c0.2-1.1,0.2-2.3,0-3.4c0-0.2-0.1-0.5-0.3-0.6
	C153.4,129.8,153.3,130,153.3,130.2z"/>
<path class="st16" d="M151.7,129.8c0.2,1,0.5,1.9,1,2.8c0,0.1,0.1,0.1,0.1,0c-0.1-1-0.3-2-0.6-2.9c-0.1-0.2-0.2-0.3-0.4-0.4
	C151.7,129.4,151.7,129.6,151.7,129.8z"/>
<path class="st16" d="M154.9,129.3c-0.2,0.8-0.3,1.6-0.2,2.5c0,0.1,0,0.1,0.1,0c0.3-0.7,0.5-1.5,0.6-2.3c0-0.2,0-0.4-0.1-0.5
	C155,129,154.9,129.2,154.9,129.3z"/>
<path class="st16" d="M158.8,132c-0.9,0.7-1.7,1.5-2.4,2.5c-0.1,0.1,0,0.1,0.1,0.1c1-0.6,1.9-1.3,2.7-2.1c0.2-0.2,0.3-0.4,0.3-0.6
	C159.1,131.8,158.9,131.9,158.8,132z"/>
<path class="st16" d="M157.7,130.7c-0.6,0.8-1.2,1.6-1.5,2.6c0,0.1,0,0.1,0.1,0c0.7-0.7,1.3-1.5,1.8-2.4c0.1-0.2,0.1-0.4,0.1-0.6
	C158,130.4,157.8,130.5,157.7,130.7z"/>
<path class="st16" d="M160.1,132.9c-0.8,0.3-1.5,0.8-2.1,1.4c-0.1,0.1-0.1,0.1,0,0.1c0.8-0.2,1.5-0.5,2.2-1c0.2-0.1,0.3-0.3,0.3-0.4
	C160.3,132.8,160.2,132.8,160.1,132.9z"/>
<path class="st16" d="M148.8,132.2c0.9,0.8,1.6,1.6,2.2,2.6c0.1,0.1,0,0.1-0.1,0.1c-1-0.6-1.8-1.4-2.5-2.3c-0.2-0.2-0.2-0.4-0.2-0.7
	C148.4,131.9,148.6,132,148.8,132.2z"/>
<path class="st16" d="M149.5,130.7c0.6,0.8,1.1,1.7,1.4,2.6c0,0.1,0,0.1-0.1,0c-0.7-0.7-1.3-1.6-1.7-2.5c-0.1-0.2-0.1-0.4-0.1-0.6
	C149.2,130.3,149.4,130.5,149.5,130.7z"/>
<path class="st16" d="M147,132.7c0.8,0.4,1.4,0.9,2,1.5c0.1,0.1,0.1,0.1,0,0.1c-0.8-0.2-1.5-0.6-2.1-1.1c-0.1-0.1-0.2-0.3-0.3-0.5
	C146.7,132.6,146.9,132.6,147,132.7z"/>
<path class="st16" d="M161.2,137.4c-1.2,0.1-2.3,0-3.4-0.2c-0.1,0-0.1-0.1,0-0.1c1.1-0.3,2.3-0.4,3.4-0.2c0.2,0,0.5,0.1,0.6,0.3
	C161.7,137.3,161.4,137.4,161.2,137.4z"/>
<path class="st16" d="M161.3,139c-1-0.1-2-0.4-2.9-0.8c-0.1,0-0.1-0.1,0-0.1c1,0,2,0.2,2.9,0.5c0.2,0.1,0.4,0.2,0.5,0.3
	C161.7,139,161.5,139.1,161.3,139z"/>
<path class="st16" d="M161.6,135.9c-0.8,0.3-1.6,0.4-2.4,0.4c-0.1,0-0.1,0,0-0.1c0.7-0.4,1.5-0.6,2.3-0.7c0.2,0,0.4,0,0.5,0.1
	C161.9,135.7,161.7,135.8,161.6,135.9z"/>
<path class="st20" d="M128.3,137.9c-0.6,0.8-1.7,1.2-2.6,0.8h-0.1c-0.4-0.1-1.1-0.5-1.1-0.9s0.9-0.5,1.7-0.5c0.2,0,0.4-0.1,0.6-0.2
	c0.6-0.4,1.5-1,1.8-0.7c0.1,0.5,0.1,1-0.2,1.4L128.3,137.9z"/>
<path class="st12" d="M163.9,120.4c1.5-7.1-3-14.1-10.1-15.6c-5.2-1.1-10.5,1-13.5,5.3L162,125C162.9,123.6,163.5,122.1,163.9,120.4
	z"/>
<path class="st13" d="M161.8,124.9l-21.2-14.5c3.9-5.9,11.9-7.5,17.8-3.6c5.9,3.9,7.5,11.9,3.6,17.8
	C161.9,124.7,161.8,124.8,161.8,124.9z"/>
<path class="st14" d="M160.8,124c0,0-0.1,0.1-0.1,0.2L141.5,111c0,0,0.1-0.1,0.1-0.1l0.2-0.2c0-0.1,0.1-0.1,0.1-0.2
	c0,0,0.1-0.1,0.1-0.1c0,0,0-0.1,0.1-0.2c0.1-0.1,0.2-0.1,0.3-0.2c0.1-0.1,0.2-0.1,0.2-0.2c0.1,0,0.1-0.1,0.1-0.2
	c0-0.1,0.1-0.1,0.1-0.2c0-0.1,0.1-0.1,0.1-0.2c0.1-0.1,0.2-0.2,0.3-0.3c0.1-0.1,0.1-0.2,0.2-0.2l0.1-0.1c0,0,0.1,0,0.1,0v-0.1h0.1
	c0.1-0.1,0-0.2,0.1-0.3c0.1-0.1,0.1-0.2,0.2-0.3c0,0,0.1,0,0.1,0c0,0,0-0.1,0-0.1c0.1-0.1,0.2-0.2,0.3-0.2c0.1,0,0.2,0,0.4-0.1
	c0-0.1,0.1-0.2,0.1-0.2l0.1-0.2c0.1-0.1,0.2-0.2,0.3-0.3c0.2-0.1,0.4-0.2,0.6-0.2c0.1,0,0.2,0,0.2,0l0.2-0.1c0,0,0.1,0,0.1,0
	c0,0,0.1,0,0.2-0.1c0.1,0,0.2,0,0.2,0c0.1,0,0.2-0.1,0.2-0.2c0.1-0.1,0.2-0.1,0.3-0.1c0.1,0,0.2-0.1,0.3-0.1c0.1,0,0.3,0,0.4,0
	c0.1,0,0.3,0.1,0.4,0.1c0.1,0,0.2,0,0.3-0.1c0.1,0,0.1,0,0.2-0.1c0,0,0-0.1,0-0.1c0,0,0,0,0.1,0c0.1,0,0.2,0,0.3,0
	c0.1,0,0.2,0,0.3,0c0.1,0,0.2,0,0.2,0c0.2,0,0.3-0.1,0.4-0.2c0.1,0,0.3,0,0.4,0.1c0.1,0,0.2,0,0.3,0l0.3-0.1c0,0,0.1,0,0.1,0
	c0.1,0,0.1,0,0.1,0.1c0.1,0.1,0.2,0.2,0.4,0.2c0.1,0,0.3,0,0.4,0h0.2c0.1,0,0.9-0.2,0.9,0.1l0.7,0.2l0.3,0.1c0.1,0,0.2,0,0.3,0.1
	c0.1,0,0.1,0.1,0.1,0.2c0.1,0.1,0.1,0.1,0.2,0.2c0.2,0.1,0.3,0.2,0.5,0.3c0.1,0,0.1,0.1,0.2,0.1l0.3,0.1c0.2,0,0.4,0.1,0.5,0.2
	c0.1,0,0.1,0.1,0.2,0.2c0.1,0.1,0.2,0.1,0.3,0.2c0,0.1,0.1,0.1,0.2,0.1l0.1,0.1l0,0c0,0,0.1,0,0.1,0c0,0,0.1,0,0.1,0.1
	c0.1,0,0.2,0,0.2,0.1s0.1,0,0.1,0.1s0.1,0,0.2,0c0,0,0.1,0.1,0.1,0.1l0.1,0.1l0,0c0,0,0,0.1,0.1,0.1c0.1,0.1,0.2,0.1,0.2,0.2
	c0.1,0,0.1,0.1,0.2,0.2c0.1,0.1,0.1,0.1,0.2,0.2c0.1,0.1,0.2,0.3,0.3,0.3c0.1,0.1,0.3,0.2,0.4,0.2c0.1,0,0.3,0.1,0.4,0.2
	c0,0.1,0,0.1,0,0.2c0,0,0,0.1,0,0.1c0,0,0,0,0.1,0.1l0,0c0.1,0.1,0.1,0.2,0.2,0.3c0.1,0.1,0.1,0.2,0.2,0.3c0.1,0.1,0.2,0.3,0.3,0.3
	c0,0,0,0,0,0.1c0,0,0.1,0.1,0.1,0.1c0,0,0.1,0,0.1,0.1c0,0.1,0,0.2,0,0.3c0,0.1,0.1,0.3,0.2,0.4c0.1,0.2,0.2,0.3,0.3,0.4
	c0,0,0.1,0.1,0.1,0.1c0,0,0,0.1,0.1,0.1c0,0,0.1,0.1,0.1,0.1c0,0,0.1,0.1,0.1,0.1c0,0.1,0,0.1,0,0.2c0,0.1,0.1,0.2,0.1,0.2
	c0,0,0,0.1,0,0.1c0,0,0,0,0,0.1s0,0.1,0,0.1c0,0,0,0.1,0.1,0.1c0,0.1,0,0.2,0,0.2c0,0.1,0,0.2,0.1,0.2c0.1,0.1,0.1,0.1,0.2,0.2
	c0,0.1,0,0.2,0,0.2c0,0,0,0.1,0,0.1c0,0,0,0.1,0,0.1c0,0.1,0,0.2,0.1,0.3c0,0.1,0,0.1,0,0.2c0.1,0.1,0.1,0.1,0.1,0.2
	c0,0.1,0.1,0.2,0.1,0.4c0,0.1,0.1,0.2,0.1,0.2c0,0.1,0,0.2-0.1,0.3c0,0.2,0,0.4,0,0.5c0,0.1,0,0.1,0,0.2c0,0.1,0,0.2,0,0.3
	c0,0.2-0.1,0.4-0.1,0.5c0,0.1,0,0.2-0.1,0.3c0,0,0,0.1,0,0.1c0,0,0,0,0,0.1c0,0,0,0,0.1,0.1c0.1,0.2,0.1,0.4,0,0.6
	c0,0.1,0,0.2-0.1,0.2l-0.1,0.1l0,0c0,0,0,0.1,0,0.1c0,0,0,0-0.1,0.1c0,0,0,0.1,0,0.1c0,0-0.1,0.1-0.1,0.1v0.1c0,0.2-0.1,0.4-0.1,0.7
	s0,0.2-0.1,0.3c0,0.1-0.1,0.2-0.1,0.3c0,0.1,0,0.1,0,0.2c0,0,0,0.1,0,0.1c0,0,0,0.1,0,0.1c0,0.1,0,0.1-0.1,0.1
	c-0.1,0.1-0.1,0.2-0.2,0.2c-0.1,0.1-0.1,0.2-0.1,0.3c0,0.2-0.1,0.4-0.2,0.5c-0.1,0.1-0.1,0.3-0.2,0.4c0,0-0.1,0.1-0.1,0.1
	c0,0-0.1,0.1-0.1,0.1c0,0,0,0.1,0,0.1c0,0,0,0.1-0.1,0.1c0,0,0,0.1,0,0.1L160.8,124z"/>
<path class="st15" d="M149.5,107.4c0-0.3,0.1-0.5,0.4-0.6c2.3-0.5,4.7,0.1,6.6,1.4c0.2,0.2,0.3,0.5,0.1,0.7l-5.1,7.7
	c-0.1,0.1-0.2,0.1-0.2,0.1c0,0-0.1-0.1-0.1-0.1L149.5,107.4z"/>
<path class="st15" d="M161.1,115.9c0.3,0,0.5,0.1,0.6,0.4c0.5,2.3-0.1,4.7-1.4,6.6c-0.2,0.2-0.5,0.3-0.7,0.1l-7.7-5.1
	c-0.1-0.1-0.1-0.2-0.1-0.2c0,0,0.1-0.1,0.1-0.1L161.1,115.9z"/>
<path class="st15" d="M157,109.3c0.2-0.2,0.5-0.3,0.7-0.1c1.9,1.3,3.3,3.3,3.6,5.7c0,0.3-0.1,0.5-0.4,0.6l-9.1,1.8
	c-0.1,0-0.2,0-0.2-0.1c0,0,0-0.1,0-0.1L157,109.3z"/>
<path class="st15" d="M142.9,111.5c-0.2-0.2-0.3-0.5-0.1-0.7c1.3-1.9,3.4-3.3,5.7-3.6c0.3,0,0.5,0.1,0.6,0.4l1.9,9.1
	c0,0.1,0,0.2-0.1,0.2c0,0-0.1,0-0.1,0L142.9,111.5z"/>
<path class="st14" d="M149.1,115c0.2,0.6,0.6,1,1.2,1.2c0,0,0.1,0,0.1,0c0,0,0,0,0,0c0.1-0.6-0.1-1.2-0.6-1.6
	c-0.2-0.1-0.5-0.1-0.7,0.1C149.1,114.8,149,114.9,149.1,115z"/>
<path class="st14" d="M154,116.2c-0.4,0.5-1,0.7-1.6,0.6c0,0-0.1,0-0.1-0.1c0,0,0,0,0-0.1c0.2-0.6,0.6-1,1.2-1.2
	c0.3-0.1,0.5,0.1,0.6,0.4C154.1,115.9,154.1,116.1,154,116.2z"/>
<path class="st16" d="M152.6,109.4c-0.3,1.3-0.5,2.7-0.4,4c0,0.2,0.1,0.2,0.1,0c0.5-1.2,0.8-2.5,0.9-3.8c0-0.3,0-0.6-0.2-0.8
	C152.8,109,152.7,109.2,152.6,109.4z"/>
<path class="st16" d="M150.9,108.5c0,1.2,0.1,2.3,0.4,3.4c0,0.1,0.1,0.1,0.1,0c0.2-1.1,0.2-2.3,0-3.4c0-0.2-0.1-0.4-0.3-0.6
	C151,108,150.9,108.3,150.9,108.5z"/>
<path class="st16" d="M154.6,108.8c-0.5,0.9-0.8,1.8-0.9,2.7c0,0.1,0,0.1,0.1,0.1c0.6-0.7,1-1.6,1.3-2.5c0.1-0.2,0.1-0.4,0-0.6
	C154.8,108.5,154.7,108.6,154.6,108.8z"/>
<path class="st16" d="M158.3,112.8c-1.2,0.6-2.3,1.3-3.3,2.2c-0.1,0.1-0.1,0.2,0,0.1c1.3-0.4,2.5-1,3.5-1.7c0.2-0.2,0.4-0.4,0.5-0.7
	C158.8,112.6,158.5,112.7,158.3,112.8z"/>
<path class="st16" d="M157.4,111c-0.9,0.7-1.7,1.6-2.4,2.5c-0.1,0.1,0,0.1,0.1,0.1c1-0.6,1.9-1.3,2.7-2.2c0.2-0.2,0.3-0.4,0.3-0.6
	C157.8,110.8,157.6,110.9,157.4,111z"/>
<path class="st16" d="M159.5,114.1c-0.9,0.2-1.9,0.5-2.7,1c-0.1,0.1-0.1,0.1,0,0.1c0.9,0,1.9-0.2,2.7-0.6c0.2-0.1,0.4-0.2,0.5-0.4
	C159.9,114.1,159.7,114,159.5,114.1z"/>
<path class="st16" d="M147,110.5c0.8,1.1,1.4,2.3,1.8,3.5c0.1,0.1,0,0.2-0.1,0.1c-0.9-0.9-1.7-2-2.3-3.2c-0.1-0.2-0.2-0.5-0.1-0.8
	C146.6,110.1,146.8,110.2,147,110.5z"/>
<path class="st16" d="M148.2,109c0.5,1.1,0.8,2.2,0.9,3.3c0,0.1,0,0.1-0.1,0c-0.6-1-1-2.1-1.3-3.2c-0.1-0.2-0.1-0.5,0-0.7
	C147.9,108.6,148.1,108.8,148.2,109z"/>
<path class="st16" d="M144.9,110.6c0.7,0.6,1.4,1.4,1.9,2.2c0.1,0.1,0,0.1-0.1,0.1c-0.8-0.5-1.5-1.1-2.1-1.8
	c-0.1-0.2-0.2-0.4-0.2-0.6C144.5,110.4,144.7,110.5,144.9,110.6z"/>
<path class="st16" d="M159.7,119.5c-1.3-0.2-2.6-0.5-3.8-1.1c-0.1-0.1-0.1-0.1,0-0.1c1.3,0,2.6,0.2,3.9,0.6c0.3,0.1,0.5,0.3,0.7,0.5
	C160.2,119.5,160,119.5,159.7,119.5z"/>
<path class="st16" d="M159.4,121.4c-1.1-0.4-2.1-1-3-1.6c-0.1-0.1-0.1-0.1,0-0.1c1.1,0.3,2.2,0.7,3.2,1.3c0.2,0.1,0.4,0.3,0.4,0.5
	C159.9,121.5,159.6,121.5,159.4,121.4z"/>
<path class="st16" d="M160.5,117.8c-1,0.1-1.9,0.1-2.9-0.2c-0.1,0-0.1-0.1,0-0.1c0.9-0.3,1.8-0.3,2.8-0.3c0.2,0,0.4,0.1,0.6,0.2
	C160.9,117.7,160.7,117.8,160.5,117.8z"/>
<ellipse transform="matrix(0.9851 -0.1719 0.1719 0.9851 -22.3091 25.8189)" class="st17" cx="137.9" cy="141.7" rx="3.4" ry="2.7"/>
<ellipse transform="matrix(0.2095 -0.9778 0.9778 0.2095 -26.2459 246.9994)" class="st18" cx="139.6" cy="139.7" rx="1" ry="1.3"/>
<path class="st21" d="M125.8,145.3c-2.9-1.1-4.3-3.9-3.5-6c0.1-0.4,0.4-0.8,0.6-1.1c0.2-0.2,0.4-0.2,0.6,0c0.1,0.1,0.2,0.3,0.1,0.5
	c-0.2,0.4-0.4,0.9-0.5,1.3C122.8,142.1,123.8,144.2,125.8,145.3z"/>
<path class="st21" d="M131.5,143.8c1.8-2.5,1.3-5.6-0.5-7c-0.3-0.2-0.7-0.4-1.1-0.5c-0.2-0.1-0.5,0.1-0.5,0.3
	c-0.1,0.2,0,0.4,0.2,0.5c0.4,0.2,0.8,0.5,1.1,0.8C132.3,139.5,132.6,141.9,131.5,143.8z"/>
<path class="st22" d="M168.1,135.6v7.4c0,2.7-2.2,4.9-4.9,4.9l0,0h-42.7c-2.2,0-4.2-1.5-4.7-3.7c0-0.4-0.1-0.7-0.1-1.1
	c12.4,2.6,20.7,0.7,26.2-1.8c5-2.2,10.1-6,15.6-7.3l0,0c2.3-0.6,4.8-0.6,7.1,0C165.9,134.5,167,135,168.1,135.6z"/>
<linearGradient id="SVGID_6_" gradientUnits="userSpaceOnUse" x1="154.31" y1="66.6109" x2="165.17" y2="66.6109" gradientTransform="matrix(1 0 0 -1 0 185.28)">
	<stop  offset="5.000000e-02" style="stop-color:#6D0E16"/>
	<stop  offset="0.46" style="stop-color:#D72129"/>
	<stop  offset="0.6" style="stop-color:#EE212C"/>
	<stop  offset="0.83" style="stop-color:#E7212C"/>
	<stop  offset="1" style="stop-color:#E64B4B"/>
</linearGradient>
<path class="st23" d="M163.4,119.9c0.3-0.1,0.6-0.4,0.8-0.6c0.3-0.4,0.5-0.9,0.5-1.4c0.4-0.3,0.5-0.9,0.4-1.3
	c-0.1-0.3-0.3-0.6-0.6-0.8c-0.4-1.2-1.1-1.9-1.7-1.8c-0.2,0-0.4,0.1-0.5,0.2c-0.3-0.4-0.7-0.6-1.2-0.7c-0.2,0-0.4,0.1-0.6,0.2
	c-0.3-0.3-0.6-0.4-1-0.3c-0.2,0.1-0.3,0.2-0.4,0.3c-0.3-0.3-0.8-0.3-1.1-0.1c-0.1,0.1-0.2,0.2-0.2,0.2c-0.2-0.2-0.6-0.2-0.8,0
	c-0.1,0.1-0.1,0.2-0.1,0.3c-0.2-0.1-0.5-0.1-0.7,0c-0.1,0.1-0.3,0.2-0.4,0.3c-0.3,0.1-0.5,0.3-0.7,0.6c-0.2,0.3-0.2,0.8-0.1,1.1
	c-0.4,0.2-0.7,0.5-0.8,0.9c-0.1,0.3-0.1,0.6,0.1,0.8c-0.1,0.4,0.1,0.8,0.4,1c-0.2,0.3-0.2,0.7,0.1,0.9c0.1,0.1,0.2,0.1,0.3,0.1
	c-0.1,0.1-0.1,0.2-0.1,0.3c0.1,0.4,0.4,0.7,0.9,0.8c-0.1,0.2-0.1,0.3,0,0.5c0.2,0.4,0.5,0.6,0.9,0.5c0,0.1,0.1,0.2,0.1,0.2
	c0.3,0.5,0.8,0.7,1.4,0.8c0,0.2,0.1,0.4,0.2,0.5c0.5,0.5,1.5,0.5,2.6-0.1c0.2,0.1,0.4,0.1,0.6,0c0.4-0.1,0.7-0.5,0.8-0.9
	C163.2,121.8,163.5,120.8,163.4,119.9z"/>
<path class="st7" d="M164,115.4c-0.2-0.4-0.5-0.7-0.9-0.9c-0.1,0-0.2,0-0.2,0.1c0,0.1,0,0.2,0,0.3
	C163.2,115.2,163.6,115.4,164,115.4z"/>
<path class="st8" d="M163.4,116.5c-0.2-0.4-0.5-0.7-0.9-0.9c-0.1,0-0.2,0-0.2,0.1c0,0.1,0,0.2,0,0.3
	C162.5,116.3,162.9,116.5,163.4,116.5z"/>
<path class="st8" d="M162.7,117.6c-0.2-0.4-0.6-0.6-1-0.8c-0.1,0-0.2,0-0.2,0.1c0,0.1,0,0.2,0,0.3
	C161.8,117.5,162.3,117.6,162.7,117.6z"/>
<path class="st7" d="M162.1,118.6c-0.2-0.3-0.6-0.6-1-0.7c-0.1,0-0.1,0-0.2,0.1c0,0.1,0,0.2,0.1,0.3
	C161.3,118.5,161.7,118.7,162.1,118.6z"/>
<path class="st7" d="M161.7,119.8c-0.3-0.3-0.7-0.5-1.1-0.5c-0.1,0-0.1,0.1-0.2,0.1c0,0.1,0,0.2,0.1,0.3
	C160.9,119.9,161.3,119.9,161.7,119.8z"/>
<path class="st7" d="M161.2,121c-0.3-0.3-0.7-0.5-1.1-0.5c-0.1,0-0.1,0.1-0.2,0.1c0,0.1,0,0.2,0.1,0.3
	C160.4,121.1,160.9,121.1,161.2,121z"/>
<path class="st7" d="M160.4,123.4c-0.4,0.2-0.9,0.2-1.3,0c-0.1-0.1-0.1-0.1-0.1-0.2c0-0.1,0.1-0.2,0.2-0.2
	C159.7,122.9,160.1,123.1,160.4,123.4z"/>
<path class="st7" d="M160.8,122.1c-0.4,0.2-0.9,0.2-1.3,0c-0.1-0.1-0.1-0.1-0.1-0.2c0-0.1,0.1-0.2,0.2-0.2
	C160.1,121.7,160.5,121.8,160.8,122.1z"/>
<path class="st7" d="M161.1,114.1c0.4,0.1,0.7,0.3,1,0.6c0,0.1,0,0.1,0,0.2c-0.1,0.1-0.2,0.1-0.3,0.1
	C161.5,114.8,161.3,114.5,161.1,114.1z"/>
<path class="st8" d="M160.4,115.4c0.4,0,0.8,0.1,1.1,0.4c0,0.1,0,0.1,0,0.2c-0.1,0.1-0.2,0.1-0.2,0.1
	C160.9,116,160.6,115.8,160.4,115.4z"/>
<path class="st7" d="M159.7,116.9c0.4-0.1,0.8,0,1.2,0.2c0,0.1,0.1,0.1,0.1,0.2c0,0.1-0.1,0.1-0.2,0.2
	C160.3,117.4,160,117.2,159.7,116.9z"/>
<path class="st7" d="M159.3,118.1c0.4-0.1,0.7,0,1.1,0.2c0,0.1,0,0.1,0,0.2c0,0.1-0.1,0.1-0.2,0.1
	C159.8,118.6,159.5,118.4,159.3,118.1z"/>
<path class="st7" d="M158.8,119.5c0.4-0.1,0.7-0.1,1.1,0c0,0,0.1,0.1,0.1,0.2c0,0.1-0.1,0.2-0.2,0.2
	C159.4,119.8,159,119.7,158.8,119.5z"/>
<path class="st7" d="M158.2,120.9c0.4-0.1,0.7-0.1,1.1,0c0,0,0.1,0.1,0.1,0.2c0,0.1-0.1,0.2-0.2,0.2
	C158.8,121.3,158.4,121.1,158.2,120.9z"/>
<path class="st7" d="M157.7,122.1c0.3,0.3,0.6,0.5,1.1,0.5c0.1,0,0.1-0.1,0.2-0.1c0-0.1,0-0.2-0.1-0.3
	C158.4,122,158,122,157.7,122.1z"/>
<path class="st7" d="M160.6,114.8c-0.1-0.3-0.4-0.6-0.7-0.7c-0.1,0-0.1,0-0.2,0.1c0,0.1,0,0.2,0,0.2
	C160,114.7,160.3,114.8,160.6,114.8z"/>
<path class="st7" d="M160,116.1c-0.1-0.3-0.3-0.6-0.6-0.7c-0.1,0-0.1,0-0.2,0.1c0,0.1,0,0.2,0,0.3C159.4,116,159.7,116.1,160,116.1z
	"/>
<path class="st7" d="M159.4,117.4c-0.1-0.3-0.4-0.5-0.7-0.6c-0.1,0-0.1,0.1-0.2,0.1c0,0.1,0,0.2,0,0.3
	C158.8,117.4,159.1,117.5,159.4,117.4z"/>
<path class="st7" d="M158.9,118.7c-0.2-0.2-0.5-0.4-0.8-0.4c-0.1,0-0.1,0.1-0.1,0.1c0,0.1,0,0.2,0.1,0.2
	C158.3,118.8,158.6,118.8,158.9,118.7z"/>
<path class="st9" d="M158.3,120c-0.2-0.2-0.5-0.4-0.8-0.4c-0.1,0-0.1,0.1-0.1,0.1c0,0.1,0,0.2,0.1,0.2
	C157.7,120.1,158,120.1,158.3,120z"/>
<path class="st9" d="M157.7,121.3c-0.3-0.2-0.6-0.3-0.9-0.2c0,0-0.1,0.1-0.1,0.2c0,0.1,0.1,0.2,0.1,0.2
	C157.1,121.6,157.5,121.5,157.7,121.3z"/>
<path class="st7" d="M158.3,114.4c0.3-0.2,0.7-0.2,1,0c0,0.1,0.1,0.1,0.1,0.2c0,0.1-0.1,0.2-0.2,0.2
	C158.8,114.8,158.5,114.7,158.3,114.4z"/>
<path class="st7" d="M157.6,115.9c0.3-0.2,0.7-0.2,1,0c0,0.1,0.1,0.1,0.1,0.2c0,0.1-0.1,0.2-0.2,0.2
	C158.2,116.3,157.8,116.2,157.6,115.9z"/>
<path class="st7" d="M157.1,117.2c0.3-0.1,0.7-0.1,1,0.1c0,0.1,0,0.1,0,0.2c0,0.1-0.1,0.2-0.2,0.2
	C157.5,117.7,157.2,117.5,157.1,117.2z"/>
<path class="st9" d="M156.6,118.5c0.3,0,0.6,0.1,0.9,0.3c0,0.1,0,0.1,0,0.2c-0.1,0.1-0.1,0.1-0.2,0.1
	C156.9,119,156.7,118.8,156.6,118.5z"/>
<path class="st9" d="M155.8,120.1c0.3,0,0.6,0.1,0.9,0.3c0,0.1,0,0.1,0,0.2c-0.1,0.1-0.1,0.1-0.2,0.1
	C156.1,120.6,155.9,120.4,155.8,120.1z"/>
<path class="st7" d="M163.9,116c0.4,0.1,0.7,0.3,1,0.6c0,0.1,0,0.1,0,0.2c-0.1,0.1-0.2,0.1-0.3,0.1C164.3,116.7,164,116.4,163.9,116
	z"/>
<path class="st7" d="M163.3,117.2c0.4,0,0.8,0.1,1.1,0.4c0,0.1,0,0.1,0,0.2c-0.1,0.1-0.2,0.1-0.2,0.1
	C163.8,117.8,163.5,117.6,163.3,117.2z"/>
<path class="st7" d="M162,119.4c0.4-0.1,0.8,0,1.2,0.2c0,0.1,0.1,0.1,0.1,0.2c0,0.1-0.1,0.1-0.2,0.2
	C162.6,119.9,162.2,119.7,162,119.4z"/>
<path class="st7" d="M161.7,120.4c0.4-0.1,0.7,0,1.1,0.2c0,0.1,0,0.1,0,0.2c0,0.1-0.1,0.1-0.2,0.1
	C162.2,120.9,161.9,120.7,161.7,120.4z"/>
<path class="st7" d="M161.4,121.7c0.4-0.1,0.7-0.1,1.1,0c0,0,0.1,0.1,0.1,0.2c0,0.1-0.1,0.2-0.2,0.2
	C162,122.1,161.7,121.9,161.4,121.7z"/>
<path class="st7" d="M160.9,122.9c0.4-0.1,0.7-0.1,1.1,0c0,0,0.1,0.1,0.1,0.2c0,0.1-0.1,0.2-0.2,0.2
	C161.5,123.2,161.2,123.1,160.9,122.9z"/>
<path class="st7" d="M162.6,118.3c0.4,0,0.8,0.1,1.1,0.4c0,0.1,0,0.1,0,0.2c-0.1,0.1-0.2,0.1-0.2,0.1
	C163.1,118.9,162.8,118.6,162.6,118.3z"/>
<path class="st7" d="M158.1,114.9c-0.2-0.3-0.5-0.4-0.8-0.4c-0.1,0-0.1,0.1-0.1,0.1c0,0.1,0,0.2,0,0.2
	C157.5,115,157.8,115,158.1,114.9z"/>
<path class="st7" d="M157.6,116.4c-0.2-0.3-0.4-0.4-0.8-0.5c-0.1,0-0.1,0.1-0.1,0.1c0,0.1,0,0.2,0,0.2
	C157,116.5,157.3,116.6,157.6,116.4z"/>
<path class="st24" d="M132.6,144.5C132.6,144.4,132.6,144.4,132.6,144.5l-4.8-86.2c-1.5,0-3,0.1-4.5,0.1l4.8,86.3
	c0,0.4,0.4,0.8,0.8,0.7l2.1-0.1h0.9C132.3,145.2,132.6,144.9,132.6,144.5L132.6,144.5L132.6,144.5z"/>
<path class="st25" d="M127.4,50.8h-0.7h-0.1h-0.9l-2.8,0.2l0.2,3.8l0.2,3.5c1.5-0.1,3-0.1,4.5-0.1L127.4,50.8z"/>
<path class="st26" d="M123.5,61.7l0.4,6.7c1-1,2-2,2.9-3.1c0.5-0.6,0.9-1.2,1.3-1.7l-0.4-7c-0.6,0.8-1.2,1.7-1.9,2.5
	S124.3,61,123.5,61.7z"/>
<path class="st26" d="M124.3,75.7l0.4,6.7c1-1,2-2,2.9-3.1c0.5-0.6,0.9-1.2,1.3-1.7l-0.4-7c-0.6,0.8-1.2,1.7-1.9,2.5
	S125,74.9,124.3,75.7z"/>
<path class="st20" d="M125.9,104.7l0.4,6.7c1-1,2-2,2.9-3.1c0.5-0.6,0.9-1.2,1.3-1.7l-0.4-7c-0.6,0.8-1.2,1.7-1.9,2.5
	S126.6,104,125.9,104.7z"/>
<path class="st20" d="M126.7,119.9l0.4,6.7c1-1,2-2,2.9-3.1c0.5-0.6,0.9-1.2,1.3-1.7l-0.4-7c-0.6,0.8-1.2,1.7-1.9,2.5
	S127.5,119.1,126.7,119.9z"/>
<path class="st26" d="M125.1,90l0.4,6.7c1-1,2-2,2.9-3.1c0.5-0.6,0.9-1.2,1.3-1.7l-0.4-7c-0.6,0.8-1.2,1.7-1.9,2.5
	S125.8,89.2,125.1,90z"/>
<path class="st20" d="M127.5,133.8l0.4,6.7c1-1,2-2,2.9-3.1c0.5-0.6,0.9-1.2,1.3-1.7l-0.4-7c-0.6,0.8-1.2,1.6-1.9,2.5
	S128.2,133,127.5,133.8z"/>
<path class="st27" d="M131.9,145.2l-0.9,0.1l-5.2-93.2l-0.1-1.1h0.9V51L131.9,145.2z"/>
<path class="st25" d="M127.4,50.8h-0.7h-0.1h-0.9l-2.8,0.2l-0.2-2.9l-0.4-6.8c-0.1-2-0.2-4.1-0.3-6.1c0-0.4,0.3-0.8,0.7-0.8
	c0.5-0.1,1-0.1,1.5-0.2s1,0,1.5,0h0.1c0.4,0,0.7,0.3,0.8,0.7l0.1,1.2L127.4,50.8z"/>
<path class="st20" d="M126.6,34.9l0.1,1.2c-0.4,0.6-0.9,1.3-1.4,2c-0.9,1.1-1.8,2.2-2.8,3.2l-0.4-6.1c0-0.4,0.3-0.8,0.7-0.8
	c0.5-0.1,1-0.1,1.5-0.2s1.1,0,1.6,0C126.2,34.2,126.5,34.5,126.6,34.9z"/>
<path class="st27" d="M126.7,50.9h-0.9l-0.3-5.8l-0.4-6.8l0,0l-0.2-4.2h0.9l0.2,3l0,0l0.4,6.8L126.7,50.9z"/>
<path class="st9" d="M156.9,118.1c-0.2-0.3-0.5-0.4-0.8-0.5c-0.1,0-0.1,0.1-0.1,0.1c0,0.1,0,0.2,0.1,0.2
	C156.2,118.2,156.6,118.2,156.9,118.1z"/>
<path class="st9" d="M156.1,119.4c-0.2-0.2-0.4-0.4-0.7-0.4c-0.1,0-0.1,0.1-0.1,0.1c0,0.1,0,0.2,0.1,0.2
	C155.6,119.5,155.9,119.5,156.1,119.4z"/>
<path class="st12" d="M130.8,110.3c-6.2-0.6-11.8,4-12.4,10.2c-0.4,4.5,1.9,8.9,5.9,11.1l10.6-20.1
	C133.6,110.9,132.2,110.5,130.8,110.3z"/>
<path class="st13" d="M134.8,111.7l-10.3,19.6c-5.4-2.9-7.5-9.6-4.6-15C122.6,110.9,129.4,108.8,134.8,111.7L134.8,111.7z"/>
<path class="st14" d="M134.1,112.6c0,0,0.1,0,0.1,0.1l-9.4,17.8l-0.1-0.1l-0.2-0.1c-0.1,0-0.1-0.1-0.2-0.1c0,0-0.1,0-0.1-0.1
	c0,0-0.1,0-0.2-0.1c-0.1-0.1-0.1-0.1-0.2-0.2c-0.1-0.1-0.1-0.1-0.2-0.2c0-0.1-0.1-0.1-0.2-0.1c0,0-0.1-0.1-0.1-0.1
	c-0.1,0-0.1-0.1-0.2-0.1c-0.1-0.1-0.2-0.1-0.3-0.2c-0.1,0-0.1-0.1-0.2-0.1l-0.1-0.1c0,0,0-0.1,0-0.1h-0.1c0,0,0-0.1,0-0.1
	c-0.1,0-0.2,0-0.3-0.1c-0.1,0-0.2-0.1-0.2-0.1c0,0,0,0,0-0.1H122c-0.1,0-0.2-0.1-0.2-0.2c0-0.1-0.1-0.2-0.1-0.3
	c-0.1,0-0.1,0-0.2-0.1l-0.2-0.1c-0.1-0.1-0.2-0.1-0.3-0.2c-0.1-0.1-0.2-0.3-0.2-0.4c0-0.1,0-0.1,0-0.2c0,0-0.1-0.1-0.1-0.1
	c0,0,0-0.1,0-0.1c0,0-0.1-0.1-0.1-0.1c0-0.1,0-0.1,0-0.2c0-0.1-0.1-0.1-0.2-0.2c-0.1-0.1-0.1-0.1-0.2-0.2c0-0.1-0.1-0.2-0.1-0.2
	c0-0.1,0-0.2,0-0.4c0-0.1,0-0.2,0-0.3c0-0.1,0-0.2-0.1-0.3c0,0,0-0.1-0.1-0.1c0,0-0.1,0-0.1,0c0,0,0,0,0-0.1c0-0.1,0-0.2,0-0.2
	c0-0.1,0-0.2,0-0.3c0-0.1,0-0.1,0-0.2c0-0.1-0.1-0.3-0.2-0.4c0-0.1,0-0.2,0-0.4c0-0.1-0.1-0.1-0.1-0.2c0-0.1-0.1-0.2-0.1-0.2
	c0,0,0-0.1,0-0.1c0-0.1,0-0.1,0.1-0.1c0.1-0.1,0.2-0.2,0.2-0.3c0-0.1,0-0.2,0-0.3c0-0.1,0-0.1,0-0.2s-0.3-0.8,0-0.8
	c0-0.2,0-0.4,0.1-0.6v-0.3c0-0.1,0-0.2,0-0.3c0-0.1,0.1-0.1,0.1-0.1c0,0,0.1-0.1,0.1-0.2c0.1-0.1,0.1-0.3,0.2-0.5
	c0-0.1,0-0.1,0.1-0.2c0-0.1,0-0.2,0-0.3c0-0.2,0-0.3,0.1-0.4c0-0.1,0.1-0.1,0.1-0.2c0.1-0.1,0.1-0.2,0.2-0.2c0,0,0.1-0.1,0.1-0.2
	v-0.1l0,0c0,0,0-0.1,0-0.1c0,0,0-0.1,0-0.1c0-0.1,0-0.1,0-0.2s0-0.1,0-0.1s0-0.1,0-0.2c0,0,0-0.1,0.1-0.1l0.1-0.1l0,0
	c0,0,0,0,0.1-0.1c0-0.1,0-0.2,0.2-0.2c0-0.1,0.1-0.1,0.1-0.2c0.1-0.1,0.1-0.1,0.2-0.2c0.1-0.1,0.2-0.2,0.2-0.3
	c0.1-0.1,0.1-0.3,0.2-0.4c0-0.1,0.1-0.2,0.2-0.3c0,0,0.1,0,0.1,0h0.1c0,0,0,0,0-0.1l0,0c0.1-0.1,0.2-0.1,0.2-0.2l0.2-0.2
	c0.1-0.1,0.2-0.2,0.2-0.3h0.1c0,0,0-0.1,0.1-0.1c0,0,0-0.1,0-0.1c0.1,0,0.2,0,0.3,0c0.1,0,0.2-0.1,0.3-0.2c0.1-0.1,0.2-0.2,0.3-0.3
	c0,0,0-0.1,0.1-0.1l0.1-0.1c0,0,0-0.1,0-0.1c0,0,0.1-0.1,0.1-0.1c0.1,0,0.1,0,0.2-0.1l0.2-0.1h0.2h0.1h0.1l0.1-0.1
	c0.1,0,0.1,0,0.2,0c0.1,0,0.1,0,0.2-0.1c0-0.1,0.1-0.1,0.2-0.2c0.1,0,0.1,0,0.2,0c0,0,0.1,0,0.1,0h0.1l0.2-0.1c0.1,0,0.1,0,0.2-0.1
	c0,0,0.1-0.1,0.1-0.1c0.1,0,0.2-0.1,0.3-0.1c0.1,0,0.1-0.1,0.2-0.1c0.1,0,0.2,0,0.3,0c0.2,0,0.3,0,0.4-0.1c0,0,0.1-0.1,0.2-0.1
	c0.1,0,0.2,0,0.2,0h0.5c0.1,0,0.2,0,0.2,0h0.1h0.1c0,0,0,0,0-0.1c0.1-0.1,0.3-0.1,0.5-0.1c0.1,0,0.1,0,0.2,0h0.1l0,0h0.1
	c0,0,0,0,0.1,0c0,0,0.1,0,0.1,0c0,0,0.1,0.1,0.1,0.1h0.1l0.6,0.1h0.2c0.1,0,0.2,0,0.3,0c0,0,0.1,0,0.1-0.1h0.2c0.1,0,0,0,0.1,0.1
	c0.1,0.1,0.1,0.1,0.2,0.1c0.1,0,0.2,0.1,0.3,0.1c0.2,0,0.3,0,0.5,0.1c0.1,0,0.3,0.1,0.4,0.2c0,0,0.1,0.1,0.1,0.1c0,0,0.1,0,0.1,0.1
	h0.1c0,0,0.1,0,0.1,0c0,0,0.1,0,0.1,0L134.1,112.6z"/>
<path class="st15" d="M121,123.9c-0.2,0.1-0.5-0.1-0.6-0.3c-0.6-1.9-0.4-4,0.6-5.8c0.1-0.2,0.4-0.3,0.6-0.2l7.1,3.6
	c0.1,0,0.1,0.1,0.1,0.2c0,0,0,0.1-0.1,0.1L121,123.9z"/>
<path class="st15" d="M127.2,113.1c-0.1-0.2,0.1-0.5,0.3-0.6c1.9-0.6,4-0.4,5.8,0.6c0.2,0.1,0.3,0.4,0.2,0.6l-3.6,7.1
	c0,0.1-0.1,0.1-0.2,0.1c0,0-0.1,0-0.1-0.1L127.2,113.1z"/>
<path class="st15" d="M121.9,117.3c-0.2-0.1-0.3-0.4-0.2-0.6c0.9-1.8,2.5-3.1,4.5-3.7c0.2-0.1,0.5,0.1,0.5,0.3l2.5,7.6
	c0,0.1,0,0.2-0.1,0.2c0,0-0.1,0-0.1,0L121.9,117.3z"/>
<path class="st15" d="M125.2,129.2c-0.1,0.2-0.4,0.3-0.6,0.2c-1.8-0.9-3.1-2.6-3.7-4.5c-0.1-0.2,0.1-0.5,0.3-0.5l7.6-2.5
	c0.1,0,0.2,0,0.2,0.1c0,0,0,0.1,0,0.1L125.2,129.2z"/>
<path class="st14" d="M127.5,123.6c0.5-0.2,0.8-0.6,0.9-1.1c0,0,0-0.1-0.1-0.1c0,0,0,0,0,0c-0.5,0-1,0.2-1.3,0.7
	c-0.1,0.2,0,0.4,0.1,0.5C127.3,123.6,127.4,123.6,127.5,123.6z"/>
<path class="st14" d="M128.1,119.3c0.4,0.3,0.7,0.8,0.7,1.3c0,0,0,0.1-0.1,0.1c0,0,0,0,0,0c-0.5-0.1-0.9-0.4-1.2-0.9
	c-0.1-0.2,0-0.4,0.2-0.5C127.9,119.2,128,119.2,128.1,119.3z"/>
<path class="st16" d="M122.4,121.1c1.1,0.2,2.3,0.1,3.4-0.1c0.1,0,0.1-0.1,0-0.1c-1.1-0.3-2.2-0.5-3.4-0.4c-0.2,0-0.5,0.1-0.7,0.2
	C122,121,122.2,121.1,122.4,121.1z"/>
<path class="st16" d="M121.8,122.6c1-0.1,2-0.3,2.9-0.7c0.1,0,0.1-0.1,0-0.1c-1,0-2,0.1-3,0.3c-0.2,0-0.4,0.2-0.5,0.3
	C121.4,122.6,121.6,122.7,121.8,122.6z"/>
<path class="st16" d="M121.7,119.4c0.8,0.3,1.6,0.5,2.4,0.5c0.1,0,0.1,0,0-0.1c-0.7-0.4-1.5-0.7-2.2-0.8c-0.2,0-0.4,0-0.5,0.1
	C121.4,119.3,121.5,119.4,121.7,119.4z"/>
<path class="st16" d="M124.7,115.9c0.6,1,1.4,1.9,2.3,2.6c0.1,0.1,0.1,0.1,0.1-0.1c-0.4-1-1.1-2-1.8-2.9c-0.2-0.2-0.4-0.3-0.6-0.3
	C124.6,115.5,124.6,115.7,124.7,115.9z"/>
<path class="st16" d="M123.3,116.8c0.7,0.7,1.5,1.3,2.4,1.8c0.1,0.1,0.1,0,0.1-0.1c-0.6-0.8-1.3-1.5-2.1-2.1
	c-0.2-0.1-0.4-0.2-0.6-0.2C123.1,116.5,123.2,116.7,123.3,116.8z"/>
<path class="st16" d="M125.8,114.7c0.3,0.8,0.6,1.5,1.2,2.2c0.1,0.1,0.1,0.1,0.1,0c-0.1-0.8-0.4-1.6-0.8-2.3
	c-0.1-0.2-0.2-0.3-0.4-0.4C125.7,114.4,125.7,114.5,125.8,114.7z"/>
<path class="st16" d="M123.9,125.8c0.8-0.8,1.8-1.4,2.8-1.9c0.1-0.1,0.2,0,0.1,0.1c-0.7,0.9-1.6,1.7-2.5,2.3
	c-0.2,0.1-0.4,0.2-0.7,0.2C123.6,126.2,123.7,126,123.9,125.8z"/>
<path class="st16" d="M122.5,124.9c0.9-0.5,1.8-0.9,2.8-1.1c0.1,0,0.1,0,0,0.1c-0.8,0.6-1.7,1.1-2.6,1.4c-0.2,0.1-0.4,0.1-0.6,0
	C122.1,125.2,122.3,125,122.5,124.9z"/>
<path class="st16" d="M124.2,127.6c0.5-0.7,1-1.3,1.7-1.8c0.1-0.1,0.1,0,0.1,0c-0.3,0.7-0.8,1.4-1.4,2c-0.1,0.1-0.3,0.2-0.5,0.2
	C124.1,127.9,124.1,127.7,124.2,127.6z"/>
<path class="st16" d="M130.4,114c0,1.2-0.2,2.3-0.6,3.4c0,0.1-0.1,0.1-0.1,0c-0.2-1.1-0.1-2.3,0.1-3.4c0-0.2,0.2-0.5,0.4-0.6
	C130.3,113.6,130.4,113.8,130.4,114z"/>
<path class="st16" d="M132,114.1c-0.2,1-0.6,1.9-1.1,2.8c-0.1,0.1-0.1,0.1-0.1,0c0.1-1,0.4-2,0.8-2.9c0.1-0.2,0.2-0.3,0.4-0.4
	C132,113.7,132,113.9,132,114.1z"/>
<path class="st16" d="M128.9,113.5c0.2,0.8,0.2,1.7,0.1,2.5c0,0.1,0,0.1-0.1,0c-0.3-0.7-0.5-1.5-0.5-2.3c0-0.2,0.1-0.4,0.2-0.5
	C128.7,113.2,128.8,113.3,128.9,113.5z"/>
<path class="st7" d="M156.1,115.1c0.1,0,0.6-0.3,0.7-0.1c0,0.1,0,0.1,0,0.2c0,0.1-0.1,0.2-0.1,0.2
	C156.5,115.6,156.2,115.2,156.1,115.1z"/>
<path class="st9" d="M155.6,116.6c0.1,0,0.6-0.2,0.7,0c0,0.1,0,0.1,0,0.2c0,0.1-0.1,0.1-0.2,0.2
	C155.9,117.2,155.7,116.7,155.6,116.6z"/>
<path class="st9" d="M155,118c0.1,0,0.6-0.1,0.6,0.2c0,0.1,0,0.1,0,0.2c0,0.1-0.1,0.1-0.2,0.1C155.2,118.5,155,118,155,118z"/>
<ellipse transform="matrix(0.9667 -0.2558 0.2558 0.9667 -19.666 44.895)" class="st28" cx="162.8" cy="98.1" rx="2.9" ry="3.3"/>
<ellipse transform="matrix(0.2095 -0.9778 0.9778 0.2095 34.1553 233.2202)" class="st29" cx="161.3" cy="95.5" rx="1.3" ry="1"/>
<ellipse transform="matrix(0.9851 -0.1719 0.1719 0.9851 -19.7236 23.0304)" class="st28" cx="123.1" cy="125.4" rx="3.4" ry="2.7"/>
<ellipse transform="matrix(0.2141 -0.9768 0.9768 0.2141 -23.2772 219.9596)" class="st29" cx="125.1" cy="124.4" rx="1" ry="1.3"/>
<linearGradient id="SVGID_7_" gradientUnits="userSpaceOnUse" x1="-1250.4668" y1="56.7463" x2="-1257.6768" y2="63.4163" gradientTransform="matrix(-0.3994 0.9168 0.9168 0.3994 -431.5029 1234.4581)">
	<stop  offset="0" style="stop-color:#6D0E16"/>
	<stop  offset="0.46" style="stop-color:#D72129"/>
	<stop  offset="0.6" style="stop-color:#EE212C"/>
	<stop  offset="0.83" style="stop-color:#E7212C"/>
	<stop  offset="1" style="stop-color:#E64B4B"/>
</linearGradient>
<path class="st30" d="M127.6,110.3c0.3-0.1,0.6-0.4,0.8-0.6c0.3-0.4,0.5-0.9,0.5-1.4c0.4-0.3,0.5-0.9,0.4-1.3
	c-0.1-0.3-0.3-0.6-0.6-0.8c-0.4-1.2-1.1-1.9-1.7-1.8c-0.2,0-0.4,0.1-0.5,0.2c-0.3-0.4-0.7-0.6-1.2-0.7c-0.2,0-0.4,0.1-0.6,0.2
	c-0.3-0.3-0.6-0.4-1-0.3c-0.2,0.1-0.3,0.2-0.4,0.3c-0.3-0.3-0.8-0.3-1.1-0.1c-0.1,0.1-0.2,0.2-0.2,0.2c-0.2-0.2-0.6-0.2-0.8,0
	c-0.1,0.1-0.1,0.2-0.1,0.3c-0.2-0.1-0.5-0.1-0.7,0c-0.1,0.1-0.3,0.2-0.4,0.3c-0.3,0.1-0.5,0.3-0.7,0.6c-0.2,0.3-0.2,0.8-0.1,1.1
	c-0.4,0.2-0.7,0.5-0.8,0.9c-0.1,0.3-0.1,0.6,0.1,0.8c-0.1,0.4,0.1,0.8,0.4,1c-0.2,0.3-0.2,0.7,0.1,0.9c0.1,0.1,0.2,0.1,0.3,0.1
	c-0.1,0.1-0.1,0.2-0.1,0.3c0.1,0.4,0.4,0.7,0.9,0.8c-0.1,0.2-0.1,0.3,0,0.5c0.2,0.4,0.5,0.6,0.9,0.5c0,0.1,0.1,0.2,0.1,0.2
	c0.3,0.5,0.8,0.7,1.4,0.8c0,0.2,0.1,0.4,0.2,0.5c0.5,0.5,1.5,0.5,2.6-0.1c0.2,0.1,0.4,0.1,0.6,0c0.4-0.1,0.7-0.5,0.8-0.9
	C127.4,112.2,127.7,111.3,127.6,110.3z"/>
<path class="st7" d="M128.1,105.8c-0.2-0.4-0.5-0.7-0.9-0.9c-0.1,0-0.2,0-0.2,0.1c0,0.1,0,0.2,0,0.3
	C127.3,105.6,127.7,105.8,128.1,105.8z"/>
<path class="st8" d="M127.5,107c-0.2-0.4-0.5-0.7-0.9-0.9c-0.1,0-0.2,0-0.2,0.1c0,0.1,0,0.2,0,0.3C126.7,106.8,127.1,107,127.5,107z
	"/>
<path class="st8" d="M126.9,108c-0.2-0.4-0.6-0.6-1-0.8c-0.1,0-0.2,0-0.2,0.1c0,0.1,0,0.2,0,0.3C126,107.9,126.5,108,126.9,108z"/>
<path class="st7" d="M126.3,109c-0.2-0.3-0.6-0.6-1-0.7c-0.1,0-0.1,0-0.2,0.1c0,0.1,0,0.2,0.1,0.3C125.5,109,125.9,109.1,126.3,109z
	"/>
<path class="st7" d="M125.8,110.2c-0.3-0.3-0.7-0.5-1.1-0.5c-0.1,0-0.1,0.1-0.2,0.1c0,0.1,0,0.2,0.1,0.3
	C125,110.4,125.5,110.4,125.8,110.2z"/>
<path class="st7" d="M125.4,111.5c-0.3-0.3-0.7-0.5-1.1-0.5c-0.1,0-0.1,0.1-0.2,0.1c0,0.1,0,0.2,0.1,0.3
	C124.6,111.5,125,111.6,125.4,111.5z"/>
<path class="st7" d="M124.6,113.8c-0.4,0.2-0.9,0.2-1.3,0c-0.1-0.1-0.1-0.1-0.1-0.2c0-0.1,0.1-0.2,0.2-0.2
	C123.9,113.4,124.3,113.5,124.6,113.8z"/>
<path class="st7" d="M125,112.6c-0.4,0.2-0.9,0.2-1.3,0c-0.1-0.1-0.1-0.1-0.1-0.2c0-0.1,0.1-0.2,0.2-0.2
	C124.3,112.1,124.7,112.3,125,112.6z"/>
<path class="st7" d="M125.3,104.6c0.4,0.1,0.7,0.3,1,0.6c0,0.1,0,0.1,0,0.2c-0.1,0.1-0.2,0.1-0.3,0.1
	C125.7,105.3,125.4,104.9,125.3,104.6z"/>
<path class="st8" d="M124.6,105.9c0.4,0,0.8,0.1,1.1,0.4c0,0.1,0,0.1,0,0.2c-0.1,0.1-0.2,0.1-0.2,0.1
	C125.1,106.5,124.8,106.2,124.6,105.9z"/>
<path class="st7" d="M123.9,107.4c0.4-0.1,0.8,0,1.2,0.2c0,0.1,0.1,0.1,0.1,0.2c0,0.1-0.1,0.1-0.2,0.2
	C124.5,107.9,124.2,107.7,123.9,107.4z"/>
<path class="st7" d="M123.4,108.6c0.4-0.1,0.7,0,1.1,0.2c0,0.1,0,0.1,0,0.2c0,0.1-0.1,0.1-0.2,0.1
	C123.9,109.1,123.6,108.9,123.4,108.6z"/>
<path class="st7" d="M123,109.9c0.4-0.1,0.7-0.1,1.1,0c0,0,0.1,0.1,0.1,0.2c0,0.1-0.1,0.2-0.2,0.2
	C123.6,110.3,123.3,110.2,123,109.9z"/>
<path class="st7" d="M122.3,111.3c0.4-0.1,0.7-0.1,1.1,0c0,0,0.1,0.1,0.1,0.2c0,0.1-0.1,0.2-0.2,0.2
	C123,111.7,122.6,111.6,122.3,111.3z"/>
<path class="st7" d="M121.8,112.5c0.3,0.3,0.6,0.5,1.1,0.5c0.1,0,0.1-0.1,0.2-0.1c0-0.1,0-0.2-0.1-0.3
	C122.6,112.5,122.2,112.4,121.8,112.5z"/>
<path class="st7" d="M124.8,105.2c-0.1-0.3-0.4-0.6-0.7-0.7c-0.1,0-0.1,0-0.2,0.1c0,0.1,0,0.2,0,0.2
	C124.1,105.1,124.5,105.2,124.8,105.2z"/>
<path class="st7" d="M124.2,106.5c-0.1-0.3-0.3-0.6-0.6-0.7c-0.1,0-0.1,0-0.2,0.1c0,0.1,0,0.2,0,0.3
	C123.5,106.4,123.8,106.6,124.2,106.5z"/>
<path class="st7" d="M123.6,107.9c-0.1-0.3-0.4-0.5-0.7-0.6c-0.1,0-0.1,0.1-0.2,0.1c0,0.1,0,0.2,0,0.3
	C123,107.8,123.3,107.9,123.6,107.9z"/>
<path class="st7" d="M123,109.1c-0.2-0.2-0.5-0.4-0.8-0.4c-0.1,0-0.1,0.1-0.1,0.1c0,0.1,0,0.2,0.1,0.2
	C122.4,109.2,122.7,109.3,123,109.1z"/>
<path class="st9" d="M122.4,110.5c-0.2-0.2-0.5-0.4-0.8-0.4c-0.1,0-0.1,0.1-0.1,0.1c0,0.1,0,0.2,0.1,0.2
	C121.9,110.6,122.2,110.6,122.4,110.5z"/>
<path class="st9" d="M121.9,111.8c-0.3-0.2-0.6-0.3-0.9-0.2c0,0-0.1,0.1-0.1,0.2c0,0.1,0.1,0.2,0.1,0.2
	C121.3,112,121.6,112,121.9,111.8z"/>
<path class="st7" d="M122.4,104.8c0.3-0.2,0.7-0.2,1,0c0,0.1,0.1,0.1,0.1,0.2c0,0.1-0.1,0.2-0.2,0.2
	C123,105.3,122.7,105.1,122.4,104.8z"/>
<path class="st7" d="M121.8,106.3c0.3-0.2,0.7-0.2,1,0c0,0.1,0.1,0.1,0.1,0.2c0,0.1-0.1,0.2-0.2,0.2
	C122.3,106.8,122,106.6,121.8,106.3z"/>
<path class="st7" d="M121.2,107.7c0.3-0.1,0.7-0.1,1,0.1c0,0.1,0,0.1,0,0.2c0,0.1-0.1,0.2-0.2,0.2
	C121.7,108.2,121.4,108,121.2,107.7z"/>
<path class="st9" d="M120.7,109c0.3,0,0.6,0.1,0.8,0.3c0,0.1,0,0.1,0,0.2c-0.1,0.1-0.1,0.1-0.2,0.1
	C121.1,109.5,120.8,109.3,120.7,109z"/>
<path class="st9" d="M120,110.5c0.3,0,0.6,0.1,0.8,0.3c0,0.1,0,0.1,0,0.2c-0.1,0.1-0.1,0.1-0.2,0.1C120.3,111,120.1,110.8,120,110.5
	z"/>
<path class="st7" d="M128.1,106.5c0.4,0.1,0.7,0.3,1,0.6c0,0.1,0,0.1,0,0.2c-0.1,0.1-0.2,0.1-0.3,0.1
	C128.5,107.2,128.2,106.9,128.1,106.5z"/>
<path class="st7" d="M127.4,107.7c0.4,0,0.8,0.1,1.1,0.4c0,0.1,0,0.1,0,0.2c-0.1,0.1-0.2,0.1-0.2,0.1
	C127.9,108.3,127.6,108,127.4,107.7z"/>
<path class="st7" d="M126.1,109.8c0.4-0.1,0.8,0,1.2,0.2c0,0.1,0.1,0.1,0.1,0.2c0,0.1-0.1,0.1-0.2,0.2
	C126.7,110.3,126.4,110.1,126.1,109.8z"/>
<path class="st7" d="M125.9,110.9c0.4-0.1,0.7,0,1.1,0.2c0,0.1,0,0.1,0,0.2c0,0.1-0.1,0.1-0.2,0.1
	C126.4,111.4,126.1,111.2,125.9,110.9z"/>
<path class="st7" d="M125.6,112.1c0.4-0.1,0.7-0.1,1.1,0c0,0,0.1,0.1,0.1,0.2c0,0.1-0.1,0.2-0.2,0.2
	C126.2,112.5,125.8,112.4,125.6,112.1z"/>
<path class="st7" d="M125.1,113.3c0.4-0.1,0.7-0.1,1.1,0c0,0,0.1,0.1,0.1,0.2c0,0.1-0.1,0.2-0.2,0.2
	C125.7,113.7,125.4,113.5,125.1,113.3z"/>
<path class="st7" d="M126.8,108.7c0.4,0,0.8,0.1,1.1,0.4c0,0.1,0,0.1,0,0.2c-0.1,0.1-0.2,0.1-0.2,0.1
	C127.3,109.3,127,109.1,126.8,108.7z"/>
<path class="st7" d="M122.3,105.3c-0.2-0.3-0.5-0.4-0.8-0.4c-0.1,0-0.1,0.1-0.2,0.1c0,0.1,0,0.2,0,0.2
	C121.7,105.5,122,105.5,122.3,105.3z"/>
<path class="st7" d="M121.8,106.9c-0.2-0.3-0.4-0.4-0.8-0.5c-0.1,0-0.1,0.1-0.1,0.1c0,0.1,0,0.2,0,0.2
	C121.1,107,121.5,107,121.8,106.9z"/>
<path class="st9" d="M121,108.5c-0.2-0.3-0.5-0.4-0.8-0.5c-0.1,0-0.1,0.1-0.1,0.1c0,0.1,0,0.2,0.1,0.2
	C120.4,108.6,120.7,108.7,121,108.5z"/>
<path class="st9" d="M120.3,109.8c-0.2-0.2-0.4-0.4-0.7-0.4c-0.1,0-0.1,0.1-0.1,0.1c0,0.1,0,0.2,0.1,0.2
	C119.7,109.9,120.1,110,120.3,109.8z"/>
<path class="st7" d="M120.3,105.5c0.1,0,0.6-0.3,0.7-0.1c0,0.1,0,0.1,0,0.2c0,0.1-0.1,0.2-0.1,0.2
	C120.7,106,120.3,105.6,120.3,105.5z"/>
<path class="st9" d="M119.8,107.1c0.1,0,0.6-0.2,0.7,0c0,0.1,0,0.1,0,0.2c0,0.1-0.1,0.1-0.2,0.2
	C120.1,107.6,119.9,107.1,119.8,107.1z"/>
<path class="st9" d="M119.2,108.4c0.1,0,0.6-0.1,0.6,0.2c0,0.1,0,0.1,0,0.2c0,0.1-0.1,0.1-0.2,0.1
	C119.4,109,119.2,108.5,119.2,108.4z"/>
<linearGradient id="SVGID_8_" gradientUnits="userSpaceOnUse" x1="132.7778" y1="64.6778" x2="141.7578" y2="55.6978" gradientTransform="matrix(1 0 0 -1 0 185.28)">
	<stop  offset="0.39" style="stop-color:#EE3624"/>
	<stop  offset="1" style="stop-color:#AB2322"/>
</linearGradient>
<path class="st31" d="M139.8,121.3c-0.5-0.1-1-0.3-1.4-0.6c-1.1-1-2.6-1.4-4-1.2c-2.5,0.6-3.5,4.1-3.1,6.5c0.7,3.6,4.4,4.9,4.6,4.9
	c1.1,0.3,2.2,0.3,3.3,0c3.2-1,5.8-5.1,4.4-7.6C142.9,121.9,140.9,121.5,139.8,121.3z"/>
<path class="st20" d="M139.9,123.5c-1,0.3-2.1-0.1-2.6-1l-0.1-0.1c-0.2-0.3-0.6-1.1-0.3-1.3s1,0.2,1.7,0.7c0.2,0.1,0.4,0.2,0.6,0.2
	c0.7,0,1.8,0.2,1.9,0.6c-0.2,0.4-0.5,0.8-1,0.9L139.9,123.5z"/>
<path class="st21" d="M133.4,127.6c-1.6-2.7-0.9-5.7,1-6.9c0.4-0.2,0.7-0.4,1.2-0.4c0.2,0,0.4,0.1,0.5,0.3c0,0.2-0.1,0.4-0.3,0.5
	c-0.4,0.2-0.8,0.4-1.2,0.7C133,123.3,132.5,125.6,133.4,127.6z"/>
<path class="st21" d="M138.8,130.1c3-0.8,4.6-3.6,4-5.7c-0.1-0.4-0.3-0.8-0.5-1.1c-0.1-0.2-0.4-0.2-0.6-0.1
	c-0.2,0.1-0.2,0.3-0.1,0.5c0.2,0.4,0.3,0.9,0.4,1.3C142,127.2,140.8,129.3,138.8,130.1z"/>
<ellipse transform="matrix(0.9659 -0.2589 0.2589 0.9659 -23.9822 40.3363)" class="st28" cx="141.2" cy="111.2" rx="2.9" ry="3.3"/>
<ellipse transform="matrix(0.2141 -0.9768 0.9768 0.2141 2.11 222.1647)" class="st29" cx="139.1" cy="109.8" rx="1.3" ry="1"/>
<linearGradient id="SVGID_9_" gradientUnits="userSpaceOnUse" x1="214.9824" y1="-26.4183" x2="214.9824" y2="-37.4483" gradientTransform="matrix(0.9841 -0.1776 -0.1776 -0.9841 -79.9439 99.578)">
	<stop  offset="0.38" style="stop-color:#EE3624"/>
	<stop  offset="1" style="stop-color:#A82723"/>
</linearGradient>
<path class="st32" d="M136.6,88c-0.4,0.3-0.9,0.4-1.4,0.4c-1.5,0-2.9,0.6-3.8,1.7c-1.5,2.1,0,5.4,1.9,6.9c2.8,2.2,6.5,0.8,6.7,0.7
	c1-0.5,1.9-1.2,2.5-2.1c1.8-2.8,1.1-7.7-1.6-8.7C139.3,86.4,137.5,87.3,136.6,88z"/>
<path class="st20" d="M138.1,89.5c-0.6,0.9-1.6,1.2-2.6,0.9h-0.1c-0.4-0.1-1.2-0.5-1.1-0.8s0.9-0.5,1.7-0.6c0.2,0,0.4-0.1,0.6-0.2
	c0.6-0.4,1.5-1,1.8-0.8c0.2,0.5,0.1,1-0.2,1.4L138.1,89.5z"/>
<path class="st21" d="M135.8,96.9c-2.9-1-4.4-3.8-3.7-5.9c0.1-0.4,0.3-0.8,0.6-1.1c0.2-0.2,0.4-0.2,0.6,0c0.1,0.1,0.2,0.3,0.1,0.5
	c-0.2,0.4-0.4,0.9-0.4,1.3C132.7,93.9,133.8,96,135.8,96.9z"/>
<path class="st21" d="M141.5,95.3c1.7-2.6,1.1-5.7-0.7-6.9c-0.3-0.2-0.7-0.4-1.1-0.5c-0.2-0.1-0.5,0.1-0.5,0.3
	c0,0.2,0.1,0.4,0.2,0.5c0.4,0.2,0.8,0.5,1.1,0.8C142.1,91,142.5,93.3,141.5,95.3z"/>
<ellipse transform="matrix(0.9667 -0.2558 0.2558 0.9667 -22.5088 36.6427)" class="st28" cx="129.6" cy="104.9" rx="2.9" ry="3.3"/>
<ellipse transform="matrix(0.2095 -0.9778 0.9778 0.2095 1.3494 206.3897)" class="st29" cx="128.3" cy="102.4" rx="1.3" ry="1"/>
<path class="st33" d="M147.8,124.5C147.8,124.5,147.8,124.6,147.8,124.5c-0.3,0.2-0.5,0.1-0.7,0c-0.2-0.1-0.3-0.3-0.3-0.6
	c0-0.1,0.1-0.2,0.2-0.2c0.3,0,0.5,0.1,0.7,0.3C147.8,124.1,147.8,124.3,147.8,124.5z"/>
<path class="st33" d="M142.4,118.4c0,0-0.1,0-0.1,0c-0.4-0.2-0.6-0.6-0.4-1c0,0,0-0.1,0.1-0.1c0.1-0.1,0.2-0.1,0.3-0.1
	c0.2,0.2,0.4,0.4,0.4,0.7C142.6,118.1,142.5,118.3,142.4,118.4z"/>
<path class="st33" d="M151.9,103.7C151.9,103.8,151.9,103.8,151.9,103.7c-0.3,0.2-0.5,0.1-0.7,0c-0.2-0.1-0.3-0.4-0.3-0.6
	c0-0.1,0.1-0.2,0.2-0.3c0.3-0.1,0.6,0.1,0.7,0.3C151.8,103.3,151.9,103.5,151.9,103.7z"/>
<path class="st33" d="M148.5,99.9C148.5,99.9,148.5,99.9,148.5,99.9c-0.3-0.1-0.4-0.4-0.3-0.6c0,0,0-0.1,0-0.1c0.1,0,0.1,0,0.2,0
	c0.1,0.1,0.2,0.3,0.2,0.4C148.7,99.8,148.6,99.9,148.5,99.9z"/>
<path class="st33" d="M155.1,127.3C155,127.3,155,127.3,155.1,127.3c-0.2-0.3-0.1-0.6,0-0.8c0.1-0.2,0.3-0.3,0.6-0.4
	c0.1,0,0.2,0.1,0.2,0.2c0.1,0.3,0,0.6-0.3,0.8C155.4,127.3,155.3,127.3,155.1,127.3z"/>
<path class="st33" d="M147.8,136.8c0,0-0.1,0-0.1,0c-0.4-0.2-0.6-0.6-0.4-1c0-0.1,0.1-0.1,0.1-0.2c0.1-0.1,0.2-0.1,0.3-0.1
	c0,0,0,0,0,0c0.2,0.2,0.4,0.5,0.4,0.8C148,136.4,147.9,136.6,147.8,136.8z"/>
<path class="st33" d="M161.7,141.8C161.7,141.9,161.7,141.9,161.7,141.8c-0.2,0.1-0.4,0.1-0.5,0c-0.2-0.1-0.2-0.3-0.3-0.4
	c0-0.1,0-0.2,0.1-0.2c0.2,0,0.4,0,0.6,0.2C161.7,141.6,161.8,141.7,161.7,141.8z"/>
<path class="st33" d="M120.8,129.5C120.8,129.5,120.8,129.5,120.8,129.5c-0.4-0.1-0.5-0.5-0.4-0.8c0,0,0-0.1,0.1-0.1
	c0.1-0.1,0.2-0.1,0.2,0c0.2,0.1,0.3,0.3,0.3,0.6C121,129.2,120.9,129.4,120.8,129.5z"/>
<path class="st33" d="M121.3,120.4c0,0-0.1,0-0.1,0c-0.4-0.2-0.6-0.7-0.4-1.1c0-0.1,0.1-0.1,0.1-0.2c0.1-0.1,0.2-0.1,0.3-0.1
	c0,0,0,0,0,0c0.3,0.2,0.4,0.5,0.4,0.8C121.6,120,121.5,120.2,121.3,120.4z"/>
<path class="st33" d="M123.9,93.4C123.9,93.4,123.9,93.4,123.9,93.4c-0.3-0.1-0.4-0.4-0.3-0.6c0,0,0-0.1,0-0.1c0.1,0,0.1,0,0.2,0
	c0.1,0.1,0.2,0.3,0.2,0.4C124,93.2,124,93.3,123.9,93.4z"/>
<path class="st33" d="M132.4,96.5L132.4,96.5c-0.1,0-0.2,0-0.3,0c-0.1-0.1-0.1-0.2-0.2-0.3c0-0.1,0-0.1,0.1-0.1c0,0,0,0,0,0
	c0.1,0,0.3,0,0.4,0.1C132.4,96.3,132.4,96.4,132.4,96.5z"/>
<path class="st33" d="M161.3,128.5C161.3,128.5,161.3,128.5,161.3,128.5c-0.1-0.1-0.1-0.3-0.1-0.4c0.1-0.1,0.2-0.2,0.3-0.2
	c0.1,0,0.1,0,0.1,0.1c0,0,0,0,0,0c0,0.2,0,0.4-0.2,0.5C161.5,128.5,161.4,128.5,161.3,128.5z"/>
<path class="st33" d="M165.3,137.3L165.3,137.3c-0.1,0-0.2,0-0.3,0c-0.1-0.1-0.1-0.2-0.2-0.3c0-0.1,0-0.1,0.1-0.1c0,0,0,0,0,0
	c0.1,0,0.3,0,0.4,0.1C165.3,137.1,165.3,137.2,165.3,137.3z"/>
<path class="st33" d="M156.7,119.7C156.7,119.7,156.6,119.7,156.7,119.7c-0.3-0.1-0.4-0.4-0.3-0.6c0,0,0-0.1,0-0.1
	c0.1,0,0.1,0,0.2,0c0.1,0.1,0.2,0.3,0.2,0.4C156.8,119.5,156.8,119.6,156.7,119.7z"/>
<path class="st33" d="M165.2,122.7L165.2,122.7c-0.1,0-0.2,0-0.3,0c-0.1-0.1-0.1-0.2-0.2-0.3c0-0.1,0-0.1,0.1-0.1c0,0,0,0,0,0
	c0.1,0,0.3,0,0.4,0.1C165.2,122.6,165.2,122.7,165.2,122.7z"/>
<path class="st33" d="M162,86.1C162,86.1,162,86.1,162,86.1c-0.1-0.1-0.1-0.3-0.1-0.4c0.1-0.1,0.2-0.2,0.3-0.2c0.1,0,0.1,0,0.1,0.1
	c0,0,0,0,0,0c0,0.2,0,0.4-0.2,0.5C162.2,86.1,162.1,86.1,162,86.1z"/>
<path class="st33" d="M161,95.7C161,95.7,161,95.8,161,95.7c-0.1,0.1-0.3,0.1-0.4,0.1c-0.1-0.1-0.2-0.2-0.2-0.4c0-0.1,0-0.1,0.1-0.2
	c0.2,0,0.3,0,0.4,0.2C161,95.5,161,95.6,161,95.7z"/>
<path class="st33" d="M166,95L166,95c-0.1,0-0.2,0-0.3,0c-0.1-0.1-0.1-0.2-0.2-0.3c0-0.1,0-0.1,0.1-0.1c0,0,0,0,0,0
	c0.1,0,0.3,0,0.4,0.1C166,94.8,166,94.9,166,95z"/>
<path class="st33" d="M158.7,104.3C158.7,104.3,158.6,104.3,158.7,104.3c-0.2-0.3-0.1-0.6,0-0.8c0.1-0.2,0.3-0.3,0.6-0.4
	c0.1,0,0.2,0.1,0.2,0.2c0,0,0,0,0,0c0.1,0.3-0.1,0.6-0.3,0.8C159.1,104.3,158.9,104.3,158.7,104.3z"/>
<path class="st33" d="M165.9,112.2C165.9,112.2,165.8,112.3,165.9,112.2c-0.3,0.2-0.5,0.1-0.7,0c-0.2-0.1-0.3-0.4-0.3-0.6
	c0-0.1,0.1-0.2,0.2-0.3c0.3-0.1,0.6,0.1,0.7,0.3C165.8,111.8,165.9,112,165.9,112.2z"/>
<path class="st33" d="M163.9,107.7c0,0-0.1,0-0.1,0c-0.4-0.2-0.6-0.7-0.4-1.1c0-0.1,0.1-0.1,0.1-0.2c0.1-0.1,0.2-0.1,0.3-0.1
	c0.2,0.2,0.4,0.5,0.4,0.8C164.1,107.4,164.1,107.6,163.9,107.7z"/>
<path class="st33" d="M165.4,119C165.4,119,165.4,119,165.4,119c-0.2,0.1-0.4,0.1-0.5,0c-0.2-0.1-0.3-0.3-0.3-0.4
	c0-0.1,0-0.2,0.1-0.2c0.2,0,0.4,0,0.6,0.2C165.4,118.7,165.5,118.9,165.4,119z"/>
<linearGradient id="SVGID_10_" gradientUnits="userSpaceOnUse" x1="141.925" y1="114.93" x2="141.925" y2="112.05" gradientTransform="matrix(1 0 0 -1 0 185.28)">
	<stop  offset="0" style="stop-color:#F5D1D0"/>
	<stop  offset="0.48" style="stop-color:#FDF0F0"/>
	<stop  offset="1" style="stop-color:#F5CFCE"/>
</linearGradient>
<path class="st34" d="M117.2,70.3h49.5c0.8,0,1.4,0.6,1.4,1.4v0c0,0.8-0.6,1.4-1.4,1.4h-49.5c-0.8,0-1.4-0.6-1.4-1.4v0
	C115.7,71,116.4,70.3,117.2,70.3z"/>
<linearGradient id="SVGID_11_" gradientUnits="userSpaceOnUse" x1="141.8516" y1="123.9801" x2="142.0016" y2="121.0901" gradientTransform="matrix(1 0 0 -1 1.358993e-03 185.28)">
	<stop  offset="0" style="stop-color:#F4CDCC"/>
	<stop  offset="0.48" style="stop-color:#FDF0F0"/>
	<stop  offset="1" style="stop-color:#F4CAC9"/>
</linearGradient>
<path class="st35" d="M117.1,62.4l49.5-2.1c0.8,0,1.5,0.6,1.5,1.4l0,0c0,0.8-0.6,1.5-1.4,1.5l-49.5,2.1c-0.8,0-1.5-0.6-1.5-1.4l0,0
	C115.7,63.1,116.3,62.4,117.1,62.4z"/>
<path class="st20" d="M122.8,48.2l0.4,6.7c1-1,2-2,2.9-3.1c0.5-0.6,0.9-1.2,1.3-1.7l-0.4-7c-0.6,0.8-1.2,1.7-1.9,2.5
	S123.5,47.4,122.8,48.2z"/>
<linearGradient id="SVGID_12_" gradientUnits="userSpaceOnUse" x1="141.955" y1="37.27" x2="141.955" y2="102.0939" gradientTransform="matrix(1 0 0 -1 0 185.28)">
	<stop  offset="0" style="stop-color:#5C0D0B"/>
	<stop  offset="0.45" style="stop-color:#90191C"/>
	<stop  offset="0.81" style="stop-color:#B43325"/>
	<stop  offset="0.98" style="stop-color:#C23E33"/>
</linearGradient>
<path class="st36" d="M168.2,86v57.1c0,2.7-2.2,4.9-4.9,4.9l0,0h-42.7c-2.2,0-4.2-1.5-4.7-3.7c-0.1-0.4-0.1-0.7-0.1-1.1
	c0-16.2,0-32.5,0-48.7c4.9,1.2,10,1.3,14.9,0.3c12.8-2.7,17.8-12.1,28.5-11.6C162.4,83.4,165.4,84.4,168.2,86z"/>
<linearGradient id="SVGID_13_" gradientUnits="userSpaceOnUse" x1="173.527" y1="108.6056" x2="176.067" y2="119.0256" gradientTransform="matrix(1 0 0 -1 0 185.28)">
	<stop  offset="0" style="stop-color:#E48125"/>
	<stop  offset="0.25" style="stop-color:#F6A31D"/>
	<stop  offset="0.45" style="stop-color:#F6A71C"/>
	<stop  offset="1" style="stop-color:#F4E07D"/>
</linearGradient>
<path class="st37" d="M174.7,78.8c1.7-1.5,2.9-3.6,3.2-5.9c0.1-1.1,0.5-3.7-1.1-5.6c-0.7-0.8-1.7-1.4-2.8-1.7
	c0.4,1.9,0.2,3.9-0.5,5.8c-0.7,1.6-1.8,3.1-3.2,4.1c0.6,0.8,1.3,1.5,2.1,2.1C173.1,78.1,173.9,78.5,174.7,78.8z"/>
<path class="st38" d="M168.1,143V86v-0.1c-0.1-0.5-0.2-1-0.5-1.4c-0.6-1.3-1.3-2.6-2.2-3.7c-0.9-1.2-2-6-2.5-22.5l-4.4-0.1
	c1.8,45.1,2.3,78,1.2,82.7c-0.4,1.7-1.3,3.3-2.5,4.6c-1.6,1.4-3.7,2.3-5.8,2.5l11.8-0.1C165.9,147.9,168.1,145.7,168.1,143z"/>
<linearGradient id="SVGID_14_" gradientUnits="userSpaceOnUse" x1="158.7251" y1="127.6003" x2="173.485" y2="107.1503" gradientTransform="matrix(1 0 0 -1 0 185.28)">
	<stop  offset="0" style="stop-color:#E48125"/>
	<stop  offset="0.34" style="stop-color:#F6A31D"/>
	<stop  offset="0.75" style="stop-color:#F6A71C"/>
	<stop  offset="1" style="stop-color:#F4E07D"/>
</linearGradient>
<path class="st39" d="M155,52.6c1.4,0.1,3,0.3,4.6,0.5c1.7,0.3,3.3,0.6,4.9,1.1c0.4,0.2,0.8,0.5,1.1,0.9c0.4,0.6,0.7,1.4,0.7,2.1
	c0.2,4.4,0.8,8.8,1.8,13.1c0.5,2.2,1.5,4.2,3,5.9c1,1,2.2,1.9,3.5,2.5c-1.6,0.5-3.3,0.7-5,0.6c-1.6-0.1-3.1-0.5-4.5-1.2
	c-1.5-0.9-2.4-2.4-4.8-11.1c-1.3-4.7-1.4-5.5-2.2-7.7C157.3,57,156.2,54.8,155,52.6z"/>
<path class="st40" d="M140.7,58l0.3,90h-3.6l-0.2-89.8L140.7,58z"/>
<path class="st38" d="M120.9,58.4v15.8c0,1-0.2,1.9-0.6,2.8l-4.3,9.2c-0.2,0.4-0.3,0.8-0.3,1.2v55.8c0,2.6,2.1,4.7,4.7,4.7h7.6
	c-1.3-0.7-2.4-1.7-3.2-3c-0.8-1.4-1.3-3-1.2-4.7c-0.2-11.1-0.2-16.6-0.2-53.4c0-0.4,0.1-0.9,0.3-1.2l3.8-8.8c0.4-0.9,0.6-2,0.6-3
	V58.2L120.9,58.4z"/>
<path class="st33" d="M149.3,109.4C149.3,109.4,149.3,109.4,149.3,109.4c-0.2-0.3-0.1-0.5,0-0.7c0.1-0.2,0.3-0.3,0.5-0.3
	c0.1,0,0.2,0.1,0.2,0.2c0.1,0.3,0,0.6-0.3,0.8C149.7,109.4,149.5,109.4,149.3,109.4z"/>
<path class="st33" d="M155.7,123.3C155.7,123.3,155.7,123.3,155.7,123.3c-0.2,0.1-0.3,0.1-0.5,0.1c-0.1-0.1-0.2-0.2-0.3-0.4
	c0-0.1,0-0.2,0.1-0.2c0.2,0,0.4,0,0.6,0.2C155.7,123.1,155.7,123.2,155.7,123.3z"/>
<path class="st33" d="M153,94.2C153,94.2,153,94.2,153,94.2c-0.1-0.1-0.1-0.3-0.1-0.4c0.1-0.1,0.2-0.2,0.3-0.2c0.1,0,0.1,0,0.1,0.1
	c0,0,0,0,0,0c0,0.2,0,0.4-0.2,0.5C153.2,94.2,153.1,94.2,153,94.2z"/>
<path class="st33" d="M156.1,100.9C156.1,100.9,156.1,100.9,156.1,100.9c-0.2,0.1-0.4,0.1-0.5,0c-0.2-0.1-0.3-0.3-0.3-0.4
	c0-0.1,0-0.2,0.1-0.2c0.2,0,0.4,0,0.6,0.2C156.1,100.6,156.1,100.7,156.1,100.9z"/>
<path class="st33" d="M153.5,143.1C153.5,143.1,153.4,143.2,153.5,143.1c-0.3,0.2-0.5,0.1-0.7,0c-0.2-0.1-0.3-0.3-0.3-0.6
	c0-0.1,0.1-0.2,0.2-0.2c0.3-0.1,0.6,0.1,0.7,0.3C153.4,142.7,153.5,142.9,153.5,143.1z"/>
<path class="st33" d="M125.2,134.4C125.2,134.4,125.2,134.4,125.2,134.4c-0.2,0.1-0.4,0.1-0.5,0c-0.1-0.1-0.2-0.3-0.3-0.4
	c0-0.1,0-0.2,0.1-0.2c0.2,0,0.4,0,0.6,0.2C125.2,134.1,125.2,134.2,125.2,134.4z"/>
<path class="st33" d="M131.6,133.4C131.6,133.4,131.6,133.4,131.6,133.4c-0.1,0.1-0.3,0.1-0.4,0.1c-0.1-0.1-0.2-0.2-0.2-0.3
	c0-0.1,0-0.1,0.1-0.1c0.2,0,0.3,0,0.4,0.2C131.6,133.2,131.6,133.3,131.6,133.4z"/>
<path class="st33" d="M136.2,125.8C136.2,125.8,136.2,125.9,136.2,125.8c-0.2,0.1-0.4,0.1-0.6,0c-0.2-0.1-0.3-0.3-0.3-0.5
	c0-0.1,0-0.2,0.1-0.2c0.2,0,0.5,0,0.6,0.2C136.2,125.5,136.2,125.6,136.2,125.8z"/>
<path class="st33" d="M128.4,87.6C128.3,87.7,128.3,87.7,128.4,87.6c-0.1-0.1-0.1-0.3-0.1-0.4c0.1-0.1,0.2-0.2,0.3-0.2
	c0.1,0,0.1,0,0.1,0.1c0,0,0,0,0,0c0,0.2,0,0.4-0.2,0.5C128.5,87.6,128.4,87.7,128.4,87.6z"/>
<path class="st33" d="M127.4,97.2C127.4,97.2,127.4,97.3,127.4,97.2c-0.1,0.1-0.3,0.1-0.4,0.1c-0.1-0.1-0.2-0.2-0.2-0.4
	c0-0.1,0-0.1,0.1-0.2c0.2,0,0.3,0,0.4,0.2C127.4,97,127.4,97.1,127.4,97.2z"/>
<path class="st33" d="M160.3,138.1C160.3,138.1,160.3,138.1,160.3,138.1c-0.1,0.1-0.3,0.1-0.4,0.1c-0.1-0.1-0.2-0.2-0.2-0.4
	c0-0.1,0-0.1,0.1-0.1c0.2,0,0.3,0,0.4,0.2C160.3,137.9,160.3,138,160.3,138.1z"/>
<path class="st33" d="M156.9,134.2C156.8,134.2,156.8,134.2,156.9,134.2c-0.3-0.1-0.4-0.4-0.3-0.6c0,0,0-0.1,0-0.1
	c0.1,0,0.1,0,0.2,0c0.1,0.1,0.2,0.3,0.2,0.4C157,134,156.9,134.1,156.9,134.2z"/>
<path class="st33" d="M157.1,111.1C157.1,111.2,157.1,111.2,157.1,111.1c-0.1-0.1-0.1-0.3-0.1-0.4c0.1-0.1,0.2-0.2,0.3-0.2
	c0.1,0,0.1,0,0.1,0.1c0,0,0,0,0,0c0,0.2,0,0.4-0.2,0.5C157.3,111.1,157.2,111.2,157.1,111.1z"/>
<path class="st33" d="M160.1,123.5C160.1,123.5,160.1,123.5,160.1,123.5c-0.1,0.1-0.3,0.1-0.4,0.1c-0.1-0.1-0.2-0.2-0.2-0.4
	c0-0.1,0-0.1,0.1-0.2c0.2,0,0.3,0,0.4,0.2C160.1,123.3,160.2,123.4,160.1,123.5z"/>
<path class="st33" d="M157.5,91.9C157.5,91.9,157.5,91.9,157.5,91.9c-0.3-0.1-0.4-0.4-0.3-0.6c0,0,0-0.1,0-0.1c0.1,0,0.1,0,0.2,0
	c0.1,0.1,0.2,0.3,0.2,0.4C157.7,91.7,157.6,91.8,157.5,91.9z"/>
<path class="st33" d="M126.5,122.2C126.4,122.2,126.4,122.1,126.5,122.2c-0.1-0.2-0.1-0.4,0-0.6c0.1-0.2,0.3-0.3,0.4-0.3
	c0.1,0,0.2,0,0.2,0.1c0,0.2,0,0.5-0.2,0.6C126.8,122.1,126.6,122.2,126.5,122.2z"/>
<path class="st33" d="M129.1,110.3C129.1,110.3,129,110.3,129.1,110.3c-0.2-0.3-0.1-0.6,0-0.8c0.1-0.2,0.4-0.4,0.6-0.4
	c0.1,0,0.2,0.1,0.3,0.2c0,0,0,0,0,0c0.1,0.3-0.1,0.6-0.3,0.8C129.5,110.3,129.3,110.4,129.1,110.3z"/>
<path class="st33" d="M127.4,127.1C127.4,127.2,127.4,127.2,127.4,127.1c-0.3,0.2-0.5,0.2-0.7,0c-0.2-0.1-0.3-0.4-0.4-0.6
	c0-0.1,0.1-0.2,0.2-0.3c0.3-0.1,0.6,0.1,0.8,0.3C127.4,126.7,127.4,126.9,127.4,127.1z"/>
</svg>
