<svg id="Layer_1" data-name="Layer 1" xmlns="http://www.w3.org/2000/svg" xmlns:xlink="http://www.w3.org/1999/xlink" viewBox="0 0 287.6 183.9"><defs><style>.cls-1{fill:url(#radial-gradient);}.cls-2{fill:#de9b5e;opacity:0.63;}.cls-12,.cls-3{fill:#fbddbb;}.cls-4{opacity:0.72;fill:url(#linear-gradient);}.cls-5{fill:#ecc11c;}.cls-6{fill:#f9d027;}.cls-7{fill:#faf5ae;}.cls-8{fill:#f2d143;}.cls-9{fill:#f2db79;}.cls-10{fill:url(#linear-gradient-2);}.cls-11{fill:#fcf3be;}.cls-12{opacity:0.69;}.cls-13{fill:#f5cc56;}.cls-14,.cls-27{fill:url(#linear-gradient-3);}.cls-15{fill:#c12126;}.cls-16{fill:url(#linear-gradient-4);}.cls-17,.cls-19{fill:#fff;}.cls-17{opacity:0.16;}.cls-18,.cls-20,.cls-25,.cls-26{opacity:0.31;}.cls-18{fill:url(#linear-gradient-5);}.cls-19{opacity:0.21;}.cls-20{fill:url(#linear-gradient-6);}.cls-21{fill:url(#linear-gradient-7);}.cls-22{fill:#db2e2a;opacity:0.94;}.cls-23{fill:#f4b5b5;opacity:0.19;}.cls-24{fill:url(#linear-gradient-8);}.cls-25{fill:url(#linear-gradient-9);}.cls-26{fill:url(#linear-gradient-10);}.cls-27{opacity:0.55;}.cls-28{fill:#fff2ea;opacity:0.38;}.cls-29{fill:url(#linear-gradient-12);}.cls-30,.cls-31{fill:#f4caa6;}.cls-31{opacity:0.51;}.cls-32{opacity:0.53;fill:url(#linear-gradient-13);}</style><radialGradient id="radial-gradient" cx="143.8" cy="91.95" r="120.69" gradientUnits="userSpaceOnUse"><stop offset="0" stop-color="#eed5a2"/><stop offset="0.1" stop-color="#eecf9a"/><stop offset="0.66" stop-color="#ebad6d"/><stop offset="0.81" stop-color="#eba765"/></radialGradient><linearGradient id="linear-gradient" x1="132.08" y1="150.92" x2="160.68" y2="150.92" gradientUnits="userSpaceOnUse"><stop offset="0" stop-color="#f2d8c0"/><stop offset="0.77" stop-color="#f4caa6"/></linearGradient><linearGradient id="linear-gradient-2" x1="280.85" y1="-70.4" x2="280.85" y2="-51.09" gradientTransform="matrix(0.89, 0.16, -0.15, 0.85, -104.85, 59.03)" gradientUnits="userSpaceOnUse"><stop offset="0.11" stop-color="#f4e07d"/><stop offset="0.55" stop-color="#f9d20a"/><stop offset="1" stop-color="#f6a31d"/></linearGradient><linearGradient id="linear-gradient-3" x1="139.49" y1="54.82" x2="139.49" y2="141.52" gradientUnits="userSpaceOnUse"><stop offset="0.05" stop-color="#fee563"/><stop offset="0.11" stop-color="#fcdd63"/><stop offset="0.46" stop-color="#ec964f"/><stop offset="0.69" stop-color="#f16b22"/><stop offset="0.92" stop-color="#ee2a24"/></linearGradient><linearGradient id="linear-gradient-4" x1="306.73" y1="-50.91" x2="299.35" y2="-43.53" gradientTransform="matrix(0.89, 0.16, -0.15, 0.85, -104.85, 59.03)" gradientUnits="userSpaceOnUse"><stop offset="0" stop-color="#f4e07d"/><stop offset="0.43" stop-color="#f9d20a"/><stop offset="0.77" stop-color="#f7b01a"/><stop offset="1" stop-color="#f6a31d"/></linearGradient><linearGradient id="linear-gradient-5" x1="-81.36" y1="-33.62" x2="-73.37" y2="-41.01" gradientTransform="matrix(0.66, 0.75, -0.75, 0.66, 172.52, 148.43)" gradientUnits="userSpaceOnUse"><stop offset="0" stop-color="#dbdebc"/><stop offset="0.97" stop-color="#fff"/></linearGradient><linearGradient id="linear-gradient-6" x1="244.52" y1="78.23" x2="253.32" y2="70.1" gradientTransform="translate(-97.79 -49.36) rotate(10.02)" xlink:href="#linear-gradient-5"/><linearGradient id="linear-gradient-7" x1="205.32" y1="163.96" x2="205.32" y2="175.05" gradientTransform="translate(-113.6 -54.76) rotate(-14.24)" gradientUnits="userSpaceOnUse"><stop offset="0.38" stop-color="#ee3624"/><stop offset="1" stop-color="#a82723"/></linearGradient><linearGradient id="linear-gradient-8" x1="121.7" y1="55.81" x2="121.7" y2="42.99" gradientUnits="userSpaceOnUse"><stop offset="0.06" stop-color="#c76960"/><stop offset="0.79" stop-color="#ee3624"/><stop offset="0.94" stop-color="#a82723"/><stop offset="1" stop-color="#6f2012"/></linearGradient><linearGradient id="linear-gradient-9" x1="145.89" y1="31.57" x2="154.03" y2="24.05" gradientTransform="translate(2.93 -1.75) rotate(22.54)" xlink:href="#linear-gradient-5"/><linearGradient id="linear-gradient-10" x1="157.72" y1="21.37" x2="165.85" y2="13.84" gradientTransform="translate(2.93 -1.75) rotate(22.54)" xlink:href="#linear-gradient-5"/><linearGradient id="linear-gradient-12" x1="292.72" y1="-40.78" x2="292.72" y2="-70.35" gradientTransform="matrix(0.89, 0.16, -0.15, 0.85, -104.85, 59.03)" gradientUnits="userSpaceOnUse"><stop offset="0" stop-color="#f4e07d"/><stop offset="0.22" stop-color="#f9d20a"/><stop offset="1" stop-color="#f6a31d"/></linearGradient><linearGradient id="linear-gradient-13" x1="140.67" y1="145.86" x2="144.81" y2="145.86" gradientUnits="userSpaceOnUse"><stop offset="0" stop-color="#fbe7d1"/><stop offset="0.57" stop-color="#fadcbb"/></linearGradient></defs><title>tequila-sunrise</title><rect class="cls-1" width="287.6" height="183.9"/><ellipse class="cls-2" cx="140.18" cy="152.48" rx="26.42" ry="5.28"/><path class="cls-3" d="M167,49.55l-17.81,87.19a23.6,23.6,0,0,0-.44,3.24c-0.07,1.25-.12,2.57-0.1,4s0.09,2.71.19,3.94a0.92,0.92,0,0,1-.45.87,16.22,16.22,0,0,1-16.28.12l0.33,0-0.94-1.64c0.07-1,.11-2.09.12-3.2s0-2.36-.07-3.46a26,26,0,0,0-.49-3.71q-8.91-43.66-17.81-87.32a1.51,1.51,0,0,1,1.28-1.81,199.59,199.59,0,0,1,51.18,0A1.53,1.53,0,0,1,167,49.55Z"/><path class="cls-3" d="M131.52,146.38c-11,1.59-13.49,3-13.5,4.09,0,2.31,11.65,4.7,21.56,4.84s22.23-1.91,22.46-4.73a1,1,0,0,0,0-.17c-0.23-2.09-7.8-3.36-13.33-4H131.52Z"/><path class="cls-4" d="M152.27,147.79c1.28,0.18,8.39,1.19,8.41,2.63s-5.92,2.34-8.08,2.71a69.85,69.85,0,0,1-20.53.32q20.63-.79,21.31-3.83Q153.58,148.8,152.27,147.79Z"/><path class="cls-5" d="M162,34.43a17.44,17.44,0,0,0-17.67,7.41l0.43,0.27L146,42.91l13.75,8.72,4.31,2.73,8,5.09,1.37,0.87,0.23,0.15a16.47,16.47,0,0,0,2.48-6.21A17.26,17.26,0,0,0,162,34.43Z"/><path class="cls-6" d="M162.08,34.74a17,17,0,0,0-17.35,7.37L146,42.91l13.75,8.72,4.31,2.73,8,5.09,1.37,0.87a16.24,16.24,0,0,0,2.5-6.2A16.88,16.88,0,0,0,162.08,34.74Z"/><path class="cls-7" d="M174.47,52.59a1.11,1.11,0,0,0-.06-0.72,0.21,0.21,0,0,1-.08-0.08s0-.05,0-0.07a1.63,1.63,0,0,0,0-.17,1.54,1.54,0,0,1,.05-0.34l0.12-.7a1.6,1.6,0,0,0,0-.35,0.66,0.66,0,0,0-.08-0.25,1.42,1.42,0,0,1,0-.69,1.92,1.92,0,0,0,.07-0.37,1.94,1.94,0,0,0-.13-0.33c0-.15-0.08-0.31-0.14-0.45a1,1,0,0,0-.18-0.22,0.38,0.38,0,0,1-.08-0.23,3.13,3.13,0,0,0-.1-0.38,0.62,0.62,0,0,1,0-.12,1.79,1.79,0,0,0,0-.18,0.93,0.93,0,0,0-.05-0.31,1.81,1.81,0,0,0-.24-0.28,0.75,0.75,0,0,1-.12-0.28,0.67,0.67,0,0,0,0-.3,1.19,1.19,0,0,0-.1-0.15s0-.09,0-0.13a0.9,0.9,0,0,1-.06-0.09,0.82,0.82,0,0,1,0-.14,1.63,1.63,0,0,0-.12-0.28,0.45,0.45,0,0,1-.07-0.25,0.59,0.59,0,0,1-.19-0.14,0.86,0.86,0,0,1-.17-0.08s0-.09-0.08-0.12a1.13,1.13,0,0,0-.18-0.12,1.94,1.94,0,0,1-.37-0.52,1.13,1.13,0,0,1-.22-0.54,0.69,0.69,0,0,0,0-.38c0-.08-0.06,0-0.15-0.07a1.11,1.11,0,0,0-.14-0.1s0-.06,0-0.09a0.87,0.87,0,0,1-.44-0.39l-0.27-.37a2.2,2.2,0,0,1-.25-0.38,0.18,0.18,0,0,1,0-.05,0.11,0.11,0,0,0-.08-0.08,0.32,0.32,0,0,1-.05-0.11,0.4,0.4,0,0,0-.06-0.22,0.93,0.93,0,0,0-.5-0.31,2.6,2.6,0,0,1-.59-0.28,0.82,0.82,0,0,1-.43-0.4,2,2,0,0,0-.23-0.28,0.41,0.41,0,0,0-.22-0.23c0-.18-0.15-0.19-0.23-0.27s0-.07-0.08-0.1l-0.07,0-0.18-.14a0.71,0.71,0,0,0-.12-0.12,1.27,1.27,0,0,0-.22,0,0.79,0.79,0,0,0-.15-0.08c-0.1,0-.21,0-0.3-0.06a1.13,1.13,0,0,0-.12-0.07,0.72,0.72,0,0,1-.11,0,0.21,0.21,0,0,1,0-.06l-0.1-.08a0.64,0.64,0,0,1-.24-0.18,4.32,4.32,0,0,0-.36-0.3,1.7,1.7,0,0,0-.22-0.2,1.54,1.54,0,0,0-.68-0.22l-0.43-.08a1.37,1.37,0,0,1-.31-0.11,3.65,3.65,0,0,1-.69-0.34,1.55,1.55,0,0,1-.23-0.19,0.8,0.8,0,0,0-.2-0.21,2,2,0,0,0-.43-0.08l-1.37-.25c0-.34-1.05-0.06-1.22,0l-0.28,0a1.53,1.53,0,0,1-.54,0,0.45,0.45,0,0,1-.47-0.26c0-.13,0-0.15-0.17-0.18a0.21,0.21,0,0,0-.2,0,3.21,3.21,0,0,1-.37.18,0.84,0.84,0,0,1-.29.11,1.77,1.77,0,0,0-.55-0.06,2.13,2.13,0,0,1-.59.22,2.09,2.09,0,0,0-.34,0,2.48,2.48,0,0,1-.38,0,2,2,0,0,0-.4,0,0.19,0.19,0,0,0-.1,0s0,0.07,0,.09a0.88,0.88,0,0,1-.22.08,3,3,0,0,1-.41.09,1.68,1.68,0,0,1-.53-0.06,1.12,1.12,0,0,0-.55,0,2,2,0,0,0-.39.14,2.29,2.29,0,0,0-.34.2,1.08,1.08,0,0,1-.31.21,0.84,0.84,0,0,1-.3,0,0.48,0.48,0,0,0-.21.08,0.44,0.44,0,0,1-.12,0,0.9,0.9,0,0,0-.21.09,1.26,1.26,0,0,1-.32,0,1.7,1.7,0,0,0-.72.31,1.48,1.48,0,0,0-.39.39l-0.15.24a1,1,0,0,0-.12.31c-0.15,0-.31,0-0.47.1a0.65,0.65,0,0,0-.35.26s0,0.08-.06.11a1.07,1.07,0,0,1-.1,0,2.07,2.07,0,0,0-.24.34,2.85,2.85,0,0,0-.13.39h-0.15l0,0.08a1,1,0,0,0-.2,0,1,1,0,0,0-.13.1,1.92,1.92,0,0,0-.24.3,4.29,4.29,0,0,0-.33.43,2.71,2.71,0,0,1-.15.3,1.11,1.11,0,0,0-.16.2,0.37,0.37,0,0,1-.17.27,1.84,1.84,0,0,0-.32.21,2.66,2.66,0,0,0-.38.28c0,0.06-.05.16-0.11,0.23l-0.11.1a2,2,0,0,1-.16.24c-0.09.09-.18,0.17-0.26,0.28a1.57,1.57,0,0,1-.12.16l13.75,8.72,4.31,2.73,8,5.09a0.79,0.79,0,0,0,.08-0.15,1.5,1.5,0,0,1,.13-0.3,0.6,0.6,0,0,0,.1-0.09,0.88,0.88,0,0,0,0-.18,0.83,0.83,0,0,1,.07-0.12,1.23,1.23,0,0,0,0-.15,0.89,0.89,0,0,1,.09-0.17,0.35,0.35,0,0,1,.11-0.16,1.84,1.84,0,0,0,.3-0.55,2.23,2.23,0,0,0,.23-0.71,1.75,1.75,0,0,1,.13-0.43,0.81,0.81,0,0,1,.19-0.33c0.08-.06.08,0,0.11-0.13s0-.12,0-0.18a1.33,1.33,0,0,0,0-.15,0.52,0.52,0,0,0-.07-0.21,1.16,1.16,0,0,1,.06-0.39l0.21-1.2a1.79,1.79,0,0,1,0-.18,0.29,0.29,0,0,1,.11-0.17,0.39,0.39,0,0,0,.05-0.16,0.47,0.47,0,0,1,.07-0.08s0-.11.05-0.15l0-.05,0.07-.16A1.23,1.23,0,0,0,174.47,52.59Z"/><path class="cls-8" d="M156.44,38a0.65,0.65,0,0,1,.51-0.78,11.46,11.46,0,0,1,8.79,1.59,0.65,0.65,0,0,1,.2.89l-6.35,10.2a0.24,0.24,0,0,1-.44-0.07Z"/><path class="cls-8" d="M172.3,48.51a0.68,0.68,0,0,1,.8.5,10.66,10.66,0,0,1-1.54,8.57,0.68,0.68,0,0,1-.91.18l-10.51-6.31a0.23,0.23,0,0,1,.07-0.43Z"/><path class="cls-8" d="M166.51,40.07a0.68,0.68,0,0,1,.93-0.2A11.33,11.33,0,0,1,171,43.29a10.93,10.93,0,0,1,1.57,3.76,0.65,0.65,0,0,1-.5.76l-11.92,2.75a0.24,0.24,0,0,1-.26-0.35Z"/><path class="cls-8" d="M147.87,43.57a0.65,0.65,0,0,1-.21-0.91,11,11,0,0,1,3.46-3.44,11.27,11.27,0,0,1,3.84-1.5,0.68,0.68,0,0,1,.78.5l2.93,11.67a0.24,0.24,0,0,1-.36.25Z"/><path class="cls-8" d="M164.06,54.37l-4.31-2.73a0.23,0.23,0,0,1,.19,0Z"/><path class="cls-7" d="M156.24,47.75a2.37,2.37,0,0,0,1.65,1.52,0.12,0.12,0,0,0,.17-0.11,2.3,2.3,0,0,0-.86-2,0.81,0.81,0,0,0-.71,0A0.75,0.75,0,0,0,156.24,47.75Z"/><path class="cls-7" d="M162.79,49.13a2.36,2.36,0,0,1-2.07.85,0.12,0.12,0,0,1-.12-0.17,2.29,2.29,0,0,1,1.51-1.61,0.81,0.81,0,0,1,.67.25A0.75,0.75,0,0,1,162.79,49.13Z"/><path class="cls-9" d="M160.64,40.45a16,16,0,0,0-.3,5.17c0,0.19.09,0.21,0.15,0a15.27,15.27,0,0,0,1-5,1.59,1.59,0,0,0-.31-1A1.33,1.33,0,0,0,160.64,40.45Z"/><path class="cls-9" d="M158.33,39.28a15.11,15.11,0,0,0,.74,4.43c0,0.16.11,0.15,0.12,0a15,15,0,0,0-.18-4.48,1.31,1.31,0,0,0-.43-0.77A1.35,1.35,0,0,0,158.33,39.28Z"/><path class="cls-9" d="M163.25,39.51a10.44,10.44,0,0,0-1.05,3.58c0,0.14,0,.17.1,0.07a9.51,9.51,0,0,0,1.54-3.27,1.24,1.24,0,0,0-.07-0.81A0.79,0.79,0,0,0,163.25,39.51Z"/><path class="cls-9" d="M168.36,44.54a16.47,16.47,0,0,0-4.27,3c-0.14.13-.11,0.2,0.07,0.14a15.91,15.91,0,0,0,4.59-2.39,1.58,1.58,0,0,0,.6-0.87A1.4,1.4,0,0,0,168.36,44.54Z"/><path class="cls-9" d="M167.11,42.34a15.25,15.25,0,0,0-3,3.34c-0.09.13-.05,0.18,0.09,0.08a15.29,15.29,0,0,0,3.42-3,1.28,1.28,0,0,0,.33-0.81A1.42,1.42,0,0,0,167.11,42.34Z"/><path class="cls-9" d="M170.08,46.2a11,11,0,0,0-3.5,1.45c-0.12.07-.12,0.13,0,0.12a10,10,0,0,0,3.56-.89,1.27,1.27,0,0,0,.6-0.56A0.82,0.82,0,0,0,170.08,46.2Z"/><path class="cls-9" d="M153.2,42a16.45,16.45,0,0,1,2.64,4.51c0.08,0.18,0,.23-0.12.1a15.89,15.89,0,0,1-3.19-4.07,1.58,1.58,0,0,1-.19-1A1.4,1.4,0,0,1,153.2,42Z"/><path class="cls-9" d="M154.74,40a15.23,15.23,0,0,1,1.37,4.29c0,0.16,0,.18-0.11,0a15.27,15.27,0,0,1-1.89-4.1,1.28,1.28,0,0,1,0-.87A1.41,1.41,0,0,1,154.74,40Z"/><path class="cls-9" d="M150.43,42.28A10.94,10.94,0,0,1,153,45c0.08,0.12.05,0.17-.06,0.11a10,10,0,0,1-2.88-2.28,1.26,1.26,0,0,1-.31-0.76A0.82,0.82,0,0,1,150.43,42.28Z"/><path class="cls-9" d="M170.62,53.19a17.1,17.1,0,0,1-5.14-1.26c-0.18-.07-0.18-0.15,0-0.15a16.37,16.37,0,0,1,5.19.57,1.66,1.66,0,0,1,.9.59A1.39,1.39,0,0,1,170.62,53.19Z"/><path class="cls-9" d="M170.32,55.68a16,16,0,0,1-4.11-2c-0.14-.09-0.12-0.14,0-0.11a16,16,0,0,1,4.33,1.51,1.34,1.34,0,0,1,.63.63A1.44,1.44,0,0,1,170.32,55.68Z"/><path class="cls-9" d="M171.56,51a11.17,11.17,0,0,1-3.81-.09c-0.14,0-.16-0.08,0-0.12a10.1,10.1,0,0,1,3.65-.45,1.32,1.32,0,0,1,.77.3A0.79,0.79,0,0,1,171.56,51Z"/><path class="cls-10" d="M148.83,59.82l7.71-.95a12.76,12.76,0,0,1,1.88-6.94c0.19-.29.38-0.56,0.58-0.82,0.17-3.6-.48-6.36-1.8-6.72a2.1,2.1,0,0,0-1,0,5.58,5.58,0,0,0-3.17,2.08,13.26,13.26,0,0,0-2.39,3.87A28.81,28.81,0,0,0,148.83,59.82Z"/><path class="cls-11" d="M151.16,49.22c0.54-1.08,2.07-3.8,4.69-4.73a1.52,1.52,0,0,1,1-.11c2.07,0.6,2.2,6.84,2.09,6.86l-0.11-.35c-0.22-.7-0.36-1.23-0.44-1.49-0.28-1-.43-1.52-0.48-1.66a3.3,3.3,0,0,0-1.49-2.07c-1-.36-2.27.55-3.1,1.15A7.73,7.73,0,0,0,151.16,49.22Z"/><path class="cls-12" d="M113.21,49.56a1.51,1.51,0,0,1,1.28-1.81,199.57,199.57,0,0,1,51.17,0,1.53,1.53,0,0,1,1.3,1.83l-17.81,87.19a23.36,23.36,0,0,0-.44,3.25c-0.08,1.25-.11,2.57-0.1,4s0.08,2.71.19,3.94a0.92,0.92,0,0,1-.45.87,16.22,16.22,0,0,1-16.55,0,0.82,0.82,0,0,1-.4-0.78c0.1-1.24.16-2.55,0.18-3.94,0-1.21,0-2.36-.08-3.46a25.32,25.32,0,0,0-.49-3.71Z"/><path class="cls-13" d="M161.09,62.73a3.74,3.74,0,0,1-.05.4,4.56,4.56,0,0,1-.11.51A17.41,17.41,0,0,1,153.07,65a14,14,0,0,1-4.78-1.18l0,0c-2.9-1.28-5.56-3.42-10.71-5.77-0.46-.21-0.92-0.42-1.42-0.63a50.3,50.3,0,0,0-5.3-1.91L130,55.23l-0.1,0,0.17,0c0.92,0.21,1.8.41,2.65,0.59,8.92,1.86,14.72,1.67,18.59,1,1.63-.3,5.48-1,7.7,1A6.5,6.5,0,0,1,161.09,62.73Z"/><path class="cls-14" d="M161.05,63.12Q153.92,99.54,146.79,136a6.8,6.8,0,0,1-6,5.54l-0.48,0a6.6,6.6,0,0,1-6.65-5.52L117.93,55.75a28.86,28.86,0,0,1,9.47-.84,24.62,24.62,0,0,1,2.58.33H130c0.92,0.21,1.8.41,2.65,0.59,11.37,3,15.63,9.85,23.29,9a13.22,13.22,0,0,0,5-1.69h0Z"/><path class="cls-15" d="M133.94,137a6.62,6.62,0,0,0,9,4,6.9,6.9,0,0,0,2-1.48,7,7,0,0,0,1-1.26,7.31,7.31,0,0,0,.57-1.24,14.51,14.51,0,0,0,.61-2.42c0.18-.92.31-1.62,0.34-1.79,0.13-.71.32-1.75,0.56-3a3.86,3.86,0,0,0-1.16-.09c-3.7.29-4.55,6-8.62,7.43A6.68,6.68,0,0,1,133.94,137Z"/><path class="cls-16" d="M171.48,72.34a7.55,7.55,0,0,0,4.08-3.94,4.38,4.38,0,0,0-.39-4.49,6.08,6.08,0,0,0-2.54-1.76,6.12,6.12,0,0,1-1.33,4.33,8.36,8.36,0,0,1-3.78,2.58,8.74,8.74,0,0,0,1.82,2A10.55,10.55,0,0,0,171.48,72.34Z"/><path class="cls-17" d="M149.39,72.31l-5-5.67a1.87,1.87,0,0,1,.16-2.63l5.31-4.7a1.85,1.85,0,0,1,2.62.16l5,5.67a1.87,1.87,0,0,1-.16,2.63L152,72.47A1.85,1.85,0,0,1,149.39,72.31Z"/><path class="cls-18" d="M148.81,71.65l-4.49-5.11a1.74,1.74,0,0,1,.15-2.45l4.78-4.23a1.72,1.72,0,0,1,2.44.15l4.49,5.11a1.74,1.74,0,0,1-.15,2.45l-4.78,4.23A1.72,1.72,0,0,1,148.81,71.65Z"/><path class="cls-19" d="M149.6,59.54a1.21,1.21,0,0,1,1.76.11l5.12,5.83a1.38,1.38,0,0,1,.27,1.13,1.28,1.28,0,0,1-.38.64l-5.49,4.87a1.24,1.24,0,0,1-.85.33,1.26,1.26,0,0,1-.91-0.44,1.32,1.32,0,0,0,1,.09,1.23,1.23,0,0,0,.5-0.33L156.06,67a1.19,1.19,0,0,0,.1-1.27l-5-5.73a1.21,1.21,0,0,0-.51-0.44A1.3,1.3,0,0,0,149.6,59.54Z"/><path class="cls-17" d="M139.13,72.57l-8.43-1.49a1.86,1.86,0,0,1-1.5-2.16l1.4-8a1.85,1.85,0,0,1,2.15-1.51l8.43,1.49a1.86,1.86,0,0,1,1.5,2.16l-1.4,8A1.85,1.85,0,0,1,139.13,72.57Z"/><path class="cls-20" d="M138.17,72.4L130.58,71a1.73,1.73,0,0,1-1.4-2l1.26-7.18a1.73,1.73,0,0,1,2-1.4l7.6,1.35a1.73,1.73,0,0,1,1.4,2L140.17,71A1.73,1.73,0,0,1,138.17,72.4Z"/><path class="cls-19" d="M130.5,61.51a1.37,1.37,0,0,1,.57-0.91,1.35,1.35,0,0,1,1-.2l8.31,1.47a1.5,1.5,0,0,1,1,.78,1.4,1.4,0,0,1,.11.8l-1.39,7.9a1.33,1.33,0,0,1-1.58,1.11,1.44,1.44,0,0,0,.93-0.61,1.35,1.35,0,0,0,.2-0.62L141,63.43a1.29,1.29,0,0,0-.78-1.16l-8.13-1.49a1.32,1.32,0,0,0-.73,0A1.43,1.43,0,0,0,130.5,61.51Z"/><path class="cls-17" d="M133.8,87.4l-7.13-3a1.86,1.86,0,0,1-1-2.43l2.78-6.73a1.85,1.85,0,0,1,2.42-1l7.13,3a1.86,1.86,0,0,1,1,2.43l-2.78,6.73A1.85,1.85,0,0,1,133.8,87.4Z"/><path class="cls-21" d="M126.1,54.19a2.67,2.67,0,0,1-1.36.55,4.83,4.83,0,0,0-3.7,2c-1.35,2.25.34,5.4,2.41,6.82,3,2.05,6.57.34,6.73,0.26a5.94,5.94,0,0,0,2.34-2.3c1.6-3,.53-7.75-2.24-8.57C128.66,52.46,127,53.5,126.1,54.19Z"/><path class="cls-22" d="M127.69,55.64a2.25,2.25,0,0,1-2.54,1.1l-0.1,0c-0.39-.11-1.19-0.42-1.18-0.74s0.86-.55,1.66-0.7a1.22,1.22,0,0,0,.58-0.28c0.53-.46,1.41-1.15,1.75-0.91a1.54,1.54,0,0,1-.1,1.4Z"/><path class="cls-23" d="M125.92,63.24c-3-.76-4.65-3.47-4.13-5.65a3.44,3.44,0,0,1,.51-1.14,0.42,0.42,0,0,1,.73.4,4.43,4.43,0,0,0-.33,1.36A5.15,5.15,0,0,0,125.92,63.24Z"/><path class="cls-23" d="M131.51,61.21c1.53-2.7.74-5.77-1.18-6.91a3.42,3.42,0,0,0-1.17-.42,0.42,0.42,0,0,0-.22.81,4.4,4.4,0,0,1,1.21.7A5.17,5.17,0,0,1,131.51,61.21Z"/><path class="cls-24" d="M125.68,55.77a0.5,0.5,0,0,0,.48,0,0.68,0.68,0,0,0,.24-0.3c-0.39-.9-0.94-2.28-1.75-3.82a37.86,37.86,0,0,0-6-8.35,0.84,0.84,0,0,0-1.38.27l-0.19.48a0.83,0.83,0,0,0,.32,1,20.21,20.21,0,0,1,6.53,6.74A19.5,19.5,0,0,1,125.68,55.77Z"/><path class="cls-25" d="M133,87.06l-6.42-2.68a1.73,1.73,0,0,1-.93-2.26l2.5-6.06a1.72,1.72,0,0,1,2.26-.94l6.42,2.68a1.73,1.73,0,0,1,.93,2.26l-2.5,6.06A1.72,1.72,0,0,1,133,87.06Z"/><path class="cls-19" d="M128.3,75.64a1.23,1.23,0,0,1,1.66-.69l7.27,3a1.4,1.4,0,0,1,.75.91,1.3,1.3,0,0,1-.07.75l-2.85,6.9a1.23,1.23,0,0,1-1.66.69,1.34,1.34,0,0,0,1-.37,1.25,1.25,0,0,0,.31-0.52l2.82-6.82a1.2,1.2,0,0,0-.47-1.21l-7.1-3a1.23,1.23,0,0,0-.66-0.18A1.33,1.33,0,0,0,128.3,75.64Z"/><path class="cls-17" d="M148.63,82.51l-7.13-3a1.86,1.86,0,0,1-1-2.43l2.78-6.73a1.85,1.85,0,0,1,2.42-1l7.13,3a1.86,1.86,0,0,1,1,2.43l-2.78,6.73A1.85,1.85,0,0,1,148.63,82.51Z"/><path class="cls-26" d="M147.81,82.16l-6.42-2.68a1.73,1.73,0,0,1-.93-2.26l2.5-6.06a1.72,1.72,0,0,1,2.26-.94l6.42,2.68a1.73,1.73,0,0,1,.93,2.26l-2.5,6.06A1.72,1.72,0,0,1,147.81,82.16Z"/><path class="cls-19" d="M143.13,70.74a1.23,1.23,0,0,1,1.66-.69l7.27,3a1.4,1.4,0,0,1,.75.91,1.3,1.3,0,0,1-.07.75l-2.85,6.9a1.23,1.23,0,0,1-1.66.69,1.34,1.34,0,0,0,1-.37,1.25,1.25,0,0,0,.31-0.52l2.82-6.82a1.2,1.2,0,0,0-.47-1.21l-7.1-3a1.23,1.23,0,0,0-.66-0.18A1.33,1.33,0,0,0,143.13,70.74Z"/><path class="cls-27" d="M161.05,63.12Q153.92,99.54,146.79,136a6.8,6.8,0,0,1-6,5.54l-0.48,0a6.6,6.6,0,0,1-6.65-5.52L117.93,55.75a28.86,28.86,0,0,1,9.47-.84,24.62,24.62,0,0,1,2.58.33H130c0.92,0.21,1.8.41,2.65,0.59,11.37,3,15.63,9.85,23.29,9a13.22,13.22,0,0,0,5-1.69h0Z"/><path class="cls-28" d="M116.28,47.51c9.53,48.79,16.57,84.34,17.44,88.49a7.08,7.08,0,0,0,1.83,3.59,6.7,6.7,0,0,0,6.08,1.84,6.88,6.88,0,0,0,4.57-3.72,5.91,5.91,0,0,1-3.22,1.67,5.62,5.62,0,0,1-1,.07,4.13,4.13,0,0,1-2.47-.87A8.08,8.08,0,0,1,137,135.2a8.31,8.31,0,0,1-.55-2.07c-0.36-2.75-6.85-36.88-16.28-86l-2.06.2Z"/><path class="cls-29" d="M156.78,44.36l4.49,1.3a35.65,35.65,0,0,1,4.18,1.71,2.65,2.65,0,0,1,.86.6,2.93,2.93,0,0,1,.45.64,3.52,3.52,0,0,1,.29,2.12,65.91,65.91,0,0,0-.45,12.61,13.11,13.11,0,0,0,1.92,6.08,11,11,0,0,0,3,2.94,13,13,0,0,1-4.89-.35,10.14,10.14,0,0,1-4.11-1.93c-1.31-1.16-1.89-2.7-2.79-11.3-0.14-1.39-.4-3.33-0.64-6.24,0-.43-0.06-0.79-0.08-1,0-.59,0-1.09,0-1.48a15,15,0,0,0-.3-2.4c-0.06-.3-0.16-0.68-0.29-1.11a3.35,3.35,0,0,0-1-1.86A1.79,1.79,0,0,0,156.78,44.36Z"/><path class="cls-30" d="M128.22,153.09c0,0.15-8.26-1.13-8.25-2.69,0-.91,2.68-2,11.49-3.2v0l-0.05.73a0.81,0.81,0,0,0,.4.78l0.27,0.16c-4.31.45-8.63,1.13-8.67,2.12S128.25,153,128.22,153.09Z"/><path class="cls-31" d="M146.35,144.46a28.78,28.78,0,0,0,.18,3,11.32,11.32,0,0,1-1.5.85c-0.23.11-.48,0.22-0.75,0.32l-0.41.15h0l-0.42.13-0.27.08-0.42.11-0.46.1-0.34.06-0.45.06c-0.3,0-.58.05-0.84,0.06l-0.39,0a11.65,11.65,0,0,1-6.46-1.94c0.1-1,.16-2.07.16-3.24s-0.06-2.25-.16-3.23a9.15,9.15,0,0,0,6.25,2.75h0.61a8.76,8.76,0,0,0,4.17-1.37,9.36,9.36,0,0,0,1.69-1.36A28.61,28.61,0,0,0,146.35,144.46Z"/><path class="cls-32" d="M144.81,148.39l-0.53.21-0.41.15h0l-0.42.13-0.27.08-0.42.11-0.46.1-0.34.06-0.45.06c-0.3,0-.58.05-0.84,0.06q0-2.83,0-5.66h0a8.8,8.8,0,0,0,4.06-1.3A19.78,19.78,0,0,0,144.81,148.39Z"/></svg>