<?xml version="1.0" encoding="utf-8"?>
<!-- Generator: Adobe Illustrator 19.2.1, SVG Export Plug-In . SVG Version: 6.00 Build 0)  -->
<svg version="1.1" id="Layer_1" xmlns="http://www.w3.org/2000/svg" xmlns:xlink="http://www.w3.org/1999/xlink" x="0px" y="0px"
	 viewBox="0 0 287.6 183.9" style="enable-background:new 0 0 287.6 183.9;" xml:space="preserve">
<style type="text/css">
	.st0{fill:url(#SVGID_1_);}
	.st1{opacity:0.27;fill:#C8972C;enable-background:new    ;}
	.st2{fill:#F9EFC7;}
	.st3{fill:#FBF7E6;}
	.st4{opacity:0.66;fill:url(#SVGID_2_);enable-background:new    ;}
	.st5{fill:#E1AF25;}
	.st6{fill:#F9D027;}
	.st7{fill:#FAF5AE;}
	.st8{fill:#F7D857;}
	.st9{fill:#F6E6A0;}
	.st10{fill:#F2E4A9;}
	.st11{fill:url(#SVGID_3_);}
	.st12{fill:url(#SVGID_4_);}
	.st13{opacity:0.3;fill:#F4B5B5;enable-background:new    ;}
	.st14{fill:url(#SVGID_5_);}
	.st15{opacity:0.7;fill:url(#SVGID_6_);enable-background:new    ;}
	.st16{opacity:0.81;fill:#E5C63C;enable-background:new    ;}
	.st17{opacity:0.56;fill:#DB2E2A;enable-background:new    ;}
	.st18{opacity:0.19;fill:#F4B5B5;enable-background:new    ;}
	.st19{fill:#DB2E2A;}
	.st20{opacity:0.68;fill:url(#SVGID_7_);enable-background:new    ;}
	.st21{opacity:0.22;fill:#F4B5B5;enable-background:new    ;}
	.st22{opacity:0.68;fill:#C8972C;enable-background:new    ;}
	.st23{fill:#BE8D2D;}
	.st24{opacity:0.66;fill:url(#SVGID_8_);enable-background:new    ;}
	.st25{opacity:0.66;fill:url(#SVGID_9_);enable-background:new    ;}
	.st26{opacity:0.66;fill:url(#SVGID_10_);enable-background:new    ;}
	.st27{opacity:0.66;fill:url(#SVGID_11_);enable-background:new    ;}
	.st28{opacity:0.66;fill:url(#SVGID_12_);enable-background:new    ;}
	.st29{opacity:0.66;fill:url(#SVGID_13_);enable-background:new    ;}
	.st30{opacity:0.66;fill:url(#SVGID_14_);enable-background:new    ;}
	.st31{opacity:0.66;fill:url(#SVGID_15_);enable-background:new    ;}
	.st32{opacity:0.66;fill:url(#SVGID_16_);enable-background:new    ;}
	.st33{opacity:0.66;fill:url(#SVGID_17_);enable-background:new    ;}
	.st34{opacity:0.55;fill:#F4D13C;enable-background:new    ;}
	.st35{opacity:0.88;fill:#E9B221;enable-background:new    ;}
	.st36{opacity:0.4;fill:#FFF2EA;enable-background:new    ;}
	.st37{opacity:0.53;fill:#FFF2EA;enable-background:new    ;}
	.st38{opacity:0.33;fill:#FFF2EA;enable-background:new    ;}
</style>
<title>whiskey-sour</title>
<radialGradient id="SVGID_1_" cx="143.8" cy="91.95" r="120.6923" gradientUnits="userSpaceOnUse">
	<stop  offset="3.936145e-02" style="stop-color:#F5E5C6"/>
	<stop  offset="0.3249" style="stop-color:#EED5A2"/>
	<stop  offset="0.6047" style="stop-color:#F5CE7B"/>
	<stop  offset="0.85" style="stop-color:#F9C95D"/>
	<stop  offset="0.9544" style="stop-color:#F9C95D"/>
</radialGradient>
<rect y="0" class="st0" width="287.6" height="183.9"/>
<ellipse class="st1" cx="144.8" cy="130" rx="28.7" ry="5.8"/>
<path class="st2" d="M118.3,67.9c-0.9,0-1.7,0.8-1.6,1.7c0,0.1,0,0.1,0,0.2c2,19.4,3.9,38.9,5.9,58.3c0.1,0.9,0.8,1.6,1.7,1.8
	c6.9,0.8,13.7,1.2,20.6,1.1c6.6,0,13.3-0.4,19.8-1.2c0.8-0.1,1.4-0.7,1.4-1.5l5.5-58.5c0.1-0.9-0.6-1.7-1.5-1.8c-0.1,0-0.1,0-0.2,0
	L118.3,67.9L118.3,67.9z"/>
<path class="st3" d="M167.6,79.3c-1.2,0.5-2.3,1-3.6,1.4c-1.7,0.6-3.4,1-5.2,1.3l-0.8,0.1c-0.6,0.1-1.1,0.2-1.6,0.2
	c-1.8,0.2-3.5,0.2-5.3,0.1c-3.3-0.2-6.5-0.6-9.7-1.2c-3.4-0.5-6.7-1.3-10.1-2.2c3.6,0.3,7.2,0.5,10.9,0.4c4.2-0.1,7-0.5,10-0.7
	c1.6-0.1,3.3-0.2,5.3-0.2h1.2l0,0c1.3,0,2.6,0.1,3.7,0.2C164.5,78.8,166.3,79.1,167.6,79.3z"/>
<path class="st3" d="M158.9,81.5c0,0.2,0,0.3,0,0.5l-0.8,0.1c-0.6,0.1-1.1,0.2-1.6,0.2c-1.8,0.2-3.5,0.2-5.3,0.1
	c-0.1-0.3-0.1-0.6-0.1-0.9c0.1-2.2,1.9-3.9,4.1-3.9c0.9,0,1.7,0.3,2.3,0.9c0.2,0.1,0.3,0.3,0.5,0.5
	C158.5,79.6,158.9,80.5,158.9,81.5z"/>
<radialGradient id="SVGID_2_" cx="155.36" cy="489.73" r="0.95" gradientTransform="matrix(1 0 0 1 0 -410)" gradientUnits="userSpaceOnUse">
	<stop  offset="0.8" style="stop-color:#F4E7C0"/>
	<stop  offset="0.84" style="stop-color:#F5EBCB"/>
	<stop  offset="1" style="stop-color:#FBF7F0"/>
</radialGradient>
<circle class="st4" cx="155.4" cy="79.7" r="0.9"/>
<path class="st5" d="M131.6,68.1c-6,2.9-9.8,9.1-9.4,15.8h0.5l1.4-0.1l29.5-1.8l1.6-0.1h0.2c-0.1-2.1-0.7-4.2-1.6-6.1
	C149.8,67.5,139.9,64.1,131.6,68.1z"/>
<path class="st6" d="M153.6,75.8c0.9,1.9,1.5,4,1.6,6.1l-1.6,0.1L124,83.8l-1.4,0.1c-0.5-9,6.4-16.7,15.3-17.2
	C144.6,66.3,150.7,69.9,153.6,75.8z"/>
<path class="st7" d="M151.7,75.8V76c0,0,0,0,0,0.1c0,0,0,0.1,0,0.2v0.1c0,0,0,0.1,0.1,0.2c0,0.1,0,0.1,0,0.2l0.6,1.2
	c0,0.1,0.1,0.2,0.2,0.3c0.1,0,0.1,0.1,0.2,0.1c0,0,0,0.1,0.1,0.1l0.1,0.2c0,0.1,0,0.1,0,0.2s0,0.2,0,0.4c0,0.1,0.1,0.3,0.1,0.4
	c0.1,0.2,0.2,0.5,0.2,0.7c0.1,0.2,0.1,0.4,0.1,0.6c0,0.1,0,0.1,0,0.2s0,0.1,0,0.2c0,0,0,0.1,0.1,0.1v0.1c0,0.1,0.1,0.1,0.1,0.2v0.1
	c0,0.1,0,0.2,0.1,0.2l-29.5,1.7c0-0.1,0-0.1,0-0.2s0-0.2,0-0.4s0-0.2,0-0.3s0-0.1,0-0.1v-0.2c0-0.1,0.1-0.3,0.1-0.4s0.1-0.2,0.1-0.3
	c0-0.1,0-0.2,0-0.3c0-0.1,0-0.2,0-0.2c0-0.1,0-0.2-0.1-0.3c0-0.2,0-0.4,0-0.5s0-0.3,0-0.4c0,0,0-0.1,0-0.2c0.1,0,0.1-0.1,0.2-0.1
	v-0.1l0.1-0.1c0-0.1-0.1-0.3-0.1-0.4s0-0.3,0-0.4v-0.1v-0.1c0-0.1,0-0.3,0.1-0.4s0.2-0.2,0.3-0.3c0-0.1-0.1-0.2-0.1-0.3
	c0-0.1,0-0.2,0-0.3c0-0.2,0-0.4,0.1-0.5c0.1-0.2,0.2-0.5,0.4-0.7c0.1-0.1,0.2-0.1,0.2-0.2s0.1-0.1,0.1-0.2c0,0,0.1,0,0.1-0.1
	s0.1-0.1,0.1-0.2c0.1-0.1,0.1-0.1,0.2-0.2s0.1-0.2,0.1-0.3c0-0.1,0.1-0.2,0.2-0.3c0.1-0.1,0.1-0.2,0.2-0.3c0.1-0.1,0.3-0.2,0.4-0.3
	c0.2-0.1,0.3-0.1,0.4-0.3c0.1-0.1,0.2-0.2,0.3-0.3c0-0.1,0.1-0.1,0.1-0.2v-0.1h0.1c0.1-0.1,0.2-0.2,0.3-0.2c0.1-0.1,0.2-0.1,0.3-0.2
	s0.2-0.1,0.2-0.2c0.1-0.2,0.3-0.3,0.3-0.5c0.1-0.1,0.3-0.2,0.5-0.3c0.1-0.1,0.1-0.2,0.2-0.2c0.1-0.1,0.1-0.2,0.2-0.4
	c0-0.1,0.1-0.1,0.1-0.2c0.1-0.1,0.1,0,0.2,0.1c0.2,0.1,0.4,0.1,0.5-0.1c0.2-0.1,0.3-0.2,0.4-0.3c0.1-0.1,0.1-0.1,0.2-0.2
	c0.1-0.1,0.8-0.9,1-0.7l1.2-0.6c0.2-0.1,0.4-0.1,0.5-0.2c0.1,0,0.2,0,0.3,0s0.2,0,0.3,0c0.2,0,0.5-0.1,0.7-0.1c0.1,0,0.2,0,0.3-0.1
	l0.4-0.2c0.2-0.1,0.4-0.2,0.6-0.2c0.1,0,0.2,0,0.3,0s0.3,0,0.4,0c0.1,0,0.2,0,0.3,0h0.1c0,0,0,0,0.1,0c0,0,0.1,0,0.1-0.1h0.1
	c0.1,0,0.2-0.1,0.3-0.1s0.1,0,0.2,0c0.1,0,0.1-0.1,0.2-0.1c0.1,0,0.1,0,0.2,0h0.3h0.1h0.1c0.1,0,0.2-0.1,0.3,0.1c0.1,0,0.2,0,0.3,0
	s0.2,0.1,0.3,0.1c0.2,0.1,0.4,0.1,0.6,0.1c0.2,0,0.4,0,0.6-0.1c0.2-0.1,0.4-0.1,0.6,0c0.1,0,0.1,0.1,0.2,0.1l0.1,0.1h0.1l0,0
	c0.1,0.1,0.3,0.1,0.4,0.2c0.1,0,0.3,0.1,0.4,0.1c0.2,0.1,0.4,0.1,0.6,0.1c0,0,0,0.1,0.1,0.1s0.1,0,0.1,0s0.1-0.1,0.2,0
	c0.1,0.1,0.2,0.2,0.2,0.3c0.1,0.1,0.3,0.2,0.5,0.3c0.2,0.1,0.4,0.2,0.6,0.2c0.1,0,0.1,0,0.2,0c0,0,0.1,0,0.1,0.1c0.1,0,0.1,0,0.2,0
	c0.2,0,0.3,0,0.4,0.2c0.1,0,0.2,0.1,0.3,0.2l0.1,0.1h0.1l0.1,0.1l0.2,0.1c0.1,0.1,0.1,0.2,0.2,0.2c0.1,0.1,0.2,0.1,0.2,0.2
	c0.1,0,0.2,0,0.3,0.1s0.2,0.1,0.2,0.2c0,0,0,0.1,0.1,0.2l0.1,0.1c0.1,0.1,0.2,0.2,0.3,0.3c0,0.1,0.1,0.1,0.2,0.1
	c0.1,0,0.2,0,0.3,0.1s0.2,0.2,0.4,0.3c0.1,0.1,0.2,0.1,0.3,0.2s0.1,0.2,0.2,0.3c0.1,0.2,0.2,0.4,0.4,0.5c0.1,0,0.1,0.1,0.2,0.2
	c0.1,0.1,0.1,0.2,0.2,0.3l0.3,0.6c0,0.1,0.1,0.2,0.1,0.3l0.1,0.1V75h0.1c0.2,0.1,0.4,0.3,0.5,0.5C151.6,75.4,151.7,75.6,151.7,75.8z
	"/>
<path class="st8" d="M129.3,74c-0.3-0.2-0.3-0.6-0.1-0.9l0,0c1.9-2.2,4.7-3.6,7.7-3.7c0.3,0,0.6,0.2,0.7,0.6l0.9,11.7
	c0,0.1-0.1,0.2-0.2,0.2c-0.1,0-0.1,0-0.2-0.1L129.3,74z"/>
<path class="st8" d="M147.6,73.4c0.2-0.3,0.6-0.3,0.9-0.1c2.2,1.9,3.6,4.7,3.7,7.7c0,0.3-0.3,0.6-0.6,0.7l-11.7,0.9
	c-0.1,0-0.2-0.1-0.2-0.2s0-0.1,0.1-0.2L147.6,73.4z"/>
<path class="st8" d="M138.3,70c0-0.4,0.2-0.7,0.6-0.7c2.9-0.2,5.8,0.8,8,2.8c0.2,0.2,0.2,0.6,0,0.9l-7.6,8.9c-0.1,0.1-0.2,0.1-0.3,0
	c0,0-0.1-0.1-0.1-0.2L138.3,70z"/>
<path class="st8" d="M125.9,83.3c-0.4,0-0.7-0.2-0.7-0.6l0,0c-0.2-2.9,0.8-5.8,2.8-8c0.2-0.2,0.6-0.2,0.9,0l8.9,7.6
	c0.1,0.1,0.1,0.2,0,0.3c0,0-0.1,0.1-0.2,0.1L125.9,83.3z"/>
<path class="st7" d="M134.7,81.9c0.6,0.4,1.4,0.6,2.1,0.3c0.1,0,0.1-0.1,0.1-0.1V82c-0.4-0.7-1.1-1.1-1.8-1.1
	c-0.3,0-0.6,0.3-0.6,0.6C134.5,81.6,134.6,81.8,134.7,81.9z"/>
<path class="st7" d="M140.6,79.3c0,0.8-0.5,1.5-1.1,1.8c0,0-0.1,0-0.2,0c0,0,0,0,0-0.1c-0.3-0.7-0.2-1.5,0.2-2.1
	c0.2-0.3,0.6-0.3,0.8-0.1C140.5,78.9,140.6,79.1,140.6,79.3z"/>
<path class="st9" d="M134,73.6c0.7,1.6,1.6,3,2.7,4.3c0.1,0.1,0.2,0.1,0.1-0.1c-0.4-1.6-1.1-3.2-2.1-4.5c-0.2-0.3-0.5-0.5-0.8-0.6
	C133.8,73,133.9,73.3,134,73.6z"/>
<path class="st9" d="M131.5,74c0.9,1.2,1.9,2.2,3.1,3.1c0.1,0.1,0.2,0.1,0.1-0.1c-0.7-1.3-1.6-2.5-2.7-3.5c-0.2-0.2-0.5-0.3-0.8-0.4
	C131.2,73.5,131.3,73.8,131.5,74z"/>
<path class="st9" d="M135.5,71.4c0.2,1.2,0.6,2.4,1.2,3.4c0.1,0.1,0.1,0.1,0.1,0c0-1.2-0.2-2.4-0.7-3.5c-0.1-0.3-0.3-0.5-0.5-0.6
	C135.5,70.9,135.4,71.2,135.5,71.4z"/>
<path class="st9" d="M142.3,72.5c-0.8,1.5-1.3,3.1-1.6,4.8c0,0.2,0,0.2,0.1,0.1c1-1.4,1.7-2.9,2.2-4.5c0.1-0.3,0.1-0.7,0-1
	C142.7,72,142.4,72.2,142.3,72.5z"/>
<path class="st9" d="M140,71.5c-0.4,1.4-0.5,2.9-0.4,4.4c0,0.2,0.1,0.2,0.1,0c0.5-1.4,0.9-2.8,1-4.3c0-0.3,0-0.6-0.2-0.8
	C140.2,70.9,140.1,71.2,140,71.5z"/>
<path class="st9" d="M144.5,72.9c-0.8,0.9-1.4,2-1.9,3.1c-0.1,0.1,0,0.2,0.1,0.1c0.9-0.8,1.7-1.7,2.3-2.7c0.1-0.2,0.2-0.5,0.1-0.8
	C144.9,72.6,144.7,72.7,144.5,72.9z"/>
<path class="st9" d="M129.1,79c1.6,0.5,3.2,1.2,4.6,2.1c0.2,0.1,0.1,0.2,0,0.1c-1.7-0.2-3.3-0.7-4.8-1.4c-0.3-0.2-0.6-0.4-0.7-0.7
	C128.5,78.9,128.8,78.9,129.1,79z"/>
<path class="st9" d="M129.1,76.6c1.3,0.7,2.5,1.6,3.5,2.6c0.1,0.1,0.1,0.2-0.1,0.1c-1.4-0.5-2.6-1.3-3.8-2.2
	c-0.2-0.2-0.4-0.4-0.5-0.7C128.6,76.4,128.9,76.4,129.1,76.6z"/>
<path class="st9" d="M127.1,80.8c1.2,0,2.4,0.3,3.6,0.8c0.1,0,0.1,0.1,0,0.1c-1.2,0.2-2.4,0.1-3.5-0.2c-0.3-0.1-0.5-0.2-0.7-0.4
	C126.7,80.9,126.9,80.8,127.1,80.8z"/>
<path class="st9" d="M148.9,78.1c-1.5,0.9-3,1.5-4.7,1.9c-0.2,0-0.2,0-0.1-0.1c1.3-1.1,2.8-1.9,4.3-2.5c0.3-0.1,0.7-0.1,1,0
	C149.4,77.7,149.2,78,148.9,78.1z"/>
<path class="st9" d="M150.1,80.3c-1.4,0.5-2.9,0.7-4.3,0.7c-0.2,0-0.2,0,0-0.1c1.3-0.6,2.7-1,4.2-1.2c0.3,0,0.6,0,0.8,0.2
	C150.6,80,150.4,80.2,150.1,80.3z"/>
<path class="st9" d="M148.4,75.9c-0.9,0.9-1.9,1.6-3,2.1c-0.1,0.1-0.2,0-0.1-0.1c0.7-1,1.6-1.8,2.6-2.4c0.2-0.1,0.5-0.2,0.8-0.2
	C148.7,75.5,148.6,75.7,148.4,75.9z"/>
<path class="st10" d="M125.1,120.8c0.2,2.2,0.4,4.4,0.7,6.6c0,0.2,0.1,0.3,0.2,0.5c0.2,0.3,0.5,0.5,0.9,0.5
	c5.6,0.5,11.7,0.8,18.2,0.8c5.9,0,11.4-0.3,16.5-0.7c0.4,0,0.7-0.2,0.9-0.5c0.1-0.2,0.2-0.4,0.2-0.6l0.7-6.5
	c-5.5,0.5-11.5,0.9-18,0.9C138.1,121.7,131.3,121.4,125.1,120.8z"/>
<linearGradient id="SVGID_3_" gradientUnits="userSpaceOnUse" x1="-1766.0601" y1="539.1521" x2="-1766.0601" y2="535.7721" gradientTransform="matrix(-1 0 0 1 -1621.8101 -410)">
	<stop  offset="0" style="stop-color:#F4E7AF"/>
	<stop  offset="0.78" style="stop-color:#FBF4D8"/>
</linearGradient>
<path class="st11" d="M126,127.8c0.2,0.3,0.5,0.5,0.9,0.5c5.6,0.5,11.7,0.8,18.2,0.8c5.9,0,11.4-0.3,16.5-0.7c0.4,0,0.7-0.2,0.9-0.5
	c-1.4-1.2-9.1-2.1-18.3-2.1S127.5,126.7,126,127.8z"/>
<linearGradient id="SVGID_4_" gradientUnits="userSpaceOnUse" x1="226.4482" y1="1601.3462" x2="226.4482" y2="1612.7162" gradientTransform="matrix(0.5771 -0.8166 0.8166 0.5771 -1314.7421 -665.7671)">
	<stop  offset="0.38" style="stop-color:#EE3624"/>
	<stop  offset="1" style="stop-color:#A82723"/>
</linearGradient>
<path class="st12" d="M133.9,77.6c-0.3,1.6-1.2,3-2.5,3.9c-0.5,0.4-1,0.7-1.6,0.9l0,0c-1,0.3-2.1,0.4-3.1,0.1
	c-3.1-0.8-5.7-4.6-4.5-7c0.7-1.1,1.9-1.8,3.2-2l0.4-0.1c0.5-0.1,0.9-0.3,1.2-0.6l0.1-0.1c1-0.9,2.3-1.4,3.7-1.2
	C133.2,72.1,134.3,75.3,133.9,77.6z"/>
<path class="st13" d="M127.2,81.7c-2.8-0.7-4.4-3.2-4-5.2c0.1-0.4,0.2-0.8,0.5-1.1c0.1-0.2,0.4-0.2,0.6,0c0.1,0.1,0.2,0.3,0.1,0.4
	c-0.2,0.4-0.3,0.8-0.3,1.3C123.9,79.1,125.2,81,127.2,81.7z"/>
<path class="st3" d="M167.6,79.3c-0.3,3.1-0.7,6.3-1,9.4c-3.2-0.5-6.4-0.7-9.6-0.7c-7.4-0.1-11.4,1-17.2,1.5
	c-5.9,0.5-11.9,0.2-17.8-0.8l-1-9.4c2.7-0.3,5.4-0.4,8.1-0.4c9.9,0.1,14.7,2,21.8,2.4h0.7h0.8h1.1c1,0,2.2,0,3.5-0.2
	c0.8-0.1,1.6-0.2,2.4-0.3c1.7-0.2,3.3-0.5,4.9-0.9C165.5,79.9,166.5,79.6,167.6,79.3z"/>
<linearGradient id="SVGID_5_" gradientUnits="userSpaceOnUse" x1="144.25" y1="529.55" x2="144.25" y2="496.0774" gradientTransform="matrix(1 0 0 1 0 -410)">
	<stop  offset="0.67" style="stop-color:#E5C63F"/>
	<stop  offset="1" style="stop-color:#EEB62F"/>
</linearGradient>
<path class="st14" d="M166.5,88.7l-2.9,28.5c-0.1,0.7-0.6,1.3-1.4,1.4c-6.1,0.7-12.3,1-18.5,1c-5.8,0-11.5-0.3-17.3-0.9
	c-0.8-0.1-1.4-0.7-1.5-1.5c-1-9.5-1.9-18.9-2.9-28.4c0.7-1.1,1.7-1.9,2.9-2.4c1.4-0.5,2.9-0.3,4.1,0.5c0.3,0.2,0.6,0.3,0.8,0.5
	c2.5,1.6,5.1,4.3,8.9,5.3c0.4,0.1,0.9,0.2,1.3,0.3c7.3,1,16.8-4.6,21.2-5c1.5-0.1,3.1,0.1,4.5,0.6C166.1,88.5,166.3,88.6,166.5,88.7
	z"/>
<linearGradient id="SVGID_6_" gradientUnits="userSpaceOnUse" x1="-846.4159" y1="544.0144" x2="-846.4159" y2="554.1844" gradientTransform="matrix(-0.98 -0.22 -0.22 0.98 -552.13 -611.16)">
	<stop  offset="0.38" style="stop-color:#EE3624"/>
	<stop  offset="1" style="stop-color:#A82723"/>
</linearGradient>
<path class="st15" d="M157.5,108.2c0.4,0.3,0.8,0.4,1.3,0.5c1.3,0,2.6,0.7,3.4,1.7c1.3,2-0.2,5-2,6.3c-2.7,2-6,0.5-6.2,0.4
	c-0.9-0.4-1.7-1.1-2.2-2c-1.6-2.7-0.7-7.1,1.8-7.9C155.1,106.7,156.7,107.6,157.5,108.2z"/>
<path class="st16" d="M166.5,88.7c-0.9-0.3-1.8-0.5-2.7-0.6c-2.5-0.3-5.1,0.1-7.4,1.2c-4,1.6-12.2,4.8-17.7,3.4
	c-0.5-0.1-0.9-0.3-1.3-0.4c-1.6-0.7-3.1-1.6-4.6-2.6c-1.1-0.7-2.1-1.5-3.1-2.4l0.2,0.1c2.7,1.1,5.6,1.7,8.5,1.7h0.6l1-0.1h0.2
	c7.3-0.7,10.3-5.1,16.4-4.8C159,84.3,162.4,85.2,166.5,88.7z"/>
<path class="st17" d="M156.1,109.6c0.5,0.8,1.5,1.2,2.4,0.9h0.1c0.4-0.1,0.8-0.3,1.1-0.7c0-0.3-0.8-0.5-1.5-0.6
	c-0.2,0-0.4-0.1-0.5-0.2c-0.5-0.4-1.3-1-1.6-0.8c-0.2,0.4-0.1,0.9,0.1,1.3L156.1,109.6z"/>
<path class="st18" d="M152.7,114.8c-1.5-2.4-0.8-5.3,0.9-6.4c0.3-0.2,0.7-0.3,1.1-0.4c0.2-0.1,0.4,0.1,0.5,0.3
	c0.1,0.2-0.1,0.4-0.3,0.5l0,0c-0.4,0.2-0.8,0.4-1.1,0.7C152.4,110.8,151.9,112.9,152.7,114.8z"/>
<path class="st19" d="M125.8,75.5c0.9,0.2,1.9-0.2,2.4-1v-0.1c0.3-0.4,0.4-0.8,0.2-1.3c-0.2-0.2-0.9,0.2-1.6,0.7
	c-0.2,0.1-0.4,0.2-0.6,0.2c-0.7,0.1-1.7,0.2-1.8,0.6c0.2,0.4,0.6,0.7,1,0.8h0.4V75.5z"/>
<path class="st13" d="M131.8,79.5c1.7-2.4,1.2-5.3-0.5-6.6c-0.3-0.2-0.7-0.4-1.1-0.5c-0.2,0-0.4,0.1-0.5,0.3c0,0.2,0,0.3,0.2,0.4
	c0.4,0.2,0.8,0.5,1.1,0.8C132.5,75.5,132.8,77.7,131.8,79.5z"/>
<linearGradient id="SVGID_7_" gradientUnits="userSpaceOnUse" x1="134.3006" y1="496.85" x2="134.3006" y2="504.99" gradientTransform="matrix(1 0 0 1 0 -410)">
	<stop  offset="0.38" style="stop-color:#EE3624"/>
	<stop  offset="1" style="stop-color:#A82723"/>
</linearGradient>
<path class="st20" d="M139.9,88.9L139,89h-0.5c-2.9,0-5.8-0.6-8.5-1.7c-0.3-0.2-0.6-0.3-0.8-0.5c-0.3,0.3-0.6,0.6-0.7,0.9
	c-1.2,2.4,1.4,6.2,4.5,7c1,0.2,2,0.2,2.9-0.1h0.1c0.5-0.2,1-0.5,1.5-0.8l0.1-0.1c0.5-0.3,0.9-0.7,1.3-1.1l0.1-0.1
	c0.7-0.8,1.1-1.7,1.3-2.7c0-0.3,0.1-0.7,0.1-1L139.9,88.9z"/>
<path class="st21" d="M133.3,93.9c-2.8-0.7-4.4-3.2-4-5.2c0.1-0.4,0.2-0.8,0.5-1.1c0.1-0.2,0.4-0.2,0.6,0c0.1,0.1,0.2,0.3,0.1,0.4
	c-0.2,0.4-0.3,0.8-0.3,1.3C130.1,91.3,131.4,93.2,133.3,93.9z"/>
<path class="st21" d="M137.9,91.8c0.4-0.9,0.6-1.8,0.5-2.8h0.5C138.9,90,138.5,91,137.9,91.8z"/>
<path class="st22" d="M136.1,94.7c2.2,4.4,4.4,8.9,6.6,13.3l-0.1-3.7c0-0.3-0.1-0.6-0.2-0.8l-4.7-9.6l-0.1,0.1
	C137.1,94.2,136.6,94.5,136.1,94.7z"/>
<path class="st23" d="M118.7,58.2c-0.9,0.5-0.9,2.3-0.5,3.5c0.4,1.1,1.3,1.9,2.4,2.3l5.8,11.6c0.3,0,0.7-0.1,0.9-0.3
	c0.2-0.2,0.4-0.4,0.6-0.6l-5.7-11.6c0.3-1,0.2-2-0.2-2.9C121.2,58.9,119.6,57.7,118.7,58.2z M120.9,60.5c0.4,0.7,0.4,1.4,0.2,2.2
	c0,0.2-0.2,0.2-0.4,0.2l0,0c-0.7-0.3-1.3-0.9-1.6-1.7c-0.2-0.5-0.2-1.1-0.1-1.7c0-0.2,0.2-0.3,0.3-0.2l0,0
	C120,59.4,120.6,59.9,120.9,60.5z"/>
<path class="st18" d="M157.4,116.5c2.8-0.5,4.5-2.8,4.2-4.8c-0.1-0.4-0.2-0.7-0.4-1.1c-0.1-0.2-0.3-0.3-0.5-0.2
	c-0.2,0.1-0.3,0.3-0.2,0.5c0.1,0.4,0.2,0.8,0.2,1.3C160.7,114.2,159.3,115.9,157.4,116.5z"/>
<path class="st3" d="M163.5,80.5c-1.7,0.6-3.4,1-5.2,1.3l-0.8,0.1c-0.6,0.1-1.1,0.2-1.6,0.2c0-0.1,0-0.2,0-0.2
	c0-1.2,0.6-2.4,1.6-3.1c0.2-0.2,0.5-0.3,0.7-0.4c0.5-0.2,1.1-0.4,1.7-0.4C161.4,77.9,162.9,79,163.5,80.5z"/>
<circle class="st3" cx="127.2" cy="81.7" r="4"/>
<circle class="st3" cx="132.6" cy="82.3" r="4"/>
<path class="st3" d="M159.6,81.5c0,2.2-1.8,4-4,4s-4-1.7-4-3.9v-0.1c0,0,0,0,0-0.1s0-0.1,0-0.2c0.3,0,0.6,0.1,0.8,0.2h1.1
	c1,0,2.2,0,3.5-0.2c0.8-0.1,1.6-0.2,2.4-0.3C159.6,81.2,159.6,81.3,159.6,81.5z"/>
<path class="st3" d="M165.1,82c-0.3,2.2-2.4,3.7-4.6,3.4c-1.7-0.3-3.1-1.6-3.4-3.4c0-0.3,0-0.5,0.1-0.8c0.8-0.1,1.6-0.2,2.4-0.3
	c1.7-0.2,3.3-0.5,4.9-0.9C164.9,80.7,165,81.3,165.1,82z"/>
<path class="st3" d="M153.7,83.2c0,1.1-0.9,2-2,2c-1.1-0.1-1.9-1-1.9-2.1c0-0.7,0.5-1.4,1.2-1.7c0.2-0.1,0.5-0.1,0.7-0.1l0,0
	c0.3,0,0.6,0.1,0.8,0.2C153.2,81.8,153.7,82.4,153.7,83.2z"/>
<path class="st3" d="M138.6,80.4c0,1.1-0.9,2-2,2c-1.1-0.1-1.9-1-1.9-2.1c0-0.7,0.5-1.4,1.2-1.7c0.2-0.1,0.5-0.1,0.7-0.1l0,0
	c0.3,0,0.6,0.1,0.8,0.2C138.1,79,138.5,79.7,138.6,80.4z"/>
<radialGradient id="SVGID_8_" cx="155.59" cy="493.71" r="0.97" gradientTransform="matrix(1 0 0 1 0 -410)" gradientUnits="userSpaceOnUse">
	<stop  offset="0.8" style="stop-color:#F4E7C0"/>
	<stop  offset="0.84" style="stop-color:#F5EBCB"/>
	<stop  offset="1" style="stop-color:#FBF7F0"/>
</radialGradient>
<path class="st24" d="M154.9,84.4c-0.4-0.4-0.4-1,0-1.4c0.3-0.4,0.9-0.4,1.3-0.1l0,0c0.4,0.4,0.4,1,0,1.4
	C155.9,84.7,155.3,84.8,154.9,84.4z"/>
<radialGradient id="SVGID_9_" cx="127.24" cy="490.43" r="1.45" gradientTransform="matrix(1 0 0 1 0 -410)" gradientUnits="userSpaceOnUse">
	<stop  offset="0.8" style="stop-color:#F4E7C0"/>
	<stop  offset="0.84" style="stop-color:#F5EBCB"/>
	<stop  offset="1" style="stop-color:#FBF7F0"/>
</radialGradient>
<path class="st25" d="M126.2,81.5c-0.6-0.6-0.6-1.5,0-2.1c0.5-0.6,1.4-0.6,2-0.1l0,0l0.1,0.1c0.6,0.6,0.6,1.5,0,2.1
	C127.8,82,126.9,82.1,126.2,81.5C126.3,81.6,126.3,81.6,126.2,81.5L126.2,81.5z"/>
<radialGradient id="SVGID_10_" cx="136.6" cy="490.17" r="0.95" gradientTransform="matrix(1 0 0 1 0 -410)" gradientUnits="userSpaceOnUse">
	<stop  offset="0.8" style="stop-color:#F4E7C0"/>
	<stop  offset="0.84" style="stop-color:#F5EBCB"/>
	<stop  offset="1" style="stop-color:#FBF7F0"/>
</radialGradient>
<circle class="st26" cx="136.6" cy="80.2" r="0.9"/>
<radialGradient id="SVGID_11_" cx="129.73" cy="492.27" r="0.48" gradientTransform="matrix(1 0 0 1 0 -410)" gradientUnits="userSpaceOnUse">
	<stop  offset="0.8" style="stop-color:#F4E7C0"/>
	<stop  offset="0.84" style="stop-color:#F5EBCB"/>
	<stop  offset="1" style="stop-color:#FBF7F0"/>
</radialGradient>
<circle class="st27" cx="129.7" cy="82.3" r="0.5"/>
<radialGradient id="SVGID_12_" cx="131.19" cy="491.12" r="0.48" gradientTransform="matrix(1 0 0 1 0 -410)" gradientUnits="userSpaceOnUse">
	<stop  offset="0.8" style="stop-color:#F4E7C0"/>
	<stop  offset="0.84" style="stop-color:#F5EBCB"/>
	<stop  offset="1" style="stop-color:#FBF7F0"/>
</radialGradient>
<circle class="st28" cx="131.2" cy="81.1" r="0.5"/>
<radialGradient id="SVGID_13_" cx="135.1" cy="497.6" r="0.48" gradientTransform="matrix(1 0 0 1 0 -410)" gradientUnits="userSpaceOnUse">
	<stop  offset="0.8" style="stop-color:#F4E7C0"/>
	<stop  offset="0.84" style="stop-color:#F5EBCB"/>
	<stop  offset="1" style="stop-color:#FBF7F0"/>
</radialGradient>
<circle class="st29" cx="135.1" cy="87.6" r="0.5"/>
<radialGradient id="SVGID_14_" cx="136.99" cy="497.6" r="0.48" gradientTransform="matrix(1 0 0 1 0 -410)" gradientUnits="userSpaceOnUse">
	<stop  offset="0.8" style="stop-color:#F4E7C0"/>
	<stop  offset="0.84" style="stop-color:#F5EBCB"/>
	<stop  offset="1" style="stop-color:#FBF7F0"/>
</radialGradient>
<circle class="st30" cx="137" cy="87.6" r="0.5"/>
<radialGradient id="SVGID_15_" cx="157.96" cy="490.4" r="0.48" gradientTransform="matrix(1 0 0 1 0 -410)" gradientUnits="userSpaceOnUse">
	<stop  offset="0.8" style="stop-color:#F4E7C0"/>
	<stop  offset="0.84" style="stop-color:#F5EBCB"/>
	<stop  offset="1" style="stop-color:#FBF7F0"/>
</radialGradient>
<circle class="st31" cx="158" cy="80.4" r="0.5"/>
<radialGradient id="SVGID_16_" cx="161.57" cy="494.35" r="0.48" gradientTransform="matrix(1 0 0 1 0 -410)" gradientUnits="userSpaceOnUse">
	<stop  offset="0.8" style="stop-color:#F4E7C0"/>
	<stop  offset="0.84" style="stop-color:#F5EBCB"/>
	<stop  offset="1" style="stop-color:#FBF7F0"/>
</radialGradient>
<circle class="st32" cx="161.6" cy="84.3" r="0.5"/>
<radialGradient id="SVGID_17_" cx="158.09" cy="493.21" r="0.48" gradientTransform="matrix(1 0 0 1 0 -410)" gradientUnits="userSpaceOnUse">
	<stop  offset="0.8" style="stop-color:#F4E7C0"/>
	<stop  offset="0.84" style="stop-color:#F5EBCB"/>
	<stop  offset="1" style="stop-color:#FBF7F0"/>
</radialGradient>
<circle class="st33" cx="158.1" cy="83.2" r="0.5"/>
<path class="st34" d="M124.2,108.7l0.8,7.8c0.6-0.3,1.2-0.5,1.8-0.6c2.2-0.5,4.4-0.3,6.5,0.5c4.3,1.3,8.8,1.5,13.2,0.6
	c2-0.5,3.9-1.3,5.6-2.5c-5.6,1.5-9.4,0.7-11.9-0.3c-6-2.4-8.9-8.1-13.1-7.1C125.9,107.2,124.9,107.8,124.2,108.7z"/>
<path class="st35" d="M164.1,111.9c-0.8-0.4-1.7-0.7-2.6-0.9c-2.2-0.3-3.9,0.5-10.5,3.9c-1.1,0.6-2.2,1.1-3.4,1.6
	c-2.1,0.7-4.3,1-6.5,1c-8.2-0.1-13-4-15.8-1.6c-0.2,0.2-0.4,0.4-0.6,0.6l0.1,0.5c0.1,0.8,0.7,1.5,1.5,1.6c5.9,0.7,11.8,1,17.7,1
	c6.1,0,12.2-0.4,18.2-1.1c0.6-0.1,1.1-0.5,1.1-1.1L164.1,111.9z"/>
<path class="st36" d="M119.9,67.9l5.1,49.3c0.1,0.7,0.7,1.3,1.4,1.4l3.8,0.4L125,67.9H119.9L119.9,67.9z"/>
<path class="st37" d="M168.7,67.9l-5.1,49.3c-0.1,0.7-0.7,1.3-1.4,1.4l-3.8,0.4l5.2-51.1H168.7z"/>
<polygon class="st38" points="161.2,67.9 156.2,119.1 154,119.3 159,67.9 "/>
</svg>
