<svg id="Layer_1" data-name="Layer 1" xmlns="http://www.w3.org/2000/svg" xmlns:xlink="http://www.w3.org/1999/xlink" viewBox="0 0 230.86 332.94"><defs><style>.cls-1{fill:#ddbb85;}.cls-2{fill:#f9e4b4;}.cls-3{fill:#f4dba8;}.cls-23,.cls-24,.cls-4,.cls-5{opacity:0.57;}.cls-4{fill:url(#radial-gradient);}.cls-5{fill:url(#radial-gradient-2);}.cls-6{fill:#f9f1e6;}.cls-7{fill:url(#linear-gradient);}.cls-10,.cls-11,.cls-8{opacity:0.35;}.cls-8{fill:url(#radial-gradient-3);}.cls-9{fill:url(#linear-gradient-2);}.cls-10{fill:url(#radial-gradient-4);}.cls-11{fill:url(#radial-gradient-5);}.cls-12{fill:url(#linear-gradient-3);}.cls-13{fill:url(#radial-gradient-6);}.cls-14{fill:url(#radial-gradient-7);}.cls-15{fill:url(#radial-gradient-8);}.cls-16{fill:url(#radial-gradient-9);}.cls-17{fill:url(#linear-gradient-4);}.cls-18{fill:url(#linear-gradient-5);}.cls-19{fill:url(#linear-gradient-6);}.cls-20{fill:url(#linear-gradient-7);}.cls-21{fill:url(#linear-gradient-8);}.cls-22{fill:url(#linear-gradient-9);}.cls-23{fill:url(#radial-gradient-10);}.cls-24{fill:url(#radial-gradient-11);}.cls-25,.cls-26,.cls-27,.cls-28,.cls-29,.cls-30,.cls-31,.cls-32,.cls-33,.cls-34,.cls-35,.cls-36,.cls-37,.cls-38,.cls-39,.cls-40,.cls-41,.cls-45,.cls-46,.cls-47,.cls-48,.cls-49,.cls-60{opacity:0.39;}.cls-25{fill:url(#radial-gradient-12);}.cls-26{fill:url(#radial-gradient-13);}.cls-27{fill:url(#radial-gradient-14);}.cls-28{fill:url(#radial-gradient-15);}.cls-29{fill:url(#radial-gradient-16);}.cls-30{fill:url(#radial-gradient-17);}.cls-31{fill:url(#radial-gradient-18);}.cls-32{fill:url(#radial-gradient-19);}.cls-33{fill:url(#radial-gradient-20);}.cls-34{fill:url(#radial-gradient-21);}.cls-35{fill:url(#radial-gradient-22);}.cls-36{fill:url(#radial-gradient-23);}.cls-37{fill:url(#radial-gradient-24);}.cls-38{fill:url(#radial-gradient-25);}.cls-39{fill:url(#radial-gradient-26);}.cls-40{fill:url(#radial-gradient-27);}.cls-41{fill:url(#radial-gradient-28);}.cls-42{opacity:0.62;fill:url(#linear-gradient-10);}.cls-43{fill:#db2e2a;opacity:0.36;}.cls-44{fill:#f4b5b5;}.cls-44,.cls-59{opacity:0.15;}.cls-45{fill:url(#radial-gradient-29);}.cls-46{fill:url(#radial-gradient-30);}.cls-47{fill:url(#radial-gradient-31);}.cls-48{fill:url(#radial-gradient-32);}.cls-49{fill:url(#radial-gradient-33);}.cls-50{fill:url(#linear-gradient-11);}.cls-51{fill:url(#radial-gradient-34);}.cls-52{fill:url(#radial-gradient-35);}.cls-53{fill:url(#radial-gradient-36);}.cls-54,.cls-59{fill:#c39537;}.cls-54{opacity:0.28;}.cls-55{fill:url(#radial-gradient-37);}.cls-56{opacity:0.56;fill:url(#radial-gradient-38);}.cls-57{fill:url(#linear-gradient-12);}.cls-58{fill:#fff5ac;}.cls-60{fill:url(#radial-gradient-39);}.cls-61{fill:#edd096;opacity:0.63;}.cls-62{fill:url(#radial-gradient-40);}</style><radialGradient id="radial-gradient" cx="-522.56" cy="1076.24" r="2.84" gradientTransform="matrix(-1.15, 0, 0, 1.16, -486.1, -1198.44)" gradientUnits="userSpaceOnUse"><stop offset="0.67" stop-color="#f9e4b4"/><stop offset="1" stop-color="#fbf7f0"/></radialGradient><radialGradient id="radial-gradient-2" cx="-512.76" cy="1066.89" r="4.11" gradientTransform="matrix(-1.15, 0, 0, 1.16, -488.84, -1180.57)" xlink:href="#radial-gradient"/><linearGradient id="linear-gradient" x1="113.98" y1="90.3" x2="113.98" y2="100.14" gradientUnits="userSpaceOnUse"><stop offset="0" stop-color="#fff"/><stop offset="0.51" stop-color="#f5ecdd"/><stop offset="1" stop-color="#e8d3ab"/></linearGradient><radialGradient id="radial-gradient-3" cx="101.41" cy="1245.2" r="1.64" gradientTransform="matrix(1, 0, 0, -1, 0, 1340.47)" xlink:href="#radial-gradient"/><linearGradient id="linear-gradient-2" x1="112.63" y1="90.46" x2="113.9" y2="99.64" gradientUnits="userSpaceOnUse"><stop offset="0.34" stop-color="#f8f2e7"/><stop offset="0.63" stop-color="#f3e9d6"/><stop offset="0.8" stop-color="#ecdbbb"/><stop offset="0.91" stop-color="#e8d3ab"/><stop offset="0.98" stop-color="#e8d3ab"/></linearGradient><radialGradient id="radial-gradient-4" cx="126.6" cy="1245.16" r="1.73" gradientTransform="matrix(1, 0, 0, -1, 0, 1340.47)" xlink:href="#radial-gradient"/><radialGradient id="radial-gradient-5" cx="113.63" cy="1240.55" r="4.24" gradientTransform="matrix(1, 0, 0, -1, 0, 1340.47)" xlink:href="#radial-gradient"/><linearGradient id="linear-gradient-3" x1="138.9" y1="171.5" x2="96.26" y2="97.64" gradientUnits="userSpaceOnUse"><stop offset="0.21" stop-color="#f5cc56"/><stop offset="0.29" stop-color="#f7d174"/><stop offset="1" stop-color="#c8972c"/></linearGradient><radialGradient id="radial-gradient-6" cx="106.88" cy="88.95" r="0.83" gradientUnits="userSpaceOnUse"><stop offset="0.86" stop-color="#fbf7f0"/><stop offset="0.92" stop-color="#f5eddf"/></radialGradient><radialGradient id="radial-gradient-7" cx="96.16" cy="93.17" r="1.78" xlink:href="#radial-gradient-6"/><radialGradient id="radial-gradient-8" cx="108.19" cy="96.12" r="0.43" xlink:href="#radial-gradient-6"/><radialGradient id="radial-gradient-9" cx="106.81" cy="98.01" r="0.64" xlink:href="#radial-gradient-6"/><linearGradient id="linear-gradient-4" x1="99.8" y1="1240.04" x2="100.92" y2="1240.04" gradientTransform="matrix(1, 0, 0, -1, 0, 1340.47)" gradientUnits="userSpaceOnUse"><stop offset="1" stop-color="#cb9b2d"/><stop offset="1" stop-color="#c8972c"/></linearGradient><linearGradient id="linear-gradient-5" x1="94.62" y1="100.14" x2="95.67" y2="100.14" gradientTransform="matrix(1, 0, 0, 1, 0, 0)" xlink:href="#linear-gradient-4"/><linearGradient id="linear-gradient-6" x1="103.29" y1="99.25" x2="105.58" y2="99.25" gradientUnits="userSpaceOnUse"><stop offset="1" stop-color="#d1a232"/><stop offset="1" stop-color="#d9ab39"/></linearGradient><linearGradient id="linear-gradient-7" x1="93.06" y1="99.87" x2="93.93" y2="99.87" gradientUnits="userSpaceOnUse"><stop offset="0" stop-color="#cb9b2d"/><stop offset="0" stop-color="#c8972c"/></linearGradient><linearGradient id="linear-gradient-8" x1="95.29" y1="99.79" x2="97.65" y2="99.79" gradientTransform="matrix(1, 0, 0, 1, 0, 0)" xlink:href="#linear-gradient-4"/><linearGradient id="linear-gradient-9" x1="120.48" y1="72.27" x2="120.48" y2="87.9" gradientUnits="userSpaceOnUse"><stop offset="0.11" stop-color="#f4e07d"/><stop offset="0.55" stop-color="#f9d20a"/><stop offset="1" stop-color="#f6a31d"/></linearGradient><radialGradient id="radial-gradient-10" cx="-503.65" cy="1078.07" r="4.64" gradientTransform="matrix(-1.15, 0, 0, 1.16, -469.62, -1179.3)" xlink:href="#radial-gradient"/><radialGradient id="radial-gradient-11" cx="-529.64" cy="1066.52" r="1.57" gradientTransform="matrix(-1.15, 0, 0, 1.16, -502.17, -1198.62)" xlink:href="#radial-gradient"/><radialGradient id="radial-gradient-12" cx="-498.66" cy="1117.4" r="0.88" gradientTransform="matrix(-1, 0, 0, 1, -387.17, -981.94)" xlink:href="#radial-gradient"/><radialGradient id="radial-gradient-13" cx="-494.91" cy="1114.74" r="1.28" gradientTransform="matrix(-1, 0, 0, 1, -387.18, -976.64)" xlink:href="#radial-gradient"/><radialGradient id="radial-gradient-14" cx="-500.69" cy="1113.91" r="0.49" gradientTransform="matrix(-1, 0, 0, 1, -391.8, -981.54)" xlink:href="#radial-gradient"/><radialGradient id="radial-gradient-15" cx="-493.05" cy="1120.06" r="1.61" gradientTransform="matrix(-1, 0, 0, 1, -380.93, -978.42)" xlink:href="#radial-gradient"/><radialGradient id="radial-gradient-16" cx="-505.87" cy="1105.59" r="0.87" gradientTransform="matrix(-1, 0, 0, 1, -403.08, -980.89)" xlink:href="#radial-gradient"/><radialGradient id="radial-gradient-17" cx="-502.19" cy="1102.98" r="1.25" gradientTransform="matrix(-1, 0, 0, 1, -403.09, -975.69)" xlink:href="#radial-gradient"/><radialGradient id="radial-gradient-18" cx="-507.87" cy="1102.17" r="0.48" gradientTransform="matrix(-1, 0, 0, 1, -407.63, -980.49)" xlink:href="#radial-gradient"/><radialGradient id="radial-gradient-19" cx="-500.36" cy="1108.2" r="1.58" gradientTransform="matrix(-1, 0, 0, 1, -396.96, -977.43)" xlink:href="#radial-gradient"/><radialGradient id="radial-gradient-20" cx="-519.33" cy="1105.34" r="0.94" gradientTransform="matrix(-1, 0, 0, 1, -412.26, -993.41)" xlink:href="#radial-gradient"/><radialGradient id="radial-gradient-21" cx="-515.35" cy="1102.52" r="1.36" gradientTransform="matrix(-1, 0, 0, 1, -412.27, -987.77)" xlink:href="#radial-gradient"/><radialGradient id="radial-gradient-22" cx="-521.49" cy="1101.64" r="0.52" gradientTransform="matrix(-1, 0, 0, 1, -417.19, -992.98)" xlink:href="#radial-gradient"/><radialGradient id="radial-gradient-23" cx="-513.37" cy="1108.17" r="1.71" gradientTransform="matrix(-1, 0, 0, 1, -405.63, -989.66)" xlink:href="#radial-gradient"/><radialGradient id="radial-gradient-24" cx="-488.12" cy="1125.89" r="1.53" gradientTransform="matrix(-1, 0, 0, 1, -372.17, -977.65)" xlink:href="#radial-gradient"/><radialGradient id="radial-gradient-25" cx="-481.64" cy="1121.29" r="2.21" gradientTransform="matrix(-1, 0, 0, 1, -372.19, -968.49)" xlink:href="#radial-gradient"/><radialGradient id="radial-gradient-26" cx="-491.64" cy="1119.85" r="0.85" gradientTransform="matrix(-1, 0, 0, 1, -380.19, -976.96)" xlink:href="#radial-gradient"/><radialGradient id="radial-gradient-27" cx="-478.42" cy="1130.48" r="2.79" gradientTransform="matrix(-1, 0, 0, 1, -361.39, -971.57)" xlink:href="#radial-gradient"/><radialGradient id="radial-gradient-28" cx="-479.95" cy="1120.07" r="1.17" gradientTransform="matrix(-1, 0, 0, 1, -372.21, -966.09)" xlink:href="#radial-gradient"/><linearGradient id="linear-gradient-10" x1="114.88" y1="163.68" x2="114.88" y2="178.31" gradientUnits="userSpaceOnUse"><stop offset="0.38" stop-color="#ee3624"/><stop offset="1" stop-color="#a82723"/></linearGradient><radialGradient id="radial-gradient-29" cx="-471.18" cy="1131.03" r="0.88" gradientTransform="matrix(-1, 0, 0, 1, -356.07, -965.11)" xlink:href="#radial-gradient"/><radialGradient id="radial-gradient-30" cx="-467.43" cy="1128.37" r="1.28" gradientTransform="matrix(-1, 0, 0, 1, -356.08, -959.81)" xlink:href="#radial-gradient"/><radialGradient id="radial-gradient-31" cx="-473.22" cy="1127.54" r="0.49" gradientTransform="matrix(-1, 0, 0, 1, -360.7, -964.71)" xlink:href="#radial-gradient"/><radialGradient id="radial-gradient-32" cx="-465.57" cy="1133.69" r="1.61" gradientTransform="matrix(-1, 0, 0, 1, -349.83, -961.59)" xlink:href="#radial-gradient"/><radialGradient id="radial-gradient-33" cx="-464.16" cy="1133.49" r="0.85" gradientTransform="matrix(-1, 0, 0, 1, -349.08, -960.13)" xlink:href="#radial-gradient"/><linearGradient id="linear-gradient-11" x1="150.55" y1="91.43" x2="141.52" y2="100.46" gradientUnits="userSpaceOnUse"><stop offset="0" stop-color="#f4e07d"/><stop offset="0.43" stop-color="#f9d20a"/><stop offset="0.77" stop-color="#f7b01a"/><stop offset="1" stop-color="#f6a31d"/></linearGradient><radialGradient id="radial-gradient-34" cx="117.69" cy="89.94" r="0.43" xlink:href="#radial-gradient-6"/><radialGradient id="radial-gradient-35" cx="116.02" cy="91.29" r="0.64" xlink:href="#radial-gradient-6"/><radialGradient id="radial-gradient-36" cx="116.44" cy="88.24" r="0.35" xlink:href="#radial-gradient-6"/><radialGradient id="radial-gradient-37" cx="123.04" cy="89.12" r="0.59" xlink:href="#radial-gradient-6"/><radialGradient id="radial-gradient-38" cx="126.19" cy="88.24" r="1.69" gradientUnits="userSpaceOnUse"><stop offset="0.47" stop-color="#f9e4b4"/><stop offset="1" stop-color="#fbf7f0"/></radialGradient><linearGradient id="linear-gradient-12" x1="134.34" y1="104.5" x2="134.34" y2="72.27" gradientUnits="userSpaceOnUse"><stop offset="0" stop-color="#f4e07d"/><stop offset="0.22" stop-color="#f9d20a"/><stop offset="1" stop-color="#f6a31d"/></linearGradient><radialGradient id="radial-gradient-39" cx="97.25" cy="127.2" r="37.44" gradientTransform="matrix(1, 0, 0, 1, 0, 0)" xlink:href="#radial-gradient"/><radialGradient id="radial-gradient-40" cx="112.15" cy="89.51" r="1.78" xlink:href="#radial-gradient-6"/></defs><title>icons</title><ellipse class="cls-1" cx="114.48" cy="280.87" rx="44.33" ry="7.24"/><path class="cls-2" d="M93.44,76.43a1.52,1.52,0,0,1,1.39-1.16c6.14-.37,12.63-0.57,19.45-0.56,6.42,0,12.55.21,18.37,0.56a1.66,1.66,0,0,1,1.51,1.26c1.74,7,3.09,12.29,3.85,15.3,3.27,12.85,4.45,17.18,4.4,23.73a66.83,66.83,0,0,1-1.22,11c-1.54,9.31-4.11,21.18-10,39.63-1.62,5-3.82,11.61-6.64,19.29a2.33,2.33,0,0,1-2,1.52c-2.6.22-5.41,0.36-8.39,0.37-3.27,0-6.32-.13-9.13-0.37a2.33,2.33,0,0,1-2-1.51c-3.38-9.06-6-16.88-7.85-23a248.66,248.66,0,0,1-8.56-35.22c-1.2-7.49-1.3-10.62-1.22-13.21,0.19-6.45,1.8-10.18,4.16-21C91.07,86.16,92.45,80.44,93.44,76.43Z"/><ellipse class="cls-2" cx="113.91" cy="275.86" rx="36.1" ry="3.78"/><path class="cls-2" d="M79.11,275.09L149,275a64.24,64.24,0,0,0-7.85-2.08c-1.91-.34-2.86-0.48-3.84-0.62-1.4-.2-1.86-0.23-3-0.46-2.79-.58-9.89-2-13.73-7.3a12.81,12.81,0,0,1-1.09-1.79,12,12,0,0,1-1.23-5c-0.43-11.43-.55-23.42-0.25-35.93,0.23-9.95.71-19.55,1.38-28.79q0-.35.08-0.7a7.76,7.76,0,0,1,2.36-4.25l1.66-1.59-19.58.08a9.1,9.1,0,0,1,3.7,2.63,8.2,8.2,0,0,1,1.66,4.11c1.06,7.33,1.29,34.42,1.29,34.42s0.16,18.78-.47,30.27a13.84,13.84,0,0,1-1.08,4.47,12.37,12.37,0,0,1-1.48,2.4c-4,5-11.25,6.38-15.15,7.1-0.86.16-2,.33-3.77,0.65-1.39.24-2.5,0.44-3.23,0.59A36.11,36.11,0,0,0,79.11,275.09Z"/><path class="cls-3" d="M150,275.86v1.94c0,2.62-16.16,4.75-36.1,4.75s-36.11-2.13-36.11-4.75v-1.94c3.83,0.78,8.6,1.61,14.11,2.29a182.65,182.65,0,0,0,20.71,1.37,178.2,178.2,0,0,0,24.16-1.45C142.11,277.38,146.61,276.56,150,275.86Z"/><ellipse class="cls-4" cx="116.52" cy="52.31" rx="3.32" ry="3.25" transform="translate(28.15 144.52) rotate(-70.4)"/><ellipse class="cls-5" cx="102.49" cy="59.31" rx="4.81" ry="4.71" transform="translate(12.23 135.95) rotate(-70.4)"/><path class="cls-6" d="M134.1,93.41v2H93.62V93.36L94.42,90c0.19-.79.38-1.57,0.57-2.36h37.59c0.28,1.07.57,2.13,0.85,3.19C133.65,91.72,133.88,92.56,134.1,93.41Z"/><path class="cls-6" d="M99,88.12a2.6,2.6,0,0,1-.24,1.1,2.67,2.67,0,0,1-4.3.81c0.19-.79.38-1.57,0.57-2.36L95.16,87a1.84,1.84,0,0,1,1.61-1.17,1.9,1.9,0,0,1,.94.14,1.94,1.94,0,0,1,.88.78,2.55,2.55,0,0,1,.28.65,2.63,2.63,0,0,1,.06.29A2.41,2.41,0,0,1,99,88.12Z"/><circle class="cls-6" cx="101.83" cy="88.95" r="3.11"/><circle class="cls-6" cx="107.77" cy="87.6" r="3.15"/><path class="cls-6" d="M133.44,90.87a2.72,2.72,0,0,1-2,.9A2.69,2.69,0,0,1,128.91,90a2.57,2.57,0,0,1-.17-0.93,2.61,2.61,0,0,1,.41-1.41l0-.06a2.66,2.66,0,0,1,2.23-1.21,2.4,2.4,0,0,1,.85.15c0.1,0.37.19,0.74,0.3,1.11C132.86,88.75,133.15,89.8,133.44,90.87Z"/><path class="cls-7" d="M135.95,100.14c-7-.33-14.35-0.52-22-0.52s-14.94.19-22,.52q0.38-1.81.81-3.67,0.7-3,1.45-5.79a3.57,3.57,0,0,1,3.32.07,3.52,3.52,0,0,1,1.61,2.63,2.59,2.59,0,0,1,1.66-1.21,2.7,2.7,0,0,1,2.38.82,1.51,1.51,0,0,1,1.23-.59,1.48,1.48,0,0,1,1.27,1.38,3,3,0,0,1,3.69.54,2.92,2.92,0,0,1,.43,2.48A5.28,5.28,0,0,1,112,95a5.74,5.74,0,0,1,4.68.2,2.87,2.87,0,0,1,1.07-.2A3.18,3.18,0,0,1,120,96a6.2,6.2,0,0,1,2.33-.1,6.27,6.27,0,0,1,2.93,1.27,3.83,3.83,0,0,1,5.27,1,4.24,4.24,0,0,1,3.71,0A4,4,0,0,1,135.95,100.14Z"/><path class="cls-8" d="M100.26,96.47a1.72,1.72,0,0,1,0-2.37,1.57,1.57,0,0,1,2.21-.09l0.06,0.06a1.72,1.72,0,0,1,0,2.37,1.57,1.57,0,0,1-2.21.09Z"/><path class="cls-9" d="M92,100.15c7-.33,14.36-0.52,22-0.52s15,0.19,22,.52q-0.52-2.19-1.13-4.49-0.67-2.47-1.38-4.79a3,3,0,0,0-4.69,2.51,2.82,2.82,0,0,0-1.8-1.07,2.86,2.86,0,0,0-2.24.68,1.52,1.52,0,0,0-1.27-.59,1.47,1.47,0,0,0-1.24,1.37,3.54,3.54,0,0,0-3.15.78,3.33,3.33,0,0,0-1,2.24A5.28,5.28,0,0,0,115.93,95a5.74,5.74,0,0,0-4.68.2,2.87,2.87,0,0,0-1.07-.2A3.18,3.18,0,0,0,108,96a6.2,6.2,0,0,0-2.33-.1,6.27,6.27,0,0,0-2.93,1.27,3.83,3.83,0,0,0-5.27,1,4.28,4.28,0,0,0-3.71,0A4,4,0,0,0,92,100.15Z"/><path class="cls-10" d="M125.38,96.58a1.81,1.81,0,0,1,0-2.49,1.65,1.65,0,0,1,2.33-.1L127.82,94a1.81,1.81,0,0,1,0,2.49,1.65,1.65,0,0,1-2.33.1Z"/><path class="cls-11" d="M110.64,103a4.44,4.44,0,0,1,.09-6.11,4,4,0,0,1,5.72-.24l0.16,0.16a4.44,4.44,0,0,1-.09,6.11,4,4,0,0,1-5.72.24Z"/><path class="cls-12" d="M138.54,116c0,0.27,0,.56,0,0.88a49,49,0,0,1-1,8.65c-3.76,18.44-8.22,33.82-8.22,33.82h0C124.39,174,122,182.6,118.68,183c-0.47.06-2.21,0.08-2.86,0.09h-2.9l-4.23,0c-4.45-.19-10.12-22-11.22-26.07a285,285,0,0,1-7.15-30.81,54.56,54.56,0,0,1-1.06-11.45c0.13-4.18.93-7,2.17-12.13,0.19-.76.38-1.58,0.58-2.46,7.1-.32,14.52-0.5,22.21-0.5,7.5,0,14.75.18,21.71,0.49,0.22,0.87.43,1.7,0.61,2.47C138,108.54,138.58,111.7,138.54,116Z"/><circle class="cls-13" cx="106.88" cy="88.95" r="0.83"/><circle class="cls-14" cx="96.16" cy="93.17" r="1.78"/><path class="cls-15" d="M108.6,96.24a0.43,0.43,0,0,1-.53.29h0a0.43,0.43,0,0,1-.29-0.54,0.43,0.43,0,0,1,.53-0.29h0A0.43,0.43,0,0,1,108.6,96.24Z"/><ellipse class="cls-16" cx="106.81" cy="98.01" rx="0.64" ry="0.65"/><path class="cls-17" d="M100,100.85a0.6,0.6,0,0,1,0-.82,0.54,0.54,0,0,1,.77,0l0,0a0.6,0.6,0,0,1,0,.82,0.54,0.54,0,0,1-.77,0Z"/><path class="cls-18" d="M95.67,100.16a0.53,0.53,0,0,1,0,.17,0.46,0.46,0,0,1-.28.31,1.23,1.23,0,0,1-.06-0.63l-0.69,0v0a0.54,0.54,0,0,1,.67-0.36l0.1,0A0.53,0.53,0,0,1,95.67,100.16Z"/><path class="cls-19" d="M105.58,99.71l-2.29,0A1.16,1.16,0,0,1,105.58,99.71Z"/><path class="cls-20" d="M93.93,100.06l-0.87,0a0.72,0.72,0,0,1,0-.14,0.45,0.45,0,0,1,.55-0.3A0.44,0.44,0,0,1,93.93,100.06Z"/><path class="cls-21" d="M95.64,100a0.51,0.51,0,0,1,0,.33,0.46,0.46,0,0,1-.28.31,1.23,1.23,0,0,1-.06-0.63,0.94,0.94,0,0,1,.08-0.31,1.3,1.3,0,0,1,.26-0.39,1.16,1.16,0,0,1,1.63-.07l0,0a1.27,1.27,0,0,1,.32.63Z"/><path class="cls-22" d="M114.45,87.9L126,87.39a11.94,11.94,0,0,1,.53-6.38c-0.51-5-1.95-8.53-3.78-8.73a2.69,2.69,0,0,0-1.38.35,8.73,8.73,0,0,0-4,4.31A30.55,30.55,0,0,0,114.45,87.9Z"/><ellipse class="cls-23" cx="111.2" cy="73.56" rx="5.42" ry="5.31" transform="translate(4.59 153.63) rotate(-70.4)"/><ellipse class="cls-24" cx="108.62" cy="40.83" rx="1.84" ry="1.8" transform="translate(33.71 129.45) rotate(-70.4)"/><ellipse class="cls-25" cx="111.49" cy="135.46" rx="0.89" ry="0.87" transform="translate(-53.52 195.04) rotate(-70.4)"/><ellipse class="cls-26" cx="107.73" cy="138.1" rx="1.3" ry="1.26" transform="translate(-58.51 193.25) rotate(-70.4)"/><ellipse class="cls-27" cx="108.89" cy="132.37" rx="0.5" ry="0.48" transform="translate(-52.34 190.53) rotate(-70.4)"/><ellipse class="cls-28" cx="112.12" cy="141.64" rx="1.64" ry="1.59" transform="translate(-58.93 199.73) rotate(-70.4)"/><ellipse class="cls-29" cx="102.79" cy="124.7" rx="0.88" ry="0.85" transform="translate(-49.17 179.69) rotate(-70.4)"/><ellipse class="cls-30" cx="99.1" cy="127.3" rx="1.27" ry="1.24" transform="translate(-54.07 177.94) rotate(-70.4)"/><ellipse class="cls-31" cx="100.24" cy="121.67" rx="0.49" ry="0.47" transform="translate(-48.02 175.27) rotate(-70.4)"/><ellipse class="cls-32" cx="103.4" cy="130.77" rx="1.61" ry="1.56" transform="translate(-54.48 184.3) rotate(-70.4)"/><ellipse class="cls-33" cx="107.08" cy="111.94" rx="0.95" ry="0.92" transform="translate(-34.3 175.25) rotate(-70.4)"/><ellipse class="cls-34" cx="103.08" cy="114.75" rx="1.38" ry="1.34" transform="translate(-39.6 173.35) rotate(-70.4)"/><ellipse class="cls-35" cx="104.31" cy="108.66" rx="0.53" ry="0.51" transform="translate(-33.05 170.46) rotate(-70.4)"/><ellipse class="cls-36" cx="107.74" cy="118.5" rx="1.74" ry="1.69" transform="translate(-40.05 180.23) rotate(-70.4)"/><ellipse class="cls-37" cx="115.96" cy="148.23" rx="1.55" ry="1.5" transform="translate(-62.59 207.73) rotate(-70.4)"/><ellipse class="cls-38" cx="109.45" cy="152.8" rx="2.24" ry="2.18" transform="matrix(0.34, -0.94, 0.94, 0.34, -71.22, 204.64)"/><ellipse class="cls-39" cx="111.45" cy="142.9" rx="0.86" ry="0.83" transform="translate(-60.56 199.94) rotate(-70.4)"/><ellipse class="cls-40" cx="117.03" cy="158.92" rx="2.83" ry="2.75" transform="translate(-71.94 215.84) rotate(-70.4)"/><ellipse class="cls-41" cx="107.73" cy="153.98" rx="1.18" ry="1.15" transform="translate(-73.47 203.8) rotate(-70.4)"/><path class="cls-42" d="M115.14,164.5a3.54,3.54,0,0,1-1.92.26c-1.35-.2-3.77-0.26-5.39,1.33-2.46,2.43-1.32,7,.87,9.51,3.17,3.6,8.32,2.58,8.55,2.53A7.85,7.85,0,0,0,121,176c3-3.25,3.2-9.74-.09-11.69C119,163.13,116.5,163.91,115.14,164.5Z"/><path class="cls-43" d="M116.71,166.87a3,3,0,0,1-3.61.58l-0.12-.06c-0.47-.27-1.4-0.92-1.27-1.33s1.29-.43,2.36-0.35a1.61,1.61,0,0,0,.83-0.16c0.82-.41,2.19-1,2.54-0.6s-0.22,1.28-.58,1.75Z"/><path class="cls-44" d="M112,176c-3.6-2-4.84-6-3.47-8.57a4.54,4.54,0,0,1,1-1.3,0.55,0.55,0,0,1,.8.75,5.83,5.83,0,0,0-.87,1.63A6.8,6.8,0,0,0,112,176Z"/><path class="cls-44" d="M119.8,175.24c2.84-2.95,2.82-7.14.73-9.21a4.54,4.54,0,0,0-1.37-.93,0.55,0.55,0,0,0-.54,1,5.83,5.83,0,0,1,1.32,1.29A6.8,6.8,0,0,1,119.8,175.24Z"/><ellipse class="cls-45" cx="115.12" cy="165.91" rx="0.89" ry="0.87" transform="translate(-79.8 218.69) rotate(-70.4)"/><ellipse class="cls-46" cx="111.35" cy="168.56" rx="1.3" ry="1.26" transform="translate(-84.8 216.9) rotate(-70.4)"/><ellipse class="cls-47" cx="112.51" cy="162.83" rx="0.5" ry="0.48" transform="translate(-78.63 214.18) rotate(-70.4)"/><ellipse class="cls-48" cx="115.74" cy="172.1" rx="1.64" ry="1.59" transform="translate(-85.21 223.38) rotate(-70.4)"/><ellipse class="cls-49" cx="115.08" cy="173.36" rx="0.86" ry="0.83" transform="translate(-86.84 223.59) rotate(-70.4)"/><path class="cls-50" d="M146.48,103.78a11.8,11.8,0,0,0,4-7.1c0.19-1.33.62-4.42-1.42-6.72a6.65,6.65,0,0,0-3.38-2,11.91,11.91,0,0,1-.65,6.94,11.72,11.72,0,0,1-3.92,5A11.21,11.21,0,0,0,146.48,103.78Z"/><circle class="cls-6" cx="117.57" cy="88.21" r="2.91"/><circle class="cls-6" cx="112.79" cy="88.59" r="2.06"/><circle class="cls-6" cx="126.2" cy="88.84" r="3.42"/><circle class="cls-6" cx="121.74" cy="88.85" r="1.95"/><path class="cls-51" d="M118.11,90.07a0.43,0.43,0,0,1-.53.29h0a0.43,0.43,0,0,1-.29-0.54,0.43,0.43,0,0,1,.53-0.29h0A0.43,0.43,0,0,1,118.11,90.07Z"/><ellipse class="cls-52" cx="116.02" cy="91.29" rx="0.64" ry="0.65"/><path class="cls-53" d="M116.78,88.35a0.35,0.35,0,0,1-.44.23h0a0.35,0.35,0,0,1-.23-0.44,0.35,0.35,0,0,1,.44-0.23h0a0.35,0.35,0,0,1,.23.44h0Z"/><path class="cls-54" d="M129.93,99.9h5.85c0.3,1,.69,2.3,1.08,3.91A58.82,58.82,0,0,1,138.48,118c-0.05,3.34-.89,7.35-2.56,15.25-1.72,8.13-3.29,14.06-3.64,15.38-1.21,4.56-2.81,10.13-4.89,16.43,0.69-3,1.66-7.43,2.73-12.79,5.44-27.26,4.6-35.26,3.64-40.21A56.36,56.36,0,0,0,129.93,99.9Z"/><circle class="cls-55" cx="123.04" cy="89.12" r="0.59"/><circle class="cls-56" cx="126.19" cy="88.24" r="1.69"/><path class="cls-57" d="M122.21,72.27c1.77,0.12,3.69.32,5.75,0.66A60.34,60.34,0,0,1,134,74.24a3.9,3.9,0,0,1,1.38,1.12,4.44,4.44,0,0,1,.82,2.56c0.1,2.31.72,10.52,2.24,15.75a16.53,16.53,0,0,0,3.72,7.12,13.8,13.8,0,0,0,4.31,3,16.29,16.29,0,0,1-6.12.67,12.67,12.67,0,0,1-5.51-1.48c-1.88-1.14-2.94-2.92-5.94-13.41-1.62-5.64-1.72-6.56-2.76-9.23A53,53,0,0,0,122.21,72.27Z"/><path class="cls-58" d="M115.35,82.21c0.51-2,2-7.13,5.66-9.51a2.15,2.15,0,0,1,1.47-.5c3.34,0.33,4.85,11.18,4.73,11.21s-0.23-.93-1.08-3.12A20.69,20.69,0,0,0,125,77.63c-0.82-1.48-1.58-2.86-2.77-3.09-1.61-.32-3.21,1.63-4.28,2.91A13.8,13.8,0,0,0,115.35,82.21Z"/><path class="cls-59" d="M94.8,100l-2.7.13c-0.29.93-.68,2.28-1.08,3.91a78.73,78.73,0,0,0-1.66,9.58C89.13,116,89,120,91.73,133.39c1.42,7,2.75,12.2,3.63,15.66,2.38,9.35,4.32,15.43,5.14,17.94,1.35,4.14,3.6,10.71,3.83,10.63s-3.2-10.14-6.56-25.17c-2.44-10.93-3.18-17.27-4.64-30a57.53,57.53,0,0,1-.39-6.81A61.06,61.06,0,0,1,94.8,100Z"/><path class="cls-60" d="M97.94,75.1q1.79-.1,3.65-0.16l3.2-.08c-1.39,5.31-3.42,13.26-5.74,23-1.62,6.84-2.44,10.27-2.74,11.93-1.64,9-1.07,16.69,2.54,37.17,1.64,9.28,3.74,20.25,6.42,32.56-0.6-1.41-1.42-3.4-2.35-5.81-2.55-6.67-4.09-12-5.33-16.34-1.9-6.73-6.26-22.64-7.91-34.73a42.75,42.75,0,0,1-.34-9.63,47.24,47.24,0,0,1,.87-6c0.15-.71.28-1.25,0.33-1.43C91.21,103,94,91.41,97.94,75.1Z"/><path class="cls-61" d="M104.63,186.92q2.11,0.19,4.38.3t4.43,0.11c0.4,37.49.47,64.63,0.48,68.57A24.47,24.47,0,0,1,112.5,264a22.52,22.52,0,0,1-3.56,6.1c-2.23,2.72-4,3.65-3.82,4.9,0.32,1.76,4.62,3.64,22.27,4a103.85,103.85,0,0,1-27.52-.72q-2.76-.45-5.32-1a1.59,1.59,0,0,1-.22-3.1c8.13-2.88,11-6.73,13.05-9.49,3.87-5.31,2.42-8.38,3.06-25.79,0,0,.72-19.6-1.1-45.45a7.71,7.71,0,0,0-1.32-3.93A7.83,7.83,0,0,0,104.63,186.92Z"/><circle class="cls-62" cx="112.15" cy="89.51" r="1.78"/></svg>