<svg id="Layer_1" data-name="Layer 1" xmlns="http://www.w3.org/2000/svg" xmlns:xlink="http://www.w3.org/1999/xlink" viewBox="0 0 230.86 332.94"><defs><style>.cls-1{fill:#ea968b;}.cls-2{fill:#f8d9d7;}.cls-3{fill:#f4cac9;}.cls-4{fill:#f6d5d5;}.cls-5{fill:url(#linear-gradient);}.cls-6{opacity:0.83;fill:url(#linear-gradient-2);}.cls-7{fill:#3f8e6a;}.cls-10,.cls-30,.cls-31,.cls-8{fill:#fff;}.cls-8{opacity:0.46;}.cls-12,.cls-20,.cls-25,.cls-9{opacity:0.73;}.cls-9{fill:url(#linear-gradient-3);}.cls-10{opacity:0.75;}.cls-11{fill:#668d3e;}.cls-12{fill:url(#linear-gradient-4);}.cls-13{fill:#e06e6e;}.cls-14{fill:#89181f;}.cls-15{fill:#531116;opacity:0.57;}.cls-16{fill:#a92123;}.cls-17{fill:#fdf0f0;}.cls-18{fill:url(#linear-gradient-5);}.cls-19{fill:#db2e2a;}.cls-20{fill:url(#linear-gradient-6);}.cls-21,.cls-28{fill:#f4b5b5;}.cls-21{opacity:0.15;}.cls-22{fill:url(#linear-gradient-7);}.cls-23{fill:none;}.cls-24{fill:url(#linear-gradient-8);}.cls-25{fill:url(#linear-gradient-9);}.cls-26{fill:url(#linear-gradient-10);}.cls-27{opacity:0.67;fill:url(#linear-gradient-11);}.cls-28{opacity:0.18;}.cls-29{opacity:0.5;fill:url(#linear-gradient-12);}.cls-30{opacity:0.44;}.cls-31{opacity:0.24;}.cls-32,.cls-33,.cls-34,.cls-35,.cls-36,.cls-37,.cls-38,.cls-39,.cls-40,.cls-41,.cls-42,.cls-43,.cls-44,.cls-45,.cls-46,.cls-47,.cls-48,.cls-49,.cls-50,.cls-51,.cls-52{opacity:0.39;}.cls-32{fill:url(#radial-gradient);}.cls-33{fill:url(#radial-gradient-2);}.cls-34{fill:url(#radial-gradient-3);}.cls-35{fill:url(#radial-gradient-4);}.cls-36{fill:url(#radial-gradient-5);}.cls-37{fill:url(#radial-gradient-6);}.cls-38{fill:url(#radial-gradient-7);}.cls-39{fill:url(#radial-gradient-8);}.cls-40{fill:url(#radial-gradient-9);}.cls-41{fill:url(#radial-gradient-10);}.cls-42{fill:url(#radial-gradient-11);}.cls-43{fill:url(#radial-gradient-12);}.cls-44{fill:url(#radial-gradient-13);}.cls-45{fill:url(#radial-gradient-14);}.cls-46{fill:url(#radial-gradient-15);}.cls-47{fill:url(#radial-gradient-16);}.cls-48{fill:url(#radial-gradient-17);}.cls-49{fill:url(#radial-gradient-18);}.cls-50{fill:url(#radial-gradient-19);}.cls-51{fill:url(#radial-gradient-20);}.cls-52{fill:url(#radial-gradient-21);}</style><linearGradient id="linear-gradient" x1="113.82" y1="256.01" x2="113.82" y2="126.44" gradientUnits="userSpaceOnUse"><stop offset="0" stop-color="#a11e22"/><stop offset="0.04" stop-color="#b63330"/><stop offset="0.12" stop-color="#c03c39"/><stop offset="0.25" stop-color="#d34d4a"/><stop offset="0.37" stop-color="#f26561"/><stop offset="0.71" stop-color="#f3b7a8"/><stop offset="0.95" stop-color="#f4dacd"/></linearGradient><linearGradient id="linear-gradient-2" x1="113.95" y1="275.07" x2="113.95" y2="270.71" gradientUnits="userSpaceOnUse"><stop offset="0" stop-color="#f4cac9"/><stop offset="0.64" stop-color="#fbebe9"/></linearGradient><linearGradient id="linear-gradient-3" x1="116.75" y1="79.04" x2="142.26" y2="79.04" gradientTransform="translate(8.98 30.64) rotate(9.35)" gradientUnits="userSpaceOnUse"><stop offset="0" stop-color="#ffe6c6"/><stop offset="0.97" stop-color="#fff"/></linearGradient><linearGradient id="linear-gradient-4" x1="245.1" y1="312.04" x2="268.74" y2="312.04" gradientTransform="translate(-266.73 37.21) rotate(-26.72)" xlink:href="#linear-gradient-3"/><linearGradient id="linear-gradient-5" x1="136.03" y1="137.31" x2="136.03" y2="153.92" gradientTransform="translate(-53.66 -18.65) rotate(-8.31)" gradientUnits="userSpaceOnUse"><stop offset="0.38" stop-color="#ee3624"/><stop offset="1" stop-color="#a82723"/></linearGradient><linearGradient id="linear-gradient-6" x1="94.54" y1="88.43" x2="117.2" y2="88.43" xlink:href="#linear-gradient-3"/><linearGradient id="linear-gradient-7" x1="113.67" y1="101.2" x2="113.67" y2="126.63" gradientUnits="userSpaceOnUse"><stop offset="0.08" stop-color="#fef1f0"/><stop offset="0.62" stop-color="#fef1f0"/><stop offset="0.9" stop-color="#f9ebe3"/><stop offset="0.95" stop-color="#f7e4da"/><stop offset="1" stop-color="#f4dacd"/></linearGradient><linearGradient id="linear-gradient-8" x1="128.99" y1="184.84" x2="128.99" y2="202.23" xlink:href="#linear-gradient-5"/><linearGradient id="linear-gradient-9" x1="122.13" y1="113.66" x2="145.78" y2="113.66" xlink:href="#linear-gradient-3"/><linearGradient id="linear-gradient-10" x1="-20.93" y1="117.95" x2="-20.93" y2="135.34" gradientTransform="matrix(0.92, 0.4, -0.4, 0.92, 187.84, 73.46)" xlink:href="#linear-gradient-5"/><linearGradient id="linear-gradient-11" x1="-51.92" y1="765" x2="-51.92" y2="782.39" gradientTransform="matrix(-0.65, -0.76, 0.76, -0.65, -496.97, 688.87)" xlink:href="#linear-gradient-5"/><linearGradient id="linear-gradient-12" x1="113.9" y1="256.01" x2="113.9" y2="126.44" xlink:href="#linear-gradient"/><radialGradient id="radial-gradient" cx="101.52" cy="213.04" r="1.94" gradientTransform="translate(268.15 45.93) rotate(70.4)" gradientUnits="userSpaceOnUse"><stop offset="0.7" stop-color="#f7c5ba"/><stop offset="1" stop-color="#fff"/></radialGradient><radialGradient id="radial-gradient-2" cx="100.39" cy="234.16" r="2.81" gradientTransform="translate(287.29 61.02) rotate(70.4)" xlink:href="#radial-gradient"/><radialGradient id="radial-gradient-3" cx="96.08" cy="223.35" r="3.17" gradientTransform="translate(274.24 57.9) rotate(70.4)" xlink:href="#radial-gradient"/><radialGradient id="radial-gradient-4" cx="99.34" cy="205.8" r="1.49" gradientTransform="translate(259.88 43.17) rotate(70.4)" xlink:href="#radial-gradient"/><radialGradient id="radial-gradient-5" cx="136.85" cy="145.91" r="1.94" gradientTransform="translate(228.38 -31.97) rotate(70.4)" xlink:href="#radial-gradient"/><radialGradient id="radial-gradient-6" cx="130.5" cy="154.46" r="3.17" gradientTransform="translate(232.22 -20.29) rotate(70.4)" xlink:href="#radial-gradient"/><radialGradient id="radial-gradient-7" cx="133.75" cy="136.91" r="1.49" gradientTransform="translate(217.85 -35.03) rotate(70.4)" xlink:href="#radial-gradient"/><radialGradient id="radial-gradient-8" cx="107.68" cy="243.92" r="1.37" gradientTransform="translate(301.33 60.64) rotate(70.4)" xlink:href="#radial-gradient"/><radialGradient id="radial-gradient-9" cx="106.14" cy="238.82" r="1.05" gradientTransform="translate(295.5 58.7) rotate(70.4)" xlink:href="#radial-gradient"/><radialGradient id="radial-gradient-10" cx="-148.45" cy="629.33" r="2.97" gradientTransform="matrix(-1.15, 0, 0, 1.16, -53.65, -672.58)" xlink:href="#radial-gradient"/><radialGradient id="radial-gradient-11" cx="-138.2" cy="619.53" r="4.3" gradientTransform="matrix(-1.15, 0, 0, 1.16, -56.52, -653.87)" xlink:href="#radial-gradient"/><radialGradient id="radial-gradient-12" cx="-128.66" cy="631.23" r="4.85" gradientTransform="matrix(-1.15, 0, 0, 1.16, -36.4, -652.55)" xlink:href="#radial-gradient"/><radialGradient id="radial-gradient-13" cx="-155.87" cy="619.15" r="1.65" gradientTransform="matrix(-1.15, 0, 0, 1.16, -70.47, -672.77)" xlink:href="#radial-gradient"/><radialGradient id="radial-gradient-14" cx="91.14" cy="108.99" r="2.58" gradientTransform="matrix(1, 0, 0, 1, 0, 0)" xlink:href="#radial-gradient"/><radialGradient id="radial-gradient-15" cx="104.62" cy="110.65" r="1.69" gradientTransform="matrix(1, 0, 0, 1, 0, 0)" xlink:href="#radial-gradient"/><radialGradient id="radial-gradient-16" cx="95.56" cy="112.26" r="0.85" gradientTransform="matrix(1, 0, 0, 1, 0, 0)" xlink:href="#radial-gradient"/><radialGradient id="radial-gradient-17" cx="98.16" cy="110.22" r="0.85" gradientTransform="matrix(1, 0, 0, 1, 0, 0)" xlink:href="#radial-gradient"/><radialGradient id="radial-gradient-18" cx="136.91" cy="103.75" r="2.58" gradientTransform="matrix(1, 0, 0, 1, 0, 0)" xlink:href="#radial-gradient"/><radialGradient id="radial-gradient-19" cx="137.33" cy="117.65" r="1.69" gradientTransform="matrix(1, 0, 0, 1, 0, 0)" xlink:href="#radial-gradient"/><radialGradient id="radial-gradient-20" cx="128.27" cy="119.25" r="0.85" gradientTransform="matrix(1, 0, 0, 1, 0, 0)" xlink:href="#radial-gradient"/><radialGradient id="radial-gradient-21" cx="130.87" cy="117.21" r="0.85" gradientTransform="matrix(1, 0, 0, 1, 0, 0)" xlink:href="#radial-gradient"/></defs><title>icons</title><ellipse class="cls-1" cx="113.46" cy="278.67" rx="32.31" ry="6.63"/><path class="cls-2" d="M150,82.61L137.22,275.74a3.59,3.59,0,0,1-3.2,3.35,190.17,190.17,0,0,1-19.55,1.11,188.88,188.88,0,0,1-21.76-1.13,3.38,3.38,0,0,1-3-3.14Q83.3,179.39,76.91,82.84a2,2,0,0,1,1.77-2.09q5.28-.52,10.92-0.89,2.54-.17,5.13-0.31l1.62-.07h0.22l1.18-.06c4.8-.21,9.77-0.34,14.88-0.35,13,0,24.95.64,35.84,1.7A1.74,1.74,0,0,1,150,82.61Z"/><path class="cls-3" d="M135.11,253L134.05,272a3.33,3.33,0,0,1-3.3,3.12H96.6A2.68,2.68,0,0,1,94,273.15a2.36,2.36,0,0,1-.11-0.6L92.69,253A35.22,35.22,0,0,0,135.11,253Z"/><path class="cls-4" d="M135.11,253l-1.06,19a3.21,3.21,0,0,1-3.2,3.06h-4.94a1.36,1.36,0,0,0,.82-0.86c-0.06-.58-1.86-0.84-7.56-0.92V259.58A34.41,34.41,0,0,0,135.11,253Z"/><path class="cls-3" d="M127.95,257.19q0.52-.21,1.06-0.47c0.5-.23,1-0.47,1.4-0.71v19.06h-2.45V257.19Z"/><path class="cls-5" d="M142,126.44q-1.17,18.36-2.35,36.74l-4.82,75.17-0.25,3.91a10.75,10.75,0,0,1-3.86,7.63l-0.31.25A28.8,28.8,0,0,1,118,255.61a26.26,26.26,0,0,1-5,.39,27.89,27.89,0,0,1-15.88-5.38,11.73,11.73,0,0,1-4.81-8.9l-0.82-14.09L85.61,126.44H142Z"/><path class="cls-6" d="M133.87,272.84a3.31,3.31,0,0,1-3.12,2.23H96.6A2.68,2.68,0,0,1,94,273.15c2-1.39,10.27-2.44,20.2-2.44C123.39,270.71,131.17,271.6,133.87,272.84Z"/><path class="cls-7" d="M128.26,103.75a6.66,6.66,0,0,1,.29-2.25c0.79-2.48,2.95-3.65,5-4.61,4.57-2.13,10.82-4.28,11-3.59s-3.73,3.09-7.77,4.51c-2.75,1-5.18,1.26-7.23,3.86A10.61,10.61,0,0,0,128.26,103.75Z"/><path class="cls-8" d="M121.35,142.49l-9.2-12a3.73,3.73,0,0,1,.67-5.22L124,116.61a3.7,3.7,0,0,1,5.2.67l9.2,12a3.73,3.73,0,0,1-.67,5.22l-11.22,8.68A3.7,3.7,0,0,1,121.35,142.49Z"/><path class="cls-9" d="M120.27,141.09L112,130.31a3.47,3.47,0,0,1,.63-4.86l10.09-7.81a3.44,3.44,0,0,1,4.84.63l8.28,10.79a3.47,3.47,0,0,1-.63,4.86l-10.09,7.81A3.44,3.44,0,0,1,120.27,141.09Z"/><path class="cls-10" d="M123.47,117.06a2.42,2.42,0,0,1,3.5.45l9.44,12.3a2.76,2.76,0,0,1,.39,2.3,2.55,2.55,0,0,1-.85,1.22l-11.6,9a2.49,2.49,0,0,1-1.74.54,2.52,2.52,0,0,1-1.76-1,2.63,2.63,0,0,0,2,.32,2.45,2.45,0,0,0,1-.58l11.47-8.87a2.37,2.37,0,0,0,.37-2.53l-9.18-12.09a2.43,2.43,0,0,0-1-1A2.6,2.6,0,0,0,123.47,117.06Z"/><path class="cls-7" d="M128.08,101.18a34.53,34.53,0,0,1,8.32-9.63c3.28-2.55,8.18-5.18,8.55-4.42a0.59,0.59,0,0,1-.06.43c-1,2.33-4.33,3.83-7.19,5.72-0.71.47-1.92,1.46-4.35,3.43C131.08,98.55,129.27,100.13,128.08,101.18Z"/><path class="cls-7" d="M119,136.72c0,0.08-.06.15-0.08,0.22s-0.12.37-.2,0.55c-0.28-.43-0.59-0.89-0.92-1.34a19.89,19.89,0,0,0-5.6-5.32c-4.13-2.54-7.81-2.36-7.76-3s4.41-2.17,8.18-.32c2.95,1.45,4.69,4.5,5.69,7.12A21,21,0,0,1,119,136.72Z"/><path class="cls-7" d="M128.26,103.75c0.36-5.33.9-17.77-2.07-23.93-0.29-.6-1.07-2.22-1.4-2-0.53.27,0.53,5,1.35,9.59C126.86,91.29,127.71,96.84,128.26,103.75Z"/><path class="cls-11" d="M134.39,132.74a2.33,2.33,0,0,1-1.28,0c-3.35-.71-6.91-0.86-10.15.74a11,11,0,0,0-3.43,2.7c-0.19.22-.37,0.45-0.55,0.68a20.58,20.58,0,0,0-1.12,2.23c0.1-.86.22-1.72,0.36-2.61a25.83,25.83,0,0,1,1.45-2.54l0.43-.64a11.42,11.42,0,0,1,3.81-3.58c3.25-1.67,6.84-.49,10.11.73a1.46,1.46,0,0,1,1.15,1.2A1.2,1.2,0,0,1,134.39,132.74Z"/><path class="cls-11" d="M121.09,123.81c0.43-6.71-1.57-13.45-5.35-18a22.67,22.67,0,0,1-1.62-2.21c-1.23-1.22-2.3-1.5-2.24-1.79s1.78-.73,3.39,0c0,0,4,1.9,5,10.21v0.06s-0.35-3.43-.46-8.9c0-2.37,0-3.55.59-4.76,1.11-2.44,3.49-3.73,3.88-3.24s-1.19,1.88-2,5.18c-0.56,2.28-.47,4.24-0.33,7.52,0.1,2.29.29,3.45,0.39,4.64A31.94,31.94,0,0,1,121.09,123.81Z"/><path class="cls-11" d="M131,110.37c2.4-.89,2.94-0.27,5.68-1.19,1.53-.51,3.54-1.43,3.49-1.86s-1.33-.28-3-0.17a22.27,22.27,0,0,0-8.08,1.55,11,11,0,0,0-3.32,2.36c-0.46.48-2.7,3-2.3,3.87,0.25,0.54,2.86-2,3.35-2.35A18.17,18.17,0,0,1,131,110.37Z"/><path class="cls-7" d="M135.13,87.48a4.78,4.78,0,0,0,1.54-1.34c1.48-2,1.35-4.82,1.12-7.47-0.51-5.86-1.77-13.54-2.34-13.38s-0.59,5.4.21,10.37c0.54,3.38,1.43,6.12.44,9.5A11.37,11.37,0,0,1,135.13,87.48Z"/><path class="cls-7" d="M136.85,86.06a43.44,43.44,0,0,0,3.33-13.3c0.39-4.68.11-11.12-.62-11.17a0.44,0.44,0,0,0-.29.26c-1.27,2.12-.86,6.38-1,10.3,0,1-.2,2.72-0.55,6.22C137.43,81.66,137.09,84.32,136.85,86.06Z"/><path class="cls-7" d="M153.62,80.69c0,0.7-3.94,1.73-7.71,2.93-2.41.77-5.52,1.86-9.18,3.44l-2.16,1,0.43-.74c0.8-.57,1.68-1.17,2.63-1.77h0c4.27-2.74,9.78-5.61,13.83-5.37C152,80.17,153.59,80.26,153.62,80.69Z"/><path class="cls-11" d="M143.22,78.46l-6.86,6.1a63.53,63.53,0,0,0,12-7.14c0.39-.29,1.69-1.39,1.4-2.14s-1.76,0-2.18.12A15,15,0,0,0,143.22,78.46Z"/><path class="cls-8" d="M108.11,211.42l-13.42-4a3.46,3.46,0,0,1-2.34-4.28L96,190.57a3.43,3.43,0,0,1,4.26-2.33l13.42,4a3.46,3.46,0,0,1,2.34,4.28l-3.67,12.62A3.43,3.43,0,0,1,108.11,211.42Z"/><path class="cls-12" d="M106.55,211L94.46,207.4a3.22,3.22,0,0,1-2.18-4l3.3-11.35a3.19,3.19,0,0,1,4-2.17l12.09,3.56a3.22,3.22,0,0,1,2.18,4l-3.3,11.35A3.19,3.19,0,0,1,106.55,211Z"/><path class="cls-10" d="M95.83,191.22a2.24,2.24,0,0,1,2.87-1.57l13.78,4.06a2.56,2.56,0,0,1,1.55,1.51,2.37,2.37,0,0,1,0,1.38l-3.79,13.05a2.3,2.3,0,0,1-1,1.36,2.34,2.34,0,0,1-1.86.22,2.44,2.44,0,0,0,1.68-.86,2.27,2.27,0,0,0,.45-1l3.75-12.9a2.2,2.2,0,0,0-1.1-2.1l-13.47-4a2.25,2.25,0,0,0-1.23-.19A2.41,2.41,0,0,0,95.83,191.22Z"/><path class="cls-7" d="M122.86,101.13c-2.19-5.53-5.12-8.13-4.92-8.39s3.69,2.2,6.06,6.92a13.85,13.85,0,0,1,1.86,7.71,12.79,12.79,0,0,1-1.52,5.05,22.74,22.74,0,0,0,.05-5.45A22.17,22.17,0,0,0,122.86,101.13Z"/><path class="cls-7" d="M120.62,129.54a6.63,6.63,0,0,0,.4-2.23c0-2.62-1.71-4.46-3.38-6.08-3.69-3.58-9-7.75-9.32-7.15s2.61,4.21,6,6.93c2.32,1.85,4.54,3,5.7,6.13A11.1,11.1,0,0,1,120.62,129.54Z"/><path class="cls-7" d="M121.57,127.16a36.6,36.6,0,0,0-5-12c-2.35-3.54-6.2-7.71-6.78-7.11a0.59,0.59,0,0,0-.07.43c0.24,2.54,3,5.11,5.1,7.88,0.53,0.69,1.39,2,3.1,4.73C119.51,123.65,120.76,125.76,121.57,127.16Z"/><path class="cls-11" d="M131.8,88.38l-1.38,10.12a97.42,97.42,0,0,1-.2-16.14c0-.55.26-2.45,0.94-2.48s0.83,1.87.9,2.39A22.19,22.19,0,0,1,131.8,88.38Z"/><path class="cls-7" d="M108.94,194.78a3.71,3.71,0,0,1-1-.93c-0.9-1.25-.62-2.73-0.28-4.09,0.75-3,2.15-6.86,2.54-6.7s0,2.93-.85,5.43c-0.61,1.7-1.41,3-.95,4.93A5.91,5.91,0,0,0,108.94,194.78Z"/><path class="cls-7" d="M107.62,194a19.71,19.71,0,0,1-1.42-7.48c0-2.52.68-5.87,1.19-5.78a0.33,0.33,0,0,1,.18.18c0.74,1.3.17,3.48,0,5.56,0,0.52,0,1.46,0,3.35S107.57,193,107.62,194Z"/><path class="cls-7" d="M121.31,210.87l0.08,0.11c0.06,0.1.13,0.19,0.19,0.29h-1a13.1,13.1,0,0,0-4.77.93c-2.84,1.16-4.19,3.06-4.51,2.8s0.67-2.95,3-4.17a8.15,8.15,0,0,1,5.67-.35A12.53,12.53,0,0,1,121.31,210.87Z"/><path class="cls-7" d="M108.94,194.78c-2.45-2-8.27-6.63-12.41-7.3-0.41-.07-1.49-0.24-1.54,0s2.63,1.48,5.18,2.67A97.44,97.44,0,0,1,108.94,194.78Z"/><path class="cls-11" d="M125.39,201.83a1.56,1.56,0,0,1-.52.62,10.13,10.13,0,0,0-3.6,5.3,6.46,6.46,0,0,0,0,2.64c0,0.17.07,0.34,0.12,0.51a11.4,11.4,0,0,0,.65,1.33c-0.38-.35-0.75-0.71-1.12-1.09a14.37,14.37,0,0,1-.67-1.61l-0.14-.44a6.63,6.63,0,0,1-.25-3.14c0.46-2.19,2.43-3.57,4.3-4.77a1,1,0,0,1,1-.16A0.68,0.68,0,0,1,125.39,201.83Z"/><path class="cls-11" d="M115.87,205.32A15.67,15.67,0,0,0,105,201.7a14.46,14.46,0,0,1-1.7,0c-1.07.18-1.63,0.62-1.74,0.49a2.2,2.2,0,0,1,1.34-1.67s2.49-1.32,6.9,1.08l0,0s-1.8-1-4.5-2.87a5.7,5.7,0,0,1-2.08-2c-0.75-1.4-.45-3-0.06-3.05s0.45,1.25,1.73,2.8a14.12,14.12,0,0,0,3.52,2.78c1.15,0.75,1.78,1.06,2.4,1.42A17.85,17.85,0,0,1,115.87,205.32Z"/><path class="cls-11" d="M113.23,195.71c0.5-1.5,1-1.55,1.64-3.24,0.35-.94.69-2.26,0.46-2.38s-0.65.56-1.24,1.41a14.46,14.46,0,0,0-2.4,4.55,6.58,6.58,0,0,0-.15,2.47c0.05,0.4.42,2.4,1,2.49,0.36,0.06.14-2.12,0.17-2.48A11.12,11.12,0,0,1,113.23,195.71Z"/><path class="cls-7" d="M103.73,185.7a2.8,2.8,0,0,0,0-1.23c-0.38-1.42-1.81-2.35-3.19-3.16-3-1.79-7.26-3.83-7.4-3.49s2.39,2.17,5.11,3.51c1.85,0.91,3.53,1.42,4.78,3.09A6.28,6.28,0,0,1,103.73,185.7Z"/><path class="cls-7" d="M103.71,184.36a24,24,0,0,0-5.15-6.28c-2.12-1.82-5.35-3.92-5.66-3.58a0.25,0.25,0,0,0,0,.24c0.53,1.37,2.76,2.65,4.62,4.06,0.46,0.35,1.24,1,2.8,2.44S103,183.63,103.71,184.36Z"/><path class="cls-7" d="M107.65,174.16c0.36,0.22-.7,2.56-1.59,4.85-0.56,1.47-1.25,3.39-1.91,5.76-0.13.46-.25,0.92-0.38,1.41l-0.19-.47c0-.59.09-1.24,0.17-1.92h0c0.34-3.07,1.09-6.81,2.8-8.74C106.78,174.76,107.43,174,107.65,174.16Z"/><path class="cls-11" d="M102.51,178.55l0.28,5.53a38.49,38.49,0,0,0,1.23-8.46c0-.29,0-1.32-0.49-1.44s-0.7.86-.79,1.13A9,9,0,0,0,102.51,178.55Z"/><path class="cls-7" d="M105.56,196.55a26.15,26.15,0,0,0-6-.47c-0.05-.19,2.5-1.07,5.72-0.6a8.18,8.18,0,0,1,4.47,1.76,7.07,7.07,0,0,1,1.86,2.52,12.83,12.83,0,0,0-2.62-1.93A13.07,13.07,0,0,0,105.56,196.55Z"/><path class="cls-7" d="M118.47,207.55a3.68,3.68,0,0,0-.93-1c-1.27-.91-2.83-0.71-4.27-0.44-3.18.59-7.27,1.76-7.11,2.14s3.06,0.17,5.71-.58c1.8-.51,3.21-1.22,5.2-0.7A6.53,6.53,0,0,1,118.47,207.55Z"/><path class="cls-7" d="M117.68,206.25a22.32,22.32,0,0,0-7.76-1.68c-2.63-.06-6.16.4-6.1,0.89a0.33,0.33,0,0,0,.18.18c1.33,0.77,3.63.31,5.81,0.21,0.54,0,1.53,0,3.5.11S116.69,206.17,117.68,206.25Z"/><path class="cls-11" d="M102.87,187.67l4.37,4.21a55.14,55.14,0,0,1-7.91-5.52c-0.25-.21-1.08-1-0.83-1.33s1.23,0.24,1.51.38A12.48,12.48,0,0,1,102.87,187.67Z"/><path class="cls-7" d="M117.94,206.83a3.71,3.71,0,0,1-1-.93c-0.9-1.25-.62-2.73-0.28-4.09,0.75-3,2.15-6.86,2.54-6.7s0,2.93-.85,5.43c-0.61,1.7-1.41,3-.95,4.93A5.91,5.91,0,0,0,117.94,206.83Z"/><path class="cls-7" d="M116.62,206a19.71,19.71,0,0,1-1.42-7.48c0-2.52.68-5.87,1.19-5.78a0.33,0.33,0,0,1,.18.18c0.74,1.3.17,3.48,0,5.56,0,0.52,0,1.46,0,3.35S116.57,205.07,116.62,206Z"/><path class="cls-11" d="M103.74,183.77h0c0.13,0.32.26,0.66,0.4,1a76.07,76.07,0,0,0,7.54,13.94,108.32,108.32,0,0,0,8.38,10.4l0.75,0.82,0.09,0.1,0.24,0.26,0.09,0.1c3.23,3.5,6.16,6.31,8.47,8.41a90.25,90.25,0,0,1-7.71-6.56c-0.38-.35-0.75-0.71-1.12-1.09l-0.7-.7-0.69-.71a84.12,84.12,0,0,1-8.37-10.05,80.73,80.73,0,0,1-7.35-13.52l-0.19-.47a62.62,62.62,0,0,1-3.29-10s-0.48-2.05-.23-2.09S101.31,177.78,103.74,183.77Z"/><path class="cls-7" d="M101.29,177.92c-0.47-.64-2.45-3.5-1.67-6.25,0.59-2.06,2.5-3.3,2.78-3.09s-1,1.58-1.48,4A11.33,11.33,0,0,0,101.29,177.92Z"/><path class="cls-11" d="M101.5,178.39a8.8,8.8,0,0,0-3.61-5.7c-2.07-1.3-4.54-1.29-4.58-1s2,0.71,4.29,2.35A14.52,14.52,0,0,1,101.5,178.39Z"/><path class="cls-11" d="M100.71,175.84c-0.62-.52-3.27-2.85-3.35-5.82-0.06-2.22,1.34-4,1.66-3.85s-0.47,1.86-.2,4.4A12.81,12.81,0,0,0,100.71,175.84Z"/><path class="cls-7" d="M121.06,128.1a6.66,6.66,0,0,1,.29-2.25c0.79-2.48,2.95-3.65,5-4.61,4.57-2.13,10.82-4.28,11-3.59s-3.73,3.09-7.77,4.51c-2.75,1-5.18,1.26-7.23,3.86A10.61,10.61,0,0,0,121.06,128.1Z"/><path class="cls-7" d="M120.88,125.53a34.53,34.53,0,0,1,8.32-9.63c3.28-2.55,8.18-5.18,8.55-4.42a0.59,0.59,0,0,1-.06.43c-1,2.33-4.33,3.83-7.19,5.72-0.71.47-1.92,1.46-4.35,3.43C123.88,122.9,122.06,124.48,120.88,125.53Z"/><path class="cls-11" d="M137.63,85.49h0c-0.3.5-.6,1-0.9,1.56a137.57,137.57,0,0,0-11,24.38,196.07,196.07,0,0,0-5.64,21.82c-0.14.71-.26,1.33-0.36,1.84,0,0.09,0,.16,0,0.23s-0.07.39-.12,0.58a1.66,1.66,0,0,1,0,.22c-1.52,7.88-2.43,14.66-3,19.87a161.28,161.28,0,0,1,1.33-17c0.1-.86.22-1.72,0.36-2.61l0.25-1.64c0.08-.54.18-1.09,0.27-1.64A152.18,152.18,0,0,1,124,111.7,146.11,146.11,0,0,1,134.56,88l0.43-.74a111.81,111.81,0,0,1,9.83-14.68s2.2-2.76,2.48-2.47S143.11,76.09,137.63,85.49Z"/><path class="cls-13" d="M134.86,238.35a28.35,28.35,0,0,1-4.11,11.54l-0.31.25A28.8,28.8,0,0,1,118,255.61a26.26,26.26,0,0,1-5,.39,27.89,27.89,0,0,1-15.88-5.38,11.73,11.73,0,0,1-4.81-8.9l-0.5-8.21a15.41,15.41,0,0,1,7.77-3.41c10.77-1.27,17.18,11.28,28.82,10.24A17,17,0,0,0,134.86,238.35Z"/><path class="cls-7" d="M142.89,76.2c0.4-1.28,2.23-6.86,6.5-8.68,3.19-1.36,6.57-.12,6.55.46s-3,.3-6.51,2.2A19.51,19.51,0,0,0,142.89,76.2Z"/><ellipse class="cls-14" cx="116.86" cy="241.1" rx="3.94" ry="4.64" transform="translate(-140.35 166.07) rotate(-47.88)"/><ellipse class="cls-15" cx="114.84" cy="239.29" rx="1.52" ry="1.93" transform="translate(-92.18 73.19) rotate(-25.62)"/><ellipse class="cls-14" cx="105.03" cy="244.92" rx="3.87" ry="4.32" transform="translate(-147.08 158.56) rotate(-47.88)"/><ellipse class="cls-15" cx="103.2" cy="243.39" rx="1.52" ry="1.93" transform="translate(-95.1 68.56) rotate(-25.62)"/><path class="cls-11" d="M142.49,77c0.82-1,4.32-5.21,4-10.66-0.24-4.08-2.53-7.32-3-7.07s1,3.41.93,8.09A26.2,26.2,0,0,1,142.49,77Z"/><path class="cls-16" d="M134.86,238.35l-0.25,3.91a10.75,10.75,0,0,1-3.86,7.63l-0.31.25A28.8,28.8,0,0,1,118,255.61a26.26,26.26,0,0,1-5,.39,27.89,27.89,0,0,1-15.88-5.38,11.73,11.73,0,0,1-4.81-8.9c7.1,4.75,12.32,5.09,15.79,4.5,7.74-1.3,12.59-8.17,18.09-10a7.92,7.92,0,0,1,4.38-.26A9.49,9.49,0,0,1,134.86,238.35Z"/><path class="cls-17" d="M84,102.74a25,25,0,0,0,9.37,7.13c15.79,6.78,32.5-6.78,33.19-7.35A78.45,78.45,0,0,1,115,102c-11-1.32-15.65-4.18-23-2.68A22,22,0,0,0,84,102.74Z"/><path class="cls-18" d="M101.21,98.43A4,4,0,0,1,99.1,99c-1.55,0-4.28.32-5.84,2.38-2.37,3.14-.33,8.11,2.54,10.54,4.15,3.52,9.78,1.53,10,1.44a8.92,8.92,0,0,0,3.86-3.07c2.85-4.15,2-11.47-2-13.12C105.32,96.25,102.64,97.54,101.21,98.43Z"/><path class="cls-19" d="M103.37,100.83a3.39,3.39,0,0,1-4,1.25L99.26,102c-0.57-.22-1.72-0.81-1.65-1.28s1.38-.69,2.59-0.79a1.83,1.83,0,0,0,.91-0.32c0.86-.6,2.29-1.49,2.75-1.09s0,1.47-.37,2.06Z"/><path class="cls-8" d="M96.79,146.48l-8.17-10.64a3.31,3.31,0,0,1,.6-4.63l10-7.71a3.28,3.28,0,0,1,4.62.6L112,134.74a3.31,3.31,0,0,1-.6,4.63l-10,7.71A3.28,3.28,0,0,1,96.79,146.48Z"/><path class="cls-20" d="M95.84,145.24l-7.35-9.58a3.08,3.08,0,0,1,.56-4.31l9-6.93a3.06,3.06,0,0,1,4.3.56l7.35,9.58a3.08,3.08,0,0,1-.56,4.31l-9,6.93A3.06,3.06,0,0,1,95.84,145.24Z"/><path class="cls-10" d="M98.68,123.89a2.15,2.15,0,0,1,3.11.4l8.39,10.92a2.45,2.45,0,0,1,.35,2,2.27,2.27,0,0,1-.75,1.08l-10.3,8a2.21,2.21,0,0,1-1.55.48,2.24,2.24,0,0,1-1.57-.89,2.34,2.34,0,0,0,1.78.28,2.18,2.18,0,0,0,.92-0.52l10.19-7.88a2.11,2.11,0,0,0,.33-2.24l-8.15-10.74a2.16,2.16,0,0,0-.84-0.85A2.31,2.31,0,0,0,98.68,123.89Z"/><path class="cls-21" d="M99.55,111.9c-4.37-1.61-6.42-5.9-5.3-9.06a5.15,5.15,0,0,1,.94-1.62,0.63,0.63,0,0,1,1,.71,6.62,6.62,0,0,0-.71,2A7.72,7.72,0,0,0,99.55,111.9Z"/><path class="cls-21" d="M108.22,109.73c2.71-3.78,2-8.49-.7-10.48a5.15,5.15,0,0,0-1.69-.82,0.63,0.63,0,0,0-.45,1.17,6.62,6.62,0,0,1,1.7,1.24A7.72,7.72,0,0,1,108.22,109.73Z"/><path class="cls-22" d="M143.32,104.79L143,109.93l-1,16.51-56.45.18q-0.16-2.68-.32-5.37Q84.69,112,84,102.81a0.22,0.22,0,0,1,0-.08l0.06,0.05c5.54,4.9,10.36,6.78,14.18,7.37a24.56,24.56,0,0,0,2.78.24c7.41,0.24,11-2.76,22.43-6.7,5.3-1.82,8.3-2.47,11.79-2.49a29.23,29.23,0,0,1,6.17.63A6.87,6.87,0,0,1,143.32,104.79Z"/><path class="cls-17" d="M98.35,111l-3.67.05-10.1.12c-0.19-2.79-.37-5.58-0.56-8.37l0,0a10,10,0,0,1,13.68,5.5,9,9,0,0,1,.5,1.87A6.12,6.12,0,0,1,98.35,111Z"/><path class="cls-17" d="M110.58,110.86L98.35,111l-3.67.05a8.13,8.13,0,0,1,3.07-2.78,10.5,10.5,0,0,1,4.95-1.2A9.49,9.49,0,0,1,110.58,110.86Z"/><path class="cls-17" d="M143.32,104.17L143,109.31a7,7,0,1,1-8-9.8,6.49,6.49,0,0,1,1.6-.19,7,7,0,0,1,4.77,1.88A6.87,6.87,0,0,1,143.32,104.17Z"/><path class="cls-17" d="M133.13,104.1a2.92,2.92,0,0,1-1.56,2.37,8.17,8.17,0,0,1-4.4,1.15c-3.29,0-6-1.58-6-3.52,0-1.5,1.58-2.77,3.82-3.27a9.19,9.19,0,0,1,2.14-.24h0a8.85,8.85,0,0,1,2.53.35C131.74,101.5,133.13,102.71,133.13,104.1Z"/><path class="cls-11" d="M145.05,73.28c0.1-1.35.64-7.26,4.39-10.44,2.8-2.38,6.37-2.35,6.48-1.8s-2.82,1.3-5.85,4.3A22.93,22.93,0,0,0,145.05,73.28Z"/><polyline class="cls-23" points="127.17 110.66 110.58 110.86 98.36 111.02 94.69 111.06 84.58 111.19 82.25 111.22"/><ellipse class="cls-14" cx="111.33" cy="247.74" rx="4.5" ry="3.98" transform="translate(-147.09 164.16) rotate(-47.88)"/><ellipse class="cls-15" cx="112.4" cy="245.24" rx="1.93" ry="1.52" transform="translate(-95 72.72) rotate(-25.62)"/><ellipse class="cls-14" cx="123.21" cy="245" rx="4.42" ry="3.97" transform="translate(-141.15 172.07) rotate(-47.88)"/><ellipse class="cls-15" cx="124.23" cy="242.57" rx="1.93" ry="1.52" transform="translate(-92.68 77.57) rotate(-25.62)"/><path class="cls-24" d="M101.14,146.52a4.21,4.21,0,0,1-2.22.64c-1.62,0-4.48.34-6.11,2.49-2.48,3.28-.35,8.49,2.66,11,4.35,3.69,10.24,1.6,10.49,1.51a9.34,9.34,0,0,0,4-3.21c3-4.35,2.09-12-2.11-13.74C105.44,144.23,102.64,145.59,101.14,146.52Z"/><path class="cls-19" d="M103.4,149a3.55,3.55,0,0,1-4.15,1.31l-0.15-.06c-0.59-.23-1.8-0.84-1.73-1.34s1.44-.72,2.72-0.82a1.92,1.92,0,0,0,1-.34c0.9-.63,2.4-1.57,2.88-1.14s0,1.54-.39,2.16Z"/><path class="cls-21" d="M99.4,160.62c-4.57-1.68-6.72-6.18-5.55-9.49a5.39,5.39,0,0,1,1-1.7,0.66,0.66,0,0,1,1.08.75,6.93,6.93,0,0,0-.74,2.07A8.08,8.08,0,0,0,99.4,160.62Z"/><path class="cls-21" d="M108.48,158.35c2.84-4,2.09-8.89-.73-11a5.39,5.39,0,0,0-1.77-.85,0.66,0.66,0,0,0-.47,1.22,6.93,6.93,0,0,1,1.77,1.3A8.08,8.08,0,0,1,108.48,158.35Z"/><path class="cls-8" d="M120.3,176.43l-8.52-11.1a3.46,3.46,0,0,1,.62-4.83l10.4-8a3.43,3.43,0,0,1,4.82.62l8.52,11.1a3.46,3.46,0,0,1-.62,4.83l-10.4,8A3.43,3.43,0,0,1,120.3,176.43Z"/><path class="cls-25" d="M119.31,175.14l-7.67-10a3.22,3.22,0,0,1,.58-4.5l9.35-7.23a3.19,3.19,0,0,1,4.48.58l7.67,10a3.22,3.22,0,0,1-.58,4.5l-9.35,7.23A3.19,3.19,0,0,1,119.31,175.14Z"/><path class="cls-10" d="M122.27,152.86a2.24,2.24,0,0,1,3.25.42l8.75,11.4a2.56,2.56,0,0,1,.36,2.13,2.37,2.37,0,0,1-.78,1.13l-10.75,8.32a2.3,2.3,0,0,1-1.61.5,2.34,2.34,0,0,1-1.63-.92,2.44,2.44,0,0,0,1.86.3,2.27,2.27,0,0,0,1-.54l10.63-8.22a2.2,2.2,0,0,0,.34-2.34l-8.5-11.2a2.25,2.25,0,0,0-.88-0.88A2.41,2.41,0,0,0,122.27,152.86Z"/><path class="cls-7" d="M126.62,167.84c0.15-1.34.93-7.15,4.79-9.73,2.89-1.93,6.43-1.33,6.52-.76s-2.86.85-6,3.36A19.51,19.51,0,0,0,126.62,167.84Z"/><path class="cls-11" d="M126.58,167.6c-0.15-1.35-.72-7.26,2.38-11.08,2.32-2.86,5.83-3.49,6-3s-2.54,1.8-5,5.31A22.93,22.93,0,0,0,126.58,167.6Z"/><path class="cls-26" d="M121.68,174.4a4.21,4.21,0,0,1-2.22-.62c-1.38-.85-4-2.07-6.51-1.09-3.84,1.49-4.76,7-3.54,10.79,1.76,5.42,7.86,6.75,8.14,6.8a9.34,9.34,0,0,0,5.12-.61c4.83-2.13,8.09-9.12,5.43-12.8C126.53,174.71,123.44,174.39,121.68,174.4Z"/><path class="cls-19" d="M122.27,177.72a3.55,3.55,0,0,1-4.22-1.07l-0.1-.13c-0.38-.51-1.09-1.67-0.76-2s1.61,0.14,2.74.73a1.92,1.92,0,0,0,1,.22c1.09-.06,2.87-0.07,3.05.55s-0.84,1.29-1.46,1.64Z"/><path class="cls-21" d="M112.78,185.47c-3-3.83-2.47-8.79.26-11a5.39,5.39,0,0,1,1.73-.93,0.66,0.66,0,0,1,.52,1.2,6.93,6.93,0,0,0-1.72,1.37A8.08,8.08,0,0,0,112.78,185.47Z"/><path class="cls-21" d="M121.69,188.32c4.5-1.87,6.45-6.46,5.14-9.71a5.39,5.39,0,0,0-1.06-1.66,0.66,0.66,0,0,0-1,.79,6.93,6.93,0,0,1,.83,2A8.08,8.08,0,0,1,121.69,188.32Z"/><path class="cls-7" d="M94.16,225.39c1.31-.29,7-1.68,9.17-5.8,1.61-3.07.64-6.54,0.06-6.56s-0.54,2.94-2.7,6.32A19.51,19.51,0,0,1,94.16,225.39Z"/><path class="cls-11" d="M94.4,225.4c1.36,0,7.29-.06,10.76-3.55,2.59-2.61,2.85-6.16,2.31-6.32s-1.52,2.71-4.75,5.49A22.93,22.93,0,0,1,94.4,225.4Z"/><path class="cls-11" d="M111.81,234.64c-1.2-.63-6.51-3.29-11.19-1.78-3.5,1.13-5.36,4.17-4.95,4.56s2.59-1.71,6.74-2.7A22.93,22.93,0,0,1,111.81,234.64Z"/><path class="cls-27" d="M117.52,228.68a4.21,4.21,0,0,1,1.73,1.53c0.87,1.37,2.69,3.6,5.38,3.83,4.1,0.34,7.35-4.25,7.9-8.16,0.79-5.64-4.13-9.5-4.35-9.67a9.34,9.34,0,0,0-4.87-1.69c-5.27-.2-11.26,4.67-10.47,9.14C113.29,226.27,115.93,227.91,117.52,228.68Z"/><path class="cls-19" d="M118.43,225.43a3.55,3.55,0,0,1,3.33,2.81l0,0.16c0.12,0.63.25,2-.21,2.18s-1.39-.83-2.15-1.85a1.92,1.92,0,0,0-.79-0.63c-1-.42-2.61-1.19-2.51-1.83s1.32-.79,2-0.83h0.26Z"/><path class="cls-28" d="M130.36,222.6c1,4.76-1.62,9-5,9.77a5.39,5.39,0,0,1-2,.08,0.66,0.66,0,0,1,.06-1.31,6.93,6.93,0,0,0,2.14-.48A8.08,8.08,0,0,0,130.36,222.6Z"/><path class="cls-28" d="M123.58,216.15c-4.86-.28-8.62,3-8.87,6.49a5.39,5.39,0,0,0,.23,2,0.66,0.66,0,0,0,1.28-.26,6.93,6.93,0,0,1,.14-2.19A8.08,8.08,0,0,1,123.58,216.15Z"/><path class="cls-29" d="M142.11,126.44q-1.17,18.36-2.35,36.74l-4.82,75.17-0.25,3.91a10.76,10.76,0,0,1-4.17,7.88,28.8,28.8,0,0,1-12.44,5.47,26.26,26.26,0,0,1-5,.39,27.89,27.89,0,0,1-15.88-5.38,11.73,11.73,0,0,1-4.81-8.9L85.69,126.44h56.42Z"/><path class="cls-30" d="M82.81,80.34c5,90,8.87,155.84,9.52,161.55a13.13,13.13,0,0,0,1.93,5.75c1.76,2.74,4.07,4,6.44,5.31a27,27,0,0,0,8.59,2.89c0.42,0.07.85,0.13,1.3,0.18a23.19,23.19,0,0,1-10.14-10.44,22.34,22.34,0,0,1-1.94-6.71c-0.12-1-.15-1.72-0.16-1.93C98.21,233.65,95,169.59,90.4,79.76Z"/><path class="cls-31" d="M144.36,80l-4.88,83-4.65,78.51a13.59,13.59,0,0,1-1.8,5.75c-1.63,2.74-3.78,4-6,5.31a23.92,23.92,0,0,1-8,2.89c-0.39.07-.79,0.13-1.21,0.18a22.39,22.39,0,0,0,9.42-10.44,23.67,23.67,0,0,0,1.8-6.71c0.12-1,.14-1.72.15-1.93,0.13-3.29,3.14-67.35,7.38-157.18Z"/><ellipse class="cls-32" cx="101.52" cy="213.04" rx="1.96" ry="1.91" transform="translate(-133.24 237.19) rotate(-70.4)"/><ellipse class="cls-33" cx="100.39" cy="234.16" rx="2.84" ry="2.77" transform="translate(-153.88 250.16) rotate(-70.4)"/><ellipse class="cls-34" cx="96.08" cy="223.35" rx="3.21" ry="3.12" transform="translate(-146.56 238.92) rotate(-70.4)"/><ellipse class="cls-35" cx="99.34" cy="205.8" rx="1.51" ry="1.47" transform="translate(-127.86 230.33) rotate(-70.4)"/><ellipse class="cls-36" cx="136.85" cy="145.91" rx="1.96" ry="1.91" transform="matrix(0.34, -0.94, 0.94, 0.34, -46.51, 225.87)"/><ellipse class="cls-37" cx="130.5" cy="154.46" rx="3.21" ry="3.12" transform="translate(-58.8 225.57) rotate(-70.4)"/><ellipse class="cls-38" cx="133.75" cy="136.91" rx="1.51" ry="1.47" transform="translate(-40.1 216.98) rotate(-70.4)"/><ellipse class="cls-39" cx="107.68" cy="243.92" rx="1.38" ry="1.35" transform="translate(-158.23 263.52) rotate(-70.4)"/><ellipse class="cls-40" cx="106.14" cy="238.82" rx="1.06" ry="1.04" transform="translate(-154.44 258.68) rotate(-70.4)"/><ellipse class="cls-41" cx="117.55" cy="58.79" rx="3.47" ry="3.41" transform="translate(22.73 149.79) rotate(-70.4)"/><ellipse class="cls-42" cx="102.86" cy="66.11" rx="5.03" ry="4.93" transform="translate(6.07 140.82) rotate(-70.4)"/><ellipse class="cls-43" cx="111.98" cy="81.03" rx="5.68" ry="5.56" transform="translate(-1.93 159.33) rotate(-70.4)"/><ellipse class="cls-44" cx="109.27" cy="46.77" rx="1.93" ry="1.89" transform="translate(28.55 134.02) rotate(-70.4)"/><path class="cls-45" d="M89.32,110.88a2.71,2.71,0,0,1,.05-3.72,2.47,2.47,0,0,1,3.48-.15l0.1,0.1a2.71,2.71,0,0,1-.05,3.72,2.47,2.47,0,0,1-3.48.15Z"/><circle class="cls-46" cx="104.62" cy="110.65" r="1.69"/><circle class="cls-47" cx="95.56" cy="112.26" r="0.85"/><circle class="cls-48" cx="98.16" cy="110.22" r="0.85"/><path class="cls-49" d="M135.1,105.64a2.71,2.71,0,0,1,.05-3.72,2.47,2.47,0,0,1,3.48-.15l0.1,0.1a2.71,2.71,0,0,1-.05,3.72,2.47,2.47,0,0,1-3.48.15Z"/><circle class="cls-50" cx="137.33" cy="117.65" r="1.69"/><circle class="cls-51" cx="128.27" cy="119.25" r="0.85"/><circle class="cls-52" cx="130.87" cy="117.21" r="0.85"/></svg>