<svg id="Layer_1" data-name="Layer 1" xmlns="http://www.w3.org/2000/svg" xmlns:xlink="http://www.w3.org/1999/xlink" viewBox="0 0 230.86 332.94"><defs><style>.cls-1{fill:#ea968b;}.cls-12,.cls-2{fill:#f8d2cd;}.cls-3{fill:#fac4c0;}.cls-4{fill:#e49025;}.cls-5{fill:#f5a31e;}.cls-6{fill:#faf5ae;}.cls-7{fill:#f8b355;}.cls-8{fill:#f8c184;}.cls-9{fill:url(#linear-gradient);}.cls-10{fill:url(#linear-gradient-2);}.cls-11{fill:#fff5ac;}.cls-12{opacity:0.37;}.cls-13{fill:url(#linear-gradient-3);}.cls-14{fill:url(#linear-gradient-4);}.cls-15{fill:#991b1f;}.cls-15,.cls-16{opacity:0.57;}.cls-16{fill:#7e1416;}.cls-17{fill:#e99459;opacity:0.81;}.cls-18,.cls-21{fill:#fde1e0;}.cls-19{fill:#fff2ea;opacity:0.38;}.cls-20{fill:#f9c662;opacity:0.48;}.cls-21{opacity:0.26;}.cls-22{fill:url(#linear-gradient-5);}</style><linearGradient id="linear-gradient" x1="148.36" y1="104.82" x2="148.36" y2="122" gradientUnits="userSpaceOnUse"><stop offset="0" stop-color="#e48125"/><stop offset="0.51" stop-color="#f6a31d"/><stop offset="0.82" stop-color="#f6a71c"/></linearGradient><linearGradient id="linear-gradient-2" x1="174.49" y1="136.39" x2="177.83" y2="122.71" gradientUnits="userSpaceOnUse"><stop offset="0" stop-color="#e48125"/><stop offset="0.25" stop-color="#f6a31d"/><stop offset="0.45" stop-color="#f6a71c"/><stop offset="1" stop-color="#f4e07d"/></linearGradient><linearGradient id="linear-gradient-3" x1="100.97" y1="131.99" x2="100.97" y2="122.93" gradientUnits="userSpaceOnUse"><stop offset="0" stop-color="#e2475c"/><stop offset="0.35" stop-color="#d56a7a"/><stop offset="1" stop-color="#cb7d92"/></linearGradient><linearGradient id="linear-gradient-4" x1="116.24" y1="175.58" x2="116.24" y2="119.58" gradientUnits="userSpaceOnUse"><stop offset="0" stop-color="#eb995b"/><stop offset="0.3" stop-color="#d76046"/><stop offset="0.52" stop-color="#d14240"/><stop offset="0.73" stop-color="#d7444b"/><stop offset="0.89" stop-color="#e2475c"/><stop offset="1" stop-color="#cb7d92"/></linearGradient><linearGradient id="linear-gradient-5" x1="155.1" y1="111.39" x2="174.48" y2="138.24" gradientUnits="userSpaceOnUse"><stop offset="0" stop-color="#e48125"/><stop offset="0.34" stop-color="#f6a31d"/><stop offset="0.75" stop-color="#f6a71c"/><stop offset="1" stop-color="#f4e07d"/></linearGradient></defs><title>icons</title><ellipse class="cls-1" cx="113.09" cy="255.83" rx="39.85" ry="6.51"/><path class="cls-2" d="M112.67,248.3v6.88h-1.36c-15.14,0-27.69-1.27-30-2.91a0.81,0.81,0,0,1-.36-0.45,0.31,0.31,0,0,1,0-.09c0-.75,2.08-1.44,5.62-2q1.47-.23,3.26-0.43h0.08l0.4,0a206.2,206.2,0,0,1,21-1h1.36Z"/><path class="cls-2" d="M112.67,177v74.35l-18.76,0H82.08a30.53,30.53,0,0,1,4.79-1.5l0.52-.11c0.57-.12,1.42-0.27,2.47-0.46h0.08l0.16,0,0.24,0,2.92-.5a31.37,31.37,0,0,0,8-2.34h0c0.39-.19.77-0.39,1.14-0.6a12.42,12.42,0,0,0,3.59-3,10.11,10.11,0,0,0,1.25-2,11.6,11.6,0,0,0,.9-3.76c0.53-9.65.4-25.43,0.4-25.43-0.06-15.15-.56-26.29-1.08-28.91a10.3,10.3,0,0,0-1.36-3.37l0-.07a9,9,0,0,0-.74-0.93l-1-1.29Z"/><path class="cls-2" d="M112.67,110v67l-8.34,0L91.2,160.21,56,113.67a1.79,1.79,0,0,1,1.36-2.87Q81.9,110,107.64,110h5Z"/><path class="cls-2" d="M144.35,251.74a0.31,0.31,0,0,1,0,.09,0.81,0.81,0,0,1-.36.45c-2.26,1.64-14.82,2.91-30,2.91h-1.36V248.3H114c6.36,0,12.26.22,17.13,0.6,1.52,0.12,2.93.25,4.23,0.4h0.08a55,55,0,0,1,5.51.85C143.14,250.63,144.35,251.17,144.35,251.74Z"/><path class="cls-2" d="M143.25,251.37h-6.88l-16.06,0h-7.64V177l8.34,0-1,1.29a9,9,0,0,0-.74.93l0,0.07a10.3,10.3,0,0,0-1.36,3.37c-0.52,2.62-1,13.76-1.08,28.91,0,0-.13,15.77.4,25.43a11.6,11.6,0,0,0,.9,3.76,10.11,10.11,0,0,0,1.25,2c3.2,4,9,5.26,12.32,5.89l0.4,0.08,3.16,0.55,0.16,0h0.08c1.05,0.19,1.91.34,2.47,0.46s1.47,0.31,2.4.6A29.23,29.23,0,0,1,143.25,251.37Z"/><path class="cls-3" d="M115.1,255h-2.44v2.66H114c16.75,0,30.33-1.88,30.33-4.19v-1.71l-1.47.31h0c-2.94.59-6.42,1.2-10.36,1.72A146.67,146.67,0,0,1,115.1,255Z"/><path class="cls-2" d="M112.67,110v67l8.34,0,13.12-16.77,35.08-46.41a1.87,1.87,0,0,0-1.43-3Q143.35,110,117.69,110h-5Z"/><path class="cls-4" d="M161.18,91.46a24.72,24.72,0,0,0-25,11l0.62,0.4,1.8,1.13,37.09,23.29,2,1.25,0.32,0.2a24.23,24.23,0,0,0,3.31-8.72A24.68,24.68,0,0,0,161.18,91.46Z"/><path class="cls-5" d="M181,119.77a24,24,0,0,1-3.34,8.71l-2-1.25-37.09-23.29-1.8-1.13A24.15,24.15,0,0,1,181,119.77Z"/><path class="cls-6" d="M178.81,118.06l-0.09.21s0,0-.05.08a1.9,1.9,0,0,1-.08.22c0,0.05-.08.07-0.11,0.13a0.67,0.67,0,0,1-.07.23,0.43,0.43,0,0,0-.17.24l-0.35,2a1.62,1.62,0,0,0-.08.56,0.76,0.76,0,0,1,.09.29,1.81,1.81,0,0,1,0,.22l0,0.27c0,0.16,0,.09-0.15.17a1.15,1.15,0,0,0-.27.48,2.93,2.93,0,0,0-.19.63,3.23,3.23,0,0,1-.33,1,2.57,2.57,0,0,1-.41.79,0.46,0.46,0,0,0-.16.23c0,0.09-.09.16-0.12,0.25a1.82,1.82,0,0,1,0,.22c0,0.07-.07.09-0.1,0.18a1.24,1.24,0,0,1-.05.26,1.56,1.56,0,0,1-.14.13,1.53,1.53,0,0,0-.14.34l-37.09-23.29,0.14-.19c0.12-.15.25-0.27,0.37-0.41s0.16-.24.24-0.35,0.1-.1.14-0.15,0.09-.24.15-0.33a4.34,4.34,0,0,1,.53-0.42,3,3,0,0,1,.46-0.29,0.56,0.56,0,0,0,.23-0.39,2.2,2.2,0,0,1,.24-0.28c0.09-.14.13-0.29,0.21-0.43a4.39,4.39,0,0,1,.46-0.63,2.47,2.47,0,0,1,.34-0.44s0.16-.14.18-0.14a1.44,1.44,0,0,1,.28,0l0.05-.13,0.21,0a3.8,3.8,0,0,1,.18-0.56,3.69,3.69,0,0,1,.34-0.51s0.11,0,.14-0.06a1.32,1.32,0,0,0,.09-0.17,1,1,0,0,1,.5-0.38c0.21-.08.45-0.09,0.66-0.15a1.68,1.68,0,0,1,.17-0.44l0.21-.35a2.75,2.75,0,0,1,.55-0.57,2.65,2.65,0,0,1,1-.46,1.46,1.46,0,0,0,.45-0.07,2.68,2.68,0,0,1,.29-0.14,0.57,0.57,0,0,0,.18,0,0.54,0.54,0,0,1,.3-0.12,1.42,1.42,0,0,0,.43-0.08,1.68,1.68,0,0,0,.45-0.32,2.59,2.59,0,0,1,.48-0.28,3.41,3.41,0,0,1,.55-0.22,1.64,1.64,0,0,1,.78,0,2.25,2.25,0,0,0,.75.07,3.51,3.51,0,0,0,.58-0.13,1.19,1.19,0,0,0,.31-0.12s0-.11.07-0.13a0.25,0.25,0,0,1,.14,0,3.77,3.77,0,0,1,.55,0,2.56,2.56,0,0,0,.56,0,4,4,0,0,1,.47,0,2.81,2.81,0,0,0,.84-0.32,2.35,2.35,0,0,1,.77.09,1.8,1.8,0,0,0,.42-0.16,5.66,5.66,0,0,0,.53-0.27,0.3,0.3,0,0,1,.28-0.07c0.21,0,.19.08,0.23,0.26a0.63,0.63,0,0,0,.66.36,2.34,2.34,0,0,0,.77.06,3.53,3.53,0,0,1,.39-0.07c0.23,0,1.71-.45,1.72,0l1.95,0.34a2.66,2.66,0,0,1,.6.11,1.2,1.2,0,0,1,.29.3,1.42,1.42,0,0,0,.33.27,5,5,0,0,0,1,.48,1.83,1.83,0,0,0,.44.16l0.61,0.11a2.07,2.07,0,0,1,1,.32,1.77,1.77,0,0,1,.32.28,5.78,5.78,0,0,1,.51.43,0.87,0.87,0,0,0,.35.25l0.13,0.11a0.54,0.54,0,0,0,.06.1,0.5,0.5,0,0,0,.16,0,1.57,1.57,0,0,0,.17.11,3.34,3.34,0,0,0,.43.08,0.87,0.87,0,0,1,.2.12c0.1,0,.23,0,0.32,0a1.51,1.51,0,0,1,.17.17l0.25,0.2,0.09,0s0.07,0.11.11,0.14,0.36,0.14.33,0.39a0.57,0.57,0,0,1,.32.31,2.75,2.75,0,0,1,.32.41,1.2,1.2,0,0,0,.61.57,3.5,3.5,0,0,0,.83.4,1.32,1.32,0,0,1,.71.43,0.47,0.47,0,0,1,.08.31,1.32,1.32,0,0,0,.07.17,0.16,0.16,0,0,1,.11.12,0.19,0.19,0,0,0,0,.07,4.19,4.19,0,0,0,.36.55c0.12,0.17.27,0.34,0.38,0.53a1.28,1.28,0,0,0,.62.57,0.26,0.26,0,0,0,0,.13c0.09,0,.11.1,0.19,0.13s0.14,0,.22.11a0.94,0.94,0,0,1,0,.54,1.8,1.8,0,0,0,.32.77,3.55,3.55,0,0,0,.53.75,1.11,1.11,0,0,1,.27.16s0.06,0.13.11,0.17a0.78,0.78,0,0,0,.24.11,0.55,0.55,0,0,1,.36.56,2.36,2.36,0,0,1,.17.42,1.34,1.34,0,0,0,0,.19s0.07,0.09.09,0.13,0,0.15.05,0.2,0.09,0.12.14,0.21a1,1,0,0,1,0,.44,1.06,1.06,0,0,0,.17.41,2.37,2.37,0,0,1,.33.39,1.69,1.69,0,0,1,.07.45c0,0.09,0,.17-0.06.27a0.75,0.75,0,0,0,0,.16c0,0.19.1,0.36,0.13,0.56a0.56,0.56,0,0,0,.11.33,1.39,1.39,0,0,1,.25.32,4.63,4.63,0,0,1,.19.66,2.68,2.68,0,0,1,.19.47,3.68,3.68,0,0,1-.1.55,2.09,2.09,0,0,0,0,1,1,1,0,0,1,.11.35,3.05,3.05,0,0,1,0,.51l-0.18,1a2.13,2.13,0,0,0-.07.49,2.22,2.22,0,0,1,0,.24s0,0.08,0,.11a0.43,0.43,0,0,0,.11.12,1.63,1.63,0,0,1,.09,1A1.78,1.78,0,0,1,178.81,118.06Z"/><path class="cls-7" d="M153.35,96.72a1,1,0,0,1,.71-1.14,15.87,15.87,0,0,1,12.44,2.17,1,1,0,0,1,.28,1.28l-9,14.85a0.34,0.34,0,0,1-.62-0.1Z"/><path class="cls-7" d="M175.83,111.71a1,1,0,0,1,1.14.71,15.79,15.79,0,0,1-2.17,12.42,1,1,0,0,1-1.28.28l-14.88-9a0.34,0.34,0,0,1,.1-0.62Z"/><path class="cls-7" d="M167.61,99.57a1,1,0,0,1,1.31-.3,15.82,15.82,0,0,1,7.27,10.32,1,1,0,0,1-.71,1.1l-16.88,4.15a0.34,0.34,0,0,1-.37-0.51Z"/><path class="cls-7" d="M141.24,104.91a1,1,0,0,1-.3-1.31,15.83,15.83,0,0,1,10.33-7.25,1,1,0,0,1,1.11.71l4.17,16.85a0.34,0.34,0,0,1-.51.37Z"/><path class="cls-6" d="M153.09,110.84c0.06,0.77,1,1.62,2.33,2.17a0.17,0.17,0,0,0,.24-0.17c0-1.46-.52-2.62-1.23-2.94A0.88,0.88,0,0,0,153.09,110.84Z"/><path class="cls-6" d="M162.37,112.74c-0.31.71-1.47,1.19-2.93,1.26a0.17,0.17,0,0,1-.17-0.24c0.53-1.36,1.37-2.3,2.14-2.36A0.88,0.88,0,0,1,162.37,112.74Z"/><path class="cls-8" d="M159.3,100.21a23.63,23.63,0,0,0-.42,7.48c0,0.28.13,0.3,0.21,0a22.64,22.64,0,0,0,1.4-7.26c0-.11-0.09-1.41-0.44-1.47S159.34,100.08,159.3,100.21Z"/><path class="cls-8" d="M156,98.55a22.21,22.21,0,0,0,1.05,6.4c0.07,0.23.15,0.22,0.17,0a22.11,22.11,0,0,0-.27-6.48c0-.09-0.33-1.16-0.6-1.11A2,2,0,0,0,156,98.55Z"/><path class="cls-8" d="M163,98.82a15.47,15.47,0,0,0-1.48,5.19c0,0.2,0,.25.15,0.1a14.05,14.05,0,0,0,2.17-4.75,1.83,1.83,0,0,0-.1-1.17C163.5,98,163,98.74,163,98.82Z"/><path class="cls-8" d="M170.25,106a23.63,23.63,0,0,0-6,4.43c-0.2.19-.15,0.29,0.1,0.19a22.64,22.64,0,0,0,6.49-3.53c0.08-.08,1-1,0.85-1.27S170.37,106,170.25,106Z"/><path class="cls-8" d="M168.47,102.85a22.21,22.21,0,0,0-4.27,4.87c-0.13.19-.07,0.26,0.12,0.12a22.11,22.11,0,0,0,4.84-4.32c0.06-.08.69-1,0.47-1.17A2,2,0,0,0,168.47,102.85Z"/><path class="cls-8" d="M172.69,108.39a15.47,15.47,0,0,0-5,2.16c-0.17.11-.16,0.2,0,0.18a14.05,14.05,0,0,0,5-1.34,1.83,1.83,0,0,0,.84-0.82C173.6,108.29,172.78,108.38,172.69,108.39Z"/><path class="cls-8" d="M148.78,102.58a23.63,23.63,0,0,1,3.75,6.49c0.11,0.26,0,.33-0.17.14a22.64,22.64,0,0,1-4.52-5.85c0-.1-0.56-1.3-0.27-1.51S148.69,102.49,148.78,102.58Z"/><path class="cls-8" d="M151,99.63a22.21,22.21,0,0,1,1.95,6.18c0,0.23,0,.26-0.16.06a22.11,22.11,0,0,1-2.68-5.9c0-.09-0.23-1.18,0-1.26A2,2,0,0,1,151,99.63Z"/><path class="cls-8" d="M144.85,103a15.47,15.47,0,0,1,3.67,4c0.12,0.17.07,0.25-.09,0.15a14.05,14.05,0,0,1-4.08-3.26,1.83,1.83,0,0,1-.44-1.09C144.06,102.54,144.78,103,144.85,103Z"/><path class="cls-8" d="M173.46,118.5a23.63,23.63,0,0,1-7.29-1.75c-0.26-.1-0.25-0.21,0-0.22a22.64,22.64,0,0,1,7.35.75c0.11,0,1.32.49,1.28,0.85S173.59,118.5,173.46,118.5Z"/><path class="cls-8" d="M173,122.1a22.21,22.21,0,0,1-5.82-2.85c-0.2-.13-0.16-0.21.07-0.16a22.11,22.11,0,0,1,6.13,2.12c0.08,0.05,1,.64.89,0.9A2,2,0,0,1,173,122.1Z"/><path class="cls-8" d="M174.79,115.36a15.47,15.47,0,0,1-5.4-.07c-0.2,0-.23-0.12-0.05-0.17a14.05,14.05,0,0,1,5.17-.71,1.83,1.83,0,0,1,1.1.43C175.67,115.1,174.88,115.33,174.79,115.36Z"/><path class="cls-9" d="M142,121.86L154.24,122a14.6,14.6,0,0,1-.13-5,14.34,14.34,0,0,1,.65-2.61c-0.54-5.47-2.07-9.3-4-9.52a2.79,2.79,0,0,0-1.47.38,9.42,9.42,0,0,0-4.29,4.7A34,34,0,0,0,142,121.86Z"/><path class="cls-10" d="M176,139.18a12.93,12.93,0,0,0,4.24-7.75c0.2-1.45.66-4.82-1.5-7.33a7,7,0,0,0-3.59-2.16,13.31,13.31,0,0,1-.69,7.57,12.71,12.71,0,0,1-4.17,5.41,12.14,12.14,0,0,0,2.73,2.71A11.75,11.75,0,0,0,176,139.18Z"/><path class="cls-11" d="M142.92,115.65c0.54-2.2,2.15-7.78,6-10.37a2.24,2.24,0,0,1,1.56-.54c3.54,0.36,5.15,12.19,5,12.22s-0.25-1-1.15-3.4a22.87,22.87,0,0,0-1.23-2.91c-0.87-1.61-1.68-3.11-2.94-3.37-1.71-.35-3.41,1.77-4.55,3.17A15.19,15.19,0,0,0,142.92,115.65Z"/><path class="cls-12" d="M112.67,110v67l8.34,0,13.12-16.77,35.08-46.41a1.87,1.87,0,0,0-1.43-3Q143.35,110,117.69,110h-5Z"/><path class="cls-13" d="M127.74,122.93c-0.63.39-1.56,1-2.7,1.59-9.77,5.37-18.73,6.39-24.85,7a85.47,85.47,0,0,1-25.75-1.28,0.3,0.3,0,0,1-.2-0.45,12.15,12.15,0,0,1,2.8-3.24c5.87-4.71,14.71-2.21,20.36-1.21C104.21,126.57,114.27,127,127.74,122.93Z"/><path class="cls-14" d="M158.23,120.9c-12.55,17.89-23.51,32.14-30.68,41.34h0c-3.41,4.37-5.95,7.6-7.39,9.55a9.58,9.58,0,0,1-7,3.78,9.8,9.8,0,0,1-7.93-3.76l-3.4-4.53q-8.68-11.42-17.38-23.19-5.17-7-10.22-13.94a70,70,0,0,0,20.86,1.53c22-1.77,32.9-13.62,55.12-11.94A59.77,59.77,0,0,1,158.23,120.9Z"/><ellipse class="cls-15" cx="118.3" cy="164.17" rx="2.74" ry="3.75" transform="translate(-82.82 141.8) rotate(-47.88)"/><ellipse class="cls-16" cx="116.4" cy="162.91" rx="1.19" ry="1.5" transform="translate(-59 66.35) rotate(-25.62)"/><ellipse class="cls-15" cx="108.35" cy="167.36" rx="2.74" ry="3.75" transform="translate(-88.46 135.48) rotate(-47.88)"/><ellipse class="cls-16" cx="106.45" cy="166.1" rx="1.19" ry="1.5" transform="translate(-61.36 62.37) rotate(-25.62)"/><path class="cls-17" d="M127.55,162.24c-3.41,4.37-5.95,7.6-7.39,9.55a9.58,9.58,0,0,1-7,3.78,9.8,9.8,0,0,1-7.93-3.76l-3.4-4.53c4.05,2.26,7,2.31,9.05,1.92,6.88-1.36,10.25-9.6,14.5-8.47A4.18,4.18,0,0,1,127.55,162.24Z"/><path class="cls-3" d="M141,250.15l-0.64.21c-1.22.38-2.62,0.71-4,1-1.72.36-3.33,0.63-4.36,0.81a96.55,96.55,0,0,1-19.34,1.29c-3.32-.1-6.89-0.35-10.73-0.83q5.93-.23,10.73-0.58,4.27-.31,7.64-0.73,7.77-.94,10.85-2.43a5.26,5.26,0,0,0,.5-0.26l0.4,0.08,3.16,0.55,0.16,0h0.08A55,55,0,0,1,141,250.15Z"/><path class="cls-3" d="M110.23,255h2.44v2.66h-1.35c-16.75,0-30.33-1.88-30.33-4.19v-1.71L82.47,252h0c2.94,0.59,6.42,1.2,10.36,1.72A146.67,146.67,0,0,0,110.23,255Z"/><path class="cls-18" d="M108.27,177.29a6,6,0,0,0,4.2,2.14,6.16,6.16,0,0,0,4.85-2.14,16.86,16.86,0,0,0-2.3,7c-1,10-.23,46-0.14,50.14,0,0,0,.18,0,0.37a27.06,27.06,0,0,0,.4,4,15.51,15.51,0,0,0,1.22,3.94,12.24,12.24,0,0,0,2.83,3.74,1,1,0,0,1-.43,1.75,24.21,24.21,0,0,1-12.73-.08,0.93,0.93,0,0,1-.31-1.65,11.1,11.1,0,0,0,3.2-3.7,11.69,11.69,0,0,0,1.22-4.59c0.71-6.47.41-23.9,0.41-23.9-0.13-7.46.26-25.89-.41-30.39a26.28,26.28,0,0,0-.68-3.11Z"/><path class="cls-19" d="M60.48,110.74q10.79,15.34,22.31,31,11.38,15.48,22.67,30.19l-27.4-61.65Z"/><ellipse class="cls-15" cx="114.68" cy="169.44" rx="3.75" ry="2.74" transform="translate(-87.91 140.86) rotate(-47.88)"/><ellipse class="cls-16" cx="115.94" cy="167.54" rx="1.5" ry="1.19" transform="translate(-61.05 66.61) rotate(-25.62)"/><path class="cls-20" d="M165.49,110.72q-10.7,15.3-22.31,31-11.43,15.46-22.76,30l36.27-61.23Z"/><path class="cls-21" d="M156.69,110.48l-37,62.3L139.12,110Z"/><path class="cls-22" d="M150.2,104.81c1.88,0.13,3.92.35,6.1,0.72a62.64,62.64,0,0,1,6.44,1.44,4.16,4.16,0,0,1,1.46,1.22,4.94,4.94,0,0,1,.87,2.79c0.1,2.52.77,11.47,2.38,17.18,1.4,5,3.45,7.23,3.95,7.76a14.64,14.64,0,0,0,4.58,3.26,16.88,16.88,0,0,1-6.5.73,13.18,13.18,0,0,1-5.86-1.61c-2-1.24-3.12-3.19-6.31-14.62-1.72-6.15-1.83-7.15-2.93-10.06A58.44,58.44,0,0,0,150.2,104.81Z"/></svg>