<svg id="Layer_1" data-name="Layer 1" xmlns="http://www.w3.org/2000/svg" xmlns:xlink="http://www.w3.org/1999/xlink" viewBox="0 0 230.86 332.94"><defs><style>.cls-1{fill:#e064a5;opacity:0.49;}.cls-2,.cls-7{fill:#fdeef4;}.cls-3{fill:#85a544;}.cls-4{fill:#8ead3e;}.cls-5{fill:#faf5ae;}.cls-6{fill:#abd037;}.cls-7{opacity:0.71;}.cls-8{fill:#b7d33f;}.cls-9{fill:#d4e05b;}.cls-10{fill:#c6db51;}.cls-11{fill:url(#linear-gradient);}.cls-12{fill:#e6dbd1;}.cls-13{fill:#cbb6ae;}.cls-13,.cls-41{opacity:0.61;}.cls-14,.cls-15{fill:#5b3b3c;}.cls-15{opacity:0.28;}.cls-16{fill:#eacad7;}.cls-17{fill:#efd8e2;}.cls-18,.cls-30{fill:#f5d2e4;}.cls-18,.cls-19,.cls-60,.cls-61{opacity:0.67;}.cls-19,.cls-31{fill:#cd427a;}.cls-20{fill:#5a914d;}.cls-21,.cls-26,.cls-28,.cls-44,.cls-47,.cls-52{opacity:0.45;}.cls-21{fill:url(#linear-gradient-2);}.cls-22,.cls-27,.cls-29,.cls-45,.cls-48,.cls-53,.cls-63,.cls-64,.cls-65,.cls-66{opacity:0.76;}.cls-22{fill:url(#linear-gradient-3);}.cls-23{fill:#486d38;}.cls-24,.cls-38,.cls-40,.cls-41,.cls-51,.cls-56,.cls-58,.cls-59,.cls-62{fill:#fff;}.cls-24{opacity:0.66;}.cls-25{fill:#578949;}.cls-26{fill:url(#linear-gradient-4);}.cls-27{fill:url(#linear-gradient-5);}.cls-28{fill:url(#linear-gradient-6);}.cls-29{fill:url(#linear-gradient-7);}.cls-32{fill:#dabac9;}.cls-33,.cls-34,.cls-35,.cls-36,.cls-37,.cls-46{opacity:0.39;}.cls-33{fill:url(#radial-gradient);}.cls-34{fill:url(#radial-gradient-2);}.cls-35{fill:url(#radial-gradient-3);}.cls-36{fill:url(#radial-gradient-4);}.cls-37{fill:url(#radial-gradient-5);}.cls-38{opacity:0.48;}.cls-39{opacity:0.85;fill:url(#linear-gradient-8);}.cls-42,.cls-43{opacity:0.95;}.cls-42{fill:url(#linear-gradient-9);}.cls-43{fill:url(#linear-gradient-10);}.cls-44{fill:url(#linear-gradient-11);}.cls-45{fill:url(#linear-gradient-12);}.cls-46{fill:url(#radial-gradient-6);}.cls-47{fill:url(#linear-gradient-13);}.cls-48{fill:url(#linear-gradient-14);}.cls-49{fill:none;}.cls-50{opacity:0.44;fill:url(#linear-gradient-15);}.cls-51{opacity:0.46;}.cls-52{fill:url(#linear-gradient-16);}.cls-53{fill:url(#linear-gradient-17);}.cls-54{opacity:0.56;fill:url(#linear-gradient-18);}.cls-55{opacity:0.9;fill:url(#linear-gradient-19);}.cls-56{opacity:0.16;}.cls-57{opacity:0.31;fill:url(#linear-gradient-20);}.cls-58{opacity:0.21;}.cls-59{opacity:0.32;}.cls-60{fill:url(#linear-gradient-21);}.cls-61{fill:url(#linear-gradient-22);}.cls-62{opacity:0.53;}.cls-63{fill:url(#radial-gradient-7);}.cls-64{fill:url(#radial-gradient-8);}.cls-65{fill:url(#radial-gradient-9);}.cls-66{fill:url(#radial-gradient-10);}</style><linearGradient id="linear-gradient" x1="112.48" y1="260.06" x2="112.48" y2="103.99" gradientUnits="userSpaceOnUse"><stop offset="0" stop-color="#aa467f"/><stop offset="0.18" stop-color="#e064a5"/><stop offset="0.86" stop-color="#eeccd7"/></linearGradient><linearGradient id="linear-gradient-2" x1="262.13" y1="557" x2="271.81" y2="557" gradientTransform="matrix(0.7, -0.71, -0.71, -0.7, 330.87, 813.96)" gradientUnits="userSpaceOnUse"><stop offset="0.56" stop-color="#376230"/><stop offset="0.97" stop-color="#5a914d"/></linearGradient><linearGradient id="linear-gradient-3" x1="262.06" y1="549.58" x2="263.65" y2="564.88" gradientTransform="matrix(0.7, -0.71, -0.71, -0.7, 330.87, 813.96)" gradientUnits="userSpaceOnUse"><stop offset="0.08" stop-color="#639b41"/><stop offset="1" stop-color="#5a914d"/></linearGradient><linearGradient id="linear-gradient-4" x1="-293.16" y1="1586.45" x2="-278.06" y2="1586.45" gradientTransform="matrix(0.85, 0.53, 0.53, -0.85, -501.41, 1742.07)" gradientUnits="userSpaceOnUse"><stop offset="0.21" stop-color="#578949"/><stop offset="1" stop-color="#376230"/></linearGradient><linearGradient id="linear-gradient-5" x1="-292.19" y1="1588.79" x2="-277.18" y2="1588.79" gradientTransform="matrix(0.85, 0.53, 0.53, -0.85, -501.41, 1742.07)" gradientUnits="userSpaceOnUse"><stop offset="0.24" stop-color="#578949"/><stop offset="1" stop-color="#639b41"/></linearGradient><linearGradient id="linear-gradient-6" x1="-273.65" y1="1596.09" x2="-264.79" y2="1596.09" gradientTransform="matrix(0.85, 0.53, 0.53, -0.85, -501.41, 1742.07)" xlink:href="#linear-gradient-2"/><linearGradient id="linear-gradient-7" x1="-273.7" y1="1589.31" x2="-272.25" y2="1603.29" gradientTransform="matrix(0.85, 0.53, 0.53, -0.85, -501.41, 1742.07)" xlink:href="#linear-gradient-3"/><radialGradient id="radial-gradient" cx="-230.18" cy="1559.89" r="2.72" gradientTransform="translate(358.44 -1335.37)" gradientUnits="userSpaceOnUse"><stop offset="0.67" stop-color="#f9e4b4"/><stop offset="1" stop-color="#fbf7f0"/></radialGradient><radialGradient id="radial-gradient-2" cx="-1515.55" cy="1957.54" r="2.16" gradientTransform="matrix(-1, 0, 0, 1, -1389.65, -1709.37)" xlink:href="#radial-gradient"/><radialGradient id="radial-gradient-3" cx="-1583.79" cy="2001.97" r="3.13" gradientTransform="matrix(-0.9, 0, 0, 0.91, -1302.99, -1583.26)" xlink:href="#radial-gradient"/><radialGradient id="radial-gradient-4" cx="-227.8" cy="1559.55" r="1.43" gradientTransform="translate(357.75 -1336.73)" xlink:href="#radial-gradient"/><radialGradient id="radial-gradient-5" cx="-1581.39" cy="2000.23" r="1.66" gradientTransform="matrix(-0.9, 0, 0, 0.91, -1303.04, -1580.18)" xlink:href="#radial-gradient"/><linearGradient id="linear-gradient-8" x1="-56.56" y1="-177.76" x2="-41.21" y2="-191.94" gradientTransform="translate(166.47 299.44)" gradientUnits="userSpaceOnUse"><stop offset="0" stop-color="#dbdebc"/><stop offset="0.97" stop-color="#fff"/></linearGradient><linearGradient id="linear-gradient-9" x1="220.22" y1="447.22" x2="235.72" y2="432.89" gradientTransform="translate(-103.66 -306.82)" xlink:href="#linear-gradient-8"/><linearGradient id="linear-gradient-10" x1="-27.96" y1="-121.21" x2="-13.28" y2="-134.79" gradientTransform="translate(142.5 305.91)" xlink:href="#linear-gradient-8"/><linearGradient id="linear-gradient-11" x1="-141.36" y1="1610.17" x2="-132.51" y2="1610.17" gradientTransform="matrix(1, 0.06, 0.06, -1, 144.66, 1756.4)" xlink:href="#linear-gradient-2"/><linearGradient id="linear-gradient-12" x1="-141.42" y1="1603.39" x2="-139.97" y2="1617.37" gradientTransform="matrix(1, 0.06, 0.06, -1, 144.66, 1756.4)" xlink:href="#linear-gradient-3"/><radialGradient id="radial-gradient-6" cx="-1549.41" cy="1950.98" r="1.89" gradientTransform="matrix(-1, 0, 0, 1, -1418.33, -1736.92)" xlink:href="#radial-gradient"/><linearGradient id="linear-gradient-13" x1="101.64" y1="182.03" x2="108.84" y2="182.03" gradientTransform="matrix(1, 0, 0, 1, 0, 0)" xlink:href="#linear-gradient-4"/><linearGradient id="linear-gradient-14" x1="101.16" y1="176.76" x2="110.84" y2="176.76" gradientTransform="matrix(1, 0, 0, 1, 0, 0)" xlink:href="#linear-gradient-5"/><linearGradient id="linear-gradient-15" x1="112.64" y1="260.06" x2="112.64" y2="103.99" xlink:href="#linear-gradient"/><linearGradient id="linear-gradient-16" x1="115.18" y1="84.28" x2="135.5" y2="84.28" gradientTransform="matrix(1, 0, 0, 1, 0, 0)" xlink:href="#linear-gradient-4"/><linearGradient id="linear-gradient-17" x1="116.5" y1="87.44" x2="136.69" y2="87.44" gradientTransform="matrix(1, 0, 0, 1, 0, 0)" xlink:href="#linear-gradient-5"/><linearGradient id="linear-gradient-18" x1="141.45" y1="97.3" x2="153.42" y2="97.3" gradientTransform="matrix(1, 0, 0, 1, 0, 0)" xlink:href="#linear-gradient-2"/><linearGradient id="linear-gradient-19" x1="141.41" y1="88.17" x2="143.36" y2="106.98" gradientTransform="matrix(1, 0, 0, 1, 0, 0)" xlink:href="#linear-gradient-3"/><linearGradient id="linear-gradient-20" x1="-39.31" y1="-94.36" x2="-23.96" y2="-108.55" gradientTransform="translate(133.18 299.68)" xlink:href="#linear-gradient-8"/><linearGradient id="linear-gradient-21" x1="87.08" y1="115.75" x2="91.52" y2="111.64" gradientTransform="matrix(1, 0, 0, 1, 0, 0)" xlink:href="#linear-gradient-8"/><linearGradient id="linear-gradient-22" x1="93.47" y1="121.02" x2="105.89" y2="109.55" gradientTransform="matrix(1, 0, 0, 1, 0, 0)" xlink:href="#linear-gradient-8"/><radialGradient id="radial-gradient-7" cx="135.64" cy="120" r="2.26" gradientTransform="translate(203.18 -48.04) rotate(70.4)" gradientUnits="userSpaceOnUse"><stop offset="0" stop-color="#fbe5ef"/><stop offset="1" stop-color="#fff"/></radialGradient><radialGradient id="radial-gradient-8" cx="134.33" cy="144.58" r="3.27" gradientTransform="translate(225.46 -30.47) rotate(70.4)" xlink:href="#radial-gradient-7"/><radialGradient id="radial-gradient-9" cx="129.31" cy="132" r="3.69" gradientTransform="translate(210.27 -34.11) rotate(70.4)" xlink:href="#radial-gradient-7"/><radialGradient id="radial-gradient-10" cx="133.11" cy="111.57" r="1.74" gradientTransform="translate(193.55 -51.26) rotate(70.4)" xlink:href="#radial-gradient-7"/></defs><title>icons</title><ellipse class="cls-1" cx="112.07" cy="282.51" rx="32.29" ry="6.62"/><path class="cls-2" d="M148.62,86.56l-12.8,193a3.59,3.59,0,0,1-3.2,3.34A190.06,190.06,0,0,1,113.07,284a188.77,188.77,0,0,1-21.75-1.13,3.37,3.37,0,0,1-3-3.14q-6.4-96.48-12.79-193a2,2,0,0,1,1.76-2.09q5.28-.52,10.92-0.89,2.54-.17,5.13-0.31L95,83.42h0.22l1.18-.06c4.8-.21,9.77-0.34,14.88-0.35,12.94,0,24.93.64,35.82,1.7A1.74,1.74,0,0,1,148.62,86.56Z"/><ellipse class="cls-3" cx="149.07" cy="84.99" rx="26.53" ry="26.48"/><ellipse class="cls-4" cx="149.33" cy="84.85" rx="25.93" ry="25.89"/><path class="cls-5" d="M149,61.41h2.12a2.86,2.86,0,0,1,.66,0,1.14,1.14,0,0,1,.36.26,2,2,0,0,0,.4.22,5.85,5.85,0,0,0,1.12.33,2.1,2.1,0,0,0,.5.08h0.67a2.3,2.3,0,0,1,1.08.16,2.63,2.63,0,0,1,.38.25,6,6,0,0,1,.62.36,1,1,0,0,0,.41.21l0.17,0.09a0.56,0.56,0,0,0,.08.09,0.89,0.89,0,0,0,.17,0c0.08,0,.13.06,0.21,0.08s0.31,0,.46,0a1.85,1.85,0,0,1,.24.09c0.1,0,.24,0,0.34,0a1.14,1.14,0,0,1,.21.16l0.3,0.16s0.09,0,.11,0a1.54,1.54,0,0,1,.14.13c0.15,0.1.4,0.08,0.41,0.35a0.63,0.63,0,0,1,.4.28,3.29,3.29,0,0,1,.42.37,1.26,1.26,0,0,0,.75.49,3.93,3.93,0,0,0,1,.27,1.38,1.38,0,0,1,.83.33,0.58,0.58,0,0,1,.14.31,0.69,0.69,0,0,0,.1.16,0.16,0.16,0,0,1,.13.1v0.09a3.62,3.62,0,0,0,.48.51c0.17,0.16.34,0.32,0.5,0.49a1.36,1.36,0,0,0,.75.49s0,0.09,0,.13a1.33,1.33,0,0,1,.23.1c0.16,0,.16,0,0.26.07a1,1,0,0,1,.08.58,1.81,1.81,0,0,0,.48.76,3.12,3.12,0,0,0,.7.7,2.51,2.51,0,0,1,.31.12c0.06,0,.09.13,0.16,0.17a1,1,0,0,0,.27.07,0.84,0.84,0,0,0,.32.16,0.71,0.71,0,0,0,.17.37,2.28,2.28,0,0,1,.25.41,1.43,1.43,0,0,0,0,.2s0.09,0.09.12,0.13,0,0.14.09,0.2,0.13,0.11.18,0.2a1.07,1.07,0,0,1,.07.47,1.17,1.17,0,0,0,.25.41,2.52,2.52,0,0,1,.43.36,1.74,1.74,0,0,1,.16.46c0,0.09,0,.2,0,0.29a0.63,0.63,0,0,0,.08.17c0.08,0.19.18,0.36,0.25,0.57a0.59,0.59,0,0,0,.17.32A1.66,1.66,0,0,1,171,76a5.59,5.59,0,0,1,.33.66,2.86,2.86,0,0,1,.28.47,3.15,3.15,0,0,1,0,.6,2.19,2.19,0,0,0,.24,1,1.1,1.1,0,0,1,.18.36,2.87,2.87,0,0,1,.08.54c0,0.37,0,.74,0,1.11a2.51,2.51,0,0,0,0,.53c0,0.09.06,0.16,0.08,0.25a0.66,0.66,0,0,0,0,.13,0.43,0.43,0,0,0,.14.1,1.76,1.76,0,0,1,.29,1.09,2.19,2.19,0,0,1,0,.53l-0.06.25s0,0.06,0,.09,0,0.18,0,.25a1.65,1.65,0,0,0-.09.15,0.65,0.65,0,0,1,0,.25,0.44,0.44,0,0,0-.13.29c0,0.09,0,.19,0,0.29q0,0.68,0,1.35v0.54a1.81,1.81,0,0,0,0,.61,0.83,0.83,0,0,1,.16.29c0,0.08,0,.17,0,0.25s0,0.19,0,.29,0,0.11-.13.22a1.29,1.29,0,0,0-.21.56,3.22,3.22,0,0,0-.08.69,3.41,3.41,0,0,1-.16,1.16,2.85,2.85,0,0,1-.3.92,0.51,0.51,0,0,0-.13.27,1.72,1.72,0,0,0-.09.29,2,2,0,0,1,0,.24,1.24,1.24,0,0,0-.08.21,1.36,1.36,0,0,1,0,.28,2,2,0,0,1-.12.17,2.31,2.31,0,0,0-.12.5,2.12,2.12,0,0,1-.67,1,10,10,0,0,1-.7.71,1.91,1.91,0,0,0-.71.48,4.29,4.29,0,0,0-.21,1c-0.06.28-.16,0.55-0.2,0.84,0,0.1,0,.2,0,0.3a0.69,0.69,0,0,1-.06.18,1.87,1.87,0,0,1-.08.23,2.2,2.2,0,0,1-.12.22,4.16,4.16,0,0,1-.45.26c-0.15.12-.25,0.29-0.4,0.39a1.5,1.5,0,0,0-.22.1s0,0.09-.08.12a2.06,2.06,0,0,1-.21.13c-0.17.12-.32,0.29-0.5,0.41l-0.64.42a1,1,0,0,0-.3.15c-0.08.1-.08,0.25-0.16,0.36s-0.25.24-.36,0.37a1.07,1.07,0,0,0-.17.22c0,0.07,0,.15-0.08.22a1.33,1.33,0,0,1-.38.33,1.38,1.38,0,0,1-.49.29,1.9,1.9,0,0,0-.55.18,5.24,5.24,0,0,1-.45.3,0.67,0.67,0,0,1-.28,0,1.39,1.39,0,0,0-.53.19,6.58,6.58,0,0,0-.91.64,1.88,1.88,0,0,0-.31.44,1.33,1.33,0,0,1-.21.22,0.8,0.8,0,0,0-.25.39,1.45,1.45,0,0,1-.42.43,2.14,2.14,0,0,1-.22.31c-0.1.07-.28,0-0.4,0.13a1,1,0,0,1-.67.22,0.85,0.85,0,0,0-.58.21,2,2,0,0,1-1.08.45,1.25,1.25,0,0,0-.54,0c-0.2.1-.39,0.22-0.58,0.32a3.89,3.89,0,0,1-1.21,0,1.32,1.32,0,0,0-.58.24l-0.42.29a0.74,0.74,0,0,1-.33.2,3,3,0,0,0-1.58.06,1.83,1.83,0,0,0-.13.18,1.18,1.18,0,0,1-.18.11,1.63,1.63,0,0,1-.27.21,2.59,2.59,0,0,1-.89.1h-1.44a1.29,1.29,0,0,0-.42.17c-0.1,0-.22,0-0.33.08l-0.25.09c-0.07,0-.15,0-0.22,0s-0.11.06-.14,0.07a1.1,1.1,0,0,1-.4,0,2.13,2.13,0,0,1-.49-0.25l-0.25-.16a1.94,1.94,0,0,0-.31-0.1c-0.21-.09-0.38-0.32-0.6-0.42-0.07,0-.14,0-0.21-0.06s-0.14-.12-0.21-0.14a1.26,1.26,0,0,0-.42,0h-0.75a1.53,1.53,0,0,1-.9-0.07c-0.16-.18-0.08-0.53-0.24-0.69a1.85,1.85,0,0,0-.86-0.05,4.28,4.28,0,0,1-.41-0.15,5.38,5.38,0,0,0-.6-0.12,1.86,1.86,0,0,1-.83-0.31,1.25,1.25,0,0,1-.18-0.13,2.65,2.65,0,0,1-.13-0.24c-0.08-.11-0.2-0.17-0.27-0.28s-0.1-.11-0.32-0.16c-0.07,0-.07-0.07-0.13-0.08s-0.18,0-.27,0a1.65,1.65,0,0,0-.09-0.4c-0.09-.25-0.1-0.22-0.34-0.25s-0.12-.12-0.18-0.33a0.65,0.65,0,0,0-.31-0.41c-0.08,0-.18,0-0.26,0a0.76,0.76,0,0,1-.1-0.07,2.37,2.37,0,0,0-.48,0,3.34,3.34,0,0,1-.49,0,0.86,0.86,0,0,1-.58-0.42,4.92,4.92,0,0,1-.42-0.51,2.63,2.63,0,0,1-.25-0.47,1.67,1.67,0,0,0-.67-0.8,2.9,2.9,0,0,0-.41-0.21c-0.11,0-.22,0-0.32-0.08s-0.11-.1-0.18-0.13a2.55,2.55,0,0,1-.84-0.43,1.29,1.29,0,0,1-.25-0.91,0.7,0.7,0,0,0-.49-0.64,2,2,0,0,0-.58-0.19,3,3,0,0,1-.51,0,1.32,1.32,0,0,1-.42-0.87L130.29,98a1.07,1.07,0,0,0-.29-0.28,0.61,0.61,0,0,0-.12-0.19c-0.09-.05-0.22,0-0.31,0a1.14,1.14,0,0,1-.12-0.22,1.91,1.91,0,0,1-.17-0.18c-0.07-.11-0.09-0.22-0.16-0.33a1.69,1.69,0,0,1-.25-0.58c-0.11-.37,0-0.77-0.15-1.15a3,3,0,0,0-.17-0.47l-0.23-.34a2,2,0,0,0-.35-0.47,1.23,1.23,0,0,1-.33-0.52c-0.15-.32-0.37-0.64-0.5-1-0.05-.14-0.11-0.28-0.17-0.42a2.54,2.54,0,0,1-.1-0.47c0-.13-0.17-0.29-0.21-0.43a1.22,1.22,0,0,1,0-.25,1.12,1.12,0,0,0-.07-0.18c0-.16,0-0.32,0-0.48a2.29,2.29,0,0,1-.09-0.41,1.11,1.11,0,0,0-.08-0.41,2.13,2.13,0,0,0-.14-0.44,2.77,2.77,0,0,1-.44-0.73,3.39,3.39,0,0,1,0-1,1.39,1.39,0,0,1,.07-0.18c0-.08,0-0.15,0-0.23s0.07-.17.09-0.26a2.31,2.31,0,0,0,0-.39,2.63,2.63,0,0,0,0-.61c0-.07,0-0.14,0-0.21S125.84,85,125.83,85s0-.34,0-0.47a2.54,2.54,0,0,1-.35-0.5c-0.06-.56,0-1.15,0-1.72a0.75,0.75,0,0,1,.1-0.41c0.11-.17.31-0.24,0.42-0.41a1.42,1.42,0,0,0,.15-0.91V79.48c0-.23,0-0.45,0-0.68a5.28,5.28,0,0,1,.23-1.13,6.33,6.33,0,0,1,.61-1.15,1.36,1.36,0,0,1,.31-0.43,1.64,1.64,0,0,0,.29-0.47c0.1-.18.21-0.33,0.31-0.5a4.25,4.25,0,0,0,.18-0.41c0-.07.1-0.12,0.13-0.18s0-.27.1-0.38a4,4,0,0,1,.48-0.53,3.05,3.05,0,0,1,.44-0.4,0.59,0.59,0,0,0,.18-0.45,2.09,2.09,0,0,1,.2-0.34,3.38,3.38,0,0,0,.14-0.5,6.49,6.49,0,0,1,.38-0.75,2.84,2.84,0,0,1,.29-0.52,1.41,1.41,0,0,1,.17-0.19,2.08,2.08,0,0,1,.3,0l0-.14,0.22,0a4.34,4.34,0,0,1,.09-0.63,3.66,3.66,0,0,1,.27-0.59s0.11-.06.13-0.1a1.77,1.77,0,0,0,.05-0.19,1.08,1.08,0,0,1,.46-0.5c0.22-.12.45-0.18,0.67-0.29a1.65,1.65,0,0,1,.1-0.5c0.05-.14.12-0.27,0.17-0.41a2.56,2.56,0,0,1,.48-0.7,2.63,2.63,0,0,1,1-.68,1.8,1.8,0,0,0,.47-0.16,1.91,1.91,0,0,1,.29-0.2,0.74,0.74,0,0,0,.18-0.05,0.65,0.65,0,0,1,.29-0.19,1.48,1.48,0,0,0,.44-0.16,1.68,1.68,0,0,0,.42-0.42,3.55,3.55,0,0,1,.46-0.39,3.74,3.74,0,0,1,.54-0.33,1.75,1.75,0,0,1,.83-0.1,2.49,2.49,0,0,0,.81-0.06,4.11,4.11,0,0,0,.59-0.25,1,1,0,0,0,.31-0.18s0-.13.05-0.15a0.27,0.27,0,0,1,.15,0,3.37,3.37,0,0,1,.58-0.15,3.06,3.06,0,0,0,.58-0.1,3.76,3.76,0,0,1,.5-0.1,3.44,3.44,0,0,0,.83-0.5,2.7,2.7,0,0,1,.83-0.05,1.46,1.46,0,0,0,.41-0.25c0.18-.12.35-0.24,0.51-0.38a0.33,0.33,0,0,1,.29-0.12c0.24,0,.21,0,0.29.23a0.68,0.68,0,0,0,.77.26,2.43,2.43,0,0,0,.82-0.08c0.13,0,.26-0.1.4-0.14S148.9,60.89,149,61.41Z"/><path class="cls-6" d="M130.43,92.8a1,1,0,0,0-.56,1.33,17,17,0,0,0,9.61,9.57,1,1,0,0,0,1.3-.55l7.5-17.07a0.36,0.36,0,0,0-.47-0.48Z"/><path class="cls-7" d="M148.62,86.64l-12.8,193a3.59,3.59,0,0,1-3.2,3.34,190.06,190.06,0,0,1-19.54,1.11A188.77,188.77,0,0,1,91.33,283a3.37,3.37,0,0,1-3-3.14q-6.4-96.48-12.79-193a2,2,0,0,1,1.76-2.09q5.28-.52,10.92-0.89,2.54-.17,5.13-0.31L95,83.51h0.22l1.18-.06c4.8-.21,9.77-0.34,14.88-0.35,12.94,0,24.93.64,35.82,1.7A1.74,1.74,0,0,1,148.62,86.64Z"/><path class="cls-8" d="M141.75,65.51a1,1,0,0,1,.55-1.33,17,17,0,0,1,13.57,0,1,1,0,0,1,.53,1.31l-6.79,17.37a0.36,0.36,0,0,1-.67,0Z"/><path class="cls-8" d="M141.75,103.54a1,1,0,0,0,.55,1.33,17,17,0,0,0,13.57,0,1,1,0,0,0,.53-1.31l-6.79-17.37a0.36,0.36,0,0,0-.67,0Z"/><path class="cls-8" d="M168.29,77.25a1,1,0,0,1,1.34.55,17,17,0,0,1,0,13.54,1,1,0,0,1-1.31.53L150.9,85.1a0.36,0.36,0,0,1,0-.67Z"/><path class="cls-8" d="M130.19,77.25a1,1,0,0,0-1.34.55,17,17,0,0,0,0,13.54,1,1,0,0,0,1.31.53l17.4-6.78a0.36,0.36,0,0,0,0-.67Z"/><path class="cls-8" d="M157.37,65.91a1,1,0,0,1,1.33-.56,17,17,0,0,1,9.58,9.59,1,1,0,0,1-.55,1.3l-17.1,7.49a0.36,0.36,0,0,1-.48-0.47Z"/><path class="cls-8" d="M130.43,76.4a1,1,0,0,1-.56-1.33,17,17,0,0,1,9.61-9.57,1,1,0,0,1,1.3.55l7.5,17.07a0.36,0.36,0,0,1-.47.48Z"/><path class="cls-8" d="M157.37,103.29a1,1,0,0,0,1.33.56,17,17,0,0,0,9.58-9.59,1,1,0,0,0-.55-1.3l-17.1-7.49a0.36,0.36,0,0,0-.48.47Z"/><path class="cls-5" d="M144.05,80.51c0.2,0.81,1.34,1.53,2.87,1.87a0.18,0.18,0,0,0,.22-0.22c-0.32-1.53-1-2.68-1.84-2.89A0.95,0.95,0,0,0,144.05,80.51Z"/><path class="cls-5" d="M145.28,89.8c0.81-.2,1.54-1.34,1.87-2.86a0.18,0.18,0,0,0-.22-0.22c-1.54.32-2.69,1-2.89,1.83A0.95,0.95,0,0,0,145.28,89.8Z"/><path class="cls-5" d="M154.23,80.82c-0.2.81-1.34,1.53-2.87,1.87a0.18,0.18,0,0,1-.22-0.22c0.32-1.53,1-2.68,1.84-2.89A0.95,0.95,0,0,1,154.23,80.82Z"/><path class="cls-5" d="M153,89.8c-0.81-.2-1.54-1.34-1.87-2.86a0.18,0.18,0,0,1,.22-0.22c1.54,0.32,2.69,1,2.89,1.83A0.95,0.95,0,0,1,153,89.8Z"/><path class="cls-9" d="M148.69,68.11a25.38,25.38,0,0,0,.92,8c0.07,0.29.19,0.3,0.23,0a24.32,24.32,0,0,0,.15-7.94c0-.12-0.35-1.47-0.74-1.47S148.7,68,148.69,68.11Z"/><path class="cls-9" d="M144.93,67a23.86,23.86,0,0,0,2.28,6.58c0.11,0.23.2,0.2,0.18,0a23.75,23.75,0,0,0-1.47-6.81c0-.09-0.56-1.16-0.84-1.06S144.91,66.84,144.93,67Z"/><path class="cls-9" d="M152.34,66a16.62,16.62,0,0,0-.62,5.77c0,0.22.1,0.26,0.18,0.08a15.1,15.1,0,0,0,1.43-5.42,2,2,0,0,0-.32-1.22C152.73,65.05,152.38,65.87,152.34,66Z"/><path class="cls-9" d="M161.33,72.24A25.38,25.38,0,0,0,155.75,78c-0.18.24-.11,0.33,0.14,0.19a24.32,24.32,0,0,0,6.23-4.93c0.07-.1.91-1.21,0.67-1.5S161.45,72.17,161.33,72.24Z"/><path class="cls-9" d="M158.87,69.23a23.86,23.86,0,0,0-3.63,5.94c-0.11.23,0,.28,0.15,0.1a23.75,23.75,0,0,0,4.33-5.46c0-.09.55-1.17,0.28-1.33S159,69.14,158.87,69.23Z"/><path class="cls-9" d="M164.35,74.32a16.62,16.62,0,0,0-4.85,3.19c-0.17.14-.14,0.24,0.05,0.18a15.1,15.1,0,0,0,5.1-2.34,2,2,0,0,0,.74-1C165.3,74,164.45,74.29,164.35,74.32Z"/><path class="cls-10" d="M148.73,100a25.38,25.38,0,0,1,.92-8c0.07-.29.19-0.3,0.23,0A24.32,24.32,0,0,1,150,100c0,0.12-.35,1.47-0.74,1.47S148.75,100.17,148.73,100Z"/><path class="cls-10" d="M145,101.18a23.86,23.86,0,0,1,2.28-6.58c0.11-.23.2-0.2,0.18,0a23.75,23.75,0,0,1-1.47,6.81c0,0.09-.56,1.16-0.84,1.06S145,101.31,145,101.18Z"/><path class="cls-10" d="M152.39,102.18a16.62,16.62,0,0,1-.62-5.77c0-.22.1-0.26,0.18-0.08a15.1,15.1,0,0,1,1.43,5.42,2,2,0,0,1-.32,1.22C152.77,103.09,152.43,102.27,152.39,102.18Z"/><path class="cls-9" d="M161.38,95.9a25.38,25.38,0,0,1-5.59-5.79c-0.18-.24-0.11-0.33.14-0.19a24.32,24.32,0,0,1,6.23,4.93c0.07,0.1.91,1.21,0.67,1.5S161.5,96,161.38,95.9Z"/><path class="cls-9" d="M158.91,98.91A23.86,23.86,0,0,1,155.29,93c-0.11-.23,0-0.28.15-0.1a23.75,23.75,0,0,1,4.33,5.46c0,0.09.55,1.17,0.28,1.33S159,99,158.91,98.91Z"/><path class="cls-9" d="M164.4,93.82a16.62,16.62,0,0,1-4.85-3.19c-0.17-.14-0.14-0.24.05-0.18a15.1,15.1,0,0,1,5.1,2.34,2,2,0,0,1,.74,1C165.34,94.1,164.49,93.85,164.4,93.82Z"/><path class="cls-9" d="M138,72.55a25.38,25.38,0,0,1,5.16,6.18c0.16,0.25.08,0.34-.15,0.18a24.32,24.32,0,0,1-5.86-5.36c-0.07-.1-0.83-1.27-0.56-1.55S137.87,72.47,138,72.55Z"/><path class="cls-9" d="M139.74,69a23.86,23.86,0,0,1,3.19,6.19c0.09,0.24,0,.28-0.16.09a23.75,23.75,0,0,1-3.92-5.76c0-.1-0.46-1.21-0.19-1.34S139.66,68.94,139.74,69Z"/><path class="cls-9" d="M133.91,73.72a16.62,16.62,0,0,1,4.61,3.53c0.15,0.16.12,0.25-.07,0.18a15.1,15.1,0,0,1-4.91-2.71,2,2,0,0,1-.67-1.07C133,73.37,133.82,73.68,133.91,73.72Z"/><path class="cls-10" d="M132.26,84.56a25.38,25.38,0,0,1,8-.06c0.3,0,.32.15,0,0.23a24.32,24.32,0,0,1-7.86,1.12c-0.12,0-1.5-.17-1.55-0.55S132.13,84.6,132.26,84.56Z"/><path class="cls-10" d="M131.78,80.7a23.86,23.86,0,0,1,6.81,1.47c0.24,0.08.23,0.17,0,.18a23.75,23.75,0,0,1-6.94-.63c-0.1,0-1.22-.41-1.16-0.71S131.65,80.7,131.78,80.7Z"/><path class="cls-10" d="M131.69,88.18a16.62,16.62,0,0,1,5.65-1.32c0.22,0,.27.06,0.1,0.16a15.1,15.1,0,0,1-5.21,2.08,2,2,0,0,1-1.25-.17C130.83,88.68,131.6,88.23,131.69,88.18Z"/><path class="cls-9" d="M167,84.88a25.38,25.38,0,0,1-8-.52c-0.29-.06-0.3-0.17,0-0.23a24.32,24.32,0,0,1,7.92-.55c0.12,0,1.49.28,1.51,0.66S167.16,84.85,167,84.88Z"/><path class="cls-9" d="M167.24,88.77a23.86,23.86,0,0,1-6.68-1.95c-0.23-.1-0.21-0.19,0-0.18a23.75,23.75,0,0,1,6.88,1.12c0.1,0,1.19.5,1.1,0.79S167.36,88.77,167.24,88.77Z"/><path class="cls-9" d="M167.86,81.31a16.62,16.62,0,0,1-5.73.91c-0.22,0-.26-0.08-0.08-0.17a15.1,15.1,0,0,1,5.35-1.7,2,2,0,0,1,1.24.25C168.74,80.88,167.94,81.27,167.86,81.31Z"/><path class="cls-10" d="M136.6,97.09a25.38,25.38,0,0,1,5.9-5.47c0.24-.17.34-0.1,0.19,0.14a24.32,24.32,0,0,1-5,6.13c-0.1.07-1.22,0.89-1.52,0.64S136.52,97.21,136.6,97.09Z"/><path class="cls-10" d="M133.63,94.57a23.86,23.86,0,0,1,6-3.51c0.23-.1.28,0,0.1,0.15a23.75,23.75,0,0,1-5.55,4.22c-0.09,0-1.18.52-1.33,0.26S133.54,94.66,133.63,94.57Z"/><path class="cls-10" d="M138.62,100.16a16.62,16.62,0,0,1,3.28-4.79c0.15-.16.24-0.13,0.18,0.06a15.1,15.1,0,0,1-2.44,5,2,2,0,0,1-1,.72C138.32,101.1,138.59,100.25,138.62,100.16Z"/><path class="cls-11" d="M142.07,110.06q-4.36,68.12-8.73,136.26a10.67,10.67,0,0,1-4.17,7.87,27.51,27.51,0,0,1-33.33.49,11.79,11.79,0,0,1-4.8-8.9L82.89,105.16c9.38-.74,19.53-1.19,30.32-1.17q9.29,0,17.88.45A26.33,26.33,0,0,0,142.07,110.06Z"/><ellipse class="cls-12" cx="111.59" cy="216.93" rx="11.51" ry="11.89"/><ellipse class="cls-12" cx="124.57" cy="194.76" rx="9.73" ry="10.05"/><path class="cls-13" d="M130.29,186.64a10.43,10.43,0,0,1,2.78,13.22,9.74,9.74,0,0,1-13.35,3.61,12.89,12.89,0,0,0,9.68-6.35A13.51,13.51,0,0,0,130.29,186.64Z"/><path class="cls-14" d="M122.18,187.68a0.06,0.06,0,0,1,0,.06,0.51,0.51,0,0,1-.44,0,0.53,0.53,0,0,1-.23-0.38,0.15,0.15,0,0,1,.12-0.16,0.52,0.52,0,0,1,.5.18A0.54,0.54,0,0,1,122.18,187.68Z"/><path class="cls-14" d="M120,191.3a0.06,0.06,0,0,1-.07,0,0.52,0.52,0,0,1-.21-0.79,0.14,0.14,0,0,1,.19,0,0.55,0.55,0,0,1,.24.49A0.53,0.53,0,0,1,120,191.3Z"/><path class="cls-14" d="M124,191.55a0.06,0.06,0,0,1-.05,0,0.56,0.56,0,0,1,0-.46,0.51,0.51,0,0,1,.37-0.24,0.14,0.14,0,0,1,.16.12,0.56,0.56,0,0,1-.18.51A0.49,0.49,0,0,1,124,191.55Z"/><path class="cls-14" d="M128,193.58a0.06,0.06,0,0,1-.06,0,0.56,0.56,0,0,1-.08-0.45,0.52,0.52,0,0,1,.29-0.34,0.14,0.14,0,0,1,.18.07,0.56,0.56,0,0,1,0,.55A0.5,0.5,0,0,1,128,193.58Z"/><path class="cls-15" d="M128.93,190a0.06,0.06,0,0,1-.06,0,0.56,0.56,0,0,1,0-.46,0.51,0.51,0,0,1,.34-0.28,0.14,0.14,0,0,1,.17.1,0.56,0.56,0,0,1-.12.53A0.5,0.5,0,0,1,128.93,190Z"/><path class="cls-14" d="M126.21,189.81a0.06,0.06,0,0,1,0,.06,0.51,0.51,0,0,1-.44,0,0.53,0.53,0,0,1-.23-0.38,0.15,0.15,0,0,1,.12-0.16,0.52,0.52,0,0,1,.5.18A0.54,0.54,0,0,1,126.21,189.81Z"/><path class="cls-15" d="M121.14,190.68a0.06,0.06,0,0,1,.06,0,0.56,0.56,0,0,1,0,.46,0.51,0.51,0,0,1-.32.31,0.14,0.14,0,0,1-.18-0.09,0.56,0.56,0,0,1,.08-0.54A0.5,0.5,0,0,1,121.14,190.68Z"/><path class="cls-14" d="M124.21,194.67a0.06,0.06,0,0,1,0,.06,0.51,0.51,0,0,1-.44,0,0.53,0.53,0,0,1-.23-0.38,0.15,0.15,0,0,1,.12-0.16,0.52,0.52,0,0,1,.5.18A0.54,0.54,0,0,1,124.21,194.67Z"/><path class="cls-15" d="M123.85,190.44a0.06,0.06,0,0,1,0,.06,0.51,0.51,0,0,1-.44,0,0.53,0.53,0,0,1-.23-0.38,0.15,0.15,0,0,1,.12-0.16,0.52,0.52,0,0,1,.5.18A0.54,0.54,0,0,1,123.85,190.44Z"/><path class="cls-14" d="M121.12,194.65a0.06,0.06,0,0,1-.07,0,0.52,0.52,0,0,1-.21-0.79,0.14,0.14,0,0,1,.19,0,0.55,0.55,0,0,1,.24.49A0.53,0.53,0,0,1,121.12,194.65Z"/><path class="cls-14" d="M120.44,196.14a0.06,0.06,0,0,1,0,.06,0.51,0.51,0,0,1-.44,0,0.53,0.53,0,0,1-.23-0.38,0.15,0.15,0,0,1,.12-0.16,0.52,0.52,0,0,1,.5.18A0.54,0.54,0,0,1,120.44,196.14Z"/><path class="cls-15" d="M121.82,196.29a0.06,0.06,0,0,1,0,.06,0.51,0.51,0,0,1-.44,0,0.53,0.53,0,0,1-.23-0.38,0.15,0.15,0,0,1,.12-0.16,0.52,0.52,0,0,1,.5.18A0.54,0.54,0,0,1,121.82,196.29Z"/><path class="cls-14" d="M118.29,200.2a0.06,0.06,0,0,1-.07,0,0.52,0.52,0,0,1-.21-0.79,0.14,0.14,0,0,1,.19,0,0.55,0.55,0,0,1,.24.49A0.53,0.53,0,0,1,118.29,200.2Z"/><path class="cls-14" d="M123.63,200.16a0.06,0.06,0,0,1-.05,0,0.56,0.56,0,0,1,0-.46,0.51,0.51,0,0,1,.37-0.24,0.14,0.14,0,0,1,.16.12,0.56,0.56,0,0,1-.18.51A0.49,0.49,0,0,1,123.63,200.16Z"/><path class="cls-14" d="M125.85,198.42a0.06,0.06,0,0,1,0,.06,0.51,0.51,0,0,1-.44,0,0.53,0.53,0,0,1-.23-0.38,0.15,0.15,0,0,1,.12-0.16,0.52,0.52,0,0,1,.5.18A0.54,0.54,0,0,1,125.85,198.42Z"/><path class="cls-14" d="M120.79,199.29a0.06,0.06,0,0,1,.06,0,0.56,0.56,0,0,1,0,.46,0.51,0.51,0,0,1-.32.31,0.14,0.14,0,0,1-.18-0.09,0.56,0.56,0,0,1,.08-0.54A0.5,0.5,0,0,1,120.79,199.29Z"/><path class="cls-14" d="M123.49,199a0.06,0.06,0,0,1,0,.06,0.51,0.51,0,0,1-.44,0,0.53,0.53,0,0,1-.23-0.38,0.15,0.15,0,0,1,.12-0.16,0.52,0.52,0,0,1,.5.18A0.54,0.54,0,0,1,123.49,199Z"/><path class="cls-14" d="M116.55,191.49a0.06,0.06,0,0,1,0-.07,0.54,0.54,0,0,1,.28-0.35,0.49,0.49,0,0,1,.43,0,0.15,0.15,0,0,1,.07.19,0.53,0.53,0,0,1-.43.33A0.5,0.5,0,0,1,116.55,191.49Z"/><path class="cls-14" d="M117.58,192.35a0.06,0.06,0,0,1,.06,0,0.56,0.56,0,0,1,0,.46,0.51,0.51,0,0,1-.32.31,0.14,0.14,0,0,1-.18-0.09,0.56,0.56,0,0,1,.08-0.54A0.5,0.5,0,0,1,117.58,192.35Z"/><path class="cls-15" d="M116.46,195.67a0.06,0.06,0,0,1-.07,0,0.52,0.52,0,0,1-.21-0.79,0.14,0.14,0,0,1,.19,0,0.55,0.55,0,0,1,.24.49A0.53,0.53,0,0,1,116.46,195.67Z"/><path class="cls-14" d="M117.16,197.16a0.06,0.06,0,0,1,0,.06,0.51,0.51,0,0,1-.44,0,0.53,0.53,0,0,1-.23-0.38,0.15,0.15,0,0,1,.12-0.16,0.52,0.52,0,0,1,.5.18A0.54,0.54,0,0,1,117.16,197.16Z"/><path class="cls-15" d="M118.54,197.31a0.06,0.06,0,0,1,0,.06,0.51,0.51,0,0,1-.44,0,0.53,0.53,0,0,1-.23-0.38,0.15,0.15,0,0,1,.12-0.16,0.52,0.52,0,0,1,.5.18A0.54,0.54,0,0,1,118.54,197.31Z"/><path class="cls-15" d="M126.61,190.17a0.06,0.06,0,0,1,.06,0,0.52,0.52,0,0,1,.4.2,0.54,0.54,0,0,1,.09.44,0.14,0.14,0,0,1-.16.11A0.51,0.51,0,0,1,126.61,190.17Z"/><path class="cls-14" d="M129.86,187.55a0.06,0.06,0,0,1,.07,0,0.55,0.55,0,0,1,.16.43,0.53,0.53,0,0,1-.22.39,0.14,0.14,0,0,1-.19,0,0.56,0.56,0,0,1-.07-0.54A0.51,0.51,0,0,1,129.86,187.55Z"/><path class="cls-14" d="M126.2,185.9a0.06,0.06,0,0,1,0,.06,0.55,0.55,0,0,1-.19.41,0.5,0.5,0,0,1-.43.09,0.15,0.15,0,0,1-.11-0.17,0.54,0.54,0,0,1,.34-0.42A0.49,0.49,0,0,1,126.2,185.9Z"/><path class="cls-15" d="M123.53,186.74a0.06,0.06,0,0,1,.06,0,0.52,0.52,0,0,1,.4.2,0.54,0.54,0,0,1,.09.44,0.14,0.14,0,0,1-.16.11A0.51,0.51,0,0,1,123.53,186.74Z"/><path class="cls-14" d="M128.58,187.72a0.06,0.06,0,0,1,0-.05,0.56,0.56,0,0,1,.11-0.44A0.5,0.5,0,0,1,129,187a0.14,0.14,0,0,1,.14.14,0.55,0.55,0,0,1-.25.48A0.49,0.49,0,0,1,128.58,187.72Z"/><path class="cls-14" d="M126,187a0.06,0.06,0,0,1,.06,0,0.52,0.52,0,0,1,.4.2,0.54,0.54,0,0,1,.09.44,0.14,0.14,0,0,1-.16.11A0.51,0.51,0,0,1,126,187Z"/><path class="cls-15" d="M130.82,195.9a0.06,0.06,0,0,1,0,.07,0.52,0.52,0,0,1-.39.22A0.5,0.5,0,0,1,130,196a0.15,0.15,0,0,1,0-.2,0.52,0.52,0,0,1,.51-0.13A0.51,0.51,0,0,1,130.82,195.9Z"/><path class="cls-15" d="M132.39,192.79a0.06,0.06,0,0,1-.05,0,0.52,0.52,0,0,1-.42-0.15,0.53,0.53,0,0,1-.14-0.42,0.14,0.14,0,0,1,.15-0.13,0.53,0.53,0,0,1,.44.3A0.54,0.54,0,0,1,132.39,192.79Z"/><path class="cls-14" d="M131.26,190.16a0.06,0.06,0,0,1,0,.05,0.56,0.56,0,0,1-.14.43,0.5,0.5,0,0,1-.41.15,0.15,0.15,0,0,1-.13-0.15,0.55,0.55,0,0,1,.29-0.46A0.49,0.49,0,0,1,131.26,190.16Z"/><path class="cls-14" d="M132.83,194.43a0.06,0.06,0,0,1,0-.05,0.51,0.51,0,0,1,.44.06,0.53,0.53,0,0,1,.22.39,0.15,0.15,0,0,1-.12.16,0.52,0.52,0,0,1-.49-0.2A0.54,0.54,0,0,1,132.83,194.43Z"/><path class="cls-14" d="M131.31,192.67a0.06,0.06,0,0,1,0,.05,0.56,0.56,0,0,1-.14.43,0.5,0.5,0,0,1-.41.15,0.15,0.15,0,0,1-.13-0.15,0.55,0.55,0,0,1,.29-0.46A0.49,0.49,0,0,1,131.31,192.67Z"/><path class="cls-14" d="M119.29,187.83a0.06,0.06,0,0,1,0-.05,0.51,0.51,0,0,1,.43.1,0.53,0.53,0,0,1,.18.41,0.15,0.15,0,0,1-.14.15,0.52,0.52,0,0,1-.47-0.25A0.54,0.54,0,0,1,119.29,187.83Z"/><path class="cls-15" d="M119,189.17a0.06,0.06,0,0,1,0,.07,0.53,0.53,0,0,1-.37.25,0.5,0.5,0,0,1-.41-0.15,0.15,0.15,0,0,1,0-.2,0.52,0.52,0,0,1,.5-0.17A0.51,0.51,0,0,1,119,189.17Z"/><path class="cls-15" d="M126,196a0.06,0.06,0,0,1-.06,0,0.56,0.56,0,0,1,0-.46,0.51,0.51,0,0,1,.35-0.27,0.14,0.14,0,0,1,.17.11,0.56,0.56,0,0,1-.14.53A0.5,0.5,0,0,1,126,196Z"/><path class="cls-14" d="M128.78,199a0.06,0.06,0,0,1,0-.07,0.53,0.53,0,0,1,.33-0.3,0.49,0.49,0,0,1,.43.08,0.15,0.15,0,0,1,0,.2,0.52,0.52,0,0,1-.47.25A0.5,0.5,0,0,1,128.78,199Z"/><path class="cls-14" d="M132.53,198.06a0.06,0.06,0,0,1-.07,0,0.52,0.52,0,0,1-.21-0.78,0.14,0.14,0,0,1,.19,0,0.55,0.55,0,0,1,.24.48A0.53,0.53,0,0,1,132.53,198.06Z"/><path class="cls-14" d="M127.26,196.34a0.06,0.06,0,0,1,0,.07,0.54,0.54,0,0,1-.27.36,0.49,0.49,0,0,1-.44,0,0.15,0.15,0,0,1-.07-0.19,0.53,0.53,0,0,1,.41-0.34A0.49,0.49,0,0,1,127.26,196.34Z"/><path class="cls-14" d="M129.41,198.06a0.06,0.06,0,0,1-.07,0,0.52,0.52,0,0,1-.21-0.78,0.14,0.14,0,0,1,.19,0,0.55,0.55,0,0,1,.24.48A0.53,0.53,0,0,1,129.41,198.06Z"/><path class="cls-15" d="M119.86,202.71a0.06,0.06,0,0,1-.07,0,0.52,0.52,0,0,1-.21-0.79,0.14,0.14,0,0,1,.19,0,0.55,0.55,0,0,1,.24.49A0.53,0.53,0,0,1,119.86,202.71Z"/><path class="cls-14" d="M123.84,203a0.06,0.06,0,0,1-.05,0,0.56,0.56,0,0,1,0-.46,0.51,0.51,0,0,1,.37-0.24,0.14,0.14,0,0,1,.16.12,0.56,0.56,0,0,1-.18.51A0.49,0.49,0,0,1,123.84,203Z"/><path class="cls-15" d="M126.06,201.22a0.06,0.06,0,0,1,0,.06,0.51,0.51,0,0,1-.44,0,0.53,0.53,0,0,1-.23-0.38,0.15,0.15,0,0,1,.12-0.16,0.52,0.52,0,0,1,.5.18A0.54,0.54,0,0,1,126.06,201.22Z"/><path class="cls-14" d="M121,202.1a0.06,0.06,0,0,1,.06,0,0.56,0.56,0,0,1,0,.46,0.51,0.51,0,0,1-.32.31,0.14,0.14,0,0,1-.18-0.09,0.56,0.56,0,0,1,.08-0.54A0.5,0.5,0,0,1,121,202.1Z"/><path class="cls-15" d="M123.7,201.85a0.06,0.06,0,0,1,0,.06,0.51,0.51,0,0,1-.44,0,0.53,0.53,0,0,1-.23-0.38,0.15,0.15,0,0,1,.12-0.16,0.52,0.52,0,0,1,.5.18A0.54,0.54,0,0,1,123.7,201.85Z"/><path class="cls-14" d="M126.12,203.3a0.06,0.06,0,0,1-.06,0,0.52,0.52,0,0,1-.39-0.23,0.54,0.54,0,0,1-.06-0.45,0.14,0.14,0,0,1,.17-0.1A0.51,0.51,0,0,1,126.12,203.3Z"/><path class="cls-14" d="M130,202.21a0.06,0.06,0,0,1-.07,0,0.56,0.56,0,0,1-.1-0.45,0.52,0.52,0,0,1,.27-0.35,0.14,0.14,0,0,1,.19.06,0.56,0.56,0,0,1,0,.55A0.51,0.51,0,0,1,130,202.21Z"/><path class="cls-15" d="M131.53,199.83a0.06,0.06,0,0,1,0,.07,0.49,0.49,0,0,1-.77-0.18,0.15,0.15,0,0,1,.06-0.19,0.51,0.51,0,0,1,.53,0A0.52,0.52,0,0,1,131.53,199.83Z"/><path class="cls-14" d="M127,202.34a0.06,0.06,0,0,1,.07,0,0.55,0.55,0,0,1,.18.42,0.53,0.53,0,0,1-.2.4,0.14,0.14,0,0,1-.2,0,0.56,0.56,0,0,1-.09-0.54A0.51,0.51,0,0,1,127,202.34Z"/><path class="cls-14" d="M129.49,201.21a0.06,0.06,0,0,1,0,.07,0.49,0.49,0,0,1-.77-0.18,0.15,0.15,0,0,1,.06-0.19,0.51,0.51,0,0,1,.53,0A0.52,0.52,0,0,1,129.49,201.21Z"/><path class="cls-13" d="M118.37,207.32A12.34,12.34,0,0,1,121.66,223a11.52,11.52,0,0,1-15.8,4.27,15.26,15.26,0,0,0,11.45-7.51A16,16,0,0,0,118.37,207.32Z"/><path class="cls-14" d="M108.77,208.56a0.07,0.07,0,0,1,0,.07,0.61,0.61,0,0,1-.52-0.05,0.62,0.62,0,0,1-.27-0.45,0.17,0.17,0,0,1,.14-0.19,0.62,0.62,0,0,1,.59.22A0.63,0.63,0,0,1,108.77,208.56Z"/><path class="cls-14" d="M106.2,212.84a0.07,0.07,0,0,1-.08,0,0.62,0.62,0,0,1-.25-0.93,0.17,0.17,0,0,1,.23,0,0.65,0.65,0,0,1,.29.57A0.63,0.63,0,0,1,106.2,212.84Z"/><path class="cls-14" d="M110.91,213.14a0.07,0.07,0,0,1-.06-0.05,0.66,0.66,0,0,1,.05-0.54,0.6,0.6,0,0,1,.44-0.28,0.17,0.17,0,0,1,.19.14,0.66,0.66,0,0,1-.21.61A0.59,0.59,0,0,1,110.91,213.14Z"/><path class="cls-14" d="M115.62,215.54a0.07,0.07,0,0,1-.08,0,0.66,0.66,0,0,1-.1-0.53,0.61,0.61,0,0,1,.34-0.4,0.17,0.17,0,0,1,.22.08,0.66,0.66,0,0,1,0,.65A0.6,0.6,0,0,1,115.62,215.54Z"/><path class="cls-15" d="M116.76,211.28a0.07,0.07,0,0,1-.07,0,0.66,0.66,0,0,1,0-.54,0.6,0.6,0,0,1,.4-0.33,0.17,0.17,0,0,1,.2.12,0.66,0.66,0,0,1-.14.63A0.59,0.59,0,0,1,116.76,211.28Z"/><path class="cls-14" d="M113.54,211.08a0.07,0.07,0,0,1,0,.07,0.61,0.61,0,0,1-.52-0.05,0.62,0.62,0,0,1-.27-0.45,0.17,0.17,0,0,1,.14-0.19,0.62,0.62,0,0,1,.59.22A0.63,0.63,0,0,1,113.54,211.08Z"/><path class="cls-15" d="M107.54,212.11a0.07,0.07,0,0,1,.07,0,0.66,0.66,0,0,1,.05.54,0.61,0.61,0,0,1-.37.36,0.17,0.17,0,0,1-.21-0.1,0.66,0.66,0,0,1,.09-0.64A0.59,0.59,0,0,1,107.54,212.11Z"/><path class="cls-14" d="M111.17,216.83a0.07,0.07,0,0,1,0,.07,0.61,0.61,0,0,1-.52-0.05,0.62,0.62,0,0,1-.27-0.45,0.17,0.17,0,0,1,.14-0.19,0.62,0.62,0,0,1,.59.22A0.63,0.63,0,0,1,111.17,216.83Z"/><path class="cls-15" d="M110.74,211.82a0.07,0.07,0,0,1,0,.07,0.61,0.61,0,0,1-.52-0.05,0.62,0.62,0,0,1-.27-0.45,0.17,0.17,0,0,1,.14-0.19,0.62,0.62,0,0,1,.59.22A0.63,0.63,0,0,1,110.74,211.82Z"/><path class="cls-14" d="M107.52,216.81a0.07,0.07,0,0,1-.08,0,0.62,0.62,0,0,1-.25-0.93,0.17,0.17,0,0,1,.23,0,0.65,0.65,0,0,1,.29.57A0.63,0.63,0,0,1,107.52,216.81Z"/><path class="cls-14" d="M106.72,218.57a0.07,0.07,0,0,1,0,.07,0.61,0.61,0,0,1-.52-0.05,0.62,0.62,0,0,1-.27-0.45,0.17,0.17,0,0,1,.14-0.19,0.62,0.62,0,0,1,.59.22A0.63,0.63,0,0,1,106.72,218.57Z"/><path class="cls-15" d="M108.34,218.75a0.07,0.07,0,0,1,0,.07,0.61,0.61,0,0,1-.52-0.05,0.62,0.62,0,0,1-.27-0.45,0.17,0.17,0,0,1,.14-0.19,0.62,0.62,0,0,1,.59.22A0.63,0.63,0,0,1,108.34,218.75Z"/><path class="cls-14" d="M104.17,223.38a0.07,0.07,0,0,1-.08,0,0.62,0.62,0,0,1-.25-0.93,0.17,0.17,0,0,1,.23,0,0.65,0.65,0,0,1,.29.57A0.63,0.63,0,0,1,104.17,223.38Z"/><path class="cls-14" d="M110.48,223.33a0.07,0.07,0,0,1-.06-0.05,0.66,0.66,0,0,1,.05-0.54,0.6,0.6,0,0,1,.44-0.28,0.17,0.17,0,0,1,.19.14,0.66,0.66,0,0,1-.21.61A0.59,0.59,0,0,1,110.48,223.33Z"/><path class="cls-14" d="M113.11,221.27a0.07,0.07,0,0,1,0,.07,0.61,0.61,0,0,1-.52-0.05,0.62,0.62,0,0,1-.27-0.45,0.17,0.17,0,0,1,.14-0.19,0.62,0.62,0,0,1,.59.22A0.63,0.63,0,0,1,113.11,221.27Z"/><path class="cls-14" d="M107.12,222.3a0.07,0.07,0,0,1,.07,0,0.66,0.66,0,0,1,.05.54,0.61,0.61,0,0,1-.37.36,0.17,0.17,0,0,1-.21-0.1,0.66,0.66,0,0,1,.09-0.64A0.59,0.59,0,0,1,107.12,222.3Z"/><path class="cls-14" d="M110.32,222a0.07,0.07,0,0,1,0,.07,0.61,0.61,0,0,1-.52-0.05,0.62,0.62,0,0,1-.27-0.45,0.17,0.17,0,0,1,.14-0.19,0.62,0.62,0,0,1,.59.22A0.63,0.63,0,0,1,110.32,222Z"/><path class="cls-14" d="M102.11,213.07a0.07,0.07,0,0,1,0-.08,0.64,0.64,0,0,1,.33-0.42,0.58,0.58,0,0,1,.51,0,0.18,0.18,0,0,1,.08.23,0.63,0.63,0,0,1-.5.38A0.59,0.59,0,0,1,102.11,213.07Z"/><path class="cls-14" d="M103.33,214.09a0.07,0.07,0,0,1,.07,0,0.66,0.66,0,0,1,.05.54,0.61,0.61,0,0,1-.37.36,0.17,0.17,0,0,1-.21-0.1,0.66,0.66,0,0,1,.09-0.64A0.59,0.59,0,0,1,103.33,214.09Z"/><path class="cls-15" d="M102,218a0.07,0.07,0,0,1-.08,0,0.62,0.62,0,0,1-.25-0.93,0.17,0.17,0,0,1,.23,0,0.65,0.65,0,0,1,.29.57A0.63,0.63,0,0,1,102,218Z"/><path class="cls-14" d="M102.83,219.78a0.07,0.07,0,0,1,0,.07,0.61,0.61,0,0,1-.52-0.05,0.62,0.62,0,0,1-.27-0.45,0.17,0.17,0,0,1,.14-0.19,0.62,0.62,0,0,1,.59.22A0.63,0.63,0,0,1,102.83,219.78Z"/><path class="cls-15" d="M104.46,220a0.07,0.07,0,0,1,0,.07,0.61,0.61,0,0,1-.52-0.05,0.62,0.62,0,0,1-.27-0.45,0.17,0.17,0,0,1,.14-0.19,0.62,0.62,0,0,1,.59.22A0.63,0.63,0,0,1,104.46,220Z"/><path class="cls-15" d="M114,211.51a0.07,0.07,0,0,1,.07,0,0.61,0.61,0,0,1,.47.23,0.64,0.64,0,0,1,.11.52,0.17,0.17,0,0,1-.19.13A0.6,0.6,0,0,1,114,211.51Z"/><path class="cls-14" d="M117.85,208.4a0.07,0.07,0,0,1,.08,0,0.65,0.65,0,0,1,.19.51,0.62,0.62,0,0,1-.26.46,0.17,0.17,0,0,1-.23,0,0.66,0.66,0,0,1-.08-0.64A0.61,0.61,0,0,1,117.85,208.4Z"/><path class="cls-14" d="M113.53,206.45a0.07,0.07,0,0,1,0,.07,0.65,0.65,0,0,1-.23.49,0.59,0.59,0,0,1-.5.11,0.17,0.17,0,0,1-.13-0.2,0.64,0.64,0,0,1,.4-0.5A0.58,0.58,0,0,1,113.53,206.45Z"/><path class="cls-15" d="M110.37,207.45a0.07,0.07,0,0,1,.07,0,0.61,0.61,0,0,1,.47.23,0.64,0.64,0,0,1,.11.52,0.17,0.17,0,0,1-.19.13A0.6,0.6,0,0,1,110.37,207.45Z"/><path class="cls-14" d="M116.35,208.61a0.07,0.07,0,0,1-.06-0.06,0.66,0.66,0,0,1,.13-0.53,0.59,0.59,0,0,1,.47-0.21,0.17,0.17,0,0,1,.16.17,0.65,0.65,0,0,1-.3.57A0.58,0.58,0,0,1,116.35,208.61Z"/><path class="cls-14" d="M113.24,207.75a0.07,0.07,0,0,1,.07,0,0.61,0.61,0,0,1,.47.23,0.64,0.64,0,0,1,.11.52,0.17,0.17,0,0,1-.19.13A0.6,0.6,0,0,1,113.24,207.75Z"/><path class="cls-15" d="M119,218.29a0.08,0.08,0,0,1,0,.08,0.62,0.62,0,0,1-.46.26,0.59,0.59,0,0,1-.47-0.22,0.18,0.18,0,0,1,0-.24,0.61,0.61,0,0,1,.61-0.16A0.6,0.6,0,0,1,119,218.29Z"/><path class="cls-15" d="M120.86,214.61a0.07,0.07,0,0,1-.06.05,0.61,0.61,0,0,1-.5-0.17,0.63,0.63,0,0,1-.17-0.5,0.17,0.17,0,0,1,.18-0.16,0.63,0.63,0,0,1,.53.35A0.64,0.64,0,0,1,120.86,214.61Z"/><path class="cls-14" d="M119.51,211.49a0.07,0.07,0,0,1,.05.06,0.66,0.66,0,0,1-.17.51,0.59,0.59,0,0,1-.49.17,0.17,0.17,0,0,1-.15-0.18,0.65,0.65,0,0,1,.34-0.54A0.58,0.58,0,0,1,119.51,211.49Z"/><path class="cls-14" d="M121.37,216.55a0.07,0.07,0,0,1,.05-0.06,0.61,0.61,0,0,1,.52.07,0.62,0.62,0,0,1,.26.46,0.17,0.17,0,0,1-.14.19,0.62,0.62,0,0,1-.58-0.24A0.63,0.63,0,0,1,121.37,216.55Z"/><path class="cls-14" d="M119.57,214.47a0.07,0.07,0,0,1,.05.06,0.66,0.66,0,0,1-.17.51,0.59,0.59,0,0,1-.49.17,0.17,0.17,0,0,1-.15-0.18,0.65,0.65,0,0,1,.34-0.54A0.58,0.58,0,0,1,119.57,214.47Z"/><path class="cls-14" d="M105.35,208.74a0.07,0.07,0,0,1,.06-0.06,0.61,0.61,0,0,1,.51.12,0.63,0.63,0,0,1,.22.48,0.17,0.17,0,0,1-.16.18,0.62,0.62,0,0,1-.56-0.29A0.64,0.64,0,0,1,105.35,208.74Z"/><path class="cls-15" d="M105,210.33a0.08,0.08,0,0,1,0,.08,0.62,0.62,0,0,1-.44.29,0.59,0.59,0,0,1-.48-0.18,0.18,0.18,0,0,1,0-.24,0.61,0.61,0,0,1,.59-0.2A0.6,0.6,0,0,1,105,210.33Z"/><path class="cls-15" d="M113.32,218.4a0.07,0.07,0,0,1-.07,0,0.66,0.66,0,0,1,0-.54,0.6,0.6,0,0,1,.41-0.31,0.17,0.17,0,0,1,.2.13,0.66,0.66,0,0,1-.17.62A0.59,0.59,0,0,1,113.32,218.4Z"/><path class="cls-14" d="M116.58,221.93a0.08,0.08,0,0,1,0-.08,0.63,0.63,0,0,1,.39-0.36,0.59,0.59,0,0,1,.51.1,0.18,0.18,0,0,1,0,.24,0.62,0.62,0,0,1-.55.3A0.59,0.59,0,0,1,116.58,221.93Z"/><path class="cls-14" d="M121,220.84a0.07,0.07,0,0,1-.08,0,0.62,0.62,0,0,1-.25-0.93,0.17,0.17,0,0,1,.23,0,0.65,0.65,0,0,1,.29.57A0.63,0.63,0,0,1,121,220.84Z"/><path class="cls-14" d="M114.79,218.81a0.07,0.07,0,0,1,0,.08,0.64,0.64,0,0,1-.32.43,0.58,0.58,0,0,1-.51,0,0.18,0.18,0,0,1-.09-0.22,0.63,0.63,0,0,1,.49-0.4A0.59,0.59,0,0,1,114.79,218.81Z"/><path class="cls-14" d="M117.32,220.84a0.07,0.07,0,0,1-.08,0,0.62,0.62,0,0,1-.25-0.93,0.17,0.17,0,0,1,.23,0,0.65,0.65,0,0,1,.29.57A0.63,0.63,0,0,1,117.32,220.84Z"/><path class="cls-15" d="M106,226.35a0.07,0.07,0,0,1-.08,0,0.62,0.62,0,0,1-.25-0.93,0.17,0.17,0,0,1,.23,0,0.65,0.65,0,0,1,.29.57A0.63,0.63,0,0,1,106,226.35Z"/><path class="cls-14" d="M110.74,226.65a0.07,0.07,0,0,1-.06-0.05,0.66,0.66,0,0,1,.05-0.54,0.6,0.6,0,0,1,.44-0.28,0.17,0.17,0,0,1,.19.14,0.66,0.66,0,0,1-.21.61A0.59,0.59,0,0,1,110.74,226.65Z"/><path class="cls-15" d="M113.37,224.59a0.07,0.07,0,0,1,0,.07,0.61,0.61,0,0,1-.52-0.05,0.62,0.62,0,0,1-.27-0.45,0.17,0.17,0,0,1,.14-0.19,0.62,0.62,0,0,1,.59.22A0.63,0.63,0,0,1,113.37,224.59Z"/><path class="cls-14" d="M107.37,225.62a0.07,0.07,0,0,1,.07,0,0.66,0.66,0,0,1,.05.54,0.61,0.61,0,0,1-.37.36,0.17,0.17,0,0,1-.21-0.1,0.66,0.66,0,0,1,.09-0.64A0.59,0.59,0,0,1,107.37,225.62Z"/><path class="cls-15" d="M110.57,225.33a0.07,0.07,0,0,1,0,.07,0.61,0.61,0,0,1-.52-0.05,0.62,0.62,0,0,1-.27-0.45,0.17,0.17,0,0,1,.14-0.19,0.62,0.62,0,0,1,.59.22A0.63,0.63,0,0,1,110.57,225.33Z"/><path class="cls-14" d="M113.43,227a0.07,0.07,0,0,1-.07,0,0.62,0.62,0,0,1-.46-0.27,0.64,0.64,0,0,1-.07-0.53,0.17,0.17,0,0,1,.2-0.12A0.6,0.6,0,0,1,113.43,227Z"/><path class="cls-14" d="M118,225.76a0.07,0.07,0,0,1-.08,0,0.66,0.66,0,0,1-.12-0.53,0.62,0.62,0,0,1,.32-0.41,0.17,0.17,0,0,1,.22.07,0.67,0.67,0,0,1,0,.65A0.6,0.6,0,0,1,118,225.76Z"/><path class="cls-15" d="M119.83,222.93a0.07,0.07,0,0,1,0,.08,0.58,0.58,0,0,1-.91-0.21,0.18,0.18,0,0,1,.07-0.23,0.61,0.61,0,0,1,.63,0A0.62,0.62,0,0,1,119.83,222.93Z"/><path class="cls-14" d="M114.48,225.91a0.07,0.07,0,0,1,.08,0,0.65,0.65,0,0,1,.22.49,0.63,0.63,0,0,1-.24.47,0.16,0.16,0,0,1-.23,0,0.66,0.66,0,0,1-.11-0.64A0.61,0.61,0,0,1,114.48,225.91Z"/><path class="cls-14" d="M117.42,224.57a0.07,0.07,0,0,1,0,.08,0.58,0.58,0,0,1-.91-0.21,0.18,0.18,0,0,1,.07-0.23,0.61,0.61,0,0,1,.63,0A0.62,0.62,0,0,1,117.42,224.57Z"/><path class="cls-16" d="M133.71,256.86l-1.06,18.92a3.3,3.3,0,0,1-3.3,3.12H95.23a2.69,2.69,0,0,1-2.68-2.52l-1.23-19.53A35.2,35.2,0,0,0,133.71,256.86Z"/><path class="cls-17" d="M133.7,256.86l-0.88,19a3.21,3.21,0,0,1-3.2,3.06h-4.94a1.36,1.36,0,0,0,.82-0.86c-0.06-.58-1.86-0.84-7.55-0.92V263.48A35.69,35.69,0,0,0,133.7,256.86Z"/><path class="cls-16" d="M126.55,261q0.52-.21,1.06-0.47c0.5-.23,1-0.47,1.4-0.71v19.05h-2.45V261Z"/><path class="cls-18" d="M105.65,251.65a0.31,0.31,0,0,0,0-.13L96.36,83.36l-1.18.06H95l-1.62.07q-2.59.14-5.13,0.31l0.37,6.84L97.51,252A1.41,1.41,0,0,0,99,253.3l3.73-.21,1.62-.08a1.42,1.42,0,0,0,1.33-1.34v0Z"/><path class="cls-19" d="M89.27,102.95L89.94,115a58.74,58.74,0,0,0,5.28-5.6c0.87-1.06,1.67-2.1,2.4-3.11l-0.7-12.54c-1,1.45-2.17,3-3.45,4.52C92,100,90.63,101.56,89.27,102.95Z"/><path class="cls-19" d="M90.66,128l0.67,12.07a58.74,58.74,0,0,0,5.28-5.6c0.87-1.06,1.67-2.1,2.4-3.11l-0.7-12.54c-1,1.45-2.17,3-3.45,4.52C93.43,125.08,92,126.63,90.66,128Z"/><path class="cls-19" d="M95.18,83.41c-0.07.08-.14,0.17-0.21,0.26-0.35.45-.72,0.92-1.1,1.37l-0.42.5a60.22,60.22,0,0,1-4.87,5.1L88.22,83.8q2.54-.17,5.13-0.31L95,83.42h0.22Z"/><path class="cls-19" d="M93.55,180.26l0.67,12.07a58.74,58.74,0,0,0,5.28-5.6c0.87-1.06,1.67-2.1,2.4-3.11l-0.7-12.54c-1,1.45-2.17,3-3.45,4.52C96.32,177.33,94.91,178.88,93.55,180.26Z"/><path class="cls-20" d="M126.22,225.79a1.48,1.48,0,0,0-.53,1.35,7.07,7.07,0,0,0-1.4-2.36c-0.91-1-2.36-2.06-2.74-1.8-0.14.1-.19,0.41,0.21,1.34a10.52,10.52,0,0,0-2-1.4c-0.3-.16-2.56-1.37-3-0.87-0.13.13-.17,0.41,0.19,1.09-2.94-1.59-5.37-2.21-6-1.48s0.13,2.16.2,2.33a4.78,4.78,0,0,0,1.2,1.66c-1.62-.71-2.08-0.39-2.19-0.3-0.66.57,0.35,2.55,1.1,3.6a8.28,8.28,0,0,0,1.34,1.46,2,2,0,0,0-1.73.2c-0.63.62,0.11,2,.47,2.7a7.17,7.17,0,0,0,1.72,2.1c-1.13-.28-1.45-0.05-1.56.08-0.53.62,1,2.5,1.34,2.91a10.57,10.57,0,0,0,2.35,2.12c-1.36-.28-1.67-0.06-1.75.09-0.31.49,0.95,1.75,1.83,2.41a8.18,8.18,0,0,0,3.21,1.47,1.54,1.54,0,0,0-1.14,1c0,0.67,1.89,1.31,3.35,1.39a6.2,6.2,0,0,0,3.51-.91c0.2-.11.36-0.23,0.51-0.33l0.38,0.19a3.07,3.07,0,0,0,.8.21c3.08,0.39,6.11-4.39,5.44-5.08a1.11,1.11,0,0,0-1,.05,7.5,7.5,0,0,0,1.54-3.21c0.21-1.09.26-2.68-.18-2.82a1.41,1.41,0,0,0-1,.83,8.62,8.62,0,0,0,.2-2.05c0-1.25-.37-3.29-1.06-3.41a1.08,1.08,0,0,0-.93.73,6.37,6.37,0,0,0-.74-3.31C127.71,227,126.8,225.66,126.22,225.79Z"/><path class="cls-21" d="M126.72,243.3a8.72,8.72,0,0,0,3.16-5.13c0.84-4.89-3.52-8.91-4.8-10.09a18.61,18.61,0,0,0-8.69-4.39c1.7,1.14,10.66,7.34,10.81,15.94A12.63,12.63,0,0,1,126.72,243.3Z"/><path class="cls-22" d="M124.26,244.71a9.76,9.76,0,0,0,1-3c1.28-8.24-8.68-15.71-9.92-16.62-0.08,2.07-.42,15.08,7.19,18.93A9.52,9.52,0,0,0,124.26,244.71Z"/><path class="cls-23" d="M123.42,227a0.07,0.07,0,0,0-.13,0,7.71,7.71,0,0,1,.67,3.26,7.12,7.12,0,0,1-.18,1.46,0.08,0.08,0,0,1-.13,0,22.69,22.69,0,0,0-3.56-4.48,24.77,24.77,0,0,0-7.94-5.17,0.06,0.06,0,1,0-.05.12,33.68,33.68,0,0,1,5.5,3.81,32.38,32.38,0,0,1,4.11,4.2,0.07,0.07,0,0,1-.1.1,17,17,0,0,0-5.75-2.24,0.07,0.07,0,1,0,0,.13,21,21,0,0,1,2.38.92,13.53,13.53,0,0,1,5.16,3.52,9.79,9.79,0,0,1,2.07,4.34,0.07,0.07,0,0,1-.12.06,12.54,12.54,0,0,0-2.67-2,12.73,12.73,0,0,0-3.9-1.36,0.07,0.07,0,1,0,0,.13,19.28,19.28,0,0,1,3.93,1.83,19,19,0,0,1,2.86,2.14l0,0a11.1,11.1,0,0,1,.37,2,10,10,0,0,1,0,1.56,0.07,0.07,0,0,1-.12,0,7.62,7.62,0,0,0-1.45-1.22,7.82,7.82,0,0,0-2.74-1.09,0.07,0.07,0,1,0,0,.13,11.18,11.18,0,0,1,2.67,1.41,10.92,10.92,0,0,1,1.57,1.38,0.07,0.07,0,0,1,0,.05,8,8,0,0,1-1.57,3.67l0,0.06c0.2-.11.36-0.23,0.51-0.33l0.38,0.19a8.43,8.43,0,0,0,1.49-4.3,0,0,0,0,1,0,0,5.23,5.23,0,0,0,1.17-1A5.08,5.08,0,0,0,129,237.6a6,6,0,0,1-1.23,2.23,6.16,6.16,0,0,1-1.12,1,0.07,0.07,0,0,1-.12-0.05c0-.4,0-0.82-0.07-1.27a15,15,0,0,0-.3-1.8,0.06,0.06,0,0,1,0,0,7.3,7.3,0,0,0,1.06-3,7.59,7.59,0,0,0-.13-2.59c0-.09-0.15-0.07-0.15,0a8.88,8.88,0,0,1-.88,4.59,0.07,0.07,0,0,1-.13,0,11.25,11.25,0,0,0-.58-1.74,11.48,11.48,0,0,0-1.07-2,0.05,0.05,0,0,1,0,0,7.21,7.21,0,0,0,.11-3.4A7.8,7.8,0,0,0,123.42,227Z"/><path class="cls-19" d="M95.05,207.44l0.67,12.07a58.74,58.74,0,0,0,5.28-5.6c0.87-1.06,1.67-2.1,2.4-3.11l-0.7-12.54c-1,1.45-2.17,3-3.45,4.52C97.82,204.5,96.41,206.05,95.05,207.44Z"/><path class="cls-19" d="M92.09,153.79l0.67,12.07a58.74,58.74,0,0,0,5.28-5.6c0.87-1.06,1.67-2.1,2.4-3.11l-0.7-12.54c-1,1.45-2.17,3-3.45,4.52C94.85,150.85,93.44,152.4,92.09,153.79Z"/><path class="cls-19" d="M96.44,232.51l0.67,12.07a58.74,58.74,0,0,0,5.28-5.6c0.87-1.06,1.67-2.1,2.4-3.11l-0.7-12.54c-1,1.45-2.17,3-3.45,4.52C99.21,229.57,97.79,231.12,96.44,232.51Z"/><path class="cls-24" d="M104.33,253l-1.62.09L93.45,85.55,93.34,83.5,95,83.42l0,0.25Z"/><path class="cls-25" d="M107.86,251.54a2.35,2.35,0,0,1-.13.91c-0.78,2.16-4.94,2.52-5.16,1.85a0.79,0.79,0,0,1,.38-0.67,5.45,5.45,0,0,1-2.62-.08c-0.79-.23-1.85-0.73-1.79-1.07a1,1,0,0,1,.86-0.34,6.25,6.25,0,0,1-1.41-.57c-0.81-.45-2-1.35-1.88-1.85a0.8,0.8,0,0,1,.79-0.36,4.7,4.7,0,0,1-1.93-1.6c-0.36-.52-0.92-1.56-0.64-1.9a1.07,1.07,0,0,1,1.06.1,5.31,5.31,0,0,1-1.08-1.71c-0.37-.95-0.56-2.25-0.26-2.41,0.11-.06.33,0,0.81,0.59a8,8,0,0,1-.24-1.78c0-.25,0-2.14.45-2.29,0.13,0,.33,0,0.65.49-0.06-2.46.36-4.27,1.05-4.44s1.38,0.82,1.46.92a3.49,3.49,0,0,1,.68,1.35c0.08-1.31.45-1.5,0.54-1.54,0.6-.24,1.55,1.09,2,1.94a6.15,6.15,0,0,1,.51,1.37,1.51,1.51,0,0,1,.71-1.07c0.62-.2,1.28.75,1.61,1.22a5.27,5.27,0,0,1,.8,1.84,1.11,1.11,0,0,1,.57-1c0.59-.14,1.31,1.5,1.47,1.87a7.91,7.91,0,0,1,.6,2.26c0.27-1,.52-1.11.65-1.12,0.43,0,.83,1.22,1,2a6.15,6.15,0,0,1-.12,2.61,1.12,1.12,0,0,1,1-.43c0.42,0.26.22,1.69-.21,2.67A4.69,4.69,0,0,1,107.86,251.54Z"/><path class="cls-26" d="M105.66,252.11a6.42,6.42,0,0,1-4.43.34c-3.49-1.11-4.67-5.33-5-6.57a13.75,13.75,0,0,1,0-7.19c0.18,1.5,1.23,9.48,6.83,12.49A9.34,9.34,0,0,0,105.66,252.11Z"/><path class="cls-27" d="M107.41,251a7.2,7.2,0,0,1-2.29-.37c-5.84-1.95-7.4-11-7.58-12.14,1.38,0.65,10,4.83,10,11.12A7,7,0,0,1,107.41,251Z"/><path class="cls-23" d="M111.43,250.17a0.06,0.06,0,0,1,0,0,6.83,6.83,0,0,1-3.46,1.62,6.27,6.27,0,0,1-3.42-.46h0a3.84,3.84,0,0,1-1,.45,3.76,3.76,0,0,1-2.32-.14,4.48,4.48,0,0,0,1.87-.05,4.67,4.67,0,0,0,1-.39,0.06,0.06,0,0,0,0-.1c-0.26-.14-0.53-0.3-0.81-0.48a10.48,10.48,0,0,1-1.08-.81h0a5.45,5.45,0,0,1-2.33-.32,5.69,5.69,0,0,1-1.65-1s0-.12.05-0.09a6.82,6.82,0,0,0,1.78.75,6.66,6.66,0,0,0,1.54.22,0.06,0.06,0,0,0,0-.1,8.33,8.33,0,0,1-.95-1,8.79,8.79,0,0,1-.94-1.38l0,0a5.27,5.27,0,0,1-2.27-1.08,5.83,5.83,0,0,1-1.28-1.46c0-.06,0-0.12.08-0.07a5.73,5.73,0,0,0,1.91,1.54,5.2,5.2,0,0,0,1,.37,0.05,0.05,0,0,0,.05-0.08,16.84,16.84,0,0,1-1.75-3.86,18.39,18.39,0,0,1-.73-7,0,0,0,1,1,.1,0,24.83,24.83,0,0,0,.65,4.9,23.82,23.82,0,0,0,1.38,4.12,0,0,0,0,0,.09,0,12.71,12.71,0,0,1,.46-4.53,0,0,0,1,1,.1,0,15.15,15.15,0,0,0-.2,1.87,10,10,0,0,0,.58,4.58,7.19,7.19,0,0,0,2.16,2.82,0.05,0.05,0,0,0,.08-0.06,9.13,9.13,0,0,1-.39-2.42,9.41,9.41,0,0,1,.42-3,0,0,0,1,1,.1,0,14.39,14.39,0,0,0-.12,3.2,14,14,0,0,0,.44,2.6v0a7.83,7.83,0,0,0,1.21.93,7.52,7.52,0,0,0,1,.53,0.05,0.05,0,0,0,.06-0.07,5.54,5.54,0,0,1-.31-1.36,5.84,5.84,0,0,1,.2-2.17,0,0,0,1,1,.1,0,8.22,8.22,0,0,0,0,2.23,7.87,7.87,0,0,0,.38,1.5l0,0a5.84,5.84,0,0,0,2.94.21,6.44,6.44,0,0,0,3.15-1.62,0,0,0,0,1,.08,0v0.42Z"/><path class="cls-20" d="M125.87,249a1.35,1.35,0,0,0-1.31-.21,6.46,6.46,0,0,0,1.82-1.72c0.73-1,1.37-2.51,1.06-2.81-0.11-.11-0.41-0.08-1.15.46a9.61,9.61,0,0,0,.85-2.05c0.08-.3.71-2.55,0.17-2.88-0.14-.09-0.4-0.07-0.94.39,0.83-2.94.9-5.23,0.12-5.65s-1.9.55-2,.65a4.36,4.36,0,0,0-1.24,1.4c0.31-1.59-.07-1.93-0.17-2-0.63-.48-2.2.82-3,1.69a7.57,7.57,0,0,0-1,1.48,1.87,1.87,0,0,0-.52-1.51c-0.68-.44-1.76.49-2.31,1a6.55,6.55,0,0,0-1.53,1.95c0-1.07-.24-1.3-0.38-1.37-0.66-.35-2,1.38-2.33,1.77a9.66,9.66,0,0,0-1.43,2.52c0-1.27-.28-1.5-0.43-1.54-0.5-.18-1.37,1.2-1.79,2.11a7.47,7.47,0,0,0-.67,3.15,1.41,1.41,0,0,0-1.08-.83c-0.59.17-.79,2-0.57,3.26a5.67,5.67,0,0,0,1.51,3c0.14,0.15.27,0.28,0.39,0.39,0,0.1-.06.23-0.1,0.38a2.81,2.81,0,0,0,0,.75c0.26,2.83,5.13,4.57,5.61,3.84a1,1,0,0,0-.25-0.92,6.86,6.86,0,0,0,3.17.74c1,0,2.44-.3,2.48-0.72a1.29,1.29,0,0,0-.93-0.69,7.87,7.87,0,0,0,1.87-.23c1.11-.28,2.86-1,2.83-1.63a1,1,0,0,0-.83-0.68,5.82,5.82,0,0,0,2.81-1.32C125.09,250.59,126.1,249.51,125.87,249Z"/><path class="cls-28" d="M110.35,252.95a8,8,0,0,0,5.21,1.8c4.53-.23,7.25-4.91,8-6.29a17,17,0,0,0,2.18-8.62c-0.68,1.74-4.42,11-12.07,12.82A11.54,11.54,0,0,1,110.35,252.95Z"/><path class="cls-29" d="M108.6,251a8.92,8.92,0,0,0,2.86.28c7.6-.5,12.29-10.86,12.85-12.16-1.86.34-13.53,2.62-15.45,10.17A8.7,8.7,0,0,0,108.6,251Z"/><path class="cls-23" d="M124.19,246.77a0.07,0.07,0,0,0-.07-0.11,7,7,0,0,1-2.77,1.25A6.51,6.51,0,0,1,120,248a0.07,0.07,0,0,1,0-.12,20.73,20.73,0,0,0,3.29-4.07,22.64,22.64,0,0,0,3-8.11,0.06,0.06,0,1,0-.12,0,30.77,30.77,0,0,1-2.31,5.66,29.59,29.59,0,0,1-2.93,4.5,0.06,0.06,0,0,1-.11-0.07,15.56,15.56,0,0,0,.86-5.58,0.06,0.06,0,1,0-.12,0,19.19,19.19,0,0,1-.34,2.31,12.37,12.37,0,0,1-2.11,5.3,8.94,8.94,0,0,1-3.46,2.71,0.07,0.07,0,0,1-.08-0.1,11.46,11.46,0,0,0,1.23-2.78,11.63,11.63,0,0,0,.44-3.75,0.06,0.06,0,1,0-.12,0,17.62,17.62,0,0,1-.85,3.87,17.38,17.38,0,0,1-1.34,3l0,0a10.14,10.14,0,0,1-1.74.73,9.09,9.09,0,0,1-1.39.31,0.06,0.06,0,0,1-.05-0.1,7,7,0,0,0,.8-1.54,7.15,7.15,0,0,0,.43-2.66,0.06,0.06,0,1,0-.12,0,10.22,10.22,0,0,1-.73,2.66,10,10,0,0,1-.92,1.67,0.06,0.06,0,0,1,0,0,7.32,7.32,0,0,1-3.59-.67l-0.06,0c0.14,0.15.27,0.28,0.39,0.39,0,0.1-.06.23-0.1,0.38a7.71,7.71,0,0,0,4.13.47,0,0,0,0,1,0,0,4.78,4.78,0,0,0,1.09.85,4.64,4.64,0,0,0,2.83.57,5.51,5.51,0,0,1-2.23-.65,5.63,5.63,0,0,1-1.12-.8,0.07,0.07,0,0,1,0-.12c0.35-.08.73-0.19,1.12-0.32a13.73,13.73,0,0,0,1.54-.63h0a6.67,6.67,0,0,0,2.9.35,6.93,6.93,0,0,0,2.28-.63c0.07,0,0-.15,0-0.13a8.11,8.11,0,0,1-4.27.12,0.07,0.07,0,0,1,0-.12,10.29,10.29,0,0,0,1.44-.87,10.5,10.5,0,0,0,1.55-1.35h0a6.59,6.59,0,0,0,3.05-.58A7.12,7.12,0,0,0,124.19,246.77Z"/><path class="cls-30" d="M96.36,83.36l-1.18.06H95l-1.62.07q-2.61.14-5.13,0.31l-0.29-5.23-0.68-12.3q-0.29-5.52-.61-11a1.4,1.4,0,0,1,1.2-1.48c0.85-.12,1.76-0.21,2.72-0.27s1.89-.07,2.75,0h0.13a1.39,1.39,0,0,1,1.34,1.33L94.9,57Z"/><path class="cls-31" d="M94.78,54.79L94.91,57c-0.76,1.16-1.61,2.37-2.57,3.6a53,53,0,0,1-5.09,5.66l-0.61-11a1.4,1.4,0,0,1,1.2-1.47c0.84-.12,1.75-0.21,2.71-0.27s2-.07,2.89,0A1.4,1.4,0,0,1,94.78,54.79Z"/><path class="cls-31" d="M96.27,81.94c-0.35.49-.71,1-1.09,1.48H95l-1.62.07q-2.61.14-5.13,0.31l-0.29-5.23c1.36-1.38,2.77-2.94,4.19-4.66,0.22-.26.44-0.53,0.64-0.79,0.53-.65,1-1.31,1.52-1.94s0.88-1.2,1.29-1.78Z"/><path class="cls-24" d="M95,83.42l-1.62.07L92.76,73.12,92.09,60.94h0l-0.41-7.46,0.35,0H93.3l0.3,5.46h0l0.68,12.25Z"/><path class="cls-32" d="M132.93,272.44c0,1-.09,2-0.13,2.93a3.4,3.4,0,0,1-3.06,3.5l-5.05,0a1.36,1.36,0,0,0,.82-0.86c-0.06-.58-1.86-0.84-7.55-0.92-1.35,0-2.93,0-4.76,0-10.53,0-13.24.25-13.31,1a1.22,1.22,0,0,0,.73.81H95.22a2.93,2.93,0,0,1-2.65-3l-0.21-3.53a96.8,96.8,0,0,0,20.75,2.18c1.65,0,3.27-.06,4.84-0.15A97.38,97.38,0,0,0,132.93,272.44Z"/><ellipse class="cls-33" cx="128.26" cy="224.52" rx="2.76" ry="2.68" transform="translate(-109.42 122.69) rotate(-37.07)"/><ellipse class="cls-34" cx="125.9" cy="248.17" rx="2.19" ry="2.13" transform="translate(-150.12 283.5) rotate(-70.4)"/><ellipse class="cls-35" cx="121.78" cy="238.29" rx="2.86" ry="2.81" transform="translate(-143.56 273.05) rotate(-70.4)"/><ellipse class="cls-36" cx="129.95" cy="222.81" rx="1.45" ry="1.41" transform="translate(-108.05 123.36) rotate(-37.07)"/><ellipse class="cls-37" cx="119.57" cy="239.79" rx="1.51" ry="1.49" transform="translate(-146.44 271.97) rotate(-70.4)"/><rect class="cls-38" x="109.36" y="102.51" width="21.61" height="20.73" rx="3.56" ry="3.56" transform="translate(52.45 -37.44) rotate(22.54)"/><rect class="cls-39" x="109.08" y="103.93" width="19.67" height="18.87" rx="3.31" ry="3.31" transform="translate(52.54 -36.93) rotate(22.54)"/><path class="cls-40" d="M112.53,103.1a2.33,2.33,0,0,1,3.14-1.3l13.73,5.7a2.64,2.64,0,0,1,1.42,1.72,2.44,2.44,0,0,1-.12,1.42l-5.39,13a2.39,2.39,0,0,1-1.19,1.28,2.42,2.42,0,0,1-1.95,0,2.53,2.53,0,0,0,1.83-.7,2.36,2.36,0,0,0,.58-1l5.33-12.85a2.26,2.26,0,0,0-.89-2.28l-13.41-5.65a2.33,2.33,0,0,0-1.25-.34A2.51,2.51,0,0,0,112.53,103.1Z"/><rect class="cls-41" x="115.14" y="120.25" width="21.8" height="20.92" rx="3.56" ry="3.56" transform="matrix(0.87, -0.49, 0.49, 0.87, -48.04, 79.09)"/><rect class="cls-42" x="115.73" y="122.48" width="19.85" height="19.04" rx="3.31" ry="3.31" transform="translate(-48.73 79.07) rotate(-29.53)"/><path class="cls-40" d="M113.52,130.71a2.35,2.35,0,0,1,.91-3.3L127.49,120a2.66,2.66,0,0,1,2.25-.06,2.47,2.47,0,0,1,1.05,1l7,12.36a2.42,2.42,0,0,1,.28,1.74,2.45,2.45,0,0,1-1.19,1.56,2.56,2.56,0,0,0,.58-1.88,2.38,2.38,0,0,0-.42-1.07l-6.92-12.22a2.28,2.28,0,0,0-2.37-.7l-12.82,7.17a2.35,2.35,0,0,0-1,.78A2.53,2.53,0,0,0,113.52,130.71Z"/><rect class="cls-38" x="113.97" y="166.3" width="20.77" height="19.93" rx="3.56" ry="3.56" transform="translate(77.07 -34.21) rotate(22.54)"/><rect class="cls-43" x="113.7" y="167.66" width="18.91" height="18.14" rx="3.31" ry="3.31" transform="translate(77.16 -33.71) rotate(22.54)"/><path class="cls-40" d="M117,166.86a2.24,2.24,0,0,1,3-1.25l13.2,5.48a2.54,2.54,0,0,1,1.37,1.65,2.35,2.35,0,0,1-.12,1.36l-5.19,12.49a2.3,2.3,0,0,1-1.15,1.23,2.33,2.33,0,0,1-1.87,0,2.44,2.44,0,0,0,1.76-.67,2.27,2.27,0,0,0,.56-0.94l5.13-12.35a2.18,2.18,0,0,0-.86-2.19L120,166.27a2.24,2.24,0,0,0-1.2-.32A2.41,2.41,0,0,0,117,166.86Z"/><path class="cls-20" d="M113.49,139.33a1.35,1.35,0,0,0-1.25.44,6.46,6.46,0,0,0,.78-2.38c0.16-1.24,0-2.86-.41-3-0.15,0-.4.12-0.79,1a9.61,9.61,0,0,0-.24-2.21c-0.07-.3-0.6-2.58-1.23-2.61-0.17,0-.38.13-0.64,0.79-0.67-3-1.71-5-2.6-5s-1.41,1.39-1.48,1.54a4.36,4.36,0,0,0-.42,1.82c-0.49-1.54-1-1.67-1.12-1.69-0.79-.11-1.54,1.77-1.82,2.92a7.57,7.57,0,0,0-.2,1.8,1.87,1.87,0,0,0-1.18-1.07c-0.8-.06-1.31,1.27-1.57,1.95a6.55,6.55,0,0,0-.41,2.45c-0.49-1-.84-1-1-1-0.75,0-1.12,2.18-1.2,2.67a9.66,9.66,0,0,0,0,2.9c-0.62-1.11-1-1.18-1.11-1.15-0.53.08-.63,1.71-0.56,2.71a7.47,7.47,0,0,0,.92,3.09A1.41,1.41,0,0,0,94.6,145c-0.43.43,0.24,2.09,1.06,3.14A5.67,5.67,0,0,0,98.39,150c0.2,0.07.38,0.11,0.53,0.15s0.06,0.23.1,0.38a2.81,2.81,0,0,0,.34.68c1.58,2.36,6.69,1.56,6.77.69a1,1,0,0,0-.66-0.68,6.86,6.86,0,0,0,3.13-.87c0.88-.51,2-1.43,1.83-1.82a1.29,1.29,0,0,0-1.14-.16,7.87,7.87,0,0,0,1.53-1.1c0.84-.78,2-2.23,1.7-2.78a1,1,0,0,0-1.06-.2,5.82,5.82,0,0,0,1.83-2.5C113.56,141.08,113.93,139.65,113.49,139.33Z"/><path class="cls-44" d="M101.75,150.21a8,8,0,0,0,5.43-.91c3.87-2.37,4-7.78,4.05-9.37a17,17,0,0,0-2.21-8.62c0.24,1.86,1.37,11.75-4.46,17A11.54,11.54,0,0,1,101.75,150.21Z"/><path class="cls-45" d="M99.29,149.37a8.92,8.92,0,0,0,2.64-1.12c6.44-4.08,5.59-15.42,5.46-16.82-1.47,1.19-10.62,8.78-8.7,16.33A8.7,8.7,0,0,0,99.29,149.37Z"/><path class="cls-23" d="M110.94,138.16a0.07,0.07,0,0,0-.11-0.06,7,7,0,0,1-1.84,2.42,6.51,6.51,0,0,1-1.11.75,0.07,0.07,0,0,1-.09-0.08,20.73,20.73,0,0,0,.94-5.15,22.64,22.64,0,0,0-1.22-8.58,0.06,0.06,0,1,0-.11,0,30.77,30.77,0,0,1,.69,6.08,29.59,29.59,0,0,1-.42,5.35,0.06,0.06,0,0,1-.12,0,15.56,15.56,0,0,0-1.92-5.31,0.06,0.06,0,1,0-.11.06,19.19,19.19,0,0,1,.8,2.19,12.37,12.37,0,0,1,.68,5.67,8.94,8.94,0,0,1-1.74,4,0.07,0.07,0,0,1-.12,0,11.46,11.46,0,0,0-.25-3,11.63,11.63,0,0,0-1.41-3.5,0.06,0.06,0,1,0-.11.06,17.62,17.62,0,0,1,1.1,3.8,17.38,17.38,0,0,1,.25,3.26s0,0,0,0a10.14,10.14,0,0,1-1.18,1.48,9.09,9.09,0,0,1-1.07.94,0.06,0.06,0,0,1-.09-0.06,7,7,0,0,0,0-1.73,7.15,7.15,0,0,0-.9-2.54,0.06,0.06,0,1,0-.11.06,10.22,10.22,0,0,1,.63,2.68,10,10,0,0,1,0,1.91,0.06,0.06,0,0,1,0,0A7.32,7.32,0,0,1,98.46,150H98.39c0.2,0.07.38,0.11,0.53,0.15s0.06,0.23.1,0.38a7.71,7.71,0,0,0,3.86-1.56,0,0,0,0,1,0,0,4.78,4.78,0,0,0,1.36.23,4.64,4.64,0,0,0,2.76-.85,5.51,5.51,0,0,1-2.27.49,5.63,5.63,0,0,1-1.37-.16,0.07,0.07,0,0,1,0-.11c0.27-.24.55-0.51,0.83-0.82a13.73,13.73,0,0,0,1.05-1.29l0,0a6.67,6.67,0,0,0,2.71-1.08,6.93,6.93,0,0,0,1.7-1.65c0-.07,0-0.15-0.09-0.1a8.11,8.11,0,0,1-3.69,2.15,0.07,0.07,0,0,1-.07-0.1,10.29,10.29,0,0,0,.85-1.45,10.5,10.5,0,0,0,.72-1.93,0,0,0,0,1,0,0,6.59,6.59,0,0,0,2.4-2A7.12,7.12,0,0,0,110.94,138.16Z"/><ellipse class="cls-46" cx="131.09" cy="214.06" rx="1.92" ry="1.87" transform="translate(-114.55 265.72) rotate(-70.4)"/><path class="cls-25" d="M113.41,181.54a4.93,4.93,0,0,1-1.86,2.19,4.49,4.49,0,0,1-.41.25c0,0.09,0,.21,0,0.34a3.19,3.19,0,0,1-.13.66c-0.83,2.35-5.17,2.77-5.41,2a0.89,0.89,0,0,1,.4-0.73,5.47,5.47,0,0,1-2.74-.07,6.48,6.48,0,0,1-1.23-.51l-0.06-1,0.33-.06-0.34-.1-0.06-1-0.12-2.23,0-.29-0.13-2.3h0l0-.59-0.06-.93-0.08-1.67-0.1-1.73-0.21-3.69-0.21-4,0.23,0.26a4,4,0,0,1,.7,1.47c0.09-1.42.48-1.63,0.58-1.68,0.63-.26,1.62,1.18,2.07,2.1a6.87,6.87,0,0,1,.52,1.49,1.69,1.69,0,0,1,.76-1.18c0.64-.21,1.33.81,1.67,1.33a5.68,5.68,0,0,1,.83,2c0.21-.92.48-1.06,0.61-1.08,0.62-.16,1.35,1.62,1.52,2a9.22,9.22,0,0,1,.61,2.47c0.29-1.08.55-1.22,0.68-1.23,0.45,0,.86,1.33,1,2.19a7,7,0,0,1-.14,2.84,1.16,1.16,0,0,1,1.06-.47C114.09,178.92,113.88,180.48,113.41,181.54Z"/><path class="cls-47" d="M101.79,181.36l0.12,2.23a5.71,5.71,0,0,0,2.3,1.43,6.48,6.48,0,0,0,4.63-.39,8.54,8.54,0,0,1-1.69-.53h0l-0.44-.19-0.54-.28a9.78,9.78,0,0,1-2-1.47c-0.17-.16-0.33-0.33-0.49-0.49a13.45,13.45,0,0,1-2-2.89l0.13,2.3Z"/><path class="cls-48" d="M110.83,181.86a7.86,7.86,0,0,1-.16,1.51,7.32,7.32,0,0,1-2.39-.39l-0.06,0-0.38-.15a7.76,7.76,0,0,1-2.38-1.59,6.28,6.28,0,0,1-.5-0.49,15.14,15.14,0,0,1-2.67-4.35c-0.19-.41-0.35-0.82-0.49-1.23s-0.3-.89-0.43-1.31l-0.21-3.69C103.74,171.5,110.89,175.74,110.83,181.86Z"/><path class="cls-23" d="M114.88,182v0.46a0.07,0.07,0,0,1,0,0,7.08,7.08,0,0,1-3.63,1.79h-0.09a6.24,6.24,0,0,1-3.46-.49h0a3.2,3.2,0,0,1-.48.26h0a3,3,0,0,1-.58.23,3.75,3.75,0,0,1-2.43-.14,4.55,4.55,0,0,0,2-.07,3.67,3.67,0,0,0,.62-0.21,3.79,3.79,0,0,0,.48-0.22,0.06,0.06,0,0,0,0-.1,8.65,8.65,0,0,1-.84-0.52,10.92,10.92,0,0,1-1.12-.87l0,0a5.69,5.69,0,0,1-2.43-.34,6.15,6.15,0,0,1-1-.48l0-.29a7,7,0,0,0,1.16.44c0.27,0.07.52,0.12,0.76,0.16a7.5,7.5,0,0,0,.85.07,0.07,0.07,0,0,0,0-.11,9.11,9.11,0,0,1-1-1,9.57,9.57,0,0,1-1-1.5l0,0a6.3,6.3,0,0,1-.94-0.29h0l0-.59L102,178.3a0.05,0.05,0,0,0,.06-0.08q-0.27-.45-0.53-1l-0.08-1.67c0.08,0.24.18,0.47,0.27,0.69,0,0.06.1,0,.09,0,0-.33,0-0.68,0-1.07a14.41,14.41,0,0,1,.14-1.9,12.55,12.55,0,0,1,.41-2,0,0,0,1,1,.09,0,18,18,0,0,0-.21,2,15.34,15.34,0,0,0,.07,3,8.24,8.24,0,0,0,.5,2,7.76,7.76,0,0,0,2.24,3.06s0.09,0,.08-0.07-0.1-.38-0.16-0.6a11,11,0,0,1-.24-2,10.77,10.77,0,0,1,.46-3.31,0.05,0.05,0,1,1,.1,0,16.26,16.26,0,0,0-.15,3.49,14,14,0,0,0,.34,2.33c0,0.18.07,0.35,0.11,0.51l0,0a7.81,7.81,0,0,0,1.25,1,8.83,8.83,0,0,0,1.06.58s0.08,0,.07-0.08a4.52,4.52,0,0,1-.13-0.46,5.67,5.67,0,0,1-.19-1,6.83,6.83,0,0,1,.22-2.37c0-.07.11-0.06,0.1,0a9.63,9.63,0,0,0,0,2.43,8,8,0,0,0,.22,1.09c0.06,0.2.11,0.37,0.17,0.54a0,0,0,0,0,0,0,5.86,5.86,0,0,0,3.06.21l0.07,0a6.77,6.77,0,0,0,3.24-1.76A0,0,0,0,1,114.88,182Z"/><path class="cls-49" d="M102.5,181.36l0-.29m0.2,3.52v0.16l0.06,1"/><path class="cls-40" d="M103.37,102.44l-0.2-.14h0a2.59,2.59,0,0,0-1.79-.4,2.48,2.48,0,0,0-1.11.49l-2.76,1.7-0.06-1h0l2.43-1.49a2.57,2.57,0,0,1,1.82-.35,2.52,2.52,0,0,1,1.62,1.11Z"/><ellipse class="cls-12" cx="119.05" cy="154.87" rx="11.51" ry="11.89"/><path class="cls-13" d="M125.83,145.26a12.34,12.34,0,0,1,3.29,15.65,11.52,11.52,0,0,1-15.8,4.27,15.26,15.26,0,0,0,11.45-7.51A16,16,0,0,0,125.83,145.26Z"/><path class="cls-14" d="M116.22,146.5a0.07,0.07,0,0,1,0,.07,0.61,0.61,0,0,1-.52-0.05,0.62,0.62,0,0,1-.27-0.45,0.17,0.17,0,0,1,.14-0.19,0.62,0.62,0,0,1,.59.22A0.63,0.63,0,0,1,116.22,146.5Z"/><path class="cls-14" d="M113.65,150.78a0.07,0.07,0,0,1-.08,0,0.62,0.62,0,0,1-.25-0.93,0.17,0.17,0,0,1,.23,0,0.65,0.65,0,0,1,.29.57A0.63,0.63,0,0,1,113.65,150.78Z"/><path class="cls-14" d="M118.37,151.08a0.07,0.07,0,0,1-.06-0.05,0.66,0.66,0,0,1,.05-0.54,0.6,0.6,0,0,1,.44-0.28,0.17,0.17,0,0,1,.19.14,0.66,0.66,0,0,1-.21.61A0.59,0.59,0,0,1,118.37,151.08Z"/><path class="cls-14" d="M123.08,153.48a0.07,0.07,0,0,1-.08,0,0.66,0.66,0,0,1-.1-0.53,0.61,0.61,0,0,1,.34-0.4,0.17,0.17,0,0,1,.22.08,0.66,0.66,0,0,1,0,.65A0.6,0.6,0,0,1,123.08,153.48Z"/><path class="cls-15" d="M124.21,149.22a0.07,0.07,0,0,1-.07,0,0.66,0.66,0,0,1,0-.54,0.6,0.6,0,0,1,.4-0.33,0.17,0.17,0,0,1,.2.12,0.66,0.66,0,0,1-.14.63A0.59,0.59,0,0,1,124.21,149.22Z"/><path class="cls-14" d="M121,149a0.07,0.07,0,0,1,0,.07,0.61,0.61,0,0,1-.52-0.05,0.62,0.62,0,0,1-.27-0.45,0.17,0.17,0,0,1,.14-0.19,0.62,0.62,0,0,1,.59.22A0.63,0.63,0,0,1,121,149Z"/><path class="cls-15" d="M115,150.05a0.07,0.07,0,0,1,.07,0,0.66,0.66,0,0,1,.05.54,0.61,0.61,0,0,1-.37.36,0.17,0.17,0,0,1-.21-0.1,0.66,0.66,0,0,1,.09-0.64A0.59,0.59,0,0,1,115,150.05Z"/><path class="cls-14" d="M118.62,154.77a0.07,0.07,0,0,1,0,.07,0.61,0.61,0,0,1-.52-0.05,0.62,0.62,0,0,1-.27-0.45,0.17,0.17,0,0,1,.14-0.19,0.62,0.62,0,0,1,.59.22A0.63,0.63,0,0,1,118.62,154.77Z"/><path class="cls-15" d="M118.2,149.76a0.07,0.07,0,0,1,0,.07,0.61,0.61,0,0,1-.52-0.05,0.62,0.62,0,0,1-.27-0.45,0.17,0.17,0,0,1,.14-0.19,0.62,0.62,0,0,1,.59.22A0.63,0.63,0,0,1,118.2,149.76Z"/><path class="cls-14" d="M115,154.75a0.07,0.07,0,0,1-.08,0,0.62,0.62,0,0,1-.25-0.93,0.17,0.17,0,0,1,.23,0,0.65,0.65,0,0,1,.29.57A0.63,0.63,0,0,1,115,154.75Z"/><path class="cls-14" d="M114.17,156.51a0.07,0.07,0,0,1,0,.07,0.61,0.61,0,0,1-.52-0.05,0.62,0.62,0,0,1-.27-0.45,0.17,0.17,0,0,1,.14-0.19,0.62,0.62,0,0,1,.59.22A0.63,0.63,0,0,1,114.17,156.51Z"/><path class="cls-15" d="M115.8,156.69a0.07,0.07,0,0,1,0,.07,0.61,0.61,0,0,1-.52-0.05,0.62,0.62,0,0,1-.27-0.45,0.17,0.17,0,0,1,.14-0.19,0.62,0.62,0,0,1,.59.22A0.63,0.63,0,0,1,115.8,156.69Z"/><path class="cls-14" d="M111.62,161.32a0.07,0.07,0,0,1-.08,0,0.62,0.62,0,0,1-.25-0.93,0.17,0.17,0,0,1,.23,0,0.65,0.65,0,0,1,.29.57A0.63,0.63,0,0,1,111.62,161.32Z"/><path class="cls-14" d="M117.94,161.27a0.07,0.07,0,0,1-.06-0.05,0.66,0.66,0,0,1,.05-0.54,0.6,0.6,0,0,1,.44-0.28,0.17,0.17,0,0,1,.19.14,0.66,0.66,0,0,1-.21.61A0.59,0.59,0,0,1,117.94,161.27Z"/><path class="cls-14" d="M120.57,159.21a0.07,0.07,0,0,1,0,.07,0.61,0.61,0,0,1-.52-0.05,0.62,0.62,0,0,1-.27-0.45,0.17,0.17,0,0,1,.14-0.19,0.62,0.62,0,0,1,.59.22A0.63,0.63,0,0,1,120.57,159.21Z"/><path class="cls-14" d="M114.58,160.24a0.07,0.07,0,0,1,.07,0,0.66,0.66,0,0,1,.05.54,0.61,0.61,0,0,1-.37.36,0.17,0.17,0,0,1-.21-0.1,0.66,0.66,0,0,1,.09-0.64A0.59,0.59,0,0,1,114.58,160.24Z"/><path class="cls-14" d="M117.78,160a0.07,0.07,0,0,1,0,.07,0.61,0.61,0,0,1-.52-0.05,0.62,0.62,0,0,1-.27-0.45,0.17,0.17,0,0,1,.14-0.19,0.62,0.62,0,0,1,.59.22A0.63,0.63,0,0,1,117.78,160Z"/><path class="cls-14" d="M109.56,151a0.07,0.07,0,0,1,0-.08,0.64,0.64,0,0,1,.33-0.42,0.58,0.58,0,0,1,.51,0,0.18,0.18,0,0,1,.08.23,0.63,0.63,0,0,1-.5.38A0.59,0.59,0,0,1,109.56,151Z"/><path class="cls-14" d="M110.79,152a0.07,0.07,0,0,1,.07,0,0.66,0.66,0,0,1,.05.54,0.61,0.61,0,0,1-.37.36,0.17,0.17,0,0,1-.21-0.1,0.66,0.66,0,0,1,.09-0.64A0.59,0.59,0,0,1,110.79,152Z"/><path class="cls-15" d="M109.45,156a0.07,0.07,0,0,1-.08,0,0.62,0.62,0,0,1-.25-0.93,0.17,0.17,0,0,1,.23,0,0.65,0.65,0,0,1,.29.57A0.63,0.63,0,0,1,109.45,156Z"/><path class="cls-14" d="M110.29,157.72a0.07,0.07,0,0,1,0,.07,0.61,0.61,0,0,1-.52-0.05,0.62,0.62,0,0,1-.27-0.45,0.17,0.17,0,0,1,.14-0.19,0.62,0.62,0,0,1,.59.22A0.63,0.63,0,0,1,110.29,157.72Z"/><path class="cls-15" d="M111.92,157.9a0.07,0.07,0,0,1,0,.07,0.61,0.61,0,0,1-.52-0.05,0.62,0.62,0,0,1-.27-0.45,0.17,0.17,0,0,1,.14-0.19,0.62,0.62,0,0,1,.59.22A0.63,0.63,0,0,1,111.92,157.9Z"/><path class="cls-15" d="M121.47,149.45a0.07,0.07,0,0,1,.07,0,0.61,0.61,0,0,1,.47.23,0.64,0.64,0,0,1,.11.52,0.17,0.17,0,0,1-.19.13A0.6,0.6,0,0,1,121.47,149.45Z"/><path class="cls-14" d="M125.31,146.34a0.07,0.07,0,0,1,.08,0,0.65,0.65,0,0,1,.19.51,0.62,0.62,0,0,1-.26.46,0.17,0.17,0,0,1-.23,0,0.66,0.66,0,0,1-.08-0.64A0.61,0.61,0,0,1,125.31,146.34Z"/><path class="cls-14" d="M121,144.39a0.07,0.07,0,0,1,0,.07,0.65,0.65,0,0,1-.23.49,0.59,0.59,0,0,1-.5.11,0.17,0.17,0,0,1-.13-0.2,0.64,0.64,0,0,1,.4-0.5A0.58,0.58,0,0,1,121,144.39Z"/><path class="cls-14" d="M102,114.17a0.1,0.1,0,0,1-.07.09,0.86,0.86,0,0,1-.74-0.07,0.88,0.88,0,0,1-.39-0.64,0.25,0.25,0,0,1,.2-0.28,0.87,0.87,0,0,1,.84.31A0.9,0.9,0,0,1,102,114.17Z"/><path class="cls-15" d="M117.83,145.39a0.07,0.07,0,0,1,.07,0,0.61,0.61,0,0,1,.47.23,0.64,0.64,0,0,1,.11.52,0.17,0.17,0,0,1-.19.13A0.6,0.6,0,0,1,117.83,145.39Z"/><path class="cls-14" d="M123.8,146.55a0.07,0.07,0,0,1-.06-0.06,0.66,0.66,0,0,1,.13-0.53,0.59,0.59,0,0,1,.47-0.21,0.17,0.17,0,0,1,.16.17,0.65,0.65,0,0,1-.3.57A0.58,0.58,0,0,1,123.8,146.55Z"/><path class="cls-14" d="M120.7,145.69a0.07,0.07,0,0,1,.07,0,0.61,0.61,0,0,1,.47.23,0.64,0.64,0,0,1,.11.52,0.17,0.17,0,0,1-.19.13A0.6,0.6,0,0,1,120.7,145.69Z"/><path class="cls-15" d="M126.45,156.23a0.08,0.08,0,0,1,0,.08,0.62,0.62,0,0,1-.46.26,0.59,0.59,0,0,1-.47-0.22,0.18,0.18,0,0,1,0-.24,0.61,0.61,0,0,1,.61-0.16A0.6,0.6,0,0,1,126.45,156.23Z"/><path class="cls-15" d="M128.31,152.55a0.07,0.07,0,0,1-.06.05,0.61,0.61,0,0,1-.5-0.17,0.63,0.63,0,0,1-.17-0.5,0.17,0.17,0,0,1,.18-0.16,0.63,0.63,0,0,1,.53.35A0.64,0.64,0,0,1,128.31,152.55Z"/><path class="cls-14" d="M127,149.43a0.07,0.07,0,0,1,.05.06,0.66,0.66,0,0,1-.17.51,0.59,0.59,0,0,1-.49.17,0.17,0.17,0,0,1-.15-0.18,0.65,0.65,0,0,1,.34-0.54A0.58,0.58,0,0,1,127,149.43Z"/><path class="cls-14" d="M128.83,154.49a0.07,0.07,0,0,1,.05-0.06,0.61,0.61,0,0,1,.52.07,0.62,0.62,0,0,1,.26.46,0.17,0.17,0,0,1-.14.19,0.62,0.62,0,0,1-.58-0.24A0.63,0.63,0,0,1,128.83,154.49Z"/><path class="cls-14" d="M127,152.41a0.07,0.07,0,0,1,.05.06,0.66,0.66,0,0,1-.17.51,0.59,0.59,0,0,1-.49.17,0.17,0.17,0,0,1-.15-0.18,0.65,0.65,0,0,1,.34-0.54A0.58,0.58,0,0,1,127,152.41Z"/><path class="cls-14" d="M112.81,146.68a0.07,0.07,0,0,1,.06-0.06,0.61,0.61,0,0,1,.51.12,0.63,0.63,0,0,1,.22.48,0.17,0.17,0,0,1-.16.18,0.62,0.62,0,0,1-.56-0.29A0.64,0.64,0,0,1,112.81,146.68Z"/><path class="cls-15" d="M112.47,148.27a0.08,0.08,0,0,1,0,.08,0.62,0.62,0,0,1-.44.29,0.59,0.59,0,0,1-.48-0.18,0.18,0.18,0,0,1,0-.24,0.61,0.61,0,0,1,.59-0.2A0.6,0.6,0,0,1,112.47,148.27Z"/><path class="cls-15" d="M120.78,156.34a0.07,0.07,0,0,1-.07,0,0.66,0.66,0,0,1,0-.54,0.6,0.6,0,0,1,.41-0.31,0.17,0.17,0,0,1,.2.13,0.66,0.66,0,0,1-.17.62A0.59,0.59,0,0,1,120.78,156.34Z"/><path class="cls-14" d="M124,159.87a0.08,0.08,0,0,1,0-.08,0.63,0.63,0,0,1,.39-0.36,0.59,0.59,0,0,1,.51.1,0.18,0.18,0,0,1,0,.24,0.62,0.62,0,0,1-.55.3A0.59,0.59,0,0,1,124,159.87Z"/><path class="cls-14" d="M128.47,158.78a0.07,0.07,0,0,1-.08,0,0.62,0.62,0,0,1-.25-0.93,0.17,0.17,0,0,1,.23,0,0.65,0.65,0,0,1,.29.57A0.63,0.63,0,0,1,128.47,158.78Z"/><path class="cls-14" d="M122.24,156.75a0.07,0.07,0,0,1,0,.08,0.64,0.64,0,0,1-.32.43,0.58,0.58,0,0,1-.51,0,0.18,0.18,0,0,1-.09-0.22,0.63,0.63,0,0,1,.49-0.4A0.59,0.59,0,0,1,122.24,156.75Z"/><path class="cls-14" d="M124.78,158.78a0.07,0.07,0,0,1-.08,0,0.62,0.62,0,0,1-.25-0.93,0.17,0.17,0,0,1,.23,0,0.65,0.65,0,0,1,.29.57A0.63,0.63,0,0,1,124.78,158.78Z"/><path class="cls-15" d="M113.48,164.29a0.07,0.07,0,0,1-.08,0,0.62,0.62,0,0,1-.25-0.93,0.17,0.17,0,0,1,.23,0,0.65,0.65,0,0,1,.29.57A0.63,0.63,0,0,1,113.48,164.29Z"/><path class="cls-14" d="M118.19,164.59a0.07,0.07,0,0,1-.06-0.05,0.66,0.66,0,0,1,.05-0.54,0.6,0.6,0,0,1,.44-0.28,0.17,0.17,0,0,1,.19.14,0.66,0.66,0,0,1-.21.61A0.59,0.59,0,0,1,118.19,164.59Z"/><path class="cls-15" d="M120.82,162.53a0.07,0.07,0,0,1,0,.07,0.61,0.61,0,0,1-.52-0.05,0.62,0.62,0,0,1-.27-0.45,0.17,0.17,0,0,1,.14-0.19,0.62,0.62,0,0,1,.59.22A0.63,0.63,0,0,1,120.82,162.53Z"/><path class="cls-14" d="M114.83,163.56a0.07,0.07,0,0,1,.07,0,0.66,0.66,0,0,1,.05.54,0.61,0.61,0,0,1-.37.36,0.17,0.17,0,0,1-.21-0.1,0.66,0.66,0,0,1,.09-0.64A0.59,0.59,0,0,1,114.83,163.56Z"/><path class="cls-15" d="M118,163.27a0.07,0.07,0,0,1,0,.07,0.61,0.61,0,0,1-.52-0.05,0.62,0.62,0,0,1-.27-0.45,0.17,0.17,0,0,1,.14-0.19,0.62,0.62,0,0,1,.59.22A0.63,0.63,0,0,1,118,163.27Z"/><path class="cls-14" d="M120.89,165a0.07,0.07,0,0,1-.07,0,0.62,0.62,0,0,1-.46-0.27,0.64,0.64,0,0,1-.07-0.53,0.17,0.17,0,0,1,.2-0.12A0.6,0.6,0,0,1,120.89,165Z"/><path class="cls-14" d="M125.44,163.7a0.07,0.07,0,0,1-.08,0,0.66,0.66,0,0,1-.12-0.53,0.62,0.62,0,0,1,.32-0.41,0.17,0.17,0,0,1,.22.07,0.67,0.67,0,0,1,0,.65A0.6,0.6,0,0,1,125.44,163.7Z"/><path class="cls-15" d="M127.29,160.87a0.07,0.07,0,0,1,0,.08,0.58,0.58,0,0,1-.91-0.21,0.18,0.18,0,0,1,.07-0.23,0.61,0.61,0,0,1,.63,0A0.62,0.62,0,0,1,127.29,160.87Z"/><path class="cls-14" d="M121.94,163.85a0.07,0.07,0,0,1,.08,0,0.65,0.65,0,0,1,.22.49,0.63,0.63,0,0,1-.24.47,0.16,0.16,0,0,1-.23,0,0.66,0.66,0,0,1-.11-0.64A0.61,0.61,0,0,1,121.94,163.85Z"/><path class="cls-14" d="M124.87,162.51a0.07,0.07,0,0,1,0,.08,0.58,0.58,0,0,1-.91-0.21,0.18,0.18,0,0,1,.07-0.23,0.61,0.61,0,0,1,.63,0A0.62,0.62,0,0,1,124.87,162.51Z"/><path class="cls-14" d="M116.34,112.52a0.1,0.1,0,0,1-.09-0.07,0.94,0.94,0,0,1,.07-0.77,0.85,0.85,0,0,1,.62-0.4,0.24,0.24,0,0,1,.27.2,0.93,0.93,0,0,1-.3.86A0.83,0.83,0,0,1,116.34,112.52Z"/><path class="cls-14" d="M114.58,129.74a0.1,0.1,0,0,1-.07.09,0.77,0.77,0,0,1-.7-0.07,0.89,0.89,0,0,1-.37-0.64,0.24,0.24,0,0,1,.18-0.28,0.8,0.8,0,0,1,.79.31A0.94,0.94,0,0,1,114.58,129.74Z"/><path class="cls-14" d="M108.36,122.82a0.1,0.1,0,0,1-.11,0,0.88,0.88,0,0,1-.35-1.32,0.23,0.23,0,0,1,.33-0.06,0.93,0.93,0,0,1,.41.82A0.89,0.89,0,0,1,108.36,122.82Z"/><path class="cls-14" d="M102.68,194a0.08,0.08,0,0,1-.07-0.05,0.71,0.71,0,0,1,.05-0.58,0.64,0.64,0,0,1,.47-0.3,0.18,0.18,0,0,1,.2.15,0.71,0.71,0,0,1-.23.65A0.63,0.63,0,0,1,102.68,194Z"/><path class="cls-14" d="M113,190.91a0.08,0.08,0,0,1-.05.07,0.65,0.65,0,0,1-.56-0.06,0.67,0.67,0,0,1-.29-0.48,0.19,0.19,0,0,1,.15-0.21,0.66,0.66,0,0,1,.63.23A0.68,0.68,0,0,1,113,190.91Z"/><path class="cls-14" d="M106.05,202.68a0.08,0.08,0,0,1-.05.07,0.65,0.65,0,0,1-.56-0.06,0.67,0.67,0,0,1-.29-0.48,0.19,0.19,0,0,1,.15-0.21,0.66,0.66,0,0,1,.63.23A0.68,0.68,0,0,1,106.05,202.68Z"/><path class="cls-14" d="M97.6,201.34a0.07,0.07,0,0,1-.09,0,0.66,0.66,0,0,1-.27-1,0.18,0.18,0,0,1,.25,0,0.7,0.7,0,0,1,.31.62A0.67,0.67,0,0,1,97.6,201.34Z"/><path class="cls-14" d="M131.91,147.94a0.08,0.08,0,0,1-.07-0.05,0.71,0.71,0,0,1,.05-0.58,0.64,0.64,0,0,1,.47-0.3,0.18,0.18,0,0,1,.2.15,0.71,0.71,0,0,1-.23.65A0.63,0.63,0,0,1,131.91,147.94Z"/><path class="cls-14" d="M123.61,128.37a0.08,0.08,0,0,1-.05.07,0.65,0.65,0,0,1-.56-0.06,0.67,0.67,0,0,1-.29-0.48,0.19,0.19,0,0,1,.15-0.21,0.66,0.66,0,0,1,.63.23A0.68,0.68,0,0,1,123.61,128.37Z"/><path class="cls-14" d="M133.39,161.24a0.08,0.08,0,0,1-.05.07,0.65,0.65,0,0,1-.56-0.06,0.67,0.67,0,0,1-.29-0.48,0.19,0.19,0,0,1,.15-0.21,0.66,0.66,0,0,1,.63.23A0.68,0.68,0,0,1,133.39,161.24Z"/><path class="cls-14" d="M128.66,176.69a0.07,0.07,0,0,1-.09,0,0.66,0.66,0,0,1-.27-1,0.18,0.18,0,0,1,.25,0,0.7,0.7,0,0,1,.31.62A0.67,0.67,0,0,1,128.66,176.69Z"/><path class="cls-50" d="M142.38,105.16l-4,62.13-5.07,79a10.71,10.71,0,0,1-4.16,7.87,28.82,28.82,0,0,1-12.43,5.47,26.39,26.39,0,0,1-5,.39,27.83,27.83,0,0,1-15.87-5.38,11.77,11.77,0,0,1-4.81-8.9L82.89,105.16c9.38-.74,19.52-1.19,30.32-1.17,7.16,0,14,.21,20.58.59q4.26,0.24,8.33.56Z"/><path class="cls-51" d="M142.55,105.37l-4.42,62.1-4.72,78.44a12.93,12.93,0,0,1-1.93,5.74c-1.76,2.74-4.07,4-6.43,5.3a27,27,0,0,1-8.58,2.89c-0.42.07-.85,0.13-1.3,0.18a23.17,23.17,0,0,0,10.13-10.43,22.64,22.64,0,0,0,2.1-8.63c0.43-8.62,2.93-62.43,6.12-136.39q2.12,0.09,4.41.29C139.54,105,141.08,105.17,142.55,105.37Z"/><path class="cls-25" d="M137.6,84.16a3.14,3.14,0,0,0,.5-1.13c0.64-3-3.85-6.4-4.58-5.81a1.06,1.06,0,0,0,0,1,7.41,7.41,0,0,0-3.05-1.79c-1.06-.31-2.64-0.49-2.81-0.07a1.41,1.41,0,0,0,.74,1,8.47,8.47,0,0,0-2-.37c-1.24-.07-3.29.08-3.47,0.75a1.08,1.08,0,0,0,.64,1,6.34,6.34,0,0,0-3.35.44c-0.78.33-2.17,1.11-2.09,1.7a1.46,1.46,0,0,0,1.29.65,7.11,7.11,0,0,0-2.45,1.17c-1.09.81-2.25,2.15-2,2.55,0.09,0.15.39,0.22,1.34-.1A10.67,10.67,0,0,0,114.7,87c-0.18.28-1.57,2.4-1.12,2.92,0.12,0.13.39,0.2,1.1-.09-1.82,2.76-2.63,5.1-2,5.79s2.16,0.05,2.33,0a4.66,4.66,0,0,0,1.74-1c-0.84,1.54-.56,2-0.48,2.14,0.51,0.7,2.55-.12,3.66-0.77a8.21,8.21,0,0,0,1.56-1.19,2,2,0,0,0,.05,1.73c0.56,0.67,2,.07,2.71-0.23a7,7,0,0,0,2.23-1.51c-0.37,1.09-.17,1.43-0.05,1.54,0.58,0.58,2.56-.76,3-1.07a10.55,10.55,0,0,0,2.3-2.14c-0.4,1.32-.2,1.64-0.06,1.74,0.47,0.35,1.82-.79,2.55-1.59a8.2,8.2,0,0,0,1.72-3,1.51,1.51,0,0,0,.85,1.21c0.67,0,1.46-1.76,1.66-3.18A6.3,6.3,0,0,0,137.6,84.16Z"/><path class="cls-52" d="M135.5,81.93a8.72,8.72,0,0,0-4.83-3.56c-4.78-1.25-9.13,2.7-10.41,3.86a18.32,18.32,0,0,0-5.08,8.19c1.27-1.58,8.17-9.88,16.72-9.28A12.66,12.66,0,0,1,135.5,81.93Z"/><path class="cls-53" d="M136.69,84.48a9.78,9.78,0,0,0-2.88-1.23c-8.07-2-16.31,7.19-17.31,8.34,2,0.26,14.92,1.72,19.37-5.44A9.36,9.36,0,0,0,136.69,84.48Z"/><path class="cls-23" d="M140.71,88.28a0.08,0.08,0,0,0,0-.06,9.24,9.24,0,0,0-2.8-4.33A8.51,8.51,0,0,0,133.69,82a0.06,0.06,0,0,1,0,0,5.2,5.2,0,0,0-.85-1.24A5.1,5.1,0,0,0,130,79.17a6.08,6.08,0,0,1,2.1,1.4,6.33,6.33,0,0,1,.91,1.19,0.07,0.07,0,0,1-.07.11c-0.39,0-.82,0-1.27,0a14.13,14.13,0,0,0-1.81.15h0a7.4,7.4,0,0,0-2.9-1.31,7.69,7.69,0,0,0-2.58-.09c-0.08,0-.09.14,0,0.14a9.24,9.24,0,0,1,2.57.42,9,9,0,0,1,1.91.85,0.07,0.07,0,0,1,0,.13,11.2,11.2,0,0,0-1.77.42,11.79,11.79,0,0,0-2.05.89H125a7.13,7.13,0,0,0-3.36-.4,7.83,7.83,0,0,0-2.5.74c-0.08,0,0,.16,0,0.13a7.73,7.73,0,0,1,3.29-.38,7,7,0,0,1,1.43.31,0.07,0.07,0,0,1,0,.13,22.52,22.52,0,0,0-4.75,3.13,24.51,24.51,0,0,0-5.79,7.38,0.07,0.07,0,1,0,.11.07,33.09,33.09,0,0,1,4.24-5.1,31.79,31.79,0,0,1,4.51-3.69,0.07,0.07,0,0,1,.08.1,16.93,16.93,0,0,0-2.71,5.48,0.07,0.07,0,1,0,.13,0,20.18,20.18,0,0,1,1.11-2.27,13.36,13.36,0,0,1,3.92-4.78,9.65,9.65,0,0,1,4.48-1.66,0.07,0.07,0,0,1,0,.13,12.17,12.17,0,0,0-2.17,2.46A12.54,12.54,0,0,0,125.39,89a0.07,0.07,0,1,0,.13,0,19.17,19.17,0,0,1,2.14-3.72A18.67,18.67,0,0,1,130,82.7l0,0a10.55,10.55,0,0,1,2-.19,10.17,10.17,0,0,1,1.55.13,0.07,0.07,0,0,1,0,.13,7.39,7.39,0,0,0-1.32,1.32A7.78,7.78,0,0,0,131,86.68a0.07,0.07,0,1,0,.12,0,11,11,0,0,1,1.62-2.51,10.49,10.49,0,0,1,1.5-1.43h0.06a7.93,7.93,0,0,1,3.51,1.87,8.71,8.71,0,0,1,2.45,4.1,0.06,0.06,0,0,0,.12,0Z"/><path class="cls-20" d="M156.39,99.94c-0.41.26-1.14-.26-1.64-0.7a8.7,8.7,0,0,1,.86,3.26c0.11,1.68-.22,3.84-0.78,4-0.21,0-.52-0.2-1-1.34a12.85,12.85,0,0,1-.49,2.94c-0.12.4-1,3.41-1.86,3.39-0.22,0-.5-0.21-0.79-1.11-1.14,3.93-2.7,6.58-3.88,6.5-1-.07-1.78-2-1.87-2.19a5.86,5.86,0,0,1-.42-2.47c-0.78,2-1.46,2.15-1.63,2.17-1.06.08-1.93-2.51-2.21-4.07a10.15,10.15,0,0,1-.13-2.43,2.49,2.49,0,0,1-1.67,1.34c-1.08,0-1.66-1.82-2-2.75a8.79,8.79,0,0,1-.36-3.32c-0.73,1.23-1.2,1.31-1.41,1.29-1-.07-1.34-3-1.4-3.69a12.92,12.92,0,0,1,.17-3.88c-0.92,1.43-1.38,1.5-1.59,1.45-0.7-.16-0.72-2.34-0.54-3.68a10,10,0,0,1,1.48-4.06c-0.64.27-1.49,0.54-1.82,0.17-0.55-.62.49-2.78,1.67-4.12a7.58,7.58,0,0,1,3.83-2.27c0.27-.07.51-0.12,0.73-0.16,0-.14.09-0.31,0.16-0.49a3.74,3.74,0,0,1,.5-0.88c2.32-3,9.12-1.51,9.15-.34a1.35,1.35,0,0,1-.94.86,9.3,9.3,0,0,1,4.15,1.44c1.14,0.76,2.58,2.09,2.32,2.6-0.16.31-.89,0.23-1.55,0.11a10.69,10.69,0,0,1,2,1.61c1.06,1.11,2.57,3.17,2.07,3.88-0.14.2-.49,0.37-1.44,0.18a7.88,7.88,0,0,1,2.27,3.51C156.62,97.61,157,99.55,156.39,99.94Z"/><path class="cls-54" d="M141.45,84.35A10.8,10.8,0,0,1,148.69,86c5,3.51,4.78,10.78,4.71,12.92a22.68,22.68,0,0,1-3.65,11.36c0.47-2.47,2.76-15.63-4.66-23.21A15.67,15.67,0,0,0,141.45,84.35Z"/><path class="cls-55" d="M138.09,85.27A12.11,12.11,0,0,1,141.55,87c8.34,6,6.3,21.15,6,23-1.88-1.72-13.6-12.69-10.41-22.64A11.6,11.6,0,0,1,138.09,85.27Z"/><path class="cls-23" d="M152.87,101.3a0.09,0.09,0,0,1-.16.07A9.54,9.54,0,0,0,150.43,98a8.83,8.83,0,0,0-1.44-1.1,0.09,0.09,0,0,0-.13.1,27.83,27.83,0,0,1,.86,7,30.23,30.23,0,0,1-2.32,11.39,0.08,0.08,0,1,1-.15-0.06,41.11,41.11,0,0,0,1.4-8.09,39.65,39.65,0,0,0-.14-7.21,0.08,0.08,0,0,0-.17,0,20.74,20.74,0,0,1-3,6.95,0.08,0.08,0,0,1-.14-0.08,25.58,25.58,0,0,0,1.25-2.87,16.52,16.52,0,0,0,1.36-7.54,12.06,12.06,0,0,0-2-5.56,0.09,0.09,0,0,0-.16.06,15.32,15.32,0,0,1-.58,4,15.5,15.5,0,0,1-2.18,4.58,0.08,0.08,0,1,1-.14-0.08,23.49,23.49,0,0,0,1.78-5,23.23,23.23,0,0,0,.6-4.34s0,0,0,0A13.74,13.74,0,0,0,143.65,88a12.33,12.33,0,0,0-1.36-1.35,0.08,0.08,0,0,0-.13.07A9.31,9.31,0,0,1,142,89a9.53,9.53,0,0,1-1.41,3.33,0.08,0.08,0,1,1-.14-0.08,13.63,13.63,0,0,0,1.06-3.54,13.35,13.35,0,0,0,.14-2.56,0.08,0.08,0,0,0,0-.07A9.94,9.94,0,0,0,137,84.31h-0.09c0.27-.07.51-0.12,0.73-0.16,0-.14.09-0.31,0.16-0.49a10.46,10.46,0,0,1,5.06,2.43,0.06,0.06,0,0,0,.07,0,6.44,6.44,0,0,1,1.85-.19,6.3,6.3,0,0,1,3.64,1.38,7.48,7.48,0,0,0-3-.86,7.6,7.6,0,0,0-1.85.1,0.09,0.09,0,0,0-.06.15c0.35,0.35.7,0.74,1.06,1.17a18.6,18.6,0,0,1,1.32,1.82l0,0a9.06,9.06,0,0,1,3.56,1.68,9.4,9.4,0,0,1,2.16,2.35c0.06,0.09-.07.2-0.13,0.12a11,11,0,0,0-4.79-3.2,0.09,0.09,0,0,0-.1.13,13.9,13.9,0,0,1,1,2,14.14,14.14,0,0,1,.81,2.65,0.06,0.06,0,0,0,0,0,8.94,8.94,0,0,1,3.07,2.85A9.62,9.62,0,0,1,152.87,101.3Z"/><rect class="cls-56" x="93.32" y="186.15" width="21.61" height="20.73" rx="3.56" ry="3.56" transform="translate(83.29 -24.9) rotate(22.54)"/><rect class="cls-57" x="93.04" y="187.56" width="19.67" height="18.87" rx="3.31" ry="3.31" transform="translate(83.38 -24.39) rotate(22.54)"/><path class="cls-58" d="M96.49,186.73a2.33,2.33,0,0,1,3.14-1.3l13.73,5.7a2.64,2.64,0,0,1,1.42,1.72,2.44,2.44,0,0,1-.12,1.42l-5.39,13a2.39,2.39,0,0,1-1.19,1.28,2.42,2.42,0,0,1-1.95,0,2.53,2.53,0,0,0,1.83-.7,2.36,2.36,0,0,0,.58-1L113.87,194a2.26,2.26,0,0,0-.89-2.28l-13.41-5.65a2.33,2.33,0,0,0-1.25-.34A2.51,2.51,0,0,0,96.49,186.73Z"/><path class="cls-59" d="M90.07,117.51l0.08,1.56,0.23,4.13L84,112.86a3.33,3.33,0,0,1,1.08-4.58l4.3-2.64L89.54,108l0,1Z"/><path class="cls-60" d="M90.07,117.51l0.08,1.56-3.5-5.7a3.08,3.08,0,0,1,1-4.25L89.54,108l0,1Z"/><path class="cls-61" d="M110.32,119.62l-0.19.11h0l-11.37,7L97.5,104.08l-0.06-1,2-1.2a3.09,3.09,0,0,1,3.76.4h0a3.46,3.46,0,0,1,.49.61l7.55,12.26,0.12,0.2A3.09,3.09,0,0,1,110.32,119.62Z"/><path class="cls-62" d="M90.07,117.51l0.08,1.56-3.5-5.7-0.29-.47a2.8,2.8,0,0,1-.15-2.35,2.52,2.52,0,0,1,1-1.14l0.48-.29L89.54,108l0,1-1.87,1.15a2.49,2.49,0,0,0-.68,1.16,2.31,2.31,0,0,0,0,1.35Z"/><ellipse class="cls-63" cx="135.64" cy="120" rx="2.29" ry="2.23" transform="translate(-22.92 207.52) rotate(-70.4)"/><ellipse class="cls-64" cx="134.33" cy="144.58" rx="3.31" ry="3.22" transform="translate(-46.94 222.61) rotate(-70.4)"/><ellipse class="cls-65" cx="129.31" cy="132" rx="3.73" ry="3.64" transform="translate(-38.42 209.53) rotate(-70.4)"/><ellipse class="cls-66" cx="133.11" cy="111.57" rx="1.76" ry="1.71" transform="translate(-16.65 199.52) rotate(-70.4)"/></svg>