<svg id="Layer_1" data-name="Layer 1" xmlns="http://www.w3.org/2000/svg" xmlns:xlink="http://www.w3.org/1999/xlink" viewBox="0 0 230.86 332.94"><defs><style>.cls-1{fill:#efa686;}.cls-2{fill:#f7d7c6;}.cls-3{fill:#f3ccbb;}.cls-4{fill:url(#linear-gradient);}.cls-5{fill:url(#linear-gradient-2);}.cls-14,.cls-6{fill:#ec5252;}.cls-15,.cls-7{fill:#ef7273;}.cls-16,.cls-8{fill:#dd4a4a;}.cls-9{fill:#f1c7b9;}.cls-10{fill:url(#linear-gradient-3);}.cls-11{opacity:0.67;fill:url(#linear-gradient-4);}.cls-12{fill:#fde8e0;}.cls-13,.cls-14,.cls-15,.cls-16{opacity:0.8;}.cls-13{fill:url(#linear-gradient-5);}.cls-17{fill:#f3e4de;}.cls-18{fill:#e99459;opacity:0.81;}.cls-19{fill:#fff2ea;opacity:0.38;}.cls-20{fill:#fffefe;opacity:0.18;}</style><linearGradient id="linear-gradient" x1="114.32" y1="164.34" x2="114.32" y2="118.6" gradientUnits="userSpaceOnUse"><stop offset="0" stop-color="#f78e2e"/><stop offset="0.24" stop-color="#e0683a"/><stop offset="0.73" stop-color="#d3493f"/><stop offset="0.82" stop-color="#d75649"/><stop offset="0.89" stop-color="#dd6b5c"/><stop offset="1" stop-color="#fbcecf"/></linearGradient><linearGradient id="linear-gradient-2" x1="-536.64" y1="296.34" x2="-546.84" y2="286.9" gradientTransform="translate(150.02 728.23) rotate(113.54)" gradientUnits="userSpaceOnUse"><stop offset="0.05" stop-color="#be1f26"/><stop offset="0.29" stop-color="#d72129"/><stop offset="0.6" stop-color="#ee212c"/><stop offset="1" stop-color="#e64b4b"/></linearGradient><linearGradient id="linear-gradient-3" x1="-259.57" y1="16.41" x2="-269.78" y2="6.97" gradientTransform="translate(278.57 326.37) rotate(55.29)" xlink:href="#linear-gradient-2"/><linearGradient id="linear-gradient-4" x1="114.18" y1="164.55" x2="114.18" y2="118.39" xlink:href="#linear-gradient"/><linearGradient id="linear-gradient-5" x1="-507.88" y1="265.97" x2="-517.21" y2="257.34" xlink:href="#linear-gradient-2"/></defs><title>icons</title><ellipse class="cls-1" cx="114.25" cy="244.59" rx="39.85" ry="6.51"/><path class="cls-2" d="M113.83,237.05v6.88h-1.36c-15.14,0-27.69-1.27-30-2.91a0.81,0.81,0,0,1-.36-0.45,0.31,0.31,0,0,1,0-.09c0-.75,2.08-1.44,5.62-2q1.47-.23,3.26-0.43h0.08l0.4,0a206.2,206.2,0,0,1,21-1h1.36Z"/><path class="cls-2" d="M113.83,165.72v74.35l-18.76,0H83.24a30.53,30.53,0,0,1,4.79-1.5l0.52-.11c0.57-.12,1.42-0.27,2.47-0.46h0.08l0.16,0,0.24,0,2.92-.5a31.37,31.37,0,0,0,8-2.34h0c0.39-.19.77-0.39,1.14-0.6a12.42,12.42,0,0,0,3.59-3,10.11,10.11,0,0,0,1.25-2,11.6,11.6,0,0,0,.9-3.76c0.53-9.65.4-25.43,0.4-25.43-0.06-15.15-.56-26.29-1.08-28.91a10.3,10.3,0,0,0-1.36-3.37l0-.07a9,9,0,0,0-.74-0.93l-1-1.29Z"/><path class="cls-2" d="M113.83,98.7v67l-8.34,0L92.36,149,57.19,102.42a1.79,1.79,0,0,1,1.36-2.87q24.51-.76,50.25-0.84h5Z"/><path class="cls-2" d="M145.51,240.49a0.31,0.31,0,0,1,0,.09,0.81,0.81,0,0,1-.36.45c-2.26,1.64-14.82,2.91-30,2.91h-1.36v-6.88h1.36c6.36,0,12.26.22,17.13,0.6,1.52,0.12,2.93.25,4.23,0.4h0.08a55,55,0,0,1,5.51.85C144.3,239.38,145.51,239.92,145.51,240.49Z"/><path class="cls-2" d="M144.41,240.12h-6.88l-16.06,0h-7.64V165.72l8.34,0-1,1.29a9,9,0,0,0-.74.93l0,0.07a10.3,10.3,0,0,0-1.36,3.37c-0.52,2.62-1,13.76-1.08,28.91,0,0-.13,15.77.4,25.43a11.6,11.6,0,0,0,.9,3.76,10.11,10.11,0,0,0,1.25,2c3.2,4,9,5.26,12.32,5.89l0.4,0.08,3.16,0.55,0.16,0h0.08c1.05,0.19,1.91.34,2.47,0.46s1.47,0.31,2.4.6A29.23,29.23,0,0,1,144.41,240.12Z"/><path class="cls-3" d="M116.26,243.71h-2.44v2.66h1.35c16.75,0,30.33-1.88,30.33-4.19v-1.71l-1.47.31h0c-2.94.59-6.42,1.2-10.36,1.72A146.67,146.67,0,0,1,116.26,243.71Z"/><path class="cls-2" d="M113.83,98.7v67l8.34,0L135.29,149l35.08-46.41a1.87,1.87,0,0,0-1.43-3q-24.43-.76-50.09-0.84h-5Z"/><path class="cls-4" d="M153.22,118.6q-5.5,7.45-11.19,15-6.67,8.83-13.32,17.41h0c-3.41,4.37-5.95,7.6-7.39,9.55a9.58,9.58,0,0,1-7,3.78,9.8,9.8,0,0,1-7.93-3.76L103,156q-8.68-11.42-17.38-23.19-5.17-7-10.22-13.94,20,0,40-.12Q134.29,118.71,153.22,118.6Z"/><path class="cls-5" d="M103.43,117.25a3.08,3.08,0,0,0,1.16-.88,3.16,3.16,0,0,0,.68-1.94,1.94,1.94,0,0,0,.61-1.91,1.9,1.9,0,0,0-.84-1.1c-0.5-1.62-1.49-2.64-2.37-2.58a1.28,1.28,0,0,0-.71.3,2.07,2.07,0,0,0-1.69-.92,1.64,1.64,0,0,0-.78.28,1.35,1.35,0,0,0-1.36-.4,1.2,1.2,0,0,0-.58.43,1.42,1.42,0,0,0-1.57-.12,0.94,0.94,0,0,0-.29.36,1,1,0,0,0-1.17,0,0.69,0.69,0,0,0-.18.42,1.39,1.39,0,0,0-1,.05,1.34,1.34,0,0,0-.52.44,2,2,0,0,0-.95.86,2,2,0,0,0-.12,1.59,2,2,0,0,0-1.12,1.26,1.87,1.87,0,0,0,.08,1.14,1.37,1.37,0,0,0,.64,1.43,0.94,0.94,0,0,0,.67,1.5,0.65,0.65,0,0,0-.19.4,1.39,1.39,0,0,0,1.24,1.1,1,1,0,0,0,0,.67,1.24,1.24,0,0,0,1.31.71,1.56,1.56,0,0,0,.12.34,2.53,2.53,0,0,0,1.94,1.11,1.46,1.46,0,0,0,.35.75c0.65,0.71,2.14.68,3.68-.15a1.43,1.43,0,0,0,.79,0,1.67,1.67,0,0,0,1.14-1.33A4.85,4.85,0,0,0,103.43,117.25Z"/><path class="cls-6" d="M104.25,110.89c-0.09-.17-0.74-1.34-1.27-1.34a0.39,0.39,0,0,0-.31.1,0.5,0.5,0,0,0,0,.44C102.85,110.67,104.07,110.87,104.25,110.89Z"/><path class="cls-7" d="M103.36,112.49c-0.09-.17-0.74-1.34-1.27-1.34a0.39,0.39,0,0,0-.31.1,0.5,0.5,0,0,0,0,.44C102,112.28,103.18,112.47,103.36,112.49Z"/><path class="cls-7" d="M102.46,114c-0.12-.16-0.94-1.2-1.47-1.12a0.39,0.39,0,0,0-.29.15,0.5,0.5,0,0,0,.06.44C101,114,102.28,114,102.46,114Z"/><path class="cls-6" d="M101.61,115.41c-0.12-.14-0.92-1.08-1.41-1a0.36,0.36,0,0,0-.26.15,0.46,0.46,0,0,0,.07.4C100.3,115.47,101.44,115.42,101.61,115.41Z"/><path class="cls-6" d="M101,117.12c-0.14-.11-1.13-0.86-1.58-0.66a0.36,0.36,0,0,0-.22.2,0.46,0.46,0,0,0,.16.38C99.73,117.45,100.84,117.16,101,117.12Z"/><path class="cls-6" d="M100.38,118.84c-0.14-.12-1.08-0.92-1.55-0.75a0.36,0.36,0,0,0-.23.19,0.46,0.46,0,0,0,.14.39C99.09,119.1,100.21,118.87,100.38,118.84Z"/><path class="cls-6" d="M99.24,122.17c-0.19,0-1.48.37-1.85,0a0.39,0.39,0,0,1-.13-0.29,0.5,0.5,0,0,1,.32-0.31C98.13,121.29,99.1,122.06,99.24,122.17Z"/><path class="cls-6" d="M99.81,120.43c-0.19,0-1.48.37-1.85,0a0.39,0.39,0,0,1-.13-0.29,0.5,0.5,0,0,1,.32-0.31C98.7,119.55,99.67,120.31,99.81,120.43Z"/><path class="cls-6" d="M100.23,109.1c0.17,0,1.33.34,1.45,0.8a0.35,0.35,0,0,1,0,.29,0.44,0.44,0,0,1-.38.11A2,2,0,0,1,100.23,109.1Z"/><path class="cls-7" d="M99.26,110.91c0.18,0,1.36.12,1.56,0.56a0.35,0.35,0,0,1,0,.29,0.44,0.44,0,0,1-.36.17A2,2,0,0,1,99.26,110.91Z"/><path class="cls-6" d="M98.26,113c0.18,0,1.36-.12,1.64.28a0.35,0.35,0,0,1,.08.28,0.44,0.44,0,0,1-.32.23A2,2,0,0,1,98.26,113Z"/><path class="cls-6" d="M97.57,114.77a2.24,2.24,0,0,1,1.51.32,0.33,0.33,0,0,1,.06.26,0.41,0.41,0,0,1-.31.2A1.86,1.86,0,0,1,97.57,114.77Z"/><path class="cls-6" d="M96.9,116.65a2.24,2.24,0,0,1,1.54,0,0.33,0.33,0,0,1,.11.25,0.41,0.41,0,0,1-.27.25A1.86,1.86,0,0,1,96.9,116.65Z"/><path class="cls-6" d="M96,118.65a2.24,2.24,0,0,1,1.54,0,0.33,0.33,0,0,1,.11.25,0.41,0.41,0,0,1-.27.25A1.86,1.86,0,0,1,96,118.65Z"/><path class="cls-6" d="M95.31,120.36c0.13,0.12,1,.9,1.49.74a0.35,0.35,0,0,0,.23-0.18,0.44,0.44,0,0,0-.13-0.37A2,2,0,0,0,95.31,120.36Z"/><path class="cls-6" d="M99.48,110a1.6,1.6,0,0,0-1-1,0.41,0.41,0,0,0-.27.11,0.39,0.39,0,0,0,0,.35C98.32,109.93,99.33,110,99.48,110Z"/><path class="cls-6" d="M98.61,111.89c-0.06-.13-0.47-1-0.9-1a0.38,0.38,0,0,0-.26.11,0.43,0.43,0,0,0-.05.37C97.49,111.82,98.47,111.88,98.61,111.89Z"/><path class="cls-6" d="M97.82,113.76c-0.08-.13-0.63-1-1-0.89a0.35,0.35,0,0,0-.23.15,0.48,0.48,0,0,0,0,.38C96.75,113.86,97.68,113.77,97.82,113.76Z"/><path class="cls-6" d="M97,115.54a1.52,1.52,0,0,0-1.11-.61,0.33,0.33,0,0,0-.18.18,0.43,0.43,0,0,0,.08.34A1.26,1.26,0,0,0,97,115.54Z"/><path class="cls-8" d="M96.18,117.42c-0.11-.1-0.85-0.75-1.18-0.55a0.3,0.3,0,0,0-.15.19,0.47,0.47,0,0,0,.13.34A1.23,1.23,0,0,0,96.18,117.42Z"/><path class="cls-8" d="M95.35,119.28c-0.13-.07-1-0.56-1.27-0.31a0.3,0.3,0,0,0-.11.22,0.47,0.47,0,0,0,.19.31A1.23,1.23,0,0,0,95.35,119.28Z"/><path class="cls-6" d="M96.16,109.47a1.6,1.6,0,0,1,1.35,0,0.41,0.41,0,0,1,.1.27,0.39,0.39,0,0,1-.23.28C97,110.29,96.26,109.58,96.16,109.47Z"/><path class="cls-6" d="M95.25,111.6c0.14,0,1.08-.37,1.35,0a0.38,0.38,0,0,1,.1.27,0.43,0.43,0,0,1-.23.29C96.06,112.37,95.36,111.7,95.25,111.6Z"/><path class="cls-6" d="M94.48,113.51c0.15,0,1.16-.22,1.36.15a0.35,0.35,0,0,1,0,.27,0.48,0.48,0,0,1-.29.25C95.13,114.36,94.56,113.62,94.48,113.51Z"/><path class="cls-8" d="M93.75,115.3a1.52,1.52,0,0,1,1.2.4,0.33,0.33,0,0,1,0,.26,0.43,0.43,0,0,1-.31.17A1.26,1.26,0,0,1,93.75,115.3Z"/><path class="cls-8" d="M92.73,117.49c0.15,0,1.13.11,1.21,0.49a0.3,0.3,0,0,1,0,.24,0.47,0.47,0,0,1-.34.14A1.23,1.23,0,0,1,92.73,117.49Z"/><path class="cls-6" d="M104.16,111.81c0.17,0,1.33.34,1.45,0.8a0.35,0.35,0,0,1,0,.29,0.44,0.44,0,0,1-.38.11A2,2,0,0,1,104.16,111.81Z"/><path class="cls-6" d="M103.26,113.46c0.18,0,1.36.12,1.56,0.56a0.35,0.35,0,0,1,0,.29,0.44,0.44,0,0,1-.36.17A2,2,0,0,1,103.26,113.46Z"/><path class="cls-6" d="M101.4,116.5c0.18,0,1.36-.12,1.64.28a0.35,0.35,0,0,1,.08.28,0.44,0.44,0,0,1-.32.23A2,2,0,0,1,101.4,116.5Z"/><path class="cls-6" d="M101,118a2.24,2.24,0,0,1,1.51.32,0.33,0.33,0,0,1,.06.26,0.41,0.41,0,0,1-.31.2A1.86,1.86,0,0,1,101,118Z"/><path class="cls-6" d="M100.6,119.79a2.24,2.24,0,0,1,1.54,0,0.33,0.33,0,0,1,.11.25,0.41,0.41,0,0,1-.27.25A1.86,1.86,0,0,1,100.6,119.79Z"/><path class="cls-6" d="M99.92,121.44a2.24,2.24,0,0,1,1.54,0,0.33,0.33,0,0,1,.11.25,0.41,0.41,0,0,1-.27.25A1.86,1.86,0,0,1,99.92,121.44Z"/><path class="cls-6" d="M102.31,115c0.18,0,1.36.12,1.56,0.56a0.35,0.35,0,0,1,0,.29,0.44,0.44,0,0,1-.36.17A2,2,0,0,1,102.31,115Z"/><path class="cls-6" d="M96,110.18a1.48,1.48,0,0,0-1.1-.6,0.38,0.38,0,0,0-.21.17,0.36,0.36,0,0,0,.05.33C95,110.44,95.87,110.22,96,110.18Z"/><path class="cls-6" d="M95.21,112.38a1.48,1.48,0,0,0-1.06-.67,0.36,0.36,0,0,0-.2.16,0.4,0.4,0,0,0,0,.34A1.31,1.31,0,0,0,95.21,112.38Z"/><path class="cls-8" d="M94.17,114.71c-0.09-.11-0.73-0.82-1.08-0.67a0.32,0.32,0,0,0-.19.17,0.44,0.44,0,0,0,.07.35A1.25,1.25,0,0,0,94.17,114.71Z"/><path class="cls-8" d="M93.16,116.53a1.41,1.41,0,0,0-1-.56,0.31,0.31,0,0,0-.17.17,0.4,0.4,0,0,0,.08.32A1.17,1.17,0,0,0,93.16,116.53Z"/><path class="cls-6" d="M93.12,110.47c0.11-.05.85-0.4,1-0.09a0.37,0.37,0,0,1,.05.25,0.49,0.49,0,0,1-.2.28C93.67,111.16,93.19,110.56,93.12,110.47Z"/><path class="cls-8" d="M92.47,112.63c0.12,0,.91-0.32,1,0a0.37,0.37,0,0,1,0,.25,0.55,0.55,0,0,1-.25.26C92.89,113.38,92.52,112.73,92.47,112.63Z"/><path class="cls-8" d="M91.58,114.53c0.11,0,.83-0.09.88,0.26a0.4,0.4,0,0,1,0,.24,0.43,0.43,0,0,1-.25.19C91.83,115.35,91.61,114.63,91.58,114.53Z"/><path class="cls-9" d="M142.14,238.9l-0.64.21c-1.22.38-2.62,0.71-4,1-1.72.36-3.33,0.63-4.36,0.81a96.55,96.55,0,0,1-19.34,1.29c-3.32-.1-6.89-0.35-10.73-0.83q5.93-.23,10.73-0.58,4.27-.31,7.64-0.73,7.77-.94,10.85-2.43a5.26,5.26,0,0,0,.5-0.26l0.4,0.08,3.16,0.55,0.16,0h0.08A55,55,0,0,1,142.14,238.9Z"/><path class="cls-3" d="M111.39,243.71h2.44v2.66h-1.35c-16.75,0-30.33-1.88-30.33-4.19v-1.71l1.47,0.31h0c2.94,0.59,6.42,1.2,10.36,1.72A146.67,146.67,0,0,0,111.39,243.71Z"/><path class="cls-10" d="M122.38,112.84a3.08,3.08,0,0,0-.14-1.45,3.16,3.16,0,0,0-1.3-1.6,1.94,1.94,0,0,0-1.3-1.53,1.9,1.9,0,0,0-1.37.14c-1.64-.43-3-0.13-3.44.66a1.28,1.28,0,0,0-.11.76,2.07,2.07,0,0,0-1.67,1,1.64,1.64,0,0,0-.17.81,1.35,1.35,0,0,0-1.05.94,1.2,1.2,0,0,0,.06.72,1.42,1.42,0,0,0-.93,1.27,0.94,0.94,0,0,0,.15.43,1,1,0,0,0-.58,1,0.69,0.69,0,0,0,.26.37,1.39,1.39,0,0,0-.49.89,1.34,1.34,0,0,0,.1.67,2,2,0,0,0,.23,1.26,2,2,0,0,0,1.29.94,2,2,0,0,0,.48,1.62,1.87,1.87,0,0,0,1,.54,1.37,1.37,0,0,0,1.55.21,0.94,0.94,0,0,0,1.62.22,0.65,0.65,0,0,0,.24.37,1.39,1.39,0,0,0,1.59-.48,1,1,0,0,0,.55.38,1.24,1.24,0,0,0,1.29-.74,1.56,1.56,0,0,0,.36.07,2.53,2.53,0,0,0,2-1.07,1.46,1.46,0,0,0,.82.1c0.95-.18,1.71-1.46,1.81-3.2a1.43,1.43,0,0,0,.45-0.66,1.67,1.67,0,0,0-.53-1.67A4.85,4.85,0,0,0,122.38,112.84Z"/><path class="cls-6" d="M117.41,108.8c-0.2,0-1.52-.07-1.81.38a0.39,0.39,0,0,0-.07.31,0.5,0.5,0,0,0,.37.24C116.49,109.87,117.29,108.94,117.41,108.8Z"/><path class="cls-7" d="M118.3,110.4c-0.2,0-1.52-.07-1.81.38a0.39,0.39,0,0,0-.07.31,0.5,0.5,0,0,0,.37.24C117.38,111.47,118.19,110.54,118.3,110.4Z"/><path class="cls-7" d="M119.11,112c-0.2,0-1.52.17-1.73,0.66a0.39,0.39,0,0,0,0,.32,0.5,0.5,0,0,0,.4.18C118.37,113.16,119,112.11,119.11,112Z"/><path class="cls-6" d="M119.86,113.42c-0.18,0-1.4.21-1.58,0.68a0.36,0.36,0,0,0,0,.3,0.46,0.46,0,0,0,.38.15C119.22,114.56,119.78,113.57,119.86,113.42Z"/><path class="cls-6" d="M121,114.84c-0.17.06-1.32,0.51-1.4,1a0.36,0.36,0,0,0,.05.29,0.46,0.46,0,0,0,.4.06C120.61,116.1,120.94,115,121,114.84Z"/><path class="cls-6" d="M122.13,116.27c-0.17.05-1.35,0.43-1.45,0.92a0.36,0.36,0,0,0,0,.3,0.46,0.46,0,0,0,.4.09C121.68,117.51,122.07,116.43,122.13,116.27Z"/><path class="cls-6" d="M124.36,119c-0.06.19-.47,1.45-1,1.56a0.39,0.39,0,0,1-.32,0,0.5,0.5,0,0,1-.09-0.43C123,119.48,124.19,119.05,124.36,119Z"/><path class="cls-6" d="M123.18,117.59c-0.06.19-.47,1.45-1,1.56a0.39,0.39,0,0,1-.32,0,0.5,0.5,0,0,1-.09-0.43C121.86,118.07,123,117.65,123.18,117.59Z"/><path class="cls-6" d="M113.77,111.27c0.13-.12,1-1,1.44-0.82a0.35,0.35,0,0,1,.24.17,0.44,0.44,0,0,1-.11.38A2,2,0,0,1,113.77,111.27Z"/><path class="cls-7" d="M114.79,113.05c0.1-.14.82-1.1,1.3-1a0.35,0.35,0,0,1,.26.13,0.44,0.44,0,0,1,0,.39A2,2,0,0,1,114.79,113.05Z"/><path class="cls-6" d="M116.07,115c0.08-.16.62-1.22,1.1-1.24a0.35,0.35,0,0,1,.28.08,0.44,0.44,0,0,1,0,.4A2,2,0,0,1,116.07,115Z"/><path class="cls-6" d="M117.19,116.52a2.24,2.24,0,0,1,1.07-1.11,0.33,0.33,0,0,1,.25.09,0.41,0.41,0,0,1,0,.37A1.86,1.86,0,0,1,117.19,116.52Z"/><path class="cls-6" d="M118.44,118.08a2.24,2.24,0,0,1,.85-1.28,0.33,0.33,0,0,1,.27,0,0.41,0.41,0,0,1,.07.36A1.86,1.86,0,0,1,118.44,118.08Z"/><path class="cls-6" d="M119.67,119.88a2.24,2.24,0,0,1,.84-1.29,0.33,0.33,0,0,1,.27,0,0.41,0.41,0,0,1,.08.36A1.86,1.86,0,0,1,119.67,119.88Z"/><path class="cls-6" d="M120.75,121.39c0.17-.05,1.31-0.41,1.41-0.88a0.35,0.35,0,0,0,0-.29,0.44,0.44,0,0,0-.39-0.09A2,2,0,0,0,120.75,121.39Z"/><path class="cls-6" d="M114.12,112.38a1.6,1.6,0,0,0-1.32.31,0.41,0.41,0,0,0,0,.29,0.39,0.39,0,0,0,.28.23C113.47,113.34,114,112.5,114.12,112.38Z"/><path class="cls-6" d="M115.28,114.12c-0.15,0-1.13-.15-1.33.24a0.38,0.38,0,0,0,0,.28,0.43,0.43,0,0,0,.28.24C114.64,115,115.2,114.24,115.28,114.12Z"/><path class="cls-6" d="M116.46,115.77c-0.15,0-1.18,0-1.31.41a0.35,0.35,0,0,0,0,.27,0.48,0.48,0,0,0,.33.19C116,116.74,116.4,115.9,116.46,115.77Z"/><path class="cls-6" d="M117.54,117.42a1.52,1.52,0,0,0-1.1.63,0.33,0.33,0,0,0,.06.25,0.43,0.43,0,0,0,.34.11A1.26,1.26,0,0,0,117.54,117.42Z"/><path class="cls-8" d="M118.71,119.09c-0.14,0-1.08.33-1.09,0.71a0.3,0.3,0,0,0,.08.23,0.47,0.47,0,0,0,.36.07A1.23,1.23,0,0,0,118.71,119.09Z"/><path class="cls-8" d="M119.85,120.78c-0.13.07-1,.54-0.93,0.92a0.3,0.3,0,0,0,.13.21,0.47,0.47,0,0,0,.36,0A1.23,1.23,0,0,0,119.85,120.78Z"/><path class="cls-6" d="M111.94,114.93a1.6,1.6,0,0,1,.75-1.12,0.41,0.41,0,0,1,.28.06,0.39,0.39,0,0,1,.11.34C113.07,114.66,112.09,114.9,111.94,114.93Z"/><path class="cls-6" d="M113.27,116.82c0-.14.26-1.11,0.69-1.16a0.38,0.38,0,0,1,.28.06,0.43,0.43,0,0,1,.12.35C114.36,116.55,113.41,116.79,113.27,116.82Z"/><path class="cls-6" d="M114.49,118.48c0.05-.14.43-1.1,0.85-1.08a0.35,0.35,0,0,1,.25.1,0.48,0.48,0,0,1,.06.38C115.56,118.38,114.63,118.47,114.49,118.48Z"/><path class="cls-8" d="M115.63,120a1.52,1.52,0,0,1,1-.81,0.33,0.33,0,0,1,.21.14,0.43,0.43,0,0,1,0,.35A1.26,1.26,0,0,1,115.63,120Z"/><path class="cls-8" d="M117,122.07c0.09-.12.69-0.9,1-0.77a0.3,0.3,0,0,1,.19.16,0.47,0.47,0,0,1-.06.36A1.23,1.23,0,0,1,117,122.07Z"/><path class="cls-6" d="M118.14,109.36c0.13-.12,1-1,1.44-0.82a0.35,0.35,0,0,1,.24.17,0.44,0.44,0,0,1-.11.38A2,2,0,0,1,118.14,109.36Z"/><path class="cls-6" d="M119.08,111c0.1-.14.82-1.1,1.3-1a0.35,0.35,0,0,1,.26.13,0.44,0.44,0,0,1,0,.39A2,2,0,0,1,119.08,111Z"/><path class="cls-6" d="M120.67,114.18c0.08-.16.62-1.22,1.1-1.24a0.35,0.35,0,0,1,.28.08,0.44,0.44,0,0,1,0,.4A2,2,0,0,1,120.67,114.18Z"/><path class="cls-6" d="M121.8,115.29a2.24,2.24,0,0,1,1.07-1.11,0.33,0.33,0,0,1,.25.09,0.41,0.41,0,0,1,0,.37A1.86,1.86,0,0,1,121.8,115.29Z"/><path class="cls-6" d="M123.05,116.59a2.24,2.24,0,0,1,.85-1.28,0.33,0.33,0,0,1,.27,0,0.41,0.41,0,0,1,.07.36A1.86,1.86,0,0,1,123.05,116.59Z"/><path class="cls-6" d="M119.86,112.6c0.1-.14.82-1.1,1.3-1a0.35,0.35,0,0,1,.26.13,0.44,0.44,0,0,1,0,.39A2,2,0,0,1,119.86,112.6Z"/><path class="cls-6" d="M112.46,115.44a1.48,1.48,0,0,0-1.09.62,0.38,0.38,0,0,0,0,.27,0.36,0.36,0,0,0,.31.13C112.14,116.46,112.42,115.57,112.46,115.44Z"/><path class="cls-6" d="M113.92,117.27a1.48,1.48,0,0,0-1.13.55,0.36,0.36,0,0,0,0,.26,0.4,0.4,0,0,0,.31.14A1.31,1.31,0,0,0,113.92,117.27Z"/><path class="cls-8" d="M115.35,119.38c-0.14,0-1.08.18-1.14,0.57a0.32,0.32,0,0,0,0,.25,0.44,0.44,0,0,0,.33.12A1.25,1.25,0,0,0,115.35,119.38Z"/><path class="cls-8" d="M116.37,121.2a1.41,1.41,0,0,0-1,.58,0.31,0.31,0,0,0,.05.23,0.4,0.4,0,0,0,.31.1A1.17,1.17,0,0,0,116.37,121.2Z"/><path class="cls-6" d="M111.19,118c0-.12.11-0.94,0.46-0.92a0.37,0.37,0,0,1,.24.09,0.49,0.49,0,0,1,.14.32C112.07,117.94,111.3,118,111.19,118Z"/><path class="cls-8" d="M112.69,119.73c0-.12.2-0.94,0.55-0.87a0.37,0.37,0,0,1,.22.13,0.55,0.55,0,0,1,.09.35C113.54,119.77,112.8,119.74,112.69,119.73Z"/><path class="cls-8" d="M113.83,121.49c0-.1.36-0.75,0.68-0.61a0.4,0.4,0,0,1,.19.16,0.43,0.43,0,0,1,0,.32C114.66,121.71,113.94,121.51,113.83,121.49Z"/><path class="cls-11" d="M153.24,118.55L142,133.39q-6.67,8.81-13.32,17.64h0c-3.41,4.43-5.95,7.71-7.39,9.67a9.56,9.56,0,0,1-7,3.83,9.76,9.76,0,0,1-7.93-3.81l-3.4-4.59q-8.59-11.72-17.38-23.5-5.24-7-10.48-14,19.92-.24,40.21-0.26Q134.45,118.37,153.24,118.55Z"/><path class="cls-12" d="M109.43,166a6,6,0,0,0,4.2,2.14,6.16,6.16,0,0,0,4.85-2.14,16.86,16.86,0,0,0-2.3,7c-1,10-.23,46-0.14,50.14,0,0,0,.18,0,0.37a27.06,27.06,0,0,0,.4,4,15.51,15.51,0,0,0,1.22,3.94,12.24,12.24,0,0,0,2.83,3.74,1,1,0,0,1-.43,1.75,24.21,24.21,0,0,1-12.73-.08,0.93,0.93,0,0,1-.31-1.65,11.1,11.1,0,0,0,3.2-3.7,11.69,11.69,0,0,0,1.22-4.59c0.71-6.47.41-23.9,0.41-23.9-0.13-7.46.26-25.89-.41-30.39a26.28,26.28,0,0,0-.68-3.11Z"/><path class="cls-13" d="M118.86,155.8a2.82,2.82,0,0,0,1.06-.81,2.89,2.89,0,0,0,.62-1.78,1.77,1.77,0,0,0,.56-1.75,1.74,1.74,0,0,0-.77-1c-0.46-1.49-1.36-2.42-2.16-2.36a1.17,1.17,0,0,0-.65.28,1.9,1.9,0,0,0-1.54-.84,1.5,1.5,0,0,0-.72.26,1.23,1.23,0,0,0-1.24-.36,1.1,1.1,0,0,0-.53.39,1.3,1.3,0,0,0-1.44-.11,0.86,0.86,0,0,0-.26.33,0.89,0.89,0,0,0-1.07,0,0.63,0.63,0,0,0-.17.38,1.28,1.28,0,0,0-.92,0,1.22,1.22,0,0,0-.48.4,1.81,1.81,0,0,0-.86.78,1.86,1.86,0,0,0-.11,1.45,1.82,1.82,0,0,0-1,1.15,1.71,1.71,0,0,0,.07,1,1.25,1.25,0,0,0,.58,1.31,0.86,0.86,0,0,0,.61,1.37,0.59,0.59,0,0,0-.18.36,1.27,1.27,0,0,0,1.14,1,0.9,0.9,0,0,0,0,.61,1.13,1.13,0,0,0,1.19.65,1.43,1.43,0,0,0,.11.31,2.31,2.31,0,0,0,1.77,1,1.33,1.33,0,0,0,.32.68c0.59,0.65,2,.62,3.36-0.14a1.31,1.31,0,0,0,.73,0,1.53,1.53,0,0,0,1-1.22A4.43,4.43,0,0,0,118.86,155.8Z"/><path class="cls-14" d="M119.61,150c-0.09-.16-0.68-1.22-1.17-1.23a0.36,0.36,0,0,0-.28.09,0.45,0.45,0,0,0,0,.4A2,2,0,0,0,119.61,150Z"/><path class="cls-15" d="M118.8,151.45c-0.09-.16-0.68-1.22-1.17-1.23a0.36,0.36,0,0,0-.28.09,0.45,0.45,0,0,0,0,.4A2,2,0,0,0,118.8,151.45Z"/><path class="cls-15" d="M118,152.82c-0.11-.14-0.86-1.1-1.35-1a0.36,0.36,0,0,0-.26.14,0.45,0.45,0,0,0,.06.4A2,2,0,0,0,118,152.82Z"/><path class="cls-14" d="M117.2,154.11a2.28,2.28,0,0,0-1.29-.9,0.33,0.33,0,0,0-.24.14,0.42,0.42,0,0,0,.07.37A1.9,1.9,0,0,0,117.2,154.11Z"/><path class="cls-14" d="M116.64,155.68a2.28,2.28,0,0,0-1.45-.6,0.33,0.33,0,0,0-.2.18,0.42,0.42,0,0,0,.14.35A1.9,1.9,0,0,0,116.64,155.68Z"/><path class="cls-14" d="M116.07,157.25a2.28,2.28,0,0,0-1.41-.68,0.33,0.33,0,0,0-.21.17,0.42,0.42,0,0,0,.12.35A1.9,1.9,0,0,0,116.07,157.25Z"/><path class="cls-14" d="M115,160.3c-0.17,0-1.35.34-1.69,0a0.36,0.36,0,0,1-.12-0.27,0.45,0.45,0,0,1,.29-0.28A2,2,0,0,1,115,160.3Z"/><path class="cls-14" d="M115.55,158.71c-0.17,0-1.35.34-1.69,0a0.36,0.36,0,0,1-.12-0.27,0.45,0.45,0,0,1,.29-0.28A2,2,0,0,1,115.55,158.71Z"/><path class="cls-14" d="M115.94,148.35a2.2,2.2,0,0,1,1.33.73,0.32,0.32,0,0,1,0,.26,0.41,0.41,0,0,1-.35.1A1.83,1.83,0,0,1,115.94,148.35Z"/><path class="cls-15" d="M115,150a2.2,2.2,0,0,1,1.43.51,0.32,0.32,0,0,1,0,.26,0.41,0.41,0,0,1-.33.15A1.83,1.83,0,0,1,115,150Z"/><path class="cls-14" d="M114.13,151.94a2.2,2.2,0,0,1,1.5.26,0.32,0.32,0,0,1,.07.26,0.41,0.41,0,0,1-.3.21A1.83,1.83,0,0,1,114.13,151.94Z"/><path class="cls-14" d="M113.5,153.53a2,2,0,0,1,1.38.3,0.3,0.3,0,0,1,.06.24,0.38,0.38,0,0,1-.28.18A1.7,1.7,0,0,1,113.5,153.53Z"/><path class="cls-14" d="M112.89,155.25a2,2,0,0,1,1.41,0,0.3,0.3,0,0,1,.1.23,0.38,0.38,0,0,1-.25.23A1.7,1.7,0,0,1,112.89,155.25Z"/><path class="cls-14" d="M112.09,157.08a2,2,0,0,1,1.41,0,0.3,0.3,0,0,1,.1.22,0.38,0.38,0,0,1-.24.23A1.7,1.7,0,0,1,112.09,157.08Z"/><path class="cls-14" d="M111.43,158.64a2.2,2.2,0,0,0,1.36.67,0.32,0.32,0,0,0,.21-0.16,0.41,0.41,0,0,0-.12-0.34A1.83,1.83,0,0,0,111.43,158.64Z"/><path class="cls-14" d="M115.24,149.15a1.46,1.46,0,0,0-.87-0.87,0.38,0.38,0,0,0-.24.1,0.36,0.36,0,0,0,0,.32A1.4,1.4,0,0,0,115.24,149.15Z"/><path class="cls-14" d="M114.45,150.89a1.46,1.46,0,0,0-.83-0.92,0.35,0.35,0,0,0-.24.1,0.39,0.39,0,0,0,0,.34A1.29,1.29,0,0,0,114.45,150.89Z"/><path class="cls-14" d="M113.73,152.61a1.52,1.52,0,0,0-1-.82,0.32,0.32,0,0,0-.21.14,0.44,0.44,0,0,0,0,.35A1.23,1.23,0,0,0,113.73,152.61Z"/><path class="cls-14" d="M113,154.24a1.39,1.39,0,0,0-1-.55,0.3,0.3,0,0,0-.17.17,0.39,0.39,0,0,0,.08.31A1.15,1.15,0,0,0,113,154.24Z"/><path class="cls-16" d="M112.23,156a1.5,1.5,0,0,0-1.08-.5,0.27,0.27,0,0,0-.14.18,0.43,0.43,0,0,0,.12.31A1.13,1.13,0,0,0,112.23,156Z"/><path class="cls-16" d="M111.47,157.65a1.51,1.51,0,0,0-1.16-.28,0.27,0.27,0,0,0-.1.2,0.43,0.43,0,0,0,.18.28A1.13,1.13,0,0,0,111.47,157.65Z"/><path class="cls-14" d="M112.21,148.69a1.46,1.46,0,0,1,1.23,0,0.38,0.38,0,0,1,.09.25,0.36,0.36,0,0,1-.21.25A1.4,1.4,0,0,1,112.21,148.69Z"/><path class="cls-14" d="M111.38,150.63a1.46,1.46,0,0,1,1.23,0,0.35,0.35,0,0,1,.09.24,0.39,0.39,0,0,1-.21.26A1.29,1.29,0,0,1,111.38,150.63Z"/><path class="cls-14" d="M110.67,152.38a1.52,1.52,0,0,1,1.25.14,0.32,0.32,0,0,1,0,.25,0.44,0.44,0,0,1-.27.23A1.23,1.23,0,0,1,110.67,152.38Z"/><path class="cls-16" d="M110,154a1.39,1.39,0,0,1,1.1.37,0.3,0.3,0,0,1,0,.23,0.39,0.39,0,0,1-.28.16A1.15,1.15,0,0,1,110,154Z"/><path class="cls-16" d="M109.07,156a1.5,1.5,0,0,1,1.1.44,0.27,0.27,0,0,1,0,.22,0.43,0.43,0,0,1-.31.13A1.13,1.13,0,0,1,109.07,156Z"/><path class="cls-14" d="M119.53,150.82a2.2,2.2,0,0,1,1.33.73,0.32,0.32,0,0,1,0,.26,0.41,0.41,0,0,1-.35.1A1.83,1.83,0,0,1,119.53,150.82Z"/><path class="cls-14" d="M118.71,152.34a2.2,2.2,0,0,1,1.43.51,0.32,0.32,0,0,1,0,.26,0.41,0.41,0,0,1-.33.15A1.83,1.83,0,0,1,118.71,152.34Z"/><path class="cls-14" d="M117,155.11a2.2,2.2,0,0,1,1.5.26,0.32,0.32,0,0,1,.07.26,0.41,0.41,0,0,1-.3.21A1.83,1.83,0,0,1,117,155.11Z"/><path class="cls-14" d="M116.68,156.52a2,2,0,0,1,1.38.3,0.3,0.3,0,0,1,.06.24,0.38,0.38,0,0,1-.28.18A1.7,1.7,0,0,1,116.68,156.52Z"/><path class="cls-14" d="M116.27,158.12a2,2,0,0,1,1.41,0,0.3,0.3,0,0,1,.1.23,0.38,0.38,0,0,1-.25.23A1.7,1.7,0,0,1,116.27,158.12Z"/><path class="cls-14" d="M115.65,159.63a2,2,0,0,1,1.41,0,0.3,0.3,0,0,1,.1.22,0.38,0.38,0,0,1-.24.23A1.7,1.7,0,0,1,115.65,159.63Z"/><path class="cls-14" d="M117.83,153.72a2.2,2.2,0,0,1,1.43.51,0.32,0.32,0,0,1,0,.26,0.41,0.41,0,0,1-.33.15A1.83,1.83,0,0,1,117.83,153.72Z"/><path class="cls-14" d="M112.07,149.33a1.36,1.36,0,0,0-1-.55,0.35,0.35,0,0,0-.19.15,0.33,0.33,0,0,0,0,.3A1.3,1.3,0,0,0,112.07,149.33Z"/><path class="cls-14" d="M111.34,151.34a1.35,1.35,0,0,0-1-.61,0.33,0.33,0,0,0-.19.15,0.37,0.37,0,0,0,0,.31A1.2,1.2,0,0,0,111.34,151.34Z"/><path class="cls-16" d="M110.39,153.47a1.41,1.41,0,0,0-1-.61,0.3,0.3,0,0,0-.17.16,0.4,0.4,0,0,0,.07.32A1.14,1.14,0,0,0,110.39,153.47Z"/><path class="cls-16" d="M109.47,155.15a1.29,1.29,0,0,0-.94-0.51,0.28,0.28,0,0,0-.15.15,0.37,0.37,0,0,0,.07.29A1.07,1.07,0,0,0,109.47,155.15Z"/><path class="cls-14" d="M109.43,149.6c0.1,0,.78-0.37.94-0.08a0.34,0.34,0,0,1,0,.23,0.44,0.44,0,0,1-.18.26C109.93,150.23,109.5,149.68,109.43,149.6Z"/><path class="cls-16" d="M108.84,151.58c0.11,0,.83-0.29.94,0a0.34,0.34,0,0,1,0,.23,0.5,0.5,0,0,1-.23.24C109.22,152.26,108.89,151.66,108.84,151.58Z"/><path class="cls-16" d="M108,153.31c0.1,0,.76-0.08.8,0.24a0.37,0.37,0,0,1,0,.22,0.39,0.39,0,0,1-.23.18C108.25,154.06,108.05,153.41,108,153.31Z"/><path class="cls-17" d="M75.42,118.9L71.11,113h87l-4.91,5.59Z"/><ellipse class="cls-17" cx="130.07" cy="117.45" rx="2.8" ry="2.44"/><ellipse class="cls-17" cx="134.66" cy="117.76" rx="2.93" ry="1.47"/><ellipse class="cls-17" cx="122.14" cy="118.07" rx="2.8" ry="2.44"/><ellipse class="cls-17" cx="126.73" cy="117.77" rx="2.93" ry="1.47"/><ellipse class="cls-17" cx="91.52" cy="115.14" rx="3.98" ry="3.46"/><ellipse class="cls-17" cx="98.03" cy="114.76" rx="4.16" ry="2.08"/><ellipse class="cls-17" cx="80.27" cy="115.14" rx="3.98" ry="3.46"/><ellipse class="cls-17" cx="86.78" cy="114.76" rx="4.16" ry="2.08"/><ellipse class="cls-17" cx="118.28" cy="115.48" rx="4.56" ry="3.46"/><ellipse class="cls-17" cx="105.36" cy="115.53" rx="4.56" ry="3.46"/><ellipse class="cls-17" cx="112.84" cy="114.76" rx="4.77" ry="2.08"/><ellipse class="cls-17" cx="136.8" cy="115.41" rx="4.56" ry="3.46"/><ellipse class="cls-17" cx="143.82" cy="114.38" rx="4.77" ry="2.08"/><ellipse class="cls-17" cx="87.08" cy="118.6" rx="2.8" ry="2.44"/><ellipse class="cls-17" cx="91.67" cy="118.3" rx="2.93" ry="1.47"/><ellipse class="cls-17" cx="151.06" cy="114.38" rx="4.56" ry="3.46"/><path class="cls-18" d="M128.71,151c-3.41,4.37-5.95,7.6-7.39,9.55a9.58,9.58,0,0,1-7,3.78,9.8,9.8,0,0,1-7.93-3.76L103,156c4.05,2.26,7,2.31,9.05,1.92,6.88-1.36,10.25-9.6,14.5-8.47A4.18,4.18,0,0,1,128.71,151Z"/><path class="cls-19" d="M61.75,99.54q10.79,15.34,22.31,31Q95.44,146,106.73,160.74L79.33,99.09Z"/><path class="cls-20" d="M158.33,99.27l-37,62.3,19.4-62.74Z"/></svg>