<svg id="Layer_1" data-name="Layer 1" xmlns="http://www.w3.org/2000/svg" xmlns:xlink="http://www.w3.org/1999/xlink" viewBox="0 0 230.86 332.94"><defs><style>.cls-1{fill:#c8972c;opacity:0.27;}.cls-2,.cls-46,.cls-8{fill:#f9efc7;}.cls-18,.cls-3{fill:#ecc11c;}.cls-19,.cls-4{fill:#f9d027;}.cls-20,.cls-5{fill:#faf5ae;}.cls-21,.cls-6{fill:#f2d143;}.cls-7{fill:#f2de8b;}.cls-8{opacity:0.57;}.cls-9{fill:url(#linear-gradient);}.cls-10,.cls-12,.cls-16{fill:#fff;}.cls-10{opacity:0.5;}.cls-11,.cls-13,.cls-14,.cls-24,.cls-25{opacity:0.31;}.cls-11{fill:url(#linear-gradient-2);}.cls-12{opacity:0.45;}.cls-13{fill:url(#linear-gradient-3);}.cls-14{fill:url(#linear-gradient-4);}.cls-15,.cls-17{opacity:0.66;}.cls-15{fill:url(#linear-gradient-5);}.cls-16{opacity:0.61;}.cls-17{fill:url(#linear-gradient-6);}.cls-18,.cls-19,.cls-20,.cls-21,.cls-22{opacity:0.64;}.cls-22,.cls-23{fill:#f2db79;}.cls-24{fill:url(#linear-gradient-7);}.cls-25{fill:url(#linear-gradient-8);}.cls-26{fill:#d69a29;}.cls-27{fill:#f3ce13;}.cls-28,.cls-29{fill:#f6f7d3;}.cls-28{opacity:0.58;}.cls-29{opacity:0.71;}.cls-30{fill:url(#linear-gradient-9);}.cls-31,.cls-32,.cls-33,.cls-38,.cls-39,.cls-40,.cls-41{opacity:0.6;}.cls-31{fill:url(#radial-gradient);}.cls-32{fill:url(#radial-gradient-2);}.cls-33{fill:url(#radial-gradient-3);}.cls-34,.cls-35,.cls-36,.cls-37{opacity:0.76;}.cls-34{fill:url(#radial-gradient-4);}.cls-35{fill:url(#radial-gradient-5);}.cls-36{fill:url(#radial-gradient-6);}.cls-37{fill:url(#radial-gradient-7);}.cls-38{fill:url(#radial-gradient-8);}.cls-39{fill:url(#radial-gradient-9);}.cls-40{fill:url(#radial-gradient-10);}.cls-41{fill:url(#radial-gradient-11);}.cls-42{opacity:0.47;fill:url(#linear-gradient-10);}.cls-43{fill:#f2e4a9;}.cls-44{fill:url(#linear-gradient-11);}.cls-45{fill:#fff2ea;opacity:0.38;}.cls-46{opacity:0.37;}</style><linearGradient id="linear-gradient" x1="119.19" y1="117.12" x2="119.19" y2="251.5" gradientUnits="userSpaceOnUse"><stop offset="0" stop-color="#f6bc4e"/><stop offset="0.37" stop-color="#eead73"/><stop offset="0.93" stop-color="#c04223"/><stop offset="1" stop-color="#8d1d1c"/></linearGradient><linearGradient id="linear-gradient-2" x1="-378.57" y1="75.74" x2="-363.16" y2="61.5" gradientTransform="translate(94.33 575.72) rotate(106.54)" gradientUnits="userSpaceOnUse"><stop offset="0" stop-color="#dbdebc"/><stop offset="0.97" stop-color="#fff"/></linearGradient><linearGradient id="linear-gradient-3" x1="48.78" y1="-118.68" x2="64.22" y2="-132.95" gradientTransform="translate(3.61 306.89) rotate(29.89)" xlink:href="#linear-gradient-2"/><linearGradient id="linear-gradient-4" x1="-279.78" y1="-62.82" x2="-263.98" y2="-77.42" gradientTransform="translate(99.63 474.56) rotate(76.39)" xlink:href="#linear-gradient-2"/><linearGradient id="linear-gradient-5" x1="-165.72" y1="-176.28" x2="-150.32" y2="-190.52" gradientTransform="matrix(0.66, 0.75, -0.75, 0.66, 63.56, 364.5)" xlink:href="#linear-gradient-2"/><linearGradient id="linear-gradient-6" x1="68.07" y1="-168.32" x2="84.24" y2="-183.27" gradientTransform="translate(5.15 276.14) rotate(15.17)" xlink:href="#linear-gradient-2"/><linearGradient id="linear-gradient-7" x1="-441.39" y1="127.05" x2="-425.66" y2="112.51" gradientTransform="translate(42.05 613.28) rotate(115.59)" xlink:href="#linear-gradient-2"/><linearGradient id="linear-gradient-8" x1="-322.33" y1="-104.86" x2="-304.3" y2="-121.52" gradientTransform="translate(99.63 474.56) rotate(76.39)" xlink:href="#linear-gradient-2"/><linearGradient id="linear-gradient-9" x1="115.65" y1="228.72" x2="131.91" y2="256.9" gradientUnits="userSpaceOnUse"><stop offset="0.78" stop-color="#97251e"/><stop offset="1" stop-color="#8d1d1c"/></linearGradient><radialGradient id="radial-gradient" cx="-5.2" cy="151.81" r="1.79" gradientTransform="translate(282.18 177.86) rotate(70.4)" gradientUnits="userSpaceOnUse"><stop offset="0" stop-color="#fbe5ef"/><stop offset="1" stop-color="#fff"/></radialGradient><radialGradient id="radial-gradient-2" cx="-2.32" cy="172.21" r="2.59" gradientTransform="translate(294.89 188.15) rotate(70.4)" xlink:href="#radial-gradient"/><radialGradient id="radial-gradient-3" cx="1.22" cy="160.7" r="2.92" gradientTransform="translate(290.71 179.55) rotate(70.4)" xlink:href="#radial-gradient"/><radialGradient id="radial-gradient-4" cx="-85.88" cy="86.2" r="1.58" gradientTransform="translate(199.83 183.43) rotate(70.4)" xlink:href="#radial-gradient"/><radialGradient id="radial-gradient-5" cx="-82.02" cy="102.1" r="2.29" gradientTransform="translate(210.67 190.57) rotate(70.4)" xlink:href="#radial-gradient"/><radialGradient id="radial-gradient-6" cx="-79.81" cy="92.31" r="2.58" gradientTransform="matrix(0.34, 0.94, -0.94, 0.34, 206.66, 183.69)" xlink:href="#radial-gradient"/><radialGradient id="radial-gradient-7" cx="-84.19" cy="78.98" r="1.22" gradientTransform="matrix(0.34, 0.94, -0.94, 0.34, 196.9, 178.32)" xlink:href="#radial-gradient"/><radialGradient id="radial-gradient-8" cx="-1.35" cy="141.59" r="1.37" gradientTransform="translate(278.88 169.85) rotate(70.4)" xlink:href="#radial-gradient"/><radialGradient id="radial-gradient-9" cx="155.35" cy="277.65" r="1.79" gradientTransform="translate(307.08 -0.63) rotate(70.4)" xlink:href="#radial-gradient"/><radialGradient id="radial-gradient-10" cx="162.21" cy="284.55" r="2.92" gradientTransform="translate(319.71 -4.56) rotate(70.4)" xlink:href="#radial-gradient"/><radialGradient id="radial-gradient-11" cx="154.62" cy="268.79" r="1.37" gradientTransform="translate(295.93 -5.32) rotate(70.4)" xlink:href="#radial-gradient"/><linearGradient id="linear-gradient-10" x1="119.55" y1="117.3" x2="119.55" y2="251.69" xlink:href="#linear-gradient"/><linearGradient id="linear-gradient-11" x1="118.97" y1="264.34" x2="118.97" y2="259.71" gradientUnits="userSpaceOnUse"><stop offset="0" stop-color="#f4e7af"/><stop offset="0.78" stop-color="#fbf4d8"/></linearGradient></defs><title>icons</title><ellipse class="cls-1" cx="119.19" cy="265.48" rx="40.17" ry="8.02"/><path class="cls-2" d="M73.42,106.24L88.49,263.18a2.25,2.25,0,0,0,2,2,255,255,0,0,0,56.68,0,2.7,2.7,0,0,0,2.4-2.39l16.07-156.18a3.48,3.48,0,0,0-3.3-3.8c-12.71-.73-26.06-1.18-40-1.23-16.13-.06-31.49.41-46,1.25A3.1,3.1,0,0,0,73.42,106.24Z"/><ellipse class="cls-3" cx="78.44" cy="102.89" rx="25.73" ry="25.68"/><ellipse class="cls-4" cx="78.69" cy="102.74" rx="25.15" ry="25.1"/><path class="cls-5" d="M78.39,80h2.06a2.78,2.78,0,0,1,.64,0,1.1,1.1,0,0,1,.35.25,2,2,0,0,0,.39.22,5.67,5.67,0,0,0,1.09.32,2,2,0,0,0,.48.08H84a2.23,2.23,0,0,1,1,.16,2.55,2.55,0,0,1,.37.24,5.78,5.78,0,0,1,.6.35,1,1,0,0,0,.4.21l0.16,0.08a0.54,0.54,0,0,0,.07.09,0.86,0.86,0,0,0,.17,0c0.07,0,.13.06,0.2,0.08s0.3,0,.45,0a1.79,1.79,0,0,1,.23.09c0.1,0,.23,0,0.33,0a1.1,1.1,0,0,1,.2.15l0.29,0.15s0.08,0,.1,0a1.49,1.49,0,0,1,.14.13c0.14,0.1.39,0.08,0.4,0.34a0.61,0.61,0,0,1,.38.27,3.19,3.19,0,0,1,.41.36,1.22,1.22,0,0,0,.73.48,3.81,3.81,0,0,0,.93.26,1.34,1.34,0,0,1,.81.32,0.57,0.57,0,0,1,.14.3,0.67,0.67,0,0,0,.1.16,0.16,0.16,0,0,1,.13.1v0.08a3.51,3.51,0,0,0,.46.5c0.16,0.16.33,0.31,0.48,0.48a1.32,1.32,0,0,0,.73.47l0,0.13a1.29,1.29,0,0,1,.22.1c0.15,0,.15,0,0.25.07a1,1,0,0,1,.07.57,1.76,1.76,0,0,0,.47.73,3,3,0,0,0,.68.68,2.43,2.43,0,0,1,.3.12c0.06,0,.09.12,0.15,0.16a0.92,0.92,0,0,0,.26.07,0.82,0.82,0,0,0,.31.16,0.69,0.69,0,0,0,.16.35,2.21,2.21,0,0,1,.24.4,1.39,1.39,0,0,0,0,.19s0.09,0.09.11,0.13,0,0.14.09,0.19S98,90.88,98.07,91a1,1,0,0,1,.06.45,1.13,1.13,0,0,0,.24.39,2.44,2.44,0,0,1,.42.35,1.69,1.69,0,0,1,.15.45c0,0.09,0,.19,0,0.28A0.61,0.61,0,0,0,99,93c0.08,0.19.17,0.35,0.24,0.55a0.57,0.57,0,0,0,.17.31,1.61,1.61,0,0,1,.31.29,5.42,5.42,0,0,1,.32.64,2.77,2.77,0,0,1,.27.45,3.05,3.05,0,0,1,0,.58,2.13,2.13,0,0,0,.23,1,1.06,1.06,0,0,1,.17.35,2.78,2.78,0,0,1,.08.52c0,0.36,0,.72,0,1.08a2.44,2.44,0,0,0,0,.52c0,0.08.06,0.15,0.08,0.24a0.64,0.64,0,0,0,0,.12,0.41,0.41,0,0,0,.13.09,1.7,1.7,0,0,1,.28,1.06,2.13,2.13,0,0,1,0,.52l-0.06.24s0,0.06,0,.08,0,0.18,0,.24a1.6,1.6,0,0,0-.09.15,0.63,0.63,0,0,1,0,.24,0.42,0.42,0,0,0-.13.28c0,0.09,0,.19,0,0.28q0,0.66,0,1.31v0.52a1.76,1.76,0,0,0,0,.59,0.8,0.8,0,0,1,.15.29c0,0.08,0,.16,0,0.24s0,0.19,0,.28,0,0.11-.12.21a1.25,1.25,0,0,0-.2.54,3.12,3.12,0,0,0-.08.67,3.31,3.31,0,0,1-.15,1.12,2.77,2.77,0,0,1-.29.89,0.5,0.5,0,0,0-.12.27,1.67,1.67,0,0,0-.08.28,2,2,0,0,1,0,.23,1.2,1.2,0,0,0-.08.2,1.32,1.32,0,0,1,0,.27,2,2,0,0,1-.12.16,2.24,2.24,0,0,0-.12.48,2.06,2.06,0,0,1-.65,1,9.65,9.65,0,0,1-.68.69,1.85,1.85,0,0,0-.69.47,4.16,4.16,0,0,0-.2,1c-0.06.27-.16,0.54-0.19,0.81,0,0.1,0,.2,0,0.29a0.67,0.67,0,0,1-.06.18,1.81,1.81,0,0,1-.08.23,2.14,2.14,0,0,1-.12.22,4,4,0,0,1-.44.25c-0.15.11-.24,0.28-0.39,0.38a1.45,1.45,0,0,0-.21.1s0,0.09-.08.12a2,2,0,0,1-.2.12c-0.17.11-.31,0.28-0.49,0.4l-0.62.4a1,1,0,0,0-.29.15c-0.08.09-.07,0.25-0.15,0.35s-0.24.24-.35,0.36a1,1,0,0,0-.16.21c0,0.07,0,.15-0.08.21a1.29,1.29,0,0,1-.37.32,1.34,1.34,0,0,1-.48.28,1.85,1.85,0,0,0-.53.18,5.08,5.08,0,0,1-.44.29,0.65,0.65,0,0,1-.27,0,1.35,1.35,0,0,0-.52.18,6.38,6.38,0,0,0-.88.62,1.82,1.82,0,0,0-.3.43,1.29,1.29,0,0,1-.2.22,0.78,0.78,0,0,0-.24.38,1.4,1.4,0,0,1-.4.41,2.07,2.07,0,0,1-.22.3c-0.1.07-.27,0-0.39,0.12a1,1,0,0,1-.65.21,0.82,0.82,0,0,0-.56.2,2,2,0,0,1-1,.44,1.21,1.21,0,0,0-.52,0c-0.19.09-.37,0.22-0.56,0.31a3.77,3.77,0,0,1-1.17,0,1.28,1.28,0,0,0-.56.24l-0.41.28a0.71,0.71,0,0,1-.32.2,2.86,2.86,0,0,0-1.54.05,1.78,1.78,0,0,0-.12.18,1.15,1.15,0,0,1-.18.11,1.58,1.58,0,0,1-.26.21,2.51,2.51,0,0,1-.86.09h-1.4a1.25,1.25,0,0,0-.41.17c-0.1,0-.22,0-0.32.08l-0.24.08c-0.07,0-.14,0-0.21,0s-0.1.06-.14,0.07a1.07,1.07,0,0,1-.39,0,2.07,2.07,0,0,1-.48-0.24l-0.24-.16a1.88,1.88,0,0,0-.3-0.1c-0.21-.09-0.37-0.31-0.58-0.41s-0.14,0-.2-0.06-0.13-.11-0.2-0.14a1.22,1.22,0,0,0-.4,0H73.31a1.49,1.49,0,0,1-.87-0.07c-0.15-.17-0.08-0.52-0.23-0.67a1.8,1.8,0,0,0-.83-0.05,4.15,4.15,0,0,1-.4-0.14,5.22,5.22,0,0,0-.58-0.12,1.8,1.8,0,0,1-.81-0.3,1.21,1.21,0,0,1-.18-0.13,2.57,2.57,0,0,1-.13-0.24c-0.08-.11-0.19-0.16-0.26-0.27s-0.1-.11-0.31-0.16-0.07-.07-0.12-0.08-0.17,0-.26,0a1.6,1.6,0,0,0-.09-0.38c-0.08-.24-0.09-0.21-0.33-0.24s-0.12-.12-0.18-0.32a0.63,0.63,0,0,0-.3-0.4c-0.08,0-.17,0-0.25,0a0.74,0.74,0,0,1-.09-0.07,2.3,2.3,0,0,0-.47,0,3.24,3.24,0,0,1-.48,0,0.84,0.84,0,0,1-.56-0.4,4.77,4.77,0,0,1-.41-0.5,2.55,2.55,0,0,1-.24-0.46,1.62,1.62,0,0,0-.65-0.78,2.81,2.81,0,0,0-.4-0.2c-0.1,0-.21,0-0.31-0.08s-0.11-.1-0.17-0.12a2.47,2.47,0,0,1-.81-0.41,1.25,1.25,0,0,1-.24-0.88,0.67,0.67,0,0,0-.48-0.62,1.91,1.91,0,0,0-.57-0.18,2.91,2.91,0,0,1-.49,0,1.28,1.28,0,0,1-.41-0.84l-0.17-.44a1,1,0,0,0-.28-0.28,0.59,0.59,0,0,0-.11-0.19c-0.09-.05-0.22,0-0.3,0a1.1,1.1,0,0,1-.11-0.21,1.85,1.85,0,0,1-.16-0.17c-0.07-.11-0.08-0.21-0.16-0.32a1.64,1.64,0,0,1-.24-0.57c-0.11-.36,0-0.75-0.14-1.11a2.94,2.94,0,0,0-.16-0.46l-0.22-.33a2,2,0,0,0-.34-0.46,1.19,1.19,0,0,1-.32-0.5c-0.15-.31-0.36-0.62-0.49-1,0-.13-0.1-0.27-0.16-0.4a2.46,2.46,0,0,1-.1-0.46c0-.13-0.16-0.28-0.21-0.42a1.18,1.18,0,0,1,0-.24,1.09,1.09,0,0,0-.06-0.18c0-.15,0-0.31,0-0.46a2.22,2.22,0,0,1-.08-0.4,1.07,1.07,0,0,0-.08-0.4,2.07,2.07,0,0,0-.14-0.42,2.69,2.69,0,0,1-.43-0.7,3.29,3.29,0,0,1,0-.94A1.35,1.35,0,0,1,56,104.7c0-.08,0-0.15,0-0.22s0.07-.16.09-0.26a2.24,2.24,0,0,0,0-.38,2.55,2.55,0,0,0,0-.59c0-.07,0-0.14,0-0.21s-0.05-.13-0.06-0.18,0-.33,0-0.46a2.47,2.47,0,0,1-.33-0.48c-0.06-.55,0-1.12,0-1.67a0.73,0.73,0,0,1,.09-0.4c0.11-.17.3-0.24,0.41-0.4a1.38,1.38,0,0,0,.14-0.88v-1c0-.22,0-0.44,0-0.66a5.12,5.12,0,0,1,.22-1.1A6.14,6.14,0,0,1,57,94.67a1.32,1.32,0,0,1,.3-0.42,1.6,1.6,0,0,0,.28-0.45c0.09-.18.21-0.32,0.3-0.48a4.12,4.12,0,0,0,.18-0.4c0-.07.1-0.12,0.13-0.18s0-.27.1-0.37a3.83,3.83,0,0,1,.47-0.52,3,3,0,0,1,.42-0.39A0.57,0.57,0,0,0,59.37,91a2,2,0,0,1,.19-0.33,3.27,3.27,0,0,0,.14-0.48,6.3,6.3,0,0,1,.36-0.73,2.75,2.75,0,0,1,.28-0.5,1.37,1.37,0,0,1,.16-0.18,2,2,0,0,1,.29,0l0-.13,0.22,0A4.21,4.21,0,0,1,61.13,88a3.55,3.55,0,0,1,.26-0.57s0.11-.06.13-0.09a1.72,1.72,0,0,0,.05-0.18A1,1,0,0,1,62,86.66c0.21-.12.44-0.17,0.65-0.28a1.6,1.6,0,0,1,.1-0.48c0-.13.11-0.26,0.16-0.4a2.48,2.48,0,0,1,.46-0.68,2.56,2.56,0,0,1,1-.66A1.75,1.75,0,0,0,64.81,84a1.85,1.85,0,0,1,.28-0.19,0.72,0.72,0,0,0,.18,0,0.63,0.63,0,0,1,.28-0.18A1.43,1.43,0,0,0,66,83.44a1.63,1.63,0,0,0,.4-0.4,3.44,3.44,0,0,1,.44-0.38,3.63,3.63,0,0,1,.52-0.32,1.7,1.7,0,0,1,.81-0.1,2.42,2.42,0,0,0,.79-0.06,4,4,0,0,0,.57-0.24,1,1,0,0,0,.3-0.17s0-.12.05-0.15a0.27,0.27,0,0,1,.14,0,3.27,3.27,0,0,1,.57-0.14,3,3,0,0,0,.56-0.1,3.64,3.64,0,0,1,.49-0.1,3.33,3.33,0,0,0,.8-0.48,2.61,2.61,0,0,1,.81-0.05,1.41,1.41,0,0,0,.4-0.24c0.17-.11.34-0.24,0.49-0.36A0.32,0.32,0,0,1,74.4,80c0.23,0,.2,0,0.28.22a0.66,0.66,0,0,0,.74.26,2.35,2.35,0,0,0,.79-0.08l0.39-.14C76.85,80.21,78.28,79.51,78.39,80Z"/><path class="cls-6" d="M71.34,84a1,1,0,0,1,.53-1.29,16.53,16.53,0,0,1,13.16,0A1,1,0,0,1,85.55,84L79,100.82a0.35,0.35,0,0,1-.65,0Z"/><path class="cls-6" d="M71.34,120.87a1,1,0,0,0,.53,1.29,16.53,16.53,0,0,0,13.16,0,1,1,0,0,0,.52-1.27L79,104a0.35,0.35,0,0,0-.65,0Z"/><path class="cls-6" d="M97.08,95.38a1,1,0,0,1,1.3.53,16.45,16.45,0,0,1,0,13.13,1,1,0,0,1-1.27.51L80.22,103a0.35,0.35,0,0,1,0-.65Z"/><path class="cls-6" d="M60.13,95.38a1,1,0,0,0-1.3.53,16.45,16.45,0,0,0,0,13.13,1,1,0,0,0,1.27.51L77,103a0.35,0.35,0,0,0,0-.65Z"/><path class="cls-6" d="M86.49,84.38a1,1,0,0,1,1.29-.54,16.49,16.49,0,0,1,9.29,9.3,1,1,0,0,1-.53,1.26L80,101.66a0.35,0.35,0,0,1-.47-0.46Z"/><path class="cls-6" d="M60.36,110.46a1,1,0,0,0-.54,1.29A16.49,16.49,0,0,0,69.14,121a1,1,0,0,0,1.26-.53l7.28-16.56a0.35,0.35,0,0,0-.46-0.47Z"/><path class="cls-6" d="M60.36,94.55a1,1,0,0,1-.54-1.29A16.49,16.49,0,0,1,69.14,84a1,1,0,0,1,1.26.53l7.28,16.56a0.35,0.35,0,0,1-.46.47Z"/><path class="cls-6" d="M86.49,120.63a1,1,0,0,0,1.29.54,16.49,16.49,0,0,0,9.29-9.3,1,1,0,0,0-.53-1.26L80,103.35a0.35,0.35,0,0,0-.47.46Z"/><path class="cls-5" d="M73.58,98.53c0.19,0.78,1.3,1.49,2.78,1.81a0.18,0.18,0,0,0,.22-0.21c-0.31-1.49-1-2.6-1.78-2.8A0.92,0.92,0,0,0,73.58,98.53Z"/><path class="cls-5" d="M74.77,107.55c0.79-.19,1.49-1.3,1.82-2.78a0.18,0.18,0,0,0-.21-0.22c-1.49.31-2.61,1-2.81,1.78A0.92,0.92,0,0,0,74.77,107.55Z"/><path class="cls-5" d="M83.45,98.84c-0.19.78-1.3,1.49-2.78,1.81a0.18,0.18,0,0,1-.22-0.21c0.31-1.49,1-2.6,1.78-2.8A0.92,0.92,0,0,1,83.45,98.84Z"/><path class="cls-5" d="M82.25,107.55c-0.79-.19-1.49-1.3-1.82-2.78a0.18,0.18,0,0,1,.21-0.22c1.49,0.31,2.61,1,2.81,1.78A0.92,0.92,0,0,1,82.25,107.55Z"/><path class="cls-7" d="M78.07,86.51a24.61,24.61,0,0,0,.9,7.75c0.07,0.28.18,0.29,0.23,0a23.58,23.58,0,0,0,.15-7.7c0-.11-0.34-1.43-0.71-1.43S78.09,86.38,78.07,86.51Z"/><path class="cls-7" d="M74.42,85.4a23.14,23.14,0,0,0,2.21,6.38c0.11,0.22.19,0.2,0.17,0a23,23,0,0,0-1.42-6.6c0-.09-0.54-1.13-0.82-1S74.41,85.28,74.42,85.4Z"/><path class="cls-7" d="M81.62,84.43A16.12,16.12,0,0,0,81,90c0,0.21.09,0.25,0.17,0.07a14.64,14.64,0,0,0,1.38-5.26,1.91,1.91,0,0,0-.31-1.19C82,83.55,81.65,84.34,81.62,84.43Z"/><path class="cls-7" d="M90.33,90.52a24.61,24.61,0,0,0-5.42,5.62c-0.17.23-.1,0.32,0.13,0.18a23.58,23.58,0,0,0,6-4.78c0.07-.09.89-1.17,0.65-1.46S90.45,90.45,90.33,90.52Z"/><path class="cls-7" d="M87.95,87.6a23.14,23.14,0,0,0-3.52,5.76c-0.1.22,0,.27,0.15,0.1a23,23,0,0,0,4.2-5.3c0-.09.53-1.13,0.28-1.29S88,87.51,87.95,87.6Z"/><path class="cls-7" d="M93.26,92.54a16.12,16.12,0,0,0-4.7,3.09c-0.16.14-.13,0.23,0.05,0.18a14.64,14.64,0,0,0,4.94-2.27,1.91,1.91,0,0,0,.72-1C94.18,92.27,93.35,92.51,93.26,92.54Z"/><path class="cls-7" d="M78.11,117.47a24.61,24.61,0,0,1,.9-7.75c0.07-.28.18-0.29,0.23,0a23.58,23.58,0,0,1,.15,7.7c0,0.11-.34,1.43-0.71,1.43S78.13,117.6,78.11,117.47Z"/><path class="cls-7" d="M74.47,118.59a23.14,23.14,0,0,1,2.21-6.38c0.11-.22.19-0.2,0.17,0a23,23,0,0,1-1.42,6.6c0,0.09-.54,1.13-0.82,1S74.45,118.7,74.47,118.59Z"/><path class="cls-7" d="M81.66,119.55a16.12,16.12,0,0,1-.6-5.6c0-.21.09-0.25,0.17-0.07a14.64,14.64,0,0,1,1.38,5.26,1.91,1.91,0,0,1-.31,1.19C82,120.44,81.7,119.64,81.66,119.55Z"/><path class="cls-7" d="M90.38,113.46A24.61,24.61,0,0,1,85,107.84c-0.17-.23-0.1-0.32.13-0.18a23.58,23.58,0,0,1,6,4.78c0.07,0.09.89,1.17,0.65,1.46S90.49,113.53,90.38,113.46Z"/><path class="cls-7" d="M88,116.38a23.14,23.14,0,0,1-3.52-5.76c-0.1-.22,0-0.27.15-0.1a23,23,0,0,1,4.2,5.3c0,0.09.53,1.13,0.28,1.29S88.07,116.47,88,116.38Z"/><path class="cls-7" d="M93.31,111.44a16.12,16.12,0,0,1-4.7-3.09c-0.16-.14-0.13-0.23.05-0.18a14.64,14.64,0,0,1,4.94,2.27,1.91,1.91,0,0,1,.72,1C94.22,111.72,93.4,111.47,93.31,111.44Z"/><path class="cls-7" d="M67.69,90.82a24.61,24.61,0,0,1,5,6c0.16,0.24.08,0.33-.15,0.17a23.58,23.58,0,0,1-5.68-5.2c-0.06-.1-0.8-1.23-0.54-1.5S67.58,90.74,67.69,90.82Z"/><path class="cls-7" d="M69.4,87.41a23.14,23.14,0,0,1,3.1,6c0.09,0.23,0,.28-0.15.09a23,23,0,0,1-3.8-5.58c0-.09-0.45-1.17-0.18-1.3S69.32,87.32,69.4,87.41Z"/><path class="cls-7" d="M63.74,92a16.12,16.12,0,0,1,4.47,3.42c0.15,0.15.12,0.24-.06,0.17a14.64,14.64,0,0,1-4.77-2.62,1.91,1.91,0,0,1-.65-1C62.84,91.62,63.65,91.92,63.74,92Z"/><path class="cls-7" d="M62.15,102.47a24.61,24.61,0,0,1,7.81-.05c0.29,0,.31.15,0,0.22a23.58,23.58,0,0,1-7.62,1.08c-0.12,0-1.46-.16-1.5-0.53S62,102.5,62.15,102.47Z"/><path class="cls-7" d="M61.67,98.72a23.14,23.14,0,0,1,6.6,1.42c0.23,0.08.22,0.17,0,.18a23,23,0,0,1-6.73-.61c-0.1,0-1.19-.4-1.12-0.69S61.55,98.72,61.67,98.72Z"/><path class="cls-7" d="M61.59,106a16.12,16.12,0,0,1,5.48-1.28c0.21,0,.26.06,0.09,0.16a14.64,14.64,0,0,1-5.05,2,1.91,1.91,0,0,1-1.22-.16C60.76,106.46,61.5,106,61.59,106Z"/><path class="cls-7" d="M95.85,102.77a24.61,24.61,0,0,1-7.79-.5c-0.28-.05-0.3-0.17,0-0.23a23.58,23.58,0,0,1,7.68-.54c0.12,0,1.44.27,1.46,0.64S96,102.75,95.85,102.77Z"/><path class="cls-7" d="M96.06,106.55a23.14,23.14,0,0,1-6.48-1.89c-0.23-.1-0.21-0.18,0-0.17a23,23,0,0,1,6.67,1.09c0.09,0,1.15.48,1.07,0.76S96.18,106.55,96.06,106.55Z"/><path class="cls-7" d="M96.66,99.31a16.12,16.12,0,0,1-5.56.88c-0.21,0-.25-0.08-0.08-0.17a14.64,14.64,0,0,1,5.18-1.65,1.91,1.91,0,0,1,1.2.25C97.52,98.89,96.75,99.27,96.66,99.31Z"/><path class="cls-7" d="M66.35,114.62a24.61,24.61,0,0,1,5.72-5.31c0.23-.17.33-0.1,0.18,0.14a23.58,23.58,0,0,1-4.9,5.94c-0.09.07-1.19,0.86-1.47,0.62S66.27,114.73,66.35,114.62Z"/><path class="cls-7" d="M63.47,112.18a23.14,23.14,0,0,1,5.83-3.4c0.23-.1.28,0,0.1,0.15A23,23,0,0,1,64,113c-0.09,0-1.14.51-1.29,0.25S63.38,112.26,63.47,112.18Z"/><path class="cls-7" d="M68.3,117.59a16.12,16.12,0,0,1,3.18-4.64c0.14-.16.23-0.13,0.18,0.05a14.64,14.64,0,0,1-2.37,4.9,1.91,1.91,0,0,1-1,.7C68,118.5,68.28,117.68,68.3,117.59Z"/><path class="cls-8" d="M73.44,106.26L88.51,263.19a2.25,2.25,0,0,0,2,2,255,255,0,0,0,56.68,0,2.7,2.7,0,0,0,2.4-2.39l16.06-156.18a3.48,3.48,0,0,0-3.3-3.8c-12.71-.73-26.06-1.18-40-1.23-16.13-.06-31.48.41-46,1.25A3.1,3.1,0,0,0,73.44,106.26Z"/><path class="cls-9" d="M159,118.89q-6,55.72-12,111.43L147,231l-1.85,17.22a2.29,2.29,0,0,1-2.07,2c-6.31.67-13.27,1.15-20.78,1.27l-4,0H118.1l-2.2,0c-7.91-.1-15.21-0.6-21.8-1.3a1.9,1.9,0,0,1-1.73-1.67l-0.6-5.93-12.42-124c12-.91,24.95-1.45,38.78-1.42C132.77,117.16,146.46,117.83,159,118.89Z"/><path class="cls-10" d="M123.44,207.53l4.17-14a3.6,3.6,0,0,1,4.46-2.42L145.2,195a3.57,3.57,0,0,1,2.41,4.44l-4.17,14a3.6,3.6,0,0,1-4.46,2.42L125.85,212A3.57,3.57,0,0,1,123.44,207.53Z"/><path class="cls-11" d="M123.93,205.9l3.76-12.57a3.35,3.35,0,0,1,4.15-2.25l11.8,3.48a3.32,3.32,0,0,1,2.24,4.14l-3.76,12.57a3.35,3.35,0,0,1-4.15,2.25L126.17,210A3.32,3.32,0,0,1,123.93,205.9Z"/><path class="cls-12" d="M144.53,194.82a2.33,2.33,0,0,1,1.62,3l-4.28,14.33a2.67,2.67,0,0,1-1.57,1.6,2.46,2.46,0,0,1-1.43,0l-13.57-4a2.4,2.4,0,0,1-1.41-1.05,2.43,2.43,0,0,1-.22-1.94,2.54,2.54,0,0,0,.89,1.75,2.37,2.37,0,0,0,1,.48L139,213a2.29,2.29,0,0,0,2.19-1.14l4.27-14a2.34,2.34,0,0,0,.21-1.28A2.51,2.51,0,0,0,144.53,194.82Z"/><path class="cls-13" d="M118,237.1l-11.38-6.57a3.36,3.36,0,0,1-1.24-4.57l6.13-10.7A3.33,3.33,0,0,1,116.1,214l11.38,6.57a3.36,3.36,0,0,1,1.24,4.57l-6.13,10.7A3.33,3.33,0,0,1,118,237.1Z"/><path class="cls-10" d="M97.86,205.39l-3.49-14.52a3.69,3.69,0,0,1,2.71-4.44l13.63-3.33a3.66,3.66,0,0,1,4.42,2.7l3.49,14.52a3.69,3.69,0,0,1-2.71,4.44l-13.63,3.33A3.66,3.66,0,0,1,97.86,205.39Z"/><path class="cls-14" d="M97.45,203.69l-3.14-13.08a3.43,3.43,0,0,1,2.52-4.14l12.26-3a3.4,3.4,0,0,1,4.12,2.51l3.14,13.08a3.43,3.43,0,0,1-2.52,4.14l-12.26,3A3.4,3.4,0,0,1,97.45,203.69Z"/><path class="cls-12" d="M110,183.26a2.39,2.39,0,0,1,3,1.82L116.57,200a2.73,2.73,0,0,1-.57,2.23,2.53,2.53,0,0,1-1.26.76l-14.09,3.44a2.46,2.46,0,0,1-1.79-.21,2.49,2.49,0,0,1-1.19-1.61,2.6,2.6,0,0,0,1.69,1.1,2.43,2.43,0,0,0,1.17-.11l13.93-3.4a2.34,2.34,0,0,0,1.35-2.13l-3.43-14.61a2.4,2.4,0,0,0-.48-1.24A2.57,2.57,0,0,0,110,183.26Z"/><path class="cls-10" d="M96.67,137.34L87,126.4a3.6,3.6,0,0,1,.31-5.06l10.24-9.07a3.56,3.56,0,0,1,5,.32l9.62,10.94a3.6,3.6,0,0,1-.31,5.06l-10.24,9.07A3.56,3.56,0,0,1,96.67,137.34Z"/><path class="cls-15" d="M95.54,136.06l-8.66-9.85a3.35,3.35,0,0,1,.29-4.71l9.21-8.16a3.32,3.32,0,0,1,4.7.29l8.66,9.85a3.35,3.35,0,0,1-.29,4.71l-9.21,8.16A3.32,3.32,0,0,1,95.54,136.06Z"/><path class="cls-16" d="M97.08,112.73a2.33,2.33,0,0,1,3.4.21l9.87,11.23a2.67,2.67,0,0,1,.52,2.18,2.46,2.46,0,0,1-.74,1.23L99.55,137a2.4,2.4,0,0,1-1.64.63,2.43,2.43,0,0,1-1.76-.85,2.54,2.54,0,0,0,2,.18,2.37,2.37,0,0,0,1-.63L109.53,127a2.29,2.29,0,0,0,.2-2.46l-9.61-11a2.34,2.34,0,0,0-1-.86A2.51,2.51,0,0,0,97.08,112.73Z"/><path class="cls-10" d="M132.12,137.42l-14.75-4a3.78,3.78,0,0,1-2.65-4.62l3.73-13.87a3.74,3.74,0,0,1,4.6-2.64l14.75,4a3.78,3.78,0,0,1,2.65,4.62l-3.73,13.87A3.74,3.74,0,0,1,132.12,137.42Z"/><path class="cls-17" d="M130.4,137l-13.28-3.63a3.52,3.52,0,0,1-2.47-4.3L118,116.55a3.48,3.48,0,0,1,4.29-2.46l13.28,3.63A3.52,3.52,0,0,1,138,122l-3.36,12.47A3.48,3.48,0,0,1,130.4,137Z"/><path class="cls-16" d="M118.26,115.61a2.45,2.45,0,0,1,3.1-1.78L136.51,118a2.8,2.8,0,0,1,1.72,1.61,2.59,2.59,0,0,1,.06,1.5l-3.86,14.34a2.52,2.52,0,0,1-1.07,1.5,2.55,2.55,0,0,1-2,.28,2.66,2.66,0,0,0,1.81-1,2.48,2.48,0,0,0,.47-1.1L137.43,121a2.4,2.4,0,0,0-1.25-2.27l-14.8-4.13a2.46,2.46,0,0,0-1.35-.19A2.63,2.63,0,0,0,118.26,115.61Z"/><path class="cls-3" d="M105.25,236.28a20.41,20.41,0,0,0,22.11-3.77l-0.42-.42-1.23-1.25-13.37-13.59L108.15,213l-7.8-7.93L99,203.7l-0.22-.23a19.28,19.28,0,0,0-4.47,6.43A20.21,20.21,0,0,0,105.25,236.28Z"/><path class="cls-4" d="M105.2,235.89a20,20,0,0,0,21.74-3.81l-1.23-1.25-13.37-13.59L108.15,213l-7.8-7.93L99,203.7a19,19,0,0,0-4.49,6.41A19.76,19.76,0,0,0,105.2,235.89Z"/><path class="cls-5" d="M95.8,212.26a1.3,1.3,0,0,0-.12.84,0.24,0.24,0,0,1,.07.11s0,0.06,0,.08a1.91,1.91,0,0,0,0,.2,1.8,1.8,0,0,1-.15.37l-0.33.76a1.87,1.87,0,0,0-.11.4,0.77,0.77,0,0,0,0,.3,1.66,1.66,0,0,1-.14.79,2.25,2.25,0,0,0-.18.41,2.28,2.28,0,0,0,.06.41c0,0.18,0,.37,0,0.56a1.2,1.2,0,0,0,.14.3,0.45,0.45,0,0,1,0,.28,3.67,3.67,0,0,0,0,.46,0.73,0.73,0,0,1,0,.15,2.1,2.1,0,0,0-.09.19,1.09,1.09,0,0,0,0,.37,2.12,2.12,0,0,0,.2.38,0.88,0.88,0,0,1,.06.35,0.78,0.78,0,0,0-.1.34,1.4,1.4,0,0,0,.08.19s0,0.11,0,.16a1.06,1.06,0,0,1,0,.12,1,1,0,0,1,0,.16,1.9,1.9,0,0,0,.06.35,0.53,0.53,0,0,1,0,.3,0.69,0.69,0,0,1,.17.21,1,1,0,0,1,.18.13c0,0.05,0,.12.06,0.16a1.32,1.32,0,0,0,.18.18,2.28,2.28,0,0,1,.29.7,1.32,1.32,0,0,1,.11.67,0.81,0.81,0,0,0-.11.43c0,0.1.06,0.06,0.16,0.12a1.3,1.3,0,0,0,.13.14l0,0.1a1,1,0,0,1,.39.56L97,225.52a2.58,2.58,0,0,1,.19.5l0,0.06a0.13,0.13,0,0,0,.07.11,0.38,0.38,0,0,1,0,.14,0.47,0.47,0,0,0,0,.26,1.09,1.09,0,0,0,.49.48,3,3,0,0,1,.6.48,1,1,0,0,1,.38.57,2.36,2.36,0,0,0,.19.38,0.48,0.48,0,0,0,.19.32c-0.07.19,0.12,0.25,0.19,0.36s0,0.09.06,0.14l0.07,0,0.17,0.2a0.83,0.83,0,0,0,.1.17,1.48,1.48,0,0,0,.24.1,0.93,0.93,0,0,0,.14.13c0.1,0.07.23,0.08,0.33,0.15a1.33,1.33,0,0,0,.12.12,0.84,0.84,0,0,1,.12,0,0.24,0.24,0,0,1,0,.08l0.1,0.11a0.75,0.75,0,0,1,.23.27,5.06,5.06,0,0,0,.33.44,2,2,0,0,0,.2.29,1.8,1.8,0,0,0,.71.44l0.47,0.2a1.6,1.6,0,0,1,.33.21,4.28,4.28,0,0,1,.7.57,1.82,1.82,0,0,1,.22.28,0.93,0.93,0,0,0,.17.29,2.34,2.34,0,0,0,.47.2l1.5,0.64c-0.08.39,1.18,0.35,1.38,0.38l0.33,0a1.8,1.8,0,0,1,.6.19,0.53,0.53,0,0,1,.46.42c0,0.16,0,.17.14,0.25a0.24,0.24,0,0,0,.24,0,3.76,3.76,0,0,1,.47-0.1,1,1,0,0,1,.36,0,2.07,2.07,0,0,0,.61.21,2.49,2.49,0,0,1,.73-0.09,2.44,2.44,0,0,0,.39.08,2.9,2.9,0,0,1,.44.11,2.35,2.35,0,0,0,.46.08,0.22,0.22,0,0,0,.11,0s0-.08.08-0.09a1,1,0,0,1,.27,0,3.47,3.47,0,0,1,.49,0,2,2,0,0,1,.59.21,1.31,1.31,0,0,0,.61.18,2.39,2.39,0,0,0,.48-0.06,2.68,2.68,0,0,0,.44-0.13,1.27,1.27,0,0,1,.41-0.16,1,1,0,0,1,.36,0,0.57,0.57,0,0,0,.26,0,0.51,0.51,0,0,1,.15,0,1.05,1.05,0,0,0,.26,0,1.48,1.48,0,0,1,.38,0,2,2,0,0,0,.91-0.17,1.73,1.73,0,0,0,.55-0.34l0.23-.23a1.16,1.16,0,0,0,.22-0.32c0.18,0,.37,0,0.56,0a0.77,0.77,0,0,0,.46-0.2s0.06-.08.1-0.11a1.26,1.26,0,0,1,.12,0,2.43,2.43,0,0,0,.36-0.33,3.34,3.34,0,0,0,.25-0.41l0.16,0,0.06-.09a1.14,1.14,0,0,0,.22.07,1.22,1.22,0,0,0,.18-0.08,2.24,2.24,0,0,0,.36-0.27,5,5,0,0,0,.49-0.4,3.18,3.18,0,0,1,.25-0.3,1.3,1.3,0,0,0,.24-0.18,0.43,0.43,0,0,1,.26-0.26,2.15,2.15,0,0,0,.42-0.15,3.11,3.11,0,0,0,.5-0.22c0.07-.06.11-0.17,0.18-0.24l0.15-.08a2.35,2.35,0,0,1,.25-0.23c0.12-.08.25-0.15,0.37-0.25l0.18-.15-13.37-13.59L108.15,213l-7.8-7.93a0.93,0.93,0,0,0-.13.14,1.75,1.75,0,0,1-.23.31,0.71,0.71,0,0,0-.14.08,1,1,0,0,0-.09.19,1,1,0,0,1-.12.12,1.44,1.44,0,0,0-.07.16,1,1,0,0,1-.15.17,0.41,0.41,0,0,1-.17.15,2.15,2.15,0,0,0-.49.55,2.62,2.62,0,0,0-.45.75,2.05,2.05,0,0,1-.27.46,1,1,0,0,1-.31.32c-0.11,0-.1,0-0.16.12l-0.08.2a1.56,1.56,0,0,0-.08.17,0.61,0.61,0,0,0,0,.25,1.36,1.36,0,0,1-.17.42l-0.56,1.31a2.09,2.09,0,0,1-.08.2,0.34,0.34,0,0,1-.17.16,0.45,0.45,0,0,0-.1.17,0.55,0.55,0,0,1-.1.08s-0.08.12-.1,0.16l-0.06,0-0.12.16A1.44,1.44,0,0,0,95.8,212.26Z"/><path class="cls-6" d="M112.5,233.67a0.76,0.76,0,0,1-.78.76,13.42,13.42,0,0,1-9.6-4.14,0.76,0.76,0,0,1,0-1.06l9.95-9.95a0.28,0.28,0,0,1,.48.2Z"/><path class="cls-6" d="M97.2,217.47a0.8,0.8,0,0,1-.78-0.79,12.48,12.48,0,0,1,4-9.36,0.79,0.79,0,0,1,1.08,0l10.31,10a0.27,0.27,0,0,1-.19.47Z"/><path class="cls-6" d="M101.57,228.64a0.8,0.8,0,0,1-1.11,0,13.26,13.26,0,0,1-3.15-4.84,12.8,12.8,0,0,1-.79-4.71,0.76,0.76,0,0,1,.77-0.73l14.32,0a0.28,0.28,0,0,1,.2.47Z"/><path class="cls-18" d="M88.68,156.92a23.45,23.45,0,0,0,6.81,24.85l0.44-.53,1.29-1.55,14-16.82,4.39-5.28,8.18-9.81,1.4-1.68,0.24-.28a22.14,22.14,0,0,0-7.85-4.38C105.54,137.62,92.6,144.56,88.68,156.92Z"/><path class="cls-19" d="M89.12,156.81a22.92,22.92,0,0,0,6.81,24.42l1.29-1.55,14-16.82,4.39-5.28,8.18-9.81,1.4-1.68a21.84,21.84,0,0,0-7.83-4.41C105.6,138,92.95,144.74,89.12,156.81Z"/><path class="cls-20" d="M115.07,143.4a1.49,1.49,0,0,0-1,0,0.28,0.28,0,0,1-.12.09s-0.07,0-.09,0a2.2,2.2,0,0,0-.23,0,2.07,2.07,0,0,1-.44-0.13L112.3,143a2.15,2.15,0,0,0-.47-0.08,0.89,0.89,0,0,0-.34.06,1.91,1.91,0,0,1-.92-0.07,2.58,2.58,0,0,0-.48-0.16,2.61,2.61,0,0,0-.46.11c-0.21,0-.43.05-0.63,0.1a1.38,1.38,0,0,0-.33.2,0.51,0.51,0,0,1-.31.06,4.21,4.21,0,0,0-.53.06,0.84,0.84,0,0,1-.17,0,2.41,2.41,0,0,0-.23-0.08,1.25,1.25,0,0,0-.42,0,2.44,2.44,0,0,0-.42.27,1,1,0,0,1-.4.11,0.9,0.9,0,0,0-.4-0.07,1.6,1.6,0,0,0-.21.11c-0.05,0-.13,0-0.19,0a1.21,1.21,0,0,1-.14.06,1.11,1.11,0,0,1-.18,0,2.19,2.19,0,0,0-.4.11,0.61,0.61,0,0,1-.35.05,0.8,0.8,0,0,1-.22.22,1.15,1.15,0,0,1-.13.22c-0.06,0-.13,0-0.18.09a1.51,1.51,0,0,0-.19.23,2.62,2.62,0,0,1-.76.41,1.51,1.51,0,0,1-.75.21,0.92,0.92,0,0,0-.5-0.08c-0.11.05-.06,0.07-0.12,0.19a1.49,1.49,0,0,0-.15.17h-0.12a1.17,1.17,0,0,1-.6.51l-0.54.29a3,3,0,0,1-.55.27l-0.07,0a0.15,0.15,0,0,0-.12.09,0.44,0.44,0,0,1-.16,0,0.54,0.54,0,0,0-.3,0,1.25,1.25,0,0,0-.5.62,3.5,3.5,0,0,1-.48.74,1.11,1.11,0,0,1-.61.5,2.71,2.71,0,0,0-.41.26,0.55,0.55,0,0,0-.34.26c-0.23-.06-0.27.16-0.39,0.26s-0.1,0-.15.09,0,0.06,0,.09l-0.21.22a1,1,0,0,0-.19.14,1.7,1.7,0,0,0-.08.29,1.06,1.06,0,0,0-.14.18c-0.07.12-.07,0.27-0.13,0.39a1.53,1.53,0,0,0-.12.15,1,1,0,0,1,0,.15,0.28,0.28,0,0,1-.09,0l-0.12.12a0.86,0.86,0,0,1-.28.29,5.81,5.81,0,0,0-.47.43,2.29,2.29,0,0,0-.31.26,2.07,2.07,0,0,0-.42.86c-0.06.19-.13,0.38-0.18,0.57a1.84,1.84,0,0,1-.21.4,4.91,4.91,0,0,1-.57.86,2.09,2.09,0,0,1-.29.28,1.07,1.07,0,0,0-.31.23,2.69,2.69,0,0,0-.18.56l-0.57,1.79c-0.46,0-.26,1.39-0.27,1.62s0,0.25,0,.38a2.06,2.06,0,0,1-.14.71,0.61,0.61,0,0,1-.42.58c-0.18,0-.2,0-0.27.19a0.28,0.28,0,0,0,0,.27,4.32,4.32,0,0,1,.17.53,1.14,1.14,0,0,1,.09.41,2.38,2.38,0,0,0-.17.72,2.86,2.86,0,0,1,.19.82,2.81,2.81,0,0,0,0,.46,3.34,3.34,0,0,1-.07.51,2.7,2.7,0,0,0,0,.53,0.25,0.25,0,0,0,0,.13s0.09,0,.12.08a1.19,1.19,0,0,1,.06.3,4,4,0,0,1,0,.56,2.25,2.25,0,0,1-.17.7,1.5,1.5,0,0,0-.13.72,2.74,2.74,0,0,0,.12.54,3.08,3.08,0,0,0,.2.49,1.45,1.45,0,0,1,.23.45,1.12,1.12,0,0,1,0,.41,0.65,0.65,0,0,0,.08.29,0.59,0.59,0,0,1,0,.17,1.21,1.21,0,0,0,.09.29,1.7,1.7,0,0,1,0,.44,2.29,2.29,0,0,0,.29,1,2,2,0,0,0,.45.59l0.29,0.24a1.33,1.33,0,0,0,.39.22c0,0.21,0,.42.06,0.64a0.88,0.88,0,0,0,.29.51s0.1,0.06.14,0.1a1.44,1.44,0,0,1,0,.14,2.79,2.79,0,0,0,.41.38,3.83,3.83,0,0,0,.49.24l0,0.19,0.11,0.06a1.31,1.31,0,0,0-.06.26,1.41,1.41,0,0,0,.11.19,2.58,2.58,0,0,0,.35.38,5.77,5.77,0,0,0,.52.51,3.65,3.65,0,0,1,.38.25,1.49,1.49,0,0,0,.23.25,0.5,0.5,0,0,1,.32.27,2.47,2.47,0,0,0,.22.47,3.57,3.57,0,0,0,.31.55c0.07,0.08.21,0.1,0.29,0.18s0.06,0.11.11,0.16a2.7,2.7,0,0,1,.29.26c0.11,0.13.2,0.27,0.33,0.4a2.11,2.11,0,0,1,.19.19l14-16.82,4.39-5.28,8.18-9.81a1.07,1.07,0,0,0-.18-0.14,2,2,0,0,1-.38-0.23,0.81,0.81,0,0,0-.1-0.15,1.18,1.18,0,0,0-.23-0.08,1.11,1.11,0,0,1-.15-0.12,1.65,1.65,0,0,0-.19-0.06,1.19,1.19,0,0,1-.21-0.15,0.48,0.48,0,0,1-.19-0.18,2.47,2.47,0,0,0-.68-0.5,3,3,0,0,0-.91-0.43,2.36,2.36,0,0,1-.55-0.25,1.09,1.09,0,0,1-.4-0.31c-0.07-.12,0-0.11-0.15-0.17l-0.24-.07a1.79,1.79,0,0,0-.2-0.07,0.7,0.7,0,0,0-.29.06,1.57,1.57,0,0,1-.51-0.15l-1.56-.49-0.24-.07a0.39,0.39,0,0,1-.2-0.18,0.52,0.52,0,0,0-.2-0.1,0.64,0.64,0,0,1-.1-0.11l-0.19-.1-0.06-.06-0.2-.12A1.66,1.66,0,0,0,115.07,143.4Z"/><path class="cls-21" d="M92.49,164.91a0.88,0.88,0,0,1-1-.81,15.41,15.41,0,0,1,3.64-11.44,0.87,0.87,0,0,1,1.22-.11l12.5,10.24a0.32,0.32,0,0,1-.17.57Z"/><path class="cls-21" d="M109.26,145.58a0.92,0.92,0,0,1,.81-1,14.34,14.34,0,0,1,11.16,3.54,0.91,0.91,0,0,1,.09,1.24l-10.24,12.91a0.31,0.31,0,0,1-.56-0.17Z"/><path class="cls-21" d="M97,151.84a0.92,0.92,0,0,1-.1-1.27,15.23,15.23,0,0,1,5.18-4.15,14.7,14.7,0,0,1,5.29-1.44,0.87,0.87,0,0,1,.92.8l1.6,16.37a0.32,0.32,0,0,1-.52.28Z"/><path class="cls-21" d="M98.43,177.29a0.88,0.88,0,0,1-1.25.12,14.75,14.75,0,0,1-4-5.22,15.16,15.16,0,0,1-1.33-5.37,0.91,0.91,0,0,1,.8-1L108.75,164a0.32,0.32,0,0,1,.27.52Z"/><path class="cls-6" d="M123.74,229.58a0.77,0.77,0,0,1,0,1.09,12.84,12.84,0,0,1-4.86,3,13.2,13.2,0,0,1-4.77.69,0.79,0.79,0,0,1-.76-0.77L113.1,219.5a0.28,0.28,0,0,1,.48-0.19Z"/><path class="cls-20" d="M105.46,166.87c0.72,0,1.62-.73,2.31-1.93a0.16,0.16,0,0,0-.12-0.25c-1.35-.13-2.49.17-2.87,0.8a1.08,1.08,0,0,0-.12.95A1,1,0,0,0,105.46,166.87Z"/><path class="cls-20" d="M108.44,158.37c0.61,0.38.9,1.53,0.77,2.91a0.16,0.16,0,0,1-.24.13c-1.18-.67-1.93-1.57-1.89-2.3a1.08,1.08,0,0,1,.45-0.84A1,1,0,0,1,108.44,158.37Z"/><path class="cls-22" d="M96.48,159.74a21.45,21.45,0,0,0,6.84,1.3c0.26,0,.29-0.08.07-0.19a20.53,20.53,0,0,0-6.5-2.19c-0.1,0-1.31-.09-1.41.24S96.38,159.68,96.48,159.74Z"/><path class="cls-22" d="M94.53,162.61a20.31,20.31,0,0,0,6-.21c0.22,0,.22-0.12,0-0.16a20.13,20.13,0,0,0-6-.53c-0.09,0-1.11.17-1.1,0.43A1.82,1.82,0,0,0,94.53,162.61Z"/><path class="cls-22" d="M95.69,156.09a14,14,0,0,0,4.59,2c0.18,0.05.24,0,.11-0.13a12.79,12.79,0,0,0-4.09-2.61,1.67,1.67,0,0,0-1.09-.05A1.06,1.06,0,0,0,95.69,156.09Z"/><path class="cls-22" d="M103.27,150.15a22.14,22.14,0,0,0,3.28,6.22c0.15,0.21.25,0.18,0.19-.07a21.4,21.4,0,0,0-2.39-6.53c-0.06-.09-0.75-1.09-1.06-1S103.25,150,103.27,150.15Z"/><path class="cls-22" d="M100.13,151.44a20.51,20.51,0,0,0,3.93,4.61c0.16,0.15.23,0.1,0.13-.1a20.56,20.56,0,0,0-3.34-5.07c-0.07-.06-0.82-0.76-1-0.59A1.9,1.9,0,0,0,100.13,151.44Z"/><path class="cls-22" d="M105.8,148.14a14.72,14.72,0,0,0,1.33,4.92c0.07,0.18.16,0.18,0.17,0a13.48,13.48,0,0,0-.57-4.91,1.7,1.7,0,0,0-.64-0.89A1.1,1.1,0,0,0,105.8,148.14Z"/><path class="cls-22" d="M97.28,169.92a22.11,22.11,0,0,1,6.47-2.74c0.25-.07.3,0,0.11,0.17a21.37,21.37,0,0,1-6,3.54c-0.1,0-1.27.37-1.43,0.07S97.18,170,97.28,169.92Z"/><path class="cls-22" d="M94.85,167.52a20.49,20.49,0,0,1,6-1.08c0.22,0,.24.07,0,0.16A20.53,20.53,0,0,1,95,168.41c-0.09,0-1.12.07-1.16-.19A1.9,1.9,0,0,1,94.85,167.52Z"/><path class="cls-22" d="M97.15,173.66a14.71,14.71,0,0,1,4.14-3c0.17-.09.24,0,0.13,0.1a13.47,13.47,0,0,1-3.54,3.44,1.7,1.7,0,0,1-1.06.28A1.1,1.1,0,0,1,97.15,173.66Z"/><path class="cls-22" d="M115.21,148.63a23,23,0,0,1-2.57,6.64c-0.12.23-.22,0.21-0.2,0a22,22,0,0,1,1.66-6.82c0-.09.63-1.18,0.95-1.1S115.22,148.51,115.21,148.63Z"/><path class="cls-22" d="M118.47,149.46a21.52,21.52,0,0,1-3.39,5.13c-0.14.17-.21,0.13-0.14-0.08A21.48,21.48,0,0,1,117.7,149c0.06-.07.73-0.88,0.94-0.73A1.94,1.94,0,0,1,118.47,149.46Z"/><path class="cls-22" d="M112.49,147a15,15,0,0,1-.78,5.07c-0.05.19-.14,0.2-0.16,0a13.57,13.57,0,0,1,0-5,1.78,1.78,0,0,1,.54-1A1.07,1.07,0,0,1,112.49,147Z"/><path class="cls-6" d="M108.15,213l4.19,4.26a0.27,0.27,0,0,1-.21-0.08Z"/><path class="cls-5" d="M115.31,222.6a2.78,2.78,0,0,0-1.48-2.17,0.14,0.14,0,0,0-.22.08,2.69,2.69,0,0,0,.44,2.56,0.94,0.94,0,0,0,.81.18A0.88,0.88,0,0,0,115.31,222.6Z"/><path class="cls-5" d="M108.2,219.28a2.77,2.77,0,0,1,2.58-.42,0.14,0.14,0,0,1,.09.22,2.69,2.69,0,0,1-2.15,1.44,0.94,0.94,0,0,1-.69-0.46A0.88,0.88,0,0,1,108.2,219.28Z"/><path class="cls-23" d="M108.37,229.76a18.67,18.67,0,0,0,1.71-5.81c0-.22,0-0.26-0.16-0.08a17.87,17.87,0,0,0-2.46,5.44,1.86,1.86,0,0,0,.08,1.24C107.81,230.67,108.31,229.85,108.37,229.76Z"/><path class="cls-23" d="M110.69,231.7a17.68,17.68,0,0,0,.33-5.24c0-.19-0.08-0.2-0.14,0a17.52,17.52,0,0,0-1,5.16,1.53,1.53,0,0,0,.28,1A1.58,1.58,0,0,0,110.69,231.7Z"/><path class="cls-23" d="M105.14,230.13a12.22,12.22,0,0,0,2.15-3.8c0.06-.15,0-0.21-0.1-0.11a11.13,11.13,0,0,0-2.62,3.32,1.46,1.46,0,0,0-.14.94A0.92,0.92,0,0,0,105.14,230.13Z"/><path class="cls-23" d="M100.64,223.05a19.28,19.28,0,0,0,5.67-2.31c0.2-.11.18-0.2,0-0.17a18.63,18.63,0,0,0-5.87,1.51c-0.08,0-1,.56-0.92.84S100.53,223.07,100.64,223.05Z"/><path class="cls-23" d="M101.49,225.89a17.85,17.85,0,0,0,4.33-3c0.14-.13.1-0.19-0.08-0.12a17.9,17.9,0,0,0-4.68,2.46,1.49,1.49,0,0,0-.59.83A1.66,1.66,0,0,0,101.49,225.89Z"/><path class="cls-23" d="M99.12,220.7a12.82,12.82,0,0,0,4.38-.73c0.16,0,.17-0.12,0-0.14a11.74,11.74,0,0,0-4.3.07,1.48,1.48,0,0,0-.83.48A1,1,0,0,0,99.12,220.7Z"/><path class="cls-23" d="M117.25,229.94a19.25,19.25,0,0,1-1.82-5.84c0-.22,0-0.26.16-0.08a18.6,18.6,0,0,1,2.56,5.49c0,0.09.21,1.13-.06,1.24S117.31,230,117.25,229.94Z"/><path class="cls-10" d="M109.4,175.74l6.45-13.4a3.67,3.67,0,0,1,4.89-1.72l12.61,6a3.64,3.64,0,0,1,1.71,4.87l-6.45,13.4a3.67,3.67,0,0,1-4.89,1.72l-12.61-6A3.64,3.64,0,0,1,109.4,175.74Z"/><path class="cls-24" d="M110.15,174.17L116,162.1a3.42,3.42,0,0,1,4.55-1.6l11.34,5.41a3.39,3.39,0,0,1,1.6,4.53l-5.81,12.07a3.42,3.42,0,0,1-4.55,1.6l-11.34-5.41A3.39,3.39,0,0,1,110.15,174.17Z"/><path class="cls-12" d="M132.7,166.31a2.38,2.38,0,0,1,1.16,3.28l-6.62,13.76a2.72,2.72,0,0,1-1.84,1.36,2.52,2.52,0,0,1-1.45-.2l-13-6.21a2.45,2.45,0,0,1-1.25-1.29,2.48,2.48,0,0,1,.09-2,2.59,2.59,0,0,0,.61,1.91,2.42,2.42,0,0,0,1,.65l12.89,6.14a2.34,2.34,0,0,0,2.39-.8l6.55-13.43a2.39,2.39,0,0,0,.42-1.26A2.56,2.56,0,0,0,132.7,166.31Z"/><path class="cls-23" d="M115,231.84a17.83,17.83,0,0,1-.43-5.25c0-.19.08-0.2,0.14,0a17.88,17.88,0,0,1,1.07,5.17,1.49,1.49,0,0,1-.26,1A1.65,1.65,0,0,1,115,231.84Z"/><path class="cls-23" d="M120.49,230.37a12.8,12.8,0,0,1-2.22-3.84c-0.06-.15,0-0.21.1-0.1a11.73,11.73,0,0,1,2.68,3.37,1.48,1.48,0,0,1,.16.95A1,1,0,0,1,120.49,230.37Z"/><path class="cls-23" d="M100.35,212.58a20,20,0,0,1,5.53,2.8c0.19,0.13.16,0.21-.05,0.17a19.17,19.17,0,0,1-5.77-2c-0.08-.05-1-0.64-0.87-0.92S100.25,212.56,100.35,212.58Z"/><path class="cls-10" d="M129.13,156.62l-4-16.58a4.21,4.21,0,0,1,3.09-5.07l15.56-3.8a4.17,4.17,0,0,1,5.05,3.08l4,16.58a4.21,4.21,0,0,1-3.09,5.07l-15.56,3.8A4.17,4.17,0,0,1,129.13,156.62Z"/><path class="cls-25" d="M128.67,154.68l-3.59-14.93A3.92,3.92,0,0,1,128,135l14-3.42a3.89,3.89,0,0,1,4.7,2.87l3.59,14.93a3.92,3.92,0,0,1-2.88,4.72l-14,3.42A3.89,3.89,0,0,1,128.67,154.68Z"/><path class="cls-12" d="M143,131.36a2.73,2.73,0,0,1,3.4,2.08l4.09,17a3.12,3.12,0,0,1-.65,2.55,2.88,2.88,0,0,1-1.43.87l-16.09,3.93a2.81,2.81,0,0,1-2-.24,2.85,2.85,0,0,1-1.36-1.84,3,3,0,0,0,1.93,1.25,2.77,2.77,0,0,0,1.33-.13L148.08,153a2.68,2.68,0,0,0,1.54-2.44l-3.91-16.68a2.74,2.74,0,0,0-.54-1.42A2.94,2.94,0,0,0,143,131.36Z"/><path class="cls-10" d="M119.6,237.89L107,230.64a3.58,3.58,0,0,1-1.32-4.88l6.77-11.83a3.55,3.55,0,0,1,4.86-1.31l12.57,7.25a3.58,3.58,0,0,1,1.32,4.88l-6.77,11.83A3.55,3.55,0,0,1,119.6,237.89Z"/><path class="cls-23" d="M101.35,209.83a18.74,18.74,0,0,1,4.15,3.38c0.14,0.14.09,0.2-.08,0.11a18.7,18.7,0,0,1-4.53-2.87,1.56,1.56,0,0,1-.55-0.88A1.69,1.69,0,0,1,101.35,209.83Z"/><path class="cls-12" d="M112.13,214.54a2.32,2.32,0,0,1,3.28-.88l12.9,7.45a2.66,2.66,0,0,1,1.19,1.89,2.45,2.45,0,0,1-.3,1.39l-7,12.23a2.39,2.39,0,0,1-1.34,1.12,2.42,2.42,0,0,1-1.93-.24,2.53,2.53,0,0,0,1.9-.46,2.36,2.36,0,0,0,.7-0.9l6.92-12.09a2.28,2.28,0,0,0-.6-2.38l-12.59-7.36a2.33,2.33,0,0,0-1.19-.5A2.5,2.5,0,0,0,112.13,214.54Z"/><path class="cls-23" d="M98.71,214.8a13.07,13.07,0,0,1,4.33,1.11c0.16,0.06.16,0.14,0,.14a11.82,11.82,0,0,1-4.29-.45,1.55,1.55,0,0,1-.8-0.55A0.93,0.93,0,0,1,98.71,214.8Z"/><path class="cls-5" d="M122.48,244.78a1.39,1.39,0,0,0,1.3,1.3l1.7,0.21,3.89,0.49a1.41,1.41,0,0,0,1.64-1.06L151.38,103,152.24,97l-5.35-.69-1.69-.2-0.23,0-1.23-.15L122.5,244.65a0.23,0.23,0,0,0,0,.12v0Z"/><path class="cls-26" d="M149.82,113.91l-1.52,10.67a57.32,57.32,0,0,1-5.15-5.41c-0.84-1-1.61-2-2.3-3l1.59-11.09c1,1.37,2.07,2.81,3.31,4.3C147.12,111.07,148.49,112.56,149.82,113.91Z"/><path class="cls-26" d="M146.65,136.08l-1.52,10.67a57.32,57.32,0,0,1-5.15-5.41c-0.84-1-1.61-2-2.3-3l1.59-11.09c1,1.37,2.07,2.81,3.31,4.3C144,133.24,145.33,134.74,146.65,136.08Z"/><path class="cls-27" d="M139.47,184.88L138,195.12a55.19,55.19,0,0,1-5-5.19c-0.81-1-1.55-1.92-2.22-2.84l1.54-10.65c0.94,1.32,2,2.7,3.2,4.13C136.86,182.15,138.19,183.59,139.47,184.88Z"/><path class="cls-26" d="M136.62,206.33L135.1,217a57.32,57.32,0,0,1-5.15-5.41c-0.84-1-1.61-2-2.3-3l1.59-11.09c1,1.37,2.07,2.81,3.31,4.3C133.92,203.49,135.29,205,136.62,206.33Z"/><path class="cls-26" d="M143.4,158.88l-1.52,10.67a57.32,57.32,0,0,1-5.15-5.41c-0.84-1-1.61-2-2.3-3L136,150.09c1,1.37,2.07,2.81,3.31,4.3C140.69,156,142.07,157.53,143.4,158.88Z"/><path class="cls-26" d="M133.45,228.5l-1.52,10.67a57.32,57.32,0,0,1-5.15-5.41c-0.84-1-1.61-2-2.3-3l1.59-11.09c1,1.37,2.07,2.81,3.31,4.3C130.75,225.66,132.13,227.16,133.45,228.5Z"/><path class="cls-28" d="M123.78,246.07l1.7,0.22L146.63,98.1l0.26-1.82-1.69-.2,0,0.22Z"/><path class="cls-5" d="M143.74,95.91L145,96.06l0.23,0,1.69,0.2L152.24,97l0.66-4.63,1.56-10.88q0.69-4.88,1.39-9.76a1.32,1.32,0,0,0-1.15-1.41c-0.88-.18-1.83-0.33-2.83-0.46s-2-.21-2.88-0.26h-0.14a1.36,1.36,0,0,0-1.5,1.07l-0.28,2Z"/><path class="cls-26" d="M147.34,70.64l-0.28,2c0.71,1.09,1.52,2.24,2.44,3.41a51.14,51.14,0,0,0,4.95,5.45l1.39-9.76a1.32,1.32,0,0,0-1.15-1.41c-0.88-.17-1.82-0.33-2.82-0.46s-2.07-.22-3-0.27A1.37,1.37,0,0,0,147.34,70.64Z"/><path class="cls-29" d="M145.2,96.09l1.69,0.2,1.32-9.18,1.54-10.78h0l0.94-6.6-0.37,0-1.33-.1-0.69,4.83h0l-1.55,10.84Z"/><path class="cls-30" d="M147.76,223.92L147,231l-1.85,17.22a2.29,2.29,0,0,1-2.07,2c-6.31.67-13.27,1.15-20.78,1.27l-4,0H118.1l-2.2,0c-7.91-.1-15.21-0.6-21.8-1.3a1.9,1.9,0,0,1-1.73-1.67l-0.6-5.93a23.92,23.92,0,0,1,5.69-2.87c10.38-3.59,15.1,3.08,23.45,1.33,12.08-2.55,15.86-19.4,24.87-17.77A7.63,7.63,0,0,1,147.76,223.92Z"/><path class="cls-3" d="M148.34,181.63a22.09,22.09,0,0,0-7.15-23.19l-0.39.51-1.17,1.49-12.7,16.25-4,5.1-7.41,9.48-1.27,1.63-0.22.27a20.86,20.86,0,0,0,7.52,3.89C133,200.3,145,193.38,148.34,181.63Z"/><path class="cls-4" d="M147.93,181.74a21.59,21.59,0,0,0-7.14-22.79l-1.17,1.49-12.7,16.25-4,5.1-7.41,9.48-1.27,1.63a20.57,20.57,0,0,0,7.51,3.92C133,200,144.68,193.22,147.93,181.74Z"/><path class="cls-5" d="M123.9,195.14a1.4,1.4,0,0,0,.92,0,0.26,0.26,0,0,1,.11-0.09s0.07,0,.09,0a2.07,2.07,0,0,0,.22,0,2,2,0,0,1,.42.11l0.86,0.24a2,2,0,0,0,.44.06,0.84,0.84,0,0,0,.32-0.07,1.8,1.8,0,0,1,.87,0,2.43,2.43,0,0,0,.46.14,2.46,2.46,0,0,0,.43-0.12c0.19,0,.4-0.06.59-0.12a1.3,1.3,0,0,0,.31-0.2,0.48,0.48,0,0,1,.29-0.07,4,4,0,0,0,.5-0.08,0.79,0.79,0,0,1,.16,0,2.27,2.27,0,0,0,.22.07,1.18,1.18,0,0,0,.4,0,2.3,2.3,0,0,0,.38-0.27,1,1,0,0,1,.37-0.11,0.85,0.85,0,0,0,.38.06,1.51,1.51,0,0,0,.2-0.11s0.12,0,.17,0a1.14,1.14,0,0,1,.13-0.06,1,1,0,0,1,.17,0,2.06,2.06,0,0,0,.37-0.11,0.58,0.58,0,0,1,.32-0.06,0.75,0.75,0,0,1,.2-0.22,1.09,1.09,0,0,1,.12-0.21c0.05,0,.12,0,0.17-0.09a1.43,1.43,0,0,0,.17-0.22,2.46,2.46,0,0,1,.71-0.41,1.43,1.43,0,0,1,.7-0.22,0.87,0.87,0,0,0,.47.06c0.11-.05.05-0.07,0.11-0.18a1.41,1.41,0,0,0,.14-0.16h0.11a1.11,1.11,0,0,1,.55-0.5l0.5-.29a2.79,2.79,0,0,1,.51-0.27l0.07,0a0.14,0.14,0,0,0,.11-0.09,0.41,0.41,0,0,1,.15,0,0.51,0.51,0,0,0,.28,0,1.18,1.18,0,0,0,.45-0.59,3.29,3.29,0,0,1,.43-0.71,1,1,0,0,1,.56-0.49,2.55,2.55,0,0,0,.38-0.26,0.51,0.51,0,0,0,.31-0.25c0.22,0.05.25-.16,0.36-0.25s0.1,0,.14-0.08,0-.06,0-0.08l0.19-.21a0.9,0.9,0,0,0,.17-0.13,1.6,1.6,0,0,0,.07-0.27,1,1,0,0,0,.12-0.17c0.06-.12.06-0.26,0.11-0.37a1.44,1.44,0,0,0,.11-0.14,0.91,0.91,0,0,1,0-.14,0.26,0.26,0,0,1,.09,0l0.11-.12a0.81,0.81,0,0,1,.26-0.28,5.47,5.47,0,0,0,.43-0.42,2.16,2.16,0,0,0,.28-0.25,2,2,0,0,0,.37-0.83c0.05-.18.11-0.36,0.15-0.54a1.73,1.73,0,0,1,.18-0.38,4.63,4.63,0,0,1,.51-0.83,2,2,0,0,1,.27-0.27,1,1,0,0,0,.29-0.23,2.53,2.53,0,0,0,.15-0.53l0.48-1.7c0.43,0,.21-1.32.21-1.53s0-.24,0-0.35a1.94,1.94,0,0,1,.12-0.67,0.57,0.57,0,0,1,.38-0.56c0.17,0,.19,0,0.24-0.19a0.26,0.26,0,0,0,0-.26,4.07,4.07,0,0,1-.18-0.49,1.07,1.07,0,0,1-.1-0.38,2.24,2.24,0,0,0,.14-0.68,2.7,2.7,0,0,1-.2-0.77,2.64,2.64,0,0,0,0-.43,3.14,3.14,0,0,1,.05-0.48,2.54,2.54,0,0,0,0-.5,0.24,0.24,0,0,0,0-.13s-0.09,0-.11-0.07a1.12,1.12,0,0,1-.07-0.28,3.76,3.76,0,0,1-.06-0.53,2.12,2.12,0,0,1,.14-0.67,1.42,1.42,0,0,0,.1-0.68,2.58,2.58,0,0,0-.13-0.51,2.9,2.9,0,0,0-.2-0.46,1.37,1.37,0,0,1-.23-0.42,1.06,1.06,0,0,1,0-.39,0.61,0.61,0,0,0-.08-0.27,0.56,0.56,0,0,1,0-.16,1.14,1.14,0,0,0-.09-0.27,1.6,1.6,0,0,1,0-.41,2.16,2.16,0,0,0-.31-0.95,1.88,1.88,0,0,0-.44-0.54l-0.28-.22a1.25,1.25,0,0,0-.37-0.2c0-.19,0-0.4-0.07-0.6a0.83,0.83,0,0,0-.28-0.47s-0.09-.05-0.13-0.09a1.36,1.36,0,0,1,0-.13,2.63,2.63,0,0,0-.4-0.35,3.61,3.61,0,0,0-.47-0.22l0-.18-0.1-.05a1.23,1.23,0,0,0,0-.24,1.32,1.32,0,0,0-.11-0.18,2.43,2.43,0,0,0-.34-0.35,5.44,5.44,0,0,0-.5-0.46,3.44,3.44,0,0,1-.36-0.23,1.4,1.4,0,0,0-.23-0.23,0.47,0.47,0,0,1-.31-0.25,2.33,2.33,0,0,0-.22-0.43,3.36,3.36,0,0,0-.31-0.51c-0.07-.07-0.2-0.09-0.28-0.16s-0.06-.1-0.11-0.15a2.55,2.55,0,0,1-.28-0.24c-0.11-.12-0.2-0.25-0.32-0.36a2,2,0,0,1-.18-0.18l-12.7,16.25-4,5.1-7.41,9.48a1,1,0,0,0,.17.12,1.9,1.9,0,0,1,.37.2,0.77,0.77,0,0,0,.1.14,1.11,1.11,0,0,0,.22.07,1,1,0,0,1,.14.11,1.55,1.55,0,0,0,.19.05,1.12,1.12,0,0,1,.2.13,0.45,0.45,0,0,1,.19.16,2.33,2.33,0,0,0,.66.45,2.83,2.83,0,0,0,.87.38,2.22,2.22,0,0,1,.53.22,1,1,0,0,1,.39.28c0.07,0.11,0,.1.15,0.16l0.23,0.06a1.69,1.69,0,0,0,.19.06,0.66,0.66,0,0,0,.27-0.07,1.48,1.48,0,0,1,.48.13l1.48,0.42,0.22,0.06a0.37,0.37,0,0,1,.2.16,0.49,0.49,0,0,0,.19.09,0.6,0.6,0,0,1,.1.1l0.18,0.09,0.06,0.06,0.19,0.1A1.56,1.56,0,0,0,123.9,195.14Z"/><path class="cls-6" d="M144.52,174.22a0.83,0.83,0,0,1,.92.73,14.52,14.52,0,0,1-3.09,10.88,0.82,0.82,0,0,1-1.14.14l-12.07-9.27a0.31,0.31,0,0,1,.15-0.54Z"/><path class="cls-6" d="M129.3,192.91a0.86,0.86,0,0,1-.73,1,13.51,13.51,0,0,1-10.61-3,0.86,0.86,0,0,1-.12-1.17l9.26-12.46a0.29,0.29,0,0,1,.53.14Z"/><path class="cls-6" d="M140.66,186.65a0.86,0.86,0,0,1,.13,1.19A14.35,14.35,0,0,1,136,191.9a13.85,13.85,0,0,1-4.94,1.51,0.82,0.82,0,0,1-.89-0.73l-2-15.37a0.3,0.3,0,0,1,.48-0.28Z"/><path class="cls-6" d="M138.55,162.73a0.83,0.83,0,0,1,1.17-.15,13.89,13.89,0,0,1,3.91,4.79,14.28,14.28,0,0,1,1.41,5,0.86,0.86,0,0,1-.72.92l-15.08,2.25a0.3,0.3,0,0,1-.27-0.48Z"/><path class="cls-6" d="M122.94,181.8l4-5.1a0.29,0.29,0,0,1-.06.24Z"/><path class="cls-5" d="M132.25,172.76c-0.68,0-1.51.74-2.12,1.89a0.15,0.15,0,0,0,.12.23c1.27,0.08,2.34-.24,2.68-0.84a1,1,0,0,0,.08-0.9A1,1,0,0,0,132.25,172.76Z"/><path class="cls-5" d="M129.69,180.85c-0.59-.34-0.9-1.41-0.82-2.71a0.15,0.15,0,0,1,.22-0.13c1.13,0.59,1.87,1.42,1.85,2.11a1,1,0,0,1-.4.81A1,1,0,0,1,129.69,180.85Z"/><path class="cls-23" d="M140.91,179.21a20.21,20.21,0,0,0-6.47-1c-0.24,0-.27.09-0.06,0.18a19.34,19.34,0,0,0,6.19,1.87c0.1,0,1.23,0,1.32-.27S141,179.25,140.91,179.21Z"/><path class="cls-23" d="M142.66,176.45a19.14,19.14,0,0,0-5.67.38c-0.2,0-.2.12,0,0.15a19,19,0,0,0,5.67.32,1.66,1.66,0,0,0,1-.44A1.71,1.71,0,0,0,142.66,176.45Z"/><path class="cls-23" d="M141.76,182.62a13.22,13.22,0,0,0-4.38-1.77c-0.17,0-.22,0-0.1.12a12,12,0,0,0,3.93,2.34,1.58,1.58,0,0,0,1,0A1,1,0,0,0,141.76,182.62Z"/><path class="cls-23" d="M134.8,188.44a20.86,20.86,0,0,0-3.27-5.76c-0.15-.19-0.24-0.16-0.18.07a20.16,20.16,0,0,0,2.45,6.08c0.06,0.08.74,1,1,.87S134.83,188.55,134.8,188.44Z"/><path class="cls-23" d="M137.72,187.13a19.32,19.32,0,0,0-3.83-4.22c-0.16-.14-0.22-0.09-0.12.1a19.37,19.37,0,0,0,3.3,4.67,1.62,1.62,0,0,0,1,.52A1.79,1.79,0,0,0,137.72,187.13Z"/><path class="cls-23" d="M132.49,190.4a13.87,13.87,0,0,0-1.4-4.59c-0.08-.16-0.15-0.16-0.16,0a12.7,12.7,0,0,0,.68,4.6,1.6,1.6,0,0,0,.63.82A1,1,0,0,0,132.49,190.4Z"/><path class="cls-23" d="M139.86,169.65a20.83,20.83,0,0,1-6,2.77c-0.23.07-.29,0-0.11-0.16a20.13,20.13,0,0,1,5.53-3.51c0.09,0,1.18-.38,1.34-0.11S139.94,169.57,139.86,169.65Z"/><path class="cls-23" d="M142.21,171.83a19.3,19.3,0,0,1-5.57,1.2c-0.21,0-.22-0.06,0-0.15A19.34,19.34,0,0,1,142,171a1.62,1.62,0,0,1,1.1.14A1.79,1.79,0,0,1,142.21,171.83Z"/><path class="cls-23" d="M139.87,166.12a13.86,13.86,0,0,1-3.81,2.92c-0.16.09-.22,0-0.13-0.09a12.69,12.69,0,0,1,3.23-3.34,1.6,1.6,0,0,1,1-.3A1,1,0,0,1,139.87,166.12Z"/><path class="cls-23" d="M123.61,190.22a21.65,21.65,0,0,1,2.23-6.33c0.11-.22.21-0.21,0.19,0a20.74,20.74,0,0,1-1.36,6.47c0,0.09-.55,1.13-0.86,1.06S123.6,190.33,123.61,190.22Z"/><path class="cls-23" d="M120.51,189.53a20.27,20.27,0,0,1,3-4.93c0.13-.16.2-0.13,0.13,0.07a20.24,20.24,0,0,1-2.44,5.27,1.69,1.69,0,0,1-.87.71A1.83,1.83,0,0,1,120.51,189.53Z"/><path class="cls-23" d="M126.22,191.67a14.14,14.14,0,0,1,.59-4.8c0-.18.12-0.19,0.15,0a12.79,12.79,0,0,1,.12,4.66,1.68,1.68,0,0,1-.48.94A1,1,0,0,1,126.22,191.67Z"/><path class="cls-6" d="M116.67,152.55l-4.39,5.28a0.31,0.31,0,0,1,.07-0.25Z"/><ellipse class="cls-31" cx="137.42" cy="223.91" rx="1.81" ry="1.76" transform="translate(-119.84 170.64) rotate(-46.76)"/><ellipse class="cls-32" cx="131.89" cy="243.74" rx="2.62" ry="2.55" transform="translate(-136.03 172.86) rotate(-46.76)"/><ellipse class="cls-33" cx="139.74" cy="234.62" rx="2.96" ry="2.88" transform="translate(-126.91 175.71) rotate(-46.76)"/><ellipse class="cls-34" cx="89.81" cy="131.46" rx="1.6" ry="1.56" transform="translate(-67.48 106.84) rotate(-46.76)"/><ellipse class="cls-35" cx="86.97" cy="147.56" rx="2.32" ry="2.26" transform="translate(-80.11 109.84) rotate(-46.76)"/><ellipse class="cls-36" cx="92.92" cy="139.48" rx="2.62" ry="2.55" transform="translate(-72.35 111.63) rotate(-46.76)"/><ellipse class="cls-37" cx="94.25" cy="125.51" rx="1.23" ry="1.2" transform="translate(-61.75 108.2) rotate(-46.76)"/><ellipse class="cls-38" cx="145.04" cy="216.08" rx="1.39" ry="1.36" transform="translate(-111.73 173.73) rotate(-46.76)"/><ellipse class="cls-39" cx="97.65" cy="238.88" rx="1.81" ry="1.76" transform="translate(-147.88 318.34) rotate(-85.7)"/><ellipse class="cls-40" cx="106.08" cy="243.72" rx="2.96" ry="2.88" transform="translate(-144.9 331.23) rotate(-85.7)"/><ellipse class="cls-41" cx="94.61" cy="230.52" rx="1.39" ry="1.36" transform="translate(-142.36 307.57) rotate(-85.7)"/><path class="cls-26" d="M152.9,92.39l-1.52,10.67a57.32,57.32,0,0,1-5.15-5.41c-0.84-1-1.61-2-2.3-3l1.59-11.09c1,1.37,2.07,2.81,3.31,4.3C150.19,89.55,151.57,91,152.9,92.39Z"/><path class="cls-42" d="M159.39,119.07q-6,55.72-12,111.43l-0.07.7-1.85,17.22a2.29,2.29,0,0,1-2.07,2c-6.31.67-13.27,1.15-20.78,1.27l-4,0h-0.16l-2.2,0c-7.91-.1-15.21-0.6-21.8-1.3a1.9,1.9,0,0,1-1.73-1.67l-0.6-5.93-12.42-124c12-.91,24.95-1.45,38.78-1.42C133.13,117.34,146.81,118,159.39,119.07Z"/><path class="cls-43" d="M144.75,252.86c-0.29,3-.59,6-0.88,9a1.61,1.61,0,0,1-1.48,1.44c-7.53.67-15.78,1.07-24.62,1-7.94,0-15.38-.42-22.24-1a1.7,1.7,0,0,1-1.24-.71,1.62,1.62,0,0,1-.31-0.79l-1-9c7.44,0.71,15.56,1.18,24.27,1.23A273.55,273.55,0,0,0,144.75,252.86Z"/><path class="cls-44" d="M143.64,262.56a1.6,1.6,0,0,1-1.24.75c-7.53.67-15.78,1.07-24.62,1-7.94,0-15.38-.42-22.24-1a1.7,1.7,0,0,1-1.24-.71c1.94-1.65,12.26-2.91,24.71-2.91C131.3,259.71,141.53,260.93,143.64,262.56Z"/><path class="cls-45" d="M87.82,102.37l13.65,163.82q1.74,0.13,3.53.22l2.39,0.11L96.09,102.07l-4.46.14Z"/><path class="cls-46" d="M160.91,102.78L143.45,265.63l-3.12.27-3,.24,17.34-163.68,2.81,0.13Z"/></svg>