<svg id="Layer_1" data-name="Layer 1" xmlns="http://www.w3.org/2000/svg" xmlns:xlink="http://www.w3.org/1999/xlink" viewBox="0 0 230.86 332.94"><defs><style>.cls-1{fill:#bcbf84;}.cls-2{fill:#f0edbf;}.cls-3{fill:#fbf7df;}.cls-4{fill:#eae4b1;}.cls-5{fill:#fffef9;}.cls-6{fill:#708e3b;}.cls-7{fill:#7fa73f;}.cls-8{fill:#faf5ae;}.cls-9{fill:#b7d33f;}.cls-10{fill:#d2dd64;}.cls-11{fill:#d7d65f;}.cls-12{fill:url(#linear-gradient);}.cls-13{fill:url(#linear-gradient-2);}.cls-14{fill:url(#linear-gradient-3);}.cls-15,.cls-21{fill:#7d8c3f;}.cls-15{opacity:0.67;}.cls-16{fill:#e2e26d;}.cls-17{fill:#fff5ac;}.cls-18{opacity:0.75;fill:url(#linear-gradient-4);}.cls-19{fill:#a9bb3c;}.cls-20{fill:#fff2ea;opacity:0.38;}.cls-22{fill:#fcfaee;}.cls-23{fill:url(#linear-gradient-5);}</style><linearGradient id="linear-gradient" x1="150.13" y1="100.48" x2="150.13" y2="117.05" gradientUnits="userSpaceOnUse"><stop offset="0" stop-color="#f4e07d"/><stop offset="0.71" stop-color="#7fa73f"/></linearGradient><linearGradient id="linear-gradient-2" x1="175.61" y1="131.92" x2="177.01" y2="118.88" gradientUnits="userSpaceOnUse"><stop offset="0.21" stop-color="#7fa73f"/><stop offset="0.95" stop-color="#f4e07d"/></linearGradient><linearGradient id="linear-gradient-3" x1="114.01" y1="114.17" x2="114.01" y2="171.91" gradientUnits="userSpaceOnUse"><stop offset="0.16" stop-color="#e3e772"/><stop offset="1" stop-color="#b1be36"/></linearGradient><linearGradient id="linear-gradient-4" x1="114.01" y1="114.17" x2="114.01" y2="171.9" xlink:href="#linear-gradient-3"/><linearGradient id="linear-gradient-5" x1="156.2" y1="102.15" x2="173.12" y2="134.14" gradientUnits="userSpaceOnUse"><stop offset="0.21" stop-color="#7fa73f"/><stop offset="1" stop-color="#f4e07d"/></linearGradient></defs><title>icons</title><ellipse class="cls-1" cx="112.5" cy="249.38" rx="37.95" ry="6.2"/><path class="cls-2" d="M112.1,242.2v6.55H110.8c-14.42,0-26.38-1.21-28.53-2.77a0.77,0.77,0,0,1-.34-0.43,0.29,0.29,0,0,1,0-.09c0-.71,2-1.37,5.35-1.91q1.4-.22,3.11-0.41h0.08l0.39,0a196.41,196.41,0,0,1,20-.91h1.29Z"/><path class="cls-2" d="M112.1,174.26v70.82l-17.87,0H83a29.08,29.08,0,0,1,4.56-1.43l0.5-.1c0.54-.11,1.35-0.26,2.35-0.44h0.08l0.15,0,0.23,0,2.78-.48a29.88,29.88,0,0,0,7.6-2.23h0c0.37-.18.74-0.37,1.09-0.57a11.83,11.83,0,0,0,3.42-2.89,9.62,9.62,0,0,0,1.19-1.92,11.05,11.05,0,0,0,.86-3.58c0.51-9.19.38-24.22,0.38-24.22-0.06-14.43-.53-25-1-27.54a9.81,9.81,0,0,0-1.29-3.21l0-.07a5.59,5.59,0,0,0-.35-0.47,6.4,6.4,0,0,0-3.18-2Z"/><path class="cls-2" d="M142.27,245.47a0.29,0.29,0,0,1,0,.09,0.77,0.77,0,0,1-.34.43c-2.16,1.57-14.12,2.77-28.53,2.77H112.1V242.2h1.29c6.06,0,11.68.21,16.32,0.57,1.45,0.11,2.79.24,4,.38h0.08a52.38,52.38,0,0,1,5.25.81C141.12,244.42,142.27,244.93,142.27,245.47Z"/><path class="cls-2" d="M141.23,245.12h-6.56l-15.3,0H112.1V174.26l9.89-.4a6.58,6.58,0,0,0-3.26,2.06,5.74,5.74,0,0,0-.35.47l0,0.07a9.81,9.81,0,0,0-1.29,3.21c-0.5,2.5-1,13.11-1,27.54,0,0-.13,15,0.38,24.22a11.05,11.05,0,0,0,.86,3.58,9.63,9.63,0,0,0,1.19,1.92c3,3.85,8.54,5,11.74,5.61l0.39,0.08,3,0.52,0.15,0h0.08c1,0.18,1.81.33,2.35,0.44s1.4,0.3,2.29.57A27.85,27.85,0,0,1,141.23,245.12Z"/><path class="cls-3" d="M107.57,238.83q1.46,0.05,3,.06,1.77,0,3.43-.05a19.35,19.35,0,0,0,5.33,5.54A20.2,20.2,0,0,0,132,247.74a147,147,0,0,1-45.75-1.43c3.17-.41,5.8-0.92,7.71-1.35,7.59-1.69,10.24-3.37,11.65-4.42A19.75,19.75,0,0,0,107.57,238.83Z"/><path class="cls-2" d="M163.17,126.71a35.33,35.33,0,0,1-11.1,10.37A17.89,17.89,0,0,0,143.49,149a33.15,33.15,0,0,1-16.42,22.67,30.91,30.91,0,0,1-14.71,3.9c-15.66.16-29.14-11.68-31.84-27.07a16.67,16.67,0,0,0-7.64-11.33,37.74,37.74,0,0,1-9.87-8.8,39,39,0,0,1-8.07-20.26,2.52,2.52,0,0,1,2.52-2.76h112c0,0.14,0,.3,0,0.46A36.2,36.2,0,0,1,163.17,126.71Z"/><path class="cls-3" d="M107.67,175.36a24.19,24.19,0,0,0,8.62,0,19.48,19.48,0,0,0-1.47,3.51,22.38,22.38,0,0,0-.72,3.39c-0.33,2.7-.37,25,0,55.47q-1.5.06-3.12,0.06t-2.88-.05a7.36,7.36,0,0,0,1.2-2.08,8.17,8.17,0,0,0,.36-1.37c0.93-5.79.58-25,.58-25-0.1-5.57,0-26-.87-29.15-0.2-.73-0.43-1.44-0.43-1.44C108.48,177.34,108,176.23,107.67,175.36Z"/><path class="cls-4" d="M114.42,248.55H112.1v2.53h1.28c16,0,28.88-1.79,28.88-4v-1.63l-1.4.29h0c-2.8.57-6.11,1.15-9.87,1.64A139.7,139.7,0,0,1,114.42,248.55Z"/><path class="cls-4" d="M109.78,248.55h2.32v2.53h-1.28c-16,0-28.88-1.79-28.88-4v-1.63l1.4,0.29h0c2.8,0.57,6.11,1.15,9.87,1.64A139.7,139.7,0,0,0,109.78,248.55Z"/><path class="cls-5" d="M107.57,238.83l3,0.06a24.4,24.4,0,0,1-4.95,4.74,24.66,24.66,0,0,1-9.46,4.12l-10-1.44a55.13,55.13,0,0,0,8-1.3,30.91,30.91,0,0,0,10.67-4.14A25.38,25.38,0,0,0,107.57,238.83Z"/><path class="cls-6" d="M162.48,87.61a23.83,23.83,0,0,0-24.1,10.56l0.6,0.38,1.73,1.09,35.76,22.46,1.92,1.21,0.31,0.19a23.37,23.37,0,0,0,3.19-8.4A23.8,23.8,0,0,0,162.48,87.61Z"/><path class="cls-7" d="M181.62,114.9a23.11,23.11,0,0,1-3.22,8.4l-1.92-1.21L140.72,99.64,139,98.55A23.28,23.28,0,0,1,181.62,114.9Z"/><path class="cls-8" d="M179.48,113.25l-0.09.21s0,0,0,.07a1.83,1.83,0,0,1-.07.21c0,0.05-.08.07-0.1,0.12a0.65,0.65,0,0,1-.07.22,0.41,0.41,0,0,0-.16.23l-0.33,1.93a1.56,1.56,0,0,0-.08.54,0.73,0.73,0,0,1,.09.28,1.75,1.75,0,0,1,0,.22l0,0.26c0,0.15,0,.09-0.15.17a1.11,1.11,0,0,0-.26.46,2.83,2.83,0,0,0-.18.61,3.11,3.11,0,0,1-.32,1,2.48,2.48,0,0,1-.4.76,0.44,0.44,0,0,0-.16.22c0,0.09-.09.15-0.12,0.24a1.75,1.75,0,0,1,0,.21c0,0.07-.07.09-0.1,0.18a1.19,1.19,0,0,1-.05.25,1.51,1.51,0,0,1-.13.12,1.47,1.47,0,0,0-.14.33L140.72,99.64l0.13-.18c0.12-.15.24-0.26,0.35-0.39s0.15-.23.23-0.34,0.1-.09.14-0.14,0.09-.23.15-0.32a4.18,4.18,0,0,1,.51-0.4,2.88,2.88,0,0,1,.45-0.28,0.54,0.54,0,0,0,.22-0.38,2.12,2.12,0,0,1,.23-0.27c0.09-.13.12-0.28,0.2-0.42a4.23,4.23,0,0,1,.45-0.61,2.38,2.38,0,0,1,.33-0.42l0.17-.14a1.39,1.39,0,0,1,.27,0l0-.12,0.2,0a3.66,3.66,0,0,1,.18-0.54,3.56,3.56,0,0,1,.33-0.49s0.11,0,.13-0.06a1.27,1.27,0,0,0,.08-0.16,1,1,0,0,1,.48-0.37c0.21-.08.43-0.08,0.64-0.15a1.62,1.62,0,0,1,.17-0.42l0.21-.33a2.65,2.65,0,0,1,.53-0.55,2.55,2.55,0,0,1,1-.45,1.41,1.41,0,0,0,.44-0.06,2.59,2.59,0,0,1,.28-0.14,0.55,0.55,0,0,0,.17,0,0.53,0.53,0,0,1,.29-0.12,1.37,1.37,0,0,0,.41-0.08,1.62,1.62,0,0,0,.43-0.3,2.5,2.5,0,0,1,.46-0.27,3.29,3.29,0,0,1,.53-0.21,1.58,1.58,0,0,1,.75,0,2.17,2.17,0,0,0,.73.07,3.39,3.39,0,0,0,.56-0.13,1.14,1.14,0,0,0,.3-0.11s0-.1.07-0.13a0.24,0.24,0,0,1,.14,0,3.63,3.63,0,0,1,.53,0,2.46,2.46,0,0,0,.54,0,3.89,3.89,0,0,1,.46,0,2.71,2.71,0,0,0,.81-0.31,2.27,2.27,0,0,1,.74.08,1.74,1.74,0,0,0,.41-0.15,5.46,5.46,0,0,0,.51-0.26,0.29,0.29,0,0,1,.27-0.06c0.21,0,.18.08,0.22,0.25a0.61,0.61,0,0,0,.63.35,2.26,2.26,0,0,0,.74.05,3.41,3.41,0,0,1,.38-0.06c0.23,0,1.65-.44,1.66,0l1.88,0.32a2.56,2.56,0,0,1,.58.11,1.15,1.15,0,0,1,.28.29,1.37,1.37,0,0,0,.32.26,4.85,4.85,0,0,0,.94.46,1.76,1.76,0,0,0,.43.16l0.59,0.1a2,2,0,0,1,.93.31,1.71,1.71,0,0,1,.3.27,5.57,5.57,0,0,1,.49.42,0.84,0.84,0,0,0,.34.24l0.13,0.11a0.52,0.52,0,0,0,.06.09,0.48,0.48,0,0,0,.16,0,1.51,1.51,0,0,0,.17.1,3.22,3.22,0,0,0,.41.08,0.83,0.83,0,0,1,.19.12c0.1,0,.22,0,0.31,0a1.45,1.45,0,0,1,.17.17L170.89,94,171,94s0.07,0.1.11,0.14,0.35,0.13.31,0.38a0.55,0.55,0,0,1,.31.3,2.65,2.65,0,0,1,.31.4,1.16,1.16,0,0,0,.59.55,3.37,3.37,0,0,0,.8.39,1.27,1.27,0,0,1,.69.41,0.45,0.45,0,0,1,.08.3,1.27,1.27,0,0,0,.06.16,0.15,0.15,0,0,1,.11.11,0.18,0.18,0,0,0,0,.07,4,4,0,0,0,.34.53c0.12,0.17.26,0.33,0.37,0.51a1.24,1.24,0,0,0,.6.55,0.25,0.25,0,0,0,0,.12c0.09,0,.1.1,0.18,0.12s0.14,0,.21.11a0.91,0.91,0,0,1,0,.52,1.74,1.74,0,0,0,.31.75,3.42,3.42,0,0,0,.51.73,1.07,1.07,0,0,1,.26.16s0.06,0.12.11,0.17a0.75,0.75,0,0,0,.23.1,0.53,0.53,0,0,1,.35.54,2.27,2.27,0,0,1,.16.41,1.3,1.3,0,0,0,0,.19s0.07,0.09.09,0.13,0,0.14,0,.19,0.09,0.12.13,0.2a0.94,0.94,0,0,1,0,.42,1,1,0,0,0,.16.4,2.29,2.29,0,0,1,.32.38,1.63,1.63,0,0,1,.07.44c0,0.08,0,.17-0.05.26a0.73,0.73,0,0,0,0,.16c0,0.18.1,0.35,0.13,0.54a0.54,0.54,0,0,0,.1.31,1.34,1.34,0,0,1,.24.31,4.46,4.46,0,0,1,.19.63,2.58,2.58,0,0,1,.18.46,3.55,3.55,0,0,1-.1.53,2,2,0,0,0,0,1,1,1,0,0,1,.11.34,2.94,2.94,0,0,1,0,.49l-0.17,1a2.06,2.06,0,0,0-.07.47,2.14,2.14,0,0,1,0,.24s0,0.08,0,.11a0.41,0.41,0,0,0,.11.11,1.57,1.57,0,0,1,.09,1A1.72,1.72,0,0,1,179.48,113.25Z"/><path class="cls-9" d="M154.94,92.68a0.92,0.92,0,0,1,.69-1.1,15.3,15.3,0,0,1,12,2.09,0.91,0.91,0,0,1,.27,1.24l-8.66,14.32a0.33,0.33,0,0,1-.6-0.1Z"/><path class="cls-9" d="M176.61,107.13a0.92,0.92,0,0,1,1.1.69,15.22,15.22,0,0,1-2.09,12,0.91,0.91,0,0,1-1.24.27L160,111.4a0.33,0.33,0,0,1,.1-0.6Z"/><path class="cls-9" d="M168.69,95.42a0.92,0.92,0,0,1,1.26-.29,15.26,15.26,0,0,1,7,9.95,0.91,0.91,0,0,1-.68,1.06l-16.27,4a0.33,0.33,0,0,1-.35-0.49Z"/><path class="cls-9" d="M143.26,100.58a0.92,0.92,0,0,1-.29-1.26,15.26,15.26,0,0,1,10-7A0.91,0.91,0,0,1,154,93l4,16.25a0.33,0.33,0,0,1-.49.35Z"/><path class="cls-8" d="M154.68,106.29c0.05,0.75,1,1.56,2.25,2.09a0.16,0.16,0,0,0,.23-0.16c0-1.4-.5-2.53-1.18-2.84A0.85,0.85,0,0,0,154.68,106.29Z"/><path class="cls-8" d="M163.63,108.13c-0.3.68-1.42,1.15-2.82,1.22a0.16,0.16,0,0,1-.16-0.23c0.51-1.31,1.32-2.21,2.07-2.27A0.85,0.85,0,0,1,163.63,108.13Z"/><path class="cls-10" d="M160.68,96a22.78,22.78,0,0,0-.41,7.21c0,0.27.12,0.29,0.2,0a21.83,21.83,0,0,0,1.35-7c0-.11-0.09-1.36-0.43-1.42S160.71,95.92,160.68,96Z"/><path class="cls-10" d="M157.53,94.44a21.41,21.41,0,0,0,1,6.17c0.06,0.22.15,0.21,0.16,0a21.32,21.32,0,0,0-.26-6.25c0-.09-0.31-1.11-0.58-1.07A1.93,1.93,0,0,0,157.53,94.44Z"/><path class="cls-10" d="M164.24,94.7a14.92,14.92,0,0,0-1.43,5c0,0.19,0,.24.14,0.09A13.55,13.55,0,0,0,165,95.22a1.77,1.77,0,0,0-.09-1.13A1.09,1.09,0,0,0,164.24,94.7Z"/><path class="cls-10" d="M171.23,101.63a22.78,22.78,0,0,0-5.83,4.27c-0.19.18-.15,0.28,0.09,0.19a21.83,21.83,0,0,0,6.26-3.4c0.08-.07,1-0.93.82-1.23S171.34,101.58,171.23,101.63Z"/><path class="cls-10" d="M169.51,98.59a21.41,21.41,0,0,0-4.12,4.7c-0.13.19-.07,0.25,0.12,0.12a21.32,21.32,0,0,0,4.66-4.17c0.05-.08.66-1,0.46-1.13A1.93,1.93,0,0,0,169.51,98.59Z"/><path class="cls-10" d="M173.58,103.93A14.92,14.92,0,0,0,168.8,106c-0.17.1-.16,0.19,0,0.17a13.55,13.55,0,0,0,4.87-1.29,1.77,1.77,0,0,0,.81-0.79A1.09,1.09,0,0,0,173.58,103.93Z"/><path class="cls-10" d="M150.53,98.33a22.78,22.78,0,0,1,3.61,6.25c0.1,0.25,0,.31-0.16.13a21.83,21.83,0,0,1-4.36-5.64c0-.1-0.54-1.25-0.26-1.46S150.44,98.24,150.53,98.33Z"/><path class="cls-10" d="M152.62,95.49a21.41,21.41,0,0,1,1.88,6c0,0.22,0,.25-0.15.06a21.32,21.32,0,0,1-2.59-5.69c0-.09-0.22-1.14,0-1.22A1.93,1.93,0,0,1,152.62,95.49Z"/><path class="cls-10" d="M146.74,98.74a14.92,14.92,0,0,1,3.53,3.83c0.11,0.16.07,0.24-.09,0.15a13.55,13.55,0,0,1-3.93-3.14,1.77,1.77,0,0,1-.43-1.05A1.09,1.09,0,0,1,146.74,98.74Z"/><path class="cls-10" d="M174.33,113.68a22.78,22.78,0,0,1-7-1.69c-0.25-.09-0.24-0.2,0-0.21a21.83,21.83,0,0,1,7.09.72c0.1,0,1.27.47,1.23,0.81S174.45,113.67,174.33,113.68Z"/><path class="cls-11" d="M74,119.78c2.28,1.85,21.65,17.06,45,10.68a47.25,47.25,0,0,0,21.8-13.36c-11.36,6.52-20,7.09-25.76,6.47-8.09-.89-12.1-4.34-22.23-5.34A53.6,53.6,0,0,0,74,119.78Z"/><path class="cls-10" d="M173.92,117.15a21.41,21.41,0,0,1-5.61-2.74c-0.19-.12-0.16-0.2.06-0.15a21.32,21.32,0,0,1,5.91,2c0.08,0,1,.62.86,0.87A1.93,1.93,0,0,1,173.92,117.15Z"/><path class="cls-10" d="M175.61,110.65a14.92,14.92,0,0,1-5.21-.07c-0.19,0-.22-0.11,0-0.16a13.55,13.55,0,0,1,5-.69,1.77,1.77,0,0,1,1.06.41A1.09,1.09,0,0,1,175.61,110.65Z"/><path class="cls-12" d="M144,116.92L155.8,117a14.08,14.08,0,0,1-.12-4.86,13.83,13.83,0,0,1,.63-2.51c-0.52-5.28-2-9-3.87-9.18a2.69,2.69,0,0,0-1.42.37,9.08,9.08,0,0,0-4.13,4.53A32.82,32.82,0,0,0,144,116.92Z"/><path class="cls-13" d="M176.75,133.61a12.47,12.47,0,0,0,4.09-7.47c0.19-1.4.63-4.65-1.45-7.06a6.76,6.76,0,0,0-3.46-2.08,12.83,12.83,0,0,1-.67,7.3,12.25,12.25,0,0,1-4,5.21,11.71,11.71,0,0,0,2.63,2.61A11.33,11.33,0,0,0,176.75,133.61Z"/><path class="cls-14" d="M162.49,116.19a29.61,29.61,0,0,1-6.74,11.92c-3.34,3.52-5.65,4-9.24,7.8-4,4.23-6.21,8.14-6.63,10.63-2.33,14.42-14,25.52-27.58,25.37a25.52,25.52,0,0,1-14.91-5.11,31.35,31.35,0,0,1-12-19.8c-0.74-4.16-3.28-7.44-7.43-11.14-0.32-.29-0.63-0.55-1-0.82a0.09,0.09,0,0,0-.06,0c-1-.83-2.08-1.63-3.22-2.55a38.54,38.54,0,0,1-5.37-5.17c-0.42-.49-0.82-1-1.16-1.41l0-.06c-0.68-.86-1.2-1.6-1.6-2.16l0.11-.11a14.94,14.94,0,0,1,4.42-3.05,13.66,13.66,0,0,1,7-1.06c4.93,0.44,9.89,3,14.88,4.56,1,0.31,17.14,5.24,32.54.7,12.18-3.58,16.08-10.8,28-10.5A30.63,30.63,0,0,1,162.49,116.19Z"/><path class="cls-15" d="M111.35,165.36l-3.33,1.7a1.46,1.46,0,0,1-2-.64l-31.2-61.1h7.45L112,163.41A1.45,1.45,0,0,1,111.35,165.36Z"/><path class="cls-16" d="M135.65,157.92c0,0.1-.07.21-0.11,0.31a30.7,30.7,0,0,1-3.63,4.8c-0.35.39-.73,0.79-1.13,1.19l-0.55.52c-0.27.26-.55,0.5-0.82,0.75a26.51,26.51,0,0,1-13.1,6.13l-1.16.14c-0.42,0-.84.08-1.25,0.1l-0.49,0c-0.36,0-.74,0-1.1,0H112.2l-0.91,0a25.59,25.59,0,0,1-13.89-5.08c-1-.73-1.95-1.58-1.95-1.58a28.91,28.91,0,0,1-4.79-5.46,22.79,22.79,0,0,1,10.1-4.1c7.58-1,11.68,2.81,20.84,3.63A39.5,39.5,0,0,0,135.65,157.92Z"/><path class="cls-17" d="M144.87,110.93c0.52-2.12,2.08-7.5,5.8-10a2.16,2.16,0,0,1,1.51-.52c3.42,0.35,5,11.76,4.85,11.79s-0.24-1-1.11-3.28a22.05,22.05,0,0,0-1.19-2.8c-0.84-1.55-1.62-3-2.84-3.25-1.65-.33-3.29,1.71-4.38,3.06A14.65,14.65,0,0,0,144.87,110.93Z"/><path class="cls-18" d="M162.49,116.19a29.54,29.54,0,0,1-6.74,11.91c-3.34,3.52-5.65,4-9.24,7.8-4,4.23-6.21,8.14-6.62,10.63a32,32,0,0,1-4.35,11.7,30.7,30.7,0,0,1-3.63,4.8c-0.35.39-.73,0.79-1.13,1.19l-0.55.52c-0.27.26-.55,0.5-0.82,0.75a26.51,26.51,0,0,1-13.1,6.13l-1.16.14c-0.42,0-.84.08-1.25,0.1l-0.49,0c-0.36,0-.74,0-1.1,0H112.2l-0.91,0a25.59,25.59,0,0,1-13.89-5.08,24.06,24.06,0,0,1-2-1.58,31.14,31.14,0,0,1-8.77-13.15A34,34,0,0,1,85.36,147c-0.74-4.15-3.28-7.43-7.42-11.14-0.32-.28-0.63-0.55-1-0.81a0.09,0.09,0,0,0-.06,0c-1-.83-2.08-1.63-3.22-2.55a39.11,39.11,0,0,1-5.37-5.17c-0.42-.5-0.81-1-1.16-1.41a0.21,0.21,0,0,1,0-.06c-0.68-.86-1.2-1.6-1.59-2.16l0.11-.11a15,15,0,0,1,4.42-3,13.65,13.65,0,0,1,7-1.06c4.93,0.44,9.89,3,14.88,4.56,1,0.3,17.14,5.24,32.54.7,12.19-3.59,16.09-10.81,28-10.5A30.35,30.35,0,0,1,162.49,116.19Z"/><path class="cls-19" d="M135.65,157.92a29.49,29.49,0,0,1-4.88,6.3l-0.54.52-0.83.75a25.55,25.55,0,0,1-10.92,5.71c-0.74.18-1.47,0.32-2.18,0.41-0.38.06-.78,0.11-1.16,0.15s-0.84.08-1.25,0.1l-0.48,0c-0.36,0-.74,0-1.1,0H112.2l-0.92,0a25.61,25.61,0,0,1-13.89-5.08c-0.67-.49-1.32-1-2-1.58,9.82,1.66,15.77-.35,19.41-2.55,5.44-3.27,8.11-8.37,13.37-8.29C131.46,154.42,134.05,156.39,135.65,157.92Z"/><path class="cls-20" d="M162.46,119.9a26.17,26.17,0,0,1-4.44,7c-3.6,4-6.56,4.72-10.67,8.79s-6.83,7.75-7.42,11.14c-2,11.3-9.73,20.51-19.6,23.7h0a38.89,38.89,0,0,0,6.69-8.62,33.49,33.49,0,0,0,2.86-7c2.55-8.91-.64-11.38,1.9-17.71,1.76-4.39,3.35-3.31,6.19-9.28a32.19,32.19,0,0,0,3.17-11.9,29.33,29.33,0,0,0-1.47-10.67l20.32,0.17a17.51,17.51,0,0,1,3.18,10.36A16.11,16.11,0,0,1,162.46,119.9Z"/><path class="cls-20" d="M98.28,167.56l-0.89-.49a31.35,31.35,0,0,1-12-19.8c-0.74-4.16-3.28-7.44-7.43-11.14-0.32-.29-0.63-0.55-1-0.82a0.09,0.09,0,0,0-.06,0,25.15,25.15,0,0,0-3.22-2.55,25.39,25.39,0,0,1-5.17-4.82c-0.49-.59-0.95-1.18-1.36-1.76l0-.06c-0.56-.78-1.05-1.54-1.49-2.27a34.54,34.54,0,0,1-2.16-4.22c-0.33-1.11-.69-2.32-1-3.6-0.84-3.1-1.65-6.68-2.35-10.67H74.33A44.53,44.53,0,0,0,75.74,116a29.57,29.57,0,0,0,1.3,3.7,57.17,57.17,0,0,0,2.69,5.57c3.84,7.09,5.3,7,7.71,11.58,3.62,6.88,1.72,9.7,4.82,18.69A51.29,51.29,0,0,0,98.28,167.56Z"/><path class="cls-21" d="M82.32,105.32H74.87L66.41,88.77a1.45,1.45,0,0,1,.64-2l3.32-1.69a1.44,1.44,0,0,1,2,.63Z"/><path class="cls-22" d="M55.56,105.77a4.37,4.37,0,0,0,.64,0,8.66,8.66,0,0,0,1-.45,2.73,2.73,0,0,1,.83-0.22,0.62,0.62,0,0,1,.41.09,0.59,0.59,0,0,0,.34.17,6.93,6.93,0,0,0,.87,0,3.21,3.21,0,0,0,.87-0.1,8.21,8.21,0,0,1,.87-0.26,0.43,0.43,0,0,1,.27.08c0.16,0,.31,0,0.47,0a2.39,2.39,0,0,1,.36.14c0.16,0,.32,0,0.49,0l0.16,0.12a2.57,2.57,0,0,1,.52,0,3.13,3.13,0,0,1,.58.07c0.59,0.1.62-.09,1.37,0a1.89,1.89,0,0,0,.68,0,0.84,0.84,0,0,1,.33,0c0.15,0,.17.07,0.34,0.08a0.87,0.87,0,0,0,.32,0,0.22,0.22,0,0,1,.15,0,0.67,0.67,0,0,0,.13.09,0.22,0.22,0,0,0,.1,0l0.15-.08,0.05-.11a0.22,0.22,0,0,1,.16,0,1.76,1.76,0,0,1,1.31-.39,0.38,0.38,0,0,1,.19.1c0.1,0.11.06,0.22,0.15,0.33a0.39,0.39,0,0,0,.27.12,0.87,0.87,0,0,0,.43-0.12,3,3,0,0,1,.89.1c0.32,0,.41,0,0.59,0a0.78,0.78,0,0,0,.24,0l0.1,0a1.28,1.28,0,0,0,.36,0l0-.21a1.83,1.83,0,0,0,.6-0.22,0.61,0.61,0,0,1,.67-0.18c0.15,0.1.2,0.38,0.39,0.5a2.61,2.61,0,0,0,1.41.13h0.76a6.68,6.68,0,0,0,.75-0.14,4.87,4.87,0,0,1,.62,0,2.5,2.5,0,0,0,.68-0.12,5.75,5.75,0,0,1,1.24,0,4.9,4.9,0,0,0,1.31,0l0.1-.06a2.16,2.16,0,0,1,.42-0.18,1.47,1.47,0,0,1,.62.27c0.52,0.15,1-.42,1.16-0.24a0.33,0.33,0,0,1,.06.3,4.42,4.42,0,0,0,1.35,0h1a0.57,0.57,0,0,0,.41-0.09,1.1,1.1,0,0,1,.34-0.27c0.22-.05.15,0.07,0.32,0.1a3.57,3.57,0,0,1,.42,0,1.67,1.67,0,0,0,.5.1,1.43,1.43,0,0,1,.4.1,4,4,0,0,0,.84,0c0.34,0,.6-0.12.93-0.13a2.61,2.61,0,0,1,.44,0,2.57,2.57,0,0,1,.36.14,0.43,0.43,0,0,0,.21,0,1.58,1.58,0,0,0,.47-0.26,5.07,5.07,0,0,1,.56-0.12,4.54,4.54,0,0,1,.49-0.25,0.63,0.63,0,0,1,.55.08c0.07,0.07,0,.23.1,0.28a2.37,2.37,0,0,0,1,0H95a3.49,3.49,0,0,0,.63,0,4.12,4.12,0,0,1,.49-0.14,1.37,1.37,0,0,0,.38,0,0.28,0.28,0,0,0,.17-0.11c0-.08,0-0.14,0-0.18a1.08,1.08,0,0,1,.53.11,0.88,0.88,0,0,0,.6-0.16c0,0.5.5,0.35,0.83,0.37a1.19,1.19,0,0,1,.28,0,0.31,0.31,0,0,0,.15.11,1.43,1.43,0,0,0,.5-0.28,4.39,4.39,0,0,1,1,0,1.2,1.2,0,0,1,.39.1c0.23,0.05.47,0,.7,0.06a0.89,0.89,0,0,0,.13.11,1.78,1.78,0,0,0,.57,0,3.05,3.05,0,0,0,.5-0.14,7.58,7.58,0,0,1,1.46,0,0.9,0.9,0,0,1,.5.1,1.31,1.31,0,0,1,.2.05,0.74,0.74,0,0,1,0,.24c0.1,0.23-.06.22,0.25,0.26a1.06,1.06,0,0,0,.52-0.1,6.29,6.29,0,0,0,1-.31,1.56,1.56,0,0,1,1-.21c0.09,0,.21.17,0.31,0.2a1.91,1.91,0,0,0,.57,0,0.92,0.92,0,0,0,.9-0.39c0.08-.16,0-0.29.19-0.38a0.56,0.56,0,0,1,.56.22,5.93,5.93,0,0,0,.9.25,2.07,2.07,0,0,0,1,.44,1.79,1.79,0,0,0,1.15-.61,1.42,1.42,0,0,1,.15-0.19,0.83,0.83,0,0,1,.38-0.23,1.16,1.16,0,0,1,.45.13,2.55,2.55,0,0,0,.65,0c0.26,0,.35.14,0.62,0.13H117a3.07,3.07,0,0,1,1.1-.24,0.61,0.61,0,0,0,.64.51c0.12,0,.23,0,0.35,0a1.58,1.58,0,0,0,.27.1,13.51,13.51,0,0,0,1.56,0c0.68,0,1.37,0,2.05,0a1.89,1.89,0,0,1,.68.26,0.35,0.35,0,0,1,.31.12,0.93,0.93,0,0,0,.15.24,1.45,1.45,0,0,0,.72,0,2,2,0,0,0,.57-0.25,1,1,0,0,0,.64-0.54,0.37,0.37,0,0,1,.5-0.23c0.07,0,.1.16,0.17,0.21a0.83,0.83,0,0,0,.41,0H128c0.44,0,.66,0,0.74,0,0.47,0.09.5,0.29,0.84,0.3a2.48,2.48,0,0,0,.84-0.31,2.68,2.68,0,0,1,.94-0.26,1.58,1.58,0,0,1,.76.2,0.64,0.64,0,0,1,.61.09,0.54,0.54,0,0,0,.1.1,1.38,1.38,0,0,0,.53,0,1.19,1.19,0,0,1,.36-0.14,1.78,1.78,0,0,1,.5.14,1.25,1.25,0,0,0,.94-0.26c0.12-.07.28-0.08,0.4-0.14a0.23,0.23,0,0,0,.26-0.13,0.15,0.15,0,0,1,.15-0.14,1.46,1.46,0,0,1,.67.29,5.09,5.09,0,0,0,1.95.11,4.56,4.56,0,0,0,1,.14c0.28-.07.25-0.16,0.48,0a1,1,0,0,0,.53.17,0.58,0.58,0,0,0,.49-0.27,2.44,2.44,0,0,1,1.32-.12,2.4,2.4,0,0,1,.76,0c0.14,0.09.1,0.27,0.26,0.37a1.28,1.28,0,0,0,1-.12,3.3,3.3,0,0,1,.51-0.23,0.75,0.75,0,0,1,.42.13c0.24,0.06.52-.05,0.76,0s0.15,0.11.33,0.3c0.35,0.36.74-.33,1-0.52,0.05,0.46,1,.57,1.33.48a4.12,4.12,0,0,1,.68-0.17l0.13-.08a0.1,0.1,0,0,1,.15.08,2.2,2.2,0,0,0,.35,0h0.75a2,2,0,0,0,.62-0.26,7.53,7.53,0,0,1,1.56,0,2.16,2.16,0,0,0,.61.13,1.45,1.45,0,0,0,.49-0.25c0.08-.09.07-0.2,0.17-0.3a0.43,0.43,0,0,1,.57,0,0.79,0.79,0,0,0,.21.17,1.68,1.68,0,0,0,.38,0h0.87c0.32,0,.45-0.08.5,0.26a1,1,0,0,1-.09.69,1.85,1.85,0,0,0-.53.32,4,4,0,0,0,1.32,0,4.27,4.27,0,0,0-.83.84,1.15,1.15,0,0,1-.21.24c-0.07.06-.19,0.07-0.25,0.12s-0.15.32-.3,0.46a1.66,1.66,0,0,1-1.5,0c-0.4-.17-0.06-0.28-0.24-0.63a1.19,1.19,0,0,1-.37-0.52l-0.2,0q0-.11,0-0.21a2.4,2.4,0,0,0-.79,0c-0.42,0-.27.16-0.31,0.52a3.73,3.73,0,0,1-.27.71c-0.09.27-.18,0.65-0.47,0.38a3.18,3.18,0,0,1-.29-0.68,1.49,1.49,0,0,0-.42-0.4,4.62,4.62,0,0,0-.65-0.17c-0.08,0-.17-0.07-0.28-0.1l-0.38-.15a0.39,0.39,0,0,0-.18.24,0.61,0.61,0,0,0-.17.11,1.31,1.31,0,0,0,0,.25,2.31,2.31,0,0,1-.3.39,1.35,1.35,0,0,0-.06.46,0.41,0.41,0,0,1-.56.25,1.58,1.58,0,0,1-.3-0.73,1.63,1.63,0,0,0-1.32-.57,6.8,6.8,0,0,1-1.3-.49,8,8,0,0,0-1.93,0h-1.18c-0.36,0-.85-0.13-0.89.37a5.4,5.4,0,0,1-.85.15h-2.36a2,2,0,0,1-.85,0c-0.06,0-.09-0.3-0.14-0.37a0.3,0.3,0,0,0-.38-0.13,7,7,0,0,0-.84.43,7.11,7.11,0,0,1-2.24.23,2.77,2.77,0,0,1-.78,0,2.77,2.77,0,0,1-.26-0.38c-0.24-.14-0.47.28-0.59,0.38a0.11,0.11,0,0,1-.12.14,0.66,0.66,0,0,1-.26-0.12,1.85,1.85,0,0,0-.52,0h-0.81a4,4,0,0,1-1-.24,1.1,1.1,0,0,0-1.08.19c-0.15.16-.65,1-1,0.67a1.19,1.19,0,0,0-.15-0.48,1.87,1.87,0,0,0-.87,0,1.05,1.05,0,0,0-.38.16,1.9,1.9,0,0,1-.71.35c0.06-.75-1.64-0.24-2-0.24a3,3,0,0,1-.62,0,1.28,1.28,0,0,0-.4-0.1,1,1,0,0,1-.48,0c-0.09-.07,0-0.33-0.14-0.43a1.58,1.58,0,0,0-.88-0.07h-0.93a1.44,1.44,0,0,0-.8.26c-0.1.05-.26,0.07-0.37,0.13a0.9,0.9,0,0,1-.5.13c-0.33-.07-0.94.15-1.24,0.06a2,2,0,0,0-1.06-.19,1,1,0,0,0-.43.9,0.85,0.85,0,0,1-.6.63,0.82,0.82,0,0,0-.19-0.34c-0.08-.14-0.08-0.29-0.15-0.43l-0.2-.31a0.5,0.5,0,0,0-.47-0.06,0.61,0.61,0,0,1-.76.64,1.66,1.66,0,0,1-.53-0.37,1.52,1.52,0,0,0-.57-0.18l0-.22a0.57,0.57,0,0,0-.76.24c-0.22.39-.25,0.26-0.43,0a0.41,0.41,0,0,0-.38-0.26l-0.27-.1a1.34,1.34,0,0,0-.76-0.27,4.24,4.24,0,0,0-.61.27,1.35,1.35,0,0,1-.76.26c-0.28,0-.37-0.31-0.68-0.38-0.14,0-.3,0-0.44,0s-0.18-.11-0.3-0.14a6,6,0,0,0-1.56.13H103.2c-0.63,0-1.11-.13-1.74-0.13a7.28,7.28,0,0,1-1.72,0l0-.35a3.27,3.27,0,0,0-.78,0,3.92,3.92,0,0,0-.88,0c-0.51.13-.7,0.68-1.29,0.49-0.05-.51-0.16-0.34-0.53-0.23a4.23,4.23,0,0,1-1.09,0,3.44,3.44,0,0,0-.8,0c-0.64.15-1,.93-1.68,0.73l0-.22a13.88,13.88,0,0,0-1.46-.09c-0.51-.13-1.6-0.46-2.1,0a0.59,0.59,0,0,1-.52.23H87.38a11.74,11.74,0,0,1-2.32,0,1.69,1.69,0,0,0-.13-0.91,2,2,0,0,0-.65,0H83.77a1,1,0,0,0-.84.33,0.4,0.4,0,0,1-.37.2h-0.5a4.43,4.43,0,0,0-.87,0,3.51,3.51,0,0,1-.87.14,3.22,3.22,0,0,1-.74,0,2.71,2.71,0,0,0-1-.23,3.55,3.55,0,0,1-.85.24,3.65,3.65,0,0,1-.53-0.27,1,1,0,0,0-.79-0.21c-0.3.13-.81,1-0.82,0.14a3.15,3.15,0,0,0-1.68.09c-0.35.15-.7,0.35-1,0.52,0-.55-1.51-0.15-1.83-0.11a8.9,8.9,0,0,1-1.05,0,1.8,1.8,0,0,1-.69,0,0.59,0.59,0,0,1-.05-0.47,2.79,2.79,0,0,1-.66.58,1.24,1.24,0,0,1-.71.27c-0.05-.09.61-0.58,0.57-0.64a3,3,0,0,0-.59.26,2.67,2.67,0,0,1-.55.26,8.7,8.7,0,0,1-1.5,0,2.46,2.46,0,0,0-.55.14c-0.48,0,0-.42-0.37-0.54a0.79,0.79,0,0,0-.5.4,1.21,1.21,0,0,1-.75.13H62.78c-0.18,0-.31.06-0.38-0.12a1,1,0,0,0,0-.38c-0.21-.23-0.49.1-0.63,0.21a1.65,1.65,0,0,1-.34.17,0.41,0.41,0,0,1-.31-0.14,0.75,0.75,0,0,0-.31-0.13,3.65,3.65,0,0,0-.44,0,5.3,5.3,0,0,1-.87,0,4.24,4.24,0,0,1-.44-0.25c-0.2-.05-0.17,0-0.32.09a1.55,1.55,0,0,1-.73.15H57.12c-0.3,0-.46-0.12-0.75-0.13a2.75,2.75,0,0,1-.74-0.14C55.28,106.43,55.57,106.12,55.56,105.77Z"/><path class="cls-23" d="M151.9,100.48c1.81,0.12,3.78.34,5.89,0.69a60.39,60.39,0,0,1,6.21,1.38,4,4,0,0,1,1.41,1.17,4.76,4.76,0,0,1,.84,2.69c0.1,2.43.74,11.06,2.29,16.56,1.35,4.8,3.32,7,3.8,7.48a14.12,14.12,0,0,0,4.42,3.14,16.27,16.27,0,0,1-6.27.7,12.71,12.71,0,0,1-5.65-1.56c-1.92-1.2-3-3.07-6.09-14.1-1.66-5.93-1.76-6.89-2.82-9.7A56.35,56.35,0,0,0,151.9,100.48Z"/></svg>