<svg id="Layer_1" data-name="Layer 1" xmlns="http://www.w3.org/2000/svg" xmlns:xlink="http://www.w3.org/1999/xlink" viewBox="0 0 230.86 332.94"><defs><style>.cls-1{fill:#acb26d;}.cls-2,.cls-8{fill:#f0edbf;}.cls-20,.cls-3{fill:#77993d;}.cls-14,.cls-21,.cls-4{fill:#7fa73f;}.cls-22,.cls-5{fill:#faf5ae;}.cls-23,.cls-6{fill:#abd037;}.cls-24,.cls-7{fill:#c6db51;}.cls-52,.cls-8{opacity:0.62;}.cls-9{fill:url(#linear-gradient);}.cls-10{fill:#e0d9ad;}.cls-11{fill:#eae5b9;}.cls-12{fill:#e2ddb3;}.cls-13,.cls-30{fill:#e9f0be;}.cls-13,.cls-14{opacity:0.67;}.cls-15{fill:#5a914d;}.cls-16,.cls-26,.cls-28,.cls-33,.cls-46,.cls-49{opacity:0.45;}.cls-16{fill:url(#linear-gradient-2);}.cls-17,.cls-27,.cls-29,.cls-34,.cls-47,.cls-50,.cls-61,.cls-62,.cls-63,.cls-64{opacity:0.76;}.cls-17{fill:url(#linear-gradient-3);}.cls-18{fill:#486d38;}.cls-19,.cls-31{fill:#f6f7d3;}.cls-19{opacity:0.58;}.cls-20,.cls-21,.cls-22,.cls-23,.cls-24{opacity:0.68;}.cls-25{fill:#578949;}.cls-26{fill:url(#linear-gradient-4);}.cls-27{fill:url(#linear-gradient-5);}.cls-28{fill:url(#linear-gradient-6);}.cls-29{fill:url(#linear-gradient-7);}.cls-31{opacity:0.71;}.cls-32{fill:#dbd3ab;}.cls-33{fill:url(#linear-gradient-8);}.cls-34{fill:url(#linear-gradient-9);}.cls-35,.cls-36,.cls-37,.cls-38,.cls-39,.cls-48{opacity:0.39;}.cls-35{fill:url(#radial-gradient);}.cls-36{fill:url(#radial-gradient-2);}.cls-37{fill:url(#radial-gradient-3);}.cls-38{fill:url(#radial-gradient-4);}.cls-39{fill:url(#radial-gradient-5);}.cls-40,.cls-42,.cls-43,.cls-53,.cls-56,.cls-58{fill:#fff;}.cls-40{opacity:0.48;}.cls-41,.cls-59,.cls-60{opacity:0.85;}.cls-41{fill:url(#linear-gradient-10);}.cls-43{opacity:0.61;}.cls-44,.cls-45{opacity:0.95;}.cls-44{fill:url(#linear-gradient-11);}.cls-45{fill:url(#linear-gradient-12);}.cls-46{fill:url(#linear-gradient-13);}.cls-47{fill:url(#linear-gradient-14);}.cls-48{fill:url(#radial-gradient-6);}.cls-49{fill:url(#linear-gradient-15);}.cls-50{fill:url(#linear-gradient-16);}.cls-51{fill:none;}.cls-52{fill:url(#linear-gradient-17);}.cls-53{opacity:0.53;}.cls-54{opacity:0.56;fill:url(#linear-gradient-18);}.cls-55{opacity:0.9;fill:url(#linear-gradient-19);}.cls-56{opacity:0.16;}.cls-57{opacity:0.31;fill:url(#linear-gradient-20);}.cls-58{opacity:0.21;}.cls-59{fill:url(#linear-gradient-21);}.cls-60{fill:url(#linear-gradient-22);}.cls-61{fill:url(#radial-gradient-7);}.cls-62{fill:url(#radial-gradient-8);}.cls-63{fill:url(#radial-gradient-9);}.cls-64{fill:url(#radial-gradient-10);}</style><linearGradient id="linear-gradient" x1="113.61" y1="257.95" x2="113.61" y2="101.79" gradientUnits="userSpaceOnUse"><stop offset="0.04" stop-color="#c5bd8e"/><stop offset="0.13" stop-color="#caca99"/><stop offset="0.23" stop-color="#ced5a2"/><stop offset="0.57" stop-color="#e7e9d2"/><stop offset="1" stop-color="#f4f5eb"/></linearGradient><linearGradient id="linear-gradient-2" x1="386.67" y1="850.56" x2="396.37" y2="850.56" gradientTransform="matrix(0.7, -0.71, -0.71, -0.7, 453.11, 1106.83)" gradientUnits="userSpaceOnUse"><stop offset="0.56" stop-color="#376230"/><stop offset="0.97" stop-color="#5a914d"/></linearGradient><linearGradient id="linear-gradient-3" x1="386.61" y1="843.14" x2="388.2" y2="858.45" gradientTransform="matrix(0.7, -0.71, -0.71, -0.7, 453.11, 1106.83)" gradientUnits="userSpaceOnUse"><stop offset="0.08" stop-color="#639b41"/><stop offset="1" stop-color="#5a914d"/></linearGradient><linearGradient id="linear-gradient-4" x1="-228.39" y1="1363.21" x2="-213.28" y2="1363.21" gradientTransform="matrix(0.85, 0.53, 0.53, -0.85, -436.45, 1516.44)" gradientUnits="userSpaceOnUse"><stop offset="0.21" stop-color="#578949"/><stop offset="1" stop-color="#376230"/></linearGradient><linearGradient id="linear-gradient-5" x1="-227.41" y1="1365.56" x2="-212.4" y2="1365.56" gradientTransform="matrix(0.85, 0.53, 0.53, -0.85, -436.45, 1516.44)" gradientUnits="userSpaceOnUse"><stop offset="0.24" stop-color="#578949"/><stop offset="1" stop-color="#639b41"/></linearGradient><linearGradient id="linear-gradient-6" x1="-208.86" y1="1372.86" x2="-200" y2="1372.86" gradientTransform="matrix(0.85, 0.53, 0.53, -0.85, -436.45, 1516.44)" xlink:href="#linear-gradient-2"/><linearGradient id="linear-gradient-7" x1="-208.92" y1="1366.08" x2="-207.47" y2="1380.07" gradientTransform="matrix(0.85, 0.53, 0.53, -0.85, -436.45, 1516.44)" xlink:href="#linear-gradient-3"/><linearGradient id="linear-gradient-8" x1="115.6" y1="80.94" x2="135.93" y2="80.94" gradientTransform="matrix(1, 0, 0, 1, 0, 0)" xlink:href="#linear-gradient-4"/><linearGradient id="linear-gradient-9" x1="116.92" y1="84.11" x2="137.13" y2="84.11" gradientTransform="matrix(1, 0, 0, 1, 0, 0)" xlink:href="#linear-gradient-5"/><radialGradient id="radial-gradient" cx="-144.98" cy="1307.07" r="2.72" gradientTransform="translate(274.37 -1084.69)" gradientUnits="userSpaceOnUse"><stop offset="0.67" stop-color="#f9e4b4"/><stop offset="1" stop-color="#fbf7f0"/></radialGradient><radialGradient id="radial-gradient-2" cx="-959" cy="1563.65" r="2.16" gradientTransform="matrix(-1, 0, 0, 1, -831.96, -1317.61)" xlink:href="#radial-gradient"/><radialGradient id="radial-gradient-3" cx="-1011.67" cy="1569.27" r="3.13" gradientTransform="matrix(-0.9, 0, 0, 0.91, -787.18, -1191.69)" xlink:href="#radial-gradient"/><radialGradient id="radial-gradient-4" cx="-142.6" cy="1306.73" r="1.43" gradientTransform="translate(273.69 -1086.05)" xlink:href="#radial-gradient"/><radialGradient id="radial-gradient-5" cx="-1009.27" cy="1567.54" r="1.66" gradientTransform="matrix(-0.9, 0, 0, 0.91, -787.24, -1188.61)" xlink:href="#radial-gradient"/><linearGradient id="linear-gradient-10" x1="-23.69" y1="-20.51" x2="-8.33" y2="-34.71" gradientTransform="translate(134.73 140.01)" gradientUnits="userSpaceOnUse"><stop offset="0" stop-color="#dbdebc"/><stop offset="0.97" stop-color="#fff"/></linearGradient><linearGradient id="linear-gradient-11" x1="275.39" y1="240.1" x2="290.91" y2="225.76" gradientTransform="translate(-157.7 -101.88)" xlink:href="#linear-gradient-10"/><linearGradient id="linear-gradient-12" x1="4.92" y1="36.06" x2="19.62" y2="22.48" gradientTransform="translate(110.75 146.47)" xlink:href="#linear-gradient-10"/><linearGradient id="linear-gradient-13" x1="-248.31" y1="1449.23" x2="-239.45" y2="1449.23" gradientTransform="matrix(0.85, 0.53, 0.53, -0.85, -436.45, 1516.44)" xlink:href="#linear-gradient-2"/><linearGradient id="linear-gradient-14" x1="-248.37" y1="1442.45" x2="-246.92" y2="1456.44" gradientTransform="matrix(0.85, 0.53, 0.53, -0.85, -436.45, 1516.44)" xlink:href="#linear-gradient-3"/><radialGradient id="radial-gradient-6" cx="-992.88" cy="1557.09" r="1.89" gradientTransform="matrix(-1, 0, 0, 1, -860.66, -1345.17)" xlink:href="#radial-gradient"/><linearGradient id="linear-gradient-15" x1="102.76" y1="179.87" x2="109.96" y2="179.87" gradientTransform="matrix(1, 0, 0, 1, 0, 0)" xlink:href="#linear-gradient-4"/><linearGradient id="linear-gradient-16" x1="102.28" y1="174.6" x2="111.96" y2="174.6" gradientTransform="matrix(1, 0, 0, 1, 0, 0)" xlink:href="#linear-gradient-5"/><linearGradient id="linear-gradient-17" x1="113.73" y1="258.04" x2="113.73" y2="101.88" xlink:href="#linear-gradient"/><linearGradient id="linear-gradient-18" x1="141.89" y1="93.98" x2="153.86" y2="93.98" gradientTransform="matrix(1, 0, 0, 1, 0, 0)" xlink:href="#linear-gradient-2"/><linearGradient id="linear-gradient-19" x1="141.85" y1="84.85" x2="143.8" y2="103.66" gradientTransform="matrix(1, 0, 0, 1, 0, 0)" xlink:href="#linear-gradient-3"/><linearGradient id="linear-gradient-20" x1="-6.44" y1="62.93" x2="8.92" y2="48.73" gradientTransform="translate(101.42 140.25)" xlink:href="#linear-gradient-10"/><linearGradient id="linear-gradient-21" x1="88.19" y1="113.55" x2="92.63" y2="109.45" gradientTransform="matrix(1, 0, 0, 1, 0, 0)" xlink:href="#linear-gradient-10"/><linearGradient id="linear-gradient-22" x1="94.59" y1="118.83" x2="107.02" y2="107.35" gradientTransform="matrix(1, 0, 0, 1, 0, 0)" xlink:href="#linear-gradient-10"/><radialGradient id="radial-gradient-7" cx="136.79" cy="117.81" r="2.26" gradientTransform="translate(201.87 -50.57) rotate(70.4)" gradientUnits="userSpaceOnUse"><stop offset="0" stop-color="#eaf4de"/><stop offset="1" stop-color="#fff"/></radialGradient><radialGradient id="radial-gradient-8" cx="135.47" cy="142.4" r="3.27" gradientTransform="translate(224.16 -33) rotate(70.4)" gradientUnits="userSpaceOnUse"><stop offset="0" stop-color="#e6f1d7"/><stop offset="1" stop-color="#fff"/></radialGradient><radialGradient id="radial-gradient-9" cx="130.45" cy="129.81" r="3.69" gradientTransform="translate(208.97 -36.63) rotate(70.4)" xlink:href="#radial-gradient-8"/><radialGradient id="radial-gradient-10" cx="134.25" cy="109.37" r="1.74" gradientTransform="translate(192.23 -53.79) rotate(70.4)" xlink:href="#radial-gradient-7"/></defs><title>icons</title><ellipse class="cls-1" cx="113.2" cy="280.41" rx="32.31" ry="6.63"/><path class="cls-2" d="M149.77,84.35L137,277.47a3.59,3.59,0,0,1-3.2,3.35,190.17,190.17,0,0,1-19.55,1.11,188.88,188.88,0,0,1-21.76-1.13,3.38,3.38,0,0,1-3-3.14Q83,181.12,76.64,84.57a2,2,0,0,1,1.77-2.09q5.28-.52,10.92-0.89,2.54-.17,5.13-0.31l1.62-.07H96.3l1.18-.06c4.8-.21,9.77-0.34,14.88-0.35,13,0,24.95.64,35.84,1.7A1.74,1.74,0,0,1,149.77,84.35Z"/><ellipse class="cls-3" cx="149.51" cy="81.66" rx="26.55" ry="26.5"/><ellipse class="cls-4" cx="149.77" cy="81.52" rx="25.95" ry="25.9"/><path class="cls-5" d="M149.45,58.06h2.12a2.87,2.87,0,0,1,.66,0,1.14,1.14,0,0,1,.36.26,2,2,0,0,0,.4.22,5.85,5.85,0,0,0,1.12.33,2.1,2.1,0,0,0,.5.08h0.67a2.3,2.3,0,0,1,1.08.16,2.63,2.63,0,0,1,.38.25,6,6,0,0,1,.62.36,1,1,0,0,0,.41.21L157.94,60a0.56,0.56,0,0,0,.08.09,0.89,0.89,0,0,0,.17,0c0.08,0,.13.06,0.21,0.08s0.31,0,.46,0a1.85,1.85,0,0,1,.24.09c0.1,0,.24,0,0.34,0a1.14,1.14,0,0,1,.21.16l0.3,0.16s0.09,0,.11,0a1.54,1.54,0,0,1,.14.13c0.15,0.1.4,0.08,0.41,0.35a0.63,0.63,0,0,1,.4.28,3.29,3.29,0,0,1,.42.37,1.26,1.26,0,0,0,.75.49,3.93,3.93,0,0,0,1,.27,1.38,1.38,0,0,1,.83.33,0.58,0.58,0,0,1,.14.31,0.69,0.69,0,0,0,.1.16,0.16,0.16,0,0,1,.13.1v0.09a3.62,3.62,0,0,0,.48.51c0.17,0.16.34,0.32,0.5,0.49a1.36,1.36,0,0,0,.76.49s0,0.09,0,.13a1.33,1.33,0,0,1,.23.1c0.16,0,.16,0,0.26.07a1,1,0,0,1,.08.58,1.82,1.82,0,0,0,.48.76,3.12,3.12,0,0,0,.7.7,2.51,2.51,0,0,1,.31.12c0.06,0,.09.13,0.16,0.17a1,1,0,0,0,.27.07,0.84,0.84,0,0,0,.32.16,0.71,0.71,0,0,0,.17.37,2.28,2.28,0,0,1,.25.41,1.43,1.43,0,0,0,0,.2s0.09,0.09.12,0.13,0,0.14.09,0.2,0.13,0.11.18,0.2a1.07,1.07,0,0,1,.07.47,1.17,1.17,0,0,0,.25.41,2.52,2.52,0,0,1,.43.36,1.74,1.74,0,0,1,.16.46c0,0.09,0,.2,0,0.29a0.63,0.63,0,0,0,.08.17c0.08,0.19.18,0.36,0.25,0.57a0.59,0.59,0,0,0,.17.32,1.66,1.66,0,0,1,.32.29,5.59,5.59,0,0,1,.33.66,2.86,2.86,0,0,1,.28.47,3.15,3.15,0,0,1,0,.6,2.19,2.19,0,0,0,.24,1,1.1,1.1,0,0,1,.18.36,2.87,2.87,0,0,1,.08.54c0,0.37,0,.74,0,1.11a2.52,2.52,0,0,0,0,.53c0,0.09.06,0.16,0.08,0.25a0.66,0.66,0,0,0,0,.13,0.43,0.43,0,0,0,.14.1,1.76,1.76,0,0,1,.29,1.09,2.19,2.19,0,0,1,0,.53l-0.06.25s0,0.06,0,.09,0,0.18,0,.25a1.65,1.65,0,0,0-.09.15,0.65,0.65,0,0,1,0,.25,0.44,0.44,0,0,0-.13.29c0,0.09,0,.19,0,0.29q0,0.68,0,1.35v0.54a1.81,1.81,0,0,0,0,.61,0.83,0.83,0,0,1,.16.29c0,0.08,0,.17,0,0.25s0,0.19,0,.29,0,0.11-.13.22a1.29,1.29,0,0,0-.21.56,3.22,3.22,0,0,0-.08.69,3.42,3.42,0,0,1-.16,1.16,2.86,2.86,0,0,1-.3.92,0.51,0.51,0,0,0-.13.27,1.72,1.72,0,0,0-.09.29,2,2,0,0,1,0,.24,1.24,1.24,0,0,0-.08.21,1.36,1.36,0,0,1,0,.28,2,2,0,0,1-.12.17,2.31,2.31,0,0,0-.12.5,2.12,2.12,0,0,1-.67,1,10,10,0,0,1-.7.71,1.91,1.91,0,0,0-.71.48,4.29,4.29,0,0,0-.21,1c-0.06.28-.16,0.55-0.2,0.84,0,0.1,0,.2,0,0.3a0.69,0.69,0,0,1-.06.18,1.87,1.87,0,0,1-.08.23,2.21,2.21,0,0,1-.12.22,4.17,4.17,0,0,1-.45.26c-0.15.12-.25,0.29-0.4,0.39a1.5,1.5,0,0,0-.22.1s0,0.09-.08.12a2.06,2.06,0,0,1-.21.13c-0.17.12-.32,0.29-0.5,0.41l-0.64.42a1,1,0,0,0-.3.15c-0.08.1-.08,0.25-0.16,0.36s-0.25.24-.36,0.37a1.07,1.07,0,0,0-.17.22c0,0.07,0,.15-0.08.22a1.33,1.33,0,0,1-.38.33,1.38,1.38,0,0,1-.49.29,1.91,1.91,0,0,0-.55.18,5.24,5.24,0,0,1-.45.3,0.67,0.67,0,0,1-.28,0,1.39,1.39,0,0,0-.53.19,6.59,6.59,0,0,0-.91.64,1.88,1.88,0,0,0-.31.44,1.33,1.33,0,0,1-.21.22,0.8,0.8,0,0,0-.25.39,1.45,1.45,0,0,1-.42.43,2.14,2.14,0,0,1-.22.31c-0.1.07-.28,0-0.4,0.13a1,1,0,0,1-.67.22,0.85,0.85,0,0,0-.58.21,2,2,0,0,1-1.08.45,1.25,1.25,0,0,0-.54,0c-0.2.1-.39,0.22-0.58,0.32a3.89,3.89,0,0,1-1.21,0,1.32,1.32,0,0,0-.58.24l-0.42.29a0.74,0.74,0,0,1-.33.2,3,3,0,0,0-1.59.06,1.83,1.83,0,0,0-.13.18,1.19,1.19,0,0,1-.18.11,1.63,1.63,0,0,1-.27.21,2.59,2.59,0,0,1-.89.1H149.2a1.29,1.29,0,0,0-.42.17c-0.1,0-.22,0-0.33.08l-0.25.09c-0.07,0-.15,0-0.22,0s-0.11.06-.14,0.07a1.1,1.1,0,0,1-.4,0,2.14,2.14,0,0,1-.49-0.25l-0.25-.16a1.94,1.94,0,0,0-.31-0.1c-0.21-.09-0.38-0.32-0.6-0.42-0.07,0-.14,0-0.21-0.06s-0.14-.12-0.21-0.14a1.26,1.26,0,0,0-.42,0h-0.75a1.54,1.54,0,0,1-.9-0.07c-0.16-.18-0.08-0.53-0.24-0.69a1.85,1.85,0,0,0-.86-0.05,4.28,4.28,0,0,1-.41-0.15,5.38,5.38,0,0,0-.6-0.12,1.86,1.86,0,0,1-.83-0.31,1.25,1.25,0,0,1-.18-0.13,2.65,2.65,0,0,1-.13-0.24c-0.08-.11-0.2-0.17-0.27-0.28s-0.1-.11-0.32-0.16c-0.07,0-.07-0.07-0.13-0.08s-0.18,0-.27,0a1.65,1.65,0,0,0-.09-0.4c-0.09-.25-0.1-0.22-0.34-0.25s-0.12-.12-0.18-0.33a0.65,0.65,0,0,0-.31-0.42c-0.08,0-.18,0-0.26,0a0.76,0.76,0,0,1-.1-0.07,2.38,2.38,0,0,0-.48,0,3.35,3.35,0,0,1-.49,0,0.86,0.86,0,0,1-.58-0.42,4.92,4.92,0,0,1-.42-0.51,2.64,2.64,0,0,1-.25-0.48,1.67,1.67,0,0,0-.67-0.8,2.9,2.9,0,0,0-.41-0.21c-0.11,0-.22,0-0.32-0.08s-0.11-.1-0.18-0.13a2.55,2.55,0,0,1-.84-0.43,1.29,1.29,0,0,1-.25-0.91,0.7,0.7,0,0,0-.49-0.64,2,2,0,0,0-.58-0.19,3,3,0,0,1-.51,0,1.32,1.32,0,0,1-.42-0.87l-0.18-.45a1.07,1.07,0,0,0-.29-0.28,0.61,0.61,0,0,0-.12-0.19c-0.09-.05-0.22,0-0.31,0a1.14,1.14,0,0,1-.12-0.22,1.91,1.91,0,0,1-.17-0.18c-0.07-.11-0.09-0.22-0.16-0.33a1.69,1.69,0,0,1-.25-0.58c-0.11-.37,0-0.78-0.15-1.15a3,3,0,0,0-.17-0.48l-0.23-.34a2,2,0,0,0-.35-0.48,1.23,1.23,0,0,1-.33-0.52c-0.15-.32-0.37-0.64-0.5-1-0.05-.14-0.11-0.28-0.17-0.42a2.54,2.54,0,0,1-.1-0.47c0-.13-0.17-0.29-0.21-0.43a1.22,1.22,0,0,1,0-.25,1.12,1.12,0,0,0-.07-0.18c0-.16,0-0.32,0-0.48a2.29,2.29,0,0,1-.09-0.41,1.11,1.11,0,0,0-.08-0.41,2.13,2.13,0,0,0-.14-0.44,2.77,2.77,0,0,1-.44-0.73,3.39,3.39,0,0,1,0-1,1.39,1.39,0,0,1,.07-0.18c0-.08,0-0.15,0-0.23s0.07-.17.09-0.26a2.31,2.31,0,0,0,0-.39,2.63,2.63,0,0,0,0-.61c0-.07,0-0.14,0-0.21s-0.06-.14-0.06-0.18,0-.34,0-0.48a2.55,2.55,0,0,1-.35-0.5c-0.06-.56,0-1.15,0-1.72a0.75,0.75,0,0,1,.1-0.41c0.11-.17.31-0.24,0.42-0.41a1.42,1.42,0,0,0,.15-0.91V76.15c0-.23,0-0.45,0-0.68a5.28,5.28,0,0,1,.23-1.13,6.33,6.33,0,0,1,.61-1.15,1.36,1.36,0,0,1,.31-0.43,1.65,1.65,0,0,0,.29-0.47c0.1-.18.21-0.33,0.31-0.5a4.25,4.25,0,0,0,.18-0.41c0-.07.1-0.12,0.13-0.18s0-.27.1-0.38a4,4,0,0,1,.48-0.53,3.06,3.06,0,0,1,.44-0.4,0.59,0.59,0,0,0,.18-0.45,2.09,2.09,0,0,1,.2-0.34,3.38,3.38,0,0,0,.14-0.5,6.5,6.5,0,0,1,.38-0.76,2.84,2.84,0,0,1,.29-0.52,1.41,1.41,0,0,1,.17-0.19,2.08,2.08,0,0,1,.3,0l0-.14,0.22,0a4.34,4.34,0,0,1,.09-0.63,3.67,3.67,0,0,1,.27-0.59s0.11-.06.13-0.1a1.77,1.77,0,0,0,.05-0.19,1.08,1.08,0,0,1,.46-0.5c0.22-.12.45-0.18,0.67-0.29a1.66,1.66,0,0,1,.1-0.5c0.05-.14.12-0.27,0.17-0.41A2.56,2.56,0,0,1,134,63a2.64,2.64,0,0,1,1-.68,1.8,1.8,0,0,0,.47-0.16,1.91,1.91,0,0,1,.29-0.2,0.74,0.74,0,0,0,.18-0.05,0.65,0.65,0,0,1,.29-0.19,1.48,1.48,0,0,0,.44-0.16,1.68,1.68,0,0,0,.42-0.42,3.55,3.55,0,0,1,.46-0.39,3.74,3.74,0,0,1,.54-0.33,1.75,1.75,0,0,1,.83-0.1,2.49,2.49,0,0,0,.81-0.06,4.11,4.11,0,0,0,.59-0.25,1.05,1.05,0,0,0,.31-0.18s0-.13.05-0.15a0.27,0.27,0,0,1,.15,0,3.37,3.37,0,0,1,.58-0.15,3.06,3.06,0,0,0,.58-0.1,3.76,3.76,0,0,1,.5-0.1,3.44,3.44,0,0,0,.83-0.5,2.7,2.7,0,0,1,.83-0.05,1.46,1.46,0,0,0,.41-0.25c0.18-.12.35-0.24,0.51-0.38a0.33,0.33,0,0,1,.29-0.12c0.24,0,.21,0,0.29.23a0.68,0.68,0,0,0,.77.26,2.43,2.43,0,0,0,.82-0.08c0.13,0,.26-0.1.4-0.14S149.34,57.54,149.45,58.06Z"/><path class="cls-6" d="M142.19,62.17a1,1,0,0,1,.55-1.34,17.05,17.05,0,0,1,13.58,0,1,1,0,0,1,.53,1.31l-6.79,17.38a0.36,0.36,0,0,1-.67,0Z"/><path class="cls-6" d="M142.19,100.22a1,1,0,0,0,.55,1.34,17.05,17.05,0,0,0,13.58,0,1,1,0,0,0,.53-1.31l-6.79-17.38a0.36,0.36,0,0,0-.67,0Z"/><path class="cls-6" d="M168.74,73.92a1,1,0,0,1,1.34.55,17,17,0,0,1,0,13.55,1,1,0,0,1-1.31.53l-17.41-6.78a0.36,0.36,0,0,1,0-.67Z"/><path class="cls-6" d="M130.62,73.92a1,1,0,0,0-1.34.55,17,17,0,0,0,0,13.55,1,1,0,0,0,1.31.53L148,81.77a0.36,0.36,0,0,0,0-.67Z"/><path class="cls-6" d="M157.81,62.57a1,1,0,0,1,1.33-.56,17,17,0,0,1,9.59,9.59,1,1,0,0,1-.55,1.3L151.07,80.4a0.36,0.36,0,0,1-.48-0.47Z"/><path class="cls-6" d="M130.86,89.48a1,1,0,0,0-.56,1.33,17,17,0,0,0,9.61,9.57,1,1,0,0,0,1.3-.55l7.51-17.08a0.36,0.36,0,0,0-.47-0.48Z"/><path class="cls-6" d="M130.86,73.06a1,1,0,0,1-.56-1.33,17,17,0,0,1,9.61-9.57,1,1,0,0,1,1.3.55l7.51,17.08a0.36,0.36,0,0,1-.47.48Z"/><path class="cls-6" d="M157.81,100a1,1,0,0,0,1.33.56,17,17,0,0,0,9.59-9.59,1,1,0,0,0-.55-1.3l-17.11-7.49a0.36,0.36,0,0,0-.48.47Z"/><path class="cls-5" d="M144.49,77.17c0.2,0.81,1.34,1.53,2.87,1.87a0.18,0.18,0,0,0,.22-0.22c-0.32-1.53-1-2.68-1.84-2.89A0.95,0.95,0,0,0,144.49,77.17Z"/><path class="cls-5" d="M145.72,86.48c0.81-.2,1.54-1.34,1.88-2.86a0.18,0.18,0,0,0-.22-0.22c-1.54.32-2.69,1-2.9,1.83A0.95,0.95,0,0,0,145.72,86.48Z"/><path class="cls-5" d="M154.67,77.48c-0.2.81-1.34,1.53-2.87,1.87a0.18,0.18,0,0,1-.22-0.22c0.32-1.53,1-2.68,1.84-2.89A0.95,0.95,0,0,1,154.67,77.48Z"/><path class="cls-5" d="M153.44,86.48c-0.81-.2-1.54-1.34-1.88-2.86a0.18,0.18,0,0,1,.22-0.22c1.54,0.32,2.69,1,2.9,1.83A0.95,0.95,0,0,1,153.44,86.48Z"/><path class="cls-7" d="M149.13,64.77a25.39,25.39,0,0,0,.92,8c0.07,0.29.19,0.3,0.23,0a24.33,24.33,0,0,0,.15-7.94c0-.12-0.35-1.47-0.74-1.47S149.14,64.63,149.13,64.77Z"/><path class="cls-7" d="M145.36,63.62a23.87,23.87,0,0,0,2.28,6.58c0.11,0.23.2,0.2,0.18,0a23.76,23.76,0,0,0-1.47-6.81c0-.09-0.56-1.16-0.84-1.06S145.35,63.49,145.36,63.62Z"/><path class="cls-7" d="M152.79,62.62a16.63,16.63,0,0,0-.62,5.77c0,0.22.1,0.26,0.18,0.08A15.1,15.1,0,0,0,153.77,63a2,2,0,0,0-.32-1.22C153.17,61.71,152.82,62.53,152.79,62.62Z"/><path class="cls-7" d="M161.78,68.91a25.39,25.39,0,0,0-5.59,5.8c-0.18.24-.11,0.33,0.14,0.19A24.33,24.33,0,0,0,162.56,70c0.07-.1.91-1.21,0.67-1.5S161.9,68.83,161.78,68.91Z"/><path class="cls-7" d="M159.32,65.89a23.87,23.87,0,0,0-3.63,5.95c-0.11.23,0,.28,0.15,0.11a23.76,23.76,0,0,0,4.33-5.46c0-.09.55-1.17,0.29-1.33S159.4,65.8,159.32,65.89Z"/><path class="cls-7" d="M164.8,71A16.63,16.63,0,0,0,160,74.18c-0.17.14-.14,0.24,0.05,0.18A15.1,15.1,0,0,0,165.1,72a2,2,0,0,0,.74-1C165.75,70.71,164.9,71,164.8,71Z"/><path class="cls-7" d="M149.17,96.71a25.39,25.39,0,0,1,.92-8c0.07-.29.19-0.3,0.23,0a24.33,24.33,0,0,1,.15,7.94c0,0.12-.35,1.47-0.74,1.47S149.19,96.85,149.17,96.71Z"/><path class="cls-7" d="M145.41,97.86a23.87,23.87,0,0,1,2.28-6.58c0.11-.23.2-0.2,0.18,0a23.76,23.76,0,0,1-1.47,6.81c0,0.09-.56,1.16-0.84,1.06S145.4,98,145.41,97.86Z"/><path class="cls-7" d="M152.83,98.86a16.63,16.63,0,0,1-.62-5.77c0-.22.1-0.26,0.18-0.08a15.1,15.1,0,0,1,1.43,5.43,2,2,0,0,1-.32,1.22C153.22,99.77,152.87,99,152.83,98.86Z"/><path class="cls-7" d="M161.82,92.57a25.39,25.39,0,0,1-5.59-5.8c-0.18-.24-0.11-0.33.14-0.19a24.33,24.33,0,0,1,6.23,4.93c0.07,0.1.91,1.21,0.67,1.5S161.94,92.65,161.82,92.57Z"/><path class="cls-7" d="M159.36,95.59a23.87,23.87,0,0,1-3.63-5.95c-0.11-.23,0-0.28.15-0.11A23.76,23.76,0,0,1,160.21,95c0,0.09.55,1.17,0.29,1.33S159.45,95.68,159.36,95.59Z"/><path class="cls-7" d="M164.85,90.49A16.63,16.63,0,0,1,160,87.3c-0.17-.14-0.14-0.24.05-0.18a15.1,15.1,0,0,1,5.1,2.35,2,2,0,0,1,.74,1C165.79,90.77,164.94,90.52,164.85,90.49Z"/><path class="cls-7" d="M138.42,69.21a25.39,25.39,0,0,1,5.16,6.18c0.16,0.25.08,0.34-.15,0.18a24.33,24.33,0,0,1-5.86-5.36c-0.07-.1-0.83-1.27-0.56-1.55S138.31,69.13,138.42,69.21Z"/><path class="cls-7" d="M140.18,65.69a23.87,23.87,0,0,1,3.19,6.19c0.09,0.24,0,.28-0.16.09a23.76,23.76,0,0,1-3.92-5.76c0-.1-0.46-1.21-0.19-1.34S140.1,65.6,140.18,65.69Z"/><path class="cls-7" d="M134.34,70.38a16.63,16.63,0,0,1,4.61,3.53c0.15,0.16.12,0.25-.07,0.18A15.1,15.1,0,0,1,134,71.39a2,2,0,0,1-.67-1.07C133.41,70,134.25,70.35,134.34,70.38Z"/><path class="cls-7" d="M132.7,81.23a25.39,25.39,0,0,1,8.05-.06c0.3,0,.32.15,0,0.23a24.33,24.33,0,0,1-7.87,1.12c-0.12,0-1.51-.17-1.55-0.55S132.56,81.27,132.7,81.23Z"/><path class="cls-7" d="M132.21,77.37A23.87,23.87,0,0,1,139,78.83c0.24,0.08.23,0.17,0,.18a23.76,23.76,0,0,1-6.94-.63c-0.1,0-1.22-.41-1.16-0.71S132.08,77.37,132.21,77.37Z"/><path class="cls-7" d="M132.12,84.86a16.63,16.63,0,0,1,5.66-1.32c0.22,0,.27.06,0.1,0.16a15.1,15.1,0,0,1-5.21,2.08,2,2,0,0,1-1.25-.17C131.26,85.35,132,84.9,132.12,84.86Z"/><path class="cls-7" d="M167.48,81.55a25.39,25.39,0,0,1-8-.52c-0.29-.06-0.3-0.17,0-0.23a24.33,24.33,0,0,1,7.92-.55c0.12,0,1.49.28,1.51,0.66S167.61,81.52,167.48,81.55Z"/><path class="cls-7" d="M167.69,85.44A23.87,23.87,0,0,1,161,83.49c-0.23-.1-0.21-0.19,0-0.18a23.76,23.76,0,0,1,6.88,1.12c0.1,0,1.19.5,1.1,0.79S167.81,85.45,167.69,85.44Z"/><path class="cls-7" d="M168.31,78a16.63,16.63,0,0,1-5.73.91c-0.22,0-.26-0.08-0.08-0.17a15.1,15.1,0,0,1,5.35-1.7,2,2,0,0,1,1.24.25C169.2,77.55,168.4,77.93,168.31,78Z"/><path class="cls-7" d="M137,93.77a25.39,25.39,0,0,1,5.91-5.48c0.24-.17.34-0.1,0.19,0.14a24.33,24.33,0,0,1-5.05,6.13c-0.1.07-1.23,0.89-1.52,0.64S137,93.89,137,93.77Z"/><path class="cls-7" d="M134.06,91.25a23.87,23.87,0,0,1,6-3.51c0.23-.1.28,0,0.1,0.15a23.76,23.76,0,0,1-5.55,4.22c-0.09,0-1.18.52-1.33,0.26S134,91.33,134.06,91.25Z"/><path class="cls-7" d="M139.05,96.83A16.63,16.63,0,0,1,142.34,92c0.15-.16.24-0.13,0.18,0.06a15.1,15.1,0,0,1-2.45,5.05,2,2,0,0,1-1,.72C138.75,97.77,139,96.93,139.05,96.83Z"/><path class="cls-8" d="M149.77,84.35L137,277.47a3.59,3.59,0,0,1-3.2,3.35,190.17,190.17,0,0,1-19.55,1.11,188.88,188.88,0,0,1-21.76-1.13,3.38,3.38,0,0,1-3-3.14Q83,181.12,76.64,84.57a2,2,0,0,1,1.77-2.09q5.28-.52,10.92-0.89,2.54-.17,5.13-0.31l1.62-.07H96.3l1.18-.06c4.8-.21,9.77-0.34,14.88-0.35,13,0,24.95.64,35.84,1.7A1.74,1.74,0,0,1,149.77,84.35Z"/><path class="cls-9" d="M143.22,107.86Q138.86,176,134.48,244.2a10.68,10.68,0,0,1-4.18,7.88,27.52,27.52,0,0,1-33.35.49,11.79,11.79,0,0,1-4.8-8.9L84,103c9.39-.74,19.54-1.19,30.34-1.17q9.29,0,17.89.45A26.34,26.34,0,0,0,143.22,107.86Z"/><path class="cls-10" d="M134.85,254.75l-1.06,18.94a3.31,3.31,0,0,1-3.3,3.12H96.35a2.69,2.69,0,0,1-2.68-2.52l-1.23-19.54A35.22,35.22,0,0,0,134.85,254.75Z"/><path class="cls-11" d="M134.84,254.75l-0.88,19a3.21,3.21,0,0,1-3.2,3.06h-4.94a1.36,1.36,0,0,0,.82-0.86c-0.06-.58-1.86-0.84-7.56-0.92V261.37A35.71,35.71,0,0,0,134.84,254.75Z"/><path class="cls-12" d="M127.68,258.92q0.52-.21,1.06-0.47c0.5-.23,1-0.47,1.4-0.71v19.06h-2.45V258.92Z"/><path class="cls-13" d="M106.78,249.53a0.31,0.31,0,0,0,0-.13L97.48,81.14l-1.18.06H96.08l-1.62.07q-2.59.14-5.13,0.31l0.37,6.85,8.92,161.42a1.41,1.41,0,0,0,1.48,1.33l3.73-.21,1.63-.08a1.42,1.42,0,0,0,1.33-1.35v0Z"/><path class="cls-14" d="M90.39,100.74l0.67,12.08a58.77,58.77,0,0,0,5.29-5.6c0.87-1.06,1.67-2.1,2.4-3.11L98,91.56c-1,1.45-2.17,3-3.46,4.52C93.16,97.8,91.75,99.36,90.39,100.74Z"/><path class="cls-14" d="M91.77,125.83l0.67,12.08a58.77,58.77,0,0,0,5.29-5.6c0.87-1.06,1.67-2.1,2.4-3.11l-0.7-12.55c-1,1.45-2.17,3-3.46,4.52C94.54,122.89,93.13,124.44,91.77,125.83Z"/><path class="cls-14" d="M96.3,81.2c-0.07.08-.14,0.17-0.21,0.26-0.36.45-.72,0.92-1.1,1.37l-0.42.5a60.25,60.25,0,0,1-4.87,5.1l-0.37-6.85q2.54-.17,5.13-0.31l1.62-.07H96.3Z"/><path class="cls-14" d="M94.67,178.11l0.67,12.08a58.77,58.77,0,0,0,5.29-5.6c0.87-1.06,1.67-2.1,2.4-3.11l-0.7-12.55c-1,1.45-2.17,3-3.46,4.52C97.44,175.17,96,176.72,94.67,178.11Z"/><path class="cls-15" d="M127.36,223.65a1.48,1.48,0,0,0-.54,1.35,7.08,7.08,0,0,0-1.4-2.36c-0.91-1-2.36-2.06-2.75-1.81-0.14.1-.19,0.41,0.21,1.34a10.53,10.53,0,0,0-2-1.4c-0.3-.16-2.56-1.37-3-0.87-0.13.13-.17,0.41,0.19,1.09-2.94-1.59-5.37-2.21-6-1.48s0.13,2.16.2,2.33a4.78,4.78,0,0,0,1.2,1.66c-1.62-.71-2.08-0.39-2.2-0.3-0.66.57,0.35,2.55,1.1,3.6a8.29,8.29,0,0,0,1.34,1.46,2,2,0,0,0-1.73.2c-0.63.62,0.11,2,.47,2.7a7.17,7.17,0,0,0,1.72,2.1c-1.13-.28-1.45-0.05-1.56.08-0.53.62,1,2.5,1.34,2.92a10.57,10.57,0,0,0,2.35,2.12c-1.36-.28-1.67-0.06-1.75.09-0.31.49,0.95,1.75,1.83,2.41a8.18,8.18,0,0,0,3.21,1.47,1.54,1.54,0,0,0-1.14,1c0,0.67,1.9,1.31,3.35,1.39a6.2,6.2,0,0,0,3.51-.91c0.2-.11.36-0.23,0.51-0.33l0.38,0.19a3.07,3.07,0,0,0,.8.21c3.09,0.39,6.11-4.39,5.44-5.08a1.11,1.11,0,0,0-1,.05,7.51,7.51,0,0,0,1.54-3.21c0.21-1.09.26-2.68-.18-2.82a1.41,1.41,0,0,0-1,.83,8.62,8.62,0,0,0,.2-2.05c0-1.25-.37-3.29-1.06-3.41a1.09,1.09,0,0,0-.93.73,6.37,6.37,0,0,0-.74-3.31C128.85,224.85,127.94,223.52,127.36,223.65Z"/><path class="cls-16" d="M127.86,241.18A8.73,8.73,0,0,0,131,236c0.84-4.89-3.53-8.91-4.81-10.1a18.62,18.62,0,0,0-8.7-4.39c1.7,1.14,10.67,7.34,10.82,16A12.64,12.64,0,0,1,127.86,241.18Z"/><path class="cls-17" d="M125.39,242.59a9.76,9.76,0,0,0,1-3c1.28-8.24-8.68-15.72-9.93-16.63-0.08,2.07-.42,15.09,7.19,18.94A9.53,9.53,0,0,0,125.39,242.59Z"/><path class="cls-18" d="M124.55,224.91a0.07,0.07,0,0,0-.13,0,7.72,7.72,0,0,1,.67,3.26,7.12,7.12,0,0,1-.18,1.46,0.08,0.08,0,0,1-.13,0,22.7,22.7,0,0,0-3.57-4.49,24.78,24.78,0,0,0-7.95-5.18,0.06,0.06,0,1,0-.05.12,33.7,33.7,0,0,1,5.5,3.81,32.4,32.4,0,0,1,4.11,4.2,0.07,0.07,0,0,1-.1.1A17,17,0,0,0,117,226a0.07,0.07,0,1,0,0,.13,21,21,0,0,1,2.38.92,13.54,13.54,0,0,1,5.16,3.52,9.79,9.79,0,0,1,2.07,4.34,0.07,0.07,0,0,1-.12.06,12.55,12.55,0,0,0-2.68-2,12.74,12.74,0,0,0-3.91-1.36,0.07,0.07,0,1,0,0,.13,19.29,19.29,0,0,1,3.93,1.83,19,19,0,0,1,2.87,2.14l0,0a11.1,11.1,0,0,1,.37,2,10,10,0,0,1,0,1.56,0.07,0.07,0,0,1-.12,0,7.62,7.62,0,0,0-1.45-1.22,7.83,7.83,0,0,0-2.75-1.09,0.07,0.07,0,1,0,0,.13,11.19,11.19,0,0,1,2.67,1.41,10.93,10.93,0,0,1,1.57,1.38,0.07,0.07,0,0,1,0,.05,8,8,0,0,1-1.57,3.67l0,0.06c0.2-.11.36-0.23,0.51-0.33l0.38,0.19a8.44,8.44,0,0,0,1.49-4.3,0,0,0,0,1,0,0,5.23,5.23,0,0,0,1.17-1,5.08,5.08,0,0,0,1.28-2.89,6,6,0,0,1-1.23,2.23,6.17,6.17,0,0,1-1.12,1,0.07,0.07,0,0,1-.12-0.05c0-.4,0-0.83-0.07-1.28a15,15,0,0,0-.3-1.8,0.06,0.06,0,0,1,0,0,7.31,7.31,0,0,0,1.06-3,7.59,7.59,0,0,0-.13-2.59c0-.09-0.15-0.07-0.15,0a8.88,8.88,0,0,1-.89,4.59,0.07,0.07,0,0,1-.13,0,11.26,11.26,0,0,0-.58-1.74,11.49,11.49,0,0,0-1.08-2,0.05,0.05,0,0,1,0,0,7.21,7.21,0,0,0,.11-3.4A7.8,7.8,0,0,0,124.55,224.91Z"/><path class="cls-14" d="M96.17,205.3l0.67,12.08a58.77,58.77,0,0,0,5.29-5.6c0.87-1.06,1.67-2.1,2.4-3.11l-0.7-12.55c-1,1.45-2.17,3-3.46,4.52C98.94,202.36,97.53,203.91,96.17,205.3Z"/><path class="cls-14" d="M93.2,151.62l0.67,12.08a58.77,58.77,0,0,0,5.29-5.6c0.87-1.06,1.67-2.1,2.4-3.11l-0.7-12.55c-1,1.45-2.17,3-3.46,4.52C96,148.68,94.56,150.23,93.2,151.62Z"/><path class="cls-14" d="M97.56,230.38l0.67,12.08a58.77,58.77,0,0,0,5.29-5.6c0.87-1.06,1.67-2.1,2.4-3.11l-0.7-12.55c-1,1.45-2.17,3-3.46,4.52C100.33,227.44,98.91,229,97.56,230.38Z"/><path class="cls-19" d="M105.46,250.89l-1.63.09L94.57,83.34l-0.11-2.06,1.62-.07,0,0.25Z"/><path class="cls-20" d="M129.1,209.14a19.93,19.93,0,0,0-2.78-22.25l-0.44.39-1.05.91L97.46,211.84l-1.06.91-0.24.2A19.91,19.91,0,0,0,129.1,209.14Z"/><path class="cls-21" d="M128.71,209.15a19.48,19.48,0,0,0-2.83-21.88l-1.05.91L97.46,211.84l-1.06.91A19.46,19.46,0,0,0,128.71,209.15Z"/><path class="cls-22" d="M103.15,216.4a18,18,0,0,1-5.69-4.56l27.37-23.67A18.1,18.1,0,0,1,103.15,216.4Z"/><path class="cls-23" d="M126.92,201.84a0.77,0.77,0,0,1,.71.82,12.81,12.81,0,0,1-4.66,9.07,0.76,0.76,0,0,1-1.06-.09l-9.3-10.49a0.27,0.27,0,0,1,.23-0.45Z"/><path class="cls-23" d="M110,215.58a0.77,0.77,0,0,1-.82.71,12.75,12.75,0,0,1-9.06-4.65,0.77,0.77,0,0,1,.09-1.06l10.49-9.32a0.27,0.27,0,0,1,.45.23Z"/><path class="cls-23" d="M121.31,212.15a0.77,0.77,0,0,1-.08,1.08,12.78,12.78,0,0,1-9.7,3.13,0.76,0.76,0,0,1-.68-0.81l0.84-14a0.27,0.27,0,0,1,.48-0.16Z"/><path class="cls-23" d="M123.51,190.54a0.77,0.77,0,0,1,1.08.08,12.78,12.78,0,0,1,3.11,9.7,0.77,0.77,0,0,1-.81.68l-14-.82a0.27,0.27,0,0,1-.16-0.48Z"/><path class="cls-22" d="M116.1,198.25a2.7,2.7,0,0,0-2.23,1.28,0.14,0.14,0,0,0,.07.23,2.69,2.69,0,0,0,2.56-.24A0.71,0.71,0,0,0,116.1,198.25Z"/><path class="cls-22" d="M112.41,205a2.7,2.7,0,0,1-.27-2.56,0.14,0.14,0,0,1,.22-0.07,2.69,2.69,0,0,1,1.3,2.22A0.71,0.71,0,0,1,112.41,205Z"/><path class="cls-24" d="M122.81,205.59a19.07,19.07,0,0,0-5.67-2.12c-0.22-.05-0.26,0-0.09.15a18.28,18.28,0,0,0,5.26,2.82,1.87,1.87,0,0,0,1.24,0C123.67,206.21,122.89,205.65,122.81,205.59Z"/><path class="cls-24" d="M124.86,203.47a17.93,17.93,0,0,0-5.18-.72c-0.19,0-.2.06,0,0.14a17.85,17.85,0,0,0,5.06,1.35,1.52,1.52,0,0,0,1-.2A1.62,1.62,0,0,0,124.86,203.47Z"/><path class="cls-24" d="M123,208.78a12.49,12.49,0,0,0-3.65-2.39c-0.15-.07-0.2,0-0.11.09a11.35,11.35,0,0,0,3.14,2.81,1.48,1.48,0,0,0,.93.21A0.91,0.91,0,0,0,123,208.78Z"/><path class="cls-24" d="M115.71,212.64a19.07,19.07,0,0,0-2-5.72c-0.1-.2-0.19-0.19-0.17,0a18.28,18.28,0,0,0,1.17,5.85,1.87,1.87,0,0,0,.78,1C115.79,213.7,115.72,212.75,115.71,212.64Z"/><path class="cls-24" d="M118.57,212a17.93,17.93,0,0,0-2.73-4.46c-0.12-.15-0.18-0.12-0.12.06a17.85,17.85,0,0,0,2.17,4.76,1.52,1.52,0,0,0,.79.64A1.62,1.62,0,0,0,118.57,212Z"/><path class="cls-24" d="M113.29,214a12.49,12.49,0,0,0-.47-4.34c0-.16-0.11-0.17-0.14,0a11.35,11.35,0,0,0-.18,4.21,1.48,1.48,0,0,0,.43.85A0.91,0.91,0,0,0,113.29,214Z"/><path class="cls-24" d="M123.5,196.91a19.07,19.07,0,0,1-5.9,1.33c-0.22,0-.26-0.06-0.07-0.16a18.28,18.28,0,0,1,5.59-2.08,1.87,1.87,0,0,1,1.23.16C124.44,196.42,123.59,196.87,123.5,196.91Z"/><path class="cls-24" d="M125.25,199.29a17.93,17.93,0,0,1-5.23,0c-0.19,0-.19-0.09,0-0.14a17.85,17.85,0,0,1,5.2-.65,1.52,1.52,0,0,1,1,.33A1.62,1.62,0,0,1,125.25,199.29Z"/><path class="cls-25" d="M109,249.42a2.35,2.35,0,0,1-.13.91c-0.78,2.16-4.94,2.52-5.17,1.85a0.79,0.79,0,0,1,.38-0.67,5.46,5.46,0,0,1-2.62-.08c-0.79-.23-1.85-0.73-1.79-1.07a1,1,0,0,1,.87-0.34,6.25,6.25,0,0,1-1.41-.57c-0.81-.45-2-1.35-1.88-1.85a0.8,0.8,0,0,1,.79-0.36,4.71,4.71,0,0,1-1.93-1.6c-0.36-.52-0.92-1.56-0.64-1.9a1.07,1.07,0,0,1,1.06.1,5.31,5.31,0,0,1-1.08-1.71c-0.37-.95-0.56-2.25-0.26-2.41,0.11-.06.33,0,0.81,0.59a8,8,0,0,1-.24-1.78c0-.25,0-2.14.45-2.29,0.13,0,.33,0,0.65.49-0.06-2.46.36-4.27,1.05-4.44s1.38,0.82,1.46.92a3.49,3.49,0,0,1,.68,1.35c0.08-1.31.45-1.5,0.54-1.54,0.6-.24,1.56,1.09,2,1.94a6.15,6.15,0,0,1,.51,1.37,1.51,1.51,0,0,1,.71-1.07c0.62-.2,1.28.75,1.61,1.22a5.27,5.27,0,0,1,.8,1.84,1.11,1.11,0,0,1,.57-1c0.59-.14,1.31,1.5,1.47,1.87a7.91,7.91,0,0,1,.6,2.26c0.27-1,.52-1.11.65-1.12,0.43,0,.83,1.22,1,2a6.15,6.15,0,0,1-.12,2.61,1.12,1.12,0,0,1,1-.43c0.42,0.26.22,1.69-.21,2.67A4.69,4.69,0,0,1,109,249.42Z"/><path class="cls-26" d="M106.78,250a6.43,6.43,0,0,1-4.44.34c-3.49-1.11-4.67-5.33-5-6.57a13.76,13.76,0,0,1,0-7.19c0.18,1.5,1.23,9.48,6.84,12.5A9.35,9.35,0,0,0,106.78,250Z"/><path class="cls-27" d="M108.54,248.86a7.21,7.21,0,0,1-2.29-.37c-5.84-2-7.4-11-7.58-12.14,1.38,0.65,10,4.83,10,11.13A7,7,0,0,1,108.54,248.86Z"/><path class="cls-18" d="M112.56,248.05a0.06,0.06,0,0,1,0,0,6.83,6.83,0,0,1-3.46,1.63,6.27,6.27,0,0,1-3.42-.46h0a3.84,3.84,0,0,1-1,.45,3.76,3.76,0,0,1-2.32-.14,4.48,4.48,0,0,0,1.87-.05,4.68,4.68,0,0,0,1-.39,0.06,0.06,0,0,0,0-.1c-0.26-.14-0.53-0.3-0.81-0.48a10.48,10.48,0,0,1-1.08-.81h0a5.46,5.46,0,0,1-2.33-.32,5.69,5.69,0,0,1-1.66-1s0-.12.05-0.09a6.83,6.83,0,0,0,1.78.76,6.66,6.66,0,0,0,1.54.22,0.06,0.06,0,0,0,0-.1,8.33,8.33,0,0,1-.95-1,8.8,8.8,0,0,1-.94-1.38l0,0a5.27,5.27,0,0,1-2.27-1.08,5.83,5.83,0,0,1-1.28-1.46c0-.06,0-0.12.08-0.07a5.74,5.74,0,0,0,1.92,1.54,5.2,5.2,0,0,0,1,.37,0.05,0.05,0,0,0,.05-0.08,16.85,16.85,0,0,1-1.75-3.86,18.41,18.41,0,0,1-.73-7,0,0,0,1,1,.1,0,24.84,24.84,0,0,0,.65,4.9,23.83,23.83,0,0,0,1.38,4.12,0,0,0,0,0,.09,0,12.71,12.71,0,0,1,.46-4.54,0,0,0,1,1,.1,0,15.15,15.15,0,0,0-.2,1.87,10,10,0,0,0,.58,4.58,7.2,7.2,0,0,0,2.16,2.83,0.05,0.05,0,0,0,.08-0.06,9.14,9.14,0,0,1-.39-2.42,9.42,9.42,0,0,1,.42-3,0,0,0,1,1,.1,0,14.4,14.4,0,0,0-.12,3.2,14,14,0,0,0,.44,2.6v0a7.83,7.83,0,0,0,1.21.93,7.52,7.52,0,0,0,1,.53,0.05,0.05,0,0,0,.06-0.07,5.54,5.54,0,0,1-.31-1.36,5.84,5.84,0,0,1,.2-2.17,0,0,0,1,1,.1,0,8.22,8.22,0,0,0,0,2.23,7.87,7.87,0,0,0,.38,1.5l0,0a5.85,5.85,0,0,0,2.94.21,6.45,6.45,0,0,0,3.16-1.62,0,0,0,0,1,.08,0v0.42Z"/><path class="cls-15" d="M127,246.9a1.35,1.35,0,0,0-1.31-.21,6.47,6.47,0,0,0,1.82-1.72c0.73-1,1.37-2.51,1.06-2.81-0.11-.11-0.41-0.08-1.15.46a9.62,9.62,0,0,0,.85-2.06c0.08-.3.71-2.55,0.17-2.88-0.14-.09-0.4-0.07-0.94.39,0.83-2.94.9-5.23,0.12-5.65s-1.9.55-2,.65a4.37,4.37,0,0,0-1.24,1.4c0.31-1.59-.07-1.94-0.17-2-0.64-.48-2.2.82-3,1.7a7.57,7.57,0,0,0-1,1.48,1.87,1.87,0,0,0-.52-1.51c-0.68-.44-1.76.49-2.31,1a6.55,6.55,0,0,0-1.54,2c0-1.07-.24-1.3-0.38-1.37-0.66-.35-2,1.38-2.33,1.78a9.66,9.66,0,0,0-1.43,2.52c0-1.27-.28-1.5-0.43-1.54-0.5-.18-1.38,1.2-1.79,2.11a7.48,7.48,0,0,0-.67,3.16,1.41,1.41,0,0,0-1.08-.83c-0.59.17-.79,2-0.57,3.27a5.67,5.67,0,0,0,1.51,3c0.14,0.15.27,0.28,0.39,0.39,0,0.1-.06.23-0.1,0.38a2.81,2.81,0,0,0,0,.75c0.26,2.83,5.13,4.58,5.61,3.84a1,1,0,0,0-.25-0.92,6.86,6.86,0,0,0,3.17.74c1,0,2.44-.3,2.48-0.72a1.29,1.29,0,0,0-.93-0.69,7.88,7.88,0,0,0,1.87-.23c1.11-.28,2.86-1,2.83-1.63a1,1,0,0,0-.83-0.68,5.82,5.82,0,0,0,2.81-1.32C126.23,248.47,127.24,247.39,127,246.9Z"/><path class="cls-28" d="M111.48,250.83a8,8,0,0,0,5.21,1.8c4.53-.23,7.25-4.92,8-6.3a17,17,0,0,0,2.18-8.63c-0.68,1.75-4.43,11-12.08,12.82A11.55,11.55,0,0,1,111.48,250.83Z"/><path class="cls-29" d="M109.72,248.92a8.92,8.92,0,0,0,2.86.28c7.61-.5,12.29-10.87,12.86-12.16-1.86.34-13.54,2.62-15.46,10.18A8.71,8.71,0,0,0,109.72,248.92Z"/><path class="cls-18" d="M125.33,244.65a0.07,0.07,0,0,0-.07-0.11,7.05,7.05,0,0,1-2.77,1.25,6.51,6.51,0,0,1-1.34.13,0.07,0.07,0,0,1,0-.12,20.74,20.74,0,0,0,3.29-4.07,22.65,22.65,0,0,0,3-8.12,0.06,0.06,0,1,0-.12,0,30.79,30.79,0,0,1-2.31,5.67,29.61,29.61,0,0,1-2.93,4.5,0.06,0.06,0,0,1-.11-0.07,15.57,15.57,0,0,0,.86-5.58,0.06,0.06,0,1,0-.12,0,19.2,19.2,0,0,1-.34,2.31,12.37,12.37,0,0,1-2.11,5.3,9,9,0,0,1-3.46,2.71,0.07,0.07,0,0,1-.08-0.1,11.47,11.47,0,0,0,1.23-2.78,11.64,11.64,0,0,0,.44-3.76,0.06,0.06,0,1,0-.12,0,17.63,17.63,0,0,1-.85,3.87,17.39,17.39,0,0,1-1.34,3l0,0a10.15,10.15,0,0,1-1.74.73,9.1,9.1,0,0,1-1.39.31,0.06,0.06,0,0,1-.05-0.1,7,7,0,0,0,.8-1.54,7.15,7.15,0,0,0,.43-2.67,0.06,0.06,0,1,0-.12,0,10.22,10.22,0,0,1-.73,2.66,10,10,0,0,1-.92,1.67,0.06,0.06,0,0,1,0,0,7.33,7.33,0,0,1-3.59-.67l-0.06,0c0.14,0.15.27,0.28,0.39,0.39,0,0.1-.06.23-0.1,0.38a7.71,7.71,0,0,0,4.14.47,0,0,0,0,1,0,0,4.78,4.78,0,0,0,1.09.85,4.64,4.64,0,0,0,2.83.57,5.52,5.52,0,0,1-2.23-.65,5.64,5.64,0,0,1-1.12-.8,0.07,0.07,0,0,1,0-.12c0.35-.08.73-0.19,1.12-0.32a13.74,13.74,0,0,0,1.54-.63h0a6.68,6.68,0,0,0,2.9.35,6.94,6.94,0,0,0,2.28-.63c0.07,0,0-.15,0-0.13a8.12,8.12,0,0,1-4.27.12,0.07,0.07,0,0,1,0-.12,10.29,10.29,0,0,0,1.44-.87,10.5,10.5,0,0,0,1.56-1.35h0a6.59,6.59,0,0,0,3.05-.58A7.13,7.13,0,0,0,125.33,244.65Z"/><path class="cls-24" d="M124.11,193.78a12.49,12.49,0,0,1-3.94,1.87c-0.16,0-.21,0-0.1-0.11a11.35,11.35,0,0,1,3.49-2.36,1.48,1.48,0,0,1,.95-0.08A0.91,0.91,0,0,1,124.11,193.78Z"/><path class="cls-24" d="M105.31,212.13a19.07,19.07,0,0,1,3.1-5.2c0.14-.18.22-0.14,0.16,0.06a18.28,18.28,0,0,1-2.34,5.49,1.87,1.87,0,0,1-1,.78C105,213.15,105.28,212.23,105.31,212.13Z"/><path class="cls-24" d="M102.63,210.94a17.93,17.93,0,0,1,3.59-3.81c0.15-.12.2-0.08,0.11,0.09a17.85,17.85,0,0,1-3.1,4.22,1.52,1.52,0,0,1-.91.47A1.62,1.62,0,0,1,102.63,210.94Z"/><path class="cls-24" d="M107.41,213.9a12.49,12.49,0,0,1,1.35-4.15c0.07-.15.14-0.15,0.14,0a11.35,11.35,0,0,1-.69,4.16,1.48,1.48,0,0,1-.59.74A0.91,0.91,0,0,1,107.41,213.9Z"/><path class="cls-30" d="M97.48,81.14l-1.18.06H96.08l-1.62.07q-2.61.14-5.13,0.31L89,76.36,88.36,64.05q-0.29-5.52-.61-11a1.4,1.4,0,0,1,1.2-1.48c0.85-.12,1.76-0.21,2.72-0.27s1.89-.07,2.76,0h0.13a1.39,1.39,0,0,1,1.35,1.33L96,54.79Z"/><path class="cls-4" d="M95.9,52.56L96,54.79c-0.76,1.16-1.61,2.37-2.57,3.6a53,53,0,0,1-5.1,5.66L87.75,53a1.4,1.4,0,0,1,1.2-1.47c0.85-.12,1.75-0.21,2.71-0.27s2-.07,2.89,0A1.4,1.4,0,0,1,95.9,52.56Z"/><path class="cls-4" d="M97.39,79.72c-0.35.49-.71,1-1.09,1.48H96.08l-1.62.07q-2.61.14-5.13,0.31L89,76.36c1.36-1.38,2.78-2.94,4.2-4.66,0.22-.26.44-0.53,0.64-0.79,0.53-.65,1-1.31,1.52-1.94s0.88-1.21,1.29-1.78Z"/><path class="cls-31" d="M96.08,81.21l-1.62.07L93.88,70.9,93.21,58.71h0L92.8,51.23l0.36,0h1.27l0.3,5.47h0L95.4,69Z"/><path class="cls-32" d="M134.07,270.33c0,1-.09,2-0.13,2.93a3.41,3.41,0,0,1-3.06,3.5l-5.05,0a1.36,1.36,0,0,0,.82-0.86c-0.06-.58-1.86-0.84-7.56-0.92-1.35,0-2.93,0-4.77,0-10.54,0-13.25.25-13.31,1a1.22,1.22,0,0,0,.73.81H96.34a2.93,2.93,0,0,1-2.65-3l-0.21-3.53a96.86,96.86,0,0,0,20.76,2.18c1.65,0,3.27-.06,4.84-0.15A97.44,97.44,0,0,0,134.07,270.33Z"/><path class="cls-25" d="M138,80.83a3.14,3.14,0,0,0,.5-1.13c0.64-3-3.85-6.41-4.58-5.81a1.06,1.06,0,0,0,0,1,7.41,7.41,0,0,0-3.05-1.79c-1.06-.31-2.64-0.49-2.81-0.07a1.41,1.41,0,0,0,.74,1,8.47,8.47,0,0,0-2-.37c-1.24-.07-3.29.08-3.47,0.75a1.08,1.08,0,0,0,.64,1,6.34,6.34,0,0,0-3.35.44c-0.78.33-2.17,1.11-2.09,1.7a1.46,1.46,0,0,0,1.29.65,7.11,7.11,0,0,0-2.45,1.17c-1.09.81-2.25,2.15-2,2.55,0.09,0.15.39,0.22,1.35-.1a10.68,10.68,0,0,0-1.55,1.85c-0.18.28-1.57,2.4-1.12,2.92,0.12,0.13.39,0.2,1.1-.09-1.82,2.76-2.64,5.1-2,5.79s2.16,0.05,2.33,0a4.66,4.66,0,0,0,1.74-1c-0.84,1.54-.56,2-0.48,2.14,0.51,0.7,2.55-.12,3.66-0.77A8.21,8.21,0,0,0,122,91.46a2,2,0,0,0,.05,1.73c0.56,0.67,2,.07,2.72-0.23A7,7,0,0,0,127,91.44c-0.37,1.09-.17,1.43-0.05,1.54,0.58,0.58,2.56-.76,3-1.07a10.56,10.56,0,0,0,2.3-2.14c-0.4,1.32-.2,1.64-0.06,1.74,0.47,0.35,1.82-.79,2.55-1.59a8.2,8.2,0,0,0,1.73-3,1.51,1.51,0,0,0,.85,1.21c0.67,0,1.46-1.76,1.66-3.18A6.31,6.31,0,0,0,138,80.83Z"/><path class="cls-33" d="M135.93,78.6A8.72,8.72,0,0,0,131.1,75c-4.78-1.25-9.14,2.7-10.41,3.86a18.33,18.33,0,0,0-5.08,8.2c1.27-1.58,8.17-9.89,16.73-9.29A12.67,12.67,0,0,1,135.93,78.6Z"/><path class="cls-34" d="M137.13,81.15a9.79,9.79,0,0,0-2.88-1.23c-8.07-2-16.32,7.2-17.32,8.35,2,0.26,14.93,1.72,19.39-5.45A9.37,9.37,0,0,0,137.13,81.15Z"/><path class="cls-18" d="M141.14,84.95a0.08,0.08,0,0,0,0-.06,9.24,9.24,0,0,0-2.8-4.33,8.52,8.52,0,0,0-4.24-1.93,0.06,0.06,0,0,1,0,0,5.2,5.2,0,0,0-.85-1.24,5.1,5.1,0,0,0-2.75-1.51,6.08,6.08,0,0,1,2.1,1.41,6.34,6.34,0,0,1,.91,1.19,0.07,0.07,0,0,1-.07.11c-0.39,0-.82,0-1.27,0a14.14,14.14,0,0,0-1.81.15h0a7.41,7.41,0,0,0-2.9-1.31,7.7,7.7,0,0,0-2.58-.09c-0.08,0-.09.14,0,0.14a9.24,9.24,0,0,1,2.57.42,9,9,0,0,1,1.91.85,0.07,0.07,0,0,1,0,.13,11.2,11.2,0,0,0-1.78.42,11.79,11.79,0,0,0-2.06.89h-0.05a7.14,7.14,0,0,0-3.36-.4,7.83,7.83,0,0,0-2.5.74c-0.08,0,0,.16,0,0.13a7.73,7.73,0,0,1,3.29-.38,7,7,0,0,1,1.43.31,0.07,0.07,0,0,1,0,.13,22.53,22.53,0,0,0-4.75,3.13,24.53,24.53,0,0,0-5.8,7.39,0.07,0.07,0,1,0,.11.07,33.1,33.1,0,0,1,4.24-5.1,31.81,31.81,0,0,1,4.52-3.69,0.07,0.07,0,0,1,.08.1A16.94,16.94,0,0,0,120,88a0.07,0.07,0,1,0,.13,0,20.19,20.19,0,0,1,1.11-2.27A13.37,13.37,0,0,1,125.14,81a9.65,9.65,0,0,1,4.48-1.66,0.07,0.07,0,0,1,0,.13,12.18,12.18,0,0,0-2.17,2.47,12.55,12.55,0,0,0-1.68,3.74,0.07,0.07,0,1,0,.13,0A19.18,19.18,0,0,1,128.08,82a18.68,18.68,0,0,1,2.36-2.64l0,0a10.56,10.56,0,0,1,2-.19,10.17,10.17,0,0,1,1.55.13,0.07,0.07,0,0,1,0,.13,7.39,7.39,0,0,0-1.32,1.32,7.78,7.78,0,0,0-1.32,2.61,0.07,0.07,0,1,0,.12,0,11,11,0,0,1,1.62-2.51,10.5,10.5,0,0,1,1.5-1.43h0.06a7.94,7.94,0,0,1,3.51,1.87,8.72,8.72,0,0,1,2.46,4.1,0.06,0.06,0,0,0,.12,0Z"/><ellipse class="cls-35" cx="129.39" cy="222.38" rx="2.76" ry="2.68" transform="translate(-107.9 122.94) rotate(-37.07)"/><ellipse class="cls-36" cx="127.04" cy="246.05" rx="2.19" ry="2.13" transform="translate(-147.37 283.16) rotate(-70.4)"/><ellipse class="cls-37" cx="122.91" cy="236.17" rx="2.86" ry="2.81" transform="translate(-140.8 272.71) rotate(-70.4)"/><ellipse class="cls-38" cx="131.09" cy="220.68" rx="1.45" ry="1.41" transform="translate(-106.53 123.62) rotate(-37.07)"/><ellipse class="cls-39" cx="120.7" cy="237.67" rx="1.51" ry="1.49" transform="translate(-143.69 271.63) rotate(-70.4)"/><rect class="cls-40" x="110.49" y="100.31" width="21.62" height="20.74" rx="3.56" ry="3.56" transform="translate(51.7 -38.04) rotate(22.54)"/><rect class="cls-41" x="110.21" y="101.73" width="19.68" height="18.88" rx="3.31" ry="3.31" transform="translate(51.79 -37.53) rotate(22.54)"/><path class="cls-42" d="M113.66,100.89a2.33,2.33,0,0,1,3.14-1.3l13.74,5.7A2.64,2.64,0,0,1,132,107a2.45,2.45,0,0,1-.12,1.42l-5.4,13a2.4,2.4,0,0,1-1.19,1.28,2.43,2.43,0,0,1-1.95,0,2.54,2.54,0,0,0,1.83-.7,2.36,2.36,0,0,0,.58-1L131,108.21a2.26,2.26,0,0,0-.9-2.28l-13.42-5.65a2.33,2.33,0,0,0-1.25-.34A2.51,2.51,0,0,0,113.66,100.89Z"/><rect class="cls-43" x="116.27" y="118.05" width="21.81" height="20.93" rx="3.56" ry="3.56" transform="translate(-46.82 79.37) rotate(-29.53)"/><rect class="cls-44" x="116.86" y="120.29" width="19.86" height="19.06" rx="3.31" ry="3.31" transform="translate(-47.51 79.34) rotate(-29.53)"/><path class="cls-42" d="M114.65,128.53a2.35,2.35,0,0,1,.91-3.3l13.06-7.4a2.66,2.66,0,0,1,2.25-.06,2.47,2.47,0,0,1,1.05,1l7,12.36a2.42,2.42,0,0,1,.28,1.74,2.45,2.45,0,0,1-1.2,1.56,2.56,2.56,0,0,0,.58-1.89,2.38,2.38,0,0,0-.42-1.07l-6.92-12.22a2.28,2.28,0,0,0-2.37-.7l-12.82,7.17a2.35,2.35,0,0,0-1,.78A2.53,2.53,0,0,0,114.65,128.53Z"/><path class="cls-3" d="M93.37,137.55a22.18,22.18,0,0,0,4.51,24.55l0.47-.46,1.11-1.07,28.89-28,1.11-1.08,0.26-.24A22.16,22.16,0,0,0,93.37,137.55Z"/><path class="cls-4" d="M93.8,137.51a21.68,21.68,0,0,0,4.55,24.13l1.11-1.07,28.89-28,1.11-1.08A21.66,21.66,0,0,0,93.8,137.51Z"/><path class="cls-5" d="M121.74,127.81a20,20,0,0,1,6.61,4.7l-28.89,28A20.14,20.14,0,0,1,121.74,127.81Z"/><path class="cls-6" d="M96.26,145.51a0.86,0.86,0,0,1-.84-0.87A14.26,14.26,0,0,1,100,134.26a0.85,0.85,0,0,1,1.18,0l11,11.06a0.3,0.3,0,0,1-.22.52Z"/><path class="cls-6" d="M114.2,129.16a0.86,0.86,0,0,1,.87-0.84,14.18,14.18,0,0,1,10.36,4.58,0.85,0.85,0,0,1,0,1.18l-11.06,11a0.3,0.3,0,0,1-.52-0.22Z"/><path class="cls-6" d="M101.83,133.69a0.86,0.86,0,0,1,0-1.21,14.22,14.22,0,0,1,10.57-4.1,0.85,0.85,0,0,1,.81.86l0,15.62a0.3,0.3,0,0,1-.52.21Z"/><path class="cls-6" d="M100.77,157.85a0.86,0.86,0,0,1-1.21,0,14.22,14.22,0,0,1-4.08-10.58,0.85,0.85,0,0,1,.86-0.81l15.6,0a0.3,0.3,0,0,1,.21.52Z"/><path class="cls-5" d="M108.51,148.81c0.69,0.12,1.63-.51,2.4-1.56a0.15,0.15,0,0,0-.09-0.25c-1.28-.28-2.4-0.12-2.83.43A0.79,0.79,0,0,0,108.51,148.81Z"/><path class="cls-5" d="M112.18,141.12c0.55,0.43.72,1.54,0.46,2.83a0.15,0.15,0,0,1-.24.1c-1.07-.76-1.7-1.69-1.59-2.38A0.79,0.79,0,0,1,112.18,141.12Z"/><path class="cls-7" d="M100.59,141.08a21.23,21.23,0,0,0,6.43,2c0.24,0,.29,0,0.09-0.17a20.34,20.34,0,0,0-6-2.79c-0.1,0-1.25-.23-1.38.07S100.49,141,100.59,141.08Z"/><path class="cls-7" d="M98.44,143.57a20,20,0,0,0,5.8.47c0.21,0,.22-0.09,0-0.15a19.86,19.86,0,0,0-5.71-1.17,1.7,1.7,0,0,0-1.1.29A1.8,1.8,0,0,0,98.44,143.57Z"/><path class="cls-7" d="M100.18,137.55a13.9,13.9,0,0,0,4.21,2.42c0.17,0.07.23,0,.12-0.11a12.63,12.63,0,0,0-3.67-2.92,1.65,1.65,0,0,0-1-.17A1,1,0,0,0,100.18,137.55Z"/><path class="cls-7" d="M108,132.8a21.23,21.23,0,0,0,2.55,6.23c0.12,0.22.22,0.2,0.19,0a20.34,20.34,0,0,0-1.67-6.43c0-.09-0.62-1.11-0.93-1S108,132.68,108,132.8Z"/><path class="cls-7" d="M104.88,133.66a20,20,0,0,0,3.32,4.78c0.14,0.16.21,0.12,0.13-.08a19.86,19.86,0,0,0-2.72-5.15,1.7,1.7,0,0,0-.92-0.67A1.8,1.8,0,0,0,104.88,133.66Z"/><path class="cls-7" d="M110.63,131.18a13.9,13.9,0,0,0,.8,4.79c0.05,0.17.13,0.19,0.16,0a12.63,12.63,0,0,0-.08-4.69,1.65,1.65,0,0,0-.53-0.91A1,1,0,0,0,110.63,131.18Z"/><path class="cls-7" d="M100.38,150.77a21.23,21.23,0,0,1,6.47-1.86c0.25,0,.29.05,0.09,0.18a20.34,20.34,0,0,1-6.08,2.67c-0.1,0-1.25.2-1.37-.09S100.28,150.83,100.38,150.77Z"/><path class="cls-7" d="M98.28,148.24a20,20,0,0,1,5.81-.35c0.21,0,.22.09,0,0.15a19.86,19.86,0,0,1-5.73,1.06,1.7,1.7,0,0,1-1.09-.31A1.8,1.8,0,0,1,98.28,148.24Z"/><path class="cls-7" d="M99.89,154.28a13.9,13.9,0,0,1,4.26-2.34c0.17-.07.23,0,0.11,0.11a12.63,12.63,0,0,1-3.73,2.85,1.65,1.65,0,0,1-1,.15A1,1,0,0,1,99.89,154.28Z"/><path class="cls-7" d="M119.61,132.7a21.23,21.23,0,0,1-3.11,6c-0.14.2-.24,0.17-0.19-0.06a20.34,20.34,0,0,1,2.25-6.25c0.06-.08.71-1,1-0.93S119.64,132.59,119.61,132.7Z"/><path class="cls-7" d="M122.66,133.85a20,20,0,0,1-3.75,4.46c-0.15.14-.22,0.1-0.12-0.09a19.86,19.86,0,0,1,3.18-4.88,1.7,1.7,0,0,1,1-.58A1.8,1.8,0,0,1,122.66,133.85Z"/><path class="cls-7" d="M117.16,130.86a13.9,13.9,0,0,1-1.24,4.69c-0.07.17-.15,0.17-0.16,0a12.63,12.63,0,0,1,.5-4.66,1.65,1.65,0,0,1,.61-0.86A1,1,0,0,1,117.16,130.86Z"/><rect class="cls-40" x="115.1" y="164.13" width="20.78" height="19.94" rx="3.56" ry="3.56" transform="translate(76.33 -34.81) rotate(22.54)"/><rect class="cls-45" x="114.83" y="165.49" width="18.92" height="18.15" rx="3.31" ry="3.31" transform="translate(76.42 -34.31) rotate(22.54)"/><path class="cls-42" d="M118.15,164.69a2.24,2.24,0,0,1,3-1.25l13.21,5.48a2.54,2.54,0,0,1,1.37,1.65,2.35,2.35,0,0,1-.12,1.36l-5.19,12.5a2.3,2.3,0,0,1-1.15,1.23,2.33,2.33,0,0,1-1.87,0,2.44,2.44,0,0,0,1.76-.67,2.27,2.27,0,0,0,.56-0.94l5.13-12.36a2.18,2.18,0,0,0-.86-2.19l-12.9-5.43a2.24,2.24,0,0,0-1.2-.32A2.41,2.41,0,0,0,118.15,164.69Z"/><path class="cls-15" d="M134.2,161.25a1.35,1.35,0,0,0-1.31-.21,6.47,6.47,0,0,0,1.82-1.72c0.73-1,1.37-2.51,1.06-2.81-0.11-.11-0.41-0.08-1.15.46a9.62,9.62,0,0,0,.85-2.06c0.08-.3.71-2.55,0.17-2.88-0.14-.09-0.4-0.07-0.94.39,0.83-2.94.9-5.23,0.12-5.65s-1.9.55-2,.65a4.37,4.37,0,0,0-1.24,1.4c0.31-1.59-.07-1.94-0.17-2-0.64-.48-2.2.82-3,1.7a7.57,7.57,0,0,0-1,1.48,1.87,1.87,0,0,0-.52-1.51c-0.68-.44-1.76.49-2.31,1a6.55,6.55,0,0,0-1.54,2c0-1.07-.24-1.3-0.38-1.37-0.66-.35-2,1.38-2.33,1.78a9.66,9.66,0,0,0-1.43,2.52c0-1.27-.28-1.5-0.43-1.54-0.5-.18-1.38,1.2-1.79,2.11A7.48,7.48,0,0,0,116,158a1.41,1.41,0,0,0-1.08-.83c-0.59.17-.79,2-0.57,3.27a5.67,5.67,0,0,0,1.51,3c0.14,0.15.27,0.28,0.39,0.39,0,0.1-.06.23-0.1,0.38a2.81,2.81,0,0,0,0,.75c0.26,2.83,5.13,4.58,5.61,3.84a1,1,0,0,0-.25-0.92,6.86,6.86,0,0,0,3.17.74c1,0,2.44-.3,2.48-0.72a1.29,1.29,0,0,0-.93-0.69A7.88,7.88,0,0,0,128,167c1.11-.28,2.86-1,2.83-1.63a1,1,0,0,0-.83-0.68,5.82,5.82,0,0,0,2.81-1.32C133.42,162.81,134.43,161.74,134.2,161.25Z"/><path class="cls-46" d="M118.67,165.18a8,8,0,0,0,5.21,1.8c4.53-.23,7.25-4.92,8-6.3a17,17,0,0,0,2.18-8.63c-0.68,1.75-4.43,11-12.08,12.82A11.55,11.55,0,0,1,118.67,165.18Z"/><path class="cls-47" d="M116.92,163.26a8.92,8.92,0,0,0,2.86.28c7.61-.5,12.29-10.87,12.86-12.16-1.86.34-13.54,2.62-15.46,10.18A8.71,8.71,0,0,0,116.92,163.26Z"/><path class="cls-18" d="M132.52,159a0.07,0.07,0,0,0-.07-0.11,7.05,7.05,0,0,1-2.77,1.25,6.51,6.51,0,0,1-1.34.13,0.07,0.07,0,0,1,0-.12,20.74,20.74,0,0,0,3.29-4.07,22.65,22.65,0,0,0,3-8.12,0.06,0.06,0,1,0-.12,0,30.79,30.79,0,0,1-2.31,5.67,29.61,29.61,0,0,1-2.93,4.5,0.06,0.06,0,0,1-.11-0.07,15.57,15.57,0,0,0,.86-5.58,0.06,0.06,0,1,0-.12,0,19.2,19.2,0,0,1-.34,2.31,12.37,12.37,0,0,1-2.11,5.3,9,9,0,0,1-3.46,2.71,0.07,0.07,0,0,1-.08-0.1,11.47,11.47,0,0,0,1.23-2.78,11.64,11.64,0,0,0,.44-3.76,0.06,0.06,0,1,0-.12,0,17.63,17.63,0,0,1-.85,3.87,17.39,17.39,0,0,1-1.34,3l0,0a10.15,10.15,0,0,1-1.74.73,9.1,9.1,0,0,1-1.39.31A0.06,0.06,0,0,1,120,164a7,7,0,0,0,.8-1.54,7.15,7.15,0,0,0,.43-2.67,0.06,0.06,0,1,0-.12,0,10.22,10.22,0,0,1-.73,2.66,10,10,0,0,1-.92,1.67,0.06,0.06,0,0,1,0,0,7.33,7.33,0,0,1-3.59-.67l-0.06,0c0.14,0.15.27,0.28,0.39,0.39,0,0.1-.06.23-0.1,0.38a7.71,7.71,0,0,0,4.14.47,0,0,0,0,1,0,0,4.78,4.78,0,0,0,1.09.85,4.64,4.64,0,0,0,2.83.57,5.52,5.52,0,0,1-2.23-.65,5.64,5.64,0,0,1-1.12-.8,0.07,0.07,0,0,1,0-.12c0.35-.08.73-0.19,1.12-0.32a13.74,13.74,0,0,0,1.54-.63h0a6.68,6.68,0,0,0,2.9.35,6.94,6.94,0,0,0,2.28-.63c0.07,0,0-.15,0-0.13a8.12,8.12,0,0,1-4.27.12,0.07,0.07,0,0,1,0-.12,10.29,10.29,0,0,0,1.44-.87,10.5,10.5,0,0,0,1.56-1.35h0a6.59,6.59,0,0,0,3.05-.58A7.13,7.13,0,0,0,132.52,159Z"/><ellipse class="cls-48" cx="132.23" cy="211.92" rx="1.92" ry="1.87" transform="translate(-111.78 265.38) rotate(-70.4)"/><path class="cls-25" d="M114.54,179.39a4.93,4.93,0,0,1-1.86,2.19,4.49,4.49,0,0,1-.41.25c0,0.09,0,.21,0,0.34a3.19,3.19,0,0,1-.13.66c-0.83,2.35-5.18,2.78-5.41,2a0.89,0.89,0,0,1,.4-0.73,5.48,5.48,0,0,1-2.74-.07,6.49,6.49,0,0,1-1.23-.51l-0.06-1,0.33-.06-0.34-.1-0.06-1-0.12-2.23,0-.29-0.13-2.3h0l0-.59-0.06-.93-0.08-1.67-0.1-1.73L102.28,168l-0.21-4,0.23,0.26a4,4,0,0,1,.7,1.47c0.09-1.42.48-1.64,0.58-1.68,0.63-.26,1.62,1.18,2.07,2.1a6.87,6.87,0,0,1,.52,1.49,1.69,1.69,0,0,1,.76-1.18c0.64-.21,1.33.81,1.67,1.33a5.68,5.68,0,0,1,.83,2c0.21-.92.48-1.06,0.61-1.08,0.62-.16,1.35,1.63,1.52,2a9.23,9.23,0,0,1,.61,2.47c0.29-1.08.55-1.22,0.68-1.23,0.45,0,.86,1.33,1,2.2a7,7,0,0,1-.14,2.84,1.16,1.16,0,0,1,1.06-.47C115.22,176.76,115,178.32,114.54,179.39Z"/><path class="cls-49" d="M102.91,179.2l0.12,2.23a5.71,5.71,0,0,0,2.3,1.43,6.49,6.49,0,0,0,4.63-.39,8.55,8.55,0,0,1-1.69-.53h0l-0.44-.19-0.54-.28a9.79,9.79,0,0,1-2-1.47c-0.17-.16-0.33-0.33-0.49-0.5a13.45,13.45,0,0,1-2-2.9l0.13,2.3Z"/><path class="cls-50" d="M112,179.7a7.87,7.87,0,0,1-.16,1.51,7.32,7.32,0,0,1-2.39-.39l-0.06,0-0.38-.15a7.77,7.77,0,0,1-2.38-1.59,6.28,6.28,0,0,1-.5-0.5,15.15,15.15,0,0,1-2.67-4.35c-0.19-.41-0.35-0.82-0.5-1.23s-0.3-.89-0.43-1.31L102.28,168C104.86,169.33,112,173.58,112,179.7Z"/><path class="cls-18" d="M116,179.85v0.46a0.07,0.07,0,0,1,0,0,7.08,7.08,0,0,1-3.63,1.79h-0.09a6.24,6.24,0,0,1-3.47-.5h0a3.21,3.21,0,0,1-.48.26h0a3,3,0,0,1-.58.23,3.75,3.75,0,0,1-2.43-.14,4.55,4.55,0,0,0,2-.07,3.67,3.67,0,0,0,.62-0.21,3.8,3.8,0,0,0,.48-0.22,0.06,0.06,0,0,0,0-.1,8.66,8.66,0,0,1-.84-0.52,10.92,10.92,0,0,1-1.12-.87l0,0a5.69,5.69,0,0,1-2.43-.34,6.16,6.16,0,0,1-1-.48l0-.29a7,7,0,0,0,1.16.44c0.27,0.07.52,0.12,0.76,0.16a7.51,7.51,0,0,0,.85.07,0.07,0.07,0,0,0,0-.11,9.12,9.12,0,0,1-1-1,9.57,9.57,0,0,1-1-1.5l0,0a6.3,6.3,0,0,1-.94-0.29h0l0-.59,0.42,0.13a0.05,0.05,0,0,0,.06-0.08q-0.27-.45-0.53-1l-0.08-1.67c0.08,0.24.18,0.47,0.27,0.69,0,0.06.1,0,.09,0,0-.33,0-0.68,0-1.07a14.42,14.42,0,0,1,.14-1.91,12.56,12.56,0,0,1,.41-2,0,0,0,1,1,.09,0,18,18,0,0,0-.21,2,15.35,15.35,0,0,0,.07,3,8.25,8.25,0,0,0,.5,2,7.76,7.76,0,0,0,2.24,3.06s0.09,0,.08-0.07-0.1-.38-0.16-0.6a11,11,0,0,1-.24-2,10.78,10.78,0,0,1,.46-3.31,0.05,0.05,0,1,1,.1,0,16.27,16.27,0,0,0-.15,3.49,14,14,0,0,0,.34,2.33c0,0.18.07,0.36,0.11,0.51l0,0a7.82,7.82,0,0,0,1.25,1,8.84,8.84,0,0,0,1.07.58s0.08,0,.07-0.08a4.53,4.53,0,0,1-.13-0.46,5.68,5.68,0,0,1-.19-1,6.83,6.83,0,0,1,.22-2.37c0-.07.11-0.06,0.1,0a9.64,9.64,0,0,0,0,2.43,8,8,0,0,0,.22,1.09c0.06,0.2.11,0.37,0.17,0.54a0,0,0,0,0,0,0,5.86,5.86,0,0,0,3.06.21l0.07,0a6.77,6.77,0,0,0,3.24-1.76A0,0,0,0,1,116,179.85Z"/><path class="cls-51" d="M103.62,179.2l0-.29m0.2,3.52v0.16l0.06,1"/><path class="cls-42" d="M104.5,100.24l-0.2-.14h0a2.59,2.59,0,0,0-1.79-.4,2.48,2.48,0,0,0-1.11.49l-2.77,1.7-0.06-1h0L101,99.39a2.57,2.57,0,0,1,1.82-.36,2.52,2.52,0,0,1,1.63,1.11Z"/><path class="cls-52" d="M143.49,103l-4,62.16-5.07,79.08a10.71,10.71,0,0,1-4.17,7.88,28.84,28.84,0,0,1-12.44,5.48,26.4,26.4,0,0,1-5,.39,27.85,27.85,0,0,1-15.88-5.38,11.77,11.77,0,0,1-4.81-8.9L84,103c9.39-.74,19.53-1.19,30.34-1.17,7.17,0,14,.21,20.59.59q4.26,0.24,8.33.56Z"/><path class="cls-53" d="M143.14,103.12l-3.73,62.18-4.72,78.49a12.93,12.93,0,0,1-1.93,5.75c-1.76,2.74-4.07,4-6.44,5.31a27,27,0,0,1-8.59,2.89c-0.42.07-.85,0.13-1.3,0.18a23.19,23.19,0,0,0,10.14-10.44,22.3,22.3,0,0,0,2.1-8.63q3.07-68.14,6.13-136.28Q139.07,102.8,143.14,103.12Z"/><path class="cls-15" d="M156.83,96.62c-0.41.26-1.14-.26-1.64-0.7a8.7,8.7,0,0,1,.86,3.26c0.11,1.68-.22,3.84-0.78,4-0.21,0-.52-0.2-1-1.35a12.85,12.85,0,0,1-.5,2.94c-0.12.4-1,3.41-1.86,3.39-0.22,0-.5-0.21-0.79-1.11-1.14,3.93-2.7,6.59-3.89,6.5-1-.07-1.78-2-1.87-2.2a5.87,5.87,0,0,1-.42-2.48c-0.78,2-1.46,2.15-1.64,2.17-1.07.08-1.93-2.51-2.21-4.07a10.15,10.15,0,0,1-.13-2.43,2.49,2.49,0,0,1-1.67,1.34c-1.08,0-1.66-1.82-2-2.75a8.8,8.8,0,0,1-.36-3.32c-0.73,1.23-1.21,1.31-1.41,1.29-1-.07-1.34-3-1.4-3.69a12.93,12.93,0,0,1,.17-3.89c-0.93,1.43-1.38,1.5-1.59,1.45-0.7-.16-0.72-2.35-0.54-3.68a10,10,0,0,1,1.49-4.06c-0.64.27-1.49,0.54-1.82,0.17-0.55-.62.49-2.78,1.67-4.12A7.59,7.59,0,0,1,137.36,81c0.27-.07.51-0.12,0.73-0.16,0-.14.09-0.31,0.16-0.5a3.74,3.74,0,0,1,.5-0.88c2.32-3,9.13-1.51,9.16-.34A1.36,1.36,0,0,1,147,80a9.31,9.31,0,0,1,4.15,1.44c1.14,0.76,2.58,2.09,2.32,2.6-0.16.31-.89,0.23-1.55,0.11a10.7,10.7,0,0,1,2,1.61c1.07,1.11,2.57,3.17,2.07,3.88-0.14.2-.49,0.37-1.44,0.18a7.88,7.88,0,0,1,2.27,3.51C157.07,94.29,157.45,96.23,156.83,96.62Z"/><path class="cls-54" d="M141.89,81a10.8,10.8,0,0,1,7.24,1.69c5,3.51,4.78,10.79,4.71,12.92A22.7,22.7,0,0,1,150.18,107c0.47-2.47,2.77-15.64-4.66-23.23A15.68,15.68,0,0,0,141.89,81Z"/><path class="cls-55" d="M138.52,81.94A12.12,12.12,0,0,1,142,83.67c8.34,6,6.3,21.17,6,23C146.13,105,134.41,94,137.6,84.05A11.6,11.6,0,0,1,138.52,81.94Z"/><path class="cls-18" d="M153.31,98a0.09,0.09,0,0,1-.16.07,9.55,9.55,0,0,0-2.28-3.41,8.84,8.84,0,0,0-1.44-1.1,0.09,0.09,0,0,0-.13.1,27.85,27.85,0,0,1,.86,7,30.25,30.25,0,0,1-2.32,11.4,0.08,0.08,0,1,1-.15-0.06,41.14,41.14,0,0,0,1.4-8.09,39.67,39.67,0,0,0-.14-7.21,0.08,0.08,0,0,0-.17,0,20.76,20.76,0,0,1-3,7,0.08,0.08,0,0,1-.14-0.08,25.59,25.59,0,0,0,1.25-2.87,16.53,16.53,0,0,0,1.36-7.54,12.06,12.06,0,0,0-2-5.56,0.09,0.09,0,0,0-.16.06,15.33,15.33,0,0,1-.58,4,15.51,15.51,0,0,1-2.18,4.58,0.08,0.08,0,1,1-.14-0.08,23.51,23.51,0,0,0,1.78-5,23.25,23.25,0,0,0,.6-4.34s0,0,0,0a13.74,13.74,0,0,0-1.47-2.08,12.34,12.34,0,0,0-1.36-1.35,0.08,0.08,0,0,0-.13.07,9.32,9.32,0,0,1-.19,2.32A9.54,9.54,0,0,1,141,89a0.08,0.08,0,1,1-.14-0.08,13.64,13.64,0,0,0,1.07-3.54,13.36,13.36,0,0,0,.14-2.56,0.08,0.08,0,0,0,0-.07A10,10,0,0,0,137.46,81h-0.09c0.27-.07.51-0.12,0.73-0.16,0-.14.09-0.31,0.16-0.5a10.47,10.47,0,0,1,5.06,2.43,0.06,0.06,0,0,0,.07,0,6.45,6.45,0,0,1,1.85-.19A6.3,6.3,0,0,1,148.87,84a7.48,7.48,0,0,0-3-.86,7.6,7.6,0,0,0-1.85.1,0.09,0.09,0,0,0-.06.15c0.35,0.35.7,0.74,1.06,1.17a18.61,18.61,0,0,1,1.32,1.82l0,0a9.06,9.06,0,0,1,3.56,1.68,9.41,9.41,0,0,1,2.16,2.35c0.06,0.09-.07.2-0.13,0.12a11,11,0,0,0-4.79-3.2,0.09,0.09,0,0,0-.1.13,13.91,13.91,0,0,1,1,2,14.15,14.15,0,0,1,.81,2.65,0.06,0.06,0,0,0,0,0A9,9,0,0,1,152,95,9.62,9.62,0,0,1,153.31,98Z"/><rect class="cls-56" x="94.44" y="183.99" width="21.62" height="20.74" rx="3.56" ry="3.56" transform="translate(82.55 -25.5) rotate(22.54)"/><rect class="cls-57" x="94.16" y="185.41" width="19.68" height="18.88" rx="3.31" ry="3.31" transform="translate(82.64 -24.98) rotate(22.54)"/><path class="cls-58" d="M97.61,184.57a2.33,2.33,0,0,1,3.14-1.3l13.74,5.7a2.64,2.64,0,0,1,1.42,1.72,2.45,2.45,0,0,1-.12,1.42l-5.4,13a2.4,2.4,0,0,1-1.19,1.28,2.43,2.43,0,0,1-1.95,0,2.54,2.54,0,0,0,1.83-.7,2.36,2.36,0,0,0,.58-1L115,191.89a2.26,2.26,0,0,0-.9-2.28L100.68,184a2.33,2.33,0,0,0-1.25-.34A2.51,2.51,0,0,0,97.61,184.57Z"/><path class="cls-40" d="M91.18,115.32l0.08,1.56L91.5,121l-6.36-10.34a3.33,3.33,0,0,1,1.08-4.58l4.31-2.64,0.13,2.33,0,1Z"/><path class="cls-59" d="M91.18,115.32l0.08,1.56-3.5-5.7a3.09,3.09,0,0,1,1-4.25l1.88-1.16,0,1Z"/><path class="cls-60" d="M111.45,117.43l-0.19.11h0l-11.38,7-1.25-22.67-0.06-1,2-1.21a3.09,3.09,0,0,1,3.77.4h0a3.47,3.47,0,0,1,.49.61L112.34,113l0.12,0.2A3.09,3.09,0,0,1,111.45,117.43Z"/><path class="cls-42" d="M91.18,115.32l0.08,1.56-3.5-5.7-0.29-.47a2.8,2.8,0,0,1-.15-2.35,2.52,2.52,0,0,1,1-1.14l0.48-.29,1.88-1.16,0,1-1.87,1.15a2.49,2.49,0,0,0-.68,1.16,2.31,2.31,0,0,0,0,1.35Z"/><ellipse class="cls-61" cx="136.79" cy="117.81" rx="2.29" ry="2.23" transform="translate(-20.09 207.14) rotate(-70.4)"/><ellipse class="cls-62" cx="135.47" cy="142.4" rx="3.31" ry="3.23" transform="translate(-44.13 222.24) rotate(-70.4)"/><ellipse class="cls-63" cx="130.45" cy="129.81" rx="3.74" ry="3.64" transform="translate(-35.61 209.15) rotate(-70.4)"/><ellipse class="cls-64" cx="134.25" cy="109.37" rx="1.76" ry="1.71" transform="translate(-13.82 199.14) rotate(-70.4)"/></svg>