<svg id="Layer_1" data-name="Layer 1" xmlns="http://www.w3.org/2000/svg" xmlns:xlink="http://www.w3.org/1999/xlink" viewBox="0 0 230.86 332.94"><defs><style>.cls-1{fill:#d39e86;}.cls-2{fill:#fee2ca;}.cls-3{opacity:0.85;fill:url(#linear-gradient);}.cls-4{fill:#f4d4bd;}.cls-5{fill:url(#linear-gradient-2);}.cls-6{opacity:0.95;}.cls-23,.cls-6{fill:url(#linear-gradient-3);}.cls-7{fill:#e49025;}.cls-8{fill:#f5a31e;}.cls-9{fill:#f8dfc0;}.cls-10{fill:#f8b355;}.cls-11{fill:#faf5ae;}.cls-12{fill:#f8c184;}.cls-13,.cls-15,.cls-16,.cls-22{fill:#fff;}.cls-13{opacity:0.46;}.cls-14{opacity:0.73;fill:url(#linear-gradient-4);}.cls-15{opacity:0.75;}.cls-16{opacity:0.5;}.cls-17{fill:url(#linear-gradient-5);}.cls-18{fill:#db2e2a;opacity:0.94;}.cls-19{fill:#f4b5b5;opacity:0.19;}.cls-20{fill:url(#linear-gradient-6);}.cls-21{opacity:0.66;fill:url(#linear-gradient-8);}.cls-22{opacity:0.61;}.cls-23{opacity:0.64;}.cls-24{fill:#ae6131;}.cls-25{opacity:0.55;fill:url(#linear-gradient-10);}.cls-26,.cls-27{fill:#fff2ea;}.cls-26{opacity:0.38;}.cls-27{opacity:0.33;}</style><linearGradient id="linear-gradient" x1="76.5" y1="146.33" x2="141.88" y2="146.33" gradientUnits="userSpaceOnUse"><stop offset="0.95" stop-color="#f29e20"/><stop offset="1" stop-color="#faa31c"/></linearGradient><linearGradient id="linear-gradient-2" x1="116.13" y1="218.4" x2="116.13" y2="212.4" gradientUnits="userSpaceOnUse"><stop offset="0.13" stop-color="#f4d4bd"/><stop offset="0.75" stop-color="#f7e2d4"/></linearGradient><linearGradient id="linear-gradient-3" x1="115.98" y1="201.36" x2="115.98" y2="141.91" gradientUnits="userSpaceOnUse"><stop offset="0" stop-color="#aa6132"/><stop offset="0.48" stop-color="#df5926"/><stop offset="0.7" stop-color="#e56f25"/><stop offset="1" stop-color="#faa31c"/></linearGradient><linearGradient id="linear-gradient-4" x1="60.1" y1="110.97" x2="85.62" y2="110.97" gradientTransform="translate(66.4 35.43) rotate(9.35)" gradientUnits="userSpaceOnUse"><stop offset="0" stop-color="#ffe6c6"/><stop offset="0.97" stop-color="#fff"/></linearGradient><linearGradient id="linear-gradient-5" x1="-301.6" y1="208.6" x2="-301.6" y2="226.67" gradientTransform="matrix(-0.97, -0.25, -0.25, 0.97, -96.5, -139.03)" gradientUnits="userSpaceOnUse"><stop offset="0.38" stop-color="#ee3624"/><stop offset="1" stop-color="#a82723"/></linearGradient><linearGradient id="linear-gradient-6" x1="-278.53" y1="140.91" x2="-278.53" y2="120.01" gradientTransform="matrix(-1, 0, 0, 1, -127.4, 0)" gradientUnits="userSpaceOnUse"><stop offset="0.06" stop-color="#c76960"/><stop offset="0.79" stop-color="#ee3624"/><stop offset="0.94" stop-color="#a82723"/><stop offset="1" stop-color="#6f2012"/></linearGradient><linearGradient id="linear-gradient-8" x1="-21.44" y1="-180.49" x2="-5.47" y2="-195.25" gradientTransform="matrix(0.76, 0.66, -0.66, 0.76, -21.09, 303.85)" gradientUnits="userSpaceOnUse"><stop offset="0" stop-color="#dbdebc"/><stop offset="0.97" stop-color="#fff"/></linearGradient><linearGradient id="linear-gradient-10" x1="102.32" y1="188.19" x2="151.75" y2="188.19" gradientUnits="userSpaceOnUse"><stop offset="0.01" stop-color="#d76135"/><stop offset="0.09" stop-color="#d76236"/></linearGradient></defs><title>icons</title><ellipse class="cls-1" cx="116.1" cy="219.87" rx="50.95" ry="10.37"/><path class="cls-2" d="M162.19,109.63a3,3,0,0,1,2.92,3.29q-5.22,51.77-10.45,103.54a3.44,3.44,0,0,1-3,3.1,317.66,317.66,0,0,1-36.66,2,317.23,317.23,0,0,1-35.24-2.07,2.89,2.89,0,0,1-2.54-2.6l-9.79-104a3,3,0,0,1,2.92-3.27h91.89Z"/><path class="cls-3" d="M76.5,146.59c7.25-6.35,13.4-7.9,17.68-8.14,11.06-.63,16.43,7.4,29.6,8.53a39.08,39.08,0,0,0,18.1-3,55.2,55.2,0,0,1-5.48,4.26,59.36,59.36,0,0,1-8.18,4.6c-9.78,4.24-26.18-2.27-33.84-5.3a25.88,25.88,0,0,0-13.13-2.09A22.41,22.41,0,0,0,76.5,146.59Z"/><path class="cls-4" d="M150,203.55c-0.38,3.89-.77,7.78-1.16,11.65a2,2,0,0,1-.31.89,2.11,2.11,0,0,1-1.63,1c-9.91.87-20.75,1.38-32.38,1.33-10.44,0-20.22-.54-29.25-1.32a2.24,2.24,0,0,1-1.63-.91,2.08,2.08,0,0,1-.4-1L82,203.55c9.79,0.91,20.46,1.52,31.92,1.59C127,205.21,139.07,204.58,150,203.55Z"/><path class="cls-5" d="M148.58,216.09a2.11,2.11,0,0,1-1.63,1c-9.91.87-20.75,1.38-32.38,1.33-10.44,0-20.22-.54-29.25-1.32a2.24,2.24,0,0,1-1.63-.91c2.55-2.13,16.13-3.76,32.5-3.76C132.36,212.4,145.8,214,148.58,216.09Z"/><path class="cls-6" d="M81.73,197.21a2.74,2.74,0,0,0,2.43,2.45A299.73,299.73,0,0,0,117,201.36a299.72,299.72,0,0,0,30.65-1.68,2.92,2.92,0,0,0,2.59-2.62l5.17-50.48a11.06,11.06,0,0,0-5.11-4.18c-8.59-3.17-14.14,9.72-26.92,11.54-13,1.85-29.77-8.22-37.66-8.91a20,20,0,0,0-8.06,1c-0.52.2-.94,0.39-1.22,0.53Z"/><path class="cls-7" d="M94.82,125.95A32.08,32.08,0,0,0,78.9,157.58l0.95-.12,2.73-.36,56.36-7.4,3-.39,0.49-.07a31.45,31.45,0,0,0-3.9-11.46A32,32,0,0,0,94.82,125.95Z"/><path class="cls-8" d="M138.09,137.83A31.1,31.1,0,0,1,142,149.31l-3,.39-56.36,7.4-2.73.36A31.34,31.34,0,0,1,138.09,137.83Z"/><path class="cls-9" d="M134.46,138l0.08,0.29s0,0.09,0,.12a2.47,2.47,0,0,1,.1.28c0,0.08,0,.14,0,0.21a0.88,0.88,0,0,1,.12.28,0.56,0.56,0,0,0,0,.38l1.31,2.29a2.1,2.1,0,0,0,.39.63,1,1,0,0,1,.34.22,2.35,2.35,0,0,1,.15.26l0.18,0.31c0.09,0.19,0,.12,0,0.3a1.5,1.5,0,0,0,.12.71,3.81,3.81,0,0,0,.34.78,4.19,4.19,0,0,1,.52,1.31,3.33,3.33,0,0,1,.24,1.13,0.6,0.6,0,0,0,0,.37c0,0.12,0,.23.09,0.35a2.36,2.36,0,0,1,.14.26c0,0.09,0,.15.05,0.27a1.61,1.61,0,0,1,.16.3,2,2,0,0,1,0,.24,2,2,0,0,0,.14.46l-56.36,7.4c0-.1,0-0.2,0-0.3,0-.25,0-0.48,0-0.71s0-.37,0-0.55,0-.18,0-0.26-0.11-.32-0.12-0.45a5.63,5.63,0,0,1,.19-0.86,3.87,3.87,0,0,1,.22-0.68,0.73,0.73,0,0,0-.09-0.58,2.86,2.86,0,0,1,0-.48c0-.21-0.12-0.4-0.15-0.61a5.7,5.7,0,0,1-.06-1,3.2,3.2,0,0,1,0-.72s0-.27.06-0.29a1.88,1.88,0,0,1,.3-0.21l-0.05-.17,0.22-.16a4.93,4.93,0,0,1-.28-0.71,4.79,4.79,0,0,1-.08-0.79c0-.06.08-0.13,0.08-0.17a1.71,1.71,0,0,0-.05-0.24,1.31,1.31,0,0,1,.18-0.8c0.15-.26.38-0.46,0.53-0.7a2.18,2.18,0,0,1-.19-0.58c0-.17,0-0.34-0.07-0.52a3.56,3.56,0,0,1,.08-1,3.43,3.43,0,0,1,.65-1.32,1.9,1.9,0,0,0,.4-0.44,3.48,3.48,0,0,1,.18-0.38,0.74,0.74,0,0,0,.16-0.16,0.71,0.71,0,0,1,.2-0.37,1.85,1.85,0,0,0,.36-0.43,2.17,2.17,0,0,0,.19-0.69,3.36,3.36,0,0,1,.25-0.68,4.43,4.43,0,0,1,.36-0.67,2.13,2.13,0,0,1,.81-0.61,2.93,2.93,0,0,0,.81-0.55,4.56,4.56,0,0,0,.47-0.61,1.54,1.54,0,0,0,.21-0.37c0-.06-0.05-0.14,0-0.19a0.32,0.32,0,0,1,.15-0.1,4.89,4.89,0,0,1,.52-0.51,3.32,3.32,0,0,0,.56-0.46,5.23,5.23,0,0,1,.46-0.4,3.65,3.65,0,0,0,.57-1,3,3,0,0,1,.84-0.55,2.34,2.34,0,0,0,.29-0.51,7.35,7.35,0,0,0,.3-0.71,0.39,0.39,0,0,1,.22-0.3c0.24-.14.25-0.07,0.45,0.07a0.82,0.82,0,0,0,1-.18,3,3,0,0,0,.81-0.58,4.59,4.59,0,0,1,.34-0.39c0.21-.22,1.33-1.87,1.75-1.38l2.22-1.27a3.45,3.45,0,0,1,.7-0.39,1.55,1.55,0,0,1,.54.06,1.84,1.84,0,0,0,.55,0,6.53,6.53,0,0,0,1.37-.33,2.37,2.37,0,0,0,.58-0.2c0.23-.14.47-0.27,0.7-0.4a2.69,2.69,0,0,1,1.23-.48,2.3,2.3,0,0,1,.55,0,7.5,7.5,0,0,1,.87,0,1.14,1.14,0,0,0,.56,0h0.23a0.71,0.71,0,0,0,.14,0,0.64,0.64,0,0,0,.17-0.12,2,2,0,0,0,.26,0,4.34,4.34,0,0,0,.5-0.27,1.12,1.12,0,0,1,.3,0c0.13,0,.23-0.19.36-0.22a2,2,0,0,1,.31,0H109s0.09,0,.11-0.05,0.16,0.05.23,0.05,0.47-.16.65,0.12a0.74,0.74,0,0,1,.58,0,3.57,3.57,0,0,1,.66.14,1.56,1.56,0,0,0,1.08.06,4.54,4.54,0,0,0,1.16-.29,1.71,1.71,0,0,1,1.07-.16,0.61,0.61,0,0,1,.34.24l0.2,0.11a0.2,0.2,0,0,1,.21,0,0.24,0.24,0,0,0,0,.09,5.44,5.44,0,0,0,.81.26c0.27,0.07.55,0.12,0.81,0.21a1.67,1.67,0,0,0,1.09.05,0.34,0.34,0,0,0,.11.12c0.11-.05.19,0,0.29,0s0.14-.12.31-0.07a1.22,1.22,0,0,1,.43.56,2.34,2.34,0,0,0,1,.51,4.61,4.61,0,0,0,1.15.31,1.44,1.44,0,0,1,.4-0.06c0.09,0,.17.07,0.26,0.08a1,1,0,0,0,.33-0.09,0.71,0.71,0,0,1,.83.26,3.06,3.06,0,0,1,.52.28,1.74,1.74,0,0,0,.16.19l0.2,0.05c0.08,0,.14.13,0.22,0.16s0.19,0,.31.09a1.26,1.26,0,0,1,.34.45,1.38,1.38,0,0,0,.51.27,3.08,3.08,0,0,1,.66.12,2.2,2.2,0,0,1,.45.39c0.08,0.08.09,0.21,0.17,0.31a1,1,0,0,0,.18.12c0.2,0.15.4,0.28,0.6,0.45a0.72,0.72,0,0,0,.38.24,1.81,1.81,0,0,1,.52.11,6,6,0,0,1,.74.5,3.48,3.48,0,0,1,.58.32,4.78,4.78,0,0,1,.35.63,2.71,2.71,0,0,0,.87.95,1.3,1.3,0,0,1,.4.26,4,4,0,0,1,.41.52l0.67,1.17a2.77,2.77,0,0,0,.33.55,2.88,2.88,0,0,1,.23.22s0,0.11.06,0.13a0.55,0.55,0,0,0,.21,0,2.11,2.11,0,0,1,.95,1A2.31,2.31,0,0,1,134.46,138Z"/><path class="cls-10" d="M91.35,137.68a1.24,1.24,0,0,1-.23-1.73,20.59,20.59,0,0,1,14.24-8.13,1.23,1.23,0,0,1,1.34,1L110,151.16a0.44,0.44,0,0,1-.7.41Z"/><path class="cls-10" d="M126.22,134.06a1.24,1.24,0,0,1,1.73-.23A20.49,20.49,0,0,1,136.06,148a1.23,1.23,0,0,1-1.05,1.34l-22.31,3.34a0.44,0.44,0,0,1-.41-0.7Z"/><path class="cls-10" d="M108,128.73a1.24,1.24,0,0,1,1.06-1.38,20.54,20.54,0,0,1,15.8,4.3,1.23,1.23,0,0,1,.2,1.69L111.6,151.46a0.44,0.44,0,0,1-.79-0.2Z"/><path class="cls-10" d="M86,155.9a1.24,1.24,0,0,1-1.38-1.06A20.54,20.54,0,0,1,89,139a1.23,1.23,0,0,1,1.69-.21l18.12,13.4a0.44,0.44,0,0,1-.21.79Z"/><path class="cls-11" d="M102.77,152c0.7,0.73,2.33.8,4.13,0.24a0.22,0.22,0,0,0,.1-0.37c-1.25-1.42-2.69-2.19-3.66-1.93A1.14,1.14,0,0,0,102.77,152Z"/><path class="cls-9" d="M113.62,146.24c0.27,1-.49,2.41-1.88,3.68a0.22,0.22,0,0,1-.37-0.1c-0.59-1.8-.53-3.43.19-4.13A1.14,1.14,0,0,1,113.62,146.24Z"/><path class="cls-12" d="M100.18,136.24c0.77,1.91,3.06,5,5.77,7.83,0.25,0.26.38,0.2,0.25-.13a29.38,29.38,0,0,0-4.61-8.41c-0.1-.11-1.25-1.33-1.66-1.1S100.12,136.09,100.18,136.24Z"/><path class="cls-12" d="M95.55,137.29a28.82,28.82,0,0,0,6.34,5.52c0.25,0.17.33,0.09,0.16-.16a28.69,28.69,0,0,0-5.63-6.26c-0.1-.07-1.28-0.89-1.52-0.61S95.46,137.17,95.55,137.29Z"/><path class="cls-12" d="M102.73,131.79a20.08,20.08,0,0,0,2.82,6.42c0.14,0.23.25,0.21,0.23,0a18.24,18.24,0,0,0-1.76-6.54c-0.05-.09-0.69-1.15-1.07-1.09S102.71,131.68,102.73,131.79Z"/><path class="cls-12" d="M115.92,133c-1,1.81-1.91,5.53-2.38,9.43,0,0.36.09,0.41,0.26,0.11a29.38,29.38,0,0,0,3.57-8.9c0-.14.23-1.81-0.2-2S116,132.84,115.92,133Z"/><path class="cls-12" d="M111.53,131.3a28.82,28.82,0,0,0-.24,8.41c0,0.3.14,0.31,0.22,0a28.69,28.69,0,0,0,1.26-8.32c0-.12-0.13-1.55-0.5-1.56S111.57,131.16,111.53,131.3Z"/><path class="cls-12" d="M120.34,133.35a20.08,20.08,0,0,0-3.17,6.25c-0.09.25,0,.33,0.17,0.16a18.24,18.24,0,0,0,3.93-5.52c0-.1.45-1.27,0.17-1.52S120.42,133.27,120.34,133.35Z"/><path class="cls-12" d="M91.63,147.32c2,0.21,5.64,1.56,9.12,3.38,0.32,0.17.29,0.31-.05,0.28a29.38,29.38,0,0,1-9.36-2.11c-0.13-.07-1.63-0.84-1.52-1.29S91.46,147.31,91.63,147.32Z"/><path class="cls-12" d="M91.36,142.58a28.82,28.82,0,0,1,7.06,4.57c0.23,0.2.18,0.29-.11,0.19a28.69,28.69,0,0,1-7.57-3.68c-0.1-.08-1.21-1-1-1.3S91.22,142.53,91.36,142.58Z"/><path class="cls-12" d="M88.05,151a20.08,20.08,0,0,1,6.95.93c0.26,0.07.27,0.19,0,.23a18.24,18.24,0,0,1-6.78.11c-0.1,0-1.3-.35-1.35-0.72S87.94,151,88.05,151Z"/><path class="cls-12" d="M129.48,142.82c-1.57,1.34-5,3-8.73,4.28-0.34.12-.42,0-0.17-0.23a29.38,29.38,0,0,1,8-5.34c0.14,0,1.73-.6,2-0.21S129.6,142.71,129.48,142.82Z"/><path class="cls-12" d="M132,146.77a28.82,28.82,0,0,1-8.18,2c-0.3,0-.34-0.07-0.06-0.21a28.69,28.69,0,0,1,7.88-3c0.12,0,1.55-.19,1.63.16S132.17,146.7,132,146.77Z"/><path class="cls-12" d="M128.21,138.57a20.08,20.08,0,0,1-5.46,4.4c-0.23.14-.32,0.07-0.19-0.13a18.24,18.24,0,0,1,4.58-5c0.09-.06,1.15-0.7,1.45-0.48S128.27,138.48,128.21,138.57Z"/><path class="cls-13" d="M117.69,169.57l-9.2-12a3.73,3.73,0,0,1,.67-5.22l11.22-8.68a3.7,3.7,0,0,1,5.2.67l9.2,12a3.73,3.73,0,0,1-.67,5.22l-11.22,8.68A3.7,3.7,0,0,1,117.69,169.57Z"/><path class="cls-14" d="M116.61,168.18l-8.28-10.79a3.47,3.47,0,0,1,.63-4.86l10.09-7.81a3.44,3.44,0,0,1,4.84.63l8.28,10.79a3.47,3.47,0,0,1-.63,4.86l-10.09,7.81A3.44,3.44,0,0,1,116.61,168.18Z"/><path class="cls-15" d="M119.81,144.14a2.42,2.42,0,0,1,3.5.45l9.44,12.3a2.76,2.76,0,0,1,.39,2.3,2.55,2.55,0,0,1-.85,1.22l-11.6,9a2.49,2.49,0,0,1-1.74.54,2.52,2.52,0,0,1-1.76-1,2.63,2.63,0,0,0,2,.32,2.45,2.45,0,0,0,1-.58l11.47-8.87a2.37,2.37,0,0,0,.37-2.53l-9.18-12.09a2.43,2.43,0,0,0-1-1A2.6,2.6,0,0,0,119.81,144.14Z"/><path class="cls-16" d="M93.72,166.1l-11.39-9.92a3.73,3.73,0,0,1-.37-5.25l9.27-10.73a3.7,3.7,0,0,1,5.23-.37l11.39,9.92a3.73,3.73,0,0,1,.37,5.25l-9.27,10.73A3.7,3.7,0,0,1,93.72,166.1Z"/><path class="cls-17" d="M143.94,138.27a4.35,4.35,0,0,0,2.21.9c1.67,0.18,4.58.83,6,3.23,2.2,3.66-.55,8.81-3.92,11.13-4.87,3.35-10.71.56-11,.43a9.69,9.69,0,0,1-3.82-3.75c-2.61-4.81-.86-12.64,3.65-14C139.76,135.45,142.5,137.15,143.94,138.27Z"/><path class="cls-18" d="M141.35,140.63a3.67,3.67,0,0,0,4.14,1.8l0.16,0c0.64-.18,1.95-0.68,1.92-1.2s-1.41-.9-2.71-1.14a2,2,0,0,1-.95-0.45c-0.86-.74-2.31-1.88-2.85-1.49s-0.13,1.6.17,2.28Z"/><path class="cls-19" d="M135.13,149.72c-2.5-4.4-1.2-9.41,1.93-11.26a5.57,5.57,0,0,1,1.91-.69,0.68,0.68,0,0,1,.35,1.31,7.17,7.17,0,0,0-2,1.15A8.42,8.42,0,0,0,135.13,149.72Z"/><path class="cls-20" d="M144.62,140.84a0.82,0.82,0,0,1-.78-0.07,1.11,1.11,0,0,1-.39-0.5c0.64-1.47,1.52-3.71,2.86-6.23a61.72,61.72,0,0,1,9.8-13.62,1.37,1.37,0,0,1,2.26.44l0.32,0.78a1.35,1.35,0,0,1-.52,1.65,32.94,32.94,0,0,0-10.65,11A31.79,31.79,0,0,0,144.62,140.84Z"/><path class="cls-13" d="M117.69,169.57l-9.2-12a3.73,3.73,0,0,1,.67-5.22l11.22-8.68a3.7,3.7,0,0,1,5.2.67l9.2,12a3.73,3.73,0,0,1-.67,5.22l-11.22,8.68A3.7,3.7,0,0,1,117.69,169.57Z"/><path class="cls-14" d="M116.61,168.18l-8.28-10.79a3.47,3.47,0,0,1,.63-4.86l10.09-7.81a3.44,3.44,0,0,1,4.84.63l8.28,10.79a3.47,3.47,0,0,1-.63,4.86l-10.09,7.81A3.44,3.44,0,0,1,116.61,168.18Z"/><path class="cls-15" d="M119.81,144.14a2.42,2.42,0,0,1,3.5.45l9.44,12.3a2.76,2.76,0,0,1,.39,2.3,2.55,2.55,0,0,1-.85,1.22l-11.6,9a2.49,2.49,0,0,1-1.74.54,2.52,2.52,0,0,1-1.76-1,2.63,2.63,0,0,0,2,.32,2.45,2.45,0,0,0,1-.58l11.47-8.87a2.37,2.37,0,0,0,.37-2.53l-9.18-12.09a2.43,2.43,0,0,0-1-1A2.6,2.6,0,0,0,119.81,144.14Z"/><path class="cls-19" d="M143.34,153c5-.68,8.21-4.75,7.78-8.36a5.57,5.57,0,0,0-.61-1.94,0.68,0.68,0,0,0-1.26.52,7.17,7.17,0,0,1,.28,2.26A8.42,8.42,0,0,1,143.34,153Z"/><path class="cls-21" d="M92.39,164.94L82.13,156a3.47,3.47,0,0,1-.35-4.89l8.34-9.66a3.44,3.44,0,0,1,4.87-.35l10.26,8.93a3.47,3.47,0,0,1,.35,4.89l-8.34,9.66A3.44,3.44,0,0,1,92.39,164.94Z"/><path class="cls-22" d="M90.75,140.75a2.42,2.42,0,0,1,3.52-.25L106,150.68a2.76,2.76,0,0,1,.84,2.17,2.55,2.55,0,0,1-.59,1.36l-9.59,11.1a2.49,2.49,0,0,1-1.6.88,2.52,2.52,0,0,1-1.93-.63,2.63,2.63,0,0,0,2-.09,2.45,2.45,0,0,0,.9-0.78l9.48-11a2.37,2.37,0,0,0-.14-2.55L94,141.15a2.43,2.43,0,0,0-1.12-.74A2.6,2.6,0,0,0,90.75,140.75Z"/><path class="cls-23" d="M81.73,197.21a2.74,2.74,0,0,0,2.43,2.45A299.73,299.73,0,0,0,117,201.36a299.72,299.72,0,0,0,30.65-1.68,2.92,2.92,0,0,0,2.59-2.62l5.17-50.48a11.06,11.06,0,0,0-5.11-4.18c-8.59-3.17-14.14,9.72-26.92,11.54-13,1.85-29.77-8.22-37.66-8.91a20,20,0,0,0-8.06,1c-0.52.2-.94,0.39-1.22,0.53Z"/><path class="cls-24" d="M80.77,187.7a14.23,14.23,0,0,1,4.57-1.57c6.87-1.08,11.66,3.64,18.58,6.85a47,47,0,0,0,18.28,3.81c12.9-.1,21.86-6.78,27.2-2a7.21,7.21,0,0,1,1,1.07l-0.1.91a3.12,3.12,0,0,1-2.73,2.78,272.83,272.83,0,0,1-31.45,1.83,272.83,272.83,0,0,1-32.36-1.91,2.27,2.27,0,0,1-2-2Z"/><path class="cls-25" d="M151.75,182l-1.35,13.81a17,17,0,0,0-3.13-1.11c-5.06-1.25-9.33.21-11.6,0.88-7.93,2.34-16.91,2.54-23.41,1a30.92,30.92,0,0,1-9.94-4.39c10,2.59,16.79,1.2,21.1-.53,10.59-4.25,15.83-14.32,23.3-12.69A9.88,9.88,0,0,1,151.75,182Z"/><path class="cls-26" d="M72.58,109.63l9.1,87.55a2.78,2.78,0,0,0,2.49,2.48l6.78,0.66-9.18-90.7H72.58Z"/><path class="cls-26" d="M159.36,109.63l-9.1,87.55a2.78,2.78,0,0,1-2.49,2.48l-6.78.66,9.18-90.7h9.19Z"/><polygon class="cls-27" points="85.9 109.63 94.85 200.61 98.78 200.87 89.81 109.63 85.9 109.63"/></svg>