<svg id="Layer_1" data-name="Layer 1" xmlns="http://www.w3.org/2000/svg" xmlns:xlink="http://www.w3.org/1999/xlink" viewBox="0 0 230.86 332.94"><defs><style>.cls-1{fill:url(#linear-gradient);}.cls-2{fill:#fff5ac;}.cls-3{fill:#c68273;}.cls-4{fill:#fddfd7;}.cls-5{fill:#c54b37;opacity:0.89;}.cls-6{fill:url(#linear-gradient-2);}.cls-7{fill:#ec5252;}.cls-8{fill:#ef7273;}.cls-9{fill:#dd4a4a;}.cls-10,.cls-11{opacity:0.87;}.cls-10{fill:url(#linear-gradient-3);}.cls-11{fill:#ab2632;}.cls-12{fill:#e49025;}.cls-13{fill:#f5a31e;}.cls-14{fill:#faf5ae;}.cls-15{fill:#f8b355;}.cls-16{fill:#fccd9d;}.cls-17,.cls-28{fill:#660f16;}.cls-17,.cls-18,.cls-29{opacity:0.57;}.cls-18{fill:#911a25;}.cls-19{fill:url(#linear-gradient-4);}.cls-20,.cls-26{fill:#db2e2a;}.cls-21{fill:#f4b5b5;opacity:0.15;}.cls-22{fill:#771919;}.cls-23{fill:url(#linear-gradient-5);}.cls-24,.cls-25{fill:#ffe3bb;}.cls-24{opacity:0.74;}.cls-26{opacity:0.65;}.cls-27,.cls-38,.cls-40{fill:#fff;}.cls-27{opacity:0.66;}.cls-29{fill:#a11d24;}.cls-30{fill:url(#linear-gradient-6);}.cls-31{fill:url(#linear-gradient-7);}.cls-32{fill:url(#linear-gradient-8);}.cls-33{fill:#5b3b3c;}.cls-34{fill:url(#linear-gradient-9);}.cls-35{fill:url(#linear-gradient-10);}.cls-36{opacity:0.58;fill:url(#linear-gradient-11);}.cls-37{fill:url(#linear-gradient-12);}.cls-38{opacity:0.24;}.cls-39{fill:url(#linear-gradient-13);}.cls-40{opacity:0.11;}</style><linearGradient id="linear-gradient" x1="133.21" y1="101.49" x2="133.21" y2="122.88" gradientUnits="userSpaceOnUse"><stop offset="0" stop-color="#e48125"/><stop offset="0.51" stop-color="#f6a31d"/><stop offset="0.82" stop-color="#f6a71c"/></linearGradient><linearGradient id="linear-gradient-2" x1="-1309.3" y1="-981.53" x2="-1321.08" y2="-992.43" gradientTransform="translate(-1344.37 981.55) rotate(113.54)" gradientUnits="userSpaceOnUse"><stop offset="0.05" stop-color="#be1f26"/><stop offset="0.29" stop-color="#d72129"/><stop offset="0.6" stop-color="#ee212c"/><stop offset="1" stop-color="#e64b4b"/></linearGradient><linearGradient id="linear-gradient-3" x1="114.06" y1="257.31" x2="114.06" y2="151.37" gradientUnits="userSpaceOnUse"><stop offset="0" stop-color="#5c0d0b"/><stop offset="0.45" stop-color="#90191c"/><stop offset="0.81" stop-color="#b43325"/><stop offset="0.98" stop-color="#c23e33"/></linearGradient><linearGradient id="linear-gradient-4" x1="100.28" y1="333.92" x2="100.28" y2="351.96" gradientTransform="translate(-58.49 -78.62) rotate(-8.31)" gradientUnits="userSpaceOnUse"><stop offset="0.38" stop-color="#ee3624"/><stop offset="1" stop-color="#a82723"/></linearGradient><linearGradient id="linear-gradient-5" x1="134.3" y1="209.48" x2="152.04" y2="209.48" gradientUnits="userSpaceOnUse"><stop offset="0.05" stop-color="#6d0e16"/><stop offset="0.46" stop-color="#d72129"/><stop offset="0.6" stop-color="#ee212c"/><stop offset="0.83" stop-color="#e7212c"/><stop offset="1" stop-color="#e64b4b"/></linearGradient><linearGradient id="linear-gradient-6" x1="-1287.8" y1="-990.64" x2="-1299.58" y2="-1001.54" gradientTransform="translate(-1344.37 981.55) rotate(113.54)" gradientUnits="userSpaceOnUse"><stop offset="0" stop-color="#6d0e16"/><stop offset="0.46" stop-color="#d72129"/><stop offset="0.6" stop-color="#ee212c"/><stop offset="0.83" stop-color="#e7212c"/><stop offset="1" stop-color="#e64b4b"/></linearGradient><linearGradient id="linear-gradient-7" x1="99.09" y1="212.6" x2="113.76" y2="227.27" gradientUnits="userSpaceOnUse"><stop offset="0.39" stop-color="#ee3624"/><stop offset="1" stop-color="#ab2322"/></linearGradient><linearGradient id="linear-gradient-8" x1="72.51" y1="344.79" x2="72.51" y2="362.82" gradientTransform="translate(-27.72 -168.13) rotate(-10.23)" xlink:href="#linear-gradient-4"/><linearGradient id="linear-gradient-9" x1="114.06" y1="130.46" x2="114.06" y2="135.16" gradientUnits="userSpaceOnUse"><stop offset="0" stop-color="#f5d1d0"/><stop offset="0.48" stop-color="#fdf0f0"/><stop offset="1" stop-color="#f5cfce"/></linearGradient><linearGradient id="linear-gradient-10" x1="113.93" y1="115.67" x2="114.18" y2="120.38" gradientTransform="translate(5.04 -4.67) rotate(2.4)" gradientUnits="userSpaceOnUse"><stop offset="0" stop-color="#f4cdcc"/><stop offset="0.48" stop-color="#fdf0f0"/><stop offset="1" stop-color="#f4cac9"/></linearGradient><linearGradient id="linear-gradient-11" x1="114.11" y1="257.38" x2="114.11" y2="151.44" xlink:href="#linear-gradient-3"/><linearGradient id="linear-gradient-12" x1="165.74" y1="140.8" x2="169.89" y2="123.76" gradientUnits="userSpaceOnUse"><stop offset="0" stop-color="#e48125"/><stop offset="0.25" stop-color="#f6a31d"/><stop offset="0.45" stop-color="#f6a71c"/><stop offset="1" stop-color="#f4e07d"/></linearGradient><linearGradient id="linear-gradient-13" x1="141.6" y1="109.67" x2="165.73" y2="143.1" gradientUnits="userSpaceOnUse"><stop offset="0" stop-color="#e48125"/><stop offset="0.34" stop-color="#f6a31d"/><stop offset="0.75" stop-color="#f6a71c"/><stop offset="1" stop-color="#f4e07d"/></linearGradient></defs><title>icons</title><path class="cls-1" d="M125.24,122.71l15.29,0.17a18.18,18.18,0,0,1-.16-6.28,17.86,17.86,0,0,1,.81-3.24c-0.67-6.81-2.58-11.58-5-11.85a3.48,3.48,0,0,0-1.83.47c-2.54,1.14-4.12,3.44-5.34,5.85C126.21,113.43,125.47,119.93,125.24,122.71Z"/><path class="cls-2" d="M126.43,115c0.67-2.74,2.68-9.68,7.48-12.91a2.79,2.79,0,0,1,1.95-.67c4.41,0.45,6.41,15.18,6.26,15.22s-0.31-1.27-1.43-4.23a28.47,28.47,0,0,0-1.53-3.62c-1.08-2-2.09-3.88-3.66-4.19-2.13-.43-4.25,2.21-5.66,3.95A18.91,18.91,0,0,0,126.43,115Z"/><ellipse class="cls-3" cx="112.88" cy="260.61" rx="55.19" ry="11.66"/><path class="cls-4" d="M114.11,110.31V262.83l34.27,0a13.76,13.76,0,0,0,13.76-13.76V158.37a18.32,18.32,0,0,0-2.63-9.46c-0.93-1.55-1.86-3.1-2.8-4.66a15.55,15.55,0,0,1-2.22-8.09l0.11-21.88a3.17,3.17,0,0,0-3.17-3.18Q133.45,110.34,114.11,110.31Z"/><path class="cls-4" d="M114.11,110.31V262.84l-34.27,0a13.75,13.75,0,0,1-13.75-13.76V158.37a18.38,18.38,0,0,1,2.62-9.45c0.93-1.56,1.87-3.1,2.81-4.66a15.53,15.53,0,0,0,2.21-8.09l-0.11-21.88a3.18,3.18,0,0,1,3.18-3.19l6.85-.26,7.8,141a1.27,1.27,0,0,0,1.34,1.2l3.38-.19,1.48-.07a1.3,1.3,0,0,0,1.21-1.22v0a0.24,0.24,0,0,0,0-.12L91.07,110.62Q102.33,110.32,114.11,110.31Z"/><path class="cls-5" d="M71.27,169.82a54.6,54.6,0,0,0,24.08.62c10.05-2,17.59-6.81,22-9.61,4.2-2.65,7.15-5.06,13-7.21a47.48,47.48,0,0,1,7.5-2.09c-11.39,5.22-20.36,5.63-26.63,4.93-11.39-1.27-19.06-6.82-30.28-3.81a29.49,29.49,0,0,0-9.68,4.68v12.48Z"/><path class="cls-6" d="M90.82,172.47a3.56,3.56,0,0,0,1.33-1,3.65,3.65,0,0,0,.79-2.25,2.24,2.24,0,0,0,.71-2.21,2.19,2.19,0,0,0-1-1.27c-0.58-1.88-1.72-3.05-2.73-3a1.48,1.48,0,0,0-.82.35A2.39,2.39,0,0,0,87.18,162a1.89,1.89,0,0,0-.9.32,1.55,1.55,0,0,0-1.57-.46,1.39,1.39,0,0,0-.67.5,1.64,1.64,0,0,0-1.81-.14,1.08,1.08,0,0,0-.33.41,1.13,1.13,0,0,0-1.35,0,0.8,0.8,0,0,0-.21.48,1.61,1.61,0,0,0-1.17.06,1.55,1.55,0,0,0-.6.5,2.28,2.28,0,0,0-1.09,1,2.34,2.34,0,0,0-.14,1.84A2.3,2.3,0,0,0,76,168a2.16,2.16,0,0,0,.09,1.32,1.58,1.58,0,0,0,.74,1.65,1.08,1.08,0,0,0,.77,1.73,0.75,0.75,0,0,0-.22.46,1.61,1.61,0,0,0,1.43,1.27,1.14,1.14,0,0,0,0,.77,1.43,1.43,0,0,0,1.51.82,1.81,1.81,0,0,0,.14.39,2.92,2.92,0,0,0,2.24,1.28,1.68,1.68,0,0,0,.4.86c0.75,0.82,2.47.79,4.25-.17a1.65,1.65,0,0,0,.92,0,1.93,1.93,0,0,0,1.32-1.54A5.6,5.6,0,0,0,90.82,172.47Z"/><path class="cls-7" d="M91.77,165.13c-0.11-.2-0.85-1.54-1.47-1.55a0.45,0.45,0,0,0-.35.12,0.57,0.57,0,0,0,0,.51C90.16,164.88,91.56,165.1,91.77,165.13Z"/><path class="cls-8" d="M90.75,167c-0.11-.2-0.85-1.54-1.47-1.55a0.45,0.45,0,0,0-.35.12,0.57,0.57,0,0,0,0,.51C89.14,166.73,90.54,166.95,90.75,167Z"/><path class="cls-8" d="M89.71,168.71c-0.14-.18-1.09-1.39-1.7-1.3a0.45,0.45,0,0,0-.33.17,0.57,0.57,0,0,0,.07.5C88.08,168.72,89.5,168.72,89.71,168.71Z"/><path class="cls-7" d="M88.72,170.34c-0.14-.16-1.06-1.24-1.63-1.14a0.42,0.42,0,0,0-.3.17,0.53,0.53,0,0,0,.09.47C87.21,170.41,88.53,170.35,88.72,170.34Z"/><path class="cls-7" d="M88,172.32c-0.17-.13-1.3-1-1.83-0.76a0.42,0.42,0,0,0-.26.23,0.53,0.53,0,0,0,.18.44C86.55,172.7,87.83,172.37,88,172.32Z"/><path class="cls-7" d="M87.3,174.3c-0.16-.14-1.24-1.06-1.78-0.86a0.42,0.42,0,0,0-.27.22,0.53,0.53,0,0,0,.16.45C85.82,174.61,87.11,174.34,87.3,174.3Z"/><path class="cls-7" d="M86,178.15c-0.22.06-1.71,0.43-2.14,0a0.45,0.45,0,0,1-.15-0.34,0.57,0.57,0,0,1,.37-0.35C84.71,177.14,85.83,178,86,178.15Z"/><path class="cls-7" d="M86.65,176.14c-0.22.06-1.71,0.43-2.14,0a0.45,0.45,0,0,1-.15-0.34,0.57,0.57,0,0,1,.37-0.35C85.37,175.13,86.48,176,86.65,176.14Z"/><path class="cls-7" d="M87.13,163.06c0.2,0,1.53.39,1.68,0.92a0.41,0.41,0,0,1,0,.33,0.51,0.51,0,0,1-.44.13C87.72,164.4,87.21,163.23,87.13,163.06Z"/><path class="cls-8" d="M86,165.15c0.2,0,1.57.14,1.8,0.64a0.41,0.41,0,0,1,0,.33,0.51,0.51,0,0,1-.41.19C86.8,166.37,86.11,165.3,86,165.15Z"/><path class="cls-7" d="M84.86,167.6c0.2,0,1.57-.13,1.89.32a0.41,0.41,0,0,1,.09.32,0.51,0.51,0,0,1-.37.26C85.85,168.67,85,167.74,84.86,167.6Z"/><path class="cls-7" d="M84.06,169.61c0.19,0,1.47-.06,1.74.37a0.38,0.38,0,0,1,.07.3,0.48,0.48,0,0,1-.36.23C84.94,170.64,84.17,169.74,84.06,169.61Z"/><path class="cls-7" d="M83.29,171.78c0.18,0,1.43-.33,1.78.05a0.38,0.38,0,0,1,.12.28,0.48,0.48,0,0,1-.31.29C84.34,172.64,83.42,171.89,83.29,171.78Z"/><path class="cls-7" d="M82.27,174.08c0.18,0,1.43-.34,1.78,0a0.38,0.38,0,0,1,.13.28,0.48,0.48,0,0,1-.31.29C83.33,174.93,82.41,174.19,82.27,174.08Z"/><path class="cls-7" d="M81.44,176.06c0.15,0.13,1.19,1,1.72.85a0.41,0.41,0,0,0,.26-0.21,0.51,0.51,0,0,0-.15-0.43C82.88,175.78,81.63,176,81.44,176.06Z"/><path class="cls-7" d="M86.26,164.07c-0.07-.15-0.58-1.16-1.1-1.1a0.48,0.48,0,0,0-.31.13,0.45,0.45,0,0,0-.05.41C84.92,164,86.09,164.07,86.26,164.07Z"/><path class="cls-7" d="M85.26,166.28c-0.07-.16-0.54-1.21-1-1.16a0.44,0.44,0,0,0-.3.13,0.5,0.5,0,0,0-.06.42C84,166.2,85.09,166.27,85.26,166.28Z"/><path class="cls-7" d="M84.35,168.44c-0.09-.15-0.73-1.15-1.2-1a0.4,0.4,0,0,0-.26.18,0.55,0.55,0,0,0,0,.44C83.11,168.55,84.19,168.45,84.35,168.44Z"/><path class="cls-7" d="M83.39,170.5c-0.11-.12-0.87-0.9-1.28-0.7a0.38,0.38,0,0,0-.21.21,0.5,0.5,0,0,0,.1.4C82.28,170.84,83.25,170.54,83.39,170.5Z"/><path class="cls-9" d="M82.46,172.66c-0.13-.11-1-0.86-1.36-0.64a0.34,0.34,0,0,0-.18.22,0.55,0.55,0,0,0,.15.39C81.41,173.07,82.32,172.71,82.46,172.66Z"/><path class="cls-9" d="M81.49,174.81c-0.15-.08-1.14-0.65-1.46-0.35a0.34,0.34,0,0,0-.13.25,0.55,0.55,0,0,0,.22.36C80.54,175.42,81.37,174.89,81.49,174.81Z"/><path class="cls-7" d="M82.43,163.49c0.16,0,1.24-.36,1.56.06a0.48,0.48,0,0,1,.12.31,0.45,0.45,0,0,1-.26.32C83.38,164.43,82.55,163.61,82.43,163.49Z"/><path class="cls-7" d="M81.38,165.94c0.16-.06,1.25-0.43,1.56,0a0.44,0.44,0,0,1,.11.31,0.5,0.5,0,0,1-.27.33C82.31,166.84,81.5,166.06,81.38,165.94Z"/><path class="cls-7" d="M80.49,168.15c0.17,0,1.34-.25,1.57.18a0.4,0.4,0,0,1,.05.31,0.55,0.55,0,0,1-.34.29C81.24,169.13,80.58,168.27,80.49,168.15Z"/><path class="cls-9" d="M79.65,170.22c0.16,0,1.26,0,1.39.46a0.38,0.38,0,0,1,0,.3,0.5,0.5,0,0,1-.36.2C80.15,171.27,79.71,170.35,79.65,170.22Z"/><path class="cls-9" d="M78.47,172.74c0.17,0,1.3.13,1.39,0.56a0.34,0.34,0,0,1,0,.28,0.55,0.55,0,0,1-.39.16C78.89,173.79,78.52,172.88,78.47,172.74Z"/><path class="cls-7" d="M91.67,166.18c0.2,0,1.53.39,1.68,0.92a0.41,0.41,0,0,1,0,.33,0.51,0.51,0,0,1-.44.13C92.25,167.52,91.74,166.35,91.67,166.18Z"/><path class="cls-7" d="M90.63,168.1c0.2,0,1.57.14,1.8,0.64a0.41,0.41,0,0,1,0,.33,0.51,0.51,0,0,1-.41.19C91.42,169.33,90.73,168.26,90.63,168.1Z"/><path class="cls-7" d="M88.48,171.6c0.2,0,1.57-.13,1.89.32a0.41,0.41,0,0,1,.09.32,0.51,0.51,0,0,1-.37.26C89.47,172.67,88.6,171.74,88.48,171.6Z"/><path class="cls-7" d="M88.07,173.38c0.19,0,1.47-.06,1.74.37a0.38,0.38,0,0,1,.07.3,0.48,0.48,0,0,1-.36.23C88.94,174.41,88.18,173.51,88.07,173.38Z"/><path class="cls-7" d="M87.55,175.41c0.18,0,1.43-.33,1.78.05a0.38,0.38,0,0,1,.12.28,0.48,0.48,0,0,1-.31.29C88.6,176.27,87.68,175.52,87.55,175.41Z"/><path class="cls-7" d="M86.77,177.31c0.18,0,1.43-.34,1.78,0a0.38,0.38,0,0,1,.13.28,0.48,0.48,0,0,1-.31.29C87.83,178.16,86.91,177.42,86.77,177.31Z"/><path class="cls-7" d="M89.53,169.84c0.2,0,1.57.14,1.8,0.64a0.41,0.41,0,0,1,0,.33A0.51,0.51,0,0,1,91,171C90.32,171.07,89.63,170,89.53,169.84Z"/><path class="cls-7" d="M82.25,164.31c-0.1-.11-0.82-0.88-1.27-0.69a0.44,0.44,0,0,0-.24.19,0.42,0.42,0,0,0,.06.38C81,164.61,82.09,164.35,82.25,164.31Z"/><path class="cls-7" d="M81.33,166.84c-0.1-.12-0.79-0.94-1.23-0.77a0.41,0.41,0,0,0-.24.19,0.46,0.46,0,0,0,.05.39C80.17,167.11,81.19,166.88,81.33,166.84Z"/><path class="cls-9" d="M80.13,169.53c-0.11-.12-0.84-1-1.25-0.77a0.37,0.37,0,0,0-.21.2,0.51,0.51,0,0,0,.08.4C79,169.82,80,169.57,80.13,169.53Z"/><path class="cls-9" d="M79,171.64c-0.1-.11-0.81-0.84-1.19-0.65a0.36,0.36,0,0,0-.19.19,0.46,0.46,0,0,0,.09.37C77.93,172,78.83,171.69,79,171.64Z"/><path class="cls-7" d="M78.92,164.64c0.13-.06,1-0.47,1.18-0.1a0.43,0.43,0,0,1,.06.28,0.56,0.56,0,0,1-.23.33C79.55,165.43,79,164.74,78.92,164.64Z"/><path class="cls-9" d="M78.17,167.14c0.13,0,1-.37,1.18,0a0.43,0.43,0,0,1,0,.29,0.63,0.63,0,0,1-.29.31C78.65,168,78.23,167.25,78.17,167.14Z"/><path class="cls-9" d="M77.14,169.33c0.12,0,1-.1,1,0.3a0.46,0.46,0,0,1,0,.28,0.5,0.5,0,0,1-.29.22C77.42,170.27,77.18,169.45,77.14,169.33Z"/><path class="cls-10" d="M156.89,155.91v93.36a8,8,0,0,1-8,8H79.06a7.83,7.83,0,0,1-7.63-6.06,8,8,0,0,1-.2-1.76q0-39.83,0-79.66a56.11,56.11,0,0,0,24.39.48c20.89-4.42,29.11-19.81,46.63-18.89A32.75,32.75,0,0,1,156.89,155.91Z"/><path class="cls-11" d="M139.55,234.72a87.61,87.61,0,0,1-20,22.58H79.06a7.83,7.83,0,0,1-7.63-6.06,8,8,0,0,1-.2-1.76q0-7.48,0-15a29.45,29.45,0,0,1,14.05-5.16c10.34-.82,15.94,5,26.28,7.6C117.68,238.47,126.9,239.2,139.55,234.72Z"/><ellipse class="cls-12" cx="126.74" cy="158.12" rx="19.62" ry="19.58" transform="translate(-50.2 59.34) rotate(-22.11)"/><ellipse class="cls-13" cx="126.87" cy="157.95" rx="19.18" ry="19.14" transform="translate(-50.12 59.37) rotate(-22.11)"/><path class="cls-14" d="M120.13,142l1-.4,0.47-.19a2.12,2.12,0,0,1,.45-0.18,0.84,0.84,0,0,1,.32.08,1.5,1.5,0,0,0,.33,0,4.32,4.32,0,0,0,.86-0.09,1.55,1.55,0,0,0,.36-0.08l0.46-.19a1.7,1.7,0,0,1,.79-0.19,2,2,0,0,1,.33.06,4.4,4.4,0,0,1,.53.07,0.75,0.75,0,0,0,.34,0h0.14a0.41,0.41,0,0,0,.08,0,0.66,0.66,0,0,0,.11-0.06c0.06,0,.11,0,0.16,0s0.21-.1.32-0.13a1.36,1.36,0,0,1,.19,0c0.08,0,.15-0.09.23-0.1a0.84,0.84,0,0,1,.19.05l0.25,0,0.08,0a1.14,1.14,0,0,1,.13.05c0.13,0,.3-0.06.38,0.12a0.46,0.46,0,0,1,.35.08,2.43,2.43,0,0,1,.39.14,0.93,0.93,0,0,0,.65.13,2.9,2.9,0,0,0,.73-0.08,1,1,0,0,1,.66,0,0.43,0.43,0,0,1,.18.17l0.12,0.08a0.12,0.12,0,0,1,.12,0l0,0.06a2.68,2.68,0,0,0,.47.22l0.48,0.2a1,1,0,0,0,.65.12l0.06,0.08a1,1,0,0,1,.19,0c0.12,0,.1-0.07.2,0a0.78,0.78,0,0,1,.22.38,1.34,1.34,0,0,0,.54.38,2.31,2.31,0,0,0,.67.28,1.85,1.85,0,0,1,.24,0c0.05,0,.1.06,0.15,0.07a0.7,0.7,0,0,0,.21,0,0.62,0.62,0,0,0,.26,0,0.52,0.52,0,0,0,.22.2,1.69,1.69,0,0,1,.29.21,1.06,1.06,0,0,0,.09.12s0.09,0,.12.06S137,144,137,144s0.12,0,.18.08a0.79,0.79,0,0,1,.17.3,0.86,0.86,0,0,0,.28.21,1.86,1.86,0,0,1,.4.13,1.29,1.29,0,0,1,.24.27c0,0.06,0,.14.08,0.2a0.47,0.47,0,0,0,.1.09c0.11,0.11.22,0.2,0.33,0.32a0.44,0.44,0,0,0,.21.17,1.23,1.23,0,0,1,.3.11,4.13,4.13,0,0,1,.41.36,2.12,2.12,0,0,1,.32.24,2.33,2.33,0,0,1,.16.41,1.62,1.62,0,0,0,.45.64,0.81,0.81,0,0,1,.22.2,2.12,2.12,0,0,1,.21.34l0.31,0.76a1.86,1.86,0,0,0,.15.36c0,0.05.09,0.09,0.12,0.15a0.49,0.49,0,0,0,0,.09,0.32,0.32,0,0,0,.12,0,1.3,1.3,0,0,1,.5.67,1.62,1.62,0,0,1,.14.37l0,0.19s0,0.05,0,.07,0,0.13,0,.18a1.22,1.22,0,0,0,0,.13,0.48,0.48,0,0,1,0,.18,0.32,0.32,0,0,0,0,.23l0.08,0.2L143,152.6l0.15,0.37a1.34,1.34,0,0,0,.18.41,0.61,0.61,0,0,1,.19.16c0,0.05,0,.12.07,0.17s0.06,0.13.08,0.2,0,0.08,0,.19a1,1,0,0,0,0,.44,2.38,2.38,0,0,0,.14.5,2.52,2.52,0,0,1,.22.84,2.11,2.11,0,0,1,.05.71,0.38,0.38,0,0,0,0,.22,1.27,1.27,0,0,0,0,.22,1.49,1.49,0,0,1,.06.17,0.92,0.92,0,0,0,0,.17,1,1,0,0,1,.08.19,1.49,1.49,0,0,1,0,.15,1.71,1.71,0,0,0,.06.37,1.57,1.57,0,0,1-.17.89,7.36,7.36,0,0,1-.28.69,1.41,1.41,0,0,0-.35.53,3.17,3.17,0,0,0,.14.76c0,0.21,0,.42.1,0.63s0.06,0.14.08,0.21a0.51,0.51,0,0,1,0,.14,1.38,1.38,0,0,1,0,.18,1.63,1.63,0,0,1,0,.19,3.08,3.08,0,0,1-.24.3c-0.07.12-.09,0.26-0.17,0.38a1.11,1.11,0,0,0-.12.13s0,0.07,0,.1a1.52,1.52,0,0,1-.11.15c-0.09.13-.14,0.29-0.23,0.42s-0.21.31-.32,0.46a0.74,0.74,0,0,0-.16.19c0,0.09,0,.2,0,0.29s-0.1.24-.14,0.35a0.79,0.79,0,0,0-.05.2c0,0.06,0,.12,0,0.17a1,1,0,0,1-.17.33,1,1,0,0,1-.26.33,1.41,1.41,0,0,0-.32.28,3.87,3.87,0,0,1-.23.33,0.5,0.5,0,0,1-.18.11,1,1,0,0,0-.31.28,4.87,4.87,0,0,0-.44.69,1.39,1.39,0,0,0-.09.39,1,1,0,0,1-.08.21,0.59,0.59,0,0,0-.06.34,1.07,1.07,0,0,1-.17.41,1.58,1.58,0,0,1-.07.27c0,0.08-.18.11-0.24,0.2a0.75,0.75,0,0,1-.4.34,0.63,0.63,0,0,0-.34.3,1.49,1.49,0,0,1-.61.61,0.92,0.92,0,0,0-.36.18c-0.11.12-.2,0.26-0.31,0.38a2.88,2.88,0,0,1-.82.37,1,1,0,0,0-.33.33l-0.21.32a0.54,0.54,0,0,1-.17.23,2.18,2.18,0,0,0-1.07.48,1.36,1.36,0,0,0,0,.16,0.88,0.88,0,0,1-.09.13,1.2,1.2,0,0,1-.12.22,1.92,1.92,0,0,1-.58.31l-0.69.28-0.3.12a1,1,0,0,0-.24.23c-0.06.05-.14,0.09-0.2,0.15l-0.14.13s-0.11,0-.15.05-0.06.07-.08,0.08a0.82,0.82,0,0,1-.27.13,1.58,1.58,0,0,1-.41,0l-0.22,0a1.43,1.43,0,0,0-.24,0c-0.17,0-.35-0.11-0.53-0.12h-0.16c-0.06,0-.13,0-0.18,0a0.93,0.93,0,0,0-.29.11l-0.51.21a1.13,1.13,0,0,1-.64.2c-0.16-.08-0.2-0.34-0.36-0.41a1.37,1.37,0,0,0-.6.2,3.17,3.17,0,0,1-.32,0,4,4,0,0,0-.45.08,1.37,1.37,0,0,1-.66,0,0.93,0.93,0,0,1-.16,0,2,2,0,0,1-.16-0.13c-0.08-.05-0.18-0.06-0.27-0.12s-0.1-.05-0.26,0-0.07,0-.11,0-0.12.05-.19,0.06a1.22,1.22,0,0,0-.17-0.25c-0.13-.15-0.13-0.12-0.3-0.08s-0.12-.05-0.22-0.18a0.48,0.48,0,0,0-.33-0.2c-0.06,0-.11.07-0.17,0.08a0.56,0.56,0,0,1-.09,0,1.76,1.76,0,0,0-.33.12,2.47,2.47,0,0,1-.34.14,0.64,0.64,0,0,1-.51-0.12,3.64,3.64,0,0,1-.43-0.23,2,2,0,0,1-.3-0.26,1.23,1.23,0,0,0-.68-0.36,2.15,2.15,0,0,0-.34,0c-0.08,0-.16,0-0.24,0s-0.1,0-.16,0a1.88,1.88,0,0,1-.69-0.06,1,1,0,0,1-.42-0.55,0.51,0.51,0,0,0-.52-0.3,1.45,1.45,0,0,0-.45,0,2.22,2.22,0,0,1-.34.14,1,1,0,0,1-.53-0.48l-0.25-.26a0.79,0.79,0,0,0-.28-0.11,0.45,0.45,0,0,0-.13-0.1c-0.08,0-.14.09-0.22,0.07a0.84,0.84,0,0,1-.14-0.12,1.41,1.41,0,0,1-.16-0.07c-0.08-.06-0.12-0.13-0.2-0.18a1.25,1.25,0,0,1-.33-0.33c-0.18-.22-0.22-0.53-0.42-0.74a2.24,2.24,0,0,0-.25-0.28l-0.25-.17a1.5,1.5,0,0,0-.37-0.23,0.91,0.91,0,0,1-.37-0.26c-0.19-.18-0.43-0.33-0.62-0.53l-0.23-.24a1.88,1.88,0,0,1-.2-0.29c-0.06-.08-0.2-0.15-0.27-0.23a0.9,0.9,0,0,1-.08-0.17,0.83,0.83,0,0,0-.1-0.11c-0.07-.1-0.09-0.22-0.14-0.32a1.69,1.69,0,0,1-.17-0.26,0.82,0.82,0,0,0-.17-0.26,1.57,1.57,0,0,0-.22-0.26,2,2,0,0,1-.51-0.37,2.51,2.51,0,0,1-.27-0.67,1,1,0,0,1,0-.14c0-.06,0-0.1-0.05-0.16s0-.13,0-0.21a1.71,1.71,0,0,0-.11-0.27,2,2,0,0,0-.2-0.41l-0.09-.13-0.09-.11c-0.06-.09-0.07-0.24-0.14-0.32a1.88,1.88,0,0,1-.37-0.24c-0.2-.37-0.31-0.79-0.48-1.18a0.56,0.56,0,0,1,0-.31c0-.15.14-0.25,0.17-0.4a1,1,0,0,0-.15-0.66l-0.3-.73c-0.06-.15-0.13-0.31-0.19-0.46a3.9,3.9,0,0,1-.16-0.84,4.68,4.68,0,0,1,.1-1,1,1,0,0,1,.09-0.38,1.22,1.22,0,0,0,.07-0.4c0-.15.05-0.29,0.08-0.43a3.14,3.14,0,0,0,0-.33c0-.06,0-0.11,0-0.16s0-.2,0-0.29a2.92,2.92,0,0,1,.18-0.5,2.26,2.26,0,0,1,.19-0.4,0.43,0.43,0,0,0,0-.36,1.54,1.54,0,0,1,0-.29,2.5,2.5,0,0,0,0-.38,4.8,4.8,0,0,1,0-.62,2.1,2.1,0,0,1,.05-0.44,1,1,0,0,1,.06-0.18,1.54,1.54,0,0,1,.2-0.1l0-.1,0.15-.08a3.21,3.21,0,0,1-.11-0.46,2.71,2.71,0,0,1,0-.48s0.06-.07.06-0.1a1.31,1.31,0,0,0,0-.14,0.8,0.8,0,0,1,.18-0.47c0.11-.15.26-0.25,0.38-0.38a1.22,1.22,0,0,1-.07-0.37c0-.11,0-0.22,0-0.33a1.89,1.89,0,0,1,.13-0.61,2,2,0,0,1,.49-0.74,1.33,1.33,0,0,0,.28-0.24,1.41,1.41,0,0,1,.14-0.21,0.55,0.55,0,0,0,.11-0.09,0.48,0.48,0,0,1,.14-0.21,1.09,1.09,0,0,0,.26-0.23,1.24,1.24,0,0,0,.17-0.4,2.62,2.62,0,0,1,.2-0.39,2.77,2.77,0,0,1,.28-0.38,1.29,1.29,0,0,1,.54-0.3,1.84,1.84,0,0,0,.54-0.27,3,3,0,0,0,.33-0.34,0.78,0.78,0,0,0,.16-0.21s0-.09,0-0.12a0.2,0.2,0,0,1,.1,0,2.49,2.49,0,0,1,.36-0.26,2.26,2.26,0,0,0,.37-0.23,2.78,2.78,0,0,1,.32-0.21,2.54,2.54,0,0,0,.43-0.57,2,2,0,0,1,.56-0.27,1.08,1.08,0,0,0,.21-0.28c0.09-.13.17-0.26,0.24-0.4a0.24,0.24,0,0,1,.16-0.16c0.16-.07.16,0,0.26,0.08a0.51,0.51,0,0,0,.6,0,1.79,1.79,0,0,0,.54-0.29l0.24-.21C119.1,142.56,119.91,141.65,120.13,142Z"/><path class="cls-15" d="M116.3,146.81a0.76,0.76,0,0,1,0-1.07,12.6,12.6,0,0,1,9.3-3.76,0.75,0.75,0,0,1,.73.75l0.18,13.79a0.27,0.27,0,0,1-.46.19Z"/><path class="cls-15" d="M126.88,172.86a0.76,0.76,0,0,0,.75.76,12.6,12.6,0,0,0,9.29-3.79,0.75,0.75,0,0,0,0-1l-9.48-10a0.27,0.27,0,0,0-.46.18Z"/><path class="cls-15" d="M137.75,147.47a0.76,0.76,0,0,1,1.07,0,12.54,12.54,0,0,1,3.76,9.28,0.75,0.75,0,0,1-.75.73l-13.81.2a0.27,0.27,0,0,1-.19-0.46Z"/><path class="cls-15" d="M111.65,158.07a0.76,0.76,0,0,0-.76.75,12.54,12.54,0,0,0,3.78,9.27,0.75,0.75,0,0,0,1,0l10-9.49a0.27,0.27,0,0,0-.18-0.46Z"/><path class="cls-15" d="M127.11,142.74a0.76,0.76,0,0,1,.76-0.75,12.57,12.57,0,0,1,9.23,3.9,0.75,0.75,0,0,1,0,1l-9.63,9.89a0.27,0.27,0,0,1-.46-0.19Z"/><path class="cls-15" d="M116.14,168.66a0.76,0.76,0,0,0,0,1.07,12.57,12.57,0,0,0,9.24,3.88,0.75,0.75,0,0,0,.74-0.74l0.39-13.78a0.27,0.27,0,0,0-.46-0.2Z"/><path class="cls-15" d="M111.57,157.42a0.76,0.76,0,0,1-.75-0.76,12.57,12.57,0,0,1,3.92-9.23,0.75,0.75,0,0,1,1,0l9.89,9.61a0.27,0.27,0,0,1-.19.46Z"/><path class="cls-15" d="M137.51,168.35a0.76,0.76,0,0,0,1.07,0,12.57,12.57,0,0,0,3.9-9.24,0.75,0.75,0,0,0-.74-0.74l-13.8-.37a0.27,0.27,0,0,0-.2.46Z"/><path class="cls-14" d="M122.05,156.44a2.66,2.66,0,0,0,2.49.48,0.13,0.13,0,0,0,.09-0.21,2.64,2.64,0,0,0-2.06-1.47A0.7,0.7,0,0,0,122.05,156.44Z"/><path class="cls-14" d="M125.48,162.47A2.66,2.66,0,0,0,126,160a0.13,0.13,0,0,0-.21-0.09,2.65,2.65,0,0,0-1.47,2.06A0.7,0.7,0,0,0,125.48,162.47Z"/><path class="cls-14" d="M129.11,153.82a2.66,2.66,0,0,1-1.44,2.08,0.13,0.13,0,0,1-.21-0.09,2.64,2.64,0,0,1,.45-2.49A0.7,0.7,0,0,1,129.11,153.82Z"/><path class="cls-14" d="M130.77,160.32a2.66,2.66,0,0,1-2.08-1.44,0.13,0.13,0,0,1,.09-0.21,2.65,2.65,0,0,1,2.49.45A0.7,0.7,0,0,1,130.77,160.32Z"/><path class="cls-16" d="M121.77,146.66a18.77,18.77,0,0,0,2.86,5.22c0.13,0.18.21,0.15,0.16-.06a18,18,0,0,0-2.11-5.48,1.84,1.84,0,0,0-.91-0.8A1.55,1.55,0,0,0,121.77,146.66Z"/><path class="cls-16" d="M118.88,146.92a17.64,17.64,0,0,0,3.39,3.87c0.14,0.12.19,0.08,0.11-.08a17.56,17.56,0,0,0-2.9-4.26,1.5,1.5,0,0,0-.87-0.49A1.59,1.59,0,0,0,118.88,146.92Z"/><path class="cls-16" d="M123.68,144.17a12.29,12.29,0,0,0,1.18,4.13c0.07,0.15.14,0.15,0.14,0a11.16,11.16,0,0,0-.53-4.11,1.46,1.46,0,0,0-.56-0.75A0.9,0.9,0,0,0,123.68,144.17Z"/><path class="cls-16" d="M131.59,146a18.77,18.77,0,0,0-2.22,5.52c-0.06.21,0,.26,0.15,0.09a18,18,0,0,0,2.89-5.11,1.84,1.84,0,0,0,0-1.22A1.55,1.55,0,0,0,131.59,146Z"/><path class="cls-16" d="M129.06,144.59a17.64,17.64,0,0,0-.83,5.08c0,0.19.06,0.2,0.13,0a17.56,17.56,0,0,0,1.44-4.95,1.5,1.5,0,0,0-.17-1A1.59,1.59,0,0,0,129.06,144.59Z"/><path class="cls-16" d="M134.24,146.56a12.29,12.29,0,0,0-2.43,3.53c-0.07.14,0,.2,0.09,0.11a11.16,11.16,0,0,0,2.84-3,1.46,1.46,0,0,0,.23-0.91A0.9,0.9,0,0,0,134.24,146.56Z"/><path class="cls-16" d="M130.69,168.52a18.77,18.77,0,0,1-1.59-5.73c0-.22,0-0.26.16-0.07a18,18,0,0,1,2.31,5.4,1.84,1.84,0,0,1-.09,1.21A1.55,1.55,0,0,1,130.69,168.52Z"/><path class="cls-16" d="M128.43,170.35a17.64,17.64,0,0,1-.27-5.14c0-.19.08-0.19,0.14,0a17.56,17.56,0,0,1,.89,5.07,1.5,1.5,0,0,1-.28,1A1.59,1.59,0,0,1,128.43,170.35Z"/><path class="cls-16" d="M133.79,169a12.29,12.29,0,0,1-2-3.78c-0.06-.15,0-0.2.1-0.1a11.16,11.16,0,0,1,2.49,3.32,1.46,1.46,0,0,1,.12.93A0.9,0.9,0,0,1,133.79,169Z"/><path class="cls-16" d="M138.2,162.16a18.77,18.77,0,0,1-5.44-2.41c-0.19-.11-0.17-0.2,0-0.17a18,18,0,0,1,5.64,1.64,1.84,1.84,0,0,1,.88.84A1.55,1.55,0,0,1,138.2,162.16Z"/><path class="cls-16" d="M137.35,164.92a17.64,17.64,0,0,1-4.14-3.06c-0.14-.13-0.1-0.19.07-0.11a17.56,17.56,0,0,1,4.48,2.54,1.5,1.5,0,0,1,.56.83A1.59,1.59,0,0,1,137.35,164.92Z"/><path class="cls-16" d="M139.69,159.9a12.29,12.29,0,0,1-4.21-.83c-0.15-.05-0.16-0.12,0-0.14a11.16,11.16,0,0,1,4.14.19,1.46,1.46,0,0,1,.79.49A0.9,0.9,0,0,1,139.69,159.9Z"/><path class="cls-16" d="M115.68,152.68a18.77,18.77,0,0,1,5.25,2.8c0.18,0.13.15,0.21-.05,0.16a18,18,0,0,1-5.5-2,1.84,1.84,0,0,1-.81-0.9A1.55,1.55,0,0,1,115.68,152.68Z"/><path class="cls-16" d="M115.9,149.78a17.64,17.64,0,0,1,3.91,3.35c0.13,0.14.09,0.19-.08,0.11a17.56,17.56,0,0,1-4.29-2.85,1.5,1.5,0,0,1-.5-0.87A1.59,1.59,0,0,1,115.9,149.78Z"/><path class="cls-16" d="M113.21,154.62a12.29,12.29,0,0,1,4.14,1.14c0.15,0.06.15,0.14,0,.14a11.16,11.16,0,0,1-4.12-.49,1.46,1.46,0,0,1-.76-0.55A0.9,0.9,0,0,1,113.21,154.62Z"/><path class="cls-16" d="M115.1,162.5a18.77,18.77,0,0,1,5.5-2.28c0.21-.06.26,0,0.09,0.15a18,18,0,0,1-5.07,3,1.84,1.84,0,0,1-1.22.05A1.55,1.55,0,0,1,115.1,162.5Z"/><path class="cls-16" d="M113.7,160a17.64,17.64,0,0,1,5.07-.89c0.19,0,.2.06,0,0.13a17.56,17.56,0,0,1-4.93,1.5,1.5,1.5,0,0,1-1-.16A1.59,1.59,0,0,1,113.7,160Z"/><path class="cls-16" d="M115.72,165.14a12.29,12.29,0,0,1,3.51-2.47c0.14-.07.2,0,0.11,0.09a11.16,11.16,0,0,1-3,2.87,1.46,1.46,0,0,1-.9.24A0.9,0.9,0,0,1,115.72,165.14Z"/><path class="cls-16" d="M139,153a18.77,18.77,0,0,1-5.65,1.88c-0.22,0-.26,0-0.08-0.15a18,18,0,0,1,5.27-2.58,1.84,1.84,0,0,1,1.22,0A1.55,1.55,0,0,1,139,153Z"/><path class="cls-16" d="M140.23,155.65a17.64,17.64,0,0,1-5.12.53c-0.19,0-.2-0.07,0-0.13a17.56,17.56,0,0,1,5-1.15,1.5,1.5,0,0,1,1,.23A1.59,1.59,0,0,1,140.23,155.65Z"/><path class="cls-16" d="M138.58,150.37a12.29,12.29,0,0,1-3.67,2.22c-0.15.06-.2,0-0.11-0.09a11.16,11.16,0,0,1,3.19-2.65,1.46,1.46,0,0,1,.92-0.17A0.9,0.9,0,0,1,138.58,150.37Z"/><path class="cls-16" d="M121.56,169.88a18.77,18.77,0,0,1,2.52-5.39c0.12-.19.2-0.16,0.17,0a18,18,0,0,1-1.75,5.6,1.84,1.84,0,0,1-.86.86A1.55,1.55,0,0,1,121.56,169.88Z"/><path class="cls-16" d="M118.83,169A17.64,17.64,0,0,1,122,164.9c0.13-.13.19-0.09,0.11,0.08a17.56,17.56,0,0,1-2.62,4.43,1.5,1.5,0,0,1-.84.55A1.59,1.59,0,0,1,118.83,169Z"/><path class="cls-16" d="M123.8,171.42a12.29,12.29,0,0,1,.92-4.19c0.06-.15.13-0.16,0.14,0a11.16,11.16,0,0,1-.27,4.14,1.46,1.46,0,0,1-.51.78A0.9,0.9,0,0,1,123.8,171.42Z"/><ellipse class="cls-17" cx="118.81" cy="243.5" rx="4.71" ry="5.38" transform="translate(-58.33 38.49) rotate(-14.82)"/><ellipse class="cls-18" cx="117.01" cy="240.77" rx="2.11" ry="1.67" transform="translate(-143.23 303.53) rotate(-77.64)"/><path class="cls-19" d="M89.47,238.26a4.37,4.37,0,0,1-2.3.67c-1.68,0-4.65.35-6.34,2.59-2.57,3.41-.36,8.8,2.76,11.45,4.51,3.82,10.62,1.66,10.88,1.56a9.69,9.69,0,0,0,4.19-3.33c3.1-4.51,2.16-12.46-2.19-14.25C93.93,235.89,91,237.29,89.47,238.26Z"/><path class="cls-12" d="M151.58,240.08a18.56,18.56,0,0,0-35.71-7l34.45,13.82A18.34,18.34,0,0,0,151.58,240.08Z"/><path class="cls-13" d="M150,246.81L116.37,233.3A18.14,18.14,0,1,1,150,246.81Z"/><path class="cls-14" d="M148.45,245.92a0.8,0.8,0,0,0-.07.23l-30.54-12.25a1.33,1.33,0,0,0,.12-0.22c0.07-.12.14-0.23,0.21-0.35a2.19,2.19,0,0,0,.13-0.28,1.21,1.21,0,0,1,.09-0.13c0-.08,0-0.19.06-0.26a2.84,2.84,0,0,1,.34-0.38,1.84,1.84,0,0,1,.3-0.28,0.41,0.41,0,0,0,.12-0.32,1.69,1.69,0,0,1,.14-0.24,2.71,2.71,0,0,0,.1-0.35,3.82,3.82,0,0,1,.26-0.53,2.51,2.51,0,0,1,.2-0.36A1.09,1.09,0,0,1,120,230a1.48,1.48,0,0,1,.21,0v-0.09l0.16,0c0.05-.15,0-0.3.06-0.44a2.3,2.3,0,0,1,.19-0.41,1.12,1.12,0,0,1,.09-0.07,0.84,0.84,0,0,0,0-.13,0.72,0.72,0,0,1,.32-0.35c0.15-.09.31-0.13,0.46-0.2a1.3,1.3,0,0,1,.07-0.35c0-.1.08-0.19,0.12-0.29a1.72,1.72,0,0,1,.34-0.49,1.82,1.82,0,0,1,.69-0.48,1.56,1.56,0,0,0,.33-0.11,1.2,1.2,0,0,1,.2-0.14,0.48,0.48,0,0,0,.12,0,0.66,0.66,0,0,1,.2-0.13,0.93,0.93,0,0,0,.31-0.11,1.12,1.12,0,0,0,.29-0.29,2.18,2.18,0,0,1,.32-0.27,3.05,3.05,0,0,1,.37-0.24,1.38,1.38,0,0,1,.59-0.08,1.59,1.59,0,0,0,.57,0,3.09,3.09,0,0,0,.41-0.17,0.82,0.82,0,0,0,.21-0.13s0-.09,0-0.11a0.13,0.13,0,0,1,.1,0,1.75,1.75,0,0,1,.4-0.11,1.87,1.87,0,0,0,.41-0.07,2.53,2.53,0,0,1,.35-0.07,2.56,2.56,0,0,0,.57-0.35,2,2,0,0,1,.59,0,1,1,0,0,0,.28-0.17,3.88,3.88,0,0,0,.35-0.27,0.23,0.23,0,0,1,.2-0.08c0.17,0,.15,0,0.2.16a0.49,0.49,0,0,0,.54.18,1.94,1.94,0,0,0,.57-0.06l0.28-.1c0.17,0,1.21-.56,1.28-0.19h1.49a1.84,1.84,0,0,1,.46,0,0.72,0.72,0,0,1,.25.18,1.52,1.52,0,0,0,.28.15,3.69,3.69,0,0,0,.79.23,1.47,1.47,0,0,0,.35.06H137a1.65,1.65,0,0,1,.76.12,2.22,2.22,0,0,1,.27.17c0.14,0.1.3,0.14,0.43,0.25a0.65,0.65,0,0,0,.29.14l0.12,0.07a0.55,0.55,0,0,0,0,.06,0.77,0.77,0,0,0,.13,0,1,1,0,0,1,.14.06c0.11,0,.22,0,0.33,0s0.1,0,.17.06,0.17,0,.24,0a0.66,0.66,0,0,1,.15.11l0.22,0.11h0.07a0.66,0.66,0,0,1,.1.1c0.1,0.07.28,0,.29,0.24a0.44,0.44,0,0,1,.28.2,3,3,0,0,1,.29.26,0.86,0.86,0,0,0,.53.34,2.57,2.57,0,0,0,.67.19,1,1,0,0,1,.58.23,0.41,0.41,0,0,1,.1.22,0.43,0.43,0,0,0,.08.11,0.13,0.13,0,0,1,.09.07,0.18,0.18,0,0,0,0,.06,3.9,3.9,0,0,0,.33.35c0.12,0.11.25,0.22,0.36,0.34a0.94,0.94,0,0,0,.53.34l0,0.09a1.45,1.45,0,0,1,.17.07,0.2,0.2,0,0,1,.18,0,0.79,0.79,0,0,1,.05.42,1.22,1.22,0,0,0,.34.52,2.16,2.16,0,0,0,.49.49,1.15,1.15,0,0,1,.21.08s0.07,0.09.11,0.12a0.88,0.88,0,0,0,.19.05,0.56,0.56,0,0,0,.22.11,0.45,0.45,0,0,0,.12.25,1.79,1.79,0,0,1,.18.29,0.43,0.43,0,0,0,0,.14s0.06,0.06.08,0.09,0,0.1.06,0.14a1.72,1.72,0,0,1,.13.14,0.81,0.81,0,0,1,.05.32,0.76,0.76,0,0,0,.17.28,1.64,1.64,0,0,1,.3.25,1.24,1.24,0,0,1,.12.32,1.9,1.9,0,0,1,0,.2,1,1,0,0,0,.05.12,3.8,3.8,0,0,1,.18.39,0.39,0.39,0,0,0,.12.23,1.32,1.32,0,0,1,.23.21c0.09,0.14.15,0.31,0.23,0.46a1.9,1.9,0,0,1,.19.32,2.45,2.45,0,0,1,0,.42,1.6,1.6,0,0,0,.17.73,0.68,0.68,0,0,1,.12.25,2.34,2.34,0,0,1,.06.38c0,0.25,0,.52,0,0.77a1.8,1.8,0,0,0,0,.38c0,0.05,0,.11.05,0.17a0.27,0.27,0,0,0,0,.09,0.32,0.32,0,0,0,.09.07,1.25,1.25,0,0,1,.21.76,1.47,1.47,0,0,1,0,.37,1.69,1.69,0,0,1,0,.17l0,0.06a1.32,1.32,0,0,1,0,.17c0,0.05-.05.07-0.06,0.11a0.61,0.61,0,0,1,0,.17,0.28,0.28,0,0,0-.09.2c0,0.06,0,.13,0,0.2,0,0.31,0,.62,0,0.94,0,0.13,0,.25,0,0.38a1.27,1.27,0,0,0,0,.42,0.61,0.61,0,0,1,.11.21c0,0.05,0,.11,0,0.17a1.41,1.41,0,0,1,0,.2c0,0.12,0,.08-0.09.15a0.83,0.83,0,0,0-.14.39,2.24,2.24,0,0,0-.06.49,2.38,2.38,0,0,1-.1.81,2,2,0,0,1-.21.64,0.34,0.34,0,0,0-.09.19,0.9,0.9,0,0,0-.06.2c0,0.06,0,.12,0,0.17a0.59,0.59,0,0,0-.05.15,0.75,0.75,0,0,1,0,.19S148.47,245.88,148.45,245.92Z"/><path class="cls-15" d="M127.84,226.55a0.72,0.72,0,0,1,.38-0.94,11.92,11.92,0,0,1,9.49,0,0.71,0.71,0,0,1,.38.91l-4.7,12.17a0.25,0.25,0,0,1-.47,0Z"/><path class="cls-15" d="M146.44,234.68a0.72,0.72,0,0,1,.94.38,11.86,11.86,0,0,1,0,9.47,0.71,0.71,0,0,1-.91.38l-12.19-4.69a0.25,0.25,0,0,1,0-.47Z"/><path class="cls-15" d="M138.77,226.78a0.72,0.72,0,0,1,.93-0.39,11.89,11.89,0,0,1,6.73,6.68,0.71,0.71,0,0,1-.38.91l-11.94,5.29a0.25,0.25,0,0,1-.34-0.33Z"/><path class="cls-15" d="M120,234.2a0.72,0.72,0,0,1-.39-0.93,11.89,11.89,0,0,1,6.69-6.72,0.71,0.71,0,0,1,.91.38l5.3,11.92a0.25,0.25,0,0,1-.33.34Z"/><path class="cls-14" d="M129.5,237a2.52,2.52,0,0,0,2,1.3,0.13,0.13,0,0,0,.16-0.15,2.5,2.5,0,0,0-1.29-2A0.66,0.66,0,0,0,129.5,237Z"/><path class="cls-14" d="M136.62,237.22a2.52,2.52,0,0,1-2,1.32,0.13,0.13,0,0,1-.16-0.15,2.5,2.5,0,0,1,1.28-2A0.66,0.66,0,0,1,136.62,237.22Z"/><path class="cls-16" d="M132.7,228.35a17.75,17.75,0,0,0,.67,5.59c0.05,0.2.13,0.21,0.16,0a17,17,0,0,0,.08-5.55,1.74,1.74,0,0,0-.52-1A1.46,1.46,0,0,0,132.7,228.35Z"/><path class="cls-16" d="M130.07,227.55a16.69,16.69,0,0,0,1.62,4.59c0.08,0.16.14,0.14,0.12,0a16.61,16.61,0,0,0-1-4.76,1.42,1.42,0,0,0-.59-0.74A1.5,1.5,0,0,0,130.07,227.55Z"/><path class="cls-16" d="M135.25,226.83a11.63,11.63,0,0,0-.41,4c0,0.15.07,0.18,0.12,0.05a10.56,10.56,0,0,0,1-3.8,1.38,1.38,0,0,0-.23-0.86A0.85,0.85,0,0,0,135.25,226.83Z"/><path class="cls-16" d="M141.56,231.2a17.75,17.75,0,0,0-3.89,4.07c-0.12.17-.07,0.23,0.1,0.13a17,17,0,0,0,4.34-3.47,1.74,1.74,0,0,0,.46-1.05A1.46,1.46,0,0,0,141.56,231.2Z"/><path class="cls-16" d="M139.83,229.1a16.69,16.69,0,0,0-2.52,4.17c-0.07.16,0,.2,0.11,0.07a16.61,16.61,0,0,0,3-3.83,1.42,1.42,0,0,0,.2-0.93A1.5,1.5,0,0,0,139.83,229.1Z"/><path class="cls-16" d="M143.68,232.65a11.63,11.63,0,0,0-3.38,2.25c-0.11.1-.1,0.17,0,0.13a10.56,10.56,0,0,0,3.56-1.66,1.38,1.38,0,0,0,.52-0.72A0.85,0.85,0,0,0,143.68,232.65Z"/><path class="cls-16" d="M125.23,231.49a17.75,17.75,0,0,1,3.63,4.31c0.11,0.17.06,0.24-.11,0.13a17,17,0,0,1-4.11-3.73,1.74,1.74,0,0,1-.4-1.08A1.46,1.46,0,0,1,125.23,231.49Z"/><path class="cls-16" d="M126.45,229a16.69,16.69,0,0,1,2.25,4.32c0.06,0.17,0,.2-0.11.07a16.61,16.61,0,0,1-2.76-4,1.42,1.42,0,0,1-.14-0.94A1.5,1.5,0,0,1,126.45,229Z"/><path class="cls-16" d="M122.38,232.32a11.63,11.63,0,0,1,3.23,2.45c0.11,0.11.09,0.17,0,.13a10.56,10.56,0,0,1-3.45-1.88,1.38,1.38,0,0,1-.47-0.75A0.85,0.85,0,0,1,122.38,232.32Z"/><path class="cls-16" d="M145.58,240a17.75,17.75,0,0,1-5.62-.34c-0.2,0-.21-0.12,0-0.16a17,17,0,0,1,5.54-.41,1.74,1.74,0,0,1,1.06.46A1.46,1.46,0,0,1,145.58,240Z"/><path class="cls-16" d="M145.74,242.74a16.69,16.69,0,0,1-4.68-1.34c-0.16-.07-0.15-0.13,0-0.13a16.61,16.61,0,0,1,4.81.76,1.42,1.42,0,0,1,.77.55A1.5,1.5,0,0,1,145.74,242.74Z"/><path class="cls-16" d="M146.15,237.52a11.63,11.63,0,0,1-4,.65c-0.15,0-.18-0.06-0.06-0.12a10.56,10.56,0,0,1,3.73-1.21,1.38,1.38,0,0,1,.87.17A0.85,0.85,0,0,1,146.15,237.52Z"/><path class="cls-20" d="M91.81,240.86a3.68,3.68,0,0,1-4.31,1.36l-0.16-.06c-0.62-.24-1.87-0.88-1.79-1.39s1.5-.75,2.82-0.85a2,2,0,0,0,1-.35c0.93-.65,2.49-1.62,3-1.18s0,1.6-.4,2.24Z"/><path class="cls-12" d="M149.93,212.33a21.5,21.5,0,0,0-38.66-16.82l35.51,24.24A21.25,21.25,0,0,0,149.93,212.33Z"/><path class="cls-13" d="M146.5,219.55l-34.71-23.69A21,21,0,1,1,146.5,219.55Z"/><path class="cls-14" d="M144.93,218.15a0.93,0.93,0,0,0-.13.24L113.31,196.9a1.54,1.54,0,0,0,.19-0.22c0.1-.12.22-0.22,0.33-0.34A2.54,2.54,0,0,0,114,196a1.4,1.4,0,0,1,.14-0.13c0.05-.08.08-0.2,0.14-0.28a3.29,3.29,0,0,1,.48-0.34,2.13,2.13,0,0,1,.41-0.24,0.48,0.48,0,0,0,.22-0.33,2,2,0,0,1,.22-0.24,3.14,3.14,0,0,0,.2-0.37,4.42,4.42,0,0,1,.43-0.54,2.91,2.91,0,0,1,.31-0.36,1.26,1.26,0,0,1,.17-0.12,1.72,1.72,0,0,1,.25,0l0-.1,0.18,0c0.1-.16.07-0.34,0.18-0.48a2.66,2.66,0,0,1,.32-0.42,1.3,1.3,0,0,1,.12-0.05,1,1,0,0,0,.07-0.14,0.83,0.83,0,0,1,.45-0.31c0.19-.06.39-0.07,0.58-0.11a1.5,1.5,0,0,1,.16-0.38c0.07-.1.14-0.19,0.2-0.3a2,2,0,0,1,.5-0.47,2.11,2.11,0,0,1,.9-0.37,1.81,1.81,0,0,0,.4,0,1.39,1.39,0,0,1,.26-0.11,0.56,0.56,0,0,0,.15,0,0.77,0.77,0,0,1,.26-0.1,1.07,1.07,0,0,0,.37,0,1.3,1.3,0,0,0,.4-0.26,2.52,2.52,0,0,1,.43-0.23,3.54,3.54,0,0,1,.48-0.17,1.6,1.6,0,0,1,.68.06,1.85,1.85,0,0,0,.65.09,3.58,3.58,0,0,0,.51-0.09,1,1,0,0,0,.27-0.09s0-.1.07-0.11a0.15,0.15,0,0,1,.12,0,2,2,0,0,1,.48,0,2.17,2.17,0,0,0,.49,0,2.93,2.93,0,0,1,.41,0,3,3,0,0,0,.74-0.25,2.36,2.36,0,0,1,.68.1,1.17,1.17,0,0,0,.36-0.13,4.49,4.49,0,0,0,.47-0.21,0.27,0.27,0,0,1,.24,0c0.19,0,.16.08,0.19,0.24a0.57,0.57,0,0,0,.57.34,2.25,2.25,0,0,0,.67.07l0.34,0c0.21,0,1.5-.33,1.5.1l1.14,0.24,0.55,0.12a2.13,2.13,0,0,1,.52.12,0.83,0.83,0,0,1,.24.27,1.77,1.77,0,0,0,.28.24,4.28,4.28,0,0,0,.83.45,1.7,1.7,0,0,0,.38.15l0.53,0.12a1.91,1.91,0,0,1,.83.32,2.58,2.58,0,0,1,.26.25c0.13,0.15.31,0.23,0.42,0.4a0.76,0.76,0,0,0,.29.23l0.12,0.1a0.64,0.64,0,0,0,0,.08,0.89,0.89,0,0,0,.14,0,1.17,1.17,0,0,1,.15.1c0.12,0,.25,0,0.37.08s0.1,0.08.17,0.11,0.19,0,.27.06a0.76,0.76,0,0,1,.14.16l0.22,0.18,0.08,0a0.76,0.76,0,0,1,.09.14c0.1,0.1.31,0.13,0.27,0.34a0.51,0.51,0,0,1,.27.29,3.45,3.45,0,0,1,.26.36,1,1,0,0,0,.51.52,3,3,0,0,0,.71.38,1.19,1.19,0,0,1,.6.4,0.48,0.48,0,0,1,.06.27,0.5,0.5,0,0,0,.06.15,0.15,0.15,0,0,1,.09.1,0.21,0.21,0,0,0,0,.07,4.52,4.52,0,0,0,.29.48c0.11,0.16.22,0.31,0.32,0.47a1.09,1.09,0,0,0,.51.52s0,0.08,0,.11a1.67,1.67,0,0,1,.17.13,0.23,0.23,0,0,1,.19.1,0.91,0.91,0,0,1,0,.48,1.41,1.41,0,0,0,.25.67,2.51,2.51,0,0,0,.43.68,1.33,1.33,0,0,1,.22.14s0.05,0.12.09,0.16a1,1,0,0,0,.2.11,0.64,0.64,0,0,0,.23.19,0.52,0.52,0,0,0,.07.32,2.08,2.08,0,0,1,.13.37,0.5,0.5,0,0,0,0,.17s0.05,0.08.07,0.12,0,0.12,0,.17a2,2,0,0,1,.12.19,0.94,0.94,0,0,1,0,.38,0.88,0.88,0,0,0,.13.36,1.9,1.9,0,0,1,.28.36,1.43,1.43,0,0,1,0,.4,2.2,2.2,0,0,1-.06.23,1.21,1.21,0,0,0,0,.15,4.4,4.4,0,0,1,.1.49,0.45,0.45,0,0,0,.08.29,1.53,1.53,0,0,1,.21.29c0.07,0.18.1,0.39,0.15,0.58a2.21,2.21,0,0,1,.13.41,2.83,2.83,0,0,1-.1.48,1.86,1.86,0,0,0,0,.87,0.79,0.79,0,0,1,.08.31,2.71,2.71,0,0,1,0,.44c-0.07.29-.12,0.59-0.19,0.87a2.09,2.09,0,0,0-.08.43c0,0.06,0,.13,0,0.21a0.31,0.31,0,0,0,0,.09,0.37,0.37,0,0,0,.09.1,1.45,1.45,0,0,1,0,.92,1.7,1.7,0,0,1-.11.41,2,2,0,0,1-.09.19l-0.05.06a1.53,1.53,0,0,1-.07.18c0,0.06-.08.07-0.1,0.11a0.7,0.7,0,0,1-.07.19,0.32,0.32,0,0,0-.15.21c0,0.07,0,.15-0.05.23-0.08.35-.15,0.71-0.24,1.06,0,0.14-.05.28-0.09,0.43a1.48,1.48,0,0,0-.09.48,0.7,0.7,0,0,1,.08.26c0,0.06,0,.13,0,0.19a1.64,1.64,0,0,1-.05.23c0,0.13,0,.08-0.14.15a1,1,0,0,0-.25.4,2.6,2.6,0,0,0-.19.54,2.76,2.76,0,0,1-.32.89,2.32,2.32,0,0,1-.39.67,0.39,0.39,0,0,0-.15.2,1,1,0,0,0-.12.21c0,0.07,0,.14,0,0.19a0.68,0.68,0,0,0-.1.16,0.87,0.87,0,0,1-.05.22S145,218.11,144.93,218.15Z"/><path class="cls-15" d="M126.46,191.09a0.83,0.83,0,0,1,.66-1,13.81,13.81,0,0,1,10.74,2.34,0.82,0.82,0,0,1,.2,1.13l-8.35,12.59a0.29,0.29,0,0,1-.54-0.11Z"/><path class="cls-15" d="M145.46,204.94a0.83,0.83,0,0,1,1,.66,13.74,13.74,0,0,1-2.33,10.73,0.83,0.83,0,0,1-1.13.2l-12.62-8.35a0.29,0.29,0,0,1,.11-0.53Z"/><path class="cls-15" d="M138.76,194.09a0.83,0.83,0,0,1,1.15-.21,13.78,13.78,0,0,1,5.95,9.24,0.82,0.82,0,0,1-.66.93l-14.83,3a0.29,0.29,0,0,1-.3-0.46Z"/><path class="cls-15" d="M115.62,197.78a0.83,0.83,0,0,1-.21-1.15,13.78,13.78,0,0,1,9.25-5.93,0.83,0.83,0,0,1,.94.66l3,14.81a0.29,0.29,0,0,1-.46.3Z"/><path class="cls-14" d="M125.71,203.37c0,0.67.8,1.44,2,2a0.15,0.15,0,0,0,.22-0.14c0-1.27-.36-2.3-1-2.6A0.77,0.77,0,0,0,125.71,203.37Z"/><path class="cls-14" d="M133.72,205.36c-0.3.61-1.33,1-2.59,1a0.15,0.15,0,0,1-.14-0.21c0.51-1.16,1.28-1.95,1.95-2A0.77,0.77,0,0,1,133.72,205.36Z"/><path class="cls-16" d="M131.51,194.34a20.57,20.57,0,0,0-.64,6.49c0,0.24.1,0.27,0.18,0.05a19.71,19.71,0,0,0,1.48-6.26c0-.1,0-1.23-0.33-1.29S131.54,194.23,131.51,194.34Z"/><path class="cls-16" d="M128.72,192.78a19.34,19.34,0,0,0,.68,5.6c0,0.2.12,0.19,0.15,0a19.25,19.25,0,0,0,0-5.65,1.64,1.64,0,0,0-.49-1A1.74,1.74,0,0,0,128.72,192.78Z"/><path class="cls-16" d="M134.77,193.26a13.47,13.47,0,0,0-1.48,4.46c0,0.17,0,.22.13,0.09a12.23,12.23,0,0,0,2.06-4.05,1.6,1.6,0,0,0,0-1A1,1,0,0,0,134.77,193.26Z"/><path class="cls-16" d="M140.82,199.78a20.57,20.57,0,0,0-5.42,3.63c-0.18.16-.14,0.25,0.08,0.17a19.71,19.71,0,0,0,5.78-2.84c0.07-.06.93-0.8,0.79-1.08S140.92,199.74,140.82,199.78Z"/><path class="cls-16" d="M139.38,197a19.34,19.34,0,0,0-3.89,4.09c-0.12.16-.07,0.22,0.1,0.11a19.25,19.25,0,0,0,4.36-3.58,1.64,1.64,0,0,0,.45-1A1.74,1.74,0,0,0,139.38,197Z"/><path class="cls-16" d="M142.85,201.95a13.47,13.47,0,0,0-4.39,1.7c-0.16.09-.15,0.16,0,0.15a12.23,12.23,0,0,0,4.44-1,1.6,1.6,0,0,0,.76-0.68A1,1,0,0,0,142.85,201.95Z"/><path class="cls-16" d="M122.27,196a20.57,20.57,0,0,1,3,5.78c0.08,0.23,0,.28-0.15.12a19.71,19.71,0,0,1-3.72-5.25c0-.09-0.44-1.15-0.18-1.32S122.19,195.94,122.27,196Z"/><path class="cls-16" d="M124.26,193.54a19.34,19.34,0,0,1,1.47,5.45c0,0.2,0,.23-0.14,0a19.25,19.25,0,0,1-2.12-5.23,1.64,1.64,0,0,1,.08-1.1A1.74,1.74,0,0,1,124.26,193.54Z"/><path class="cls-16" d="M118.84,196.25a13.47,13.47,0,0,1,3,3.58c0.1,0.15.05,0.22-.08,0.13a12.23,12.23,0,0,1-3.43-3,1.6,1.6,0,0,1-.35-1A1,1,0,0,1,118.84,196.25Z"/><path class="cls-16" d="M143.16,210.77a20.57,20.57,0,0,1-6.27-1.79c-0.22-.09-0.21-0.19,0-0.19a19.71,19.71,0,0,1,6.37.92c0.09,0,1.13.47,1.08,0.78S143.27,210.77,143.16,210.77Z"/><path class="cls-16" d="M142.66,213.88a19.34,19.34,0,0,1-5-2.69c-0.17-.12-0.14-0.19.06-0.13a19.25,19.25,0,0,1,5.25,2.07,1.64,1.64,0,0,1,.74.81A1.74,1.74,0,0,1,142.66,213.88Z"/><path class="cls-16" d="M144.43,208.08a13.47,13.47,0,0,1-4.7-.26c-0.17,0-.19-0.11,0-0.15a12.23,12.23,0,0,1,4.53-.43,1.6,1.6,0,0,1,.94.41A1,1,0,0,1,144.43,208.08Z"/><ellipse class="cls-17" cx="107.48" cy="247.06" rx="5.52" ry="4.37" transform="translate(-40.87 22.15) rotate(-9.9)"/><ellipse class="cls-18" cx="110.51" cy="245.51" rx="1.67" ry="2.11" transform="translate(-152.97 300.92) rotate(-77.64)"/><path class="cls-21" d="M87.66,252.88c-4.74-1.74-7-6.41-5.76-9.84a5.59,5.59,0,0,1,1-1.76,0.68,0.68,0,0,1,1.12.78,7.19,7.19,0,0,0-.77,2.15A8.39,8.39,0,0,0,87.66,252.88Z"/><path class="cls-21" d="M97.07,250.53c2.94-4.11,2.17-9.22-.76-11.37a5.59,5.59,0,0,0-1.84-.89,0.68,0.68,0,0,0-.49,1.27,7.19,7.19,0,0,1,1.84,1.34A8.39,8.39,0,0,1,97.07,250.53Z"/><path class="cls-22" d="M156.89,237.1v12.18a8,8,0,0,1-8,8H79.06a7.83,7.83,0,0,1-7.63-6.06c-0.07-.58-0.15-1.17-0.2-1.76,20.22,4.28,33.88,1.17,42.9-2.87,8.19-3.67,16.44-9.85,25.41-11.88h0a24,24,0,0,1,11.63.06A24.23,24.23,0,0,1,156.89,237.1Z"/><path class="cls-23" d="M149.15,211.43a3.56,3.56,0,0,0,1.33-1,3.65,3.65,0,0,0,.79-2.25A2.24,2.24,0,0,0,152,206a2.19,2.19,0,0,0-1-1.27c-0.58-1.88-1.72-3.05-2.73-3a1.48,1.48,0,0,0-.82.35,2.39,2.39,0,0,0-1.95-1.06,1.89,1.89,0,0,0-.9.32,1.55,1.55,0,0,0-1.57-.46,1.39,1.39,0,0,0-.67.5,1.64,1.64,0,0,0-1.81-.14,1.08,1.08,0,0,0-.33.41,1.13,1.13,0,0,0-1.35,0,0.8,0.8,0,0,0-.21.48,1.61,1.61,0,0,0-1.17.06,1.55,1.55,0,0,0-.6.5,2.28,2.28,0,0,0-1.09,1,2.34,2.34,0,0,0-.14,1.84,2.3,2.3,0,0,0-1.29,1.46,2.16,2.16,0,0,0,.09,1.32,1.58,1.58,0,0,0,.74,1.65,1.08,1.08,0,0,0,.77,1.73,0.75,0.75,0,0,0-.22.46,1.61,1.61,0,0,0,1.43,1.27,1.14,1.14,0,0,0,0,.77,1.43,1.43,0,0,0,1.51.82,1.81,1.81,0,0,0,.14.39A2.92,2.92,0,0,0,141,216.7a1.68,1.68,0,0,0,.4.86c0.75,0.82,2.47.79,4.25-.17a1.65,1.65,0,0,0,.92,0,1.93,1.93,0,0,0,1.32-1.54A5.6,5.6,0,0,0,149.15,211.43Z"/><path class="cls-7" d="M150.09,204.09c-0.11-.2-0.85-1.54-1.47-1.55a0.45,0.45,0,0,0-.35.12,0.57,0.57,0,0,0,0,.51C148.48,203.83,149.89,204.06,150.09,204.09Z"/><path class="cls-8" d="M149.07,205.94c-0.11-.2-0.85-1.54-1.47-1.55a0.45,0.45,0,0,0-.35.12,0.57,0.57,0,0,0,0,.51C147.46,205.69,148.86,205.91,149.07,205.94Z"/><path class="cls-8" d="M148,207.67c-0.14-.18-1.09-1.39-1.7-1.3a0.45,0.45,0,0,0-.33.17,0.57,0.57,0,0,0,.07.5C146.4,207.68,147.82,207.67,148,207.67Z"/><path class="cls-7" d="M147,209.3c-0.14-.16-1.06-1.24-1.63-1.14a0.42,0.42,0,0,0-.3.17,0.53,0.53,0,0,0,.09.47C145.53,209.37,146.85,209.31,147,209.3Z"/><path class="cls-7" d="M146.34,211.27c-0.17-.13-1.3-1-1.83-0.76a0.42,0.42,0,0,0-.26.23,0.53,0.53,0,0,0,.18.44C144.87,211.66,146.15,211.33,146.34,211.27Z"/><path class="cls-7" d="M145.62,213.26c-0.16-.14-1.24-1.06-1.78-0.86a0.42,0.42,0,0,0-.27.22,0.53,0.53,0,0,0,.16.45C144.14,213.57,145.43,213.3,145.62,213.26Z"/><path class="cls-7" d="M144.31,217.11c-0.22.06-1.71,0.43-2.14,0a0.45,0.45,0,0,1-.15-0.34,0.57,0.57,0,0,1,.37-0.35C143,216.1,144.15,217,144.31,217.11Z"/><path class="cls-7" d="M145,215.1c-0.22.06-1.71,0.43-2.14,0a0.45,0.45,0,0,1-.15-0.34,0.57,0.57,0,0,1,.37-0.35C143.69,214.09,144.81,215,145,215.1Z"/><path class="cls-7" d="M145.45,202c0.2,0,1.53.39,1.68,0.92a0.41,0.41,0,0,1,0,.33,0.51,0.51,0,0,1-.44.13C146,203.36,145.53,202.19,145.45,202Z"/><path class="cls-8" d="M144.33,204.1c0.2,0,1.57.14,1.8,0.64a0.41,0.41,0,0,1,0,.33,0.51,0.51,0,0,1-.41.19C145.12,205.33,144.43,204.26,144.33,204.1Z"/><path class="cls-7" d="M143.18,206.56c0.2,0,1.57-.13,1.89.32a0.41,0.41,0,0,1,.09.32,0.51,0.51,0,0,1-.37.26C144.17,207.63,143.3,206.69,143.18,206.56Z"/><path class="cls-7" d="M142.38,208.57c0.19,0,1.47-.06,1.74.37a0.38,0.38,0,0,1,.07.3,0.48,0.48,0,0,1-.36.23C143.26,209.6,142.49,208.7,142.38,208.57Z"/><path class="cls-7" d="M141.61,210.74c0.18,0,1.43-.33,1.78.05a0.38,0.38,0,0,1,.12.28,0.48,0.48,0,0,1-.31.29C142.66,211.6,141.74,210.85,141.61,210.74Z"/><path class="cls-7" d="M140.6,213c0.18,0,1.43-.34,1.78,0a0.38,0.38,0,0,1,.13.28,0.48,0.48,0,0,1-.31.29C141.65,213.89,140.73,213.15,140.6,213Z"/><path class="cls-7" d="M139.77,215c0.15,0.13,1.19,1,1.72.85a0.41,0.41,0,0,0,.26-0.21,0.51,0.51,0,0,0-.15-0.43C141.2,214.74,140,215,139.77,215Z"/><path class="cls-7" d="M144.58,203c-0.07-.15-0.58-1.16-1.1-1.1a0.48,0.48,0,0,0-.31.13,0.45,0.45,0,0,0-.05.41C143.24,203,144.41,203,144.58,203Z"/><path class="cls-7" d="M143.58,205.23c-0.07-.16-0.54-1.21-1-1.16a0.44,0.44,0,0,0-.3.13,0.5,0.5,0,0,0-.06.42C142.29,205.16,143.41,205.23,143.58,205.23Z"/><path class="cls-7" d="M142.67,207.4c-0.09-.15-0.73-1.15-1.2-1a0.4,0.4,0,0,0-.26.18,0.55,0.55,0,0,0,0,.44C141.43,207.51,142.51,207.41,142.67,207.4Z"/><path class="cls-7" d="M141.71,209.46c-0.11-.12-0.87-0.9-1.28-0.7a0.38,0.38,0,0,0-.21.21,0.5,0.5,0,0,0,.1.4C140.6,209.8,141.57,209.5,141.71,209.46Z"/><path class="cls-9" d="M140.78,211.62c-0.13-.11-1-0.86-1.36-0.64a0.34,0.34,0,0,0-.18.22,0.55,0.55,0,0,0,.15.39C139.73,212,140.64,211.67,140.78,211.62Z"/><path class="cls-9" d="M139.81,213.77c-0.15-.08-1.14-0.65-1.46-0.35a0.34,0.34,0,0,0-.13.25,0.55,0.55,0,0,0,.22.36C138.87,214.37,139.69,213.85,139.81,213.77Z"/><path class="cls-7" d="M140.75,202.45c0.16,0,1.24-.36,1.56.06a0.48,0.48,0,0,1,.12.31,0.45,0.45,0,0,1-.26.32C141.7,203.39,140.87,202.57,140.75,202.45Z"/><path class="cls-7" d="M139.7,204.9c0.16-.06,1.25-0.43,1.56,0a0.44,0.44,0,0,1,.11.31,0.5,0.5,0,0,1-.27.33C140.63,205.8,139.82,205,139.7,204.9Z"/><path class="cls-7" d="M138.81,207.11c0.17,0,1.34-.25,1.57.18a0.4,0.4,0,0,1,.05.31,0.55,0.55,0,0,1-.34.29C139.57,208.09,138.91,207.23,138.81,207.11Z"/><path class="cls-9" d="M138,209.18c0.16,0,1.26,0,1.39.46a0.38,0.38,0,0,1,0,.3,0.5,0.5,0,0,1-.36.2C138.48,210.23,138,209.31,138,209.18Z"/><path class="cls-9" d="M136.79,211.7c0.17,0,1.3.13,1.39,0.56a0.34,0.34,0,0,1,0,.28,0.55,0.55,0,0,1-.39.16C137.21,212.75,136.84,211.84,136.79,211.7Z"/><path class="cls-7" d="M150,205.14c0.2,0,1.53.39,1.68,0.92a0.41,0.41,0,0,1,0,.33,0.51,0.51,0,0,1-.44.13C150.57,206.48,150.06,205.31,150,205.14Z"/><path class="cls-7" d="M149,207.06c0.2,0,1.57.14,1.8,0.64a0.41,0.41,0,0,1,0,.33,0.51,0.51,0,0,1-.41.19C149.75,208.29,149.05,207.22,149,207.06Z"/><path class="cls-7" d="M146.8,210.56c0.2,0,1.57-.13,1.89.32a0.41,0.41,0,0,1,.09.32,0.51,0.51,0,0,1-.37.26C147.79,211.63,146.92,210.7,146.8,210.56Z"/><path class="cls-7" d="M146.39,212.34c0.19,0,1.47-.06,1.74.37a0.38,0.38,0,0,1,.07.3,0.48,0.48,0,0,1-.36.23C147.27,213.37,146.5,212.47,146.39,212.34Z"/><path class="cls-7" d="M145.87,214.36c0.18,0,1.43-.33,1.78.05a0.38,0.38,0,0,1,.12.28,0.48,0.48,0,0,1-.31.29C146.92,215.22,146,214.48,145.87,214.36Z"/><path class="cls-7" d="M145.09,216.27c0.18,0,1.43-.34,1.78,0a0.38,0.38,0,0,1,.13.28,0.48,0.48,0,0,1-.31.29C146.15,217.12,145.23,216.38,145.09,216.27Z"/><path class="cls-7" d="M147.85,208.8c0.2,0,1.57.14,1.8,0.64a0.41,0.41,0,0,1,0,.33,0.51,0.51,0,0,1-.41.19C148.64,210,148,209,147.85,208.8Z"/><path class="cls-7" d="M140.57,203.27c-0.1-.11-0.82-0.88-1.27-0.69a0.44,0.44,0,0,0-.24.19,0.42,0.42,0,0,0,.06.38C139.36,203.57,140.42,203.31,140.57,203.27Z"/><path class="cls-7" d="M139.66,205.8c-0.1-.12-0.79-0.94-1.23-0.77a0.41,0.41,0,0,0-.24.19,0.46,0.46,0,0,0,.05.39C138.49,206.07,139.51,205.84,139.66,205.8Z"/><path class="cls-24" d="M98.86,251.58a0.24,0.24,0,0,0,0-.12L91.08,110.62c-2.49.06-5,.13-7.42,0.22l7.8,141a1.27,1.27,0,0,0,1.34,1.2l3.38-.19,1.48-.07a1.3,1.3,0,0,0,1.21-1.22v0Z"/><path class="cls-25" d="M90.4,98.57c-0.36,0-.71,0-1.07.05h-0.2c-0.49,0-1,0-1.47.06L83,99l0.34,6.23,0.31,5.64c2.45-.09,4.93-0.16,7.42-0.22Z"/><path class="cls-26" d="M84,116.37l0.61,11a53.4,53.4,0,0,0,4.8-5.09c0.79-1,1.52-1.9,2.18-2.82L90.91,108c-0.93,1.32-2,2.7-3.14,4.11C86.47,113.7,85.19,115.11,84,116.37Z"/><path class="cls-26" d="M85.22,139.17l0.61,11a53.4,53.4,0,0,0,4.8-5.09c0.79-1,1.52-1.9,2.18-2.82l-0.64-11.4c-0.93,1.32-2,2.7-3.14,4.11C87.73,136.5,86.45,137.91,85.22,139.17Z"/><path class="cls-20" d="M87.84,186.67l0.61,11a53.4,53.4,0,0,0,4.8-5.09c0.79-1,1.52-1.9,2.18-2.82l-0.64-11.4c-0.93,1.32-2,2.7-3.14,4.11C90.36,184,89.08,185.41,87.84,186.67Z"/><path class="cls-20" d="M89.21,211.38l0.61,11a53.4,53.4,0,0,0,4.8-5.09c0.79-1,1.52-1.9,2.18-2.82L96.16,203c-0.93,1.32-2,2.7-3.14,4.11C91.73,208.71,90.44,210.12,89.21,211.38Z"/><path class="cls-26" d="M86.51,162.6l0.61,11a53.4,53.4,0,0,0,4.8-5.09c0.79-1,1.52-1.9,2.18-2.82l-0.64-11.4c-0.93,1.32-2,2.7-3.14,4.11C89,159.93,87.75,161.34,86.51,162.6Z"/><path class="cls-20" d="M90.47,234.17l0.61,11a53.4,53.4,0,0,0,4.8-5.09c0.79-1,1.52-1.9,2.18-2.82l-0.64-11.4c-0.93,1.32-2,2.7-3.14,4.11C93,231.5,91.7,232.91,90.47,234.17Z"/><path class="cls-27" d="M97.65,252.81l-1.48.08L87.76,100.56l-0.1-1.87,1.47-.07,0,0.23Z"/><path class="cls-25" d="M90.4,98.56l-1.07.05h-0.2l-1.47.07Q85.29,98.82,83,99l-0.26-4.75L82.11,83q-0.27-5-.55-10a1.27,1.27,0,0,1,1.09-1.34c0.77-.11,1.6-0.19,2.47-0.25s1.72-.06,2.5,0h0.12A1.26,1.26,0,0,1,89,72.58l0.11,2Z"/><path class="cls-20" d="M89,72.59l0.11,2c-0.69,1.05-1.46,2.15-2.33,3.27A48.2,48.2,0,0,1,82.12,83L81.56,73a1.27,1.27,0,0,1,1.09-1.34c0.77-.11,1.59-0.19,2.47-0.25s1.8-.06,2.62,0A1.27,1.27,0,0,1,89,72.59Z"/><path class="cls-27" d="M89.12,98.62l-1.47.07-0.53-9.43L86.52,78.18h0l-0.37-6.78,0.32,0h1.15l0.27,5h0l0.62,11.14Z"/><path class="cls-9" d="M138.45,208.49c-0.11-.12-0.84-1-1.25-0.77a0.37,0.37,0,0,0-.21.2,0.51,0.51,0,0,0,.08.4C137.33,208.78,138.31,208.53,138.45,208.49Z"/><path class="cls-9" d="M137.29,210.6c-0.1-.11-0.81-0.84-1.19-0.65a0.36,0.36,0,0,0-.19.19,0.46,0.46,0,0,0,.09.37C136.25,210.92,137.15,210.64,137.29,210.6Z"/><path class="cls-12" d="M95.84,195.81a18.56,18.56,0,0,0-10.63,34.8l17.31-32.83A18.34,18.34,0,0,0,95.84,195.81Z"/><path class="cls-13" d="M102.37,198L85.46,230.13A18.14,18.14,0,1,1,102.37,198Z"/><path class="cls-14" d="M101.32,199.52a0.8,0.8,0,0,0,.22.09L86.2,228.73a1.33,1.33,0,0,0-.21-0.14l-0.32-.25a2.19,2.19,0,0,0-.27-0.16,1.21,1.21,0,0,1-.12-0.11c-0.07,0-.18,0-0.25-0.09a2.84,2.84,0,0,1-.34-0.38,1.84,1.84,0,0,1-.25-0.33,0.41,0.41,0,0,0-.31-0.15A1.69,1.69,0,0,1,83.9,227a2.71,2.71,0,0,0-.33-0.13,3.82,3.82,0,0,1-.5-0.32,2.51,2.51,0,0,1-.34-0.23,1.09,1.09,0,0,1-.12-0.13,1.48,1.48,0,0,1,0-.21l-0.09,0a1.21,1.21,0,0,1,0-.16c-0.14-.07-0.3,0-0.43-0.11a2.3,2.3,0,0,1-.39-0.23,1.12,1.12,0,0,1-.06-0.1,0.84,0.84,0,0,0-.13-0.05,0.72,0.72,0,0,1-.31-0.35c-0.07-.16-0.1-0.33-0.15-0.48a1.3,1.3,0,0,1-.34-0.1l-0.28-.15a1.72,1.72,0,0,1-.45-0.38,1.82,1.82,0,0,1-.4-0.74,1.56,1.56,0,0,0-.08-0.34,1.2,1.2,0,0,1-.12-0.22,0.48,0.48,0,0,0,0-.13,0.66,0.66,0,0,1-.11-0.21,0.93,0.93,0,0,0-.07-0.31,1.12,1.12,0,0,0-.26-0.32,2.18,2.18,0,0,1-.24-0.35,3.05,3.05,0,0,1-.2-0.4,1.38,1.38,0,0,1,0-.59,1.59,1.59,0,0,0,0-.57,3.09,3.09,0,0,0-.13-0.43,0.82,0.82,0,0,0-.11-0.22s-0.09,0-.1-0.05a0.13,0.13,0,0,1,0-.1,1.75,1.75,0,0,1-.07-0.41,1.87,1.87,0,0,0,0-.42,2.53,2.53,0,0,1,0-.35A2.56,2.56,0,0,0,77.7,217a2,2,0,0,1,0-.59,1,1,0,0,0-.14-0.3,3.88,3.88,0,0,0-.23-0.38,0.23,0.23,0,0,1-.06-0.21c0-.17.05-0.15,0.18-0.19a0.49,0.49,0,0,0,.24-0.52,1.94,1.94,0,0,0,0-.58c0-.09-0.05-0.18-0.07-0.29s-0.43-1.26-.06-1.29c0-.34.07-0.67,0.1-1,0-.16,0-0.32,0-0.48a1.84,1.84,0,0,1,.05-0.45,0.72,0.72,0,0,1,.21-0.23,1.52,1.52,0,0,0,.18-0.26,3.69,3.69,0,0,0,.31-0.76,1.47,1.47,0,0,0,.09-0.34c0-.16,0-0.31,0-0.46a1.65,1.65,0,0,1,.19-0.74A2.22,2.22,0,0,1,79,207.7c0.12-.13.17-0.29,0.3-0.4a0.65,0.65,0,0,0,.17-0.27l0.08-.11a0.55,0.55,0,0,0,.07,0,0.77,0.77,0,0,0,0-.13,1,1,0,0,1,.07-0.13c0-.1,0-0.22,0-0.33s0.06-.09.07-0.16,0-.17,0-0.24a0.66,0.66,0,0,1,.12-0.13l0.13-.2a0.72,0.72,0,0,0,0-.07,0.66,0.66,0,0,1,.11-0.09c0.08-.1.08-0.28,0.27-0.26a0.44,0.44,0,0,1,.22-0.26A3,3,0,0,1,81,204.6a0.86,0.86,0,0,0,.39-0.49,2.57,2.57,0,0,0,.26-0.65,1,1,0,0,1,.28-0.56,0.41,0.41,0,0,1,.23-0.08l0.12-.07a0.13,0.13,0,0,1,.08-0.09h0.06a3.9,3.9,0,0,0,.39-0.29c0.12-.11.25-0.22,0.37-0.32a0.94,0.94,0,0,0,.39-0.49h0.09a1.45,1.45,0,0,1,.09-0.16,0.2,0.2,0,0,1,.06-0.17,0.79,0.79,0,0,1,.42,0,1.22,1.22,0,0,0,.55-0.28,2.16,2.16,0,0,0,.54-0.44,1.15,1.15,0,0,1,.1-0.21s0.1-.06.13-0.1A0.88,0.88,0,0,0,85.6,200a0.56,0.56,0,0,0,.14-0.21,0.45,0.45,0,0,0,.26-0.09,1.79,1.79,0,0,1,.3-0.15,0.43,0.43,0,0,0,.15,0s0.06-.05.1-0.07,0.11,0,.14,0a1.72,1.72,0,0,1,.15-0.12,0.81,0.81,0,0,1,.33,0,0.76,0.76,0,0,0,.3-0.14,1.64,1.64,0,0,1,.28-0.27,1.24,1.24,0,0,1,.33-0.08,1.9,1.9,0,0,1,.2,0,1,1,0,0,0,.12,0,3.8,3.8,0,0,1,.41-0.14,0.39,0.39,0,0,0,.24-0.1,1.32,1.32,0,0,1,.23-0.21c0.15-.07.32-0.12,0.48-0.18a1.9,1.9,0,0,1,.34-0.16,2.45,2.45,0,0,1,.42,0,1.6,1.6,0,0,0,.74-0.09,0.68,0.68,0,0,1,.26-0.1,2.34,2.34,0,0,1,.38,0l0.77,0.08a1.8,1.8,0,0,0,.38,0l0.17,0a0.27,0.27,0,0,0,.08,0,0.32,0.32,0,0,0,.08-0.09,1.25,1.25,0,0,1,.78-0.13,1.47,1.47,0,0,1,.37.06l0.17,0.05,0.06,0a1.32,1.32,0,0,1,.17,0C95,197.94,95,198,95,198a0.6,0.6,0,0,1,.17,0,0.28,0.28,0,0,0,.19.11l0.2,0,0.94,0.1,0.38,0a1.27,1.27,0,0,0,.42,0,0.61,0.61,0,0,1,.22-0.09l0.17,0a1.41,1.41,0,0,1,.2,0c0.12,0,.07,0,0.14.1a0.83,0.83,0,0,0,.37.18,2.24,2.24,0,0,0,.48.11,2.38,2.38,0,0,1,.8.19,2,2,0,0,1,.61.27,0.34,0.34,0,0,0,.18.11,0.9,0.9,0,0,0,.19.08c0.06,0,.12,0,0.17,0a0.59,0.59,0,0,0,.14.07,0.75,0.75,0,0,1,.19,0S101.28,199.5,101.32,199.52Z"/><path class="cls-15" d="M79.93,218a0.72,0.72,0,0,1-.89-0.47,11.92,11.92,0,0,1,1-9.44,0.71,0.71,0,0,1,.95-0.28l11.62,5.93a0.25,0.25,0,0,1,0,.47Z"/><path class="cls-15" d="M89.94,200.36a0.72,0.72,0,0,1,.47-0.89,11.86,11.86,0,0,1,9.43.95,0.71,0.71,0,0,1,.28.95L94.2,213a0.25,0.25,0,0,1-.47,0Z"/><path class="cls-15" d="M81.29,207.18a0.72,0.72,0,0,1-.3-1,11.89,11.89,0,0,1,7.34-6,0.71,0.71,0,0,1,.87.47l4,12.42a0.25,0.25,0,0,1-.36.3Z"/><path class="cls-15" d="M86.73,226.66a0.72,0.72,0,0,1-1,.3,11.89,11.89,0,0,1-6-7.35,0.71,0.71,0,0,1,.47-0.87l12.4-4a0.25,0.25,0,0,1,.3.36Z"/><path class="cls-14" d="M90.53,217.45a2.52,2.52,0,0,0,1.5-1.87,0.13,0.13,0,0,0-.14-0.17,2.5,2.5,0,0,0-2.14,1.08A0.66,0.66,0,0,0,90.53,217.45Z"/><path class="cls-14" d="M91.45,210.39a2.52,2.52,0,0,1,1.1,2.13,0.13,0.13,0,0,1-.17.14,2.5,2.5,0,0,1-1.88-1.48A0.66,0.66,0,0,1,91.45,210.39Z"/><path class="cls-16" d="M82.22,213.37a17.75,17.75,0,0,0,5.63-.09c0.21,0,.22-0.11,0-0.16a17,17,0,0,0-5.52-.65,1.74,1.74,0,0,0-1.08.41A1.46,1.46,0,0,0,82.22,213.37Z"/><path class="cls-16" d="M81.16,215.91a16.69,16.69,0,0,0,4.74-1.13c0.17-.06.15-0.13,0-0.13a16.61,16.61,0,0,0-4.84.55,1.42,1.42,0,0,0-.8.51A1.5,1.5,0,0,0,81.16,215.91Z"/><path class="cls-16" d="M81,210.68a11.63,11.63,0,0,0,4,.83c0.15,0,.19,0,0.06-0.12A10.56,10.56,0,0,0,81.34,210a1.38,1.38,0,0,0-.87.14A0.85,0.85,0,0,0,81,210.68Z"/><path class="cls-16" d="M86,204.85a17.75,17.75,0,0,0,3.65,4.29c0.15,0.14.22,0.1,0.14-.08a17,17,0,0,0-3-4.68,1.74,1.74,0,0,0-1-.57A1.46,1.46,0,0,0,86,204.85Z"/><path class="cls-16" d="M83.7,206.36a16.69,16.69,0,0,0,3.88,2.94c0.15,0.09.2,0,.08-0.1a16.61,16.61,0,0,0-3.5-3.39,1.42,1.42,0,0,0-.9-0.29A1.5,1.5,0,0,0,83.7,206.36Z"/><path class="cls-16" d="M87.63,202.9a11.63,11.63,0,0,0,1.88,3.6c0.09,0.12.16,0.11,0.13,0a10.56,10.56,0,0,0-1.28-3.71,1.38,1.38,0,0,0-.66-0.59A0.85,0.85,0,0,0,87.63,202.9Z"/><path class="cls-16" d="M84.57,221.13A17.75,17.75,0,0,1,89.23,218c0.19-.09.24,0,0.11,0.12a17,17,0,0,1-4.14,3.71,1.74,1.74,0,0,1-1.12.28A1.46,1.46,0,0,1,84.57,221.13Z"/><path class="cls-16" d="M82.24,219.66a16.69,16.69,0,0,1,4.53-1.79c0.17,0,.2,0,0.05.12a16.61,16.61,0,0,1-4.28,2.33,1.42,1.42,0,0,1-.95,0A1.5,1.5,0,0,1,82.24,219.66Z"/><path class="cls-16" d="M85.1,224a11.63,11.63,0,0,1,2.78-3c0.12-.1.18-0.07,0.12,0.06a10.56,10.56,0,0,1-2.22,3.23,1.38,1.38,0,0,1-.79.39A0.85,0.85,0,0,1,85.1,224Z"/><path class="cls-16" d="M95.16,201.77a17.75,17.75,0,0,1-.92,5.56c-0.06.2-.14,0.2-0.16,0a17,17,0,0,1,.16-5.55,1.74,1.74,0,0,1,.56-1A1.46,1.46,0,0,1,95.16,201.77Z"/><path class="cls-16" d="M97.88,201.89a16.69,16.69,0,0,1-1.82,4.52c-0.09.16-.15,0.13-0.12,0a16.61,16.61,0,0,1,1.26-4.71,1.42,1.42,0,0,1,.63-0.71A1.5,1.5,0,0,1,97.88,201.89Z"/><path class="cls-16" d="M92.73,200.94A11.63,11.63,0,0,1,93,205c0,0.15-.08.18-0.12,0A10.56,10.56,0,0,1,92,201.2a1.38,1.38,0,0,1,.26-0.84A0.85,0.85,0,0,1,92.73,200.94Z"/><path class="cls-7" d="M137.25,203.59c0.13-.06,1-0.47,1.18-0.1a0.43,0.43,0,0,1,.06.28,0.56,0.56,0,0,1-.23.33C137.88,204.39,137.33,203.7,137.25,203.59Z"/><path class="cls-9" d="M136.49,206.1c0.13,0,1-.37,1.18,0a0.43,0.43,0,0,1,0,.29,0.63,0.63,0,0,1-.29.31C137,207,136.55,206.21,136.49,206.1Z"/><path class="cls-9" d="M135.47,208.29c0.12,0,1-.1,1,0.3a0.46,0.46,0,0,1,0,.28,0.5,0.5,0,0,1-.29.22C135.75,209.23,135.5,208.41,135.47,208.29Z"/><ellipse class="cls-28" cx="148.12" cy="175.75" rx="4.71" ry="5.38" transform="translate(-40.02 43.73) rotate(-14.82)"/><ellipse class="cls-29" cx="146.32" cy="173.01" rx="2.11" ry="1.67" transform="translate(-54 278.91) rotate(-77.64)"/><ellipse class="cls-28" cx="83.27" cy="220.4" rx="5.52" ry="4.37" transform="translate(-36.65 17.6) rotate(-9.9)"/><ellipse class="cls-29" cx="86.46" cy="218.85" rx="1.67" ry="2.11" transform="translate(-145.82 256.47) rotate(-77.64)"/><path class="cls-30" d="M90.59,195.81a3.56,3.56,0,0,0,1.33-1,3.65,3.65,0,0,0,.79-2.25,2.24,2.24,0,0,0,.71-2.21,2.19,2.19,0,0,0-1-1.27c-0.58-1.88-1.72-3.05-2.73-3a1.48,1.48,0,0,0-.82.35A2.39,2.39,0,0,0,87,185.39a1.89,1.89,0,0,0-.9.32,1.55,1.55,0,0,0-1.57-.46,1.39,1.39,0,0,0-.67.5,1.64,1.64,0,0,0-1.81-.14,1.08,1.08,0,0,0-.33.41,1.13,1.13,0,0,0-1.35,0,0.8,0.8,0,0,0-.21.48,1.61,1.61,0,0,0-1.17.06,1.55,1.55,0,0,0-.6.5,2.28,2.28,0,0,0-1.09,1,2.34,2.34,0,0,0-.14,1.84,2.3,2.3,0,0,0-1.29,1.46,2.16,2.16,0,0,0,.09,1.32,1.58,1.58,0,0,0,.74,1.65,1.08,1.08,0,0,0,.77,1.73,0.75,0.75,0,0,0-.22.46,1.61,1.61,0,0,0,1.43,1.27,1.14,1.14,0,0,0,0,.77,1.43,1.43,0,0,0,1.51.82,1.81,1.81,0,0,0,.14.39,2.92,2.92,0,0,0,2.24,1.28,1.68,1.68,0,0,0,.4.86c0.75,0.82,2.47.79,4.25-.17a1.65,1.65,0,0,0,.92,0,1.93,1.93,0,0,0,1.32-1.54A5.6,5.6,0,0,0,90.59,195.81Z"/><path class="cls-7" d="M91.54,188.47c-0.11-.2-0.85-1.54-1.47-1.55a0.45,0.45,0,0,0-.35.12,0.57,0.57,0,0,0,0,.51C89.93,188.22,91.33,188.44,91.54,188.47Z"/><path class="cls-8" d="M90.52,190.32c-0.11-.2-0.85-1.54-1.47-1.55a0.45,0.45,0,0,0-.35.12,0.57,0.57,0,0,0,0,.51C88.9,190.07,90.31,190.29,90.52,190.32Z"/><path class="cls-8" d="M89.47,192.06c-0.14-.18-1.09-1.39-1.7-1.3a0.45,0.45,0,0,0-.33.17,0.57,0.57,0,0,0,.07.5C87.84,192.06,89.27,192.06,89.47,192.06Z"/><path class="cls-7" d="M88.49,193.68c-0.14-.16-1.06-1.24-1.63-1.14a0.42,0.42,0,0,0-.3.17,0.53,0.53,0,0,0,.09.47C87,193.75,88.3,193.69,88.49,193.68Z"/><path class="cls-7" d="M87.78,195.66c-0.17-.13-1.3-1-1.83-0.76a0.42,0.42,0,0,0-.26.23,0.53,0.53,0,0,0,.18.44C86.32,196,87.6,195.71,87.78,195.66Z"/><path class="cls-7" d="M87.07,197.64c-0.16-.14-1.24-1.06-1.78-0.86A0.42,0.42,0,0,0,85,197a0.53,0.53,0,0,0,.16.45C85.58,198,86.88,197.69,87.07,197.64Z"/><path class="cls-7" d="M85.76,201.49c-0.22.06-1.71,0.43-2.14,0a0.45,0.45,0,0,1-.15-0.34,0.57,0.57,0,0,1,.37-0.35C84.48,200.48,85.59,201.36,85.76,201.49Z"/><path class="cls-7" d="M86.42,199.48c-0.22.06-1.71,0.43-2.14,0a0.45,0.45,0,0,1-.15-0.34,0.57,0.57,0,0,1,.37-0.35C85.13,198.47,86.25,199.35,86.42,199.48Z"/><path class="cls-7" d="M86.9,186.4c0.2,0,1.53.39,1.68,0.92a0.41,0.41,0,0,1,0,.33,0.51,0.51,0,0,1-.44.13C87.49,187.74,87,186.57,86.9,186.4Z"/><path class="cls-8" d="M85.77,188.49c0.2,0,1.57.14,1.8,0.64a0.41,0.41,0,0,1,0,.33,0.51,0.51,0,0,1-.41.19C86.57,189.72,85.87,188.65,85.77,188.49Z"/><path class="cls-7" d="M84.62,190.94c0.2,0,1.57-.13,1.89.32a0.41,0.41,0,0,1,.09.32,0.51,0.51,0,0,1-.37.26C85.62,192,84.75,191.08,84.62,190.94Z"/><path class="cls-7" d="M83.83,193c0.19,0,1.47-.06,1.74.37a0.38,0.38,0,0,1,.07.3,0.48,0.48,0,0,1-.36.23C84.7,194,83.94,193.08,83.83,193Z"/><path class="cls-7" d="M83.05,195.12c0.18,0,1.43-.33,1.78.05a0.38,0.38,0,0,1,.12.28,0.48,0.48,0,0,1-.31.29C84.1,196,83.19,195.23,83.05,195.12Z"/><path class="cls-7" d="M82,197.43c0.18,0,1.43-.34,1.78,0a0.38,0.38,0,0,1,.13.28,0.48,0.48,0,0,1-.31.29C83.1,198.28,82.18,197.54,82,197.43Z"/><path class="cls-7" d="M81.21,199.4c0.15,0.13,1.19,1,1.72.85a0.41,0.41,0,0,0,.26-0.21,0.51,0.51,0,0,0-.15-0.43C82.65,199.12,81.4,199.37,81.21,199.4Z"/><path class="cls-7" d="M86,187.42c-0.07-.15-0.58-1.16-1.1-1.1a0.48,0.48,0,0,0-.31.13,0.45,0.45,0,0,0-.05.41C84.69,187.36,85.86,187.41,86,187.42Z"/><path class="cls-7" d="M85,189.62c-0.07-.16-0.54-1.21-1-1.16a0.44,0.44,0,0,0-.3.13,0.5,0.5,0,0,0-.06.42C83.74,189.55,84.86,189.61,85,189.62Z"/><path class="cls-7" d="M84.12,191.78c-0.09-.15-0.73-1.15-1.2-1a0.4,0.4,0,0,0-.26.18,0.55,0.55,0,0,0,0,.44C82.88,191.9,84,191.8,84.12,191.78Z"/><path class="cls-7" d="M83.16,193.84c-0.11-.12-0.87-0.9-1.28-0.7a0.38,0.38,0,0,0-.21.21,0.5,0.5,0,0,0,.1.4C82,194.19,83,193.89,83.16,193.84Z"/><path class="cls-9" d="M82.22,196c-0.13-.11-1-0.86-1.36-0.64a0.34,0.34,0,0,0-.18.22,0.55,0.55,0,0,0,.15.39C81.17,196.41,82.09,196.06,82.22,196Z"/><path class="cls-9" d="M81.26,198.15c-0.15-.08-1.14-0.65-1.46-0.35a0.34,0.34,0,0,0-.13.25,0.55,0.55,0,0,0,.22.36C80.31,198.76,81.14,198.23,81.26,198.15Z"/><path class="cls-7" d="M82.2,186.83c0.16,0,1.24-.36,1.56.06a0.48,0.48,0,0,1,.12.31,0.45,0.45,0,0,1-.26.32C83.15,187.77,82.32,187,82.2,186.83Z"/><path class="cls-7" d="M81.15,189.29c0.16-.06,1.25-0.43,1.56,0a0.44,0.44,0,0,1,.11.31,0.5,0.5,0,0,1-.27.33C82.08,190.18,81.27,189.4,81.15,189.29Z"/><path class="cls-7" d="M80.26,191.49c0.17,0,1.34-.25,1.57.18a0.4,0.4,0,0,1,.05.31,0.55,0.55,0,0,1-.34.29C81,192.48,80.35,191.62,80.26,191.49Z"/><path class="cls-9" d="M79.42,193.56c0.16,0,1.26,0,1.39.46a0.38,0.38,0,0,1,0,.3,0.5,0.5,0,0,1-.36.2C79.92,194.61,79.48,193.7,79.42,193.56Z"/><path class="cls-9" d="M78.23,196.09c0.17,0,1.3.13,1.39,0.56a0.34,0.34,0,0,1,0,.28,0.55,0.55,0,0,1-.39.16C78.65,197.13,78.29,196.22,78.23,196.09Z"/><path class="cls-7" d="M91.43,189.53c0.2,0,1.53.39,1.68,0.92a0.41,0.41,0,0,1,0,.33,0.51,0.51,0,0,1-.44.13C92,190.87,91.51,189.7,91.43,189.53Z"/><path class="cls-7" d="M90.4,191.44c0.2,0,1.57.14,1.8,0.64a0.41,0.41,0,0,1,0,.33,0.51,0.51,0,0,1-.41.19C91.19,192.67,90.5,191.6,90.4,191.44Z"/><path class="cls-7" d="M88.24,194.94c0.2,0,1.57-.13,1.89.32a0.41,0.41,0,0,1,.09.32,0.51,0.51,0,0,1-.37.26C89.24,196,88.37,195.08,88.24,194.94Z"/><path class="cls-7" d="M87.84,196.72c0.19,0,1.47-.06,1.74.37a0.38,0.38,0,0,1,.07.3,0.48,0.48,0,0,1-.36.23C88.71,197.76,87.95,196.86,87.84,196.72Z"/><path class="cls-7" d="M87.32,198.75c0.18,0,1.43-.33,1.78.05a0.38,0.38,0,0,1,.12.28,0.48,0.48,0,0,1-.31.29C88.37,199.61,87.45,198.86,87.32,198.75Z"/><path class="cls-7" d="M86.54,200.66c0.18,0,1.43-.34,1.78,0a0.38,0.38,0,0,1,.13.28,0.48,0.48,0,0,1-.31.29C87.6,201.51,86.67,200.77,86.54,200.66Z"/><path class="cls-7" d="M89.3,193.18c0.2,0,1.57.14,1.8,0.64a0.41,0.41,0,0,1,0,.33,0.51,0.51,0,0,1-.41.19C90.09,194.41,89.4,193.34,89.3,193.18Z"/><path class="cls-7" d="M82,187.65c-0.1-.11-0.82-0.88-1.27-0.69a0.44,0.44,0,0,0-.24.19,0.42,0.42,0,0,0,.06.38C80.81,188,81.86,187.69,82,187.65Z"/><path class="cls-7" d="M81.1,190.19c-0.1-.12-0.79-0.94-1.23-0.77a0.41,0.41,0,0,0-.24.19,0.46,0.46,0,0,0,.05.39C79.93,190.45,81,190.22,81.1,190.19Z"/><path class="cls-9" d="M79.9,192.88c-0.11-.12-0.84-1-1.25-0.77a0.37,0.37,0,0,0-.21.2,0.51,0.51,0,0,0,.08.4C78.78,193.17,79.76,192.91,79.9,192.88Z"/><path class="cls-9" d="M78.73,195c-0.1-.11-0.81-0.84-1.19-0.65a0.36,0.36,0,0,0-.19.19,0.46,0.46,0,0,0,.09.37C77.7,195.31,78.6,195,78.73,195Z"/><path class="cls-7" d="M78.69,188c0.13-.06,1-0.47,1.18-0.1a0.43,0.43,0,0,1,.06.28,0.56,0.56,0,0,1-.23.33C79.32,188.78,78.77,188.08,78.69,188Z"/><path class="cls-9" d="M77.94,190.48c0.13,0,1-.37,1.18,0a0.43,0.43,0,0,1,0,.29,0.63,0.63,0,0,1-.29.31C78.42,191.34,78,190.59,77.94,190.48Z"/><path class="cls-9" d="M76.91,192.67c0.12,0,1-.1,1,0.3a0.46,0.46,0,0,1,0,.28,0.5,0.5,0,0,1-.29.22C77.19,193.61,76.95,192.79,76.91,192.67Z"/><path class="cls-31" d="M110.61,213.8a4.37,4.37,0,0,1-2.21-.92c-1.31-1-3.85-2.63-6.56-1.94-4.14,1.05-5.78,6.65-5,10.66,1.13,5.8,7.25,7.93,7.52,8a9.69,9.69,0,0,0,5.35,0c5.24-1.58,9.48-8.37,7.2-12.49C115.57,214.74,112.43,214,110.61,213.8Z"/><path class="cls-20" d="M110.81,217.3a3.68,3.68,0,0,1-4.21-1.63l-0.09-.14c-0.33-.57-0.91-1.85-0.53-2.21s1.64,0.35,2.73,1.09a2,2,0,0,0,1,.35c1.13,0.07,3,.29,3.07.95s-1,1.22-1.71,1.5Z"/><path class="cls-21" d="M100.06,224.08c-2.61-4.32-1.44-9.36,1.65-11.28a5.59,5.59,0,0,1,1.9-.74,0.68,0.68,0,0,1,.39,1.3,7.19,7.19,0,0,0-1.94,1.19A8.39,8.39,0,0,0,100.06,224.08Z"/><path class="cls-21" d="M108.88,228.13c4.86-1.36,7.45-5.84,6.52-9.35a5.59,5.59,0,0,0-.88-1.84,0.68,0.68,0,0,0-1.17.69,7.19,7.19,0,0,1,.6,2.2A8.39,8.39,0,0,1,108.88,228.13Z"/><ellipse class="cls-28" cx="111.27" cy="197.62" rx="4.71" ry="5.38" transform="matrix(0.97, -0.26, 0.26, 0.97, -46.84, 35.03)"/><ellipse class="cls-29" cx="109.47" cy="194.89" rx="2.11" ry="1.67" transform="translate(-104.33 260.11) rotate(-77.64)"/><path class="cls-32" d="M105.37,159.23a4.37,4.37,0,0,1-2.27.74c-1.68.06-4.64,0.51-6.25,2.8-2.46,3.49-.06,8.81,3.14,11.35,4.63,3.67,10.67,1.31,10.93,1.2a9.69,9.69,0,0,0,4.08-3.47c2.95-4.61,1.75-12.52-2.67-14.17C109.74,156.72,106.89,158.21,105.37,159.23Z"/><path class="cls-20" d="M107.79,161.76a3.68,3.68,0,0,1-4.26,1.5l-0.16-.05c-0.62-.22-1.9-0.81-1.84-1.33s1.47-.8,2.79-0.95a2,2,0,0,0,1-.38c0.91-.68,2.43-1.71,3-1.28s0,1.6-.32,2.25Z"/><path class="cls-21" d="M104,173.91c-4.8-1.58-7.18-6.17-6.09-9.64a5.59,5.59,0,0,1,1-1.8,0.68,0.68,0,0,1,1.14.74,7.19,7.19,0,0,0-.7,2.17A8.39,8.39,0,0,0,104,173.91Z"/><path class="cls-21" d="M113.38,171.24c2.81-4.2,1.86-9.28-1.14-11.34a5.59,5.59,0,0,0-1.86-.82,0.68,0.68,0,0,0-.44,1.28,7.19,7.19,0,0,1,1.88,1.28A8.39,8.39,0,0,1,113.38,171.24Z"/><ellipse class="cls-28" cx="93.94" cy="186.86" rx="4.71" ry="5.38" transform="translate(-44.67 30.24) rotate(-14.82)"/><ellipse class="cls-29" cx="92.14" cy="184.13" rx="2.11" ry="1.67" transform="translate(-107.44 234.72) rotate(-77.64)"/><path class="cls-33" d="M123.65,218.94a0.15,0.15,0,0,1-.09.14,1.1,1.1,0,0,1-1-.11,1.28,1.28,0,0,1-.52-0.91,0.35,0.35,0,0,1,.26-0.39,1.14,1.14,0,0,1,1.13.44A1.35,1.35,0,0,1,123.65,218.94Z"/><path class="cls-33" d="M114.74,209a0.14,0.14,0,0,1-.16,0,1.26,1.26,0,0,1-.51-1.89,0.34,0.34,0,0,1,.47-0.09,1.33,1.33,0,0,1,.58,1.17A1.27,1.27,0,0,1,114.74,209Z"/><path class="cls-33" d="M130.32,185a0.16,0.16,0,0,1-.1.14,1.16,1.16,0,0,1-1.06-.11,1.35,1.35,0,0,1-.55-1,0.37,0.37,0,0,1,.28-0.42,1.21,1.21,0,0,1,1.19.47A1.42,1.42,0,0,1,130.32,185Z"/><path class="cls-33" d="M124.83,178.8a0.09,0.09,0,0,1-.1,0,0.8,0.8,0,0,1-.32-1.2,0.21,0.21,0,0,1,.3-0.06,0.84,0.84,0,0,1,.37.74A0.81,0.81,0,0,1,124.83,178.8Z"/><path class="cls-33" d="M135.54,223.56a0.15,0.15,0,0,1-.14-0.11,1.41,1.41,0,0,1,.11-1.15,1.27,1.27,0,0,1,.93-0.6,0.36,0.36,0,0,1,.4.3,1.4,1.4,0,0,1-.45,1.29A1.24,1.24,0,0,1,135.54,223.56Z"/><path class="cls-33" d="M123.59,239a0.15,0.15,0,0,1-.17,0,1.32,1.32,0,0,1-.53-2,0.35,0.35,0,0,1,.49-0.09,1.39,1.39,0,0,1,.61,1.22A1.33,1.33,0,0,1,123.59,239Z"/><path class="cls-33" d="M146.42,247.3a0.12,0.12,0,0,1-.08.11,1,1,0,0,1-.84-0.08,1,1,0,0,1-.44-0.72,0.28,0.28,0,0,1,.22-0.31,1,1,0,0,1,.95.35A1,1,0,0,1,146.42,247.3Z"/><path class="cls-33" d="M79.54,227.09a0.11,0.11,0,0,1-.13,0,1,1,0,0,1-.41-1.53,0.27,0.27,0,0,1,.38-0.07,1.08,1.08,0,0,1,.47.94A1,1,0,0,1,79.54,227.09Z"/><path class="cls-33" d="M80.38,212.23a0.16,0.16,0,0,1-.18,0,1.4,1.4,0,0,1-.57-2.1,0.37,0.37,0,0,1,.52-0.1,1.48,1.48,0,0,1,.65,1.3A1.41,1.41,0,0,1,80.38,212.23Z"/><path class="cls-33" d="M84.62,168.09a0.09,0.09,0,0,1-.1,0,0.8,0.8,0,0,1-.32-1.2,0.21,0.21,0,0,1,.3-0.06,0.84,0.84,0,0,1,.37.74A0.81,0.81,0,0,1,84.62,168.09Z"/><path class="cls-33" d="M98.48,173.14a0.07,0.07,0,0,1,0,.07,0.59,0.59,0,0,1-.51-0.05,0.61,0.61,0,0,1-.27-0.44,0.17,0.17,0,0,1,.13-0.19,0.6,0.6,0,0,1,.58.21A0.62,0.62,0,0,1,98.48,173.14Z"/><path class="cls-33" d="M145.7,225.46a0.09,0.09,0,0,1-.08-0.07,0.85,0.85,0,0,1,.07-0.7,0.77,0.77,0,0,1,.56-0.37,0.22,0.22,0,0,1,.24.18,0.85,0.85,0,0,1-.27.79A0.75,0.75,0,0,1,145.7,225.46Z"/><path class="cls-33" d="M152.31,239.87a0.07,0.07,0,0,1,0,.07,0.59,0.59,0,0,1-.51-0.05,0.61,0.61,0,0,1-.27-0.44,0.17,0.17,0,0,1,.13-0.19,0.6,0.6,0,0,1,.58.21A0.62,0.62,0,0,1,152.31,239.87Z"/><path class="cls-33" d="M138.17,211.05a0.09,0.09,0,0,1-.1,0,0.8,0.8,0,0,1-.32-1.2,0.21,0.21,0,0,1,.3-0.06,0.84,0.84,0,0,1,.37.74A0.81,0.81,0,0,1,138.17,211.05Z"/><path class="cls-33" d="M152,216.1a0.07,0.07,0,0,1,0,.07,0.59,0.59,0,0,1-.51-0.05,0.61,0.61,0,0,1-.27-0.44,0.17,0.17,0,0,1,.13-0.19,0.6,0.6,0,0,1,.58.21A0.62,0.62,0,0,1,152,216.1Z"/><path class="cls-33" d="M146.8,156.26a0.09,0.09,0,0,1-.08-0.07,0.85,0.85,0,0,1,.07-0.7,0.77,0.77,0,0,1,.56-0.37,0.22,0.22,0,0,1,.24.18,0.85,0.85,0,0,1-.27.79A0.75,0.75,0,0,1,146.8,156.26Z"/><path class="cls-33" d="M145.2,171.91a0.09,0.09,0,0,1-.06.09,0.7,0.7,0,0,1-.63-0.07,0.81,0.81,0,0,1-.33-0.58,0.22,0.22,0,0,1,.17-0.25,0.72,0.72,0,0,1,.72.28A0.86,0.86,0,0,1,145.2,171.91Z"/><path class="cls-33" d="M153.41,170.67a0.07,0.07,0,0,1,0,.07,0.59,0.59,0,0,1-.51-0.05,0.61,0.61,0,0,1-.27-0.44,0.17,0.17,0,0,1,.13-0.19,0.6,0.6,0,0,1,.58.21A0.62,0.62,0,0,1,153.41,170.67Z"/><path class="cls-33" d="M141.48,186a0.15,0.15,0,0,1-.14-0.11,1.42,1.42,0,0,1,.11-1.16,1.29,1.29,0,0,1,.94-0.61,0.36,0.36,0,0,1,.4.31,1.41,1.41,0,0,1-.45,1.31A1.26,1.26,0,0,1,141.48,186Z"/><path class="cls-33" d="M153.17,198.85a0.16,0.16,0,0,1-.1.14,1.16,1.16,0,0,1-1.06-.11,1.35,1.35,0,0,1-.55-1,0.37,0.37,0,0,1,.28-0.42,1.21,1.21,0,0,1,1.19.47A1.42,1.42,0,0,1,153.17,198.85Z"/><path class="cls-33" d="M150,191.49a0.15,0.15,0,0,1-.17,0,1.33,1.33,0,0,1-.54-2,0.35,0.35,0,0,1,.49-0.1,1.4,1.4,0,0,1,.62,1.23A1.34,1.34,0,0,1,150,191.49Z"/><path class="cls-33" d="M152.48,210a0.12,0.12,0,0,1-.08.11,1,1,0,0,1-.85-0.08,1,1,0,0,1-.45-0.73,0.28,0.28,0,0,1,.22-0.32,1,1,0,0,1,1,.35A1,1,0,0,1,152.48,210Z"/><rect class="cls-34" x="71.23" y="130.46" width="85.66" height="4.71" rx="2.35" ry="2.35"/><rect class="cls-35" x="71.23" y="115.75" width="85.66" height="4.71" rx="2.35" ry="2.35" transform="translate(-4.84 4.88) rotate(-2.4)"/><path class="cls-20" d="M82.73,94.22l0.61,11a53.4,53.4,0,0,0,4.8-5.09c0.79-1,1.52-1.9,2.18-2.82l-0.64-11.4c-0.93,1.32-2,2.7-3.14,4.11C85.25,91.55,84,93,82.73,94.22Z"/><path class="cls-36" d="M156.94,156v93.36a8,8,0,0,1-8,8H79.11a7.83,7.83,0,0,1-7.63-6.06,8,8,0,0,1-.2-1.76q0-39.83,0-79.66a56.11,56.11,0,0,0,24.39.48c20.89-4.42,29.11-19.81,46.63-18.89A32.75,32.75,0,0,1,156.94,156Z"/><path class="cls-37" d="M167.59,144.27a16.1,16.1,0,0,0,5.28-9.64c0.25-1.8.82-6-1.87-9.12a8.73,8.73,0,0,0-4.47-2.69,16.57,16.57,0,0,1-.86,9.42,15.82,15.82,0,0,1-5.19,6.73,15.12,15.12,0,0,0,3.39,3.38A14.63,14.63,0,0,0,167.59,144.27Z"/><path class="cls-38" d="M156.89,249.24l0-93.13,0-.21a9.55,9.55,0,0,0-.75-2.31,27.54,27.54,0,0,0-3.55-6c-1.53-1.91-3.27-9.86-4.16-36.68l-7.25-.13c2.91,73.7,3.73,127.56,1.9,135.2a16.83,16.83,0,0,1-4.07,7.6,16,16,0,0,1-9.5,4.07l19.29-.23A8.17,8.17,0,0,0,156.89,249.24Z"/><path class="cls-39" d="M135.5,101.49c2.34,0.16,4.88.44,7.6,0.9a78,78,0,0,1,8,1.79,5.18,5.18,0,0,1,1.82,1.51,6.15,6.15,0,0,1,1.08,3.48c0.13,3.14,1,14.28,3,21.39,1.75,6.2,4.29,9,4.91,9.66a18.23,18.23,0,0,0,5.7,4.06,21,21,0,0,1-8.09.9,16.41,16.41,0,0,1-7.29-2c-2.49-1.55-3.88-4-7.86-18.2-2.14-7.66-2.28-8.9-3.64-12.53A72.76,72.76,0,0,0,135.5,101.49Z"/><path class="cls-40" d="M112,110.31l0.6,147h-5.9l-0.31-146.78Z"/><path class="cls-38" d="M79.74,111v25.78a10.68,10.68,0,0,1-1,4.5l-7,15.12a4.79,4.79,0,0,0-.45,2v91.23A7.68,7.68,0,0,0,79,257.31l12.38-.07A14.12,14.12,0,0,1,86,252.35a14.61,14.61,0,0,1-2-7.69c-0.25-18.11-.36-27.16-0.38-87.34a5.15,5.15,0,0,1,.42-2l6.24-14.47a12.47,12.47,0,0,0,1-4.94V110.62Z"/><path class="cls-33" d="M126.16,194.3a0.15,0.15,0,0,1-.13-0.1,1.34,1.34,0,0,1,.1-1.1,1.22,1.22,0,0,1,.88-0.58,0.34,0.34,0,0,1,.38.29A1.34,1.34,0,0,1,127,194,1.19,1.19,0,0,1,126.16,194.3Z"/><path class="cls-33" d="M136.56,217a0.11,0.11,0,0,1-.08.1,0.93,0.93,0,0,1-.8-0.08,1,1,0,0,1-.42-0.69,0.27,0.27,0,0,1,.21-0.3,1,1,0,0,1,.91.33A1,1,0,0,1,136.56,217Z"/><path class="cls-33" d="M132.08,169.43a0.09,0.09,0,0,1-.08-0.07,0.85,0.85,0,0,1,.07-0.7,0.77,0.77,0,0,1,.56-0.37,0.22,0.22,0,0,1,.24.18,0.85,0.85,0,0,1-.27.79A0.75,0.75,0,0,1,132.08,169.43Z"/><path class="cls-33" d="M137.16,180.34a0.12,0.12,0,0,1-.08.11,1,1,0,0,1-.85-0.08,1,1,0,0,1-.45-0.73,0.28,0.28,0,0,1,.22-0.32,1,1,0,0,1,1,.35A1,1,0,0,1,137.16,180.34Z"/><path class="cls-33" d="M132.91,249.34a0.15,0.15,0,0,1-.1.14,1.15,1.15,0,0,1-1-.11,1.34,1.34,0,0,1-.55-1,0.37,0.37,0,0,1,.28-0.41,1.19,1.19,0,0,1,1.18.46A1.41,1.41,0,0,1,132.91,249.34Z"/><path class="cls-33" d="M86.75,235.1a0.12,0.12,0,0,1-.08.11,0.89,0.89,0,0,1-.81-0.09,1,1,0,0,1-.43-0.74,0.28,0.28,0,0,1,.21-0.32,0.92,0.92,0,0,1,.91.36A1.09,1.09,0,0,1,86.75,235.1Z"/><path class="cls-33" d="M97.22,233.52a0.09,0.09,0,0,1-.06.08,0.75,0.75,0,0,1-.65-0.07,0.77,0.77,0,0,1-.34-0.56,0.22,0.22,0,0,1,.17-0.24,0.77,0.77,0,0,1,.73.27A0.79,0.79,0,0,1,97.22,233.52Z"/><path class="cls-33" d="M104.68,221.08a0.12,0.12,0,0,1-.08.11,1,1,0,0,1-.89-0.09,1.06,1.06,0,0,1-.47-0.77,0.3,0.3,0,0,1,.24-0.33,1.05,1.05,0,0,1,1,.37A1.08,1.08,0,0,1,104.68,221.08Z"/><path class="cls-33" d="M91.87,158.73a0.09,0.09,0,0,1-.08-0.07,0.85,0.85,0,0,1,.07-0.7,0.77,0.77,0,0,1,.56-0.37,0.22,0.22,0,0,1,.24.18,0.85,0.85,0,0,1-.27.79A0.75,0.75,0,0,1,91.87,158.73Z"/><path class="cls-33" d="M90.27,174.38a0.09,0.09,0,0,1-.06.09,0.7,0.7,0,0,1-.63-0.07,0.81,0.81,0,0,1-.33-0.58,0.22,0.22,0,0,1,.17-0.25,0.72,0.72,0,0,1,.72.28A0.86,0.86,0,0,1,90.27,174.38Z"/><path class="cls-33" d="M144.11,241.12a0.09,0.09,0,0,1-.06.09,0.7,0.7,0,0,1-.63-0.07,0.81,0.81,0,0,1-.33-0.58,0.22,0.22,0,0,1,.17-0.25,0.72,0.72,0,0,1,.72.28A0.86,0.86,0,0,1,144.11,241.12Z"/><path class="cls-33" d="M138.45,234.83a0.09,0.09,0,0,1-.1,0,0.8,0.8,0,0,1-.32-1.2,0.21,0.21,0,0,1,.3-0.06,0.84,0.84,0,0,1,.37.74A0.81,0.81,0,0,1,138.45,234.83Z"/><path class="cls-33" d="M138.87,197.13a0.09,0.09,0,0,1-.08-0.07,0.85,0.85,0,0,1,.07-0.7,0.77,0.77,0,0,1,.56-0.37,0.22,0.22,0,0,1,.24.18,0.85,0.85,0,0,1-.27.79A0.75,0.75,0,0,1,138.87,197.13Z"/><path class="cls-33" d="M143.83,217.34a0.09,0.09,0,0,1-.06.09,0.7,0.7,0,0,1-.63-0.07,0.81,0.81,0,0,1-.33-0.58,0.22,0.22,0,0,1,.17-0.25,0.72,0.72,0,0,1,.72.28A0.86,0.86,0,0,1,143.83,217.34Z"/><path class="cls-33" d="M139.55,165.62a0.09,0.09,0,0,1-.1,0,0.8,0.8,0,0,1-.32-1.2,0.21,0.21,0,0,1,.3-0.06,0.84,0.84,0,0,1,.37.74A0.81,0.81,0,0,1,139.55,165.62Z"/><path class="cls-33" d="M88.79,215.15a0.12,0.12,0,0,1-.11-0.08,1.09,1.09,0,0,1,.08-0.89,1,1,0,0,1,.72-0.47,0.28,0.28,0,0,1,.31.23,1.08,1.08,0,0,1-.35,1A1,1,0,0,1,88.79,215.15Z"/><path class="cls-33" d="M93.1,195.82a0.16,0.16,0,0,1-.15-0.11,1.5,1.5,0,0,1,.11-1.22,1.35,1.35,0,0,1,1-.64,0.38,0.38,0,0,1,.43.32,1.49,1.49,0,0,1-.48,1.38A1.32,1.32,0,0,1,93.1,195.82Z"/><path class="cls-33" d="M90.3,223.25a0.16,0.16,0,0,1-.1.15,1.22,1.22,0,0,1-1.11-.12,1.42,1.42,0,0,1-.58-1,0.39,0.39,0,0,1,.29-0.44,1.27,1.27,0,0,1,1.25.49A1.5,1.5,0,0,1,90.3,223.25Z"/></svg>