<svg id="Layer_1" data-name="Layer 1" xmlns="http://www.w3.org/2000/svg" xmlns:xlink="http://www.w3.org/1999/xlink" viewBox="0 0 230.86 332.94"><defs><style>.cls-1{fill:#de9b5e;opacity:0.63;}.cls-11,.cls-2{fill:#fbddbb;}.cls-3{opacity:0.72;fill:url(#linear-gradient);}.cls-4{fill:#ecc11c;}.cls-5{fill:#f9d027;}.cls-6{fill:#faf5ae;}.cls-7{fill:#f2d143;}.cls-8{fill:#f2db79;}.cls-9{fill:url(#linear-gradient-2);}.cls-10{fill:#fcf3be;}.cls-11{opacity:0.69;}.cls-12{fill:#f5cc56;}.cls-13,.cls-26{fill:url(#linear-gradient-3);}.cls-14{fill:#c12126;}.cls-15{fill:url(#linear-gradient-4);}.cls-16,.cls-18{fill:#fff;}.cls-16{opacity:0.16;}.cls-17,.cls-19,.cls-24,.cls-25{opacity:0.31;}.cls-17{fill:url(#linear-gradient-5);}.cls-18{opacity:0.21;}.cls-19{fill:url(#linear-gradient-6);}.cls-20{fill:url(#linear-gradient-7);}.cls-21{fill:#db2e2a;opacity:0.94;}.cls-22{fill:#f4b5b5;opacity:0.19;}.cls-23{fill:url(#linear-gradient-8);}.cls-24{fill:url(#linear-gradient-9);}.cls-25{fill:url(#linear-gradient-10);}.cls-26{opacity:0.55;}.cls-27{fill:#fff2ea;opacity:0.38;}.cls-28{fill:url(#linear-gradient-12);}.cls-29,.cls-30{fill:#f4caa6;}.cls-30{opacity:0.51;}.cls-31{opacity:0.53;fill:url(#linear-gradient-13);}</style><linearGradient id="linear-gradient" x1="103.9" y1="259.22" x2="150.54" y2="259.22" gradientUnits="userSpaceOnUse"><stop offset="0" stop-color="#f2d8c0"/><stop offset="0.77" stop-color="#f4caa6"/></linearGradient><linearGradient id="linear-gradient-2" x1="266.61" y1="6.73" x2="266.61" y2="38.22" gradientTransform="matrix(0.89, 0.16, -0.15, 0.85, -93.63, 36.77)" gradientUnits="userSpaceOnUse"><stop offset="0.11" stop-color="#f4e07d"/><stop offset="0.55" stop-color="#f9d20a"/><stop offset="1" stop-color="#f6a31d"/></linearGradient><linearGradient id="linear-gradient-3" x1="115.99" y1="102.53" x2="115.99" y2="243.88" gradientUnits="userSpaceOnUse"><stop offset="0.05" stop-color="#fee563"/><stop offset="0.11" stop-color="#fcdd63"/><stop offset="0.46" stop-color="#ec964f"/><stop offset="0.69" stop-color="#f16b22"/><stop offset="0.92" stop-color="#ee2a24"/></linearGradient><linearGradient id="linear-gradient-4" x1="308.8" y1="38.5" x2="296.76" y2="50.54" gradientTransform="matrix(0.89, 0.16, -0.15, 0.85, -93.63, 36.77)" gradientUnits="userSpaceOnUse"><stop offset="0" stop-color="#f4e07d"/><stop offset="0.43" stop-color="#f9d20a"/><stop offset="0.77" stop-color="#f7b01a"/><stop offset="1" stop-color="#f6a31d"/></linearGradient><linearGradient id="linear-gradient-5" x1="-0.34" y1="105.35" x2="12.69" y2="93.31" gradientTransform="matrix(0.66, 0.75, -0.75, 0.66, 202.38, 49.98)" gradientUnits="userSpaceOnUse"><stop offset="0" stop-color="#dbdebc"/><stop offset="0.97" stop-color="#fff"/></linearGradient><linearGradient id="linear-gradient-6" x1="229.8" y1="161.32" x2="244.15" y2="148.06" gradientTransform="translate(-98.7 -71.19) rotate(10.02)" xlink:href="#linear-gradient-5"/><linearGradient id="linear-gradient-7" x1="162.43" y1="170.56" x2="162.43" y2="188.63" gradientTransform="translate(-105.81 -24.74) rotate(-14.24)" gradientUnits="userSpaceOnUse"><stop offset="0.38" stop-color="#ee3624"/><stop offset="1" stop-color="#a82723"/></linearGradient><linearGradient id="linear-gradient-8" x1="86.98" y1="104.15" x2="86.98" y2="83.24" gradientUnits="userSpaceOnUse"><stop offset="0.06" stop-color="#c76960"/><stop offset="0.79" stop-color="#ee3624"/><stop offset="0.94" stop-color="#a82723"/><stop offset="1" stop-color="#6f2012"/></linearGradient><linearGradient id="linear-gradient-9" x1="156.93" y1="150.94" x2="170.2" y2="138.67" gradientTransform="translate(6.22 -50.54) rotate(22.54)" xlink:href="#linear-gradient-5"/><linearGradient id="linear-gradient-10" x1="176.21" y1="134.29" x2="189.47" y2="122.03" gradientTransform="translate(6.22 -50.54) rotate(22.54)" xlink:href="#linear-gradient-5"/><linearGradient id="linear-gradient-12" x1="285.96" y1="55.02" x2="285.96" y2="6.81" gradientTransform="matrix(0.89, 0.16, -0.15, 0.85, -93.63, 36.77)" gradientUnits="userSpaceOnUse"><stop offset="0" stop-color="#f4e07d"/><stop offset="0.22" stop-color="#f9d20a"/><stop offset="1" stop-color="#f6a31d"/></linearGradient><linearGradient id="linear-gradient-13" x1="117.91" y1="250.97" x2="124.66" y2="250.97" gradientUnits="userSpaceOnUse"><stop offset="0" stop-color="#fbe7d1"/><stop offset="0.57" stop-color="#fadcbb"/></linearGradient></defs><title>icons</title><ellipse class="cls-1" cx="117.11" cy="261.75" rx="43.08" ry="8.6"/><path class="cls-2" d="M160.78,93.94l-29,142.16a38.48,38.48,0,0,0-.71,5.29c-0.12,2-.19,4.2-0.16,6.47s0.14,4.41.31,6.43a1.51,1.51,0,0,1-.73,1.42,26.45,26.45,0,0,1-26.55.2l0.54,0-1.53-2.68c0.11-1.66.18-3.4,0.2-5.22,0-2,0-3.85-.12-5.64a42.37,42.37,0,0,0-.8-6.05q-14.53-71.18-29-142.35a2.46,2.46,0,0,1,2.09-3,325.39,325.39,0,0,1,83.43,0A2.5,2.5,0,0,1,160.78,93.94Z"/><path class="cls-2" d="M103,251.82c-17.86,2.59-22,4.92-22,6.66-0.06,3.76,19,7.66,35.15,7.9s36.25-3.11,36.61-7.71a1.67,1.67,0,0,0,0-.27c-0.38-3.4-12.72-5.47-21.73-6.57H103Z"/><path class="cls-3" d="M136.82,254.11c2.09,0.29,13.68,1.93,13.72,4.29,0,2.16-9.65,3.82-13.17,4.42a113.88,113.88,0,0,1-33.46.52q33.63-1.28,34.74-6.25Q139,255.75,136.82,254.11Z"/><path class="cls-4" d="M152.63,69.29a28.43,28.43,0,0,0-28.81,12.08l0.7,0.44,2.06,1.31L149,97.34l7,4.46,13.08,8.3,2.24,1.42,0.37,0.25a26.85,26.85,0,0,0,4-10.13C178.46,86.54,168.1,72.06,152.63,69.29Z"/><path class="cls-5" d="M152.82,69.79a27.79,27.79,0,0,0-28.29,12l2.06,1.31L149,97.34l7,4.46,13.08,8.3,2.24,1.42a26.48,26.48,0,0,0,4.08-10.11C178.07,86.66,167.94,72.51,152.82,69.79Z"/><path class="cls-6" d="M173,98.89a1.81,1.81,0,0,0-.1-1.18,0.34,0.34,0,0,1-.12-0.13s0-.09,0-0.12a2.66,2.66,0,0,0,0-.28,2.51,2.51,0,0,1,.09-0.55l0.2-1.14a2.6,2.6,0,0,0,0-.57,1.08,1.08,0,0,0-.13-0.4,2.32,2.32,0,0,1-.06-1.12A3.13,3.13,0,0,0,173,92.8a3.17,3.17,0,0,0-.21-0.54c-0.07-.24-0.13-0.51-0.22-0.74a1.67,1.67,0,0,0-.29-0.37,0.62,0.62,0,0,1-.12-0.37,5.11,5.11,0,0,0-.16-0.63,1,1,0,0,1,0-.2,2.92,2.92,0,0,0,.06-0.29,1.52,1.52,0,0,0-.09-0.51,3,3,0,0,0-.39-0.46,1.23,1.23,0,0,1-.19-0.46,1.09,1.09,0,0,0,0-.49,2,2,0,0,0-.17-0.24c0-.06,0-0.15-0.05-0.22a1.47,1.47,0,0,1-.1-0.15,1.34,1.34,0,0,1,0-.22,2.65,2.65,0,0,0-.19-0.46,0.74,0.74,0,0,1-.12-0.41,1,1,0,0,1-.3-0.23,1.4,1.4,0,0,1-.28-0.12c-0.05-.06-0.08-0.15-0.13-0.2a1.84,1.84,0,0,0-.3-0.19,3.17,3.17,0,0,1-.61-0.85,1.83,1.83,0,0,1-.37-0.87,1.12,1.12,0,0,0,0-.62c-0.08-.13-0.09-0.06-0.25-0.12a1.81,1.81,0,0,0-.22-0.16s0-.1,0-0.15a1.42,1.42,0,0,1-.71-0.64l-0.44-.6a3.59,3.59,0,0,1-.41-0.62,0.29,0.29,0,0,1,0-.09,0.19,0.19,0,0,0-.12-0.13,0.53,0.53,0,0,1-.08-0.18,0.65,0.65,0,0,0-.09-0.35,1.51,1.51,0,0,0-.82-0.5,4.24,4.24,0,0,1-1-.46,1.34,1.34,0,0,1-.7-0.65,3.28,3.28,0,0,0-.38-0.46,0.66,0.66,0,0,0-.36-0.37c0-.29-0.24-0.3-0.37-0.43s-0.07-.12-0.13-0.17l-0.11,0-0.29-.22a1.15,1.15,0,0,0-.19-0.2,2.06,2.06,0,0,0-.36-0.05,1.29,1.29,0,0,0-.24-0.14c-0.16-.06-0.34,0-0.49-0.1a1.85,1.85,0,0,0-.2-0.12,1.17,1.17,0,0,1-.18,0,0.34,0.34,0,0,1-.06-0.11l-0.17-.12a1,1,0,0,1-.4-0.29,7,7,0,0,0-.59-0.49,2.78,2.78,0,0,0-.36-0.33,2.51,2.51,0,0,0-1.1-.37c-0.24,0-.47-0.1-0.71-0.13A2.23,2.23,0,0,1,156.8,74a6,6,0,0,1-1.12-.55,2.53,2.53,0,0,1-.38-0.31,1.3,1.3,0,0,0-.33-0.34,3.26,3.26,0,0,0-.7-0.13l-2.23-.4c0-.56-1.71-0.1-2-0.07l-0.45.07a2.5,2.5,0,0,1-.88-0.06,0.74,0.74,0,0,1-.76-0.42c-0.06-.21,0-0.24-0.27-0.29a0.34,0.34,0,0,0-.33.07,5.24,5.24,0,0,1-.6.29,1.38,1.38,0,0,1-.48.18,2.88,2.88,0,0,0-.89-0.1,3.47,3.47,0,0,1-1,.35,3.4,3.4,0,0,0-.56,0,4,4,0,0,1-.62,0,3.28,3.28,0,0,0-.64,0,0.3,0.3,0,0,0-.16,0s0,0.12-.08.15a1.44,1.44,0,0,1-.36.12,4.84,4.84,0,0,1-.67.14,2.73,2.73,0,0,1-.87-0.09,1.82,1.82,0,0,0-.89,0,3.32,3.32,0,0,0-.64.23,3.73,3.73,0,0,0-.56.32,1.76,1.76,0,0,1-.51.35,1.36,1.36,0,0,1-.49.08,0.79,0.79,0,0,0-.34.14,0.72,0.72,0,0,1-.2,0,1.46,1.46,0,0,0-.34.15,2.06,2.06,0,0,1-.52.07,2.78,2.78,0,0,0-1.18.51,2.41,2.41,0,0,0-.63.63c-0.08.13-.17,0.25-0.25,0.39a1.61,1.61,0,0,0-.2.5c-0.24.07-.5,0.08-0.76,0.17a1.07,1.07,0,0,0-.57.42c0,0.06-.05.13-0.1,0.18a1.75,1.75,0,0,1-.16.08,3.38,3.38,0,0,0-.39.56,4.65,4.65,0,0,0-.22.63h-0.24l-0.06.14a1.59,1.59,0,0,0-.32,0,1.7,1.7,0,0,0-.22.16,3.12,3.12,0,0,0-.4.48,7,7,0,0,0-.53.7,4.42,4.42,0,0,1-.24.49,1.81,1.81,0,0,0-.27.32,0.6,0.6,0,0,1-.28.43,3,3,0,0,0-.53.33,4.33,4.33,0,0,0-.61.46c-0.08.1-.09,0.27-0.17,0.38s-0.12.09-.17,0.16a3.28,3.28,0,0,1-.27.39c-0.14.15-.29,0.28-0.43,0.46a2.56,2.56,0,0,1-.2.26L149,97.34l7,4.46,13.08,8.3a1.29,1.29,0,0,0,.14-0.24,2.44,2.44,0,0,1,.21-0.5,1,1,0,0,0,.16-0.15,1.43,1.43,0,0,0,.06-0.29,1.35,1.35,0,0,1,.12-0.2,2,2,0,0,0,0-.24,1.44,1.44,0,0,1,.14-0.28,0.58,0.58,0,0,1,.18-0.26,3,3,0,0,0,.49-0.9,3.64,3.64,0,0,0,.37-1.16,2.86,2.86,0,0,1,.22-0.7,1.32,1.32,0,0,1,.31-0.53c0.13-.1.13,0,0.18-0.21s0-.19,0-0.3a2.17,2.17,0,0,0,.06-0.25,0.85,0.85,0,0,0-.12-0.34,1.9,1.9,0,0,1,.1-0.63L172.2,101a2.91,2.91,0,0,1,.05-0.29,0.47,0.47,0,0,1,.18-0.27,0.63,0.63,0,0,0,.09-0.26,0.77,0.77,0,0,1,.12-0.14c0-.07.06-0.19,0.09-0.25l0.07-.08,0.11-.25A2,2,0,0,0,173,98.89Z"/><path class="cls-7" d="M143.62,75.11a1.06,1.06,0,0,1,.82-1.27,18.69,18.69,0,0,1,14.32,2.59,1.06,1.06,0,0,1,.32,1.45L148.73,94.5a0.39,0.39,0,0,1-.71-0.12Z"/><path class="cls-7" d="M169.48,92.25a1.11,1.11,0,0,1,1.31.82,17.38,17.38,0,0,1-2.51,14,1.1,1.1,0,0,1-1.48.3L149.68,97.05a0.38,0.38,0,0,1,.12-0.7Z"/><path class="cls-7" d="M160,78.49a1.11,1.11,0,0,1,1.51-.32,18.47,18.47,0,0,1,5.8,5.57,17.83,17.83,0,0,1,2.56,6.13,1.05,1.05,0,0,1-.82,1.24l-19.44,4.48a0.39,0.39,0,0,1-.42-0.58Z"/><path class="cls-7" d="M129.66,84.2a1.07,1.07,0,0,1-.34-1.48A17.88,17.88,0,0,1,135,77.11a18.38,18.38,0,0,1,6.25-2.44,1.1,1.1,0,0,1,1.27.81l4.78,19a0.38,0.38,0,0,1-.59.41Z"/><path class="cls-7" d="M156,101.8l-7-4.46a0.38,0.38,0,0,1,.32,0Z"/><path class="cls-6" d="M143.29,91c0.06,0.87,1.14,1.84,2.68,2.47a0.19,0.19,0,0,0,.28-0.18c-0.05-1.64-.6-3-1.41-3.33a1.31,1.31,0,0,0-1.16,0A1.22,1.22,0,0,0,143.29,91Z"/><path class="cls-6" d="M154,93.27c-0.36.8-1.7,1.33-3.37,1.39a0.19,0.19,0,0,1-.2-0.27c0.61-1.52,1.58-2.57,2.47-2.63a1.31,1.31,0,0,1,1.09.41A1.22,1.22,0,0,1,154,93.27Z"/><path class="cls-8" d="M150.46,79.11a26,26,0,0,0-.49,8.42c0,0.31.15,0.34,0.24,0.06a24.89,24.89,0,0,0,1.62-8.16c0-.13-0.1-1.59-0.51-1.66S150.51,79,150.46,79.11Z"/><path class="cls-8" d="M146.7,77.21a24.63,24.63,0,0,0,1.2,7.22c0.08,0.26.17,0.25,0.2,0a24.41,24.41,0,0,0-.3-7.3c0-.1-0.37-1.31-0.7-1.26S146.71,77.08,146.7,77.21Z"/><path class="cls-8" d="M154.72,77.58A17,17,0,0,0,153,83.42c0,0.23.05,0.28,0.17,0.11a15.5,15.5,0,0,0,2.5-5.32,2,2,0,0,0-.11-1.32C155.29,76.72,154.77,77.5,154.72,77.58Z"/><path class="cls-8" d="M163.05,85.77a26.84,26.84,0,0,0-7,4.92c-0.23.21-.18,0.32,0.11,0.22a25.94,25.94,0,0,0,7.48-3.9c0.1-.09,1.19-1.07,1-1.42S163.19,85.72,163.05,85.77Z"/><path class="cls-8" d="M161,82.19a24.86,24.86,0,0,0-4.92,5.44c-0.15.22-.08,0.29,0.14,0.14A24.92,24.92,0,0,0,161.8,83c0.06-.09.79-1.1,0.54-1.31S161.12,82.12,161,82.19Z"/><path class="cls-8" d="M165.86,88.49a17.85,17.85,0,0,0-5.71,2.37c-0.2.12-.19,0.22,0,0.2A16.35,16.35,0,0,0,166,89.6a2.06,2.06,0,0,0,1-.91C166.91,88.38,166,88.48,165.86,88.49Z"/><path class="cls-8" d="M138.35,81.66A26.81,26.81,0,0,1,142.65,89c0.12,0.29,0,.37-0.19.16a25.91,25.91,0,0,1-5.2-6.64c-0.05-.12-0.64-1.47-0.31-1.7S138.24,81.56,138.35,81.66Z"/><path class="cls-8" d="M140.85,78.37a24.84,24.84,0,0,1,2.23,7c0,0.26,0,.3-0.18.07a24.9,24.9,0,0,1-3.08-6.68c0-.11-0.26-1.33,0-1.42S140.78,78.25,140.85,78.37Z"/><path class="cls-8" d="M133.82,82.09A17.83,17.83,0,0,1,138,86.61c0.13,0.19.08,0.28-.1,0.17a16.33,16.33,0,0,1-4.69-3.72,2.06,2.06,0,0,1-.51-1.23C132.91,81.56,133.73,82,133.82,82.09Z"/><path class="cls-8" d="M166.74,99.88a27.87,27.87,0,0,1-8.39-2.06c-0.3-.11-0.29-0.24,0-0.24a26.69,26.69,0,0,1,8.46.93c0.12,0,1.52.57,1.47,1S166.89,99.88,166.74,99.88Z"/><path class="cls-8" d="M166.25,103.93a26.09,26.09,0,0,1-6.7-3.27c-0.23-.15-0.19-0.24.08-0.18a26,26,0,0,1,7.05,2.46c0.09,0.06,1.17.74,1,1S166.38,104,166.25,103.93Z"/><path class="cls-8" d="M168.28,96.36a18.21,18.21,0,0,1-6.22-.15c-0.23,0-.26-0.13-0.06-0.19a16.46,16.46,0,0,1,6-.74,2.16,2.16,0,0,1,1.26.5C169.29,96.08,168.38,96.33,168.28,96.36Z"/><path class="cls-9" d="M131.21,110.69l12.58-1.54a20.8,20.8,0,0,1,3.06-11.32c0.31-.48.62-0.92,0.95-1.34,0.28-5.86-.79-10.36-2.93-10.95a3.42,3.42,0,0,0-1.58.07c-1.35.26-3,1-5.17,3.39a21.63,21.63,0,0,0-3.9,6.3A47,47,0,0,0,131.21,110.69Z"/><path class="cls-10" d="M135,93.4c0.89-1.77,3.37-6.2,7.65-7.72a2.49,2.49,0,0,1,1.66-.18c3.38,1,3.59,11.15,3.42,11.18l-0.18-.57c-0.35-1.14-.59-2-0.71-2.43-0.46-1.65-.7-2.48-0.79-2.71-0.43-1.1-1.08-2.88-2.43-3.37-1.67-.59-3.7.9-5.06,1.88A12.61,12.61,0,0,0,135,93.4Z"/><path class="cls-11" d="M73.14,94a2.47,2.47,0,0,1,2.09-3,325.37,325.37,0,0,1,83.43,0,2.5,2.5,0,0,1,2.11,3l-29,142.15a38.09,38.09,0,0,0-.71,5.3c-0.12,2-.19,4.2-0.16,6.47s0.14,4.41.31,6.42a1.49,1.49,0,0,1-.73,1.42,26.45,26.45,0,0,1-27,0,1.34,1.34,0,0,1-.66-1.28c0.16-2,.27-4.16.29-6.42,0-2,0-3.85-.12-5.63a41.29,41.29,0,0,0-.8-6.05Z"/><path class="cls-12" d="M151.21,115.43a6.1,6.1,0,0,1-.08.65,7.44,7.44,0,0,1-.18.84,28.39,28.39,0,0,1-12.82,2.18,22.88,22.88,0,0,1-7.79-1.92l-0.07,0c-4.73-2.09-9.06-5.57-17.46-9.41-0.74-.35-1.5-0.69-2.31-1a82,82,0,0,0-8.63-3.11c-0.48-.14-0.94-0.27-1.38-0.39l-0.16,0,0.27,0.07c1.49,0.35,2.93.67,4.32,1,14.55,3,24,2.72,30.31,1.57,2.66-.49,8.93-1.67,12.56,1.7C149,108.55,151.5,111.63,151.21,115.43Z"/><path class="cls-13" d="M151.14,116.07q-11.62,59.37-23.26,118.74a11.08,11.08,0,0,1-9.74,9c-0.25,0-.52,0-0.78,0a10.76,10.76,0,0,1-10.85-9L80.84,104.05a47.05,47.05,0,0,1,15.44-1.38,40.14,40.14,0,0,1,4.2.54,0.24,0.24,0,0,1,.11,0c1.49,0.35,2.93.67,4.32,1,18.53,5,25.48,16.07,38,14.64a21.55,21.55,0,0,0,8.23-2.75h0Z"/><path class="cls-14" d="M106.94,236.44a10.79,10.79,0,0,0,14.7,6.51,11.24,11.24,0,0,0,3.3-2.41,11.37,11.37,0,0,0,1.55-2.05,11.93,11.93,0,0,0,.94-2,23.66,23.66,0,0,0,1-3.94c0.3-1.5.51-2.64,0.56-2.92,0.21-1.16.52-2.86,0.92-5a6.29,6.29,0,0,0-1.9-.14c-6,.48-7.41,9.8-14.05,12.11A10.89,10.89,0,0,1,106.94,236.44Z"/><path class="cls-15" d="M168.14,131.11c1.36-.6,5.2-2.52,6.65-6.42,0.49-1.34,1.65-4.45-.64-7.32a9.91,9.91,0,0,0-4.14-2.87,10,10,0,0,1-2.16,7.06,13.63,13.63,0,0,1-6.16,4.21,14.25,14.25,0,0,0,3,3.2A17.2,17.2,0,0,0,168.14,131.11Z"/><path class="cls-16" d="M132.13,131L124,121.8a3,3,0,0,1,.27-4.28l8.66-7.67a3,3,0,0,1,4.27.27l8.13,9.25a3,3,0,0,1-.27,4.28l-8.66,7.67A3,3,0,0,1,132.13,131Z"/><path class="cls-17" d="M131.18,130l-7.32-8.33a2.83,2.83,0,0,1,.25-4l7.79-6.9a2.81,2.81,0,0,1,4,.25l7.32,8.33a2.83,2.83,0,0,1-.25,4l-7.79,6.9A2.81,2.81,0,0,1,131.18,130Z"/><path class="cls-18" d="M132.48,110.24a2,2,0,0,1,2.87.18l8.35,9.5a2.25,2.25,0,0,1,.44,1.85,2.08,2.08,0,0,1-.62,1l-9,7.93a2,2,0,0,1-1.39.54,2.06,2.06,0,0,1-1.49-.72,2.14,2.14,0,0,0,1.65.15,2,2,0,0,0,.81-0.53l8.85-7.84a1.93,1.93,0,0,0,.17-2.08L135,110.92a2,2,0,0,0-.83-0.72A2.12,2.12,0,0,0,132.48,110.24Z"/><path class="cls-16" d="M115.4,131.47L101.66,129a3,3,0,0,1-2.45-3.52l2.29-13a3,3,0,0,1,3.5-2.46l13.74,2.44a3,3,0,0,1,2.45,3.52l-2.29,13A3,3,0,0,1,115.4,131.47Z"/><path class="cls-19" d="M113.84,131.19L101.45,129a2.82,2.82,0,0,1-2.28-3.27l2.06-11.7a2.81,2.81,0,0,1,3.26-2.29l12.38,2.2a2.82,2.82,0,0,1,2.28,3.27l-2.06,11.7A2.81,2.81,0,0,1,113.84,131.19Z"/><path class="cls-18" d="M101.34,113.44a2.23,2.23,0,0,1,.93-1.48,2.2,2.2,0,0,1,1.65-.32l13.55,2.4a2.44,2.44,0,0,1,1.63,1.27,2.28,2.28,0,0,1,.17,1.31L117,129.49a2.16,2.16,0,0,1-2.57,1.81,2.34,2.34,0,0,0,1.51-1,2.2,2.2,0,0,0,.33-1l2.24-12.73a2.1,2.1,0,0,0-1.26-1.88L104,112.26a2.15,2.15,0,0,0-1.19-.05A2.32,2.32,0,0,0,101.34,113.44Z"/><path class="cls-16" d="M106.71,155.66l-11.63-4.85a3,3,0,0,1-1.63-4l4.54-11a3,3,0,0,1,3.95-1.64l11.63,4.85a3,3,0,0,1,1.63,4l-4.54,11A3,3,0,0,1,106.71,155.66Z"/><path class="cls-20" d="M94.15,101.51a4.35,4.35,0,0,1-2.21.9c-1.67.18-4.58,0.83-6,3.23-2.2,3.66.55,8.81,3.92,11.13,4.87,3.35,10.71.56,11,.43a9.69,9.69,0,0,0,3.82-3.75c2.61-4.81.86-12.64-3.65-14C98.34,98.69,95.6,100.39,94.15,101.51Z"/><path class="cls-21" d="M96.74,103.87a3.67,3.67,0,0,1-4.14,1.8l-0.16,0c-0.64-.18-1.95-0.68-1.92-1.2s1.41-.9,2.71-1.14a2,2,0,0,0,.95-0.45c0.86-.74,2.31-1.88,2.85-1.49s0.13,1.6-.17,2.28Z"/><path class="cls-22" d="M93.87,116.27c-4.89-1.25-7.58-5.66-6.73-9.21A5.62,5.62,0,0,1,88,105.2a0.68,0.68,0,0,1,1.19.66,7.23,7.23,0,0,0-.54,2.22A8.4,8.4,0,0,0,93.87,116.27Z"/><path class="cls-22" d="M103,113c2.5-4.4,1.2-9.41-1.93-11.26a5.57,5.57,0,0,0-1.91-.69,0.68,0.68,0,0,0-.35,1.31,7.17,7.17,0,0,1,2,1.15A8.42,8.42,0,0,1,103,113Z"/><path class="cls-23" d="M93.48,104.08a0.82,0.82,0,0,0,.78-0.07,1.11,1.11,0,0,0,.39-0.5c-0.64-1.47-1.52-3.71-2.86-6.23A61.72,61.72,0,0,0,82,83.67a1.37,1.37,0,0,0-2.26.44l-0.32.78a1.35,1.35,0,0,0,.52,1.65,32.94,32.94,0,0,1,10.65,11A31.79,31.79,0,0,1,93.48,104.08Z"/><path class="cls-24" d="M105.36,155.09l-10.47-4.36A2.83,2.83,0,0,1,93.37,147l4.08-9.87a2.81,2.81,0,0,1,3.68-1.53L111.6,140a2.83,2.83,0,0,1,1.52,3.69L109,153.57A2.81,2.81,0,0,1,105.36,155.09Z"/><path class="cls-18" d="M97.74,136.48a2,2,0,0,1,2.71-1.12l11.85,4.94a2.28,2.28,0,0,1,1.23,1.49,2.12,2.12,0,0,1-.11,1.23l-4.65,11.25a2,2,0,0,1-2.71,1.12,2.18,2.18,0,0,0,1.58-.6,2,2,0,0,0,.5-0.85l4.6-11.13a2,2,0,0,0-.77-2l-11.57-4.89a2,2,0,0,0-1.08-.29A2.16,2.16,0,0,0,97.74,136.48Z"/><path class="cls-16" d="M130.89,147.68l-11.63-4.85a3,3,0,0,1-1.63-4l4.54-11a3,3,0,0,1,3.95-1.64l11.63,4.85a3,3,0,0,1,1.63,4l-4.54,11A3,3,0,0,1,130.89,147.68Z"/><path class="cls-25" d="M129.54,147.11l-10.47-4.36a2.83,2.83,0,0,1-1.52-3.69l4.08-9.87a2.81,2.81,0,0,1,3.68-1.53L135.79,132a2.83,2.83,0,0,1,1.52,3.69l-4.08,9.87A2.81,2.81,0,0,1,129.54,147.11Z"/><path class="cls-18" d="M121.92,128.49a2,2,0,0,1,2.71-1.12l11.85,4.94a2.28,2.28,0,0,1,1.23,1.49,2.12,2.12,0,0,1-.11,1.23l-4.65,11.25a2,2,0,0,1-2.71,1.12,2.18,2.18,0,0,0,1.58-.6,2,2,0,0,0,.5-0.85l4.6-11.13a2,2,0,0,0-.77-2L124.57,128a2,2,0,0,0-1.08-.29A2.16,2.16,0,0,0,121.92,128.49Z"/><path class="cls-26" d="M151.14,116.07q-11.62,59.37-23.26,118.74a11.08,11.08,0,0,1-9.74,9c-0.25,0-.52,0-0.78,0a10.76,10.76,0,0,1-10.85-9L80.84,104.05a47.05,47.05,0,0,1,15.44-1.38,40.14,40.14,0,0,1,4.2.54,0.24,0.24,0,0,1,.11,0c1.49,0.35,2.93.67,4.32,1,18.53,5,25.48,16.07,38,14.64a21.55,21.55,0,0,0,8.23-2.75h0Z"/><path class="cls-27" d="M78.14,90.62c15.54,79.55,27,137.5,28.43,144.27a11.54,11.54,0,0,0,3,5.85,10.92,10.92,0,0,0,9.91,3,11.21,11.21,0,0,0,7.44-6.06,9.63,9.63,0,0,1-5.26,2.72,9.17,9.17,0,0,1-1.64.11,6.74,6.74,0,0,1-4-1.42,13.17,13.17,0,0,1-4-5.51,13.55,13.55,0,0,1-.89-3.37C110.52,225.73,99.93,170.09,84.56,90l-3.36.33Z"/><path class="cls-28" d="M144.18,85.48l7.32,2.11a58.13,58.13,0,0,1,6.82,2.78,4.32,4.32,0,0,1,1.4,1,4.77,4.77,0,0,1,.74,1,5.73,5.73,0,0,1,.46,3.45c-0.4,3-1.47,13.54-.73,20.56,0.65,6.12,2.64,9.18,3.13,9.91a18,18,0,0,0,4.83,4.8,21.24,21.24,0,0,1-8-.56,16.53,16.53,0,0,1-6.71-3.15c-2.14-1.88-3.09-4.39-4.54-18.43-0.23-2.26-.65-5.43-1-10.17-0.06-.71-0.1-1.29-0.13-1.68,0-1,0-1.78,0-2.41a24.38,24.38,0,0,0-.49-3.92c-0.1-.48-0.25-1.1-0.48-1.82-0.73-2.31-1.36-2.84-1.62-3A2.91,2.91,0,0,0,144.18,85.48Z"/><path class="cls-29" d="M97.61,262.75c-0.07.25-13.46-1.85-13.45-4.38,0-1.48,4.38-3.25,18.73-5.22l0,0-0.08,1.2a1.32,1.32,0,0,0,.65,1.27l0.43,0.25c-7,.74-14.07,1.84-14.13,3.45S97.66,262.57,97.61,262.75Z"/><path class="cls-30" d="M127.17,248.69a46.92,46.92,0,0,0,.3,4.83,18.45,18.45,0,0,1-2.45,1.39c-0.37.18-.78,0.35-1.22,0.52l-0.66.24h0l-0.68.21L122,256l-0.69.18-0.75.16-0.55.09-0.73.1c-0.49.06-1,.08-1.37,0.1l-0.64,0a19,19,0,0,1-10.53-3.16c0.16-1.6.26-3.38,0.26-5.29s-0.1-3.67-.26-5.27a14.92,14.92,0,0,0,10.2,4.48c0.33,0,.65,0,1,0h0a14.28,14.28,0,0,0,6.79-2.24,15.26,15.26,0,0,0,2.75-2.21A46.65,46.65,0,0,0,127.17,248.69Z"/><path class="cls-31" d="M124.66,255.09l-0.86.35-0.66.24h0l-0.68.21L122,256l-0.69.18-0.75.16-0.55.09-0.73.1c-0.49.06-1,.08-1.37,0.1q0-4.62,0-9.24h0a14.35,14.35,0,0,0,6.61-2.12A32.25,32.25,0,0,0,124.66,255.09Z"/></svg>