<svg id="Layer_1" data-name="Layer 1" xmlns="http://www.w3.org/2000/svg" xmlns:xlink="http://www.w3.org/1999/xlink" viewBox="0 0 230.86 332.94"><defs><style>.cls-1,.cls-22{fill:#c8972c;}.cls-1{opacity:0.27;}.cls-2{fill:#f9efc7;}.cls-3{fill:#fbf7e6;}.cls-24,.cls-25,.cls-26,.cls-27,.cls-28,.cls-29,.cls-30,.cls-31,.cls-32,.cls-33,.cls-4{opacity:0.66;}.cls-4{fill:url(#radial-gradient);}.cls-5{fill:#e1af25;}.cls-6{fill:#f9d027;}.cls-7{fill:#faf5ae;}.cls-8{fill:#f7d857;}.cls-9{fill:#f6e6a0;}.cls-10{fill:#f2e4a9;}.cls-11{fill:url(#linear-gradient);}.cls-12{fill:url(#linear-gradient-2);}.cls-13,.cls-18,.cls-21{fill:#f4b5b5;}.cls-13{opacity:0.3;}.cls-14{fill:url(#linear-gradient-3);}.cls-15{opacity:0.7;fill:url(#linear-gradient-4);}.cls-16{fill:#e5c63c;opacity:0.81;}.cls-17,.cls-19{fill:#db2e2a;}.cls-17{opacity:0.56;}.cls-18{opacity:0.19;}.cls-20,.cls-22{opacity:0.68;}.cls-20{fill:url(#linear-gradient-5);}.cls-21{opacity:0.22;}.cls-23{fill:#be8d2d;}.cls-24{fill:url(#radial-gradient-2);}.cls-25{fill:url(#radial-gradient-3);}.cls-26{fill:url(#radial-gradient-4);}.cls-27{fill:url(#radial-gradient-5);}.cls-28{fill:url(#radial-gradient-6);}.cls-29{fill:url(#radial-gradient-7);}.cls-30{fill:url(#radial-gradient-8);}.cls-31{fill:url(#radial-gradient-9);}.cls-32{fill:url(#radial-gradient-10);}.cls-33{fill:url(#radial-gradient-11);}.cls-34{fill:#f4d13c;opacity:0.55;}.cls-35{fill:#e9b221;opacity:0.88;}.cls-36,.cls-37,.cls-38{fill:#fff2ea;}.cls-36{opacity:0.4;}.cls-37{opacity:0.53;}.cls-38{opacity:0.33;}</style><radialGradient id="radial-gradient" cx="134.39" cy="137.51" r="1.69" gradientUnits="userSpaceOnUse"><stop offset="0.8" stop-color="#f4e7c0"/><stop offset="0.84" stop-color="#f5ebcb"/><stop offset="1" stop-color="#fbf7f0"/></radialGradient><linearGradient id="linear-gradient" x1="-388.84" y1="225.31" x2="-388.84" y2="219.31" gradientTransform="matrix(-1, 0, 0, 1, -274.24, 0)" gradientUnits="userSpaceOnUse"><stop offset="0" stop-color="#f4e7af"/><stop offset="0.78" stop-color="#fbf4d8"/></linearGradient><linearGradient id="linear-gradient-2" x1="202.91" y1="510.73" x2="202.91" y2="530.94" gradientTransform="translate(-456.18 -2.59) rotate(-54.75)" gradientUnits="userSpaceOnUse"><stop offset="0.38" stop-color="#ee3624"/><stop offset="1" stop-color="#a82723"/></linearGradient><linearGradient id="linear-gradient-3" x1="114.76" y1="208.26" x2="114.76" y2="148.81" gradientUnits="userSpaceOnUse"><stop offset="0.67" stop-color="#e5c63f"/><stop offset="1" stop-color="#eeb62f"/></linearGradient><linearGradient id="linear-gradient-4" x1="422.63" y1="357.51" x2="422.63" y2="375.58" gradientTransform="matrix(-0.98, -0.22, -0.22, 0.98, 628.93, -70.03)" xlink:href="#linear-gradient-2"/><linearGradient id="linear-gradient-5" x1="96.63" y1="150.16" x2="96.63" y2="164.61" gradientTransform="matrix(1, 0, 0, 1, 0, 0)" xlink:href="#linear-gradient-2"/><radialGradient id="radial-gradient-2" cx="134.8" cy="144.59" r="1.73" xlink:href="#radial-gradient"/><radialGradient id="radial-gradient-3" cx="84.43" cy="138.75" r="2.58" xlink:href="#radial-gradient"/><radialGradient id="radial-gradient-4" cx="101.06" cy="138.29" r="1.69" xlink:href="#radial-gradient"/><radialGradient id="radial-gradient-5" cx="88.86" cy="142.02" r="0.85" xlink:href="#radial-gradient"/><radialGradient id="radial-gradient-6" cx="91.46" cy="139.98" r="0.85" xlink:href="#radial-gradient"/><radialGradient id="radial-gradient-7" cx="98.4" cy="151.49" r="0.85" xlink:href="#radial-gradient"/><radialGradient id="radial-gradient-8" cx="101.75" cy="151.49" r="0.85" xlink:href="#radial-gradient"/><radialGradient id="radial-gradient-9" cx="139.02" cy="138.7" r="0.85" xlink:href="#radial-gradient"/><radialGradient id="radial-gradient-10" cx="145.43" cy="145.71" r="0.85" xlink:href="#radial-gradient"/><radialGradient id="radial-gradient-11" cx="139.24" cy="143.7" r="0.85" xlink:href="#radial-gradient"/></defs><title>icons</title><ellipse class="cls-1" cx="115.64" cy="226.77" rx="50.95" ry="10.37"/><path class="cls-2" d="M68.55,116.53a3,3,0,0,0-2.92,3.29q5.22,51.77,10.45,103.54a3.44,3.44,0,0,0,3,3.1,317.66,317.66,0,0,0,36.66,2A317.23,317.23,0,0,0,151,226.41a2.89,2.89,0,0,0,2.54-2.6l9.79-104a3,3,0,0,0-2.92-3.27H68.55Z"/><path class="cls-3" d="M156.05,136.77a66,66,0,0,1-6.27,2.39,64.09,64.09,0,0,1-9.22,2.27l-1.44.23c-1,.15-2,0.27-2.93.36a60.9,60.9,0,0,1-9.42.21A153.7,153.7,0,0,1,109.54,140a180.82,180.82,0,0,1-17.9-3.86,162.12,162.12,0,0,0,19.3.64c7.47-.2,12.46-0.86,17.76-1.28,2.89-.24,5.86-0.39,9.39-0.36l2.15,0h0.08q3.52,0.11,6.53.38C150.71,135.93,153.86,136.39,156.05,136.77Z"/><path class="cls-3" d="M140.62,140.59a5.83,5.83,0,0,1-.06.84l-1.44.23c-1,.15-2,0.27-2.93.36a60.9,60.9,0,0,1-9.42.21,6.82,6.82,0,0,1-.2-1.64,7,7,0,0,1,11.52-5.4,5.91,5.91,0,0,1,.83.83A6.94,6.94,0,0,1,140.62,140.59Z"/><circle class="cls-4" cx="134.39" cy="137.51" r="1.69"/><path class="cls-5" d="M92.13,116.77a29.66,29.66,0,0,0-16.79,28.12l0.88,0,2.54-.15,52.47-3.08,2.82-.16,0.45,0a29.09,29.09,0,0,0-2.84-10.83A29.62,29.62,0,0,0,92.13,116.77Z"/><path class="cls-6" d="M131.25,130.61a28.76,28.76,0,0,1,2.81,10.84l-2.82.16-52.47,3.08-2.54.15A29,29,0,0,1,131.25,130.61Z"/><path class="cls-7" d="M127.89,130.48l0.06,0.27s0,0.08,0,.11a2.28,2.28,0,0,1,.08.26c0,0.07,0,.13,0,0.2a0.81,0.81,0,0,1,.09.27,0.52,0.52,0,0,0,0,.35l1.06,2.2a1.94,1.94,0,0,0,.32.6,0.91,0.91,0,0,1,.3.22,2.18,2.18,0,0,1,.12.25l0.14,0.3c0.07,0.18,0,.12,0,0.28a1.39,1.39,0,0,0,.07.66,3.52,3.52,0,0,0,.26.74,3.88,3.88,0,0,1,.4,1.24,3.08,3.08,0,0,1,.15,1.06,0.55,0.55,0,0,0,0,.34c0,0.11,0,.22.06,0.33a2.18,2.18,0,0,1,.11.25c0,0.09,0,.14,0,0.25a1.49,1.49,0,0,1,.13.29,1.88,1.88,0,0,1,0,.22,1.83,1.83,0,0,0,.09.43l-52.47,3.08c0-.09,0-0.19,0-0.28s0.05-.44.08-0.65,0-.35,0-0.51,0-.17,0-0.24-0.08-.3-0.08-0.43A5.2,5.2,0,0,1,79,141.8a3.58,3.58,0,0,1,.25-0.61,0.67,0.67,0,0,0,0-.54,2.64,2.64,0,0,1,0-.45c0-.2-0.08-0.38-0.1-0.57a5.27,5.27,0,0,1,0-.94,3,3,0,0,1,0-.67s0.06-.24.08-0.26a1.73,1.73,0,0,1,.29-0.18l0-.16,0.21-.13a4.56,4.56,0,0,1-.21-0.68,4.43,4.43,0,0,1,0-.73c0-.06.08-0.12,0.09-0.16a1.58,1.58,0,0,0,0-.22,1.21,1.21,0,0,1,.22-0.72c0.16-.23.38-0.39,0.54-0.61a2,2,0,0,1-.14-0.55c0-.16,0-0.32,0-0.49a3.29,3.29,0,0,1,.14-0.94A3.18,3.18,0,0,1,81,131a1.76,1.76,0,0,0,.4-0.38,3.22,3.22,0,0,1,.19-0.34,0.69,0.69,0,0,0,.16-0.14,0.65,0.65,0,0,1,.21-0.33,1.71,1.71,0,0,0,.36-0.37,2,2,0,0,0,.22-0.62,3.11,3.11,0,0,1,.27-0.61,4.1,4.1,0,0,1,.38-0.6,2,2,0,0,1,.79-0.5,2.71,2.71,0,0,0,.79-0.45,4.21,4.21,0,0,0,.47-0.53,1.42,1.42,0,0,0,.22-0.33c0-.06,0-0.13,0-0.18a0.3,0.3,0,0,1,.15-0.08,4.52,4.52,0,0,1,.51-0.43,3.07,3.07,0,0,0,.54-0.39,4.84,4.84,0,0,1,.45-0.34,3.37,3.37,0,0,0,.6-0.9,2.82,2.82,0,0,1,.81-0.45,2.16,2.16,0,0,0,.3-0.45,6.79,6.79,0,0,0,.32-0.63,0.36,0.36,0,0,1,.23-0.26c0.24-.11.24-0.05,0.41,0.09a0.76,0.76,0,0,0,.89-0.1,2.81,2.81,0,0,0,.79-0.48,4.24,4.24,0,0,1,.34-0.34c0.21-.19,1.35-1.63,1.71-1.16l2.14-1a3.19,3.19,0,0,1,.67-0.31,1.44,1.44,0,0,1,.5.09,1.71,1.71,0,0,0,.51,0,6,6,0,0,0,1.28-.21,2.19,2.19,0,0,0,.54-0.15c0.22-.12.45-0.22,0.67-0.32a2.49,2.49,0,0,1,1.16-.36,2.13,2.13,0,0,1,.51.06,6.94,6.94,0,0,1,.8.07,1,1,0,0,0,.52,0H103a0.65,0.65,0,0,0,.13.05,0.59,0.59,0,0,0,.16-0.1,1.88,1.88,0,0,0,.24,0,4,4,0,0,0,.48-0.22,1,1,0,0,1,.28,0c0.12,0,.23-0.16.34-0.18a1.81,1.81,0,0,1,.29.05l0.39,0,0.11,0c0.08,0,.14.06,0.21,0.06s0.45-.11.59,0.16a0.68,0.68,0,0,1,.53.08,3.3,3.3,0,0,1,.6.18,1.44,1.44,0,0,0,1,.13,4.2,4.2,0,0,0,1.09-.19,1.59,1.59,0,0,1,1-.08,0.56,0.56,0,0,1,.3.25l0.18,0.11a0.19,0.19,0,0,1,.19,0,0.22,0.22,0,0,0,0,.09,5,5,0,0,0,.73.29c0.24,0.08.5,0.15,0.74,0.25a1.54,1.54,0,0,0,1,.12,0.31,0.31,0,0,0,.09.12c0.11,0,.18,0,0.27,0s0.14-.1.29,0a1.13,1.13,0,0,1,.36.54,2.16,2.16,0,0,0,.85.54,4.26,4.26,0,0,0,1,.37,1.33,1.33,0,0,1,.38,0c0.08,0,.15.08,0.23,0.09a0.94,0.94,0,0,0,.31-0.06,0.66,0.66,0,0,1,.75.3,2.83,2.83,0,0,1,.46.3,1.61,1.61,0,0,0,.14.18l0.18,0.06c0.07,0,.12.13,0.19,0.16s0.18,0.05.28,0.11a1.16,1.16,0,0,1,.29.44,1.27,1.27,0,0,0,.45.29,2.85,2.85,0,0,1,.6.15,2,2,0,0,1,.39.39c0.06,0.08.07,0.2,0.13,0.3a0.9,0.9,0,0,0,.16.12c0.18,0.15.35,0.28,0.52,0.45a0.67,0.67,0,0,0,.33.24,1.67,1.67,0,0,1,.47.14,5.55,5.55,0,0,1,.65.51,3.21,3.21,0,0,1,.51.33,4.42,4.42,0,0,1,.28.61,2.51,2.51,0,0,0,.74.93,1.2,1.2,0,0,1,.36.27,3.66,3.66,0,0,1,.34.5l0.54,1.12a2.56,2.56,0,0,0,.27.53,2.67,2.67,0,0,1,.19.22s0,0.1,0,.13a0.51,0.51,0,0,0,.19,0,2,2,0,0,1,.81,1A2.14,2.14,0,0,1,127.89,130.48Z"/><path class="cls-8" d="M88.15,127.36a1.14,1.14,0,0,1-.09-1.61,19,19,0,0,1,13.67-6.55,1.14,1.14,0,0,1,1.17,1.06L104.47,141a0.41,0.41,0,0,1-.68.33Z"/><path class="cls-8" d="M120.56,126.35a1.15,1.15,0,0,1,1.61-.1,18.95,18.95,0,0,1,6.54,13.65,1.14,1.14,0,0,1-1.06,1.17l-20.8,1.6a0.4,0.4,0,0,1-.33-0.67Z"/><path class="cls-8" d="M104.07,120.21a1.15,1.15,0,0,1,1.07-1.21,19,19,0,0,1,14.29,5,1.14,1.14,0,0,1,.08,1.57l-13.6,15.82a0.41,0.41,0,0,1-.71-0.24Z"/><path class="cls-8" d="M82,143.81a1.14,1.14,0,0,1-1.21-1.07,19,19,0,0,1,5-14.28,1.14,1.14,0,0,1,1.57-.08l15.82,13.56a0.41,0.41,0,0,1-.24.71Z"/><path class="cls-7" d="M97.73,141.35c0.59,0.72,2.09.89,3.79,0.5a0.2,0.2,0,0,0,.12-0.33c-1.06-1.39-2.34-2.2-3.25-2A1.06,1.06,0,0,0,97.73,141.35Z"/><path class="cls-7" d="M108.13,136.74c0.19,0.91-.61,2.19-2,3.27a0.2,0.2,0,0,1-.33-0.11c-0.42-1.7-.26-3.2.45-3.8A1.06,1.06,0,0,1,108.13,136.74Z"/><path class="cls-9" d="M96.39,126.62a28.35,28.35,0,0,0,4.8,7.6c0.21,0.26.33,0.21,0.24-.1a27.17,27.17,0,0,0-3.69-8.07c-0.08-.11-1.07-1.31-1.45-1.13S96.35,126.47,96.39,126.62Z"/><path class="cls-9" d="M92.05,127.28a26.66,26.66,0,0,0,5.48,5.52c0.22,0.18.3,0.11,0.15-.14a26.53,26.53,0,0,0-4.77-6.15c-0.09-.07-1.12-0.9-1.36-0.66S92,127.17,92.05,127.28Z"/><path class="cls-9" d="M99,122.69a18.57,18.57,0,0,0,2.17,6.11c0.11,0.22.22,0.21,0.21,0a16.86,16.86,0,0,0-1.19-6.15c0-.09-0.56-1.11-0.91-1.08S99,122.58,99,122.69Z"/><path class="cls-9" d="M111.13,124.67a28.35,28.35,0,0,0-2.82,8.54c-0.06.33,0.05,0.39,0.23,0.12a27.17,27.17,0,0,0,3.89-8c0-.13.34-1.66-0.05-1.84S111.21,124.54,111.13,124.67Z"/><path class="cls-9" d="M107.19,122.82a26.66,26.66,0,0,0-.78,7.74c0,0.28.11,0.3,0.2,0a26.53,26.53,0,0,0,1.71-7.59c0-.12,0-1.44-0.36-1.47S107.23,122.69,107.19,122.82Z"/><path class="cls-9" d="M115.18,125.3a18.57,18.57,0,0,0-3.34,5.56c-0.1.23,0,.31,0.14,0.16a16.86,16.86,0,0,0,4-4.83c0-.09.5-1.14,0.25-1.39S115.26,125.22,115.18,125.3Z"/><path class="cls-9" d="M87.77,136.27A28.35,28.35,0,0,1,96,140c0.28,0.17.25,0.3-.07,0.25a27.17,27.17,0,0,1-8.49-2.57c-0.12-.07-1.45-0.88-1.31-1.29S87.62,136.25,87.77,136.27Z"/><path class="cls-9" d="M87.83,131.88A26.66,26.66,0,0,1,94,136.57c0.2,0.2.15,0.28-.11,0.17a26.53,26.53,0,0,1-6.74-3.9c-0.08-.08-1-1-0.84-1.26S87.71,131.82,87.83,131.88Z"/><path class="cls-9" d="M84.23,139.42a18.57,18.57,0,0,1,6.35,1.32c0.23,0.08.24,0.19,0,.21a16.86,16.86,0,0,1-6.26-.35c-0.09,0-1.18-.41-1.19-0.76S84.12,139.43,84.23,139.42Z"/><path class="cls-9" d="M123,134.63a28.35,28.35,0,0,1-8.34,3.37c-0.32.08-.39,0-0.14-0.22a27.17,27.17,0,0,1,7.71-4.39c0.13,0,1.63-.44,1.84-0.06S123.1,134.54,123,134.63Z"/><path class="cls-9" d="M125.07,138.45a26.66,26.66,0,0,1-7.67,1.27c-0.28,0-.31-0.09,0-0.2a26.53,26.53,0,0,1,7.47-2.2c0.12,0,1.44-.08,1.49.26S125.2,138.4,125.07,138.45Z"/><path class="cls-9" d="M122.09,130.64a18.57,18.57,0,0,1-5.33,3.69c-0.22.11-.3,0-0.17-0.13a16.86,16.86,0,0,1,4.56-4.3c0.09,0,1.11-.57,1.37-0.34S122.16,130.55,122.09,130.64Z"/><path class="cls-10" d="M80.69,210.45c0.38,3.89.77,7.78,1.16,11.65a2,2,0,0,0,.31.89,2.11,2.11,0,0,0,1.63,1c9.91,0.87,20.75,1.38,32.38,1.33,10.44,0,20.22-.54,29.25-1.32a2.24,2.24,0,0,0,1.63-.91,2.08,2.08,0,0,0,.4-1l1.32-11.59c-9.79.91-20.46,1.52-31.92,1.59C103.77,212.12,91.66,211.48,80.69,210.45Z"/><path class="cls-11" d="M82.16,223a2.11,2.11,0,0,0,1.63,1c9.91,0.87,20.75,1.38,32.38,1.33,10.44,0,20.22-.54,29.25-1.32a2.24,2.24,0,0,0,1.63-.91c-2.55-2.13-16.13-3.76-32.5-3.76C98.38,219.31,84.93,220.89,82.16,223Z"/><path class="cls-12" d="M96.35,133.78a10.54,10.54,0,0,1-4.45,6.89,13.7,13.7,0,0,1-2.81,1.62l-0.09,0a10,10,0,0,1-5.49.23c-5.45-1.4-10.1-8.19-8-12.52,1.13-2.26,3.8-3.19,5.68-3.58,0.22-.05.44-0.08,0.63-0.12a4.49,4.49,0,0,0,2.23-1l0.15-.13c1.33-1.13,3.78-2.72,6.49-2.13C95,124,97,129.63,96.35,133.78Z"/><path class="cls-13" d="M84.29,141c-5.05-1.2-7.91-5.68-7.11-9.33a5.72,5.72,0,0,1,.82-1.92,0.7,0.7,0,0,1,1.23.65,7.36,7.36,0,0,0-.51,2.28A8.65,8.65,0,0,0,84.29,141Z"/><path class="cls-3" d="M156.05,136.77q-0.9,8.35-1.82,16.72a128.51,128.51,0,0,0-16.86-1.28c-13.13-.13-20.23,1.83-30.49,2.69a126.19,126.19,0,0,1-31.6-1.41l-1.8-16.72a134.62,134.62,0,0,1,14.42-.66c17.63,0.13,26.05,3.62,38.8,4.29,0.42,0,.84.05,1.27,0.06l1.5,0.05h2c1.8,0,3.9-.08,6.26-0.27,1.34-.11,2.76-0.26,4.27-0.46a86.14,86.14,0,0,0,8.76-1.61Q153.29,137.58,156.05,136.77Z"/><path class="cls-14" d="M154.23,153.5L149,204.11a2.77,2.77,0,0,1-2.44,2.46,299.31,299.31,0,0,1-32.87,1.69A299.83,299.83,0,0,1,83,206.58,2.92,2.92,0,0,1,80.45,204q-2.58-25.25-5.17-50.48a11.1,11.1,0,0,1,5.1-4.18,8.52,8.52,0,0,1,7.37.85c0.49,0.26,1,.56,1.47.88,4.39,2.84,9,7.6,15.78,9.35a20.78,20.78,0,0,0,2.3.46c13,1.84,29.77-8.22,37.66-8.91a20,20,0,0,1,8,1A11.87,11.87,0,0,1,154.23,153.5Z"/><path class="cls-15" d="M138.21,188.07a4.35,4.35,0,0,0,2.24.83c1.67,0.13,4.6.7,6.12,3.05,2.31,3.59-.29,8.82-3.59,11.24-4.77,3.49-10.69.88-11,.76a9.69,9.69,0,0,1-3.93-3.64c-2.75-4.73-1.24-12.61,3.23-14.08C133.94,185.38,136.73,187,138.21,188.07Z"/><path class="cls-16" d="M154.23,153.5a22,22,0,0,0-4.74-1.14,25.9,25.9,0,0,0-13.14,2.1c-7.08,2.81-21.61,8.57-31.48,6.08a15.07,15.07,0,0,1-2.35-.78,59.41,59.41,0,0,1-8.18-4.6,53.94,53.94,0,0,1-5.48-4.26,3.84,3.84,0,0,0,.36.14,39,39,0,0,0,15.14,3c0.3,0,.6,0,0.9,0,0.56,0,1.12-.05,1.7-0.1l0.39,0c12.89-1.24,18.25-9.1,29.21-8.49C140.83,145.6,147,147.15,154.23,153.5Z"/><path class="cls-17" d="M135.69,190.5a3.67,3.67,0,0,0,4.19,1.67l0.16,0c0.63-.19,1.93-0.74,1.89-1.26s-1.44-.86-2.74-1.06a2,2,0,0,1-1-.42c-0.88-.72-2.36-1.81-2.89-1.4s-0.08,1.6.23,2.27Z"/><path class="cls-18" d="M129.73,199.77c-2.63-4.32-1.48-9.37,1.59-11.31a5.57,5.57,0,0,1,1.89-.75,0.68,0.68,0,0,1,.39,1.3,7.17,7.17,0,0,0-1.93,1.21A8.42,8.42,0,0,0,129.73,199.77Z"/><path class="cls-19" d="M81.82,129.94a3.77,3.77,0,0,0,4.24-1.85l0.08-.15c0.31-.6.85-1.94,0.44-2.29s-1.67.43-2.75,1.24a2,2,0,0,1-1,.4c-1.16.12-3,.42-3.11,1.1s1.11,1.21,1.83,1.47Z"/><path class="cls-13" d="M92.54,137.13c3-4.24,2.18-9.49-.84-11.7a5.72,5.72,0,0,0-1.89-.9,0.7,0.7,0,0,0-.49,1.31,7.36,7.36,0,0,1,1.89,1.37A8.65,8.65,0,0,1,92.54,137.13Z"/><path class="cls-20" d="M107,153.88c-0.58.05-1.14,0.08-1.7,0.1-0.3,0-.6,0-0.9,0a39,39,0,0,1-15.14-3c-0.49-.32-1-0.62-1.47-0.88a5.2,5.2,0,0,0-1.31,1.65c-2.15,4.32,2.51,11.11,8,12.51a9.65,9.65,0,0,0,5.24-.16l0.24-.07a14.17,14.17,0,0,0,2.59-1.42l0.15-.1a13.35,13.35,0,0,0,2.25-2l0.13-.15a9.64,9.64,0,0,0,2.24-4.84,10.61,10.61,0,0,0,.11-1.71Z"/><path class="cls-21" d="M95.18,162.74c-5.05-1.2-7.91-5.68-7.11-9.33a5.72,5.72,0,0,1,.82-1.92,0.7,0.7,0,0,1,1.23.65,7.36,7.36,0,0,0-.51,2.28A8.65,8.65,0,0,0,95.18,162.74Z"/><path class="cls-21" d="M103.42,158.9a9.29,9.29,0,0,0,.94-4.9c0.3,0,.6,0,0.9,0A10,10,0,0,1,103.42,158.9Z"/><path class="cls-22" d="M100.14,164.07q5.87,11.84,11.76,23.67l-0.22-6.65a3.63,3.63,0,0,0-.37-1.49l-8.43-17-0.15.1A13.4,13.4,0,0,1,100.14,164.07Z"/><path class="cls-23" d="M69.17,99.24c-1.58.79-1.68,4-.82,6.2a7.47,7.47,0,0,0,4.25,4l10.23,20.6a3.87,3.87,0,0,0,1.68-.58,3.71,3.71,0,0,0,1.09-1q-5.08-10.28-10.17-20.54a7.36,7.36,0,0,0-.44-5.08C73.78,100.45,70.84,98.4,69.17,99.24Zm4.06,4a4.77,4.77,0,0,1,.31,3.83,0.52,0.52,0,0,1-.71.32,5.33,5.33,0,0,1-2.86-3,5,5,0,0,1-.2-2.94,0.51,0.51,0,0,1,.64-0.39A4.75,4.75,0,0,1,73.23,103.27Z"/><path class="cls-18" d="M138,202.85c5-.83,8.07-5,7.53-8.59a5.57,5.57,0,0,0-.67-1.92,0.68,0.68,0,0,0-1.24.55,7.17,7.17,0,0,1,.35,2.25A8.42,8.42,0,0,1,138,202.85Z"/><path class="cls-3" d="M148.82,138.9a64.09,64.09,0,0,1-9.22,2.27l-1.44.23c-1,.15-2,0.27-2.93.36a3.09,3.09,0,0,1,0-.43,7,7,0,0,1,2.75-5.57,6,6,0,0,1,1.32-.8,6.75,6.75,0,0,1,3-.66A7.06,7.06,0,0,1,148.82,138.9Z"/><circle class="cls-3" cx="84.43" cy="141.08" r="7.03"/><circle class="cls-3" cx="94.03" cy="142.08" r="7.03"/><path class="cls-3" d="M142,140.59a7,7,0,0,1-7,7,7,7,0,0,1-7-7,0.57,0.57,0,0,1,0-.13,1.51,1.51,0,0,1,0-.3,3.27,3.27,0,0,1,1.49.35h2c1.8,0,3.9-.08,6.26-0.27,1.34-.11,2.76-0.26,4.27-0.46A7,7,0,0,1,142,140.59Z"/><path class="cls-3" d="M151.61,141.59a7,7,0,0,1-14,0,6.55,6.55,0,0,1,.13-1.34c1.34-.11,2.76-0.26,4.27-0.46a86.14,86.14,0,0,0,8.76-1.61A6.9,6.9,0,0,1,151.61,141.59Z"/><path class="cls-3" d="M131.47,143.67a3.52,3.52,0,0,1-3.51,3.52,3.51,3.51,0,0,1-1.26-6.79,3.33,3.33,0,0,1,1.26-.24h0a3.27,3.27,0,0,1,1.49.35A3.49,3.49,0,0,1,131.47,143.67Z"/><path class="cls-3" d="M104.57,138.75a3.52,3.52,0,0,1-3.51,3.52,3.51,3.51,0,0,1-1.26-6.79,3.33,3.33,0,0,1,1.26-.24h0a3.27,3.27,0,0,1,1.49.35A3.49,3.49,0,0,1,104.57,138.75Z"/><path class="cls-24" d="M133.58,145.85a1.81,1.81,0,0,1,0-2.49,1.65,1.65,0,0,1,2.33-.1l0.07,0.06a1.81,1.81,0,0,1,0,2.49,1.65,1.65,0,0,1-2.33.1Z"/><path class="cls-25" d="M82.61,140.64a2.71,2.71,0,0,1,.05-3.72,2.47,2.47,0,0,1,3.48-.15l0.1,0.1a2.71,2.71,0,0,1-.05,3.72,2.47,2.47,0,0,1-3.48.15Z"/><circle class="cls-26" cx="101.06" cy="138.29" r="1.69"/><circle class="cls-27" cx="88.86" cy="142.02" r="0.85"/><circle class="cls-28" cx="91.46" cy="139.98" r="0.85"/><circle class="cls-29" cx="98.4" cy="151.49" r="0.85"/><circle class="cls-30" cx="101.75" cy="151.49" r="0.85"/><circle class="cls-31" cx="139.02" cy="138.7" r="0.85"/><circle class="cls-32" cx="145.43" cy="145.71" r="0.85"/><circle class="cls-33" cx="139.24" cy="143.7" r="0.85"/><path class="cls-34" d="M79,188.94l1.35,13.81a17,17,0,0,1,3.13-1.11c5.06-1.25,9.33.21,11.6,0.88,7.93,2.34,16.91,2.54,23.41,1a30.92,30.92,0,0,0,9.94-4.39c-10,2.59-16.79,1.2-21.1-.53-10.59-4.25-15.83-14.32-23.3-12.69A9.88,9.88,0,0,0,79,188.94Z"/><path class="cls-35" d="M150,194.6a14.23,14.23,0,0,0-4.57-1.57c-3.92-.61-6.87.94-18.58,6.85a59.27,59.27,0,0,1-5.95,2.81,33.23,33.23,0,0,1-11.5,1.78c-14.51-.11-23-7.11-28-2.81a6.23,6.23,0,0,0-1,1.07l0.1,0.91a3.12,3.12,0,0,0,2.73,2.78,272.84,272.84,0,0,0,31.45,1.83A272.83,272.83,0,0,0,147,206.35a2.27,2.27,0,0,0,2-2Z"/><path class="cls-36" d="M71.37,116.48L80.46,204A2.78,2.78,0,0,0,83,206.51l6.78,0.66-9.18-90.7H71.37Z"/><path class="cls-37" d="M158.12,116.53L149,204.09a2.78,2.78,0,0,1-2.49,2.48l-6.78.66,9.18-90.7h9.19Z"/><polygon class="cls-38" points="144.84 116.53 135.88 207.52 131.95 207.77 140.92 116.53 144.84 116.53"/></svg>